<?xml version="1.0" encoding="utf-8"?>
<!-- Generator: Adobe Illustrator 16.0.0, SVG Export Plug-In . SVG Version: 6.00 Build 0)  -->
<!DOCTYPE svg PUBLIC "-//W3C//DTD SVG 1.1//EN" "http://www.w3.org/Graphics/SVG/1.1/DTD/svg11.dtd">
<svg version="1.1" id="struct_x5F_left" xmlns="http://www.w3.org/2000/svg" xmlns:xlink="http://www.w3.org/1999/xlink" x="0px"
	 y="0px" width="16.75px" height="19.5px" viewBox="0 0 16.75 19.5" enable-background="new 0 0 16.75 19.5" xml:space="preserve">
<g>
	<path opacity="0.3" fill="#231F20" enable-background="new    " d="M6.254,16.738c0-1.525,1.237-2.762,2.762-2.762h7.734V19.5
		H9.016C7.49,19.5,6.254,18.264,6.254,16.738z"/>
	<path opacity="0.4" fill="#FFFFFF" enable-background="new    " d="M9.418,0.5h7.332v17H9.418c-4.693,0-8.5-3.807-8.5-8.5
		C0.918,4.306,4.725,0.5,9.418,0.5z"/>
	<g>
		<g>
			<g>
				<defs>
					<rect id="SVGID_1_" x="0.001" width="16.749" height="19.5"/>
				</defs>
				<clipPath id="SVGID_2_">
					<use xlink:href="#SVGID_1_"  overflow="visible"/>
				</clipPath>
			</g>
		</g>
	</g>
	<rect x="8.251" y="1.594" opacity="0.4" fill="#FFFFFF" width="8.499" height="0.641"/>
	<path fill="#8EC0D1" d="M9.418,1c-4.411,0-8,3.589-8,8c0,1.688,0.52,3.303,1.503,4.67C4.424,15.755,6.853,17,9.418,17h7.332v1
		H9.418c-2.886,0-5.618-1.4-7.309-3.746C1.003,12.716,0.418,10.899,0.418,9c0-4.962,4.037-9,9-9h7.332v1H9.418z"/>
	<g>
		<path fill="#CAA95A" d="M1.382,14.316c0.498,0,0.903-0.383,0.903-0.853V4.693c0-0.471-0.405-0.854-0.903-0.854
			S0.479,4.222,0.479,4.693v8.771C0.479,13.934,0.884,14.316,1.382,14.316z"/>
		<path fill="#936440" d="M1.382,4.304c0.234,0,0.425,0.175,0.425,0.389v8.771c0,0.215-0.19,0.389-0.425,0.389
			c-0.235,0-0.425-0.174-0.425-0.389V4.693C0.957,4.479,1.146,4.304,1.382,4.304 M1.382,3.375C0.619,3.375,0,3.966,0,4.693v8.771
			c0,0.726,0.619,1.317,1.382,1.317s1.382-0.592,1.382-1.317V4.693C2.764,3.966,2.145,3.375,1.382,3.375L1.382,3.375z"/>
	</g>
</g>
</svg>
