<?xml version="1.0" encoding="utf-8"?>
<!-- Generator: Adobe Illustrator 16.0.0, SVG Export Plug-In . SVG Version: 6.00 Build 0)  -->
<!DOCTYPE svg PUBLIC "-//W3C//DTD SVG 1.1//EN" "http://www.w3.org/Graphics/SVG/1.1/DTD/svg11.dtd">
<svg version="1.1" id="bool_x5F_false" xmlns="http://www.w3.org/2000/svg" xmlns:xlink="http://www.w3.org/1999/xlink" x="0px"
	 y="0px" width="13.954px" height="16.5px" viewBox="0 0 13.954 16.5" enable-background="new 0 0 13.954 16.5"
	 xml:space="preserve">
<g>
	<g>
		<path fill="#5E839A" d="M6.977,13.454c-3.571,0-6.477-2.905-6.477-6.477C0.5,3.406,3.405,0.5,6.977,0.5s6.478,2.906,6.478,6.477
			C13.454,10.549,10.548,13.454,6.977,13.454z"/>
		<g>
			<path fill="#46484E" d="M6.977,1c3.296,0,5.978,2.681,5.978,5.977c0,3.295-2.682,5.977-5.978,5.977
				C3.681,12.954,1,10.272,1,6.977C1,3.681,3.681,1,6.977,1 M6.977,0C3.124,0,0,3.124,0,6.977c0,3.853,3.124,6.977,6.977,6.977
				c3.854,0,6.978-3.124,6.978-6.977C13.954,3.124,10.83,0,6.977,0L6.977,0z"/>
		</g>
	</g>
	<ellipse opacity="0.2" fill="#FFFFFF" cx="9.459" cy="4.5" rx="1.625" ry="1.875"/>
</g>
<ellipse opacity="0.3" fill="#231F20" cx="6.864" cy="14.327" rx="4.22" ry="2.173"/>
</svg>
