<?xml version="1.0" encoding="utf-8"?>
<!-- Generator: Adobe Illustrator 16.0.0, SVG Export Plug-In . SVG Version: 6.00 Build 0)  -->
<!DOCTYPE svg PUBLIC "-//W3C//DTD SVG 1.1//EN" "http://www.w3.org/Graphics/SVG/1.1/DTD/svg11.dtd">
<svg version="1.1" xmlns="http://www.w3.org/2000/svg" xmlns:xlink="http://www.w3.org/1999/xlink"
	 width="13.333px" height="15.5px" viewBox="0 0 13.333 15.5" xml:space="preserve" fill="none">
	<g>
		<defs>
			<rect id="rect1" x="0" width="13.332" height="15.5"/>
		</defs>
		<clipPath id="clip1">
			<use xlink:href="#rect1"  overflow="visible"/>
		</clipPath>
		<g clip-path="url(#clip1)">
			<g>
				<path fill="#7EC9A5" d="M-33,13.5c-3.584,0-6.5-2.916-6.5-6.5s2.916-6.5,6.5-6.5H6.333c3.583,0,6.5,2.916,6.5,6.5
					s-2.916,6.5-6.5,6.5H-33z"/>
				<path fill="#46484E" d="M-33,1H6.333c3.309,0,6,2.691,6,6c0,3.309-2.69,6-6,6H-33c-3.309,0-6-2.691-6-6C-39,3.691-36.308,1-33,1
					 M-33,0c-3.865,0-7,3.134-7,7s3.135,7,7,7H6.333c3.867,0,7-3.134,7-7s-3.133-7-7-7H-33L-33,0z"/>
			</g>
			<rect x="-33.814" y="1.584" opacity="0.3" fill="#FFFFFF" width="40.813" height="0.958"/>
			<path opacity="0.3" fill="#231F20" d="M-35.928,13.248c0-1.243,1.009-2.251,2.251-2.251H7.499
				c1.242,0,2.25,1.008,2.25,2.251l0,0c0,1.243-1.008,2.251-2.25,2.251h-41.176C-34.919,15.499-35.928,14.491-35.928,13.248
				L-35.928,13.248z"/>
		</g>
	</g>
</svg>
