<?xml version="1.0" encoding="utf-8"?>
<!-- Generator: Adobe Illustrator 16.0.0, SVG Export Plug-In . SVG Version: 6.00 Build 0)  -->
<!DOCTYPE svg PUBLIC "-//W3C//DTD SVG 1.1//EN" "http://www.w3.org/Graphics/SVG/1.1/DTD/svg11.dtd">
<svg version="1.1" id="int_x5F_middle" xmlns="http://www.w3.org/2000/svg" xmlns:xlink="http://www.w3.org/1999/xlink" x="0px"
	 y="0px" width="13.333px" height="15.5px" viewBox="0 0 13.333 15.5" fill="none"
	 xml:space="preserve">
<g>
	<defs>
		<rect id="SVGID_1_" width="13.333" height="15.5"/>
	</defs>
	<clipPath id="SVGID_2_">
		<use xlink:href="#SVGID_1_"  overflow="visible"/>
	</clipPath>
	<g clip-path="url(#SVGID_2_)">
		<g>
			<path fill="#7EC9A5" d="M-13,13.5c-3.584,0-6.5-2.916-6.5-6.5s2.916-6.5,6.5-6.5h39.332c3.584,0,6.5,2.916,6.5,6.5
				s-2.916,6.5-6.5,6.5H-13z"/>
			<path fill="#46484E" d="M26.333,1c3.309,0,6,2.691,6,6s-2.691,6-6,6H-13c-3.309,0-6-2.691-6-6s2.691-6,6-6H26.333 M26.333,0H-13
				c-3.866,0-7,3.134-7,7s3.134,7,7,7h39.332c3.866,0,7-3.134,7-7S30.199,0,26.333,0L26.333,0z"/>
		</g>
		<rect x="-13.666" y="1.584" opacity="0.3" fill="#FFFFFF" width="40.813" height="0.958"/>
		<path opacity="0.3" fill="#231F20" d="M29.261,13.248c0,1.243-1.008,2.251-2.251,2.251h-41.175c-1.243,0-2.251-1.008-2.251-2.251
			l0,0c0-1.243,1.008-2.251,2.251-2.251H27.01C28.253,10.997,29.261,12.005,29.261,13.248L29.261,13.248z"/>
	</g>
</g>
</svg>
