<?xml version="1.0" encoding="utf-8"?>
<!-- Generator: Adobe Illustrator 16.0.0, SVG Export Plug-In . SVG Version: 6.00 Build 0)  -->
<!DOCTYPE svg PUBLIC "-//W3C//DTD SVG 1.1//EN" "http://www.w3.org/Graphics/SVG/1.1/DTD/svg11.dtd">
<svg version="1.1" id="pointer_x5F_right" xmlns="http://www.w3.org/2000/svg" xmlns:xlink="http://www.w3.org/1999/xlink" x="0px"
	 y="0px" width="13.333px" height="22px" viewBox="0 0 13.333 22" enable-background="new 0 0 13.333 22" xml:space="preserve">
<g>
	<g>
		<defs>
			<rect id="SVGID_1_" width="13.333" height="22"/>
		</defs>
		<clipPath id="SVGID_2_">
			<use xlink:href="#SVGID_1_"  overflow="visible"/>
		</clipPath>
		<g clip-path="url(#SVGID_2_)">
			<g>
				<g>
					<path fill="#B6B8BA" d="M-37.166,20.229c-1.288,0-2.335-1.047-2.335-2.334V9.563c0-1.287,1.047-2.334,2.335-2.334h47.665
						c1.287,0,2.334,1.047,2.334,2.334v8.332c0,1.287-1.047,2.334-2.334,2.334H-37.166z"/>
					<path fill="#46484E" d="M10.499,7.729c1.013,0,1.834,0.823,1.834,1.834v8.332c0,1.013-0.821,1.834-1.834,1.834h-47.665
						c-1.012,0-1.835-0.821-1.835-1.834V9.563c0-1.012,0.823-1.834,1.835-1.834H10.499 M10.499,6.729h-47.665
						c-1.565,0-2.835,1.269-2.835,2.834v8.332c0,1.564,1.27,2.834,2.835,2.834h47.665c1.564,0,2.834-1.27,2.834-2.834V9.563
						C13.333,7.998,12.063,6.729,10.499,6.729L10.499,6.729z"/>
				</g>
				<rect x="-35.083" y="8.313" opacity="0.3" fill="#FFFFFF" enable-background="new    " width="45.75" height="0.958"/>
				<ellipse opacity="0.3" fill="#231F20" enable-background="new    " cx="-32.69" cy="10.038" rx="3.779" ry="4.757"/>
				<g>
					<g>
						<path fill="#B6B8BA" d="M-32.556,9.597c-1.107,0-2.17-0.21-2.708-0.534c-0.085-0.051-0.231-0.152-0.246-0.245
							c-0.045-0.285,0.54-0.968,1.056-1.571c0.525-0.613,1.179-1.377,1.722-2.277c0.543-0.898,0.914-1.833,1.212-2.584
							c0.296-0.745,0.665-1.672,0.942-1.672c0.039,0,0.129,0.014,0.288,0.11c1.284,0.775,3.558,4.702,2.2,6.95
							C-28.778,8.915-30.448,9.597-32.556,9.597z"/>
						<path fill="#46484E" d="M-30.486,1.291c1.168,0.79,3.093,4.362,1.969,6.224c-0.703,1.166-2.548,1.582-4.039,1.582
							c-1.102,0-1.973-0.208-2.385-0.426c0.166-0.279,0.562-0.743,0.867-1.099c0.537-0.627,1.206-1.409,1.77-2.343
							c0.564-0.935,0.943-1.89,1.249-2.658C-30.882,2.134-30.656,1.567-30.486,1.291 M-30.578,0.213
							c-1.024,0-1.272,2.327-2.583,4.498c-1.516,2.512-3.88,3.863-2.361,4.78c0.604,0.365,1.732,0.605,2.966,0.605
							c1.869,0,3.982-0.553,4.896-2.064c1.517-2.512-0.853-6.719-2.37-7.636C-30.238,0.271-30.417,0.213-30.578,0.213L-30.578,0.213
							z"/>
					</g>
					<g>
						<path fill="#46484E" d="M-34.857,9.102c-0.227,0-0.428-0.052-0.597-0.154c-0.929-0.562-0.944-2.878,0.521-5.307
							c1.097-1.817,2.684-3.085,3.857-3.085c0.227,0,0.428,0.051,0.596,0.153c0.467,0.281,0.703,0.972,0.648,1.896
							c-0.061,1.052-0.477,2.263-1.168,3.41C-32.097,7.833-33.683,9.102-34.857,9.102z"/>
						<path fill="#46484E" d="M-31.075,1.056L-31.075,1.056c0.136,0,0.246,0.026,0.337,0.082c0.293,0.177,0.449,0.729,0.408,1.439
							c-0.057,0.959-0.457,2.118-1.098,3.181c-1.115,1.848-2.6,2.845-3.43,2.845c-0.136,0-0.247-0.027-0.338-0.082
							c-0.627-0.378-0.67-2.367,0.689-4.62C-33.39,2.053-31.906,1.056-31.075,1.056 M-31.076,0.056c-1.319,0-3.06,1.296-4.286,3.327
							c-1.515,2.512-1.673,5.195-0.351,5.993c0.253,0.153,0.542,0.226,0.855,0.226c1.32,0,3.06-1.297,4.285-3.328
							c1.517-2.511,1.674-5.195,0.351-5.993C-30.474,0.128-30.763,0.056-31.076,0.056L-31.076,0.056z"/>
					</g>
					<polygon fill="#B6B8BA" stroke="#46484E" stroke-linecap="round" stroke-linejoin="round" stroke-miterlimit="10" points="
						-31.334,3.957 -32.885,6.527 -36.958,3.347 -36.371,2.376 					"/>
					<path fill="#B6B8BA" stroke="#46484E" stroke-linecap="round" stroke-linejoin="round" stroke-miterlimit="10" d="
						M-35.985,3.331c-0.51,0.849-1.633,1.106-2.505,0.579c-0.873-0.527-1.167-1.64-0.655-2.488c0.51-0.847,1.634-1.105,2.506-0.58
						c0.436,0.265,0.728,0.675,0.846,1.125C-35.675,2.417-35.729,2.908-35.985,3.331z"/>
				</g>
				
					<rect x="1.75" y="11.75" fill="none" stroke="#46484E" stroke-linecap="round" stroke-linejoin="round" stroke-miterlimit="10" width="8.438" height="8.5"/>
				
					<line fill="none" stroke="#46484E" stroke-linecap="round" stroke-linejoin="round" stroke-miterlimit="10" x1="3.819" y1="12.063" x2="3.819" y2="19.875"/>
				
					<line fill="none" stroke="#46484E" stroke-linecap="round" stroke-linejoin="round" stroke-miterlimit="10" x1="5.969" y1="12.063" x2="5.969" y2="19.875"/>
				
					<line fill="none" stroke="#46484E" stroke-linecap="round" stroke-linejoin="round" stroke-miterlimit="10" x1="8.063" y1="12.063" x2="8.063" y2="19.875"/>
				<polyline fill="none" stroke="#46484E" stroke-linecap="round" stroke-linejoin="round" stroke-miterlimit="10" points="
					-29.786,19.875 -29.786,15.969 1.25,15.969 				"/>
			</g>
			<rect x="-38.028" y="18.479" opacity="0.3" fill="#231F20" enable-background="new    " width="48.694" height="3.521"/>
		</g>
	</g>
</g>
</svg>
