<?xml version="1.0" encoding="utf-8"?>
<!-- Generator: Adobe Illustrator 16.0.0, SVG Export Plug-In . SVG Version: 6.00 Build 0)  -->
<!DOCTYPE svg PUBLIC "-//W3C//DTD SVG 1.1//EN" "http://www.w3.org/Graphics/SVG/1.1/DTD/svg11.dtd">
<svg version="1.1" id="pointer_x5F_middle" xmlns="http://www.w3.org/2000/svg" xmlns:xlink="http://www.w3.org/1999/xlink" x="0px"
	 y="0px" width="13.333px" height="22px" viewBox="0 0 13.333 22" enable-background="new 0 0 13.333 22" xml:space="preserve">
<g>
	<g>
		<defs>
			<rect id="SVGID_1_" width="13.333" height="22"/>
		</defs>
		<clipPath id="SVGID_2_">
			<use xlink:href="#SVGID_1_"  overflow="visible"/>
		</clipPath>
		<g clip-path="url(#SVGID_2_)">
			<g>
				<g>
					<path fill="#B6B8BA" d="M-17.165,20.229c-1.288,0-2.335-1.047-2.335-2.334V9.563c0-1.287,1.047-2.334,2.335-2.334H30.5
						c1.287,0,2.334,1.047,2.334,2.334v8.332c0,1.287-1.047,2.334-2.334,2.334H-17.165z"/>
					<path fill="#46484E" d="M30.5,7.729c1.012,0,1.834,0.823,1.834,1.834v8.332c0,1.013-0.822,1.834-1.834,1.834h-47.666
						c-1.012,0-1.835-0.821-1.835-1.834V9.563c0-1.012,0.823-1.834,1.835-1.834H30.5 M30.5,6.729h-47.666
						C-18.73,6.729-20,7.998-20,9.563v8.332c0,1.564,1.27,2.834,2.835,2.834H30.5c1.563,0,2.834-1.27,2.834-2.834V9.563
						C33.333,7.998,32.064,6.729,30.5,6.729L30.5,6.729z"/>
				</g>
				<rect x="-15.082" y="8.313" opacity="0.3" fill="#FFFFFF" enable-background="new    " width="45.749" height="0.958"/>
				<ellipse opacity="0.3" fill="#231F20" enable-background="new    " cx="-12.689" cy="10.038" rx="3.779" ry="4.757"/>
				<g>
					<g>
						<path fill="#B6B8BA" d="M-12.555,9.597c-1.107,0-2.17-0.21-2.708-0.534c-0.085-0.051-0.231-0.152-0.246-0.245
							c-0.045-0.285,0.54-0.968,1.056-1.571c0.525-0.613,1.179-1.377,1.722-2.277c0.543-0.899,0.914-1.833,1.212-2.584
							c0.296-0.745,0.665-1.672,0.942-1.672c0.039,0,0.129,0.014,0.288,0.11c1.284,0.775,3.558,4.702,2.2,6.95
							C-8.777,8.915-10.447,9.597-12.555,9.597z"/>
						<path fill="#46484E" d="M-10.485,1.291c1.168,0.79,3.093,4.362,1.969,6.224c-0.703,1.166-2.548,1.582-4.039,1.582
							c-1.102,0-1.973-0.208-2.385-0.426c0.166-0.279,0.562-0.743,0.867-1.099c0.537-0.627,1.206-1.409,1.77-2.343
							c0.564-0.935,0.943-1.89,1.249-2.658C-10.881,2.134-10.655,1.567-10.485,1.291 M-10.577,0.213
							c-1.024,0-1.272,2.327-2.583,4.498c-1.516,2.512-3.88,3.863-2.361,4.78c0.604,0.365,1.732,0.606,2.966,0.606
							c1.869,0,3.982-0.553,4.896-2.065c1.517-2.512-0.853-6.719-2.37-7.636C-10.237,0.271-10.417,0.213-10.577,0.213L-10.577,0.213
							z"/>
					</g>
					<g>
						<path fill="#46484E" d="M-14.856,9.102c-0.227,0-0.428-0.052-0.597-0.154c-0.929-0.561-0.944-2.878,0.521-5.307
							c1.097-1.817,2.684-3.085,3.857-3.085c0.227,0,0.428,0.051,0.596,0.153c0.467,0.281,0.703,0.972,0.648,1.896
							c-0.061,1.052-0.477,2.263-1.168,3.41C-12.096,7.833-13.682,9.102-14.856,9.102z"/>
						<path fill="#46484E" d="M-11.074,1.056L-11.074,1.056c0.136,0,0.246,0.026,0.337,0.082c0.293,0.177,0.449,0.728,0.408,1.439
							c-0.057,0.959-0.457,2.118-1.098,3.181c-1.115,1.848-2.6,2.845-3.43,2.845c-0.136,0-0.247-0.027-0.338-0.082
							c-0.627-0.378-0.67-2.367,0.689-4.62C-13.389,2.053-11.905,1.056-11.074,1.056 M-11.075,0.056
							c-1.319,0-3.06,1.296-4.286,3.327c-1.515,2.512-1.673,5.195-0.351,5.993c0.253,0.153,0.542,0.226,0.855,0.226
							c1.32,0,3.06-1.297,4.285-3.328c1.517-2.511,1.674-5.195,0.351-5.993C-10.473,0.128-10.762,0.056-11.075,0.056L-11.075,0.056z
							"/>
					</g>
					<polygon fill="#B6B8BA" stroke="#46484E" stroke-linecap="round" stroke-linejoin="round" stroke-miterlimit="10" points="
						-11.333,3.957 -12.884,6.527 -16.957,3.347 -16.37,2.376 					"/>
					<path fill="#B6B8BA" stroke="#46484E" stroke-linecap="round" stroke-linejoin="round" stroke-miterlimit="10" d="
						M-15.984,3.331c-0.51,0.849-1.633,1.106-2.505,0.579c-0.873-0.527-1.167-1.64-0.655-2.488c0.51-0.847,1.634-1.105,2.506-0.58
						c0.436,0.265,0.728,0.675,0.846,1.125C-15.674,2.417-15.728,2.908-15.984,3.331z"/>
				</g>
				
					<rect x="21.75" y="11.75" fill="none" stroke="#46484E" stroke-linecap="round" stroke-linejoin="round" stroke-miterlimit="10" width="8.438" height="8.5"/>
				
					<line fill="none" stroke="#46484E" stroke-linecap="round" stroke-linejoin="round" stroke-miterlimit="10" x1="23.82" y1="12.063" x2="23.82" y2="19.875"/>
				
					<line fill="none" stroke="#46484E" stroke-linecap="round" stroke-linejoin="round" stroke-miterlimit="10" x1="25.97" y1="12.063" x2="25.97" y2="19.875"/>
				
					<line fill="none" stroke="#46484E" stroke-linecap="round" stroke-linejoin="round" stroke-miterlimit="10" x1="28.064" y1="12.063" x2="28.064" y2="19.875"/>
				<polyline fill="none" stroke="#46484E" stroke-linecap="round" stroke-linejoin="round" stroke-miterlimit="10" points="
					-9.785,19.875 -9.785,15.969 21.25,15.969 				"/>
			</g>
			<rect x="-18.027" y="18.479" opacity="0.3" fill="#231F20" enable-background="new    " width="48.693" height="3.521"/>
		</g>
	</g>
</g>
</svg>
