<?xml version="1.0" encoding="utf-8"?>
<!-- Generator: Adobe Illustrator 16.0.0, SVG Export Plug-In . SVG Version: 6.00 Build 0)  -->
<!DOCTYPE svg PUBLIC "-//W3C//DTD SVG 1.1//EN" "http://www.w3.org/Graphics/SVG/1.1/DTD/svg11.dtd">
<svg version="1.1" id="pointer_x5F_left_x5F_ok" xmlns="http://www.w3.org/2000/svg" xmlns:xlink="http://www.w3.org/1999/xlink"
	 x="0px" y="0px" width="13.333px" height="22px" viewBox="0 0 13.333 22" fill="none"
	 xml:space="preserve">
<g>
	<g>
		<g>
			<defs>
				<rect id="SVGID_1_" y="-0.001" width="13.333" height="22.001"/>
			</defs>
			<clipPath id="SVGID_2_">
				<use xlink:href="#SVGID_1_"  overflow="visible"/>
			</clipPath>
			<g clip-path="url(#SVGID_2_)">
				<g>
					<g>
						<path fill="#B6B8BA" d="M2.836,20.229c-1.288,0-2.335-1.047-2.335-2.334V9.562c0-1.287,1.047-2.334,2.335-2.334H50.5
							c1.287,0,2.334,1.047,2.334,2.334v8.333c0,1.287-1.047,2.334-2.334,2.334H2.836z"/>
						<path fill="#46484E" d="M50.5,7.728c1.012,0,1.834,0.823,1.834,1.834v8.333c0,1.012-0.822,1.834-1.834,1.834H2.836
							c-1.012,0-1.835-0.822-1.835-1.834V9.562c0-1.012,0.823-1.834,1.835-1.834H50.5 M50.5,6.728H2.836
							c-1.565,0-2.835,1.269-2.835,2.834v8.333c0,1.563,1.27,2.834,2.835,2.834H50.5c1.563,0,2.834-1.271,2.834-2.834V9.562
							C53.334,7.997,52.065,6.728,50.5,6.728L50.5,6.728z"/>
					</g>
					<rect x="4.919" y="8.311" opacity="0.3" fill="#FFFFFF" width="45.75" height="0.958"/>
					<ellipse opacity="0.3" fill="#231F20" cx="7.312" cy="10.037" rx="3.778" ry="4.757"/>
					<g>
						<g>
							<path fill="#B6B8BA" d="M7.446,9.596c-1.107,0-2.17-0.21-2.708-0.534C4.653,9.009,4.507,8.91,4.492,8.815
								C4.447,8.53,5.032,7.847,5.548,7.244C6.073,6.631,6.727,5.868,7.27,4.967c0.543-0.899,0.914-1.833,1.212-2.584
								c0.296-0.745,0.665-1.672,0.942-1.672c0.039,0,0.129,0.014,0.287,0.11c1.285,0.775,3.559,4.702,2.201,6.95
								C11.224,8.914,9.554,9.596,7.446,9.596z"/>
							<path fill="#46484E" d="M9.516,1.29c1.168,0.79,3.093,4.362,1.969,6.224C10.782,8.68,8.937,9.096,7.446,9.096
								c-1.102,0-1.973-0.208-2.385-0.426c0.166-0.279,0.562-0.743,0.867-1.099c0.537-0.627,1.206-1.409,1.77-2.343
								c0.564-0.935,0.943-1.89,1.249-2.658C9.12,2.132,9.346,1.565,9.516,1.29 M9.424,0.211c-1.024,0-1.272,2.327-2.583,4.498
								C5.325,7.222,2.961,8.573,4.48,9.49c0.604,0.365,1.732,0.606,2.966,0.606c1.869,0,3.982-0.553,4.896-2.065
								c1.517-2.512-0.854-6.719-2.37-7.636C9.764,0.269,9.584,0.211,9.424,0.211L9.424,0.211z"/>
						</g>
						<g>
							<path fill="#46484E" d="M5.145,9.101c-0.227,0-0.428-0.052-0.597-0.154C3.619,8.386,3.604,6.068,5.069,3.641
								c1.097-1.817,2.684-3.085,3.857-3.085c0.227,0,0.428,0.051,0.596,0.153c0.467,0.281,0.703,0.972,0.648,1.896
								c-0.063,1.052-0.479,2.263-1.168,3.41C7.905,7.832,6.319,9.101,5.145,9.101z"/>
							<path fill="#46484E" d="M8.926,1.055L8.926,1.055c0.137,0,0.246,0.026,0.338,0.082c0.293,0.177,0.449,0.728,0.408,1.439
								c-0.057,0.959-0.457,2.118-1.098,3.18C7.459,7.604,5.974,8.601,5.144,8.601c-0.136,0-0.247-0.027-0.338-0.082
								c-0.627-0.378-0.67-2.366,0.69-4.62C6.612,2.052,8.096,1.055,8.926,1.055 M8.926,0.055c-1.319,0-3.06,1.296-4.286,3.327
								C3.125,5.894,2.968,8.577,4.29,9.374C4.543,9.527,4.832,9.6,5.145,9.6c1.32,0,3.061-1.297,4.285-3.328
								c1.517-2.511,1.674-5.195,0.352-5.993C9.528,0.126,9.239,0.055,8.926,0.055L8.926,0.055z"/>
						</g>
						<polygon fill="#B6B8BA" stroke="#46484E" stroke-linecap="round" stroke-linejoin="round" stroke-miterlimit="10" points="
							8.667,3.956 7.117,6.525 3.044,3.346 3.631,2.374 						"/>
						<path fill="#75C044" stroke="#95CC77" stroke-linecap="round" stroke-linejoin="round" stroke-miterlimit="10" d="M4.017,3.33
							C3.506,4.179,2.384,4.436,1.512,3.909c-0.873-0.527-1.167-1.64-0.656-2.488c0.51-0.847,1.634-1.105,2.506-0.58
							C3.798,1.106,4.09,1.516,4.208,1.966C4.327,2.415,4.273,2.907,4.017,3.33z"/>
					</g>

						<rect x="41.752" y="11.749" fill="none" stroke="#46484E" stroke-linecap="round" stroke-linejoin="round" stroke-miterlimit="10" width="8.438" height="8.501"/>

						<line fill="none" stroke="#46484E" stroke-linecap="round" stroke-linejoin="round" stroke-miterlimit="10" x1="43.821" y1="12.061" x2="43.821" y2="19.874"/>

						<line fill="none" stroke="#46484E" stroke-linecap="round" stroke-linejoin="round" stroke-miterlimit="10" x1="45.971" y1="12.061" x2="45.971" y2="19.874"/>

						<line fill="none" stroke="#46484E" stroke-linecap="round" stroke-linejoin="round" stroke-miterlimit="10" x1="48.065" y1="12.061" x2="48.065" y2="19.874"/>
					<polyline fill="none" stroke="#46484E" stroke-linecap="round" stroke-linejoin="round" stroke-miterlimit="10" points="
						10.215,19.874 10.215,15.967 41.252,15.967 					"/>
				</g>
				<rect x="1.974" y="18.477" opacity="0.3" fill="#231F20" width="48.694" height="3.522"/>
			</g>
		</g>
	</g>
</g>
</svg>
