<?xml version="1.0" encoding="utf-8"?>
<!-- Generator: Adobe Illustrator 16.0.0, SVG Export Plug-In . SVG Version: 6.00 Build 0)  -->
<!DOCTYPE svg PUBLIC "-//W3C//DTD SVG 1.1//EN" "http://www.w3.org/Graphics/SVG/1.1/DTD/svg11.dtd">
<svg version="1.1" id="pointer_x5F_left" xmlns="http://www.w3.org/2000/svg" xmlns:xlink="http://www.w3.org/1999/xlink" x="0px"
	 y="0px" width="13.333px" height="22px" viewBox="0 0 13.333 22" enable-background="new 0 0 13.333 22" xml:space="preserve">
<g>
	<g>
		<defs>
			<rect id="SVGID_1_" width="13.333" height="22"/>
		</defs>
		<clipPath id="SVGID_2_">
			<use xlink:href="#SVGID_1_"  overflow="visible"/>
		</clipPath>
		<g clip-path="url(#SVGID_2_)">
			<g>
				<g>
					<path fill="#B6B8BA" d="M2.836,20.229c-1.288,0-2.335-1.047-2.335-2.334V9.563c0-1.287,1.047-2.334,2.335-2.334H50.5
						c1.287,0,2.334,1.047,2.334,2.334v8.332c0,1.287-1.047,2.334-2.334,2.334H2.836z"/>
					<path fill="#46484E" d="M50.5,7.729c1.012,0,1.834,0.823,1.834,1.834v8.332c0,1.013-0.822,1.834-1.834,1.834H2.836
						c-1.012,0-1.835-0.821-1.835-1.834V9.563c0-1.012,0.823-1.834,1.835-1.834H50.5 M50.5,6.729H2.836
						c-1.565,0-2.835,1.269-2.835,2.834v8.332c0,1.564,1.27,2.834,2.835,2.834H50.5c1.563,0,2.834-1.27,2.834-2.834V9.563
						C53.334,7.998,52.065,6.729,50.5,6.729L50.5,6.729z"/>
				</g>
				<rect x="4.919" y="8.313" opacity="0.3" fill="#FFFFFF" enable-background="new    " width="45.75" height="0.958"/>
				<ellipse opacity="0.3" fill="#231F20" enable-background="new    " cx="7.312" cy="10.038" rx="3.778" ry="4.757"/>
				<g>
					<g>
						<path fill="#B6B8BA" d="M7.446,9.597c-1.107,0-2.17-0.21-2.708-0.534C4.653,9.011,4.507,8.911,4.492,8.817
							c-0.045-0.285,0.54-0.968,1.056-1.571C6.073,6.633,6.727,5.869,7.27,4.969C7.813,4.07,8.184,3.136,8.482,2.385
							C8.778,1.64,9.147,0.713,9.424,0.713c0.039,0,0.129,0.014,0.287,0.11c1.285,0.775,3.559,4.702,2.201,6.95
							C11.224,8.915,9.554,9.597,7.446,9.597z"/>
						<path fill="#46484E" d="M9.516,1.291c1.168,0.79,3.093,4.362,1.969,6.224c-0.703,1.166-2.548,1.582-4.039,1.582
							c-1.102,0-1.973-0.208-2.385-0.426c0.166-0.279,0.562-0.743,0.867-1.099c0.537-0.627,1.206-1.409,1.77-2.343
							c0.564-0.935,0.943-1.89,1.249-2.658C9.12,2.134,9.346,1.567,9.516,1.291 M9.424,0.213c-1.024,0-1.272,2.327-2.583,4.498
							c-1.516,2.512-3.88,3.863-2.361,4.78c0.604,0.365,1.732,0.606,2.966,0.606c1.869,0,3.982-0.553,4.896-2.065
							c1.517-2.512-0.854-6.719-2.37-7.636C9.764,0.271,9.584,0.213,9.424,0.213L9.424,0.213z"/>
					</g>
					<g>
						<path fill="#46484E" d="M5.145,9.102c-0.227,0-0.428-0.052-0.597-0.154C3.619,8.387,3.604,6.07,5.069,3.642
							c1.097-1.817,2.684-3.085,3.857-3.085c0.227,0,0.428,0.051,0.596,0.153c0.467,0.281,0.703,0.972,0.648,1.896
							c-0.062,1.052-0.478,2.263-1.168,3.41C7.905,7.833,6.319,9.102,5.145,9.102z"/>
						<path fill="#46484E" d="M8.926,1.056L8.926,1.056c0.137,0,0.246,0.026,0.338,0.082c0.293,0.177,0.449,0.728,0.408,1.439
							c-0.057,0.959-0.457,2.118-1.098,3.18c-1.115,1.848-2.6,2.845-3.43,2.845c-0.136,0-0.247-0.027-0.338-0.082
							C4.18,8.142,4.137,6.154,5.497,3.9C6.612,2.053,8.096,1.056,8.926,1.056 M8.926,0.056c-1.319,0-3.06,1.296-4.286,3.327
							C3.125,5.896,2.968,8.578,4.29,9.376c0.253,0.153,0.542,0.226,0.855,0.226c1.32,0,3.061-1.297,4.285-3.328
							c1.517-2.511,1.674-5.195,0.352-5.993C9.528,0.128,9.239,0.056,8.926,0.056L8.926,0.056z"/>
					</g>
					<polygon fill="#B6B8BA" stroke="#46484E" stroke-linecap="round" stroke-linejoin="round" stroke-miterlimit="10" points="
						8.667,3.957 7.117,6.527 3.044,3.347 3.631,2.376 					"/>
					<path fill="#B6B8BA" stroke="#46484E" stroke-linecap="round" stroke-linejoin="round" stroke-miterlimit="10" d="M4.017,3.331
						C3.506,4.18,2.384,4.437,1.512,3.91C0.639,3.383,0.345,2.27,0.856,1.422c0.51-0.847,1.634-1.105,2.506-0.58
						C3.798,1.107,4.09,1.517,4.208,1.967C4.327,2.417,4.273,2.908,4.017,3.331z"/>
				</g>
				
					<rect x="41.752" y="11.75" fill="none" stroke="#46484E" stroke-linecap="round" stroke-linejoin="round" stroke-miterlimit="10" width="8.438" height="8.5"/>
				
					<line fill="none" stroke="#46484E" stroke-linecap="round" stroke-linejoin="round" stroke-miterlimit="10" x1="43.821" y1="12.063" x2="43.821" y2="19.875"/>
				
					<line fill="none" stroke="#46484E" stroke-linecap="round" stroke-linejoin="round" stroke-miterlimit="10" x1="45.971" y1="12.063" x2="45.971" y2="19.875"/>
				
					<line fill="none" stroke="#46484E" stroke-linecap="round" stroke-linejoin="round" stroke-miterlimit="10" x1="48.065" y1="12.063" x2="48.065" y2="19.875"/>
				<polyline fill="none" stroke="#46484E" stroke-linecap="round" stroke-linejoin="round" stroke-miterlimit="10" points="
					10.215,19.875 10.215,15.969 41.252,15.969 				"/>
			</g>
			<rect x="1.974" y="18.479" opacity="0.3" fill="#231F20" enable-background="new    " width="48.694" height="3.521"/>
		</g>
	</g>
</g>
</svg>
