<?xml version="1.0" encoding="utf-8"?>
<!-- Generator: Adobe Illustrator 16.0.0, SVG Export Plug-In . SVG Version: 6.00 Build 0)  -->
<!DOCTYPE svg PUBLIC "-//W3C//DTD SVG 1.1//EN" "http://www.w3.org/Graphics/SVG/1.1/DTD/svg11.dtd">
<svg version="1.1" id="struct_x5F_right" xmlns="http://www.w3.org/2000/svg" xmlns:xlink="http://www.w3.org/1999/xlink" x="0px"
	 y="0px" width="16.75px" height="19.5px" viewBox="0 0 16.75 19.5" enable-background="new 0 0 16.75 19.5" xml:space="preserve">
<g>
	<path opacity="0.3" fill="#231F20" enable-background="new    " d="M10.496,16.738c0-1.525-1.237-2.762-2.761-2.762H0V19.5h7.735
		C9.26,19.5,10.496,18.264,10.496,16.738z"/>
	<path opacity="0.4" fill="#FFFFFF" enable-background="new    " d="M7.332,0.5H0v17h7.332c4.693,0,8.5-3.807,8.5-8.5
		C15.832,4.306,12.025,0.5,7.332,0.5z"/>
	<rect y="1.594" opacity="0.4" fill="#FFFFFF" enable-background="new    " width="8.499" height="0.641"/>
	<path fill="#8EC0D1" d="M7.332,1c4.411,0,8,3.589,8,8c0,1.688-0.52,3.303-1.503,4.67C12.326,15.755,9.896,17,7.332,17H0v1h7.332
		c2.886,0,5.618-1.4,7.309-3.746C15.747,12.716,16.332,10.9,16.332,9c0-4.962-4.037-9-9-9H0v1H7.332z"/>
</g>
</svg>
