<?xml version="1.0" encoding="utf-8"?>
<!-- Generator: Adobe Illustrator 16.0.0, SVG Export Plug-In . SVG Version: 6.00 Build 0)  -->
<!DOCTYPE svg PUBLIC "-//W3C//DTD SVG 1.1//EN" "http://www.w3.org/Graphics/SVG/1.1/DTD/svg11.dtd">
<svg version="1.1" id="struct_x5F_left" xmlns="http://www.w3.org/2000/svg" xmlns:xlink="http://www.w3.org/1999/xlink" x="0px"
	 y="0px" width="16.75px" height="19.5px" viewBox="0 0 16.75 19.5" enable-background="new 0 0 16.75 19.5" xml:space="preserve">
<g>
	<path opacity="0.3" fill="#231F20" enable-background="new    " d="M9.016,19.5h7.734v-5.523H9.016
		c-1.524,0-2.762,1.236-2.762,2.762S7.49,19.5,9.016,19.5z"/>
	<path opacity="0.4" fill="#FFFFFF" enable-background="new    " d="M0.918,9c0,4.693,3.807,8.5,8.5,8.5h7.332v-17H9.418
		C4.725,0.5,0.918,4.306,0.918,9z"/>
	<rect x="8.251" y="1.594" opacity="0.4" fill="#FFFFFF" enable-background="new    " width="8.499" height="0.641"/>
	<path fill="#8EC0D1" d="M16.75,1V0H9.418c-4.963,0-9,4.038-9,9c0,1.9,0.585,3.716,1.691,5.254C3.8,16.6,6.532,18,9.418,18h7.332v-1
		H9.418c-2.564,0-4.994-1.245-6.497-3.33C1.938,12.303,1.418,10.688,1.418,9c0-4.411,3.589-8,8-8H16.75z"/>
</g>
</svg>
