<?xml version="1.0" encoding="utf-8"?>
<!-- Generator: Adobe Illustrator 16.0.0, SVG Export Plug-In . SVG Version: 6.00 Build 0)  -->
<!DOCTYPE svg PUBLIC "-//W3C//DTD SVG 1.1//EN" "http://www.w3.org/Graphics/SVG/1.1/DTD/svg11.dtd">
<svg version="1.1" id="Layer_2" xmlns="http://www.w3.org/2000/svg" xmlns:xlink="http://www.w3.org/1999/xlink" x="0px" y="0px"
	 width="13.293px" height="10.357px" viewBox="0 0 13.293 10.357" enable-background="new 0 0 13.293 10.357" xml:space="preserve">
<g>
	<g opacity="0.5">
		<polygon opacity="0.6" fill="#FFFFFF" points="11.998,4.646 12.689,3.188 11.732,1.997 12.66,0.11 0.019,0.11 0.019,10.018 
			12.527,10.018 12.174,8.059 13.012,7.112 		"/>
		<polygon fill="#FCFCFC" points="12.139,4.645 12.846,3.158 11.885,1.964 12.85,0 0.019,0 0.019,0.22 12.469,0.22 11.58,2.03 
			12.531,3.217 11.857,4.647 12.873,7.117 12.059,8.016 12.045,8.045 12.381,9.908 0.019,9.908 0.019,10.127 12.674,10.127 
			12.303,8.072 13.15,7.106 		"/>
	</g>
	<g opacity="0.3">
		<polygon points="11.885,1.964 12.039,2.074 13.025,0.084 12.809,0.084 		"/>
		<polygon points="12.264,4.804 12.988,3.301 12.828,3.188 12.139,4.645 13.15,7.106 12.303,8.072 12.674,10.127 12.51,10.127 
			12.512,10.138 0.019,10.138 0.019,10.357 12.805,10.357 12.416,8.22 13.273,7.249 		"/>
	</g>
	<polygon opacity="0.1" fill="#FFFFFF" points="11.451,0.194 5.328,9.915 0.154,9.915 6.116,0.194 	"/>
</g>
</svg>
