<?xml version="1.0" encoding="utf-8"?>
<!-- Generator: Adobe Illustrator 16.0.0, SVG Export Plug-In . SVG Version: 6.00 Build 0)  -->
<!DOCTYPE svg PUBLIC "-//W3C//DTD SVG 1.1//EN" "http://www.w3.org/Graphics/SVG/1.1/DTD/svg11.dtd">
<svg version="1.1" id="Layer_2" xmlns="http://www.w3.org/2000/svg" xmlns:xlink="http://www.w3.org/1999/xlink" x="0px" y="0px"
	 width="13.293px" height="10.357px" viewBox="0 0 13.293 10.357" enable-background="new 0 0 13.293 10.357" xml:space="preserve">
<g>
	<g opacity="0.5">
		<polygon opacity="0.6" fill="#FFFFFF" points="1.314,4.646 0.3,2.904 1.579,1.997 0.652,0.11 13.293,0.11 13.293,10.018 
			0.784,10.018 1.138,8.059 0.3,6.315 		"/>
		<polygon fill="#FCFCFC" points="1.174,4.645 0.143,2.874 1.427,1.964 0.462,0 13.293,0 13.293,0.22 0.843,0.22 1.731,2.03 
			0.457,2.934 1.455,4.647 0.438,6.321 1.253,8.016 1.267,8.045 0.931,9.908 13.293,9.908 13.293,10.127 0.638,10.127 1.009,8.072 
			0.161,6.311 		"/>
	</g>
	<g opacity="0.3">
		<polygon points="1.427,1.964 1.272,2.074 0.287,0.084 0.503,0.084 		"/>
		<polygon points="1.048,4.804 0,3.018 0.16,2.904 1.174,4.645 0.161,6.311 1.009,8.072 0.638,10.127 0.802,10.127 0.8,10.138 
			13.293,10.138 13.293,10.357 0.507,10.357 0.896,8.22 0.038,6.453 		"/>
	</g>
	<polygon opacity="0.1" fill="#FFFFFF" points="13.158,0.194 7.035,9.915 1.861,9.915 7.823,0.194 	"/>
</g>
</svg>
