<?xml version="1.0" encoding="utf-8"?>
<!-- Generator: Adobe Illustrator 16.0.0, SVG Export Plug-In . SVG Version: 6.00 Build 0)  -->
<!DOCTYPE svg PUBLIC "-//W3C//DTD SVG 1.1//EN" "http://www.w3.org/Graphics/SVG/1.1/DTD/svg11.dtd">
<svg version="1.1" id="Layer_2" xmlns="http://www.w3.org/2000/svg" xmlns:xlink="http://www.w3.org/1999/xlink" x="0px" y="0px"
	 width="3.246px" height="11.98px" viewBox="0 -0.829 3.246 11.98" enable-background="new 0 -0.829 3.246 11.98"
	 xml:space="preserve">
<g>
	<g>
		<g opacity="0.5">
			<polygon opacity="0.6" fill="#FFFFFF" points="3.246,10.743 3.246,-0.686 0.729,-0.686 1.798,1.491 0.323,2.538 1.493,4.547 
				0.323,6.472 1.289,8.483 0.882,10.743 			"/>
			<polygon fill="#FCFCFC" points="3.246,-0.812 0.51,-0.812 1.623,1.453 0.142,2.503 1.331,4.545 0.163,6.467 1.14,8.499 
				0.713,10.869 3.246,10.869 3.246,10.616 1.051,10.616 1.438,8.467 1.422,8.433 0.483,6.479 1.656,4.548 0.504,2.571 1.974,1.53 
				0.949,-0.559 3.246,-0.559 			"/>
		</g>
		<g opacity="0.3">
			<polygon points="1.623,1.453 1.445,1.58 0.308,-0.715 0.557,-0.715 			"/>
			<polygon points="0.899,10.881 0.902,10.869 0.713,10.869 1.14,8.499 0.163,6.467 1.331,4.545 0.162,2.538 0,2.652 0,2.708 
				1.186,4.728 0.021,6.631 1.01,8.669 0.562,11.134 3.246,11.134 3.246,10.881 			"/>
		</g>
	</g>
	<g opacity="0.1">
		<polygon fill="#FFFFFF" points="3.246,1.115 1.752,1.115 1.262,0.115 3.246,0.115 		"/>
	</g>
</g>
</svg>
