<?xml version="1.0" encoding="utf-8"?>
<!-- Generator: Adobe Illustrator 16.0.0, SVG Export Plug-In . SVG Version: 6.00 Build 0)  -->
<!DOCTYPE svg PUBLIC "-//W3C//DTD SVG 1.1//EN" "http://www.w3.org/Graphics/SVG/1.1/DTD/svg11.dtd">
<svg version="1.1" id="Layer_2" xmlns="http://www.w3.org/2000/svg" xmlns:xlink="http://www.w3.org/1999/xlink" x="0px" y="0px"
	 width="3.246px" height="11.98px" viewBox="10.047 -1.623 3.246 11.98" enable-background="new 10.047 -1.623 3.246 11.98"
	 xml:space="preserve">
<g>
	<g>
		<g opacity="0.5">
			<polygon opacity="0.6" fill="#FFFFFF" points="11.816,3.769 12.617,2.083 11.51,0.704 12.582,-1.478 10.047,-1.478 10.047,9.982 
				12.43,9.982 12.021,7.717 12.99,6.622 			"/>
			<polygon fill="#FCFCFC" points="12.361,-1.351 11.334,0.743 12.434,2.116 11.654,3.77 12.83,6.628 11.887,7.667 11.871,7.701 
				12.26,9.855 10.047,9.855 10.047,10.109 12.6,10.109 12.17,7.732 13.15,6.615 11.979,3.767 12.799,2.047 11.687,0.666 
				12.803,-1.605 10.047,-1.605 10.047,-1.351 			"/>
		</g>
		<g opacity="0.3">
			<polygon points="11.687,0.666 11.865,0.794 13.005,-1.508 12.754,-1.508 			"/>
			<polygon points="12.963,2.212 12.777,2.083 11.979,3.767 13.15,6.615 12.17,7.732 12.6,10.109 12.409,10.109 12.412,10.121 
				10.047,10.121 10.047,10.375 12.75,10.375 12.301,7.903 13.293,6.779 12.125,3.951 			"/>
		</g>
	</g>
	<g opacity="0.1">
		<polygon fill="#FFFFFF" points="10.047,0.322 11.541,0.322 12.031,-0.678 10.047,-0.678 		"/>
	</g>
</g>
</svg>
