<?xml version="1.0" encoding="utf-8"?>
<!-- Generator: Adobe Illustrator 16.0.0, SVG Export Plug-In . SVG Version: 6.00 Build 0)  -->
<!DOCTYPE svg PUBLIC "-//W3C//DTD SVG 1.1//EN" "http://www.w3.org/Graphics/SVG/1.1/DTD/svg11.dtd">
<svg version="1.1" id="waste2" xmlns="http://www.w3.org/2000/svg" xmlns:xlink="http://www.w3.org/1999/xlink" x="0px" y="0px"
	 width="16.313px" height="14.813px" viewBox="0 0 16.313 14.813" enable-background="new 0 0 16.313 14.813" xml:space="preserve">
<path fill="#A09EA7" stroke="#807B65" stroke-miterlimit="10" d="M14.418,10.495c-0.604-0.047-1.457-0.108-1.814,0
	c-0.357,0.109,0.627-1.793,0.627-1.793V7.958l-2.137,1.24l-1.27-1.476c0,0,0.986-2.663,1.254-2.896c0.27-0.23-3.29-0.325-3.29-0.325
	l1.059-2.336h-1.21c-3.314,0-6,2.347-6,5.24c0,2.895,2.686,5.24,6,5.24h2.208c1.984,0,3.736-0.844,4.83-2.139
	C14.582,10.504,14.496,10.501,14.418,10.495z"/>
</svg>
