<?xml version="1.0" encoding="UTF-8" standalone="no"?>
<!-- Created with Inkscape (http://www.inkscape.org/) -->

<svg
   xmlns:a="http://ns.adobe.com/AdobeSVGViewerExtensions/3.0/"
   xmlns:dc="http://purl.org/dc/elements/1.1/"
   xmlns:cc="http://creativecommons.org/ns#"
   xmlns:rdf="http://www.w3.org/1999/02/22-rdf-syntax-ns#"
   xmlns:svg="http://www.w3.org/2000/svg"
   xmlns="http://www.w3.org/2000/svg"
   xmlns:xlink="http://www.w3.org/1999/xlink"
   version="1.1"
   width="212.30064"
   height="79.245857"
   viewBox="0 0 212.30064 79.245857"
   id="background"
   xml:space="preserve"><metadata
     id="metadata220"><rdf:RDF><cc:Work
         rdf:about=""><dc:format>image/svg+xml</dc:format><dc:type
           rdf:resource="http://purl.org/dc/dcmitype/StillImage" /><dc:title></dc:title></cc:Work></rdf:RDF></metadata><defs
     id="defs218"><clipPath
   id="SVGID_4_"><path
     d="m 143.237,480.063 c 0,0 -20.949,7.183 -42.206,-19.052 0,0 10.415,-27.98 26.463,-36.412 l 26.965,3.189 -11.222,52.275 z"
     id="use843" /></clipPath><clipPath
   id="clipPath3746"><path
     d="m 143.237,480.063 c 0,0 -20.949,7.183 -42.206,-19.052 0,0 10.415,-27.98 26.463,-36.412 l 26.965,3.189 -11.222,52.275 z"
     id="use3748" /></clipPath><clipPath
   id="clipPath3750"><path
     d="m 143.237,480.063 c 0,0 -20.949,7.183 -42.206,-19.052 0,0 10.415,-27.98 26.463,-36.412 l 26.965,3.189 -11.222,52.275 z"
     id="use3752" /></clipPath><clipPath
   id="clipPath3754"><path
     d="m 143.237,480.063 c 0,0 -20.949,7.183 -42.206,-19.052 0,0 10.415,-27.98 26.463,-36.412 l 26.965,3.189 -11.222,52.275 z"
     id="use3756" /></clipPath><clipPath
   id="SVGID_6_"><path
     d="m 245.494,480.063 c 0,0 20.948,7.183 42.205,-19.052 0,0 -10.416,-27.98 -26.463,-36.412 l -26.965,3.189 11.223,52.275 z"
     id="use883" /></clipPath><clipPath
   id="clipPath3760"><path
     d="m 245.494,480.063 c 0,0 20.948,7.183 42.205,-19.052 0,0 -10.416,-27.98 -26.463,-36.412 l -26.965,3.189 11.223,52.275 z"
     id="use3762" /></clipPath><clipPath
   id="clipPath3764"><path
     d="m 245.494,480.063 c 0,0 20.948,7.183 42.205,-19.052 0,0 -10.416,-27.98 -26.463,-36.412 l -26.965,3.189 11.223,52.275 z"
     id="use3766" /></clipPath><clipPath
   id="clipPath3768"><path
     d="m 245.494,480.063 c 0,0 20.948,7.183 42.205,-19.052 0,0 -10.416,-27.98 -26.463,-36.412 l -26.965,3.189 11.223,52.275 z"
     id="use3770" /></clipPath><linearGradient
   x1="193.7104"
   y1="362.8555"
   x2="193.7104"
   y2="583.44208"
   id="SVGID_7_"
   gradientUnits="userSpaceOnUse"><stop
     id="stop904"
     style="stop-color:#ffffff;stop-opacity:0"
     offset="0.3222" /><stop
     id="stop906"
     style="stop-color:#c8c8c9;stop-opacity:0.1331"
     offset="0.4192" /><stop
     id="stop908"
     style="stop-color:#989899;stop-opacity:0.26879999"
     offset="0.51819998" /><stop
     id="stop910"
     style="stop-color:#727273;stop-opacity:0.39770001"
     offset="0.61229998" /><stop
     id="stop912"
     style="stop-color:#565657;stop-opacity:0.51630002"
     offset="0.69880003" /><stop
     id="stop914"
     style="stop-color:#464647;stop-opacity:0.62080002"
     offset="0.77499998" /><stop
     id="stop916"
     style="stop-color:#404041;stop-opacity:0.69999999"
     offset="0.83279997" /></linearGradient><linearGradient
   x1="829.4541"
   y1="41.736801"
   x2="829.4541"
   y2="262.32449"
   id="SVGID_8_"
   gradientUnits="userSpaceOnUse"
   gradientTransform="matrix(-1,0,0,-1,1023.1641,533.71)"><stop
     id="stop921"
     style="stop-color:#ffffff;stop-opacity:0"
     offset="0.3222" /><stop
     id="stop923"
     style="stop-color:#ffffff;stop-opacity:0.69999999"
     offset="0.83279997" /></linearGradient><clipPath
   id="SVGID_4_-1"><path
     d="m 143.237,480.063 c 0,0 -20.949,7.183 -42.206,-19.052 0,0 10.415,-27.98 26.463,-36.412 l 26.965,3.189 -11.222,52.275 z"
     id="use843-6" /></clipPath><clipPath
   id="clipPath3800"><path
     d="m 143.237,480.063 c 0,0 -20.949,7.183 -42.206,-19.052 0,0 10.415,-27.98 26.463,-36.412 l 26.965,3.189 -11.222,52.275 z"
     id="use3802" /></clipPath><clipPath
   id="clipPath3804"><path
     d="m 143.237,480.063 c 0,0 -20.949,7.183 -42.206,-19.052 0,0 10.415,-27.98 26.463,-36.412 l 26.965,3.189 -11.222,52.275 z"
     id="use3806" /></clipPath><clipPath
   id="clipPath3808"><path
     d="m 143.237,480.063 c 0,0 -20.949,7.183 -42.206,-19.052 0,0 10.415,-27.98 26.463,-36.412 l 26.965,3.189 -11.222,52.275 z"
     id="use3810" /></clipPath><clipPath
   id="SVGID_6_-3"><path
     d="m 245.494,480.063 c 0,0 20.948,7.183 42.205,-19.052 0,0 -10.416,-27.98 -26.463,-36.412 l -26.965,3.189 11.223,52.275 z"
     id="use883-0" /></clipPath><clipPath
   id="clipPath3814"><path
     d="m 245.494,480.063 c 0,0 20.948,7.183 42.205,-19.052 0,0 -10.416,-27.98 -26.463,-36.412 l -26.965,3.189 11.223,52.275 z"
     id="use3816" /></clipPath><clipPath
   id="clipPath3818"><path
     d="m 245.494,480.063 c 0,0 20.948,7.183 42.205,-19.052 0,0 -10.416,-27.98 -26.463,-36.412 l -26.965,3.189 11.223,52.275 z"
     id="use3820" /></clipPath><clipPath
   id="clipPath3822"><path
     d="m 245.494,480.063 c 0,0 20.948,7.183 42.205,-19.052 0,0 -10.416,-27.98 -26.463,-36.412 l -26.965,3.189 11.223,52.275 z"
     id="use3824" /></clipPath><linearGradient
   x1="193.7104"
   y1="362.8555"
   x2="193.7104"
   y2="583.44208"
   id="SVGID_7_-8"
   gradientUnits="userSpaceOnUse"><stop
     id="stop904-0"
     style="stop-color:#ffffff;stop-opacity:0"
     offset="0.3222" /><stop
     id="stop906-7"
     style="stop-color:#c8c8c9;stop-opacity:0.1331"
     offset="0.4192" /><stop
     id="stop908-2"
     style="stop-color:#989899;stop-opacity:0.26879999"
     offset="0.51819998" /><stop
     id="stop910-9"
     style="stop-color:#727273;stop-opacity:0.39770001"
     offset="0.61229998" /><stop
     id="stop912-0"
     style="stop-color:#565657;stop-opacity:0.51630002"
     offset="0.69880003" /><stop
     id="stop914-9"
     style="stop-color:#464647;stop-opacity:0.62080002"
     offset="0.77499998" /><stop
     id="stop916-0"
     style="stop-color:#404041;stop-opacity:0.69999999"
     offset="0.83279997" /></linearGradient><linearGradient
   x1="829.4541"
   y1="41.736801"
   x2="829.4541"
   y2="262.32449"
   id="SVGID_8_-1"
   gradientUnits="userSpaceOnUse"
   gradientTransform="matrix(-1,0,0,-1,1023.1641,533.71)"><stop
     id="stop921-8"
     style="stop-color:#ffffff;stop-opacity:0"
     offset="0.3222" /><stop
     id="stop923-3"
     style="stop-color:#ffffff;stop-opacity:0.69999999"
     offset="0.83279997" /></linearGradient><linearGradient
   x1="718.89838"
   y1="384"
   x2="1024"
   y2="384"
   id="SVGID_1_"
   gradientUnits="userSpaceOnUse"><stop
     id="stop200"
     style="stop-color:#004048;stop-opacity:0.60000002"
     offset="0" /><stop
     id="stop202"
     style="stop-color:#004048;stop-opacity:0.65859997"
     offset="0.1464" /><stop
     id="stop204"
     style="stop-color:#004048;stop-opacity:1"
     offset="1" /><a:midPointStop
     style="stop-color:#004048;stop-opacity:0.6"
     offset="0" /><a:midPointStop
     style="stop-color:#004048;stop-opacity:0.6"
     offset="0.1503" /><a:midPointStop
     style="stop-color:#004048"
     offset="1" /></linearGradient><linearGradient
   x1="718.89838"
   y1="384"
   x2="1024"
   y2="384"
   id="linearGradient4863"
   xlink:href="#SVGID_1_"
   gradientUnits="userSpaceOnUse" />
</defs><g
     transform="translate(-572.33124,-427.53635)"
     id="layer1"><rect
   width="212.30064"
   height="79.245857"
   rx="7"
   ry="7"
   x="572.33124"
   y="427.53635"
   id="rect3312"
   style="opacity:0.5;fill:#409090;fill-opacity:1;stroke:none" />

</g></svg>