<?xml version="1.0" encoding="utf-8"?>
<!-- Generator: Adobe Illustrator 16.0.0, SVG Export Plug-In . SVG Version: 6.00 Build 0)  -->
<!DOCTYPE svg PUBLIC "-//W3C//DTD SVG 1.1//EN" "http://www.w3.org/Graphics/SVG/1.1/DTD/svg11.dtd">
<svg version="1.1" id="Layer_1" xmlns="http://www.w3.org/2000/svg" xmlns:xlink="http://www.w3.org/1999/xlink" x="0px" y="0px"
	 width="356.6px" height="54.113px" viewBox="0 0 356.6 54.113" enable-background="new 0 0 356.6 54.113" xml:space="preserve">
<g>
	<linearGradient id="SVGID_1_" gradientUnits="userSpaceOnUse" x1="177.9272" y1="0" x2="177.9272" y2="51.2983">
		<stop  offset="0.1452" style="stop-color:#00AAB7"/>
		<stop  offset="0.3795" style="stop-color:#26C5BF"/>
		<stop  offset="0.6366" style="stop-color:#4ADEC7"/>
	</linearGradient>
	<path fill="url(#SVGID_1_)" d="M1.78,0v23.346c0,3.039,2.299,5.738,5.135,5.738l46.446,0.278L28.434,51.298l57.385-22.226
		l268.256-0.221V18.699V0H1.78z"/>
	<g opacity="0.3">
		<line fill="none" stroke="#80FFFC" stroke-miterlimit="10" x1="3.118" y1="13.333" x2="352.369" y2="13.333"/>
		<line fill="none" stroke="#80FFFC" stroke-miterlimit="10" x1="3.118" y1="18.483" x2="352.301" y2="18.483"/>
		<line fill="none" stroke="#80FFFC" stroke-miterlimit="10" x1="3.118" y1="23.87" x2="351.189" y2="23.87"/>
	</g>
	<g id="Layer_2_7_">
		<g>
			<path fill="#474747" d="M353.514,0v24.346c0,2.769-2.058,5.021-4.584,5.021H84.945l-12.837,4.922L32.906,48.214l19.806-15.86
				l3.455-2.986H7.749c-2.527,0-4.584-2.252-4.584-5.02V0h-2.75v24.348c0,4.285,3.291,7.77,7.334,7.77h41.157L25.456,51.35
				c-0.48,0.416-0.59,1.158-0.25,1.723c0.241,0.404,0.711,0.666,1.195,0.666c0.166,0,0.326-0.029,0.466-0.087l58.597-21.533h263.467
				c4.043,0,7.334-3.485,7.334-7.771V0H353.514z"/>
			<g>
				<path fill="#80FFFC" d="M30.938,49.313l41.297-14.67l12.781-4.9h263.915c2.733,0,4.959-2.42,4.959-5.395V0h-0.75v24.348
					c0,2.563-1.89,4.646-4.209,4.646H85.015h-0.14l-0.131,0.049l-12.781,4.899L34.877,47.116l18.06-14.463l2.715-2.349l1.523-1.315
					h-2.016H7.749v0.001c-2.32,0-4.209-2.082-4.209-4.645V0H2.79v24.348c0,2.973,2.225,5.393,4.959,5.393H55.16l-2.691,2.33
					L30.938,49.313z"/>
				<path fill="#80FFFC" d="M85.529,32.492h263.399c4.25,0,7.709-3.652,7.709-8.145V0h-0.749v24.348
					c0,4.078-3.123,7.396-6.959,7.396H85.396L26.738,53.301c-0.105,0.043-0.222,0.063-0.337,0.063c-0.344,0-0.693-0.182-0.875-0.482
					c-0.25-0.418-0.165-0.953,0.174-1.246l24.254-19.891H7.749c-3.836,0-6.959-3.318-6.959-7.396V0H0.04v24.348
					c0,4.491,3.459,8.146,7.709,8.146h40.107l-22.632,18.56c-0.633,0.547-0.773,1.491-0.342,2.213
					c0.313,0.521,0.895,0.848,1.518,0.848c0.214,0,0.42-0.039,0.613-0.115L85.529,32.492z"/>
			</g>
		</g>
	</g>
	<path opacity="0.5" fill="#FFFFFF" enable-background="new    " d="M5.728,0v24.672c0,1.092,0.893,1.977,1.997,1.977h341.15
		c1.104,0,1.996-0.885,1.996-1.977V0H5.728z"/>
	<g id="Layer_3_5_">
		<polygon fill="#D3A540" points="343.025,28.264 355.996,16.201 355.072,19.359 352.195,30.426 		"/>
		<g>
			<path fill="#D3A540" d="M6.054,31.281h10.572l-0.309-0.309H6.052c-2.512,0-4.553-1.925-4.553-4.283v-9.627l-0.309-0.31v9.937
				C1.193,29.219,3.374,31.281,6.054,31.281z"/>
			<path fill="#D3A540" d="M3.04,26.689v-8.088l-0.308-0.31v8.396c0,1.683,1.489,3.056,3.321,3.056h9.033l-0.31-0.312H6.052
				C4.392,29.434,3.04,28.201,3.04,26.689L3.04,26.689z"/>
			<path fill="#D3A540" d="M2.116,26.689v-9.012l-0.615-0.615v9.627c0,2.358,2.043,4.283,4.553,4.283h10.266l-0.616-0.615H6.056
				C3.882,30.357,2.117,28.711,2.116,26.689L2.116,26.689z"/>
			<path fill="#D3A540" d="M2.732,26.689v-8.396l-0.616-0.615v9.012c0,2.021,1.768,3.671,3.938,3.671h9.648l-0.615-0.615H6.054
				C4.222,29.742,2.733,28.371,2.732,26.689L2.732,26.689z"/>
			<g>
				<path fill="#D3A540" d="M0.577,26.689V16.137l-0.615-0.613v11.166c0,3.211,2.733,5.822,6.092,5.822h11.806l-0.616-0.613H6.056
					C3.029,31.898,0.579,29.564,0.577,26.689L0.577,26.689z"/>
			</g>
			<g>
				<path fill="#D3A540" d="M4.271,26.689v-6.855l-0.615-0.617v7.473c0,1.175,1.077,2.132,2.397,2.132h8.108l-0.614-0.617H6.054
					C5.071,28.203,4.271,27.521,4.271,26.689L4.271,26.689z"/>
			</g>
			<g>
				<path fill="#856829" d="M1.193,26.689v-9.937l-0.616-0.616v10.553c0,2.875,2.453,5.209,5.477,5.209h11.188l-0.614-0.617H6.054
					C3.374,31.281,1.193,29.219,1.193,26.689L1.193,26.689z"/>
			</g>
			<g>
				<path fill="#FFF0D2" d="M6.054,29.434h8.725l-0.615-0.615H6.054c-1.321,0-2.396-0.955-2.396-2.129v-7.473l-0.616-0.615v8.088
					C3.04,28.201,4.393,29.434,6.054,29.434z"/>
			</g>
		</g>
		<g>
			<path fill="#D3A540" d="M355.379,26.752v-9.934l-0.307,0.307v9.627c0,2.361-2.043,4.285-4.553,4.285h-10.269l-0.307,0.307h10.572
				C353.199,31.342,355.379,29.283,355.379,26.752z"/>
			<path fill="#D3A540" d="M353.533,26.752c0,1.512-1.354,2.744-3.014,2.744h-8.728l-0.309,0.309h9.033
				c1.832,0,3.319-1.371,3.319-3.053v-8.396l-0.307,0.31v8.088L353.533,26.752L353.533,26.752z"/>
			<path fill="#D3A540" d="M354.455,26.752c0,2.021-1.766,3.668-3.936,3.668h-9.648l-0.617,0.617h10.267
				c2.51,0,4.553-1.924,4.553-4.285v-9.627l-0.615,0.615v9.012H354.455z"/>
			<path fill="#D3A540" d="M353.84,26.752c0,1.682-1.487,3.053-3.319,3.053h-9.033l-0.615,0.615h9.648
				c2.17,0,3.938-1.645,3.938-3.668V17.74l-0.616,0.615v8.396H353.84z"/>
			<g>
				<path fill="#D3A540" d="M355.994,26.752c0,2.875-2.451,5.209-5.475,5.209H339.33l-0.617,0.615h11.808
					c3.354,0,6.092-2.613,6.092-5.824V15.586l-0.615,0.615v10.551H355.994z"/>
			</g>
			<g>
				<path fill="#D3A540" d="M352.301,26.752c0,0.832-0.8,1.514-1.781,1.514h-7.494l-0.615,0.615h8.109
					c1.319,0,2.396-0.955,2.396-2.129v-7.473l-0.614,0.617V26.752L352.301,26.752z"/>
			</g>
			<g>
				<path fill="#856829" d="M355.379,26.752c0,2.531-2.18,4.592-4.858,4.592h-10.572l-0.615,0.617h11.189
					c3.021,0,5.477-2.334,5.477-5.209V16.201l-0.616,0.617v9.934H355.379z"/>
			</g>
			<g>
				<path fill="#FFF0D2" d="M353.533,26.752v-8.264l-0.617,0.615v7.646c0,1.174-1.073,2.131-2.396,2.131h-8.109l-0.615,0.615h8.728
					C352.18,29.496,353.533,28.262,353.533,26.752z"/>
			</g>
		</g>
		<g>
			<polygon fill="#D3A540" points="97.985,31.107 97.485,31.398 258.338,31.398 257.838,31.107 			"/>
			<polygon fill="#D3A540" points="255.338,29.652 100.485,29.652 99.985,29.943 255.838,29.943 			"/>
			<polygon fill="#D3A540" points="256.838,30.525 98.985,30.525 97.985,31.107 257.838,31.107 			"/>
			<polygon fill="#D3A540" points="99.985,29.943 98.985,30.525 256.838,30.525 255.838,29.943 			"/>
			<polygon fill="#D3A540" points="96.485,31.979 95.485,32.561 260.336,32.561 259.338,31.979 			"/>
			<polygon fill="#D3A540" points="253.338,28.49 102.485,28.49 101.485,29.072 254.338,29.072 			"/>
			<polygon fill="#856829" points="258.338,31.398 97.485,31.398 96.485,31.979 259.338,31.979 			"/>
			<polygon fill="#FFF0D2" points="101.485,29.072 100.485,29.652 255.338,29.652 254.338,29.072 			"/>
		</g>
		<g>
			<polygon fill="#D3A540" points="353.975,2.875 353.496,2.375 353.496,24.424 353.975,23.924 			"/>
			<polygon fill="#D3A540" points="355.148,4.861 355.148,21.924 355.439,21.424 355.439,5.361 			"/>
			<polygon fill="#D3A540" points="353.984,2.861 353.984,23.924 354.566,22.924 354.566,3.861 			"/>
			<polygon fill="#D3A540" points="355.148,4.861 354.566,3.861 354.566,22.924 355.148,21.924 			"/>
			<polygon fill="#D3A540" points="353.111,1.707 352.529,0.723 352.529,26.424 353.111,25.438 			"/>
			<polygon fill="#D3A540" points="356.02,6.361 356.02,20.424 356.602,19.424 356.602,7.361 			"/>
			<polygon fill="#FFF0D2" points="352.916,1.361 352.916,25.816 353.496,24.801 353.496,2.379 			"/>
			<polygon fill="#856829" points="356.02,6.361 355.439,5.361 355.439,21.424 356.02,20.424 			"/>
		</g>
		<path fill="#AD7B17" d="M350.008,24.08c0.878,0,1.589,0.711,1.589,1.584c0,0.877-0.711,1.584-1.589,1.584
			c-0.872,0-1.584-0.707-1.584-1.584C348.424,24.791,349.135,24.08,350.008,24.08z"/>
	</g>
</g>
</svg>
