<?xml version="1.0" encoding="utf-8"?>
<!-- Generator: Adobe Illustrator 16.0.0, SVG Export Plug-In . SVG Version: 6.00 Build 0)  -->
<!DOCTYPE svg PUBLIC "-//W3C//DTD SVG 1.1//EN" "http://www.w3.org/Graphics/SVG/1.1/DTD/svg11.dtd">
<svg version="1.1" id="Layer_1" xmlns="http://www.w3.org/2000/svg" xmlns:xlink="http://www.w3.org/1999/xlink" x="0px" y="0px"
	 width="356.6px" height="54.113px" viewBox="0 0 356.6 54.113" enable-background="new 0 0 356.6 54.113" xml:space="preserve">
<g>
	
		<linearGradient id="SVGID_1_" gradientUnits="userSpaceOnUse" x1="177.9268" y1="4.882813e-004" x2="177.9268" y2="51.2974" gradientTransform="matrix(-1 0 0 1 356.5996 0)">
		<stop  offset="0.1452" style="stop-color:#00AAB7"/>
		<stop  offset="0.3795" style="stop-color:#26C5BF"/>
		<stop  offset="0.6366" style="stop-color:#4ADEC7"/>
	</linearGradient>
	<path fill="url(#SVGID_1_)" d="M354.819,0v23.346c0,3.039-2.299,5.738-5.135,5.738l-46.446,0.278l24.928,21.936l-57.385-22.226
		L2.525,28.852V18.699V0H354.819z"/>
	<g opacity="0.3">
		<line fill="none" stroke="#80FFFC" stroke-miterlimit="10" x1="4.23" y1="13.333" x2="353.481" y2="13.333"/>
		<line fill="none" stroke="#80FFFC" stroke-miterlimit="10" x1="4.299" y1="18.483" x2="353.481" y2="18.483"/>
		<line fill="none" stroke="#80FFFC" stroke-miterlimit="10" x1="5.41" y1="23.87" x2="353.481" y2="23.87"/>
	</g>
	<g id="Layer_2_7_">
		<g>
			<path fill="#474747" d="M3.086,0v24.346c0,2.769,2.058,5.021,4.584,5.021h263.984l12.837,4.922l39.202,13.926l-19.806-15.86
				l-3.455-2.986h48.418c2.527,0,4.584-2.252,4.584-5.02V0h2.75v24.348c0,4.285-3.291,7.77-7.334,7.77h-41.157l23.45,19.232
				c0.48,0.416,0.59,1.158,0.25,1.723c-0.241,0.404-0.711,0.666-1.195,0.666c-0.166,0-0.326-0.029-0.466-0.087l-58.597-21.533H7.669
				c-4.043,0-7.334-3.485-7.334-7.771V0H3.086z"/>
			<g>
				<path fill="#80FFFC" d="M325.662,49.313l-41.297-14.67l-12.781-4.9H7.669c-2.733,0-4.959-2.42-4.959-5.395V0h0.75v24.348
					c0,2.563,1.89,4.646,4.209,4.646h263.916h0.14l0.131,0.049l12.781,4.899l37.086,13.175l-18.06-14.463l-2.715-2.349l-1.523-1.315
					h2.016h47.41v0.001c2.32,0,4.209-2.082,4.209-4.645V0h0.75v24.348c0,2.973-2.225,5.393-4.959,5.393h-47.411l2.691,2.33
					L325.662,49.313z"/>
				<path fill="#80FFFC" d="M271.07,32.492H7.671c-4.25,0-7.709-3.652-7.709-8.145V0h0.749v24.348c0,4.078,3.123,7.396,6.959,7.396
					h263.533l58.658,21.558c0.105,0.043,0.222,0.063,0.337,0.063c0.344,0,0.693-0.182,0.875-0.482
					c0.25-0.418,0.165-0.953-0.174-1.246l-24.254-19.891h42.205c3.836,0,6.959-3.318,6.959-7.396V0h0.75v24.348
					c0,4.491-3.459,8.146-7.709,8.146h-40.107l22.632,18.56c0.633,0.547,0.773,1.491,0.342,2.213
					c-0.313,0.521-0.895,0.848-1.518,0.848c-0.214,0-0.42-0.039-0.613-0.115L271.07,32.492z"/>
			</g>
		</g>
	</g>
	<path opacity="0.5" fill="#FFFFFF" enable-background="new    " d="M350.872,0v24.672c0,1.092-0.893,1.977-1.997,1.977H7.725
		c-1.104,0-1.996-0.885-1.996-1.977V0H350.872z"/>
	<g id="Layer_3_5_">
		<polygon fill="#D3A540" points="4.404,30.426 1.527,19.359 0.604,16.201 13.574,28.264 		"/>
		<g>
			<path fill="#D3A540" d="M355.409,26.689v-9.937l-0.309,0.31v9.627c0,2.358-2.041,4.283-4.553,4.283h-10.266l-0.309,0.309h10.572
				C353.226,31.281,355.406,29.219,355.409,26.689z"/>
			<path fill="#D3A540" d="M353.56,26.689c0,1.512-1.352,2.744-3.012,2.742h-8.726l-0.31,0.312h9.033
				c1.832,0,3.321-1.373,3.321-3.056v-8.396l-0.308,0.31V26.689L353.56,26.689z"/>
			<path fill="#D3A540" d="M354.483,26.689c-0.001,2.021-1.766,3.668-3.939,3.668h-9.647l-0.616,0.615h10.266
				c2.51,0,4.553-1.925,4.553-4.283v-9.627l-0.615,0.615V26.689L354.483,26.689z"/>
			<path fill="#D3A540" d="M353.867,26.689c-0.001,1.682-1.489,3.053-3.321,3.056h-9.033l-0.615,0.615h9.648
				c2.17,0,3.938-1.649,3.938-3.671v-9.012l-0.616,0.615V26.689L353.867,26.689z"/>
			<g>
				<path fill="#D3A540" d="M356.022,26.689c-0.002,2.875-2.452,5.209-5.479,5.209h-11.188l-0.616,0.613h11.806
					c3.358,0,6.092-2.611,6.092-5.822V15.523l-0.615,0.613V26.689L356.022,26.689z"/>
			</g>
			<g>
				<path fill="#D3A540" d="M352.328,26.689c0,0.832-0.8,1.514-1.782,1.515h-7.494l-0.614,0.617h8.108
					c1.32,0,2.397-0.957,2.397-2.132v-7.473l-0.615,0.617V26.689L352.328,26.689z"/>
			</g>
			<g>
				<path fill="#856829" d="M355.406,26.689c0,2.529-2.181,4.592-4.86,4.592h-10.574l-0.614,0.617h11.188
					c3.023,0,5.477-2.334,5.477-5.209V16.137l-0.616,0.616V26.689L355.406,26.689z"/>
			</g>
			<g>
				<path fill="#FFF0D2" d="M353.558,26.689v-8.088l-0.616,0.615v7.473c0,1.174-1.074,2.129-2.396,2.129h-8.109l-0.615,0.615h8.725
					C352.207,29.434,353.56,28.201,353.558,26.689z"/>
			</g>
		</g>
		<g>
			<path fill="#D3A540" d="M6.083,31.344h10.572l-0.307-0.307H6.08c-2.51,0-4.553-1.924-4.553-4.285v-9.627l-0.307-0.307v9.934
				C1.221,29.283,3.4,31.342,6.083,31.344z"/>
			<path fill="#D3A540" d="M3.066,26.753H3.07v-8.088l-0.307-0.31v8.396c0,1.682,1.487,3.053,3.319,3.053h9.033l-0.309-0.309H6.08
				C4.42,29.496,3.066,28.264,3.066,26.753L3.066,26.753z"/>
			<path fill="#D3A540" d="M2.142,26.752V17.74l-0.615-0.615v9.627c0,2.361,2.043,4.285,4.553,4.285h10.267l-0.617-0.617H6.08
				c-2.17,0-3.936-1.646-3.936-3.668H2.142z"/>
			<path fill="#D3A540" d="M2.758,26.752v-8.396L2.142,17.74v9.012c0,2.023,1.768,3.668,3.938,3.668h9.648l-0.615-0.615H6.079
				c-1.832,0-3.319-1.371-3.319-3.053H2.758z"/>
			<g>
				<path fill="#D3A540" d="M0.603,26.752V16.201l-0.615-0.615v11.166c0,3.211,2.737,5.824,6.092,5.824h11.808l-0.617-0.615H6.08
					c-3.023,0-5.475-2.334-5.475-5.209H0.603z"/>
			</g>
			<g>
				<path fill="#D3A540" d="M4.299,26.752v-6.855l-0.614-0.617v7.473c0,1.174,1.076,2.129,2.396,2.129h8.109l-0.615-0.615H6.08
					C5.099,28.266,4.299,27.584,4.299,26.752L4.299,26.752z"/>
			</g>
			<g>
				<path fill="#856829" d="M1.217,26.752v-9.934l-0.616-0.617v10.551c0,2.875,2.456,5.209,5.477,5.209h11.189l-0.615-0.617H6.079
					c-2.679,0-4.858-2.061-4.858-4.592H1.217z"/>
			</g>
			<g>
				<path fill="#FFF0D2" d="M6.076,29.495h8.728l-0.615-0.615H6.079c-1.322,0-2.396-0.957-2.396-2.131v-7.646l-0.617-0.615v8.264
					C3.066,28.262,4.42,29.496,6.076,29.495z"/>
			</g>
		</g>
		<g>
			<polygon fill="#D3A540" points="98.762,31.107 98.262,31.398 259.114,31.398 258.614,31.107 			"/>
			<polygon fill="#D3A540" points="100.762,29.943 256.614,29.943 256.114,29.652 101.262,29.652 			"/>
			<polygon fill="#D3A540" points="98.762,31.107 258.614,31.107 257.614,30.525 99.762,30.525 			"/>
			<polygon fill="#D3A540" points="100.762,29.943 99.762,30.525 257.614,30.525 256.614,29.943 			"/>
			<polygon fill="#D3A540" points="97.262,31.979 96.264,32.561 261.114,32.561 260.114,31.979 			"/>
			<polygon fill="#D3A540" points="102.262,29.072 255.114,29.072 254.114,28.49 103.262,28.49 			"/>
			<polygon fill="#856829" points="97.262,31.979 260.114,31.979 259.114,31.398 98.262,31.398 			"/>
			<polygon fill="#FFF0D2" points="102.262,29.072 101.262,29.652 256.114,29.652 255.114,29.072 			"/>
		</g>
		<g>
			<polygon fill="#D3A540" points="2.625,23.924 3.104,24.424 3.104,2.375 2.625,2.875 			"/>
			<polygon fill="#D3A540" points="1.16,5.361 1.16,21.424 1.451,21.924 1.451,4.861 			"/>
			<polygon fill="#D3A540" points="2.033,3.861 2.033,22.924 2.615,23.924 2.615,2.861 			"/>
			<polygon fill="#D3A540" points="1.451,21.924 2.033,22.924 2.033,3.861 1.451,4.861 			"/>
			<polygon fill="#D3A540" points="3.488,25.438 4.07,26.424 4.07,0.723 3.488,1.707 			"/>
			<polygon fill="#D3A540" points="-0.002,7.361 -0.002,19.424 0.58,20.424 0.58,6.361 			"/>
			<polygon fill="#FFF0D2" points="3.104,2.379 3.104,24.801 3.684,25.816 3.684,1.361 			"/>
			<polygon fill="#856829" points="0.58,20.424 1.16,21.424 1.16,5.361 0.58,6.361 			"/>
		</g>
		<path fill="#AD7B17" d="M8.176,25.664c0,0.877-0.712,1.584-1.584,1.584c-0.878,0-1.589-0.707-1.589-1.584
			c0-0.873,0.711-1.584,1.589-1.584C7.465,24.08,8.176,24.791,8.176,25.664z"/>
	</g>
</g>
</svg>
