<?xml version="1.0" encoding="utf-8"?>
<!-- Generator: Adobe Illustrator 16.0.0, SVG Export Plug-In . SVG Version: 6.00 Build 0)  -->
<!DOCTYPE svg PUBLIC "-//W3C//DTD SVG 1.1//EN" "http://www.w3.org/Graphics/SVG/1.1/DTD/svg11.dtd">
<svg version="1.1" id="Layer_1" xmlns="http://www.w3.org/2000/svg" xmlns:xlink="http://www.w3.org/1999/xlink" x="0px" y="0px"
	 width="356.6px" height="31.33px" viewBox="0 0 356.6 31.33" enable-background="new 0 0 356.6 31.33" xml:space="preserve">
<g>
	<g>
		<defs>
			<rect id="SVGID_1_" x="0.001" width="356.598" height="31.33"/>
		</defs>
		<clipPath id="SVGID_2_">
			<use xlink:href="#SVGID_1_"  overflow="visible"/>
		</clipPath>
		
			<linearGradient id="SVGID_3_" gradientUnits="userSpaceOnUse" x1="826.041" y1="-1211.7979" x2="826.041" y2="-1333.2883" gradientTransform="matrix(1 0 0 -1 -648 -1194)">
			<stop  offset="0.1452" style="stop-color:#00AAB7"/>
			<stop  offset="0.4763" style="stop-color:#26C5BF"/>
			<stop  offset="0.7603" style="stop-color:#4ADEC7"/>
		</linearGradient>
		<path clip-path="url(#SVGID_2_)" fill="url(#SVGID_3_)" d="M348.759,1.578H7.325c-2.832,0-5.127,2.465-5.127,5.506v100.1
			c0,3.039,2.295,5.506,5.127,5.506H53.69l-24.885,22.445l57.287-22.445h267.791v-10.152V7.084
			C353.884,4.045,351.591,1.578,348.759,1.578z"/>
	</g>
	<g id="Layer_2_6_">
		<g>
			<path fill="#474747" d="M348.88,0.947H7.737c-4.044,0-7.334,3.484-7.334,7.768V31.33h2.751V8.715
				c0-2.768,2.056-5.018,4.583-5.018V3.695h341.142c2.525,0,4.583,2.252,4.583,5.018V31.33h2.751V8.715
				C356.213,4.432,352.924,0.947,348.88,0.947z"/>
			<g>
				<path fill="#80FFFC" d="M348.879,0.572H7.737c-4.25,0-7.709,3.652-7.709,8.143V31.33h0.751V8.715
					c0-4.076,3.121-7.393,6.958-7.393h341.142c3.836,0,6.958,3.315,6.958,7.393V31.33h0.749V8.715
					C356.587,4.224,353.129,0.572,348.879,0.572z"/>
				<path fill="#80FFFC" d="M348.88,3.322H7.737c-2.734,0-4.959,2.418-4.959,5.393V31.33h0.75V8.715
					c0-2.561,1.889-4.643,4.209-4.643H348.88c2.318,0,4.208,2.082,4.208,4.643V31.33h0.749V8.715
					C353.837,5.74,351.612,3.322,348.88,3.322z"/>
			</g>
		</g>
	</g>
	<g>
		<path opacity="0.5" fill="#FFFFFF" enable-background="new    " d="M348.824,6.262H7.713c-1.104,0-1.997,0.884-1.997,1.975V31.33
			H350.82V8.236C350.82,7.146,349.929,6.262,348.824,6.262z"/>
		<g id="Layer_3_3_">
			<g>
				<path fill="#D3A540" d="M350.775,1.813h-9.934l0.307,0.309h9.627c2.361,0,4.284,2.041,4.284,4.553v10.264l0.308,0.307V6.674
					C355.367,3.992,353.309,1.813,350.775,1.813z"/>
				<path fill="#D3A540" d="M350.775,3.66c1.511,0,2.745,1.352,2.745,3.014v8.725l0.309,0.309V6.674
					c0-1.834-1.373-3.322-3.054-3.322h-8.395l0.311,0.309H350.775L350.775,3.66z"/>
				<path fill="#D3A540" d="M350.775,2.736c2.021,0,3.668,1.766,3.668,3.938v9.648l0.616,0.615V6.674
					c0-2.512-1.923-4.553-4.284-4.553h-9.627l0.618,0.615H350.775L350.775,2.736z"/>
				<path fill="#D3A540" d="M350.775,3.353c1.681,0,3.054,1.489,3.054,3.321v9.033l0.614,0.615V6.674
					c0-2.172-1.644-3.938-3.668-3.938h-9.009l0.613,0.616L350.775,3.353L350.775,3.353z"/>
				<g>
					<path fill="#D3A540" d="M350.775,1.197c2.876,0,5.208,2.451,5.208,5.477v11.188l0.615,0.616V6.674
						c0-3.359-2.613-6.094-5.823-6.094h-11.166l0.615,0.617H350.775L350.775,1.197z"/>
				</g>
				<g>
					<path fill="#D3A540" d="M350.775,4.891c0.833,0,1.513,0.8,1.513,1.783v7.492l0.618,0.617V6.674
						c0-1.321-0.958-2.398-2.131-2.398h-7.47l0.615,0.615H350.775L350.775,4.891z"/>
				</g>
				<g>
					<path fill="#FFF0D2" d="M350.775,1.813c2.531,0,4.592,2.18,4.592,4.861v10.57l0.616,0.616V6.674
						c0-3.024-2.332-5.477-5.208-5.477h-10.551l0.617,0.615H350.775L350.775,1.813z"/>
				</g>
				<g>
					<path fill="#856829" d="M350.775,3.66h-8.085l0.615,0.615h7.47c1.173,0,2.131,1.075,2.131,2.396v8.109l0.614,0.616V6.674
						C353.521,5.012,352.286,3.66,350.775,3.66z"/>
				</g>
			</g>
			<g>
				<path fill="#D3A540" d="M1.233,6.701v10.57l0.307-0.307V6.701c0-2.512,1.926-4.554,4.285-4.554h9.626L15.76,1.84H5.825
					C3.295,1.84,1.233,4.021,1.233,6.701z"/>
				<path fill="#D3A540" d="M5.825,3.687h8.087l0.309-0.308H5.827c-1.684,0-3.055,1.488-3.055,3.322v9.032l0.312-0.308V6.701
					C3.082,5.039,4.313,3.688,5.825,3.687L5.825,3.687z"/>
				<path fill="#D3A540" d="M5.825,2.764h9.011l0.615-0.616H5.825c-2.359,0-4.285,2.042-4.285,4.554v10.264l0.617-0.616V6.701
					C2.157,4.529,3.803,2.764,5.825,2.764L5.825,2.764z"/>
				<path fill="#D3A540" d="M5.825,3.379h8.395l0.616-0.615H5.825c-2.022,0-3.668,1.768-3.668,3.938v9.648l0.613-0.615V6.701
					C2.771,4.869,4.143,3.379,5.825,3.379L5.825,3.379z"/>
				<g>
					<path fill="#D3A540" d="M5.825,1.225h10.549l0.615-0.616H5.825c-3.212,0-5.824,2.733-5.824,6.093v11.803l0.616-0.615V6.701
						C0.617,3.676,2.95,1.225,5.825,1.225L5.825,1.225z"/>
				</g>
				<g>
					<path fill="#D3A540" d="M5.825,4.918h6.854l0.616-0.614H5.825c-1.175,0-2.13,1.077-2.13,2.397v8.109l0.614-0.616V6.701
						C4.311,5.719,4.993,4.918,5.825,4.918L5.825,4.918z"/>
				</g>
				<g>
					<path fill="#FFF0D2" d="M5.825,1.84h9.935l0.614-0.615H5.825c-2.875,0-5.208,2.453-5.208,5.477V17.89l0.616-0.616V6.701
						C1.233,4.021,3.295,1.84,5.825,1.84L5.825,1.84z"/>
				</g>
				<g>
					<path fill="#856829" d="M3.082,6.701v8.725l0.613-0.616V6.701c0-1.322,0.955-2.397,2.13-2.397h7.472l0.615-0.616H5.825
						C4.313,3.688,3.082,5.039,3.082,6.701z"/>
				</g>
			</g>
			<g>
				<polygon fill="#D3A540" points="257.795,1.694 258.295,1.403 97.461,1.403 97.96,1.694 				"/>
				<polygon fill="#D3A540" points="100.46,3.148 255.297,3.148 255.796,2.857 99.96,2.857 				"/>
				<polygon fill="#D3A540" points="98.961,2.276 256.795,2.276 257.795,1.694 97.96,1.694 				"/>
				<polygon fill="#D3A540" points="255.796,2.857 256.795,2.276 98.961,2.276 99.96,2.857 				"/>
				<polygon fill="#D3A540" points="259.296,0.822 260.296,0.24 95.463,0.24 96.462,0.822 				"/>
				<polygon fill="#D3A540" points="102.461,4.312 253.296,4.312 254.295,3.729 101.461,3.729 				"/>
				<polygon fill="#856829" points="97.461,1.403 258.295,1.403 259.296,0.822 96.462,0.822 				"/>
				<polygon fill="#FFF0D2" points="254.295,3.729 255.297,3.148 100.46,3.148 101.461,3.729 				"/>
			</g>
		</g>
	</g>
	<rect x="0.001" fill="none" width="356.598" height="31.33"/>
</g>
</svg>
