<?xml version="1.0" encoding="utf-8"?>
<!-- Generator: Adobe Illustrator 16.0.0, SVG Export Plug-In . SVG Version: 6.00 Build 0)  -->
<!DOCTYPE svg PUBLIC "-//W3C//DTD SVG 1.1//EN" "http://www.w3.org/Graphics/SVG/1.1/DTD/svg11.dtd">
<svg version="1.1"
	 id="background" xmlns:svg="http://www.w3.org/2000/svg" xmlns:rdf="http://www.w3.org/1999/02/22-rdf-syntax-ns#" xmlns:cc="http://creativecommons.org/ns#" xmlns:dc="http://purl.org/dc/elements/1.1/"
	 xmlns="http://www.w3.org/2000/svg" xmlns:xlink="http://www.w3.org/1999/xlink" x="0px" y="0px" width="227.758px"
	 height="272.785px" viewBox="0 0 227.758 272.785" enable-background="new 0 0 227.758 272.785" xml:space="preserve">
<g id="layer1" transform="translate(-72.006134,-287.37882)">
	<g id="g827" transform="matrix(1.2201258,0,0,1.2201258,-51.264396,-97.72705)">
		<path id="path829" fill="#4E4F51" d="M143.237,480.063c0,0-31.55,0.899-42.206-19.052c0,0,10.415-27.98,26.463-36.412
			l26.965,3.189L143.237,480.063z"/>
		<path id="path831" fill="#4E4F51" d="M245.494,480.063c0,0,31.55,0.899,42.205-19.052c0,0-10.415-27.98-26.463-36.412
			l-26.965,3.189L245.494,480.063L245.494,480.063z"/>
		<path id="path833" fill="#3B3A3C" d="M270.609,475.41c0,0-11.687-38.504-20.208-41.167c-8.52-2.662-4.908,50.663-4.908,50.663
			L270.609,475.41z"/>
		<path id="path835" fill="#3B3A3C" d="M117.361,475.41c0,0,11.686-38.504,20.206-41.167c8.522-2.662,4.91,50.663,4.91,50.663
			L117.361,475.41L117.361,475.41z"/>
		<g id="g837">
			<g>
				<defs>
					<path id="SVGID_1_" d="M143.237,480.063c0,0-20.949,7.183-42.206-19.052c0,0,10.415-27.98,26.463-36.412l26.965,3.189
						L143.237,480.063z"/>
				</defs>
				<clipPath id="SVGID_2_">
					<use xlink:href="#SVGID_1_"  overflow="visible"/>
				</clipPath>
				<g id="g845" clip-path="url(#SVGID_2_)">
					<path id="path847" fill="#8D8F91" d="M107.436,442.552c0.748,0.423,1.289,1.165,1.356,1.984
						c0.471,5.751,2.821,10.54,6.986,14.234c9.2,8.158,24.252,8.671,24.403,8.676c1.323,0.036,2.506,1.062,2.642,2.288
						c0.136,1.228-0.826,2.191-2.148,2.154c-0.699-0.019-17.244-0.59-27.984-10.115c-5.199-4.613-8.125-10.497-8.699-17.489
						c-0.1-1.227,0.894-2.163,2.219-2.093C106.647,442.214,107.067,442.345,107.436,442.552z"/>
				</g>
			</g>
			<g>
				<defs>
					<path id="SVGID_3_" d="M143.237,480.063c0,0-20.949,7.183-42.206-19.052c0,0,10.415-27.98,26.463-36.412l26.965,3.189
						L143.237,480.063z"/>
				</defs>
				<clipPath id="SVGID_4_">
					<use xlink:href="#SVGID_3_"  overflow="visible"/>
				</clipPath>
				<g id="g849" clip-path="url(#SVGID_4_)">
					<path id="path851" fill="#8D8F91" d="M117.988,429.253c0.757,0.407,1.313,1.137,1.398,1.955
						c0.593,5.739,3.044,10.477,7.286,14.082c9.371,7.96,24.431,8.153,24.582,8.156c1.324,0.007,2.528,1.007,2.69,2.231
						c0.161,1.223-0.78,2.207-2.103,2.199c-0.7-0.003-17.254-0.223-28.193-9.518c-5.296-4.501-8.347-10.321-9.068-17.301
						c-0.126-1.223,0.846-2.18,2.174-2.139C117.192,428.931,117.615,429.054,117.988,429.253z"/>
				</g>
			</g>
			<g>
				<defs>
					<path id="SVGID_5_" d="M143.237,480.063c0,0-20.949,7.183-42.206-19.052c0,0,10.415-27.98,26.463-36.412l26.965,3.189
						L143.237,480.063z"/>
				</defs>
				<clipPath id="SVGID_6_">
					<use xlink:href="#SVGID_5_"  overflow="visible"/>
				</clipPath>
				<g id="g853" clip-path="url(#SVGID_6_)">
					<path id="path855" fill="#8D8F91" d="M109.123,440.865c0.748,0.423,1.289,1.165,1.356,1.984
						c0.471,5.75,2.821,10.539,6.985,14.232c9.2,8.16,24.252,8.672,24.404,8.678c1.323,0.036,2.506,1.061,2.642,2.287
						c0.137,1.228-0.826,2.191-2.148,2.155c-0.7-0.021-17.245-0.591-27.984-10.115c-5.198-4.613-8.125-10.498-8.699-17.489
						c-0.1-1.228,0.894-2.163,2.219-2.094C108.334,440.526,108.754,440.657,109.123,440.865L109.123,440.865z"/>
				</g>
			</g>
			<g>
				<defs>
					<path id="SVGID_7_" d="M143.237,480.063c0,0-20.949,7.183-42.206-19.052c0,0,10.415-27.98,26.463-36.412l26.965,3.189
						L143.237,480.063z"/>
				</defs>
				<clipPath id="SVGID_8_">
					<use xlink:href="#SVGID_7_"  overflow="visible"/>
				</clipPath>
				<g id="g857" clip-path="url(#SVGID_8_)">
					<path id="path859" fill="#8D8F91" d="M119.675,427.566c0.757,0.405,1.313,1.136,1.397,1.954
						c0.593,5.738,3.045,10.476,7.287,14.081c9.372,7.961,24.432,8.154,24.583,8.155c1.324,0.009,2.527,1.008,2.689,2.231
						c0.162,1.225-0.78,2.208-2.103,2.199c-0.699-0.004-17.253-0.224-28.193-9.519c-5.296-4.501-8.346-10.321-9.068-17.301
						c-0.125-1.223,0.847-2.18,2.174-2.138C118.879,427.245,119.302,427.366,119.675,427.566L119.675,427.566z"/>
				</g>
			</g>
		</g>
		<path id="path861" fill="#929497" d="M157.658,411.393c7.352,9.218,6.601,22.041-1.676,28.641l0,0
			c-8.276,6.602-20.945,4.479-28.297-4.739l-1.81-2.269c-7.351-9.218-6.601-22.042,1.676-28.642l0,0
			c8.278-6.602,20.946-4.479,28.297,4.74L157.658,411.393L157.658,411.393z"/>
		<path id="path863" fill="#929497" d="M229.603,411.393c-7.352,9.218-6.6,22.041,1.676,28.641l0,0
			c8.277,6.602,20.946,4.479,28.297-4.739l1.81-2.269c7.351-9.218,6.6-22.042-1.676-28.642l0,0
			c-8.278-6.602-20.946-4.479-28.297,4.74L229.603,411.393L229.603,411.393z"/>
		<g id="g865">
			<path id="path867" fill="#454547" d="M253.24,424.38c-3.83,0-6.946-3.116-6.946-6.945c0-3.831,3.116-6.948,6.946-6.948
				s6.946,3.117,6.946,6.948C260.186,421.264,257.07,424.38,253.24,424.38z"/>
			<path id="path869" fill="#BBBDBF" d="M253.24,411.286c3.39,0,6.147,2.758,6.147,6.148c0,3.389-2.758,6.145-6.147,6.145
				s-6.147-2.757-6.147-6.145C247.092,414.044,249.85,411.286,253.24,411.286 M253.24,409.688c-4.278,0-7.746,3.469-7.746,7.747
				c0,4.277,3.467,7.744,7.746,7.744c4.277,0,7.746-3.466,7.746-7.744C260.985,413.156,257.517,409.688,253.24,409.688
				L253.24,409.688z"/>
		</g>
		<g id="g871">
			<path id="path873" fill="#454547" d="M135.492,424.38c-3.831,0-6.947-3.116-6.947-6.945c0-3.831,3.116-6.948,6.947-6.948
				c3.83,0,6.946,3.117,6.946,6.948C142.438,421.264,139.322,424.38,135.492,424.38z"/>
			<path id="path875" fill="#BBBDBF" d="M135.492,411.286c3.39,0,6.147,2.758,6.147,6.148c0,3.389-2.758,6.145-6.147,6.145
				c-3.39,0-6.149-2.757-6.149-6.145C129.344,414.044,132.102,411.286,135.492,411.286 M135.492,409.688
				c-4.277,0-7.746,3.469-7.746,7.747c0,4.277,3.469,7.744,7.746,7.744c4.278,0,7.746-3.466,7.746-7.744
				C143.237,413.156,139.77,409.688,135.492,409.688L135.492,409.688z"/>
		</g>
		<g id="g877">
			<g>
				<defs>
					<path id="SVGID_9_" d="M245.494,480.063c0,0,20.948,7.183,42.205-19.052c0,0-10.415-27.98-26.463-36.412l-26.965,3.189
						L245.494,480.063L245.494,480.063z"/>
				</defs>
				<clipPath id="SVGID_10_">
					<use xlink:href="#SVGID_9_"  overflow="visible"/>
				</clipPath>
				<g id="g885" clip-path="url(#SVGID_10_)">
					<path id="path887" fill="#8D8F91" d="M281.294,442.552c-0.748,0.423-1.288,1.165-1.355,1.984
						c-0.472,5.751-2.821,10.54-6.986,14.234c-9.2,8.158-24.252,8.671-24.402,8.676c-1.325,0.036-2.508,1.062-2.642,2.288
						c-0.136,1.228,0.826,2.191,2.149,2.154c0.698-0.019,17.243-0.59,27.984-10.115c5.199-4.613,8.125-10.497,8.699-17.489
						c0.1-1.227-0.894-2.163-2.219-2.093C282.083,442.214,281.664,442.345,281.294,442.552z"/>
				</g>
			</g>
			<g>
				<defs>
					<path id="SVGID_11_" d="M245.494,480.063c0,0,20.948,7.183,42.205-19.052c0,0-10.415-27.98-26.463-36.412l-26.965,3.189
						L245.494,480.063L245.494,480.063z"/>
				</defs>
				<clipPath id="SVGID_12_">
					<use xlink:href="#SVGID_11_"  overflow="visible"/>
				</clipPath>
				<g id="g889" clip-path="url(#SVGID_12_)">
					<path id="path891" fill="#8D8F91" d="M270.742,429.253c-0.756,0.407-1.313,1.137-1.397,1.955
						c-0.593,5.739-3.044,10.477-7.287,14.082c-9.371,7.96-24.431,8.153-24.582,8.156c-1.323,0.007-2.527,1.007-2.69,2.231
						c-0.161,1.223,0.78,2.207,2.103,2.199c0.699-0.003,17.254-0.223,28.194-9.518c5.295-4.501,8.346-10.321,9.067-17.301
						c0.126-1.223-0.847-2.18-2.173-2.139C271.539,428.931,271.116,429.054,270.742,429.253L270.742,429.253z"/>
				</g>
			</g>
			<g>
				<defs>
					<path id="SVGID_13_" d="M245.494,480.063c0,0,20.948,7.183,42.205-19.052c0,0-10.415-27.98-26.463-36.412l-26.965,3.189
						L245.494,480.063L245.494,480.063z"/>
				</defs>
				<clipPath id="SVGID_14_">
					<use xlink:href="#SVGID_13_"  overflow="visible"/>
				</clipPath>
				<g id="g893" clip-path="url(#SVGID_14_)">
					<path id="path895" fill="#8D8F91" d="M279.437,440.695c-0.748,0.421-1.288,1.165-1.355,1.983
						c-0.472,5.751-2.821,10.539-6.985,14.232c-9.2,8.161-24.252,8.672-24.404,8.678c-1.324,0.036-2.507,1.061-2.643,2.287
						c-0.136,1.229,0.827,2.192,2.15,2.155c0.699-0.022,17.243-0.591,27.984-10.115c5.198-4.614,8.125-10.498,8.699-17.49
						c0.1-1.227-0.894-2.163-2.219-2.093C280.226,440.356,279.807,440.487,279.437,440.695z"/>
				</g>
			</g>
			<g>
				<defs>
					<path id="SVGID_15_" d="M245.494,480.063c0,0,20.948,7.183,42.205-19.052c0,0-10.415-27.98-26.463-36.412l-26.965,3.189
						L245.494,480.063L245.494,480.063z"/>
				</defs>
				<clipPath id="SVGID_16_">
					<use xlink:href="#SVGID_15_"  overflow="visible"/>
				</clipPath>
				<g id="g897" clip-path="url(#SVGID_16_)">
					<path id="path899" fill="#8D8F91" d="M268.885,427.396c-0.757,0.406-1.313,1.137-1.398,1.955
						c-0.593,5.738-3.044,10.476-7.286,14.081c-9.372,7.961-24.432,8.153-24.583,8.155c-1.324,0.009-2.527,1.008-2.689,2.231
						c-0.162,1.223,0.78,2.208,2.103,2.198c0.699-0.002,17.254-0.223,28.193-9.517c5.296-4.501,8.347-10.322,9.068-17.301
						c0.126-1.223-0.847-2.18-2.174-2.139C269.681,427.075,269.258,427.196,268.885,427.396L268.885,427.396z"/>
				</g>
			</g>
		</g>
		<path id="path901" fill="#00B19B" d="M250.402,482.508c0,31.308-25.382,56.691-56.691,56.691l0,0
			c-31.31,0-56.692-25.383-56.692-56.691V373.07c0-31.31,25.382-56.691,56.692-56.691l0,0c31.309,0,56.691,25.381,56.691,56.691
			V482.508z"/>
		
			<linearGradient id="path918_1_" gradientUnits="userSpaceOnUse" x1="467.0674" y1="-29.1497" x2="467.0674" y2="-249.7373" gradientTransform="matrix(1.2201 0 0 -1.2201 -376.1711 327.288)">
			<stop  offset="0.3222" style="stop-color:#FFFFFF;stop-opacity:0"/>
			<stop  offset="0.4192" style="stop-color:#C8C8C9;stop-opacity:0.1331"/>
			<stop  offset="0.5182" style="stop-color:#989899;stop-opacity:0.2688"/>
			<stop  offset="0.6123" style="stop-color:#727273;stop-opacity:0.3977"/>
			<stop  offset="0.6988" style="stop-color:#565657;stop-opacity:0.5163"/>
			<stop  offset="0.775" style="stop-color:#464647;stop-opacity:0.6208"/>
			<stop  offset="0.8328" style="stop-color:#404041;stop-opacity:0.7"/>
		</linearGradient>
		<path id="path918" fill="url(#path918_1_)" d="M137.019,441.704v40.804c0,31.308,25.382,56.691,56.692,56.691
			c31.309,0,56.691-25.383,56.691-56.691v-40.804H137.019z"/>
		
			<linearGradient id="path925_1_" gradientUnits="userSpaceOnUse" x1="729.9092" y1="582.7028" x2="729.9092" y2="362.1161" gradientTransform="matrix(-1.2201 0 0 1.2201 1084.292 -218.9982)">
			<stop  offset="0.3222" style="stop-color:#FFFFFF;stop-opacity:0"/>
			<stop  offset="0.8328" style="stop-color:#FFFFFF;stop-opacity:0.7"/>
		</linearGradient>
		<path id="path925" opacity="0.6" fill="url(#path925_1_)" enable-background="new    " d="M250.402,413.123v-40.805
			c0-31.308-25.382-56.69-56.691-56.69c-31.31,0-56.692,25.382-56.692,56.69v40.805H250.402z"/>
		<path id="path927" fill="#AAACAF" d="M217.107,431.049h-45.839c-10.383,0-18.831,8.447-18.831,18.831v30.786
			c0,10.384,8.448,18.831,18.831,18.831h45.839c10.384,0,18.832-8.447,18.832-18.831V449.88
			C235.939,439.497,227.491,431.05,217.107,431.049L217.107,431.049z"/>
		<path id="path929" fill="#ADAFB1" d="M250.402,449.345v-2.719c-14.729,3.188-33.653,4.932-53.717,4.932
			c-21.387,0-41.48-1.979-56.576-5.581c-1.064-0.254-2.091-0.515-3.09-0.782v2.757c0.832,0.216,1.658,0.423,2.472,0.616
			c15.292,3.646,35.604,5.654,57.193,5.654C216.68,454.222,235.571,452.496,250.402,449.345L250.402,449.345z"/>
		<path id="path931" fill="#ADAFB1" d="M250.402,450.37v-2.719c-14.729,3.188-33.653,4.933-53.717,4.933
			c-21.387,0-41.48-1.982-56.576-5.581c-1.064-0.254-2.091-0.515-3.09-0.783v2.757c0.832,0.217,1.658,0.423,2.472,0.615
			c15.292,3.647,35.604,5.654,57.193,5.654C216.68,455.247,235.571,453.521,250.402,450.37z"/>
		<path id="path933" fill="#ADAFB1" d="M137.019,380.94v2.72c14.729-3.188,33.654-4.932,53.718-4.932
			c21.386,0,41.479,1.982,56.576,5.581c1.063,0.254,2.091,0.515,3.089,0.783v-2.756c-0.832-0.217-1.658-0.423-2.472-0.617
			c-15.292-3.646-35.604-5.654-57.192-5.654C170.742,376.064,151.851,377.79,137.019,380.94L137.019,380.94z"/>
		<path id="path935" fill="#ADAFB1" d="M137.019,382.217v2.72c14.729-3.189,33.654-4.934,53.718-4.934
			c21.386,0,41.479,1.983,56.576,5.582c1.063,0.253,2.091,0.515,3.089,0.781v-2.756c-0.832-0.217-1.658-0.423-2.472-0.617
			c-15.292-3.645-35.604-5.653-57.192-5.653C170.742,377.342,151.851,379.067,137.019,382.217z"/>
		<g id="g937">
			<path id="path939" fill="#231F20" d="M151.998,398.469V373.19c0-9.502,7.73-17.232,17.233-17.232h49.938
				c9.502,0,17.233,7.73,17.233,17.232v25.279H151.998L151.998,398.469z"/>
			<path id="path941" fill="#D4D6D7" d="M219.169,358.088c8.342,0,15.102,6.761,15.102,15.102v8.045v15.103h-15.102h-49.938h-15.102
				v-15.103v-8.045c0-8.34,6.762-15.102,15.102-15.102H219.169 M219.169,353.826h-49.938c-10.677,0-19.364,8.687-19.364,19.364
				v8.045v15.103v4.262h4.262h15.102h49.938h15.102h4.262v-4.262v-15.103v-8.045C238.533,362.513,229.846,353.826,219.169,353.826
				L219.169,353.826z"/>
		</g>
		
			<circle id="circle943" opacity="0.4" fill="#7BC043" stroke="#231F20" stroke-width="0.5328" stroke-miterlimit="10" enable-background="new    " cx="215.362" cy="377.212" r="13.369"/>
		
			<circle id="circle945" opacity="0.4" fill="#7BC043" stroke="#231F20" stroke-width="0.5328" stroke-miterlimit="10" enable-background="new    " cx="171.649" cy="377.212" r="13.369"/>
		<circle id="circle947" fill="#FFFFFF" cx="171.649" cy="377.212" r="9.107"/>
		<circle id="circle949" fill="#FFFFFF" cx="215.362" cy="377.212" r="9.107"/>
		<rect id="rect951" x="149.537" y="400.545" fill="#96999B" width="88.971" height="3.334"/>
		<g id="g953">
			<path id="path955" fill="#DFE0E1" d="M171.269,493.37c-9.355,0-16.967-7.61-16.967-16.966v-30.786
				c0-9.355,7.611-16.967,16.967-16.967h45.838c9.356,0,16.967,7.611,16.967,16.967v30.786c0,9.355-7.611,16.966-16.967,16.966
				H171.269z"/>
			<path id="path957" fill="#AAACAF" d="M217.107,430.516c8.341,0,15.103,6.762,15.103,15.103v30.786
				c0,8.339-6.762,15.102-15.103,15.102h-45.839c-8.341,0-15.102-6.763-15.102-15.102v-30.786c0-8.341,6.761-15.103,15.102-15.103
				H217.107 M217.107,426.786h-45.839c-10.383,0-18.831,8.448-18.831,18.832v30.786c0,10.384,8.448,18.831,18.831,18.831h45.839
				c10.384,0,18.832-8.447,18.832-18.831v-30.786C235.939,435.234,227.491,426.786,217.107,426.786L217.107,426.786z"/>
		</g>
		<path id="path959" fill="#182313" d="M226.898,474.253c0,7.175-5.817,12.992-12.993,12.992H174.47
			c-7.175,0-12.992-5.817-12.992-12.992v-26.485c0-7.175,5.817-12.992,12.992-12.992h39.435c7.175,0,12.993,5.816,12.993,12.992
			V474.253z"/>
		<ellipse id="ellipse961" fill="#E3E4E5" cx="257.866" cy="409.464" rx="3.927" ry="3.456"/>
		<ellipse id="ellipse963" fill="#E3E4E5" cx="130.299" cy="409.464" rx="3.927" ry="3.456"/>
		<path id="path965" fill="#E3E4E5" d="M263.547,429.801c-0.622,1.11-1.338,2.191-2.163,3.225l-0.129,0.162
			c3.582,5.827,15.405,25.426,19.294,36.428c1.036-0.85,2.025-1.767,2.953-2.76C278.462,453.848,265.309,432.623,263.547,429.801
			L263.547,429.801z"/>
		<path id="path967" fill="#E3E4E5" d="M106.925,468.527c4.242-11.16,15.426-29.701,18.894-35.34l-0.128-0.162
			c-0.825-1.033-1.541-2.114-2.163-3.225c-1.706,2.728-14.069,22.683-19.438,35.758
			C104.972,466.625,105.922,467.612,106.925,468.527z"/>
		
			<ellipse id="ellipse969" transform="matrix(0.6351 -0.7725 0.7725 0.6351 -177.9031 298.9406)" fill="#E3E4E5" cx="227.433" cy="337.754" rx="5.505" ry="9.455"/>
		<path id="path971" fill="#E3E4E5" d="M241.882,485.438c0,0.998,0.809,1.807,1.805,1.807l0,0c0.998,0,1.807-0.809,1.807-1.807
			V363.063c0-0.998-0.809-1.806-1.807-1.806l0,0c-0.996,0-1.805,0.808-1.805,1.806V485.438z"/>
		<g id="g973" opacity="0.2">
			<path id="path975" fill="#5A5B5D" d="M193.401,534.138c-21.03,0-33.594-10.5-40.431-19.309
				c-7.359-9.482-9.747-18.879-9.845-19.272c-0.318-1.285,0.465-2.586,1.75-2.905c1.286-0.316,2.585,0.466,2.904,1.75
				c0.021,0.085,2.295,8.938,9.088,17.628c8.981,11.487,21.272,17.313,36.534,17.313c1.324,0,2.396,1.072,2.396,2.396
				C195.797,533.063,194.725,534.137,193.401,534.138L193.401,534.138z"/>
		</g>
		<g id="g977" opacity="0.7">
			<path id="path979" fill="#FFFFFF" d="M220.211,454.558c-1.471,0-2.664-1.193-2.664-2.664c0-7.107-4.052-7.664-4.864-7.704
				c-1.471-0.021-2.625-1.229-2.604-2.701c0.02-1.456,1.23-2.625,2.684-2.625c0.013,0,0.026,0,0.038,0.002
				c3.484,0.049,10.074,2.837,10.074,13.029C222.875,453.364,221.683,454.558,220.211,454.558L220.211,454.558z"/>
		</g>
		<path id="path981" fill="#929497" d="M213.967,477.938h-38.319c-0.469-0.063-0.894-0.142-1.286-0.233
			c-1.483-0.521-3.722-2.185-3.722-7.469v-23.145c0-1.471-1.193-2.664-2.664-2.664c-1.47,0-2.664,1.193-2.664,2.664l0.001,23.141
			c0,0.002-0.001,0.004-0.001,0.005c0,0.008,0.001,0.015,0.001,0.021v5.11c0.006,0.274,0.219,5.718,7.709,7.5
			c0.808,0.247,1.575,0.367,2.243,0.393c0.936,0.108,1.956,0.172,3.077,0.172c0.317,0,0.616-0.065,0.899-0.166h34.726
			c1.472,0,2.664-1.193,2.664-2.664C216.631,479.13,215.438,477.938,213.967,477.938L213.967,477.938z"/>
		
			<rect id="rect983" x="185.841" y="387.917" opacity="0.4" fill="#7BC043" stroke="#231F20" stroke-width="0.5328" stroke-miterlimit="10" enable-background="new    " width="16.151" height="2.389"/>
		<g id="g985">
			<path id="path987" fill="#68BD55" d="M178.18,448.485l-1.538,3.316c-0.039,0.082-0.074,0.136-0.105,0.161
				c-0.042,0.032-0.09,0.049-0.147,0.049c-0.065,0-0.123-0.022-0.17-0.07c-0.048-0.047-0.071-0.1-0.071-0.159
				c0-0.042,0.019-0.104,0.056-0.186l1.543-3.312c0.038-0.084,0.073-0.138,0.102-0.163c0.042-0.033,0.091-0.05,0.147-0.05
				c0.065,0,0.122,0.023,0.169,0.069c0.046,0.046,0.07,0.1,0.07,0.159C178.236,448.343,178.217,448.404,178.18,448.485
				L178.18,448.485z"/>
			<path id="path989" fill="#68BD55" d="M181.057,448.485l-1.538,3.316c-0.038,0.082-0.074,0.136-0.105,0.161
				c-0.041,0.032-0.09,0.049-0.146,0.049c-0.066,0-0.123-0.022-0.17-0.07c-0.048-0.047-0.071-0.1-0.071-0.159
				c0-0.042,0.019-0.104,0.056-0.186l1.543-3.312c0.039-0.084,0.074-0.138,0.103-0.163c0.042-0.033,0.091-0.05,0.147-0.05
				c0.065,0,0.122,0.023,0.167,0.069c0.046,0.046,0.07,0.1,0.07,0.159C181.113,448.343,181.094,448.404,181.057,448.485
				L181.057,448.485z"/>
			<path id="path991" fill="#68BD55" d="M185.723,449.333v0.3c0.202-0.145,0.359-0.242,0.477-0.29
				c0.116-0.048,0.225-0.073,0.326-0.073c0.156,0,0.308,0.058,0.455,0.174c0.1,0.078,0.15,0.158,0.15,0.239
				c0,0.069-0.024,0.127-0.072,0.175c-0.048,0.047-0.105,0.07-0.172,0.07c-0.059,0-0.122-0.03-0.187-0.089
				c-0.065-0.06-0.124-0.09-0.176-0.09c-0.066,0-0.166,0.042-0.301,0.127c-0.134,0.083-0.299,0.211-0.499,0.379v0.724h0.684
				c0.116,0,0.198,0.022,0.247,0.066c0.049,0.045,0.074,0.102,0.074,0.174c0,0.07-0.025,0.127-0.074,0.172
				c-0.049,0.046-0.131,0.066-0.247,0.066h-1.449c-0.115,0-0.198-0.021-0.247-0.066c-0.049-0.045-0.074-0.102-0.074-0.174
				c0-0.07,0.025-0.127,0.074-0.172c0.05-0.045,0.132-0.066,0.247-0.066h0.286v-1.167h-0.173c-0.115,0-0.198-0.021-0.247-0.065
				c-0.049-0.045-0.074-0.103-0.074-0.175c0-0.069,0.025-0.128,0.074-0.173c0.05-0.044,0.132-0.066,0.247-0.066h0.652V449.333z"/>
			<path id="path993" fill="#68BD55" d="M189.905,450.64h-1.969c0.05,0.126,0.138,0.227,0.265,0.303
				c0.126,0.075,0.3,0.114,0.517,0.114c0.178,0,0.414-0.038,0.708-0.114c0.122-0.031,0.206-0.048,0.254-0.048
				c0.064,0,0.118,0.022,0.162,0.068c0.043,0.045,0.065,0.103,0.065,0.171c0,0.062-0.023,0.114-0.07,0.158
				c-0.062,0.059-0.215,0.112-0.457,0.165c-0.243,0.052-0.474,0.078-0.697,0.078c-0.384,0-0.691-0.108-0.922-0.325
				c-0.23-0.217-0.345-0.484-0.345-0.801c0-0.337,0.125-0.611,0.374-0.822c0.249-0.212,0.536-0.318,0.86-0.318
				c0.195,0,0.374,0.034,0.537,0.104c0.164,0.068,0.285,0.142,0.363,0.223c0.112,0.115,0.206,0.259,0.279,0.428
				c0.05,0.12,0.075,0.257,0.075,0.413V450.64z M189.373,450.159c-0.073-0.137-0.169-0.239-0.288-0.307
				c-0.118-0.067-0.259-0.102-0.424-0.102c-0.162,0-0.303,0.034-0.421,0.102c-0.118,0.068-0.215,0.17-0.29,0.307H189.373
				L189.373,450.159z"/>
			<path id="path995" fill="#68BD55" d="M190.836,449.333v0.136c0.078-0.076,0.149-0.129,0.211-0.157
				c0.063-0.029,0.135-0.043,0.219-0.043c0.07,0,0.14,0.018,0.208,0.051c0.068,0.034,0.135,0.086,0.201,0.155
				c0.082-0.069,0.166-0.121,0.251-0.154c0.085-0.033,0.172-0.05,0.262-0.05c0.178,0,0.321,0.048,0.433,0.144
				c0.147,0.124,0.22,0.287,0.22,0.491v1.074c0.099,0,0.174,0.022,0.222,0.067c0.048,0.045,0.074,0.104,0.074,0.174
				c0,0.07-0.024,0.127-0.074,0.172c-0.048,0.045-0.13,0.066-0.246,0.066h-0.457v-1.515c0-0.073-0.014-0.124-0.04-0.152
				c-0.027-0.028-0.067-0.042-0.122-0.042c-0.054,0-0.102,0.014-0.148,0.042c-0.058,0.039-0.128,0.113-0.21,0.221v0.967
				c0.1,0,0.174,0.022,0.223,0.067c0.048,0.045,0.072,0.104,0.072,0.174c0,0.07-0.024,0.127-0.072,0.172
				c-0.049,0.045-0.13,0.066-0.247,0.066h-0.455v-1.515c0-0.071-0.014-0.122-0.042-0.15c-0.026-0.029-0.068-0.044-0.122-0.044
				c-0.056,0-0.111,0.019-0.166,0.052c-0.054,0.036-0.121,0.106-0.197,0.211v0.967c0.1,0,0.174,0.022,0.224,0.067
				c0.049,0.045,0.073,0.104,0.073,0.174c0,0.07-0.024,0.127-0.073,0.172c-0.049,0.045-0.132,0.066-0.247,0.066h-0.433
				c-0.115,0-0.198-0.022-0.247-0.066c-0.05-0.045-0.074-0.102-0.074-0.174c0-0.07,0.024-0.127,0.072-0.172
				c0.05-0.046,0.124-0.066,0.225-0.066v-1.167c-0.101,0-0.175-0.022-0.225-0.066c-0.048-0.046-0.072-0.104-0.072-0.174
				c0-0.069,0.024-0.128,0.074-0.173c0.048-0.044,0.131-0.066,0.247-0.066h0.459V449.333z"/>
			<path id="path997" fill="#68BD55" d="M195.701,450.437c0,0.185-0.05,0.362-0.153,0.534c-0.103,0.173-0.255,0.311-0.457,0.413
				c-0.202,0.101-0.414,0.152-0.634,0.152c-0.219,0-0.428-0.05-0.627-0.151c-0.2-0.101-0.352-0.237-0.457-0.41
				c-0.104-0.173-0.156-0.354-0.156-0.544s0.053-0.379,0.158-0.565c0.106-0.185,0.259-0.329,0.459-0.437
				c0.198-0.105,0.407-0.158,0.623-0.158c0.219,0,0.429,0.056,0.631,0.164c0.202,0.106,0.355,0.253,0.457,0.437
				C195.649,450.055,195.701,450.242,195.701,450.437L195.701,450.437z M195.222,450.438c0-0.153-0.056-0.296-0.167-0.425
				c-0.152-0.175-0.351-0.263-0.597-0.263c-0.216,0-0.397,0.07-0.543,0.21c-0.145,0.138-0.219,0.299-0.219,0.481
				c0,0.149,0.074,0.29,0.22,0.419c0.146,0.131,0.328,0.196,0.541,0.196c0.215,0,0.396-0.065,0.543-0.196
				C195.148,450.73,195.222,450.59,195.222,450.438L195.222,450.438z"/>
			<path id="path999" fill="#68BD55" d="M197.213,449.813v0.963c0,0.104,0.022,0.171,0.064,0.204
				c0.066,0.051,0.182,0.077,0.351,0.077c0.246,0,0.472-0.053,0.68-0.157c0.079-0.04,0.142-0.061,0.187-0.061
				c0.063,0,0.117,0.023,0.162,0.069c0.046,0.047,0.07,0.104,0.07,0.172c0,0.063-0.025,0.116-0.075,0.162
				c-0.077,0.071-0.228,0.139-0.454,0.202c-0.225,0.062-0.416,0.092-0.57,0.092c-0.298,0-0.521-0.063-0.67-0.193
				c-0.149-0.129-0.224-0.287-0.224-0.475v-1.056h-0.174c-0.115,0-0.198-0.021-0.247-0.065c-0.049-0.046-0.074-0.103-0.074-0.175
				c0-0.069,0.024-0.128,0.074-0.173c0.049-0.044,0.131-0.066,0.247-0.066h0.174V448.9c0-0.114,0.021-0.198,0.066-0.247
				c0.044-0.049,0.103-0.074,0.175-0.074c0.07,0,0.127,0.026,0.171,0.074c0.045,0.049,0.066,0.132,0.066,0.247v0.433h0.888
				c0.116,0,0.198,0.022,0.247,0.066c0.05,0.045,0.074,0.104,0.074,0.176c0,0.069-0.024,0.127-0.074,0.172
				c-0.049,0.044-0.13,0.065-0.247,0.065L197.213,449.813L197.213,449.813z"/>
			<path id="path1001" fill="#68BD55" d="M201.413,450.64h-1.969c0.05,0.126,0.138,0.227,0.266,0.303
				c0.127,0.075,0.299,0.114,0.516,0.114c0.178,0,0.414-0.038,0.709-0.114c0.122-0.031,0.206-0.048,0.252-0.048
				c0.064,0,0.118,0.022,0.162,0.068c0.044,0.045,0.066,0.103,0.066,0.171c0,0.062-0.024,0.114-0.07,0.158
				c-0.063,0.059-0.214,0.112-0.457,0.165c-0.241,0.052-0.475,0.078-0.697,0.078c-0.384,0-0.691-0.108-0.921-0.325
				c-0.231-0.217-0.346-0.484-0.346-0.801c0-0.337,0.124-0.611,0.374-0.822c0.249-0.212,0.535-0.318,0.86-0.318
				c0.194,0,0.375,0.034,0.538,0.104c0.162,0.068,0.284,0.142,0.364,0.223c0.112,0.115,0.205,0.259,0.277,0.428
				c0.05,0.12,0.074,0.257,0.074,0.413v0.202H201.413z M200.882,450.159c-0.074-0.137-0.17-0.239-0.289-0.307
				c-0.118-0.067-0.259-0.102-0.423-0.102c-0.163,0-0.303,0.034-0.421,0.102c-0.118,0.066-0.215,0.17-0.29,0.307H200.882z"/>
			<path id="path1003" fill="#68BD55" d="M203.452,451.218c0,0.092-0.032,0.166-0.095,0.227c-0.064,0.062-0.154,0.091-0.266,0.091
				c-0.113,0-0.199-0.03-0.263-0.091c-0.063-0.062-0.096-0.135-0.096-0.227c0-0.09,0.032-0.166,0.096-0.228
				c0.064-0.062,0.15-0.091,0.263-0.091c0.112,0,0.202,0.03,0.266,0.091C203.42,451.052,203.452,451.128,203.452,451.218z"/>
			<path id="path1005" fill="#68BD55" d="M177.709,455.649c-0.078-0.05-0.16-0.085-0.246-0.109
				c-0.086-0.024-0.176-0.036-0.271-0.036c-0.186,0-0.333,0.03-0.442,0.09c-0.048,0.027-0.073,0.056-0.073,0.087
				c0,0.036,0.033,0.07,0.098,0.105c0.05,0.025,0.162,0.049,0.335,0.072c0.318,0.044,0.54,0.088,0.665,0.132
				c0.164,0.058,0.29,0.144,0.379,0.257c0.09,0.114,0.134,0.233,0.134,0.36c0,0.172-0.076,0.315-0.227,0.431
				c-0.217,0.167-0.499,0.251-0.845,0.251c-0.138,0-0.268-0.012-0.385-0.035c-0.118-0.024-0.226-0.061-0.324-0.106
				c-0.022,0.019-0.048,0.034-0.074,0.046c-0.027,0.012-0.054,0.018-0.083,0.018c-0.075,0-0.134-0.025-0.178-0.074
				c-0.046-0.05-0.067-0.131-0.067-0.247v-0.162c0-0.114,0.022-0.198,0.067-0.246c0.044-0.05,0.102-0.075,0.174-0.075
				c0.058,0,0.106,0.017,0.146,0.049c0.04,0.032,0.07,0.088,0.091,0.165c0.073,0.063,0.161,0.11,0.265,0.142
				c0.103,0.032,0.221,0.048,0.356,0.048c0.22,0,0.391-0.034,0.512-0.103c0.058-0.034,0.086-0.07,0.086-0.108
				c0-0.062-0.042-0.112-0.124-0.154c-0.082-0.04-0.254-0.074-0.513-0.103c-0.385-0.041-0.643-0.119-0.772-0.234
				c-0.13-0.114-0.194-0.255-0.194-0.421c0-0.172,0.072-0.315,0.217-0.429c0.197-0.155,0.455-0.234,0.772-0.234
				c0.11,0,0.218,0.012,0.319,0.032c0.102,0.022,0.2,0.054,0.294,0.097c0.03-0.021,0.058-0.037,0.083-0.049
				c0.025-0.01,0.049-0.017,0.071-0.017c0.065,0,0.12,0.024,0.164,0.074s0.066,0.132,0.066,0.246v0.118
				c0,0.104-0.013,0.175-0.038,0.213c-0.05,0.071-0.118,0.107-0.204,0.107c-0.058,0-0.108-0.019-0.152-0.054
				C177.749,455.758,177.722,455.708,177.709,455.649L177.709,455.649z"/>
			<path id="path1007" fill="#68BD55" d="M179.8,457.196l-0.832-1.63c-0.078-0.01-0.137-0.035-0.178-0.079
				c-0.042-0.042-0.062-0.097-0.062-0.158c0-0.071,0.026-0.13,0.074-0.175c0.049-0.044,0.13-0.066,0.247-0.066h0.439
				c0.114,0,0.197,0.022,0.247,0.066c0.049,0.046,0.074,0.104,0.074,0.175c0,0.069-0.024,0.128-0.074,0.172
				c-0.049,0.045-0.126,0.066-0.233,0.066l0.566,1.104l0.562-1.104c-0.102,0-0.178-0.021-0.227-0.066
				c-0.05-0.044-0.074-0.104-0.074-0.174c0-0.071,0.024-0.127,0.074-0.173c0.049-0.044,0.13-0.066,0.247-0.066h0.452
				c0.114,0,0.196,0.022,0.245,0.066c0.049,0.046,0.074,0.104,0.074,0.175c0,0.062-0.021,0.118-0.062,0.162
				c-0.042,0.044-0.105,0.069-0.188,0.075l-1.101,2.169c0.121,0,0.199,0.011,0.236,0.035c0.075,0.049,0.113,0.117,0.113,0.205
				c0,0.07-0.024,0.128-0.074,0.173c-0.049,0.044-0.131,0.066-0.247,0.066h-1.046c-0.116,0-0.198-0.022-0.247-0.066
				c-0.049-0.045-0.074-0.103-0.074-0.173c0-0.071,0.026-0.13,0.074-0.174c0.049-0.045,0.13-0.066,0.247-0.066h0.479L179.8,457.196
				L179.8,457.196z"/>
			<path id="path1009" fill="#68BD55" d="M183.464,455.649c-0.078-0.05-0.16-0.085-0.246-0.109c-0.086-0.024-0.176-0.036-0.27-0.036
				c-0.186,0-0.333,0.03-0.443,0.09c-0.048,0.027-0.072,0.056-0.072,0.087c0,0.036,0.033,0.07,0.098,0.105
				c0.05,0.025,0.162,0.049,0.335,0.072c0.318,0.044,0.54,0.088,0.665,0.132c0.164,0.058,0.291,0.144,0.379,0.257
				c0.089,0.114,0.133,0.233,0.133,0.36c0,0.172-0.075,0.315-0.227,0.431c-0.217,0.167-0.499,0.251-0.845,0.251
				c-0.14,0-0.268-0.012-0.385-0.035c-0.118-0.024-0.226-0.061-0.324-0.106c-0.024,0.019-0.049,0.034-0.074,0.046
				c-0.027,0.012-0.054,0.018-0.082,0.018c-0.074,0-0.134-0.025-0.178-0.074c-0.044-0.05-0.067-0.131-0.067-0.247v-0.162
				c0-0.114,0.022-0.198,0.067-0.246c0.044-0.05,0.102-0.075,0.174-0.075c0.058,0,0.106,0.017,0.146,0.049
				c0.039,0.032,0.07,0.088,0.091,0.165c0.073,0.063,0.161,0.11,0.264,0.142c0.103,0.032,0.222,0.048,0.356,0.048
				c0.22,0,0.391-0.034,0.513-0.103c0.058-0.034,0.086-0.07,0.086-0.108c0-0.062-0.041-0.112-0.124-0.154
				c-0.082-0.04-0.254-0.074-0.513-0.103c-0.386-0.041-0.644-0.119-0.772-0.234c-0.13-0.114-0.194-0.255-0.194-0.421
				c0-0.172,0.073-0.315,0.219-0.429c0.197-0.155,0.454-0.234,0.772-0.234c0.111,0,0.217,0.012,0.319,0.032
				c0.102,0.022,0.201,0.054,0.294,0.097c0.03-0.021,0.058-0.037,0.083-0.049c0.025-0.01,0.05-0.017,0.07-0.017
				c0.066,0,0.122,0.024,0.164,0.074c0.043,0.05,0.066,0.132,0.066,0.246v0.118c0,0.104-0.012,0.175-0.038,0.213
				c-0.05,0.071-0.118,0.107-0.204,0.107c-0.058,0-0.108-0.019-0.151-0.054C183.504,455.757,183.477,455.708,183.464,455.649
				L183.464,455.649z"/>
			<path id="path1011" fill="#68BD55" d="M185.704,455.566v0.963c0,0.103,0.021,0.171,0.063,0.204
				c0.065,0.05,0.182,0.076,0.351,0.076c0.245,0,0.472-0.052,0.68-0.157c0.079-0.039,0.142-0.061,0.187-0.061
				c0.062,0,0.116,0.022,0.163,0.07c0.047,0.047,0.069,0.104,0.069,0.172c0,0.062-0.025,0.116-0.074,0.161
				c-0.076,0.073-0.228,0.141-0.453,0.203c-0.226,0.062-0.416,0.091-0.571,0.091c-0.298,0-0.522-0.063-0.671-0.192
				c-0.149-0.128-0.223-0.287-0.223-0.475v-1.056h-0.174c-0.115,0-0.198-0.021-0.247-0.066c-0.049-0.044-0.074-0.104-0.074-0.174
				c0-0.071,0.024-0.127,0.074-0.173c0.05-0.044,0.131-0.066,0.247-0.066h0.174v-0.434c0-0.115,0.022-0.197,0.067-0.246
				c0.044-0.05,0.102-0.074,0.174-0.074c0.07,0,0.126,0.024,0.171,0.074c0.044,0.049,0.066,0.13,0.066,0.246v0.434h0.888
				c0.115,0,0.198,0.022,0.247,0.066c0.05,0.046,0.074,0.104,0.074,0.174c0,0.07-0.024,0.128-0.074,0.172
				c-0.049,0.046-0.131,0.066-0.247,0.066L185.704,455.566L185.704,455.566z"/>
			<path id="path1013" fill="#68BD55" d="M189.905,456.394h-1.969c0.05,0.123,0.138,0.226,0.265,0.302
				c0.126,0.077,0.3,0.114,0.517,0.114c0.178,0,0.414-0.037,0.708-0.114c0.122-0.03,0.206-0.047,0.254-0.047
				c0.064,0,0.118,0.023,0.162,0.067c0.043,0.046,0.065,0.104,0.065,0.17c0,0.063-0.023,0.116-0.07,0.16
				c-0.062,0.058-0.215,0.112-0.457,0.166c-0.243,0.052-0.474,0.077-0.697,0.077c-0.384,0-0.691-0.107-0.922-0.324
				c-0.23-0.217-0.345-0.484-0.345-0.801c0-0.337,0.125-0.611,0.374-0.823c0.249-0.211,0.536-0.317,0.86-0.317
				c0.195,0,0.374,0.035,0.537,0.103c0.164,0.069,0.285,0.142,0.363,0.223c0.112,0.116,0.206,0.26,0.279,0.43
				c0.05,0.118,0.075,0.256,0.075,0.411V456.394z M189.373,455.913c-0.073-0.138-0.169-0.24-0.288-0.308
				c-0.118-0.067-0.259-0.102-0.424-0.102c-0.162,0-0.303,0.034-0.421,0.102c-0.118,0.068-0.215,0.17-0.29,0.308H189.373
				L189.373,455.913z"/>
			<path id="path1015" fill="#68BD55" d="M190.836,455.087v0.135c0.078-0.075,0.149-0.129,0.211-0.158
				c0.063-0.029,0.135-0.043,0.219-0.043c0.07,0,0.14,0.018,0.208,0.051c0.069,0.035,0.135,0.086,0.201,0.154
				c0.082-0.067,0.166-0.118,0.251-0.151c0.085-0.034,0.172-0.051,0.262-0.051c0.178,0,0.321,0.048,0.433,0.142
				c0.147,0.126,0.22,0.29,0.22,0.492v1.075c0.099,0,0.174,0.022,0.222,0.067c0.048,0.045,0.074,0.104,0.074,0.173
				c0,0.07-0.024,0.129-0.074,0.172c-0.048,0.045-0.13,0.067-0.246,0.067h-0.457v-1.516c0-0.072-0.014-0.123-0.04-0.151
				c-0.027-0.027-0.067-0.042-0.122-0.042c-0.054,0-0.102,0.014-0.148,0.042c-0.058,0.039-0.128,0.112-0.21,0.22v0.968
				c0.1,0,0.174,0.022,0.223,0.067c0.048,0.045,0.072,0.104,0.072,0.173c0,0.07-0.024,0.129-0.072,0.172
				c-0.049,0.045-0.13,0.067-0.247,0.067h-0.455v-1.516c0-0.071-0.014-0.122-0.042-0.15c-0.026-0.028-0.068-0.042-0.122-0.042
				c-0.056,0-0.111,0.018-0.166,0.051c-0.054,0.036-0.121,0.106-0.197,0.211v0.968c0.1,0,0.174,0.021,0.224,0.067
				c0.049,0.045,0.073,0.104,0.073,0.173c0,0.07-0.024,0.129-0.073,0.172c-0.049,0.045-0.132,0.067-0.247,0.067h-0.433
				c-0.115,0-0.198-0.022-0.247-0.067c-0.05-0.043-0.074-0.102-0.074-0.174c0-0.07,0.024-0.128,0.072-0.172
				c0.05-0.046,0.124-0.066,0.225-0.066v-1.167c-0.101,0-0.175-0.021-0.225-0.067c-0.048-0.045-0.072-0.102-0.072-0.173
				s0.024-0.126,0.074-0.173c0.048-0.044,0.131-0.066,0.247-0.066L190.836,455.087L190.836,455.087z"/>
		</g>
	</g>
</g>
</svg>
