<?xml version="1.0" encoding="UTF-8" standalone="no"?>
<!-- Created with Inkscape (http://www.inkscape.org/) -->

<svg
   xmlns:a="http://ns.adobe.com/AdobeSVGViewerExtensions/3.0/"
   xmlns:dc="http://purl.org/dc/elements/1.1/"
   xmlns:cc="http://creativecommons.org/ns#"
   xmlns:rdf="http://www.w3.org/1999/02/22-rdf-syntax-ns#"
   xmlns:svg="http://www.w3.org/2000/svg"
   xmlns="http://www.w3.org/2000/svg"
   xmlns:xlink="http://www.w3.org/1999/xlink"
   version="1.1"
   width="227.75844"
   height="272.78476"
   viewBox="0 0 227.75844 272.78476"
   id="background"
   xml:space="preserve"><metadata
     id="metadata220"><rdf:RDF><cc:Work
         rdf:about=""><dc:format>image/svg+xml</dc:format><dc:type
           rdf:resource="http://purl.org/dc/dcmitype/StillImage" /><dc:title></dc:title></cc:Work></rdf:RDF></metadata><defs
     id="defs218"><clipPath
       id="SVGID_4_"><path
         d="m 143.237,480.063 c 0,0 -20.949,7.183 -42.206,-19.052 0,0 10.415,-27.98 26.463,-36.412 l 26.965,3.189 -11.222,52.275 z"
         id="use843" /></clipPath><clipPath
       id="clipPath3746"><path
         d="m 143.237,480.063 c 0,0 -20.949,7.183 -42.206,-19.052 0,0 10.415,-27.98 26.463,-36.412 l 26.965,3.189 -11.222,52.275 z"
         id="use3748" /></clipPath><clipPath
       id="clipPath3750"><path
         d="m 143.237,480.063 c 0,0 -20.949,7.183 -42.206,-19.052 0,0 10.415,-27.98 26.463,-36.412 l 26.965,3.189 -11.222,52.275 z"
         id="use3752" /></clipPath><clipPath
       id="clipPath3754"><path
         d="m 143.237,480.063 c 0,0 -20.949,7.183 -42.206,-19.052 0,0 10.415,-27.98 26.463,-36.412 l 26.965,3.189 -11.222,52.275 z"
         id="use3756" /></clipPath><clipPath
       id="SVGID_6_"><path
         d="m 245.494,480.063 c 0,0 20.948,7.183 42.205,-19.052 0,0 -10.416,-27.98 -26.463,-36.412 l -26.965,3.189 11.223,52.275 z"
         id="use883" /></clipPath><clipPath
       id="clipPath3760"><path
         d="m 245.494,480.063 c 0,0 20.948,7.183 42.205,-19.052 0,0 -10.416,-27.98 -26.463,-36.412 l -26.965,3.189 11.223,52.275 z"
         id="use3762" /></clipPath><clipPath
       id="clipPath3764"><path
         d="m 245.494,480.063 c 0,0 20.948,7.183 42.205,-19.052 0,0 -10.416,-27.98 -26.463,-36.412 l -26.965,3.189 11.223,52.275 z"
         id="use3766" /></clipPath><clipPath
       id="clipPath3768"><path
         d="m 245.494,480.063 c 0,0 20.948,7.183 42.205,-19.052 0,0 -10.416,-27.98 -26.463,-36.412 l -26.965,3.189 11.223,52.275 z"
         id="use3770" /></clipPath><linearGradient
       x1="193.7104"
       y1="362.8555"
       x2="193.7104"
       y2="583.44208"
       id="SVGID_7_"
       gradientUnits="userSpaceOnUse"><stop
         id="stop904"
         style="stop-color:#ffffff;stop-opacity:0"
         offset="0.3222" /><stop
         id="stop906"
         style="stop-color:#c8c8c9;stop-opacity:0.1331"
         offset="0.4192" /><stop
         id="stop908"
         style="stop-color:#989899;stop-opacity:0.26879999"
         offset="0.51819998" /><stop
         id="stop910"
         style="stop-color:#727273;stop-opacity:0.39770001"
         offset="0.61229998" /><stop
         id="stop912"
         style="stop-color:#565657;stop-opacity:0.51630002"
         offset="0.69880003" /><stop
         id="stop914"
         style="stop-color:#464647;stop-opacity:0.62080002"
         offset="0.77499998" /><stop
         id="stop916"
         style="stop-color:#404041;stop-opacity:0.69999999"
         offset="0.83279997" /></linearGradient><linearGradient
       x1="829.4541"
       y1="41.736801"
       x2="829.4541"
       y2="262.32449"
       id="SVGID_8_"
       gradientUnits="userSpaceOnUse"
       gradientTransform="matrix(-1,0,0,-1,1023.1641,533.71)"><stop
         id="stop921"
         style="stop-color:#ffffff;stop-opacity:0"
         offset="0.3222" /><stop
         id="stop923"
         style="stop-color:#ffffff;stop-opacity:0.69999999"
         offset="0.83279997" /></linearGradient><clipPath
       id="SVGID_4_-1"><use
         id="use843-6"
         style="overflow:visible"
         x="0"
         y="0"
         width="744.09448"
         height="1052.3622"
         xlink:href="#SVGID_3_" /></clipPath><clipPath
       id="clipPath3800"><use
         id="use3802"
         style="overflow:visible"
         x="0"
         y="0"
         width="744.09448"
         height="1052.3622"
         xlink:href="#SVGID_3_" /></clipPath><clipPath
       id="clipPath3804"><use
         id="use3806"
         style="overflow:visible"
         x="0"
         y="0"
         width="744.09448"
         height="1052.3622"
         xlink:href="#SVGID_3_" /></clipPath><clipPath
       id="clipPath3808"><use
         id="use3810"
         style="overflow:visible"
         x="0"
         y="0"
         width="744.09448"
         height="1052.3622"
         xlink:href="#SVGID_3_" /></clipPath><clipPath
       id="SVGID_6_-3"><use
         id="use883-0"
         style="overflow:visible"
         x="0"
         y="0"
         width="744.09448"
         height="1052.3622"
         xlink:href="#SVGID_5_" /></clipPath><clipPath
       id="clipPath3814"><use
         id="use3816"
         style="overflow:visible"
         x="0"
         y="0"
         width="744.09448"
         height="1052.3622"
         xlink:href="#SVGID_5_" /></clipPath><clipPath
       id="clipPath3818"><use
         id="use3820"
         style="overflow:visible"
         x="0"
         y="0"
         width="744.09448"
         height="1052.3622"
         xlink:href="#SVGID_5_" /></clipPath><clipPath
       id="clipPath3822"><use
         id="use3824"
         style="overflow:visible"
         x="0"
         y="0"
         width="744.09448"
         height="1052.3622"
         xlink:href="#SVGID_5_" /></clipPath><linearGradient
       x1="193.7104"
       y1="362.8555"
       x2="193.7104"
       y2="583.44208"
       id="SVGID_7_-8"
       gradientUnits="userSpaceOnUse"><stop
         id="stop904-0"
         style="stop-color:#ffffff;stop-opacity:0"
         offset="0.3222" /><stop
         id="stop906-7"
         style="stop-color:#c8c8c9;stop-opacity:0.1331"
         offset="0.4192" /><stop
         id="stop908-2"
         style="stop-color:#989899;stop-opacity:0.26879999"
         offset="0.51819998" /><stop
         id="stop910-9"
         style="stop-color:#727273;stop-opacity:0.39770001"
         offset="0.61229998" /><stop
         id="stop912-0"
         style="stop-color:#565657;stop-opacity:0.51630002"
         offset="0.69880003" /><stop
         id="stop914-9"
         style="stop-color:#464647;stop-opacity:0.62080002"
         offset="0.77499998" /><stop
         id="stop916-0"
         style="stop-color:#404041;stop-opacity:0.69999999"
         offset="0.83279997" /></linearGradient><linearGradient
       x1="829.4541"
       y1="41.736801"
       x2="829.4541"
       y2="262.32449"
       id="SVGID_8_-1"
       gradientUnits="userSpaceOnUse"
       gradientTransform="matrix(-1,0,0,-1,1023.1641,533.71)"><stop
         id="stop921-8"
         style="stop-color:#ffffff;stop-opacity:0"
         offset="0.3222" /><stop
         id="stop923-3"
         style="stop-color:#ffffff;stop-opacity:0.69999999"
         offset="0.83279997" /></linearGradient><linearGradient
       x1="718.89838"
       y1="384"
       x2="1024"
       y2="384"
       id="SVGID_1_"
       gradientUnits="userSpaceOnUse"><stop
         id="stop200"
         style="stop-color:#004048;stop-opacity:0.60000002"
         offset="0" /><stop
         id="stop202"
         style="stop-color:#004048;stop-opacity:0.65859997"
         offset="0.1464" /><stop
         id="stop204"
         style="stop-color:#004048;stop-opacity:1"
         offset="1" /><a:midPointStop
         style="stop-color:#004048;stop-opacity:0.6"
         offset="0" /><a:midPointStop
         style="stop-color:#004048;stop-opacity:0.6"
         offset="0.1503" /><a:midPointStop
         style="stop-color:#004048"
         offset="1" /></linearGradient><linearGradient
       x1="718.89838"
       y1="384"
       x2="1024"
       y2="384"
       id="linearGradient4863"
       xlink:href="#SVGID_1_"
       gradientUnits="userSpaceOnUse" /></defs><g
     transform="translate(-72.006134,-287.37882)"
     id="layer1">

<g
   transform="matrix(1.2201258,0,0,1.2201258,-51.264396,-97.72705)"
   id="g827"
   style="display:inline"><path
     d="m 143.237,480.063 c 0,0 -31.55,0.899 -42.206,-19.052 0,0 10.415,-27.98 26.463,-36.412 l 26.965,3.189 -11.222,52.275 z"
     id="path829"
     style="fill:#4e4f51" /><path
     d="m 245.494,480.063 c 0,0 31.55,0.899 42.205,-19.052 0,0 -10.416,-27.98 -26.463,-36.412 l -26.965,3.189 11.223,52.275 z"
     id="path831"
     style="fill:#4e4f51" /><path
     d="m 270.609,475.41 c 0,0 -11.687,-38.504 -20.208,-41.167 -8.52,-2.662 -4.908,50.663 -4.908,50.663 l 25.116,-9.496 z"
     id="path833"
     style="fill:#3b3a3c" /><path
     d="m 117.361,475.41 c 0,0 11.687,-38.504 20.207,-41.167 8.521,-2.662 4.909,50.663 4.909,50.663 l -25.116,-9.496 z"
     id="path835"
     style="fill:#3b3a3c" /><g
     id="g837"><defs
       id="defs839"><path
         d="m 143.237,480.063 c 0,0 -20.949,7.183 -42.206,-19.052 0,0 10.415,-27.98 26.463,-36.412 l 26.965,3.189 -11.222,52.275 z"
         id="SVGID_3_" /></defs><clipPath
       id="clipPath4656"><use
         id="use4658"
         style="overflow:visible"
         x="0"
         y="0"
         width="744.09448"
         height="1052.3622"
         xlink:href="#SVGID_3_" /></clipPath><g
       clip-path="url(#SVGID_4_-1)"
       id="g845"><path
         d="m 107.436,442.552 c 0.748,0.423 1.289,1.165 1.356,1.984 0.471,5.751 2.821,10.54 6.985,14.234 9.2,8.158 24.253,8.671 24.403,8.676 1.323,0.036 2.506,1.062 2.642,2.288 0.136,1.228 -0.826,2.192 -2.148,2.154 -0.699,-0.019 -17.244,-0.59 -27.984,-10.115 -5.199,-4.613 -8.125,-10.497 -8.699,-17.489 -0.1,-1.227 0.894,-2.163 2.219,-2.093 0.437,0.023 0.857,0.154 1.226,0.361 z"
         id="path847"
         style="fill:#8d8f91" /></g><g
       clip-path="url(#SVGID_4_-1)"
       id="g849"><path
         d="m 117.988,429.253 c 0.757,0.406 1.313,1.136 1.398,1.954 0.593,5.739 3.044,10.477 7.286,14.082 9.371,7.96 24.431,8.153 24.582,8.156 1.324,0.007 2.528,1.007 2.69,2.231 0.161,1.223 -0.779,2.207 -2.102,2.198 -0.7,-0.003 -17.254,-0.223 -28.194,-9.518 -5.296,-4.501 -8.347,-10.321 -9.068,-17.301 -0.126,-1.223 0.846,-2.18 2.174,-2.139 0.438,0.015 0.861,0.138 1.234,0.337 z"
         id="path851"
         style="fill:#8d8f91" /></g><g
       clip-path="url(#SVGID_4_-1)"
       id="g853"><path
         d="m 109.123,440.865 c 0.748,0.422 1.289,1.165 1.356,1.984 0.471,5.75 2.82,10.538 6.985,14.232 9.2,8.16 24.252,8.672 24.403,8.678 1.323,0.036 2.506,1.061 2.642,2.287 0.137,1.228 -0.826,2.192 -2.148,2.155 -0.699,-0.021 -17.245,-0.591 -27.984,-10.115 -5.199,-4.613 -8.126,-10.498 -8.699,-17.489 -0.1,-1.228 0.894,-2.163 2.219,-2.094 0.437,0.023 0.857,0.154 1.226,0.362 z"
         id="path855"
         style="fill:#8d8f91" /></g><g
       clip-path="url(#SVGID_4_-1)"
       id="g857"><path
         d="m 119.675,427.566 c 0.757,0.405 1.313,1.136 1.398,1.954 0.593,5.738 3.044,10.476 7.287,14.081 9.372,7.961 24.432,8.154 24.583,8.155 1.324,0.009 2.527,1.008 2.689,2.232 0.162,1.224 -0.779,2.208 -2.102,2.199 -0.699,-0.004 -17.253,-0.224 -28.193,-9.519 -5.296,-4.501 -8.346,-10.321 -9.068,-17.301 -0.125,-1.223 0.847,-2.18 2.174,-2.138 0.436,0.016 0.859,0.137 1.232,0.337 z"
         id="path859"
         style="fill:#8d8f91" /></g></g><path
     d="m 157.658,411.393 c 7.352,9.218 6.601,22.041 -1.676,28.641 l 0,0 c -8.276,6.601 -20.945,4.479 -28.297,-4.739 l -1.809,-2.269 c -7.351,-9.218 -6.601,-22.042 1.676,-28.642 l 0,0 c 8.277,-6.601 20.946,-4.479 28.296,4.74 l 1.81,2.269 z"
     id="path861"
     style="fill:#929497" /><path
     d="m 229.603,411.393 c -7.352,9.218 -6.6,22.041 1.676,28.641 l 0,0 c 8.277,6.601 20.946,4.479 28.297,-4.739 l 1.81,-2.269 c 7.351,-9.218 6.6,-22.042 -1.676,-28.642 l 0,0 c -8.278,-6.601 -20.946,-4.479 -28.297,4.74 l -1.81,2.269 z"
     id="path863"
     style="fill:#929497" /><g
     id="g865"><path
       d="m 253.24,424.38 c -3.83,0 -6.946,-3.116 -6.946,-6.945 0,-3.831 3.116,-6.948 6.946,-6.948 3.83,0 6.946,3.117 6.946,6.948 0,3.829 -3.116,6.945 -6.946,6.945 z"
       id="path867"
       style="fill:#454547" /><path
       d="m 253.24,411.286 c 3.39,0 6.147,2.758 6.147,6.148 0,3.389 -2.758,6.146 -6.147,6.146 -3.389,0 -6.147,-2.757 -6.147,-6.146 -10e-4,-3.39 2.757,-6.148 6.147,-6.148 m 0,-1.598 c -4.278,0 -7.746,3.469 -7.746,7.747 0,4.277 3.467,7.744 7.746,7.744 4.277,0 7.746,-3.467 7.746,-7.744 -10e-4,-4.279 -3.469,-7.747 -7.746,-7.747 l 0,0 z"
       id="path869"
       style="fill:#bbbdbf" /></g><g
     id="g871"><path
       d="m 135.492,424.38 c -3.831,0 -6.947,-3.116 -6.947,-6.945 0,-3.831 3.116,-6.948 6.947,-6.948 3.83,0 6.946,3.117 6.946,6.948 0,3.829 -3.116,6.945 -6.946,6.945 z"
       id="path873"
       style="fill:#454547" /><path
       d="m 135.492,411.286 c 3.39,0 6.147,2.758 6.147,6.148 0,3.389 -2.758,6.146 -6.147,6.146 -3.39,0 -6.148,-2.757 -6.148,-6.146 0,-3.39 2.758,-6.148 6.148,-6.148 m 0,-1.598 c -4.277,0 -7.746,3.469 -7.746,7.747 0,4.277 3.469,7.744 7.746,7.744 4.278,0 7.746,-3.467 7.746,-7.744 -0.001,-4.279 -3.468,-7.747 -7.746,-7.747 l 0,0 z"
       id="path875"
       style="fill:#bbbdbf" /></g><g
     id="g877"><defs
       id="defs879"><path
         d="m 245.494,480.063 c 0,0 20.948,7.183 42.205,-19.052 0,0 -10.416,-27.98 -26.463,-36.412 l -26.965,3.189 11.223,52.275 z"
         id="SVGID_5_" /></defs><clipPath
       id="clipPath4679"><use
         id="use4681"
         style="overflow:visible"
         x="0"
         y="0"
         width="744.09448"
         height="1052.3622"
         xlink:href="#SVGID_5_" /></clipPath><g
       clip-path="url(#SVGID_6_-3)"
       id="g885"><path
         d="m 281.294,442.552 c -0.748,0.423 -1.288,1.165 -1.355,1.984 -0.472,5.751 -2.821,10.54 -6.986,14.234 -9.2,8.158 -24.252,8.671 -24.402,8.676 -1.324,0.036 -2.507,1.062 -2.642,2.288 -0.136,1.228 0.826,2.192 2.149,2.154 0.698,-0.019 17.244,-0.59 27.984,-10.115 5.199,-4.613 8.125,-10.497 8.699,-17.489 0.1,-1.227 -0.894,-2.163 -2.219,-2.093 -0.439,0.023 -0.858,0.154 -1.228,0.361 z"
         id="path887"
         style="fill:#8d8f91" /></g><g
       clip-path="url(#SVGID_6_-3)"
       id="g889"><path
         d="m 270.742,429.253 c -0.756,0.406 -1.313,1.136 -1.397,1.954 -0.593,5.739 -3.044,10.477 -7.287,14.082 -9.371,7.96 -24.431,8.153 -24.582,8.156 -1.323,0.007 -2.527,1.007 -2.69,2.231 -0.161,1.223 0.78,2.207 2.102,2.198 0.699,-0.003 17.254,-0.223 28.194,-9.518 5.296,-4.501 8.347,-10.321 9.068,-17.301 0.126,-1.223 -0.847,-2.18 -2.173,-2.139 -0.438,0.015 -0.861,0.138 -1.235,0.337 z"
         id="path891"
         style="fill:#8d8f91" /></g><g
       clip-path="url(#SVGID_6_-3)"
       id="g893"><path
         d="m 279.437,440.695 c -0.748,0.421 -1.288,1.165 -1.355,1.983 -0.472,5.751 -2.821,10.539 -6.985,14.233 -9.2,8.16 -24.252,8.672 -24.403,8.678 -1.324,0.036 -2.507,1.061 -2.643,2.287 -0.136,1.228 0.827,2.192 2.15,2.155 0.698,-0.021 17.243,-0.591 27.983,-10.115 5.199,-4.614 8.126,-10.498 8.699,-17.49 0.1,-1.227 -0.894,-2.163 -2.219,-2.093 -0.438,0.023 -0.857,0.154 -1.227,0.362 z"
         id="path895"
         style="fill:#8d8f91" /></g><g
       clip-path="url(#SVGID_6_-3)"
       id="g897"><path
         d="m 268.885,427.396 c -0.757,0.406 -1.313,1.137 -1.398,1.955 -0.593,5.738 -3.044,10.476 -7.286,14.081 -9.372,7.961 -24.432,8.154 -24.583,8.155 -1.324,0.009 -2.527,1.008 -2.689,2.232 -0.162,1.223 0.779,2.208 2.102,2.198 0.699,-0.003 17.254,-0.223 28.193,-9.518 5.296,-4.501 8.347,-10.321 9.068,-17.301 0.126,-1.223 -0.847,-2.18 -2.174,-2.139 -0.437,0.016 -0.86,0.137 -1.233,0.337 z"
         id="path899"
         style="fill:#8d8f91" /></g></g><path
     d="m 250.402,482.508 c 0,31.309 -25.382,56.691 -56.691,56.691 l 0,0 c -31.31,0 -56.692,-25.383 -56.692,-56.691 V 373.07 c 0,-31.31 25.382,-56.691 56.692,-56.691 l 0,0 c 31.309,0 56.691,25.381 56.691,56.691 v 109.438 z"
     id="path901"
     style="fill:#00b19b" /><linearGradient
     x1="193.7104"
     y1="362.8555"
     x2="193.7104"
     y2="583.44208"
     id="linearGradient4692"
     gradientUnits="userSpaceOnUse"><stop
       id="stop4694"
       style="stop-color:#ffffff;stop-opacity:0"
       offset="0.3222" /><stop
       id="stop4696"
       style="stop-color:#c8c8c9;stop-opacity:0.1331"
       offset="0.4192" /><stop
       id="stop4698"
       style="stop-color:#989899;stop-opacity:0.26879999"
       offset="0.51819998" /><stop
       id="stop4700"
       style="stop-color:#727273;stop-opacity:0.39770001"
       offset="0.61229998" /><stop
       id="stop4702"
       style="stop-color:#565657;stop-opacity:0.51630002"
       offset="0.69880003" /><stop
       id="stop4704"
       style="stop-color:#464647;stop-opacity:0.62080002"
       offset="0.77499998" /><stop
       id="stop4706"
       style="stop-color:#404041;stop-opacity:0.69999999"
       offset="0.83279997" /></linearGradient><path
     d="m 137.019,441.704 v 40.804 c 0,31.309 25.382,56.691 56.692,56.691 31.309,0 56.691,-25.383 56.691,-56.691 V 441.704 H 137.019 z"
     id="path918"
     style="fill:url(#SVGID_7_-8)" /><linearGradient
     x1="829.4541"
     y1="41.736801"
     x2="829.4541"
     y2="262.32449"
     id="linearGradient4709"
     gradientUnits="userSpaceOnUse"
     gradientTransform="matrix(-1,0,0,-1,1023.1641,533.71)"><stop
       id="stop4711"
       style="stop-color:#ffffff;stop-opacity:0"
       offset="0.3222" /><stop
       id="stop4713"
       style="stop-color:#ffffff;stop-opacity:0.69999999"
       offset="0.83279997" /></linearGradient><path
     d="m 250.402,413.123 v -40.805 c 0,-31.308 -25.382,-56.69 -56.691,-56.69 -31.31,0 -56.692,25.382 -56.692,56.69 v 40.805 h 113.383 z"
     id="path925"
     style="opacity:0.6;fill:url(#SVGID_8_-1)" /><path
     d="m 217.107,431.05 h -45.839 c -10.384,0 -18.832,8.447 -18.832,18.83 v 30.786 c 0,10.384 8.448,18.831 18.832,18.831 h 45.839 c 10.384,0 18.832,-8.447 18.832,-18.831 V 449.88 c 0,-10.383 -8.448,-18.83 -18.832,-18.83 z"
     id="path927"
     style="fill:#aaacaf" /><path
     d="m 250.402,449.345 v -2.719 c -14.729,3.188 -33.653,4.932 -53.717,4.932 -21.387,0 -41.479,-1.98 -56.576,-5.581 -1.064,-0.254 -2.091,-0.515 -3.09,-0.782 v 2.757 c 0.832,0.216 1.658,0.423 2.472,0.616 15.292,3.646 35.604,5.654 57.193,5.654 19.996,0 38.887,-1.726 53.718,-4.877 z"
     id="path929"
     style="fill:#adafb1" /><path
     d="m 250.402,450.37 v -2.719 c -14.729,3.188 -33.653,4.933 -53.717,4.933 -21.387,0 -41.479,-1.982 -56.576,-5.581 -1.064,-0.254 -2.091,-0.516 -3.09,-0.783 v 2.757 c 0.832,0.217 1.658,0.423 2.472,0.616 15.292,3.646 35.604,5.654 57.193,5.654 19.996,0 38.887,-1.726 53.718,-4.877 z"
     id="path931"
     style="fill:#adafb1" /><path
     d="m 137.019,380.94 v 2.72 c 14.729,-3.188 33.653,-4.932 53.718,-4.932 21.386,0 41.479,1.982 56.575,5.581 1.063,0.254 2.091,0.515 3.089,0.783 v -2.756 c -0.832,-0.217 -1.658,-0.423 -2.472,-0.617 -15.292,-3.646 -35.604,-5.654 -57.192,-5.654 -19.995,-10e-4 -38.886,1.725 -53.718,4.875 z"
     id="path933"
     style="fill:#adafb1" /><path
     d="m 137.019,382.217 v 2.72 c 14.729,-3.188 33.653,-4.933 53.718,-4.933 21.386,0 41.479,1.983 56.575,5.582 1.063,0.253 2.091,0.515 3.089,0.781 v -2.756 c -0.832,-0.217 -1.658,-0.423 -2.472,-0.617 -15.292,-3.645 -35.604,-5.653 -57.192,-5.653 -19.995,10e-4 -38.886,1.726 -53.718,4.876 z"
     id="path935"
     style="fill:#adafb1" /><g
     id="g937"><path
       d="M 151.998,398.469 V 373.19 c 0,-9.502 7.73,-17.232 17.233,-17.232 h 49.938 c 9.502,0 17.233,7.73 17.233,17.232 v 25.279 h -84.404 z"
       id="path939"
       style="fill:#231f20" /><path
       d="m 219.169,358.088 c 8.341,0 15.102,6.761 15.102,15.102 v 8.045 15.103 h -15.102 -49.938 -15.102 v -15.103 -8.045 c 0,-8.34 6.762,-15.102 15.102,-15.102 h 49.938 m 0,-4.262 h -49.938 c -10.677,0 -19.364,8.687 -19.364,19.364 v 8.045 15.103 4.262 h 4.262 15.102 49.938 15.102 4.262 v -4.262 -15.103 -8.045 c 0,-10.677 -8.687,-19.364 -19.364,-19.364 l 0,0 z"
       id="path941"
       style="fill:#d4d6d7" /></g><circle
     cx="215.362"
     cy="377.21201"
     r="13.369"
     id="circle943"
     style="opacity:0.4;fill:#7bc043;stroke:#231f20;stroke-width:0.53280002;stroke-miterlimit:10" /><circle
     cx="171.649"
     cy="377.21201"
     r="13.369"
     id="circle945"
     style="opacity:0.4;fill:#7bc043;stroke:#231f20;stroke-width:0.53280002;stroke-miterlimit:10" /><circle
     cx="171.649"
     cy="377.21201"
     r="9.1070004"
     id="circle947"
     style="fill:#ffffff" /><circle
     cx="215.362"
     cy="377.21201"
     r="9.1070004"
     id="circle949"
     style="fill:#ffffff" /><rect
     width="88.971001"
     height="3.3329999"
     x="149.537"
     y="400.54501"
     id="rect951"
     style="fill:#96999b" /><g
     id="g953"><path
       d="m 171.269,493.37 c -9.355,0 -16.967,-7.61 -16.967,-16.966 v -30.786 c 0,-9.355 7.611,-16.967 16.967,-16.967 h 45.839 c 9.356,0 16.967,7.611 16.967,16.967 v 30.786 c 0,9.355 -7.611,16.966 -16.967,16.966 h -45.839 z"
       id="path955"
       style="fill:#dfe0e1" /><path
       d="m 217.107,430.516 c 8.341,0 15.103,6.762 15.103,15.103 v 30.786 c 0,8.339 -6.762,15.102 -15.103,15.102 h -45.839 c -8.341,0 -15.102,-6.763 -15.102,-15.102 v -30.786 c 0,-8.341 6.761,-15.103 15.102,-15.103 h 45.839 m 0,-3.73 h -45.839 c -10.384,0 -18.832,8.448 -18.832,18.832 v 30.786 c 0,10.384 8.448,18.831 18.832,18.831 h 45.839 c 10.384,0 18.832,-8.447 18.832,-18.831 v -30.786 c 0,-10.384 -8.448,-18.832 -18.832,-18.832 l 0,0 z"
       id="path957"
       style="fill:#aaacaf" /></g><path
     d="m 226.898,474.253 c 0,7.175 -5.817,12.992 -12.993,12.992 H 174.47 c -7.175,0 -12.992,-5.817 -12.992,-12.992 v -26.484 c 0,-7.176 5.817,-12.992 12.992,-12.992 h 39.435 c 7.176,0 12.993,5.816 12.993,12.992 v 26.484 z"
     id="path959"
     style="fill:#182313" /><ellipse
     cx="257.866"
     cy="409.46399"
     rx="3.928"
     ry="3.4560001"
     id="ellipse961"
     style="fill:#e3e4e5" /><ellipse
     cx="130.299"
     cy="409.46399"
     rx="3.927"
     ry="3.4560001"
     id="ellipse963"
     style="fill:#e3e4e5" /><path
     d="m 263.547,429.801 c -0.622,1.11 -1.338,2.191 -2.162,3.225 l -0.129,0.162 c 3.582,5.827 15.405,25.427 19.294,36.429 1.036,-0.85 2.025,-1.768 2.952,-2.76 -5.04,-13.009 -18.193,-34.234 -19.955,-37.056 z"
     id="path965"
     style="fill:#e3e4e5" /><path
     d="m 106.925,468.527 c 4.242,-11.16 15.427,-29.701 18.894,-35.34 l -0.128,-0.162 c -0.825,-1.033 -1.541,-2.114 -2.163,-3.225 -1.705,2.729 -14.069,22.683 -19.438,35.758 0.882,1.067 1.832,2.054 2.835,2.969 z"
     id="path967"
     style="fill:#e3e4e5" /><ellipse
     cx="227.431"
     cy="337.73199"
     rx="9.4540005"
     ry="5.5050001"
     transform="matrix(0.7725,0.6351,-0.6351,0.7725,266.2359,-67.5853)"
     id="ellipse969"
     style="fill:#e3e4e5" /><path
     d="m 241.882,485.438 c 0,0.998 0.809,1.807 1.805,1.807 l 0,0 c 0.998,0 1.807,-0.809 1.807,-1.807 V 363.063 c 0,-0.998 -0.809,-1.806 -1.807,-1.806 l 0,0 c -0.997,0 -1.805,0.809 -1.805,1.806 v 122.375 z"
     id="path971"
     style="fill:#e3e4e5" /><g
     id="g973"
     style="opacity:0.2"><path
       d="m 193.401,534.138 c -21.03,0 -33.594,-10.5 -40.431,-19.309 -7.359,-9.482 -9.747,-18.878 -9.845,-19.272 -0.318,-1.285 0.465,-2.586 1.75,-2.905 1.286,-0.316 2.585,0.466 2.904,1.751 0.021,0.085 2.295,8.938 9.088,17.627 8.981,11.487 21.273,17.313 36.534,17.313 1.324,0 2.396,1.072 2.396,2.396 0,1.324 -1.072,2.399 -2.396,2.399 z"
       id="path975"
       style="fill:#5a5b5d" /></g><g
     id="g977"
     style="opacity:0.7"><path
       d="m 220.211,454.558 c -1.471,0 -2.664,-1.193 -2.664,-2.664 0,-7.107 -4.052,-7.664 -4.864,-7.704 -1.471,-0.021 -2.625,-1.229 -2.604,-2.701 0.02,-1.456 1.23,-2.625 2.684,-2.625 0.013,0 0.026,0 0.039,0.001 3.484,0.049 10.074,2.837 10.074,13.029 -0.001,1.47 -1.193,2.664 -2.665,2.664 z"
       id="path979"
       style="fill:#ffffff" /></g><path
     d="m 213.967,477.938 h -38.319 c -0.469,-0.063 -0.894,-0.142 -1.286,-0.233 -1.483,-0.521 -3.722,-2.185 -3.722,-7.469 v -23.145 c 0,-1.471 -1.193,-2.664 -2.664,-2.664 -1.471,0 -2.664,1.193 -2.664,2.664 l 10e-4,23.14 c 0,0.002 -10e-4,0.004 -10e-4,0.005 0,0.008 10e-4,0.015 10e-4,0.021 v 5.11 c 0.005,0.274 0.218,5.718 7.709,7.501 0.808,0.247 1.575,0.367 2.243,0.393 0.936,0.108 1.956,0.172 3.076,0.172 0.317,0 0.617,-0.065 0.899,-0.167 h 34.726 c 1.472,0 2.664,-1.192 2.664,-2.664 0.001,-1.472 -1.192,-2.664 -2.663,-2.664 z"
     id="path981"
     style="fill:#929497" /><rect
     width="16.150999"
     height="2.3889999"
     x="185.841"
     y="387.91699"
     id="rect983"
     style="opacity:0.4;fill:#7bc043;stroke:#231f20;stroke-width:0.53280002;stroke-miterlimit:10" /><g
     id="g985"><path
       d="m 178.18,448.485 -1.538,3.316 c -0.039,0.082 -0.074,0.136 -0.105,0.161 -0.041,0.032 -0.089,0.049 -0.147,0.049 -0.065,0 -0.123,-0.023 -0.17,-0.07 -0.048,-0.047 -0.071,-0.1 -0.071,-0.159 0,-0.042 0.019,-0.104 0.056,-0.186 l 1.543,-3.312 c 0.039,-0.084 0.073,-0.138 0.103,-0.162 0.042,-0.033 0.091,-0.05 0.147,-0.05 0.065,0 0.122,0.023 0.169,0.069 0.046,0.046 0.07,0.1 0.07,0.159 -0.001,0.043 -0.02,0.104 -0.057,0.185 z"
       id="path987"
       style="fill:#68bd55" /><path
       d="m 181.057,448.485 -1.538,3.316 c -0.039,0.082 -0.074,0.136 -0.105,0.161 -0.041,0.032 -0.09,0.049 -0.147,0.049 -0.066,0 -0.123,-0.023 -0.17,-0.07 -0.048,-0.047 -0.071,-0.1 -0.071,-0.159 0,-0.042 0.019,-0.104 0.056,-0.186 l 1.543,-3.312 c 0.039,-0.084 0.074,-0.138 0.103,-0.162 0.042,-0.033 0.091,-0.05 0.147,-0.05 0.065,0 0.122,0.023 0.168,0.069 0.046,0.046 0.07,0.1 0.07,0.159 0,0.043 -0.019,0.104 -0.056,0.185 z"
       id="path989"
       style="fill:#68bd55" /><path
       d="m 185.723,449.333 v 0.3 c 0.202,-0.145 0.36,-0.242 0.477,-0.29 0.116,-0.048 0.225,-0.073 0.326,-0.073 0.156,0 0.308,0.059 0.455,0.174 0.1,0.078 0.15,0.158 0.15,0.238 0,0.069 -0.024,0.128 -0.072,0.176 -0.048,0.047 -0.105,0.07 -0.172,0.07 -0.059,0 -0.122,-0.03 -0.187,-0.089 -0.065,-0.06 -0.124,-0.089 -0.176,-0.089 -0.067,0 -0.167,0.042 -0.301,0.127 -0.134,0.083 -0.3,0.21 -0.5,0.379 v 0.724 h 0.684 c 0.116,0 0.198,0.021 0.247,0.066 0.049,0.045 0.074,0.103 0.074,0.175 0,0.069 -0.025,0.127 -0.074,0.172 -0.049,0.045 -0.131,0.066 -0.247,0.066 h -1.449 c -0.115,0 -0.198,-0.021 -0.247,-0.066 -0.049,-0.045 -0.074,-0.103 -0.074,-0.175 0,-0.07 0.025,-0.127 0.074,-0.172 0.049,-0.045 0.132,-0.066 0.247,-0.066 h 0.286 v -1.167 h -0.173 c -0.115,0 -0.198,-0.021 -0.247,-0.065 -0.049,-0.045 -0.074,-0.103 -0.074,-0.175 0,-0.069 0.025,-0.128 0.074,-0.173 0.049,-0.044 0.132,-0.066 0.247,-0.066 h 0.652 z"
       id="path991"
       style="fill:#68bd55" /><path
       d="m 189.905,450.64 h -1.969 c 0.05,0.125 0.138,0.226 0.265,0.303 0.127,0.075 0.3,0.114 0.517,0.114 0.178,0 0.414,-0.039 0.709,-0.114 0.122,-0.031 0.206,-0.048 0.253,-0.048 0.064,0 0.118,0.022 0.162,0.068 0.043,0.045 0.065,0.103 0.065,0.171 0,0.063 -0.023,0.115 -0.07,0.159 -0.062,0.059 -0.215,0.112 -0.457,0.165 -0.242,0.052 -0.474,0.078 -0.697,0.078 -0.384,0 -0.691,-0.108 -0.922,-0.325 -0.23,-0.217 -0.345,-0.484 -0.345,-0.801 0,-0.337 0.125,-0.611 0.374,-0.822 0.249,-0.212 0.536,-0.318 0.86,-0.318 0.195,0 0.374,0.035 0.537,0.104 0.164,0.068 0.285,0.143 0.364,0.223 0.112,0.115 0.206,0.258 0.279,0.428 0.05,0.12 0.075,0.257 0.075,0.413 v 0.202 z m -0.532,-0.481 c -0.073,-0.137 -0.169,-0.24 -0.288,-0.308 -0.118,-0.067 -0.259,-0.102 -0.424,-0.102 -0.162,0 -0.303,0.034 -0.421,0.102 -0.118,0.068 -0.216,0.171 -0.29,0.308 h 1.423 z"
       id="path993"
       style="fill:#68bd55" /><path
       d="m 190.836,449.333 v 0.136 c 0.078,-0.076 0.149,-0.129 0.211,-0.157 0.064,-0.029 0.136,-0.043 0.219,-0.043 0.07,0 0.14,0.017 0.208,0.051 0.068,0.034 0.135,0.086 0.201,0.155 0.082,-0.069 0.166,-0.121 0.251,-0.154 0.085,-0.033 0.172,-0.051 0.262,-0.051 0.178,0 0.321,0.048 0.433,0.144 0.147,0.124 0.22,0.288 0.22,0.492 v 1.074 c 0.099,0 0.174,0.022 0.222,0.067 0.048,0.045 0.073,0.104 0.073,0.174 0,0.069 -0.024,0.127 -0.073,0.172 -0.048,0.045 -0.13,0.066 -0.246,0.066 h -0.457 v -1.515 c 0,-0.073 -0.014,-0.124 -0.04,-0.152 -0.027,-0.028 -0.067,-0.042 -0.122,-0.042 -0.053,0 -0.102,0.014 -0.148,0.042 -0.057,0.039 -0.128,0.113 -0.21,0.221 v 0.967 c 0.1,0 0.174,0.022 0.223,0.067 0.048,0.045 0.072,0.104 0.072,0.174 0,0.069 -0.024,0.127 -0.072,0.172 -0.049,0.045 -0.13,0.066 -0.247,0.066 h -0.456 v -1.515 c 0,-0.071 -0.014,-0.122 -0.041,-0.15 -0.027,-0.029 -0.068,-0.044 -0.123,-0.044 -0.056,0 -0.111,0.019 -0.166,0.052 -0.055,0.036 -0.121,0.105 -0.197,0.211 v 0.967 c 0.1,0 0.174,0.022 0.224,0.067 0.049,0.045 0.073,0.104 0.073,0.174 0,0.069 -0.024,0.127 -0.073,0.172 -0.049,0.045 -0.132,0.066 -0.247,0.066 h -0.433 c -0.116,0 -0.198,-0.021 -0.247,-0.066 -0.05,-0.045 -0.074,-0.103 -0.074,-0.175 0,-0.07 0.024,-0.127 0.072,-0.172 0.049,-0.045 0.124,-0.066 0.225,-0.066 v -1.167 c -0.101,0 -0.176,-0.022 -0.225,-0.067 -0.048,-0.046 -0.072,-0.104 -0.072,-0.173 0,-0.069 0.024,-0.128 0.074,-0.173 0.048,-0.044 0.131,-0.066 0.247,-0.066 h 0.459 z"
       id="path995"
       style="fill:#68bd55" /><path
       d="m 195.701,450.437 c 0,0.185 -0.051,0.362 -0.153,0.534 -0.103,0.173 -0.255,0.311 -0.457,0.413 -0.202,0.101 -0.414,0.152 -0.634,0.152 -0.219,0 -0.428,-0.05 -0.627,-0.151 -0.2,-0.101 -0.352,-0.237 -0.457,-0.41 -0.104,-0.173 -0.156,-0.354 -0.156,-0.544 0,-0.191 0.053,-0.38 0.159,-0.565 0.106,-0.185 0.258,-0.329 0.458,-0.437 0.198,-0.105 0.407,-0.159 0.623,-0.159 0.219,0 0.429,0.056 0.631,0.164 0.202,0.107 0.354,0.253 0.457,0.437 0.104,0.184 0.156,0.371 0.156,0.566 z m -0.479,10e-4 c 0,-0.153 -0.056,-0.296 -0.167,-0.425 -0.152,-0.175 -0.351,-0.263 -0.597,-0.263 -0.216,0 -0.397,0.07 -0.543,0.209 -0.145,0.139 -0.218,0.3 -0.218,0.481 0,0.149 0.073,0.29 0.22,0.42 0.146,0.131 0.328,0.196 0.541,0.196 0.215,0 0.396,-0.065 0.543,-0.196 0.147,-0.13 0.221,-0.27 0.221,-0.422 z"
       id="path997"
       style="fill:#68bd55" /><path
       d="m 197.213,449.813 v 0.963 c 0,0.104 0.021,0.171 0.064,0.204 0.065,0.051 0.182,0.077 0.351,0.077 0.246,0 0.472,-0.053 0.68,-0.157 0.079,-0.04 0.141,-0.061 0.187,-0.061 0.063,0 0.117,0.023 0.162,0.069 0.047,0.047 0.07,0.104 0.07,0.172 0,0.063 -0.025,0.116 -0.075,0.162 -0.077,0.072 -0.228,0.14 -0.454,0.202 -0.225,0.062 -0.416,0.092 -0.57,0.092 -0.298,0 -0.521,-0.063 -0.67,-0.193 -0.149,-0.129 -0.224,-0.286 -0.224,-0.475 v -1.056 h -0.174 c -0.115,0 -0.198,-0.021 -0.247,-0.065 -0.049,-0.045 -0.074,-0.103 -0.074,-0.175 0,-0.069 0.024,-0.128 0.074,-0.173 0.049,-0.044 0.131,-0.066 0.247,-0.066 h 0.174 V 448.9 c 0,-0.115 0.021,-0.198 0.066,-0.247 0.044,-0.049 0.103,-0.074 0.175,-0.074 0.07,0 0.127,0.025 0.171,0.074 0.045,0.049 0.066,0.132 0.066,0.247 v 0.433 h 0.888 c 0.116,0 0.198,0.022 0.247,0.066 0.05,0.045 0.074,0.104 0.074,0.176 0,0.069 -0.024,0.127 -0.074,0.172 -0.049,0.044 -0.131,0.065 -0.247,0.065 h -0.887 z"
       id="path999"
       style="fill:#68bd55" /><path
       d="m 201.413,450.64 h -1.969 c 0.05,0.125 0.139,0.226 0.266,0.303 0.127,0.075 0.299,0.114 0.516,0.114 0.178,0 0.414,-0.039 0.709,-0.114 0.122,-0.031 0.206,-0.048 0.252,-0.048 0.064,0 0.119,0.022 0.162,0.068 0.044,0.045 0.066,0.103 0.066,0.171 0,0.063 -0.024,0.115 -0.071,0.159 -0.063,0.059 -0.214,0.112 -0.457,0.165 -0.241,0.052 -0.475,0.078 -0.697,0.078 -0.384,0 -0.691,-0.108 -0.921,-0.325 -0.231,-0.217 -0.346,-0.484 -0.346,-0.801 0,-0.337 0.124,-0.611 0.374,-0.822 0.249,-0.212 0.535,-0.318 0.86,-0.318 0.195,0 0.375,0.035 0.538,0.104 0.163,0.068 0.284,0.143 0.364,0.223 0.112,0.115 0.205,0.258 0.277,0.428 0.05,0.12 0.075,0.257 0.075,0.413 v 0.202 z m -0.531,-0.481 c -0.074,-0.137 -0.17,-0.24 -0.289,-0.308 -0.118,-0.067 -0.26,-0.102 -0.423,-0.102 -0.163,0 -0.303,0.034 -0.421,0.102 -0.118,0.067 -0.215,0.171 -0.29,0.308 h 1.423 z"
       id="path1001"
       style="fill:#68bd55" /><path
       d="m 203.452,451.218 c 0,0.092 -0.032,0.166 -0.096,0.228 -0.064,0.061 -0.153,0.091 -0.265,0.091 -0.113,0 -0.2,-0.03 -0.264,-0.091 -0.063,-0.062 -0.096,-0.136 -0.096,-0.228 0,-0.09 0.032,-0.166 0.096,-0.228 0.064,-0.061 0.151,-0.091 0.264,-0.091 0.112,0 0.201,0.03 0.265,0.091 0.064,0.062 0.096,0.138 0.096,0.228 z"
       id="path1003"
       style="fill:#68bd55" /><path
       d="m 177.709,455.649 c -0.078,-0.049 -0.16,-0.085 -0.246,-0.109 -0.086,-0.024 -0.176,-0.036 -0.27,-0.036 -0.186,0 -0.333,0.03 -0.442,0.091 -0.048,0.027 -0.073,0.056 -0.073,0.087 0,0.036 0.033,0.07 0.099,0.105 0.05,0.025 0.161,0.049 0.335,0.072 0.318,0.044 0.54,0.088 0.665,0.132 0.164,0.058 0.29,0.144 0.379,0.257 0.089,0.114 0.133,0.233 0.133,0.36 0,0.172 -0.076,0.315 -0.227,0.431 -0.217,0.167 -0.499,0.25 -0.845,0.25 -0.139,0 -0.268,-0.012 -0.385,-0.035 -0.118,-0.024 -0.226,-0.061 -0.324,-0.106 -0.023,0.02 -0.048,0.035 -0.074,0.046 -0.027,0.012 -0.054,0.018 -0.083,0.018 -0.075,0 -0.135,-0.025 -0.179,-0.074 -0.045,-0.05 -0.067,-0.131 -0.067,-0.247 v -0.162 c 0,-0.114 0.022,-0.198 0.067,-0.246 0.044,-0.049 0.102,-0.075 0.174,-0.075 0.058,0 0.106,0.017 0.146,0.049 0.04,0.032 0.069,0.088 0.091,0.165 0.073,0.063 0.161,0.11 0.265,0.142 0.103,0.032 0.221,0.048 0.356,0.048 0.22,0 0.391,-0.034 0.512,-0.103 0.058,-0.034 0.087,-0.07 0.087,-0.108 0,-0.062 -0.042,-0.112 -0.124,-0.154 -0.083,-0.04 -0.254,-0.074 -0.513,-0.103 -0.385,-0.041 -0.643,-0.119 -0.772,-0.234 -0.13,-0.114 -0.194,-0.254 -0.194,-0.421 0,-0.172 0.072,-0.314 0.217,-0.429 0.197,-0.155 0.455,-0.234 0.773,-0.234 0.11,0 0.217,0.012 0.319,0.032 0.102,0.021 0.2,0.054 0.294,0.097 0.029,-0.021 0.057,-0.037 0.083,-0.049 0.025,-0.011 0.049,-0.017 0.071,-0.017 0.065,0 0.12,0.024 0.164,0.074 0.044,0.049 0.066,0.132 0.066,0.246 v 0.118 c 0,0.104 -0.013,0.175 -0.038,0.213 -0.05,0.071 -0.118,0.107 -0.204,0.107 -0.058,0 -0.108,-0.019 -0.152,-0.054 -0.044,-0.035 -0.071,-0.085 -0.084,-0.144 z"
       id="path1005"
       style="fill:#68bd55" /><path
       d="m 179.8,457.196 -0.832,-1.63 c -0.078,-0.01 -0.137,-0.035 -0.178,-0.079 -0.041,-0.043 -0.061,-0.097 -0.061,-0.159 0,-0.071 0.025,-0.129 0.074,-0.175 0.049,-0.044 0.131,-0.066 0.247,-0.066 h 0.438 c 0.115,0 0.197,0.022 0.247,0.066 0.049,0.046 0.074,0.104 0.074,0.175 0,0.069 -0.024,0.128 -0.074,0.172 -0.049,0.045 -0.126,0.066 -0.233,0.066 l 0.566,1.104 0.562,-1.104 c -0.103,0 -0.179,-0.021 -0.228,-0.066 -0.05,-0.044 -0.074,-0.104 -0.074,-0.174 0,-0.071 0.024,-0.127 0.074,-0.173 0.049,-0.044 0.131,-0.066 0.247,-0.066 h 0.452 c 0.114,0 0.196,0.022 0.245,0.066 0.049,0.046 0.074,0.104 0.074,0.175 0,0.063 -0.021,0.118 -0.063,0.163 -0.042,0.044 -0.105,0.069 -0.188,0.075 l -1.101,2.169 c 0.121,0 0.199,0.011 0.236,0.035 0.075,0.049 0.113,0.117 0.113,0.205 0,0.07 -0.024,0.128 -0.074,0.173 -0.049,0.044 -0.131,0.066 -0.247,0.066 h -1.046 c -0.116,0 -0.198,-0.022 -0.247,-0.066 -0.049,-0.045 -0.074,-0.103 -0.074,-0.173 0,-0.071 0.025,-0.13 0.074,-0.174 0.049,-0.045 0.131,-0.066 0.247,-0.066 h 0.478 l 0.272,-0.539 z"
       id="path1007"
       style="fill:#68bd55" /><path
       d="m 183.464,455.649 c -0.079,-0.049 -0.16,-0.085 -0.246,-0.109 -0.086,-0.024 -0.176,-0.036 -0.27,-0.036 -0.186,0 -0.333,0.03 -0.443,0.091 -0.048,0.027 -0.072,0.056 -0.072,0.087 0,0.036 0.033,0.07 0.098,0.105 0.05,0.025 0.162,0.049 0.335,0.072 0.318,0.044 0.54,0.088 0.665,0.132 0.164,0.058 0.291,0.144 0.379,0.257 0.089,0.114 0.133,0.233 0.133,0.36 0,0.172 -0.075,0.315 -0.227,0.431 -0.217,0.167 -0.499,0.25 -0.845,0.25 -0.14,0 -0.268,-0.012 -0.385,-0.035 -0.119,-0.024 -0.226,-0.061 -0.324,-0.106 -0.024,0.02 -0.049,0.035 -0.075,0.046 -0.027,0.012 -0.054,0.018 -0.082,0.018 -0.075,0 -0.135,-0.025 -0.179,-0.074 -0.044,-0.05 -0.067,-0.131 -0.067,-0.247 v -0.162 c 0,-0.114 0.022,-0.198 0.067,-0.246 0.044,-0.049 0.103,-0.075 0.174,-0.075 0.058,0 0.106,0.017 0.146,0.049 0.039,0.032 0.069,0.088 0.091,0.165 0.073,0.063 0.161,0.11 0.264,0.142 0.103,0.032 0.222,0.048 0.356,0.048 0.22,0 0.391,-0.034 0.513,-0.103 0.058,-0.034 0.086,-0.07 0.086,-0.108 0,-0.062 -0.041,-0.112 -0.124,-0.154 -0.083,-0.04 -0.254,-0.074 -0.513,-0.103 -0.386,-0.041 -0.644,-0.119 -0.773,-0.234 -0.129,-0.114 -0.194,-0.254 -0.194,-0.421 0,-0.172 0.073,-0.314 0.218,-0.429 0.197,-0.155 0.454,-0.234 0.772,-0.234 0.111,0 0.217,0.012 0.319,0.032 0.103,0.021 0.201,0.054 0.294,0.097 0.03,-0.021 0.058,-0.037 0.083,-0.049 0.025,-0.011 0.05,-0.017 0.071,-0.017 0.066,0 0.121,0.024 0.164,0.074 0.043,0.049 0.065,0.132 0.065,0.246 v 0.118 c 0,0.104 -0.012,0.175 -0.037,0.213 -0.05,0.071 -0.119,0.107 -0.204,0.107 -0.058,0 -0.108,-0.019 -0.152,-0.054 -0.041,-0.036 -0.068,-0.085 -0.081,-0.144 z"
       id="path1009"
       style="fill:#68bd55" /><path
       d="m 185.704,455.566 v 0.963 c 0,0.103 0.021,0.171 0.063,0.204 0.065,0.05 0.183,0.076 0.351,0.076 0.245,0 0.472,-0.052 0.679,-0.157 0.08,-0.039 0.143,-0.061 0.188,-0.061 0.062,0 0.116,0.023 0.163,0.07 0.047,0.047 0.069,0.104 0.069,0.172 0,0.062 -0.025,0.116 -0.075,0.161 -0.076,0.073 -0.228,0.141 -0.453,0.203 -0.225,0.062 -0.416,0.091 -0.57,0.091 -0.298,0 -0.522,-0.063 -0.671,-0.192 -0.149,-0.128 -0.223,-0.287 -0.223,-0.474 v -1.057 h -0.174 c -0.115,0 -0.198,-0.021 -0.247,-0.066 -0.049,-0.044 -0.074,-0.104 -0.074,-0.174 0,-0.071 0.024,-0.127 0.074,-0.173 0.049,-0.044 0.131,-0.066 0.247,-0.066 h 0.174 v -0.434 c 0,-0.115 0.022,-0.197 0.067,-0.246 0.044,-0.05 0.102,-0.074 0.174,-0.074 0.07,0 0.127,0.024 0.172,0.074 0.044,0.049 0.066,0.131 0.066,0.246 v 0.434 h 0.888 c 0.115,0 0.198,0.022 0.247,0.066 0.05,0.046 0.074,0.104 0.074,0.175 0,0.069 -0.024,0.128 -0.074,0.172 -0.049,0.045 -0.131,0.066 -0.247,0.066 h -0.888 z"
       id="path1011"
       style="fill:#68bd55" /><path
       d="m 189.905,456.394 h -1.969 c 0.05,0.124 0.138,0.226 0.265,0.302 0.127,0.077 0.3,0.114 0.517,0.114 0.178,0 0.414,-0.037 0.709,-0.114 0.122,-0.03 0.206,-0.047 0.253,-0.047 0.064,0 0.118,0.023 0.162,0.067 0.043,0.046 0.065,0.104 0.065,0.171 0,0.063 -0.023,0.116 -0.07,0.16 -0.062,0.058 -0.215,0.112 -0.457,0.165 -0.242,0.052 -0.474,0.077 -0.697,0.077 -0.384,0 -0.691,-0.107 -0.922,-0.324 -0.23,-0.217 -0.345,-0.484 -0.345,-0.801 0,-0.337 0.125,-0.611 0.374,-0.823 0.249,-0.211 0.536,-0.317 0.86,-0.317 0.195,0 0.374,0.035 0.537,0.103 0.164,0.069 0.285,0.143 0.364,0.223 0.112,0.116 0.206,0.26 0.279,0.43 0.05,0.117 0.075,0.256 0.075,0.411 v 0.203 z m -0.532,-0.481 c -0.073,-0.137 -0.169,-0.24 -0.288,-0.308 -0.118,-0.067 -0.259,-0.102 -0.424,-0.102 -0.162,0 -0.303,0.034 -0.421,0.102 -0.118,0.068 -0.216,0.171 -0.29,0.308 h 1.423 z"
       id="path1013"
       style="fill:#68bd55" /><path
       d="m 190.836,455.087 v 0.136 c 0.078,-0.076 0.149,-0.129 0.211,-0.158 0.064,-0.029 0.136,-0.043 0.219,-0.043 0.07,0 0.14,0.018 0.208,0.051 0.069,0.035 0.135,0.086 0.201,0.154 0.082,-0.068 0.166,-0.118 0.251,-0.152 0.085,-0.033 0.172,-0.051 0.262,-0.051 0.178,0 0.321,0.048 0.433,0.143 0.147,0.125 0.22,0.289 0.22,0.492 v 1.075 c 0.099,0 0.174,0.021 0.222,0.067 0.048,0.045 0.073,0.104 0.073,0.173 0,0.07 -0.024,0.129 -0.073,0.172 -0.048,0.045 -0.13,0.067 -0.246,0.067 h -0.457 v -1.516 c 0,-0.072 -0.014,-0.123 -0.04,-0.151 -0.027,-0.027 -0.067,-0.042 -0.122,-0.042 -0.053,0 -0.102,0.015 -0.148,0.042 -0.057,0.039 -0.128,0.112 -0.21,0.22 v 0.968 c 0.1,0 0.174,0.021 0.223,0.067 0.048,0.045 0.072,0.104 0.072,0.173 0,0.07 -0.024,0.129 -0.072,0.172 -0.049,0.045 -0.13,0.067 -0.247,0.067 h -0.456 v -1.516 c 0,-0.071 -0.014,-0.121 -0.041,-0.15 -0.027,-0.028 -0.068,-0.043 -0.123,-0.043 -0.056,0 -0.111,0.018 -0.166,0.052 -0.055,0.036 -0.121,0.106 -0.197,0.21 v 0.968 c 0.1,0 0.174,0.021 0.224,0.067 0.049,0.045 0.073,0.104 0.073,0.173 0,0.07 -0.024,0.129 -0.073,0.172 -0.049,0.045 -0.132,0.067 -0.247,0.067 h -0.433 c -0.116,0 -0.198,-0.022 -0.247,-0.067 -0.05,-0.043 -0.074,-0.102 -0.074,-0.174 0,-0.07 0.024,-0.128 0.072,-0.172 0.049,-0.045 0.124,-0.066 0.225,-0.066 v -1.167 c -0.101,0 -0.176,-0.021 -0.225,-0.067 -0.048,-0.045 -0.072,-0.103 -0.072,-0.173 0,-0.071 0.024,-0.127 0.074,-0.173 0.048,-0.044 0.131,-0.066 0.247,-0.066 h 0.459 z"
       id="path1015"
       style="fill:#68bd55" /></g></g></g></svg>