<?xml version="1.0" encoding="utf-8"?>
<!-- Generator: Adobe Illustrator 16.0.0, SVG Export Plug-In . SVG Version: 6.00 Build 0)  -->
<!DOCTYPE svg PUBLIC "-//W3C//DTD SVG 1.1//EN" "http://www.w3.org/Graphics/SVG/1.1/DTD/svg11.dtd">
<svg version="1.1" id="Layer_1" xmlns="http://www.w3.org/2000/svg" xmlns:xlink="http://www.w3.org/1999/xlink" x="0px" y="0px"
	 width="20px" height="20px" viewBox="0 0 20 20" enable-background="new 0 0 20 20" xml:space="preserve">
<path fill="#8CC936" d="M10,0C4.478,0,0,4.478,0,10s4.478,10,10,10s10-4.478,10-10S15.522,0,10,0z M10,17c-3.866,0-7-3.135-7-7
	c0-3.866,3.134-7,7-7c3.865,0,7,3.134,7,7C17,13.865,13.865,17,10,17z"/>
<linearGradient id="SVGID_1_" gradientUnits="userSpaceOnUse" x1="0.8438" y1="10" x2="19.1563" y2="10">
	<stop  offset="0" style="stop-color:#7AC936"/>
	<stop  offset="1" style="stop-color:#66B736"/>
</linearGradient>
<path fill="url(#SVGID_1_)" d="M10,0.844c-5.057,0-9.156,4.1-9.156,9.156c0,5.056,4.1,9.156,9.156,9.156
	c5.056,0,9.156-4.101,9.156-9.156C19.156,4.943,15.056,0.844,10,0.844z M10,16.409c-3.54,0-6.409-2.87-6.409-6.409
	c0-3.54,2.87-6.409,6.409-6.409c3.539,0,6.409,2.87,6.409,6.409C16.409,13.539,13.539,16.409,10,16.409z"/>
<linearGradient id="SVGID_2_" gradientUnits="userSpaceOnUse" x1="4.9141" y1="10.689" x2="15.5557" y2="10.689" gradientTransform="matrix(0.9748 -0.2231 0.2231 0.9748 -2.1145 2.495)">
	<stop  offset="0" style="stop-color:#7AC936"/>
	<stop  offset="1" style="stop-color:#66B736"/>
</linearGradient>
<polygon fill="url(#SVGID_2_)" points="15.024,7.656 13.23,6.077 8.346,11.632 6.656,9.828 5.031,11.688 7.155,13.507 8.691,14.858 
	"/>
</svg>
