<?xml version="1.0" encoding="utf-8"?>
<!-- Generator: Adobe Illustrator 16.0.0, SVG Export Plug-In . SVG Version: 6.00 Build 0)  -->
<!DOCTYPE svg PUBLIC "-//W3C//DTD SVG 1.1//EN" "http://www.w3.org/Graphics/SVG/1.1/DTD/svg11.dtd">
<svg version="1.1"
	 id="svg5763" xmlns:dc="http://purl.org/dc/elements/1.1/" xmlns:cc="http://creativecommons.org/ns#" xmlns:rdf="http://www.w3.org/1999/02/22-rdf-syntax-ns#" xmlns:svg="http://www.w3.org/2000/svg"
	 xmlns="http://www.w3.org/2000/svg" xmlns:xlink="http://www.w3.org/1999/xlink" x="0px" y="0px" width="25.838px"
	 height="25.84px" viewBox="0 0 25.838 25.84" enable-background="new 0 0 25.838 25.84" xml:space="preserve">
<g id="g2796">
	<g id="g2798">
		
			<radialGradient id="path2805_1_" cx="979.2793" cy="848.6035" r="16.3647" gradientTransform="matrix(0.8 0 0 0.8 -770.5045 -656.8489)" gradientUnits="userSpaceOnUse">
			<stop  offset="0" style="stop-color:#E7ECEF"/>
			<stop  offset="1" style="stop-color:#BFC8CD"/>
		</radialGradient>
		<path id="path2805" fill="url(#path2805_1_)" d="M12.92,25.639c-7.016,0-12.719-5.703-12.719-12.718
			c0-7.013,5.706-12.718,12.719-12.718s12.718,5.706,12.718,12.718C25.64,19.934,19.935,25.639,12.92,25.639z"/>
		<g id="g2807">
			<path id="path2809" fill="#8B98A0" d="M12.92,0.404c6.901,0,12.517,5.615,12.517,12.517c0,6.901-5.615,12.517-12.517,12.517
				c-6.902,0-12.516-5.614-12.516-12.517C0.404,6.019,6.019,0.404,12.92,0.404 M12.92,0C5.784,0,0,5.785,0,12.92
				c0,7.137,5.784,12.92,12.92,12.92s12.918-5.785,12.918-12.92C25.841,5.786,20.056,0,12.92,0L12.92,0z"/>
		</g>
	</g>
	<g id="g2811" opacity="0.8">
		
			<linearGradient id="path2818_1_" gradientUnits="userSpaceOnUse" x1="978.8213" y1="831.5352" x2="987.188" y2="863.6002" gradientTransform="matrix(0.8 0 0 0.8 -770.5045 -656.8489)">
			<stop  offset="0" style="stop-color:#FFFFFF"/>
			<stop  offset="1" style="stop-color:#B7C6CE"/>
		</linearGradient>
		<path id="path2818" fill="url(#path2818_1_)" d="M21.56,3.877c2.148,2.249,3.474,5.292,3.474,8.64
			c0,6.901-5.614,12.517-12.517,12.517c-3.351,0-6.391-1.324-8.642-3.474c2.282,2.388,5.49,3.877,9.046,3.877
			c6.901,0,12.517-5.613,12.517-12.517C25.437,9.367,23.944,6.158,21.56,3.877z"/>
	</g>
	<g id="g2820">
		<g id="g2822">
			
				<linearGradient id="path2829_1_" gradientUnits="userSpaceOnUse" x1="975.0088" y1="821.6719" x2="980.7821" y2="842.6761" gradientTransform="matrix(0.8 0 0 0.8 -770.5045 -656.8489)">
				<stop  offset="0" style="stop-color:#FFFBD4"/>
				<stop  offset="1" style="stop-color:#000000"/>
			</linearGradient>
			<path id="path2829" fill="url(#path2829_1_)" d="M9.833,15.223c4.391-3.779,10.074-7.306,14.971-4.646
				c-1.095-5.561-6.007-9.77-11.883-9.77c-6.682,0-12.115,5.435-12.115,12.115c0,1.618,0.32,3.162,0.9,4.574
				C3.628,17.979,6.616,17.994,9.833,15.223z"/>
		</g>
	</g>
	<g id="g2831">
		
			<linearGradient id="path2838_1_" gradientUnits="userSpaceOnUse" x1="972.2988" y1="818.8652" x2="983.0428" y2="850.0219" gradientTransform="matrix(0.8 0 0 0.8 -770.5045 -656.8489)">
			<stop  offset="0" style="stop-color:#FFFFFF"/>
			<stop  offset="1" style="stop-color:#000000"/>
		</linearGradient>
		<path id="path2838" fill="url(#path2838_1_)" d="M1.615,13.729c0-6.679,5.434-12.113,12.112-12.113
			c3.135,0,5.994,1.198,8.148,3.158c-2.217-2.435-5.413-3.966-8.955-3.966c-6.682,0-12.114,5.435-12.114,12.114
			c0,3.545,1.53,6.738,3.966,8.956C2.813,19.725,1.615,16.864,1.615,13.729z"/>
	</g>
</g>
<polygon id="polygon2849" display="none" fill="none" points="25.841,25.841 0,25.841 0,0 25.841,0 "/>
<g>
	<g>
		
			<linearGradient id="SVGID_1_" gradientUnits="userSpaceOnUse" x1="10.2603" y1="11.231" x2="10.2603" y2="12.0542" gradientTransform="matrix(1 0 0 -1 0 26.8398)">
			<stop  offset="0" style="stop-color:#FFFFFF"/>
			<stop  offset="1" style="stop-color:#B7C6CE"/>
		</linearGradient>
		<rect x="5.828" y="14.793" opacity="0.3" fill="url(#SVGID_1_)" enable-background="new    " width="8.864" height="0.82"/>
		<g>
			<linearGradient id="SVGID_2_" gradientUnits="userSpaceOnUse" x1="10.2993" y1="5.354" x2="10.2993" y2="15.1214">
				<stop  offset="0" style="stop-color:#FFFFFF"/>
				<stop  offset="1" style="stop-color:#B7C6CE"/>
			</linearGradient>
			<polygon opacity="0.8" fill="url(#SVGID_2_)" enable-background="new    " points="11.58,10.409 14.057,10.522 14.057,7.841 
				11.611,5.396 6.542,5.319 6.542,15.053 11.58,15.053 			"/>
			<g>
				<polygon fill="none" points="11.017,8.971 11.017,5.857 6.919,5.857 6.919,14.364 11.647,14.364 11.647,10.376 13.615,10.466 
					13.615,8.971 				"/>
				<polygon fill="none" points="12.112,6.441 12.112,7.878 13.457,7.878 				"/>
				<path d="M6.919,14.364V5.857h4.098v3.113h2.599v1.495l1.093,0.05V7.614l-2.669-2.851H5.826v10.692h5.821v-1.092H6.919z
					 M12.112,6.441l1.345,1.437h-1.345V6.441z"/>
			</g>
		</g>
	</g>
	<g>
		
			<linearGradient id="SVGID_3_" gradientUnits="userSpaceOnUse" x1="15.5654" y1="5.7681" x2="15.5654" y2="6.5923" gradientTransform="matrix(1 0 0 -1 0 26.8398)">
			<stop  offset="0" style="stop-color:#FFFFFF"/>
			<stop  offset="1" style="stop-color:#B7C6CE"/>
		</linearGradient>
		<rect x="11.133" y="20.255" opacity="0.8" fill="url(#SVGID_3_)" enable-background="new    " width="8.864" height="0.821"/>
		<g>
			
				<linearGradient id="SVGID_4_" gradientUnits="userSpaceOnUse" x1="15.6045" y1="6.5166" x2="15.6045" y2="16.2835" gradientTransform="matrix(1 0 0 -1 0 26.8398)">
				<stop  offset="0" style="stop-color:#FFFFFF"/>
				<stop  offset="1" style="stop-color:#B7C6CE"/>
			</linearGradient>
			<polygon opacity="0.8" fill="url(#SVGID_4_)" enable-background="new    " points="11.847,10.624 11.847,20.358 19.361,20.358 
				19.361,13.146 16.916,10.7 			"/>
			<path d="M17.344,10.068H11.13v10.692h8.881v-7.842L17.344,10.068z M17.417,11.746l1.345,1.437h-1.345V11.746z M12.224,19.669
				v-8.508h4.097v3.114h2.6v5.394H12.224z"/>
		</g>
	</g>
</g>
</svg>
