<?xml version="1.0" encoding="utf-8"?>
<!-- Generator: Adobe Illustrator 16.0.0, SVG Export Plug-In . SVG Version: 6.00 Build 0)  -->
<!DOCTYPE svg PUBLIC "-//W3C//DTD SVG 1.1//EN" "http://www.w3.org/Graphics/SVG/1.1/DTD/svg11.dtd">
<svg version="1.1"
	 id="svg5763" xmlns:dc="http://purl.org/dc/elements/1.1/" xmlns:cc="http://creativecommons.org/ns#" xmlns:rdf="http://www.w3.org/1999/02/22-rdf-syntax-ns#" xmlns:svg="http://www.w3.org/2000/svg"
	 xmlns="http://www.w3.org/2000/svg" xmlns:xlink="http://www.w3.org/1999/xlink" x="0px" y="0px" width="25.838px"
	 height="25.84px" viewBox="0 0 25.838 25.84" enable-background="new 0 0 25.838 25.84" xml:space="preserve">
<g id="g2796">
	<g id="g2798">
		
			<radialGradient id="path2805_1_" cx="979.2793" cy="848.6035" r="16.3647" gradientTransform="matrix(0.8 0 0 0.8 -770.5045 -656.8489)" gradientUnits="userSpaceOnUse">
			<stop  offset="0" style="stop-color:#E7ECEF"/>
			<stop  offset="1" style="stop-color:#BFC8CD"/>
		</radialGradient>
		<path id="path2805" fill="url(#path2805_1_)" d="M12.92,25.639c-7.016,0-12.719-5.703-12.719-12.718
			c0-7.013,5.706-12.718,12.719-12.718s12.718,5.706,12.718,12.718C25.64,19.934,19.935,25.639,12.92,25.639z"/>
		<g id="g2807">
			<path id="path2809" fill="#8B98A0" d="M12.92,0.404c6.901,0,12.517,5.615,12.517,12.517c0,6.901-5.615,12.517-12.517,12.517
				c-6.902,0-12.516-5.614-12.516-12.517C0.404,6.019,6.019,0.404,12.92,0.404 M12.92,0C5.784,0,0,5.785,0,12.92
				c0,7.137,5.784,12.92,12.92,12.92s12.918-5.785,12.918-12.92C25.841,5.786,20.056,0,12.92,0L12.92,0z"/>
		</g>
	</g>
	<g id="g2811" opacity="0.8">
		
			<linearGradient id="path2818_1_" gradientUnits="userSpaceOnUse" x1="978.8213" y1="831.5352" x2="987.188" y2="863.6002" gradientTransform="matrix(0.8 0 0 0.8 -770.5045 -656.8489)">
			<stop  offset="0" style="stop-color:#FFFFFF"/>
			<stop  offset="1" style="stop-color:#B7C6CE"/>
		</linearGradient>
		<path id="path2818" fill="url(#path2818_1_)" d="M21.56,3.877c2.148,2.249,3.474,5.292,3.474,8.64
			c0,6.901-5.614,12.517-12.517,12.517c-3.351,0-6.391-1.324-8.642-3.474c2.282,2.388,5.49,3.877,9.046,3.877
			c6.901,0,12.517-5.613,12.517-12.517C25.437,9.367,23.944,6.158,21.56,3.877z"/>
	</g>
	<g id="g2820">
		<g id="g2822">
			
				<linearGradient id="path2829_1_" gradientUnits="userSpaceOnUse" x1="975.0088" y1="821.6719" x2="980.7821" y2="842.6761" gradientTransform="matrix(0.8 0 0 0.8 -770.5045 -656.8489)">
				<stop  offset="0" style="stop-color:#FFFBD4"/>
				<stop  offset="1" style="stop-color:#000000"/>
			</linearGradient>
			<path id="path2829" fill="url(#path2829_1_)" d="M9.833,15.223c4.391-3.779,10.074-7.306,14.971-4.646
				c-1.095-5.561-6.007-9.77-11.883-9.77c-6.682,0-12.115,5.435-12.115,12.115c0,1.618,0.32,3.162,0.9,4.574
				C3.628,17.979,6.616,17.994,9.833,15.223z"/>
		</g>
	</g>
	<g id="g2831">
		
			<linearGradient id="path2838_1_" gradientUnits="userSpaceOnUse" x1="972.2988" y1="818.8652" x2="983.0428" y2="850.0219" gradientTransform="matrix(0.8 0 0 0.8 -770.5045 -656.8489)">
			<stop  offset="0" style="stop-color:#FFFFFF"/>
			<stop  offset="1" style="stop-color:#000000"/>
		</linearGradient>
		<path id="path2838" fill="url(#path2838_1_)" d="M1.615,13.729c0-6.679,5.434-12.113,12.112-12.113
			c3.135,0,5.994,1.198,8.148,3.158c-2.217-2.435-5.413-3.966-8.955-3.966c-6.682,0-12.114,5.435-12.114,12.114
			c0,3.545,1.53,6.738,3.966,8.956C2.813,19.725,1.615,16.864,1.615,13.729z"/>
	</g>
</g>
<polygon id="polygon2849" display="none" fill="none" points="25.841,25.841 0,25.841 0,0 25.841,0 "/>
<g>
	<path d="M18.632,21.043c0,0.289-0.234,0.522-0.523,0.522H6.5c-0.288,0-0.521-0.233-0.521-0.522V6.367
		c0-0.288,0.233-0.521,0.521-0.521h11.608c0.289,0,0.523,0.233,0.523,0.521V21.043z"/>
	<g>
		<g>
			
				<linearGradient id="SVGID_1_" gradientUnits="userSpaceOnUse" x1="15.3809" y1="7.3511" x2="15.3809" y2="8.1812" gradientTransform="matrix(1 0 0 -1 0 26.8398)">
				<stop  offset="0" style="stop-color:#FFFFFF"/>
				<stop  offset="1" style="stop-color:#B7C6CE"/>
			</linearGradient>
			<rect x="10.916" y="18.666" opacity="0.8" fill="url(#SVGID_1_)" enable-background="new    " width="8.929" height="0.827"/>
			<g>
				
					<linearGradient id="SVGID_2_" gradientUnits="userSpaceOnUse" x1="15.4199" y1="8.105" x2="15.4199" y2="17.9424" gradientTransform="matrix(1 0 0 -1 0 26.8398)">
					<stop  offset="0" style="stop-color:#FFFFFF"/>
					<stop  offset="1" style="stop-color:#B7C6CE"/>
				</linearGradient>
				<polygon opacity="0.8" fill="url(#SVGID_2_)" enable-background="new    " points="11.635,8.966 11.635,18.771 19.204,18.771 
					19.204,11.506 16.741,9.042 				"/>
				<path d="M17.171,8.406h-6.257v10.77h8.944v-7.898L17.171,8.406z M17.245,10.097l1.355,1.447h-1.355V10.097z M12.014,18.076
					V9.507h4.125v3.137h2.619v5.432H12.014z"/>
			</g>
		</g>
	</g>
	<linearGradient id="SVGID_3_" gradientUnits="userSpaceOnUse" x1="8.4868" y1="5.8657" x2="15.8545" y2="5.8657">
		<stop  offset="0" style="stop-color:#FFFFFF"/>
		<stop  offset="1" style="stop-color:#B7C6CE"/>
	</linearGradient>
	<path opacity="0.8" fill="url(#SVGID_3_)" stroke="#000000" stroke-miterlimit="10" d="M14.896,5.538h-1.552
		c0.005-0.045,0.026-0.084,0.026-0.13c0-0.626-0.507-1.134-1.133-1.134s-1.134,0.508-1.134,1.134c0,0.046,0.021,0.085,0.026,0.13
		H9.446c-0.529,0-0.959,0.43-0.959,0.96c0,0.529,0.43,0.959,0.959,0.959h5.45c0.531,0,0.959-0.43,0.959-0.959
		C15.854,5.968,15.427,5.538,14.896,5.538z"/>
</g>
</svg>
