<?xml version="1.0" encoding="utf-8"?>
<!-- Generator: Adobe Illustrator 16.0.0, SVG Export Plug-In . SVG Version: 6.00 Build 0)  -->
<!DOCTYPE svg PUBLIC "-//W3C//DTD SVG 1.1//EN" "http://www.w3.org/Graphics/SVG/1.1/DTD/svg11.dtd">
<svg version="1.1"
	 id="svg5763" xmlns:dc="http://purl.org/dc/elements/1.1/" xmlns:cc="http://creativecommons.org/ns#" xmlns:rdf="http://www.w3.org/1999/02/22-rdf-syntax-ns#" xmlns:svg="http://www.w3.org/2000/svg"
	 xmlns="http://www.w3.org/2000/svg" xmlns:xlink="http://www.w3.org/1999/xlink" x="0px" y="0px" width="25.838px"
	 height="25.84px" viewBox="0 0 25.838 25.84" enable-background="new 0 0 25.838 25.84" xml:space="preserve">
<g id="g2796">
	<g id="g2798">
		
			<radialGradient id="path2805_1_" cx="883.634" cy="-163.4585" r="16.3647" gradientTransform="matrix(0.8 0 0 -0.8 -693.9883 -108.7331)" gradientUnits="userSpaceOnUse">
			<stop  offset="0" style="stop-color:#E7ECEF"/>
			<stop  offset="1" style="stop-color:#BFC8CD"/>
		</radialGradient>
		<path id="path2805" fill="url(#path2805_1_)" d="M12.92,25.639c-7.016,0-12.719-5.704-12.719-12.718
			c0-7.013,5.706-12.718,12.719-12.718s12.717,5.706,12.717,12.718C25.639,19.934,19.934,25.639,12.92,25.639z"/>
		<g id="g2807">
			<path id="path2809" fill="#8B98A0" d="M12.92,0.404c6.901,0,12.517,5.615,12.517,12.517c0,6.901-5.615,12.517-12.517,12.517
				S0.404,19.823,0.404,12.921C0.404,6.019,6.019,0.404,12.92,0.404 M12.92,0C5.784,0,0,5.785,0,12.92
				c0,7.137,5.784,12.92,12.92,12.92c7.135,0,12.918-5.785,12.918-12.92C25.841,5.786,20.055,0,12.92,0L12.92,0z"/>
		</g>
	</g>
	<g id="g2811" opacity="0.8">
		
			<linearGradient id="path2818_1_" gradientUnits="userSpaceOnUse" x1="883.177" y1="-146.3906" x2="891.5437" y2="-178.4556" gradientTransform="matrix(0.8 0 0 -0.8 -693.9883 -108.7331)">
			<stop  offset="0" style="stop-color:#FFFFFF"/>
			<stop  offset="1" style="stop-color:#B7C6CE"/>
		</linearGradient>
		<path id="path2818" fill="url(#path2818_1_)" d="M21.56,3.877c2.148,2.249,3.473,5.292,3.473,8.64
			c0,6.901-5.614,12.517-12.517,12.517c-3.351,0-6.391-1.324-8.642-3.473c2.282,2.387,5.49,3.877,9.046,3.877
			c6.902,0,12.517-5.614,12.517-12.517C25.437,9.367,23.945,6.158,21.56,3.877z"/>
	</g>
	<g id="g2820">
		<g id="g2822">
			
				<linearGradient id="path2829_1_" gradientUnits="userSpaceOnUse" x1="879.3518" y1="-136.4819" x2="885.4122" y2="-158.5306" gradientTransform="matrix(0.8 0 0 -0.8 -693.9883 -108.7331)">
				<stop  offset="0" style="stop-color:#FFFBD4"/>
				<stop  offset="1" style="stop-color:#000000"/>
			</linearGradient>
			<path id="path2829" fill="url(#path2829_1_)" d="M10.263,16.186c4.391-3.779,9.645-8.269,14.541-5.609
				c-1.095-5.561-6.007-9.77-11.883-9.77c-6.682,0-12.115,5.435-12.115,12.115c0,1.618,0.32,3.162,0.9,4.574
				C3.628,17.979,7.046,18.957,10.263,16.186z"/>
		</g>
	</g>
	<g id="g2831">
		
			<linearGradient id="path2838_1_" gradientUnits="userSpaceOnUse" x1="876.6536" y1="-133.7183" x2="887.3976" y2="-164.8749" gradientTransform="matrix(0.8 0 0 -0.8 -693.9883 -108.7331)">
			<stop  offset="0" style="stop-color:#FFFFFF"/>
			<stop  offset="1" style="stop-color:#000000"/>
		</linearGradient>
		<path id="path2838" fill="url(#path2838_1_)" d="M1.615,13.729c0-6.679,5.434-12.114,12.113-12.114
			c3.134,0,5.994,1.198,8.148,3.158c-2.217-2.435-5.413-3.966-8.955-3.966c-6.682,0-12.114,5.435-12.114,12.114
			c0,3.545,1.53,6.738,3.966,8.956C2.813,19.725,1.615,16.864,1.615,13.729z"/>
	</g>
</g>
<polygon id="polygon2849" display="none" fill="none" points="25.841,25.841 0,25.841 0,0 25.841,0 "/>
<linearGradient id="SVGID_1_" gradientUnits="userSpaceOnUse" x1="8.0872" y1="13.1973" x2="17.8469" y2="13.1973" gradientTransform="matrix(0.8806 -0.4739 0.4739 0.8806 -4.6255 7.6982)">
	<stop  offset="0" style="stop-color:#FFFFFF"/>
	<stop  offset="1" style="stop-color:#B7C6CE"/>
</linearGradient>
<path opacity="0.8" fill="url(#SVGID_1_)" d="M19.725,15.54c-1.287-1.546-3.089-2.168-4.15-1.493
	c0.426-1.339,0.382-3.224-0.234-5.171c-1.048-3.312-3.338-5.539-5.116-4.977l3.17,10.025L6.177,6.057
	c-1.374,1.261-0.583,4.357,1.764,6.916c1.404,1.529,3.045,2.516,4.432,2.796c-1.139,0.522-1.606,2.36-1.028,4.282
	c0.611,2.029,2.147,3.358,3.435,2.971c1.281-0.386,1.827-2.334,1.225-4.358c1.355,1.619,3.283,2.237,4.312,1.38
	C21.345,19.184,21.083,17.168,19.725,15.54z M14.489,18.112l0.613,2.034c0.182,0.604-0.159,1.24-0.763,1.42
	c-0.604,0.182-1.238-0.159-1.42-0.762l-0.613-2.036c-0.182-0.603,0.159-1.239,0.762-1.42C13.671,17.166,14.307,17.508,14.489,18.112
	z M19.343,18.874c-0.484,0.405-1.203,0.339-1.605-0.146l-1.362-1.633c-0.403-0.484-0.339-1.202,0.146-1.605
	c0.483-0.403,1.202-0.336,1.605,0.146l1.361,1.633C19.89,17.752,19.825,18.471,19.343,18.874z"/>
<path d="M19.611,15.338c-1.299-1.558-3.116-2.186-4.188-1.504c0.43-1.353,0.385-3.254-0.236-5.219
	c-1.058-3.341-3.368-5.589-5.162-5.022l3.199,10.115L5.941,5.771c-1.387,1.272-0.589,4.396,1.779,6.978
	c1.417,1.544,3.073,2.538,4.472,2.821c-1.149,0.527-1.621,2.383-1.038,4.319c0.616,2.048,2.168,3.39,3.466,2.999
	c1.293-0.39,1.843-2.355,1.234-4.396c1.37,1.633,3.313,2.255,4.351,1.391C21.246,19.016,20.981,16.982,19.611,15.338z
	 M14.326,17.934l0.62,2.055c0.184,0.608-0.161,1.25-0.77,1.433s-1.25-0.162-1.433-0.77l-0.618-2.054
	c-0.183-0.608,0.161-1.25,0.769-1.434S14.144,17.326,14.326,17.934z M19.225,18.704c-0.487,0.407-1.213,0.342-1.619-0.146
	l-1.374-1.648c-0.407-0.488-0.343-1.213,0.146-1.619c0.487-0.407,1.213-0.341,1.619,0.147l1.374,1.646
	C19.779,17.572,19.713,18.297,19.225,18.704z"/>
</svg>
