<?xml version="1.0" encoding="utf-8"?>
<!-- Generator: Adobe Illustrator 16.0.0, SVG Export Plug-In . SVG Version: 6.00 Build 0)  -->
<!DOCTYPE svg PUBLIC "-//W3C//DTD SVG 1.1//EN" "http://www.w3.org/Graphics/SVG/1.1/DTD/svg11.dtd">
<svg version="1.1"
	 id="svg5763" xmlns:dc="http://purl.org/dc/elements/1.1/" xmlns:cc="http://creativecommons.org/ns#" xmlns:rdf="http://www.w3.org/1999/02/22-rdf-syntax-ns#" xmlns:svg="http://www.w3.org/2000/svg"
	 xmlns="http://www.w3.org/2000/svg" xmlns:xlink="http://www.w3.org/1999/xlink" x="0px" y="0px" width="25.838px"
	 height="25.84px" viewBox="0 0 25.838 25.84" enable-background="new 0 0 25.838 25.84" xml:space="preserve">
<g id="g2796">
	<g id="g2798">

			<radialGradient id="path2805_1_" cx="979.2793" cy="848.6035" r="16.3647" gradientTransform="matrix(0.8 0 0 0.8 -770.5045 -656.8489)" gradientUnits="userSpaceOnUse">
			<stop  offset="0" style="stop-color:#E7ECEF"/>
			<stop  offset="1" style="stop-color:#BFC8CD"/>
		</radialGradient>
		<path id="path2805" fill="url(#path2805_1_)" d="M12.92,25.639c-7.016,0-12.719-5.703-12.719-12.718
			c0-7.013,5.706-12.718,12.719-12.718s12.718,5.706,12.718,12.718C25.64,19.934,19.935,25.639,12.92,25.639z"/>
		<g id="g2807">
			<path id="path2809" fill="#8B98A0" d="M12.92,0.404c6.901,0,12.517,5.615,12.517,12.517c0,6.901-5.615,12.517-12.517,12.517
				c-6.902,0-12.516-5.614-12.516-12.517C0.404,6.019,6.019,0.404,12.92,0.404 M12.92,0C5.784,0,0,5.785,0,12.92
				c0,7.137,5.784,12.92,12.92,12.92s12.918-5.785,12.918-12.92C25.841,5.786,20.056,0,12.92,0L12.92,0z"/>
		</g>
	</g>
	<g id="g2811" opacity="0.8">

			<linearGradient id="path2818_1_" gradientUnits="userSpaceOnUse" x1="978.8213" y1="831.5352" x2="987.188" y2="863.6002" gradientTransform="matrix(0.8 0 0 0.8 -770.5045 -656.8489)">
			<stop  offset="0" style="stop-color:#FFFFFF"/>
			<stop  offset="1" style="stop-color:#B7C6CE"/>
		</linearGradient>
		<path id="path2818" fill="url(#path2818_1_)" d="M21.56,3.877c2.148,2.249,3.474,5.292,3.474,8.64
			c0,6.901-5.614,12.517-12.517,12.517c-3.351,0-6.391-1.324-8.642-3.474c2.282,2.388,5.49,3.877,9.046,3.877
			c6.901,0,12.517-5.613,12.517-12.517C25.437,9.367,23.944,6.158,21.56,3.877z"/>
	</g>
	<g id="g2831">

			<linearGradient id="path2838_1_" gradientUnits="userSpaceOnUse" x1="972.2988" y1="818.8652" x2="983.0428" y2="850.0219" gradientTransform="matrix(0.8 0 0 0.8 -770.5045 -656.8489)">
			<stop  offset="0" style="stop-color:#FFFFFF"/>
			<stop  offset="1" style="stop-color:#000000"/>
		</linearGradient>
		<path id="path2838" fill="url(#path2838_1_)" d="M1.615,13.729c0-6.679,5.434-12.113,12.112-12.113
			c3.135,0,5.994,1.198,8.148,3.158c-2.217-2.435-5.413-3.966-8.955-3.966c-6.682,0-12.114,5.435-12.114,12.114
			c0,3.545,1.53,6.738,3.966,8.956C2.813,19.725,1.615,16.864,1.615,13.729z"/>
	</g>
</g>
<polygon id="polygon2849" display="none" fill="none" points="25.841,25.841 0,25.841 0,0 25.841,0 "/>
<linearGradient id="SVGID_1_" gradientUnits="userSpaceOnUse" x1="15.8379" y1="11.9702" x2="22.4727" y2="11.9702">
	<stop  offset="0" style="stop-color:#FFFFFF"/>
	<stop  offset="1" style="stop-color:#B7C6CE"/>
</linearGradient>
<path fill="url(#SVGID_1_)" d="M22.473,11.971l-3.948-3.948v1.65h-1.921c0.371,1.581,0.081,3.238-0.766,4.595h2.687v1.65
	L22.473,11.971z"/>
<g>
	<linearGradient id="SVGID_2_" gradientUnits="userSpaceOnUse" x1="4.916" y1="10.8369" x2="15.083" y2="10.8369">
		<stop  offset="0" style="stop-color:#FFFFFF"/>
		<stop  offset="1" style="stop-color:#B7C6CE"/>
	</linearGradient>
	<circle opacity="0.8" fill="url(#SVGID_2_)" enable-background="new    " cx="10" cy="10.837" r="5.083"/>
	<g>
		<path d="M6.982,5.625c-2.88,1.701-3.836,5.417-2.133,8.296c1.702,2.881,5.417,3.837,8.297,2.134
			c2.88-1.702,3.834-5.417,2.133-8.297C13.577,4.877,9.862,3.923,6.982,5.625z M12.294,14.613c-2.084,1.23-4.771,0.54-6.003-1.544
			C5.059,10.986,5.75,8.298,7.834,7.066c2.085-1.231,4.772-0.54,6.004,1.544C15.069,10.694,14.378,13.382,12.294,14.613z"/>
		<path d="M16.644,19.556c0.147,0.25,0.01,0.605-0.31,0.792l-0.965,0.572c-0.318,0.188-0.697,0.137-0.845-0.112l-2.771-4.69
			c-0.147-0.25-0.009-0.605,0.309-0.795l0.966-0.57c0.318-0.188,0.697-0.138,0.845,0.113L16.644,19.556z"/>
	</g>
	<g>
		<path d="M16.588,9.579c0.371,1.581,0.081,3.238-0.766,4.595h3.404V9.579H16.588z"/>
		<polygon points="18.509,15.824 18.509,7.929 22.457,11.877 		"/>
	</g>
</g>
</svg>
