<?xml version="1.0" encoding="UTF-8" standalone="no"?>
<svg xmlns:inkscape="http://www.inkscape.org/namespaces/inkscape" xmlns:rdf="http://www.w3.org/1999/02/22-rdf-syntax-ns#" xmlns="http://www.w3.org/2000/svg" sodipodi:docname="forward.svg" xmlns:sodipodi="http://sodipodi.sourceforge.net/DTD/sodipodi-0.dtd" viewBox="0 0 32.298 32.300001" height="9.1158mm" width="9.1152mm" version="1.1" xmlns:cc="http://creativecommons.org/ns#" xmlns:xlink="http://www.w3.org/1999/xlink" inkscape:version="0.91 r13725" xmlns:dc="http://purl.org/dc/elements/1.1/">
	<sodipodi:namedview bordercolor="#666666" inkscape:pageshadow="2" guidetolerance="10" pagecolor="#ffffff" gridtolerance="10" inkscape:window-maximized="1" inkscape:zoom="7.3065014" objecttolerance="10" borderopacity="1" inkscape:current-layer="svg5763" inkscape:cx="-0.069432436" inkscape:cy="16.15" inkscape:window-y="0" inkscape:window-x="0" inkscape:window-width="1680" showgrid="false" inkscape:pageopacity="0" inkscape:window-height="997"/>
	<defs>
		<radialGradient id="radialGradient9504" gradientUnits="userSpaceOnUse" cy="117.15" cx="787.99" gradientTransform="translate(0,-23)" r="16.365">
			<stop stop-color="#E7ECEF" offset="0"/>
			<stop stop-color="#BFC8CD" offset="1"/>
		</radialGradient>
		<linearGradient id="linearGradient9506" y2="132.15" gradientUnits="userSpaceOnUse" y1="100.09" gradientTransform="translate(0,-23)" x2="795.9" x1="787.53">
			<stop stop-color="#fff" offset="0"/>
			<stop stop-color="#B7C6CE" offset="1"/>
		</linearGradient>
		<linearGradient id="linearGradient9510" y2="118.57" gradientUnits="userSpaceOnUse" y1="87.413" gradientTransform="translate(0,-23)" x2="791.75" x1="781.01">
			<stop stop-color="#fff" offset="0"/>
			<stop offset="1"/>
		</linearGradient>
		<linearGradient id="linearGradient9512" y2="99.103" xlink:href="#SVGID_12_" gradientUnits="userSpaceOnUse" y1="113.29" gradientTransform="translate(0,-23)" x2="790.72" x1="790.72"/>
		<linearGradient id="SVGID_12_" y2="99.103" gradientUnits="userSpaceOnUse" x2="790.72" gradientTransform="translate(0,-23)" y1="113.29" x1="790.72">
			<stop stop-color="#fff" offset="0"/>
			<stop stop-color="#B7C6CE" offset="1"/>
		</linearGradient>
	</defs>
	<g transform="translate(-771.84,-66.611)">
		<path inkscape:connector-curvature="0" fill="url(#radialGradient9504)" d="m787.99 98.66c-8.769 0-15.898-7.131-15.898-15.898 0-8.766 7.132-15.898 15.898-15.898s15.896 7.132 15.896 15.898c0.003 8.766-7.129 15.898-15.896 15.898z"/>
		<path inkscape:connector-curvature="0" fill="#8b98a0" d="m787.99 67.116c8.627 0 15.646 7.019 15.646 15.646s-7.019 15.646-15.646 15.646-15.646-7.018-15.646-15.646c0.001-8.627 7.019-15.646 15.646-15.646m0-0.505c-8.92 0-16.15 7.231-16.15 16.15 0 8.92 7.23 16.15 16.15 16.15 8.919 0 16.148-7.231 16.148-16.15 0.003-8.918-7.229-16.15-16.148-16.15z"/>
		<g opacity=".8">
			<path inkscape:connector-curvature="0" fill="url(#linearGradient9506)" d="m798.79 71.457c2.685 2.811 4.34 6.615 4.34 10.8 0 8.627-7.017 15.646-15.645 15.646-4.188 0-7.989-1.655-10.802-4.341 2.853 2.983 6.863 4.846 11.307 4.846 8.628 0 15.646-7.018 15.646-15.646 0-4.442-1.865-8.454-4.846-11.305z"/>
		</g>
		<path inkscape:connector-curvature="0" fill="url(#linearGradient9510)" d="m773.86 83.773c0-8.349 6.792-15.143 15.142-15.143 3.917 0 7.492 1.497 10.185 3.947-2.771-3.044-6.766-4.958-11.193-4.958-8.352 0-15.143 6.794-15.143 15.143 0 4.431 1.913 8.423 4.957 11.195-2.451-2.691-3.948-6.266-3.948-10.184z"/>
	</g>
	<polygon transform="translate(-771.84,-66.611)" points="804.14 98.912 771.84 98.912 771.84 66.611 804.14 66.611" display="none" fill="none"/>
	<g transform="matrix(.75749 0 0 .92050 1.1582 4.6439)">
		<polygon opacity=".8" transform="matrix(1.4115 0 0 1.4115 -1099.8 -103.78)" points="784.46 90.332 796.98 83.267 784.46 76.201" enable-background="new    " fill="url(#linearGradient9512)"/>
		<polygon points="783.95 89.828 796.47 82.762 783.95 75.696" fill="#000080" transform="matrix(1.4115 0 0 1.4115 -1099.8 -103.78)"/>
	</g>
	<g transform="matrix(.75749 0 0 .92050 9.0374 4.6439)">
		<polygon opacity=".8" transform="matrix(1.4115 0 0 1.4115 -1099.8 -103.78)" points="784.46 76.201 784.46 90.332 796.98 83.267" enable-background="new    " fill="url(#linearGradient9512)"/>
		<polygon points="783.95 75.696 783.95 89.828 796.47 82.762" fill="#000080" transform="matrix(1.4115 0 0 1.4115 -1099.8 -103.78)"/>
	</g>
	<rect height="17.65" width="2.8111" y="7.3247" x="24.735" fill="#000080"/>
</svg>
