<?xml version="1.0" encoding="utf-8"?>
<!-- Generator: Adobe Illustrator 16.0.0, SVG Export Plug-In . SVG Version: 6.00 Build 0)  -->
<!DOCTYPE svg PUBLIC "-//W3C//DTD SVG 1.1//EN" "http://www.w3.org/Graphics/SVG/1.1/DTD/svg11.dtd">
<svg version="1.1" id="Layer_1" xmlns="http://www.w3.org/2000/svg" xmlns:xlink="http://www.w3.org/1999/xlink" x="0px" y="0px"
	 width="20px" height="20px" viewBox="0 0 20 20" enable-background="new 0 0 20 20" xml:space="preserve">
<g>
	<path fill="#0249E9" d="M10,19.875c-5.445,0-9.875-4.43-9.875-9.875S4.555,0.125,10,0.125s9.875,4.43,9.875,9.875
		S15.445,19.875,10,19.875z"/>
	<path d="M10,0.25c5.376,0,9.75,4.374,9.75,9.75s-4.374,9.75-9.75,9.75S0.25,15.376,0.25,10S4.624,0.25,10,0.25 M10,0
		C4.477,0,0,4.477,0,10c0,5.522,4.477,10,10,10c5.522,0,10-4.478,10-10C20,4.477,15.522,0,10,0L10,0z"/>
</g>
<g>
	<linearGradient id="SVGID_1_" gradientUnits="userSpaceOnUse" x1="9.9995" y1="-0.0415" x2="9.9995" y2="21.1251">
		<stop  offset="0" style="stop-color:#0E0CEA"/>
		<stop  offset="1" style="stop-color:#0200BA"/>
	</linearGradient>
	<circle fill="url(#SVGID_1_)" cx="10" cy="10" r="9.334"/>
</g>
<circle fill="#FFFFFF" stroke="#00004D" stroke-width="0.25" stroke-miterlimit="10" cx="10" cy="5.651" r="1.833"/>
<path fill="#FFFFFF" stroke="#00004D" stroke-width="0.25" stroke-miterlimit="10" d="M11.32,16.067c0,0.282-0.241,0.51-0.538,0.51
	H9.218c-0.297,0-0.539-0.228-0.539-0.51V9.682c0-0.281,0.241-0.509,0.539-0.509h1.564c0.297,0,0.538,0.228,0.538,0.509V16.067z"/>
</svg>
