<?xml version="1.0" encoding="UTF-8" standalone="no"?>
<svg xmlns:inkscape="http://www.inkscape.org/namespaces/inkscape" xmlns:rdf="http://www.w3.org/1999/02/22-rdf-syntax-ns#" height="20" xmlns="http://www.w3.org/2000/svg" inkscape:version="0.91 r13725" viewBox="0 0 20 20" sodipodi:version="0.32" width="20" version="1.1" xmlns:cc="http://creativecommons.org/ns#" xmlns:dc="http://purl.org/dc/elements/1.1/" sodipodi:docname="input_output.svg" xmlns:sodipodi="http://sodipodi.sourceforge.net/DTD/sodipodi-0.dtd">
	<sodipodi:namedview id="base" bordercolor="#666666" inkscape:pageshadow="2" inkscape:window-y="0" fit-margin-left="20" pagecolor="#ffffff" inkscape:zoom="17.9375" inkscape:window-maximized="1" inkscape:window-x="0" inkscape:window-height="720" showgrid="false" borderopacity="1.0" fit-margin-right="20" inkscape:cx="14.327526" inkscape:cy="16" inkscape:pageopacity="0.0" inkscape:current-layer="layer1" fit-margin-bottom="20" inkscape:window-width="1366" fit-margin-top="20"/>
	<g inkscape:label="Layer 1" inkscape:groupmode="layer" transform="translate(-226.3 -436.69)">
		<g inkscape:label="Calque 1" transform="matrix(.12440 0 0 .12440 142.13 417.25)">
			<g transform="translate(-2.2181)">
				<path stroke-linejoin="round" style="color:#000000" d="m755.29 163.6c-5.8528 0-10.627 4.1707-11.156 9.5-5.7136-3.3879-19.944-11.048-27.656-7.875-8.6064 3.5408-8.9032 14.924 0 18.875 7.6988 3.4169 22.194-4.5452 27.812-7.9375 0.60211 2.7862 2.3832 5.1473 4.8438 6.6562h-0.8125v8.7812h-8.3125v23c0.21589 6.2395-1.6133 10.566-8.5938 10.5l-29.688-0.28125v-4.0938h-22.5v45h22.5v-3.0625h23.844c10.344 5.669 13.97 13.25 31.594 13.25 19.236 0 21.109-13.215 31.281-12.906 10.726 0.32534 19.274 10.524 20.125 26.188h30.625c0.12505-43.8-29.182-61.669-58.219-64.094-8.3791-0.69961-10.188-5.6258-10.188-10.5v-23.031h-8.5625v-8.75h-0.75c2.4605-1.509 4.2416-3.8701 4.8438-6.6562 5.6189 3.3923 20.114 11.354 27.812 7.9375 8.9032-3.9514 8.6064-15.334 0-18.875-7.712-3.1729-21.943 4.4871-27.656 7.875-0.52911-5.3293-5.3348-9.5-11.188-9.5z" inkscape:connector-curvature="0" stroke="#000" stroke-linecap="round" stroke-width=".79977"/>
			</g>
		</g>
	</g>
</svg>
