<?xml version="1.0" encoding="utf-8"?>
<!-- Generator: Adobe Illustrator 16.0.0, SVG Export Plug-In . SVG Version: 6.00 Build 0)  -->
<!DOCTYPE svg PUBLIC "-//W3C//DTD SVG 1.1//EN" "http://www.w3.org/Graphics/SVG/1.1/DTD/svg11.dtd">
<svg version="1.1" id="Layer_1" xmlns="http://www.w3.org/2000/svg" xmlns:xlink="http://www.w3.org/1999/xlink" x="0px" y="0px"
	 width="20px" height="20px" viewBox="0 0 20 20" enable-background="new 0 0 20 20" xml:space="preserve">
<g>
	<path fill="#740066" stroke="#740066" stroke-width="0.25" stroke-miterlimit="10" d="M10.471,14.305
		c-0.149-0.034-0.235-0.002-0.337,0.1c-0.712,0.719-1.416,1.45-2.154,2.143c-0.922,0.866-2.332,0.82-3.19-0.065
		c-0.876-0.903-0.888-2.305,0.001-3.21c1.112-1.134,2.232-2.26,3.369-3.366c1.135-1.107,2.984-0.773,3.669,0.641
		c0.133,0.276,0.201,0.306,0.478,0.166c0.13-0.067,0.252-0.156,0.362-0.254c0.151-0.13,0.281-0.284,0.433-0.416
		c0.103-0.091,0.12-0.167,0.055-0.296C12.07,7.551,9.121,6.994,7.349,8.685c-1.27,1.21-2.512,2.452-3.729,3.717
		c-1.503,1.563-1.416,3.892,0.154,5.34c1.362,1.259,3.574,1.286,4.92,0.015c1.164-1.1,2.275-2.252,3.41-3.38
		c0.01-0.009,0.013-0.021,0.034-0.063c-0.071,0.007-0.121,0.011-0.171,0.02C11.466,14.429,10.967,14.424,10.471,14.305z"/>
	<path fill="#740066" stroke="#740066" stroke-width="0.25" stroke-miterlimit="10" d="M16.712,3.921
		c-0.372-1.704-2.227-2.65-3.515-2.651c-1.513-0.001-2.648,0.668-3.38,1.998c-0.709,1.284-1.401,2.583-2.1,3.875
		C7.691,7.188,7.675,7.238,7.655,7.29c0.285-0.11,0.548-0.241,0.825-0.314c0.285-0.076,0.585-0.094,0.874-0.154
		c0.066-0.014,0.135-0.087,0.171-0.15c0.493-0.898,0.958-1.812,1.474-2.699c0.886-1.52,3.049-1.51,3.957,0.003
		c0.344,0.576,0.328,1.223,0.236,1.863c-0.056,0.394-0.149,0.781-0.229,1.184c0.487,0.139,0.973,0.279,1.507,0.431
		c0.082-0.374,0.17-0.722,0.236-1.076C16.858,5.561,16.894,4.745,16.712,3.921z"/>
	<path fill="#740066" stroke="#740066" stroke-width="0.25" stroke-miterlimit="10" d="M13.099,11.305
		c-1.152,1.014-2.926,0.649-3.594-0.735c-0.13-0.271-0.175-0.29-0.452-0.162c-0.104,0.049-0.206,0.11-0.291,0.186
		c-0.182,0.162-0.349,0.344-0.534,0.506c-0.102,0.089-0.103,0.163-0.044,0.281c0.822,1.661,2.773,2.459,4.526,1.844
		c0.528-0.187,0.996-0.476,1.399-0.884c-0.304-0.377-0.598-0.742-0.905-1.126C13.156,11.255,13.128,11.279,13.099,11.305z"/>
</g>
</svg>
