<?xml version="1.0" encoding="UTF-8" standalone="no"?>
<svg xmlns:cc="http://creativecommons.org/ns#" xmlns="http://www.w3.org/2000/svg" height="20" width="20" xml:space="preserve" viewBox="0 0 20 20" y="0px" x="0px" id="Capa_1" version="1.1">
    <g transform="scale(0.60606061,0.60606061)" id="g3">
        <path id="path5" d="m 30.5,26.109 -28,0 C 1.122,26.109 0,24.988 0,23.609 L 0,4.61 C 0,3.231 1.122,2.11 2.5,2.11 l 28,0 c 1.378,0 2.5,1.121 2.5,2.5 l 0,18.999 c 0,1.379 -1.122,2.5 -2.5,2.5 z M 2.5,3.11 C 1.673,3.11 1,3.783 1,4.61 l 0,18.999 c 0,0.827 0.673,1.5 1.5,1.5 l 28,0 c 0.827,0 1.5,-0.673 1.5,-1.5 L 32,4.61 c 0,-0.827 -0.673,-1.5 -1.5,-1.5 l -28,0 z" />
        <path id="path7" d="m 22.875,30.89 -12.75,0 c -0.276,0 -0.5,-0.224 -0.5,-0.5 0,-0.276 0.224,-0.5 0.5,-0.5 l 12.75,0 c 0.276,0 0.5,0.224 0.5,0.5 0,0.276 -0.224,0.5 -0.5,0.5 z" />
        <path id="path9" d="m 16.5,30.89 c -0.276,0 -0.5,-0.224 -0.5,-0.5 l 0,-4.781 c 0,-0.276 0.224,-0.5 0.5,-0.5 0.276,0 0.5,0.224 0.5,0.5 l 0,4.781 c 0,0.277 -0.224,0.5 -0.5,0.5 z" />
    </g>
</svg>
