<?xml version="1.0" encoding="utf-8"?>
<!-- Generator: Adobe Illustrator 16.0.0, SVG Export Plug-In . SVG Version: 6.00 Build 0)  -->
<!DOCTYPE svg PUBLIC "-//W3C//DTD SVG 1.1//EN" "http://www.w3.org/Graphics/SVG/1.1/DTD/svg11.dtd">
<svg version="1.1"
	 id="svg5763" xmlns:dc="http://purl.org/dc/elements/1.1/" xmlns:cc="http://creativecommons.org/ns#" xmlns:rdf="http://www.w3.org/1999/02/22-rdf-syntax-ns#" xmlns:svg="http://www.w3.org/2000/svg"
	 xmlns="http://www.w3.org/2000/svg" xmlns:xlink="http://www.w3.org/1999/xlink" x="0px" y="0px" width="25.838px"
	 height="25.84px" viewBox="0 0 25.838 25.84" enable-background="new 0 0 25.838 25.84" xml:space="preserve">
<g id="g2796">
	<g id="g2798">

			<radialGradient id="path2805_1_" cx="883.634" cy="-163.4585" r="16.3647" gradientTransform="matrix(0.8 0 0 -0.8 -693.9883 -108.7331)" gradientUnits="userSpaceOnUse">
			<stop  offset="0" style="stop-color:#E7ECEF"/>
			<stop  offset="1" style="stop-color:#BFC8CD"/>
		</radialGradient>
		<path id="path2805" fill="url(#path2805_1_)" d="M12.92,25.639c-7.016,0-12.719-5.704-12.719-12.718
			c0-7.013,5.706-12.718,12.719-12.718s12.717,5.706,12.717,12.718C25.639,19.934,19.934,25.639,12.92,25.639z"/>
		<g id="g2807">
			<path id="path2809" fill="#8B98A0" d="M12.92,0.404c6.901,0,12.517,5.615,12.517,12.517c0,6.901-5.615,12.517-12.517,12.517
				S0.404,19.823,0.404,12.921C0.404,6.019,6.019,0.404,12.92,0.404 M12.92,0C5.784,0,0,5.785,0,12.92
				c0,7.137,5.784,12.92,12.92,12.92c7.135,0,12.918-5.785,12.918-12.92C25.841,5.786,20.055,0,12.92,0L12.92,0z"/>
		</g>
	</g>
	<g id="g2811" opacity="0.8">

			<linearGradient id="path2818_1_" gradientUnits="userSpaceOnUse" x1="883.177" y1="-146.3906" x2="891.5437" y2="-178.4556" gradientTransform="matrix(0.8 0 0 -0.8 -693.9883 -108.7331)">
			<stop  offset="0" style="stop-color:#FFFFFF"/>
			<stop  offset="1" style="stop-color:#B7C6CE"/>
		</linearGradient>
		<path id="path2818" fill="url(#path2818_1_)" d="M21.56,3.877c2.148,2.249,3.473,5.292,3.473,8.64
			c0,6.901-5.614,12.517-12.517,12.517c-3.351,0-6.391-1.324-8.642-3.473c2.282,2.387,5.49,3.877,9.046,3.877
			c6.902,0,12.517-5.614,12.517-12.517C25.437,9.367,23.945,6.158,21.56,3.877z"/>
	</g>
	<g id="g2831">

			<linearGradient id="path2838_1_" gradientUnits="userSpaceOnUse" x1="876.6536" y1="-133.7183" x2="887.3976" y2="-164.8749" gradientTransform="matrix(0.8 0 0 -0.8 -693.9883 -108.7331)">
			<stop  offset="0" style="stop-color:#FFFFFF"/>
			<stop  offset="1" style="stop-color:#000000"/>
		</linearGradient>
		<path id="path2838" fill="url(#path2838_1_)" d="M1.615,13.729c0-6.679,5.434-12.114,12.113-12.114
			c3.134,0,5.994,1.198,8.148,3.158c-2.217-2.435-5.413-3.966-8.955-3.966c-6.682,0-12.114,5.435-12.114,12.114
			c0,3.545,1.53,6.738,3.966,8.956C2.813,19.725,1.615,16.864,1.615,13.729z"/>
	</g>
</g>
<polygon id="polygon2849" display="none" fill="none" points="25.841,25.841 0,25.841 0,0 25.841,0 "/>
<g>
	<linearGradient id="SVGID_1_" gradientUnits="userSpaceOnUse" x1="12.9119" y1="19.9307" x2="12.9119" y2="18.9114">
		<stop  offset="0" style="stop-color:#FFFFFF"/>
		<stop  offset="1" style="stop-color:#B7C6CE"/>
	</linearGradient>
	<rect x="7.419" y="18.919" opacity="0.8" fill="url(#SVGID_1_)" width="10.984" height="1.016"/>
	<g>
		<linearGradient id="SVGID_2_" gradientUnits="userSpaceOnUse" x1="12.9602" y1="19.0039" x2="12.9602" y2="6.8989">
			<stop  offset="0" style="stop-color:#FFFFFF"/>
			<stop  offset="1" style="stop-color:#B7C6CE"/>
		</linearGradient>
		<polygon opacity="0.8" fill="url(#SVGID_2_)" points="8.303,6.983 8.303,19.046 17.616,19.046 17.616,10.108 14.585,7.077 		"/>
		<path d="M15.115,6.294h-7.7v13.252h11.008v-9.72L15.115,6.294z M15.206,8.373l1.666,1.78h-1.666V8.373z M8.77,18.191V7.649h5.079
			v3.859h3.221v6.683H8.77z"/>
	</g>
</g>
</svg>
