<?xml version="1.0" encoding="UTF-8" standalone="no"?>
<svg id="button_x5F_pause" xmlns:inkscape="http://www.inkscape.org/namespaces/inkscape" xmlns:rdf="http://www.w3.org/1999/02/22-rdf-syntax-ns#" xmlns="http://www.w3.org/2000/svg" sodipodi:docname="pause.svg" enable-background="new 0 0 25.838 25.84" xml:space="preserve" height="25.84px" viewBox="0 0 25.838 25.84" width="25.838px" version="1.1" y="0px" x="0px" xmlns:cc="http://creativecommons.org/ns#" xmlns:dc="http://purl.org/dc/elements/1.1/" inkscape:version="0.91 r13725" xmlns:sodipodi="http://sodipodi.sourceforge.net/DTD/sodipodi-0.dtd">
  <sodipodi:namedview bordercolor="#666666" inkscape:pageshadow="2" guidetolerance="10" pagecolor="#ffffff" gridtolerance="10" inkscape:window-maximized="1" inkscape:zoom="9.1331269" objecttolerance="10" borderopacity="1" inkscape:current-layer="button_x5F_pause" inkscape:cx="1.2581521" inkscape:cy="12.92" inkscape:window-y="0" inkscape:window-x="0" inkscape:window-width="1680" showgrid="false" inkscape:pageopacity="0" inkscape:window-height="997" />
  <g transform="translate(-771.84,-66.611)">
    <radialGradient id="path2805_1_" gradientUnits="userSpaceOnUse" cy="-119.35" cx="1633" gradientTransform="matrix(.8 0 0 -.8 -521.62 -6.8333)" r="16.365">
      <stop stop-color="#E7ECEF" offset="0" />
      <stop stop-color="#BFC8CD" offset="1" />
    </radialGradient>
    <path inkscape:connector-curvature="0" fill="url(#path2805_1_)" d="m784.76 92.25c-7.016 0-12.719-5.704-12.719-12.718 0-7.013 5.706-12.718 12.719-12.718s12.717 5.706 12.717 12.718c0.002 7.013-5.703 12.718-12.717 12.718z" />
    <path inkscape:connector-curvature="0" fill="#8b98a0" d="m784.76 67.015c6.901 0 12.517 5.615 12.517 12.517 0 6.901-5.615 12.517-12.517 12.517s-12.517-5.614-12.517-12.517c0.001-6.902 5.616-12.517 12.517-12.517m0-0.404c-7.136 0-12.92 5.785-12.92 12.92 0 7.137 5.784 12.92 12.92 12.92 7.135 0 12.918-5.785 12.918-12.92 0.003-7.134-5.783-12.92-12.918-12.92z" />
    <g opacity=".8">
      <linearGradient id="path2818_1_" y2="-134.34" gradientUnits="userSpaceOnUse" x2="1640.9" gradientTransform="matrix(.8 0 0 -.8 -521.62 -6.8333)" y1="-102.28" x1="1632.5">
        <stop stop-color="#fff" offset="0" />
        <stop stop-color="#B7C6CE" offset="1" />
      </linearGradient>
      <path inkscape:connector-curvature="0" fill="url(#path2818_1_)" d="m793.4 70.488c2.148 2.249 3.473 5.292 3.473 8.64 0 6.901-5.614 12.517-12.517 12.517-3.351 0-6.391-1.324-8.642-3.473 2.282 2.387 5.49 3.877 9.046 3.877 6.902 0 12.517-5.614 12.517-12.517 0-3.554-1.492-6.763-3.877-9.044z" />
    </g>
    <linearGradient id="path2838_1_" y2="-120.76" gradientUnits="userSpaceOnUse" x2="1636.7" gradientTransform="matrix(.8 0 0 -.8 -521.62 -6.8333)" y1="-89.607" x1="1626">
      <stop stop-color="#fff" offset="0" />
      <stop offset="1" />
    </linearGradient>
    <path inkscape:connector-curvature="0" fill="url(#path2838_1_)" d="m773.46 80.341c0-6.679 5.434-12.114 12.113-12.114 3.134 0 5.994 1.198 8.148 3.158-2.217-2.435-5.413-3.966-8.955-3.966-6.682 0-12.114 5.435-12.114 12.114 0 3.545 1.53 6.738 3.966 8.956-1.961-2.153-3.158-5.014-3.158-8.148z" />
  </g>
  <polygon transform="translate(-771.84,-66.611)" display="none" points="797.68 92.452 771.84 92.452 771.84 66.611 797.68 66.611" fill="none" />
  <g transform="matrix(1.1196 0 0 1.1196 -1.3719 -1.0615)">
    <g opacity=".8" enable-background="new    " transform="translate(-771.07 -65.954)">
      <linearGradient id="SVGID_1_" y2="79.531" gradientUnits="userSpaceOnUse" y1="79.531" x2="783.25" x1="778.73">
        <stop stop-color="#fff" offset="0" />
        <stop stop-color="#B7C6CE" offset="1" />
      </linearGradient>
      <rect height="11.75" width="4.52" y="73.656" x="778.73" fill="url(#SVGID_1_)" />
      <linearGradient id="SVGID_2_" y2="79.531" gradientUnits="userSpaceOnUse" y1="79.531" x2="790.78" x1="786.27">
        <stop stop-color="#fff" offset="0" />
        <stop stop-color="#B7C6CE" offset="1" />
      </linearGradient>
      <rect height="11.75" width="4.519" y="73.656" x="786.27" fill="url(#SVGID_2_)" />
    </g>
    <g fill="#a80">
      <rect height="11.75" width="4.52" y="7.045" x="6.894" />
      <rect height="11.75" width="4.519" y="7.045" x="14.426" />
    </g>
  </g>
</svg>
