<?xml version="1.0" encoding="UTF-8" standalone="no"?>
<svg xmlns:rdf="http://www.w3.org/1999/02/22-rdf-syntax-ns#" xmlns="http://www.w3.org/2000/svg" viewBox="0 0 32.297 32.301001" height="9.1161mm" width="9.1149mm" version="1.1" xmlns:cc="http://creativecommons.org/ns#" xmlns:xlink="http://www.w3.org/1999/xlink" xmlns:dc="http://purl.org/dc/elements/1.1/">
	<defs>
		<radialGradient id="radialGradient9514" gradientUnits="userSpaceOnUse" cy="652.55" cx="874.31" gradientTransform="matrix(1,0,0,-1,0,746)" r="16.14">
			<stop stop-color="#E7ECEF" offset="0"/>
			<stop stop-color="#BFC8CD" offset="1"/>
		</radialGradient>
		<linearGradient id="linearGradient9516" y2="637.38" gradientUnits="userSpaceOnUse" y1="669.44" gradientTransform="matrix(1,0,0,-1,0,746)" x2="882.25" x1="873.88">
			<stop stop-color="#fff" offset="0"/>
			<stop stop-color="#B7C6CE" offset="1"/>
		</linearGradient>
		<linearGradient id="linearGradient9520" y2="650.96" gradientUnits="userSpaceOnUse" y1="682.11" gradientTransform="matrix(1,0,0,-1,0,746)" x2="878.1" x1="867.36">
			<stop stop-color="#fff" offset="0"/>
			<stop offset="1"/>
		</linearGradient>
	</defs>
	<g transform="translate(-858.19 -66.088)">
		<path fill="url(#radialGradient9514)" d="m874.34 97.889c-8.63 0-15.647-7.021-15.647-15.651s7.021-15.65 15.647-15.65 15.65 7.021 15.65 15.65-7.02 15.651-15.65 15.651z"/>
		<path fill="#8b98a0" d="m874.34 67.088c8.354 0 15.15 6.796 15.15 15.15s-6.797 15.151-15.15 15.151-15.147-6.797-15.147-15.151 6.793-15.15 15.147-15.15m0-1c-8.92 0-16.147 7.231-16.147 16.15 0 8.92 7.229 16.151 16.147 16.151s16.15-7.231 16.15-16.151c0-8.919-7.231-16.15-16.15-16.15z"/>
	</g>
	<g opacity=".8" transform="translate(-858.19 -66.088)">
		<path fill="url(#linearGradient9516)" d="m885.14 70.934c2.688 2.811 4.34 6.615 4.34 10.8 0 8.627-7.018 15.646-15.645 15.646-4.186 0-7.989-1.655-10.8-4.342 2.851 2.983 6.862 4.846 11.305 4.846 8.627 0 15.646-7.018 15.646-15.646-0.001-4.442-1.865-8.453-4.846-11.304z"/>
	</g>
	<g transform="translate(-858.19 -66.088)">
		<path fill="url(#linearGradient9520)" d="m860.21 83.25c0-8.349 6.792-15.143 15.142-15.143 3.917 0 7.492 1.497 10.187 3.947-2.772-3.044-6.767-4.958-11.194-4.958-8.35 0-15.142 6.794-15.142 15.143 0 4.431 1.914 8.423 4.958 11.195-2.455-2.692-3.951-6.266-3.951-10.184z"/>
	</g>
	<g fill="#000080" transform="matrix(0 1 -1 0 32.299 .0020003)">
		<path d="m10.254 6.9234v4.5218h-4.8181v9.1773h4.8181v4.755l16.346-9.225-16.346-9.2286z"/>
		<rect height="17.65" width="2.811" y="7.3256" x="24.05"/>
	</g>
</svg>
