<?xml version="1.0" encoding="UTF-8" standalone="no"?>
<svg xmlns:inkscape="http://www.inkscape.org/namespaces/inkscape" xmlns:rdf="http://www.w3.org/1999/02/22-rdf-syntax-ns#" xmlns="http://www.w3.org/2000/svg" sodipodi:docname="stop.svg" xmlns:sodipodi="http://sodipodi.sourceforge.net/DTD/sodipodi-0.dtd" viewBox="0 0 32.298 32.300001" height="9.1158mm" width="9.1152mm" version="1.1" xmlns:cc="http://creativecommons.org/ns#" xmlns:xlink="http://www.w3.org/1999/xlink" inkscape:version="0.91 r13725" xmlns:dc="http://purl.org/dc/elements/1.1/">
	<sodipodi:namedview bordercolor="#666666" inkscape:pageshadow="2" guidetolerance="10" pagecolor="#ffffff" gridtolerance="10" inkscape:window-maximized="1" inkscape:zoom="7.3065014" objecttolerance="10" borderopacity="1" inkscape:current-layer="svg6287" inkscape:cx="-0.069432436" inkscape:cy="16.15" inkscape:window-y="0" inkscape:window-x="0" inkscape:window-width="1680" showgrid="false" inkscape:pageopacity="0" inkscape:window-height="997"/>
	<defs>
		<radialGradient id="radialGradient9494" gradientUnits="userSpaceOnUse" cy="116.65" cx="831.66" gradientTransform="translate(0,-23)" r="16.387">
			<stop stop-color="#E7ECEF" offset="0"/>
			<stop stop-color="#BFC8CD" offset="1"/>
		</radialGradient>
		<linearGradient id="linearGradient9496" y2="131.64" gradientUnits="userSpaceOnUse" y1="99.58" gradientTransform="translate(0,-23)" x2="839.57" x1="831.2">
			<stop stop-color="#fff" offset="0"/>
			<stop stop-color="#B7C6CE" offset="1"/>
		</linearGradient>
		<linearGradient id="linearGradient9500" y2="118.06" gradientUnits="userSpaceOnUse" y1="86.904" gradientTransform="translate(0,-23)" x2="835.42" x1="824.68">
			<stop stop-color="#fff" offset="0"/>
			<stop offset="1"/>
		</linearGradient>
		<linearGradient id="linearGradient9502" y2="98.597" gradientUnits="userSpaceOnUse" y1="112.78" gradientTransform="translate(0,-23)" x2="832.17" x1="832.17">
			<stop stop-color="#fff" offset="0"/>
			<stop stop-color="#B7C6CE" offset="1"/>
		</linearGradient>
	</defs>
	<g transform="translate(-815.51 -66.106)">
		<path inkscape:connector-curvature="0" fill="url(#radialGradient9494)" d="m831.66 98.155c-8.769 0-15.898-7.132-15.898-15.898s7.132-15.898 15.898-15.898 15.896 7.131 15.896 15.898c0.003 8.766-7.129 15.898-15.896 15.898z"/>
		<path inkscape:connector-curvature="0" fill="#8b98a0" d="m831.66 66.611c8.627 0 15.646 7.019 15.646 15.646s-7.019 15.646-15.646 15.646-15.646-7.018-15.646-15.646 7.019-15.646 15.646-15.646m0-0.505c-8.92 0-16.15 7.231-16.15 16.15s7.23 16.15 16.15 16.15c8.919 0 16.148-7.231 16.148-16.15 0.004-8.918-7.229-16.15-16.148-16.15z"/>
		<g opacity=".8">
			<path inkscape:connector-curvature="0" fill="url(#linearGradient9496)" d="m842.46 70.952c2.686 2.811 4.341 6.615 4.341 10.8 0 8.627-7.018 15.646-15.646 15.646-4.188 0-7.989-1.655-10.8-4.342 2.851 2.983 6.861 4.846 11.306 4.846 8.627 0 15.645-7.018 15.645-15.646 0-4.441-1.864-8.453-4.846-11.304z"/>
		</g>
		<path inkscape:connector-curvature="0" fill="url(#linearGradient9500)" d="m817.53 83.268c0-8.349 6.792-15.143 15.142-15.143 3.917 0 7.492 1.497 10.186 3.947-2.771-3.043-6.767-4.957-11.194-4.957-8.35 0-15.141 6.794-15.141 15.143 0 4.431 1.913 8.423 4.957 11.196-2.453-2.694-3.95-6.268-3.95-10.186z"/>
	</g>
	<g transform="translate(-.18408 -.047186)">
		<polygon opacity=".8" transform="matrix(1.305 0 0 1.305 -1068.6 -90.737)" points="838.22 76.705 826.11 76.705 826.11 88.818 838.22 88.818" enable-background="new    " fill="url(#linearGradient9502)"/>
		<polygon points="837.72 76.2 825.6 76.2 825.6 88.313 837.72 88.313" fill="#800000" transform="matrix(1.2712 0 0 1.2712 -1040.5 -88)"/>
	</g>
	<polygon transform="translate(-815.51 -66.106)" points="847.81 98.407 815.51 98.407 815.51 66.106 847.81 66.106" display="none" fill="none"/>
</svg>
