<?xml version="1.0" encoding="utf-8"?>
<!-- Generator: Adobe Illustrator 16.0.0, SVG Export Plug-In . SVG Version: 6.00 Build 0)  -->
<!DOCTYPE svg PUBLIC "-//W3C//DTD SVG 1.1//EN" "http://www.w3.org/Graphics/SVG/1.1/DTD/svg11.dtd">
<svg version="1.1" id="button_x5F_information" xmlns="http://www.w3.org/2000/svg" xmlns:xlink="http://www.w3.org/1999/xlink"
	 x="0px" y="0px" width="50px" height="50px" viewBox="0 0 50 50" enable-background="new 0 0 50 50" xml:space="preserve">
<g>
	<path fill="#68CFD1" d="M25,0.015c-13.798,0-24.984,11.188-24.984,24.986c0,13.798,11.187,24.984,24.984,24.984
		c13.799,0,24.984-11.187,24.984-24.984C49.984,11.202,38.799,0.015,25,0.015z M25,48.042c-12.726,0-23.042-10.316-23.042-23.041
		S12.275,1.959,25,1.959s23.041,10.317,23.041,23.042S37.727,48.042,25,48.042z"/>
	<path fill="#68CFD1" d="M40.5,23.685v-1.958H25.504c-0.866-0.737-1.965-1.202-3.17-1.276v-8.799l-14.2,14.2l14.2,14.199v-8.798
		c1.205-0.074,2.304-0.54,3.169-1.276H40.5v-1.958c-1.197,0-2.167-0.97-2.167-2.167C38.333,24.655,39.303,23.685,40.5,23.685z
		 M22,30.007c-2.291,0-4.155-1.863-4.155-4.155c0-2.291,1.864-4.155,4.155-4.155c2.292,0,4.155,1.864,4.155,4.155
		C26.155,28.144,24.292,30.007,22,30.007z"/>
</g>
</svg>
