<?xml version="1.0" encoding="UTF-8" standalone="no"?>
<svg id="background" xmlns:rdf="http://www.w3.org/1999/02/22-rdf-syntax-ns#" xmlns="http://www.w3.org/2000/svg" enable-background="new 0 0 1024 768" xml:space="preserve" height="768px" viewBox="0 0 1024 768" width="1024px" version="1.1" y="0px" x="0px" xmlns:cc="http://creativecommons.org/ns#" xmlns:dc="http://purl.org/dc/elements/1.1/">
	<g>
		<linearGradient id="rect17_1_" y2="303.86" gradientUnits="userSpaceOnUse" x2="799.58" gradientTransform="matrix(1 0 0 -1 -287.58 390.58)" y1="-343.71" x1="799.58">
			<stop stop-color="#007C61" stop-opacity=".6" offset="0"/>
			<stop stop-color="#00684E" stop-opacity=".6885" offset=".265"/>
			<stop stop-color="#005D57" stop-opacity=".8118" offset=".6339"/>
			<stop stop-color="#004F44" stop-opacity=".9" offset=".8978"/>
		</linearGradient>
		<g id="us_background">
			<g id="fondo">
				<rect height="766.94" width="1024" y="0.062" x="-.001" fill="#22b573"/>
			</g>
			<g id="us_titlebar">
				<polygon points="190.76 72.133 190.76 69.467 212.11 69.467 212.11 72.133 221.57 72.133 221.57 69.467 242.92 69.467 242.92 72.133 252.38 72.133 252.38 69.467 273.73 69.467 273.73 72.133 283.19 72.133 283.19 69.467 304.54 69.467 304.54 72.133 314 72.133 314 69.467 335.35 69.467 335.35 72.133 344.81 72.133 344.81 69.467 366.16 69.467 366.16 72.133 375.62 72.133 375.62 69.467 396.97 69.467 396.97 72.133 406.43 72.133 406.43 69.467 427.78 69.467 427.78 72.133 437.24 72.133 437.24 69.467 458.59 69.467 458.59 72.133 468.05 72.133 468.05 69.467 489.4 69.467 489.4 72.133 498.86 72.133 498.86 69.467 520.22 69.467 520.22 72.133 529.68 72.133 529.68 69.467 551.02 69.467 551.02 72.133 560.49 72.133 560.49 69.467 581.84 69.467 581.84 72.133 591.3 72.133 591.3 69.467 612.65 69.467 612.65 72.133 622.11 72.133 622.11 69.467 643.46 69.467 643.46 72.133 652.92 72.133 652.92 69.467 674.27 69.467 674.27 72.133 683.73 72.133 683.73 69.467 705.08 69.467 705.08 72.133 714.54 72.133 714.54 69.467 735.89 69.467 735.89 72.133 745.35 72.133 745.35 69.467 766.7 69.467 766.7 72.133 776.16 72.133 776.16 69.467 797.51 69.467 797.51 72.133 806.97 72.133 806.97 69.467 828.32 69.467 828.32 72.133 837.78 72.133 837.78 69.467 859.13 69.467 859.13 72.133 868.59 72.133 868.59 69.467 889.94 69.467 889.94 72.133 899.4 72.133 899.4 69.467 920.75 69.467 920.75 72.133 930.21 72.133 930.21 69.467 951.56 69.467 951.56 72.133 961.02 72.133 961.02 69.467 982.37 69.467 982.37 72.133 991.83 72.133 991.83 69.467 1013.2 69.467 1013.2 72.133 1013.2 75.317 1024 75.317 1024 50.317 -0.001 50.317 -0.001 75.317 5.9 75.317 5.9 72.133 5.9 69.467 27.25 69.467 27.25 72.133 36.711 72.133 36.711 69.467 58.061 69.467 58.061 72.133 67.521 72.133 67.521 69.467 88.871 69.467 88.871 72.133 98.331 72.133 98.331 69.467 119.68 69.467 119.68 72.133 129.14 72.133 129.14 69.467 150.49 69.467 150.49 72.133 159.95 72.133 159.95 69.467 181.3 69.467 181.3 72.133" fill="#196352"/>
				<rect height="60.819" width="1024" y="0" x="-.001" fill="#aca943"/>
				<g fill="#ac8b37">
					<rect height="63.486" width="21.704" y="0" x="-.001"/>
					<rect height="63.486" width="21.704" y="0" x="31.321"/>
					<rect height="63.486" width="21.704" y="0" x="31.321"/>
					<rect height="63.486" width="21.704" y="0" x="62.643"/>
					<rect height="63.486" width="21.704" y="0" x="62.643"/>
					<rect height="63.486" width="21.704" y="0" x="93.964"/>
					<rect height="63.486" width="21.704" y="0" x="93.964"/>
					<rect height="63.486" width="21.704" y="0" x="125.29"/>
					<rect height="63.486" width="21.704" y="0" x="125.29"/>
					<rect height="63.486" width="21.704" y="0" x="156.61"/>
					<rect height="63.486" width="21.704" y="0" x="156.61"/>
					<rect height="63.486" width="21.704" y="0" x="187.93"/>
					<rect height="63.486" width="21.704" y="0" x="187.93"/>
					<rect height="63.486" width="21.704" y="0" x="219.25"/>
					<rect height="63.486" width="21.704" y="0" x="219.25"/>
					<rect height="63.486" width="21.704" y="0" x="250.57"/>
					<rect height="63.486" width="21.704" y="0" x="250.57"/>
					<rect height="63.486" width="21.704" y="0" x="281.89"/>
					<rect height="63.486" width="21.704" y="0" x="281.89"/>
					<rect height="63.486" width="21.704" y="0" x="313.22"/>
					<rect height="63.486" width="21.704" y="0" x="313.22"/>
					<rect height="63.486" width="21.704" y="0" x="344.54"/>
					<rect height="63.486" width="21.704" y="0" x="344.54"/>
					<rect height="63.486" width="21.704" y="0" x="375.86"/>
					<rect height="63.486" width="21.704" y="0" x="375.86"/>
					<rect height="63.486" width="21.704" y="0" x="407.18"/>
					<rect height="63.486" width="21.704" y="0" x="407.18"/>
					<rect height="63.486" width="21.704" y="0" x="438.5"/>
					<rect height="63.486" width="21.704" y="0" x="438.5"/>
					<rect height="63.486" width="21.704" y="0" x="469.83"/>
					<rect height="63.486" width="21.704" y="0" x="469.83"/>
					<rect height="63.486" width="21.703" y="0" x="501.15"/>
					<rect height="63.486" width="21.703" y="0" x="501.15"/>
					<rect height="63.486" width="21.705" y="0" x="532.47"/>
					<rect height="63.486" width="21.705" y="0" x="532.47"/>
					<rect height="63.486" width="21.704" y="0" x="563.79"/>
					<rect height="63.486" width="21.704" y="0" x="563.79"/>
					<rect height="63.486" width="21.705" y="0" x="595.11"/>
					<rect height="63.486" width="21.705" y="0" x="595.11"/>
					<rect height="63.486" width="21.704" y="0" x="626.44"/>
					<rect height="63.486" width="21.704" y="0" x="626.44"/>
					<rect height="63.486" width="21.705" y="0" x="657.76"/>
					<rect height="63.486" width="21.705" y="0" x="657.76"/>
					<rect height="63.486" width="21.704" y="0" x="689.08"/>
					<rect height="63.486" width="21.704" y="0" x="689.08"/>
					<rect height="63.486" width="21.705" y="0" x="720.4"/>
					<rect height="63.486" width="21.705" y="0" x="720.4"/>
					<rect height="63.486" width="21.704" y="0" x="751.72"/>
					<rect height="63.486" width="21.704" y="0" x="751.72"/>
					<rect height="63.486" width="21.705" y="0" x="783.04"/>
					<rect height="63.486" width="21.705" y="0" x="783.04"/>
					<rect height="63.486" width="21.704" y="0" x="814.36"/>
					<rect height="63.486" width="21.704" y="0" x="814.36"/>
					<rect height="63.486" width="21.705" y="0" x="845.69"/>
					<rect height="63.486" width="21.705" y="0" x="845.69"/>
					<rect height="63.486" width="21.704" y="0" x="877.01"/>
					<rect height="63.486" width="21.704" y="0" x="877.01"/>
					<rect height="63.486" width="21.705" y="0" x="908.33"/>
					<rect height="63.486" width="21.705" y="0" x="908.33"/>
					<rect height="63.486" width="21.704" y="0" x="939.65"/>
					<rect height="63.486" width="21.704" y="0" x="939.65"/>
					<rect height="63.486" width="21.704" y="0" x="970.97"/>
					<rect height="63.486" width="21.704" y="0" x="970.97"/>
					<rect height="63.486" width="21.704" y="0" x="1002.3"/>
				</g>
				<path id="us_title" opacity=".25" d="m7.979 0.965h1011.3c3.865 0 7 2.513 7 5.614v51.54c0 3.1-3.135 5.614-7 5.614h-1011.3c-3.866 0-7-2.514-7-5.614v-51.54c0-3.1 3.133-5.614 7-5.614z" enable-background="new    "/>
			</g>
			<g id="us_floor">
				<g fill="#48ff82">
					<path opacity=".4" d="m99.369 132.94c-1.139 1.349-1.829 3.089-1.829 4.993 0 4.278 3.468 7.745 7.746 7.745 4.277 0 7.745-3.467 7.745-7.745s-3.468-7.745-7.745-7.745c-0.059 0-0.116 0.007-0.175 0.009l-25.534-25.535h-79.577v6h77.091l22.278 22.278z" enable-background="new    "/>
					<polygon opacity=".4" points="0 140.8 0 150.39 39.173 185.9 39.173 689.82 78.8 729.44 920.59 729.44 957.18 768.06 965.61 768 923.16 723.44 81.285 723.44 45.173 687.33 45.173 183" enable-background="new    "/>
					<polygon opacity=".4" points="0 164.67 0 173.2 16.855 190.05 16.855 699.96 67.448 750.55 790.92 750.55 810.81 768 819.87 768.13 793.18 744.55 69.934 744.55 22.855 697.48 22.855 187.56" enable-background="new    "/>
					<polygon opacity=".4" points="1014.3 464.26 1014.3 168.39 1024 158.6 1024 150.38 1008.3 165.91 1008.3 461.77 982.27 487.84 982.27 667.58 1024 709.12 1024 700.97 988.27 665.1 988.27 490.33" enable-background="new    "/>
					<path opacity=".4" d="m935.31 671.2c0.262-0.778 0.408-1.607 0.408-2.475 0-4.295-3.48-7.775-7.775-7.775s-7.776 3.48-7.776 7.775 3.481 7.776 7.776 7.776c1.22 0 2.37-0.289 3.396-0.789l92.66 92.29v-8.11l-88.69-88.69z" enable-background="new    "/>
				</g>
				<g fill="#196352">
					<polygon points="896.52 68.73 954.29 126.5 940.77 68.73"/>
					<polygon points="339 770 0 770 0 705 -0.001 698.33 55.333 758 327 758"/>
					<polygon points="55.643 552.5 55.643 683.5 83.884 711.74 155 711.74 147.85 704.59 97.816 704.59 75.536 682.31 66.495 682.31 66.495 571.5"/>
					<polygon points="917.9 747.4 888.07 747.4 883.4 742.74 826.07 742.74 851.4 768.07 937.07 768.07"/>
					<polygon points="130.63 100.38 130.63 67.5 0 67.5 0 87 82 87 113 118"/>
				</g>
				<g fill="#196352">
					<polygon points="951.56 90.987 951.56 123.98 982 154.42 982 316.91 951.56 347.35 951.56 375.09 980.41 403.94 980.41 442.59 996.01 426.99 996.01 156.35 1024.8 127.59 1024.8 84.338 951.56 84.338"/>
					<polygon points="951.56 132.47 951.56 324.09 951.56 338.86 976 314.42 976 156.91"/>
				</g>
				<rect id="r" opacity=".5" height="699.32" width="1024" y="69" x="-.001" enable-background="new    " fill="url(#rect17_1_)"/>
				<polygon points="1025.2 88.5 1024 65.25 934.25 67 951.75 120" fill="#196352"/>
			</g>
		</g>
	</g>
	<g>
		<g id="us_air_tube_pod" transform="translate(153.71 195.22)">
			<path fill="#039b78" d="m50.403 11.48c0 5.576-4.519 10.095-10.094 10.095h-28.328c-5.575 0-10.094-4.52-10.094-10.095 0-5.576 4.52-10.095 10.094-10.095h28.329c5.575 0.001 10.093 4.52 10.093 10.095z"/>
			<path fill="#22bc8b" d="m11.823 0h-0.343c-6.34 0-11.48 5.14-11.48 11.48s5.14 11.48 11.48 11.48h0.343v-22.96z"/>
			<path fill="#22bc8b" d="m39.719 22.96h0.343c6.34 0 11.48-5.14 11.48-11.479 0-6.34-5.141-11.48-11.48-11.48h-0.343v22.959z"/>
			<path fill="#00111a" d="m38.453 14.058c0 2.354-1.91 4.265-4.267 4.265h-16.882c-2.355 0-4.265-1.91-4.265-4.265v-5.155c0-2.355 1.91-4.265 4.265-4.265h16.883c2.355 0 4.267 1.91 4.267 4.265v5.155z"/>
			<rect opacity=".8" style="enable-background:new" height="22.951" width="1.424" y="0" x="39.052" fill="#003f3d"/>
			<rect opacity=".8" style="enable-background:new" height="22.951" width="1.423" y="0" x="11.112" fill="#00111a"/>
		</g>
		<g id="us_air_tube_short" transform="translate(187.53 185.86)">
			<linearGradient id="SVGID_1_" y2="1126.9" gradientUnits="userSpaceOnUse" y1="1097.4" gradientTransform="matrix(1 0 0 -1 78 1133.7)" x2="-35.989" x1="-35.989">
				<stop stop-color="#F4F4F4" stop-opacity="0" offset="0"/>
				<stop stop-color="#B3B3B3" stop-opacity=".4" offset="1"/>
			</linearGradient>
			<rect height="34.538" width="77.132" stroke="#ccc" stroke-miterlimit="10" y="3.412" x="3.446" stroke-width="2.0714" fill="url(#SVGID_1_)"/>
			<linearGradient id="SVGID_2_" y2="531.12" gradientUnits="userSpaceOnUse" y1="543.91" gradientTransform="matrix(-1 0 0 1 538.57 -523.95)" x2="496.56" x1="496.56">
				<stop stop-color="#F4F4F4" stop-opacity="0" offset="0"/>
				<stop stop-color="#F8F8F8" stop-opacity=".6043" offset=".5068"/>
				<stop stop-color="#fff" offset=".8387"/>
			</linearGradient>
			<rect height="14.586" width="71.907" y="6.094" x="6.058" fill="url(#SVGID_2_)"/>
			<linearGradient id="SVGID_3_" y2="1098.7" gradientUnits="userSpaceOnUse" y1="1107.3" gradientTransform="matrix(1 0 0 -1 78 1133.7)" x2="-37.34" x1="-37.34">
				<stop stop-color="#F4F4F4" stop-opacity=".6" offset="0"/>
				<stop stop-color="#E9E9E9" stop-opacity=".6329" offset=".0986"/>
				<stop stop-color="#ccc" stop-opacity=".741" offset=".4219"/>
				<stop stop-color="#B9B9B9" stop-opacity=".8338" offset=".6996"/>
				<stop stop-color="#B3B3B3" stop-opacity=".9" offset=".8978"/>
			</linearGradient>
			<rect height="9.25" width="74.428" y="25.944" x="3.446" fill="url(#SVGID_3_)"/>
			<linearGradient id="SVGID_4_" y2="1098.4" gradientUnits="userSpaceOnUse" y1="1100.4" gradientTransform="matrix(1 0 0 -1 78 1133.7)" x2="-37.34" x1="-37.34">
				<stop stop-color="#F4F4F4" stop-opacity=".6" offset="0"/>
				<stop stop-color="#E9E9E9" stop-opacity=".6329" offset=".0986"/>
				<stop stop-color="#ccc" stop-opacity=".741" offset=".4219"/>
				<stop stop-color="#B9B9B9" stop-opacity=".8338" offset=".6996"/>
				<stop stop-color="#B3B3B3" stop-opacity=".9" offset=".8978"/>
			</linearGradient>
			<rect height="2.188" width="74.428" y="33.132" x="3.446" fill="url(#SVGID_4_)"/>
			<linearGradient id="SVGID_5_" y2="1132.9" gradientUnits="userSpaceOnUse" y1="1092.8" gradientTransform="matrix(1 0 0 -1 78 1133.7)" x2="-74.555" x1="-74.555">
				<stop stop-color="#31312F" offset="0"/>
				<stop stop-color="#31312F" offset=".1541"/>
				<stop stop-color="#D2C494" offset=".8667"/>
				<stop stop-color="#A58661" offset="1"/>
			</linearGradient>
			<path d="m6.058 38.759c0 1.166-1.17 2.111-2.612 2.111-1.443 0-2.612-0.945-2.612-2.111v-35.838c0-1.166 1.169-2.112 2.612-2.112 1.442 0 2.612 0.946 2.612 2.112v35.838z" stroke="#d1bd96" stroke-miterlimit="10" fill="url(#SVGID_5_)"/>
			<linearGradient id="SVGID_6_" y2="1132.9" gradientUnits="userSpaceOnUse" y1="1092.8" gradientTransform="matrix(1 0 0 -1 78 1133.7)" x2="2.5771" x1="2.5771">
				<stop stop-color="#31312F" offset="0"/>
				<stop stop-color="#31312F" offset=".1541"/>
				<stop stop-color="#D2C494" offset=".8667"/>
				<stop stop-color="#A58661" offset="1"/>
			</linearGradient>
			<path d="m83.19 38.759c0 1.166-1.17 2.111-2.612 2.111-1.443 0-2.612-0.945-2.612-2.111v-35.838c0-1.166 1.169-2.112 2.612-2.112 1.442 0 2.612 0.946 2.612 2.112v35.838z" stroke="#d1bd96" stroke-miterlimit="10" fill="url(#SVGID_6_)"/>
		</g>
		<g id="us_chip_damaged" transform="translate(288.3 146.27)">
			<g id="chip_x5F_damaged" display="none">
				<g display="inline">
					<linearGradient id="SVGID_1_-3" y2="-560.74" gradientUnits="userSpaceOnUse" y1="-560.74" gradientTransform="matrix(1 -.0063 .0063 1 234.27 657.81)" x2="-146.54" x1="-152.87">
						<stop stop-color="#2C2B2D" offset="0"/>
						<stop stop-color="#737474" offset=".6169"/>
					</linearGradient>
					<g stroke-miterlimit="10">
						<path d="m78.931 98.242c0.003 0 0.004 0 0.007 0.001 1.894 0.517 2.724 1.981 2.745 3.491l0.549-0.031c-0.359-1.695 0.287-3.645 1.955-4.433l-0.006-0.764c-1.188-0.334-1.975-1.194-2.351-2.226l-1.779 0.013c0.327 1.403-0.051 2.982-1.12 3.952z" stroke="#808080" stroke-width="1.2257" fill="url(#SVGID_1_-3)"/>
						<path d="m63.996 23.21 4.979-1.392 0.532-1.16-0.629-1.5-1.064-0.871s3.531-0.436 4.111 0.581 1.16 2.949 1.16 2.949l-0.603 0.888v0.219l-8.486 0.286z" stroke="#2d2d2e" stroke-width="1.5476" fill="#3c2f39"/>
						<path d="m88.758 24.384s2.343-0.547 2.812-2.281c0.471-1.732 0.513-3.648 0.513-3.648l5.425 3.304s0.996 2.998-1.173 3.314c-2.172 0.317-7.577-0.689-7.577-0.689z" stroke="#2d2d2e" stroke-width="1.3668" fill="#3c2f39"/>
					</g>
					<radialGradient id="SVGID_2_-6" cx="4.7087" gradientUnits="userSpaceOnUse" cy="-238.84" r="7.7778" gradientTransform="translate(78,350)">
						<stop stop-color="#31312F" offset=".0538"/>
						<stop stop-color="#31312F" offset=".31"/>
						<stop stop-color="#4B4236" offset=".4736"/>
						<stop stop-color="#5E4F3A" offset=".6414"/>
						<stop stop-color="#69573D" offset=".8146"/>
						<stop stop-color="#6D593E" offset="1"/>
					</radialGradient>
					<circle cy="111.16" cx="82.709" r="7.778" fill="url(#SVGID_2_-6)"/>
					<circle cy="111.16" cx="82.709" r="5.343" fill="#352d2d"/>
					<radialGradient id="SVGID_3_-7" cx="-22.454" gradientUnits="userSpaceOnUse" cy="-238.84" r="7.7781" gradientTransform="translate(78,350)">
						<stop stop-color="#31312F" offset=".0538"/>
						<stop stop-color="#31312F" offset=".31"/>
						<stop stop-color="#BEBFA0" offset=".7807"/>
						<stop stop-color="#A58661" offset="1"/>
					</radialGradient>
					<circle cy="111.16" cx="55.546" r="7.778" fill="url(#SVGID_3_-7)"/>
					<circle cy="111.16" cx="55.546" r="5.343" fill="#352d2d"/>
					<linearGradient id="SVGID_4_-5" y2="-244.45" gradientUnits="userSpaceOnUse" y1="-250.78" gradientTransform="translate(78,350)" x2="-22.473" x1="-22.473">
						<stop stop-color="#2C2B2D" offset="0"/>
						<stop stop-color="#737474" offset=".6169"/>
					</linearGradient>
					<rect height="20.569" width="6.334" stroke="#808080" stroke-miterlimit="10" y="85.69" x="52.361" stroke-width="1.2257" fill="url(#SVGID_4_-5)"/>
					<polyline stroke="#999" points="52.361 106.26 53.587 108.13 57.265 108.13 58.695 106.26" stroke-miterlimit="10" stroke-width=".86670" fill="#808080"/>
					<radialGradient id="SVGID_5_-3" cx="-49.618" gradientUnits="userSpaceOnUse" cy="-238.84" r="7.7781" gradientTransform="translate(78,350)">
						<stop stop-color="#31312F" offset=".0538"/>
						<stop stop-color="#31312F" offset=".31"/>
						<stop stop-color="#BEBFA0" offset=".7807"/>
						<stop stop-color="#A58661" offset="1"/>
					</radialGradient>
					<circle cy="111.16" cx="28.382" r="7.778" fill="url(#SVGID_5_-3)"/>
					<circle cy="111.16" cx="28.382" r="5.343" fill="#352d2d"/>
					<linearGradient id="SVGID_6_-5" y2="-244.45" gradientUnits="userSpaceOnUse" y1="-250.78" gradientTransform="translate(78,350)" x2="-49.636" x1="-49.636">
						<stop stop-color="#2C2B2D" offset="0"/>
						<stop stop-color="#737474" offset=".6169"/>
					</linearGradient>
					<rect height="20.569" width="6.332" stroke="#808080" stroke-miterlimit="10" y="85.69" x="25.198" stroke-width="1.2257" fill="url(#SVGID_6_-5)"/>
					<polyline stroke="#999" points="25.198 106.26 26.423 108.13 30.1 108.13 31.531 106.26" stroke-miterlimit="10" stroke-width=".86670" fill="#808080"/>
					<radialGradient id="SVGID_7_" cx="272.87" gradientUnits="userSpaceOnUse" cy="-538.82" r="7.7781" gradientTransform="matrix(-1 0 0 -1 301.25 -530.8)">
						<stop stop-color="#31312F" offset=".0538"/>
						<stop stop-color="#31312F" offset=".31"/>
						<stop stop-color="#BEBFA0" offset=".7807"/>
						<stop stop-color="#A58661" offset="1"/>
					</radialGradient>
					<circle cy="8.02" cx="28.382" r="7.778" fill="url(#SVGID_7_)"/>
					<circle cy="8.02" cx="28.382" r="5.343" fill="#352d2d"/>
					<linearGradient id="SVGID_8_" y2="-514.91" gradientUnits="userSpaceOnUse" y1="-514.91" gradientTransform="matrix(-.963 .2695 -.2695 -.963 186.6 -566.07)" x2="314.81" x1="308.47">
						<stop stop-color="#2C2B2D" offset="0"/>
						<stop stop-color="#737474" offset=".6169"/>
					</linearGradient>
					<path d="m27.214 13.002h-0.007c-1.961 0-3.147-1.196-3.567-2.646l-0.521 0.177c0.796 1.542 0.684 3.591-0.719 4.791l0.207 0.737c1.234 0.009 2.22 0.631 2.854 1.526l1.713-0.479c-0.684-1.266-0.736-2.889 0.04-4.106z" stroke="#808080" stroke-miterlimit="10" stroke-width="1.2257" fill="url(#SVGID_8_)"/>
					<linearGradient id="SVGID_9_" y2="-275.02" gradientUnits="userSpaceOnUse" y1="-275.02" gradientTransform="matrix(.9467 .3222 -.3222 .9467 -55.175 287.23)" x2=".4612" x1="-5.8718">
						<stop stop-color="#2C2B2D" offset="0"/>
						<stop stop-color="#737474" offset=".6169"/>
					</linearGradient>
					<path d="m30.212 18.077c1.84 2.094 0.554 5.872-2.182 6.407l-2.582 7.589 5.995 2.041 3.992-11.731c-0.871-0.832-1.172-1.996-1.031-3.12" stroke="#808080" stroke-miterlimit="10" stroke-width="1.2257" fill="url(#SVGID_9_)"/>
					<radialGradient id="SVGID_10_" cx="245.71" gradientUnits="userSpaceOnUse" cy="-538.82" r="7.7781" gradientTransform="matrix(-1 0 0 -1 301.25 -530.8)">
						<stop stop-color="#31312F" offset=".0538"/>
						<stop stop-color="#31312F" offset=".31"/>
						<stop stop-color="#4B4236" offset=".4736"/>
						<stop stop-color="#5E4F3A" offset=".6414"/>
						<stop stop-color="#69573D" offset=".8146"/>
						<stop stop-color="#6D593E" offset="1"/>
					</radialGradient>
					<circle cy="8.02" cx="55.546" r="7.778" fill="url(#SVGID_10_)"/>
					<circle cy="8.02" cx="55.546" r="5.343" fill="#352d2d"/>
					<linearGradient id="SVGID_11_" y2="-544.44" gradientUnits="userSpaceOnUse" y1="-550.76" gradientTransform="matrix(-1 0 0 -1 301.25 -530.8)" x2="245.69" x1="245.69">
						<stop stop-color="#2C2B2D" offset="0"/>
						<stop stop-color="#737474" offset=".6169"/>
					</linearGradient>
					<rect height="20.568" width="6.334" stroke="#808080" stroke-miterlimit="10" y="12.926" x="52.398" stroke-width="1.2257" fill="url(#SVGID_11_)"/>
					<polyline stroke="#999" points="58.732 12.926 57.505 11.055 53.828 11.055 52.398 12.926" stroke-miterlimit="10" stroke-width=".86670" fill="#808080"/>
					<radialGradient id="SVGID_12_" cx="218.54" gradientUnits="userSpaceOnUse" cy="-538.82" r="7.7776" gradientTransform="matrix(-1 0 0 -1 301.25 -530.8)">
						<stop stop-color="#31312F" offset=".0538"/>
						<stop stop-color="#31312F" offset=".31"/>
						<stop stop-color="#BEBFA0" offset=".7807"/>
						<stop stop-color="#A58661" offset="1"/>
					</radialGradient>
					<circle cy="8.02" cx="82.709" r="7.778" fill="url(#SVGID_12_)"/>
					<circle cy="8.02" cx="82.71" r="5.342" fill="#352d2d"/>
					<linearGradient id="SVGID_13_" y2="-544.44" gradientUnits="userSpaceOnUse" y1="-550.76" gradientTransform="matrix(-1 0 0 -1 301.25 -530.8)" x2="218.52" x1="218.52">
						<stop stop-color="#2C2B2D" offset="0"/>
						<stop stop-color="#737474" offset=".6169"/>
					</linearGradient>
					<rect height="20.568" width="6.334" stroke="#808080" stroke-miterlimit="10" y="12.926" x="79.562" stroke-width="1.2257" fill="url(#SVGID_13_)"/>
					<polyline stroke="#999" points="85.896 12.926 84.669 11.055 80.992 11.055 79.562 12.926" stroke-miterlimit="10" stroke-width=".86670" fill="#808080"/>
					<path fill="#392c36" d="m109.61 87.373c0 4.995-4.048 9.042-9.041 9.042h-91.334c-4.991 0-9.042-4.048-9.042-9.042v-53.14c0-4.993 4.05-9.042 9.042-9.042h91.334c4.993 0 9.041 4.05 9.041 9.042v53.14z"/>
					<path fill="#363139" d="m108.29 84.343c0 4.883-3.959 8.842-8.84 8.842h-89.311c-4.883 0-8.842-3.959-8.842-8.842v-51.962c0-4.884 3.958-8.843 8.842-8.843h89.312c4.881 0 8.84 3.958 8.84 8.843v51.962z"/>
					<linearGradient id="SVGID_14_" y2="-372.96" gradientUnits="userSpaceOnUse" y1="-395.25" gradientTransform="matrix(-4.3711e-8 -1 1 -4.3711e-8 397.85 -176.74)" x2="-206.1" x1="-221.51">
						<stop stop-color="#464554" offset="0"/>
						<stop stop-color="#4A4957" offset=".095"/>
						<stop stop-color="#555461" offset=".1821"/>
						<stop stop-color="#676672" offset=".2662"/>
						<stop stop-color="#818189" offset=".3484"/>
						<stop stop-color="#A3A2A7" offset=".429"/>
						<stop stop-color="#CBCBCB" offset=".5078"/>
						<stop stop-color="#ccc" offset=".5095"/>
						<stop stop-color="#B3B2B5" offset=".5608"/>
						<stop stop-color="#86868E" offset=".6618"/>
						<stop stop-color="#63636F" offset=".759"/>
						<stop stop-color="#4A4A58" offset=".8503"/>
						<stop stop-color="#3B3A4B" offset=".9331"/>
						<stop stop-color="#363546" offset="1"/>
					</linearGradient>
					<path opacity=".2" d="m0.498 32.225v17.508h22.237v-26.808h-12.938c-5.136 0.001-9.299 4.166-9.299 9.3z" enable-background="new    " fill="url(#SVGID_14_)"/>
					<linearGradient id="SVGID_15_" y2="-522.36" gradientUnits="userSpaceOnUse" y1="-544.65" gradientTransform="matrix(-1 0 0 -1 -201.2 -453.01)" x2="-208.38" x1="-223.79">
						<stop stop-color="#4A4958" offset="0"/>
						<stop stop-color="#4E4D5B" offset=".0963"/>
						<stop stop-color="#595865" offset=".1847"/>
						<stop stop-color="#6B6A76" offset=".27"/>
						<stop stop-color="#85858D" offset=".3533"/>
						<stop stop-color="#A6A6AA" offset=".4345"/>
						<stop stop-color="#ccc" offset=".5095"/>
						<stop stop-color="#B9B8BB" offset=".55"/>
						<stop stop-color="#8C8C93" offset=".6535"/>
						<stop stop-color="#696974" offset=".7532"/>
						<stop stop-color="#50505E" offset=".8466"/>
						<stop stop-color="#414051" offset=".9315"/>
						<stop stop-color="#3C3B4C" offset="1"/>
					</linearGradient>
					<path opacity=".1" d="m10.041 93.748h17.509v-22.237h-26.808v12.938c-0.001 5.137 4.164 9.299 9.299 9.299z" enable-background="new    " fill="url(#SVGID_15_)"/>
					<linearGradient id="SVGID_16_" y2="-522.36" gradientUnits="userSpaceOnUse" y1="-544.65" gradientTransform="matrix(1 0 0 -1 338.21 -453.01)" x2="-235.81" x1="-251.22">
						<stop stop-color="#464554" offset="0"/>
						<stop stop-color="#4A4957" offset=".095"/>
						<stop stop-color="#555461" offset=".1821"/>
						<stop stop-color="#676672" offset=".2662"/>
						<stop stop-color="#818189" offset=".3484"/>
						<stop stop-color="#A3A2A7" offset=".429"/>
						<stop stop-color="#CBCBCB" offset=".5078"/>
						<stop stop-color="#ccc" offset=".5095"/>
						<stop stop-color="#B3B2B5" offset=".5608"/>
						<stop stop-color="#86868E" offset=".6618"/>
						<stop stop-color="#63636F" offset=".759"/>
						<stop stop-color="#4A4A58" offset=".8503"/>
						<stop stop-color="#3B3A4B" offset=".9331"/>
						<stop stop-color="#363546" offset="1"/>
					</linearGradient>
					<path opacity=".1" d="m99.537 93.748h-17.511v-22.237h26.811v12.938c-0.002 5.137-4.166 9.299-9.3 9.299z" enable-background="new    " fill="url(#SVGID_16_)"/>
					<linearGradient id="SVGID_17_" y2="-266.19" gradientUnits="userSpaceOnUse" y1="-325.52" gradientTransform="translate(78,350)" x2="-13.57" x1="-39.622">
						<stop stop-color="#455762" offset="0"/>
						<stop stop-color="#43525D" offset=".2069"/>
						<stop stop-color="#3F4450" offset=".4472"/>
						<stop stop-color="#382D3A" offset=".7032"/>
						<stop stop-color="#34222F" offset=".801"/>
					</linearGradient>
					<path opacity=".2" d="m99.072 81.783c0 4.123-3.343 7.464-7.466 7.464h-75.397c-4.122 0-7.464-3.343-7.464-7.464v-43.868c0-4.121 3.342-7.464 7.464-7.464h75.396c4.123 0 7.466 3.343 7.466 7.464v43.868h0.001z" enable-background="new    " fill="url(#SVGID_17_)"/>
					<path fill="#3c2f39" d="m97.382 80.963c0 3.968-3.218 7.186-7.187 7.186h-72.575c-3.969 0-7.187-3.218-7.187-7.186v-42.227c0-3.968 3.218-7.185 7.187-7.185h72.576c3.969 0 7.187 3.216 7.187 7.185l-0.001 42.227z"/>
					<path fill="#404a4d" d="m99.449 93.798h-89.311c-5.213 0-9.455-4.242-9.455-9.455v-51.962c0-5.213 4.242-9.455 9.455-9.455h89.312c5.213 0 9.451 4.242 9.451 9.455v51.962c0.001 5.213-4.239 9.455-9.452 9.455zm-89.311-69.647c-4.538 0-8.229 3.691-8.229 8.229v51.962c0 4.537 3.689 8.229 8.229 8.229h89.312c4.534 0 8.227-3.69 8.227-8.229v-51.961c0-4.537-3.689-8.229-8.227-8.229l-89.312-0.001z"/>
					<path fill="#1c0e19" d="m109.61 34.233c0-1.475-0.357-2.861-0.984-4.092-1.012-4.135-4.734-7.216-9.174-7.216h-35.508l-0.616 1.226v7.4s-1.608 0.316-2.437 1.942 7.168 6.784 7.168 6.784l2.322-3.949 4.552 2.401s1.715 2.838 0 3.354-5.326 5.158-5.326 5.158l2.837 6.189 2.489 1.806h4.593l5.041 3.122v2.443s-0.911 2.432-1.873 2.948c-0.963 0.516-0.665 4.643-0.665 4.643s0.991 1.289 2.538 1.289c1.551 0 1.301 0.517 3.486-1.032 2.189-1.547 2.963-2.837 3.994-2.321 1.032 0.517 3.416 2.063 3.385 2.58-0.03 0.517 1.431 4.551 2.535 0.855 1.104-3.693 0.584-5.758 0-6.531-0.585-0.772-2.536-2.432-2.536-2.432l5.901-2.443s4.9 0.527 4.127 2.443-2.321 3.463-1.289 5.011c1.031 1.548 3.505 3.354 3.505 3.354l1.228-0.518 0.707-0.723-0.001-33.691z"/>
					<path fill="#1e1e1f" d="m109.55 66.907-0.719 0.705-0.377 0.387-0.671 0.282c-0.692-0.538-2.25-1.81-2.976-2.896-0.467-0.701-0.102-1.449 0.584-2.712 0.271-0.499 0.553-1.015 0.779-1.58 0.219-0.541 0.181-1.081-0.107-1.563-0.877-1.463-4.029-1.871-4.652-1.938l-0.197-0.021-7.253 3.004 0.965 0.819c0.524 0.446 1.982 1.729 2.419 2.309 0.434 0.572 0.895 2.446-0.124 5.845-0.144 0.479-0.271 0.743-0.357 0.884-0.278-0.342-0.632-1.187-0.662-1.473 0.082-1.354-3.772-3.299-3.813-3.318-0.262-0.13-0.533-0.197-0.807-0.197-0.812 0-1.447 0.537-2.328 1.279-0.463 0.389-0.987 0.831-1.651 1.301-1.271 0.899-1.556 0.973-1.772 0.973-0.105 0-0.213-0.014-0.34-0.025-0.24-0.025-0.529-0.057-0.928-0.057-0.852 0-1.508-0.556-1.782-0.833-0.095-1.658 0.052-3.369 0.273-3.646 1.16-0.622 2.064-2.906 2.233-3.357l0.05-0.132v-3.017l-5.595-3.464h-4.563l-2.121-1.539-2.554-5.575c1.461-1.823 3.695-4.239 4.647-4.525 0.567-0.172 0.978-0.537 1.178-1.058 0.496-1.288-0.528-3.09-0.737-3.438l-0.106-0.185-5.397-2.846-2.284 3.885c-3.286-2.194-6.076-4.611-6.196-5.394 0.645-1.206 1.823-1.473 1.867-1.481l0.625-0.123v-7.853l0.32-0.637h0.303c0.459-0.773 0.175-0.9 0.146-0.953-0.974-0.069-1.402-0.03-1.699 0l-0.616 1.222v7.024c-0.665 0.272-1.706 0.881-2.352 2.15-0.945 1.858 3.521 5.26 7.438 7.786l0.678 0.438 2.354-4.009 3.7 1.952c0.334 0.617 0.663 1.522 0.517 1.902-0.014 0.037-0.033 0.087-0.179 0.131-1.856 0.559-5.086 4.616-5.715 5.424l-0.288 0.371 3.118 6.802 2.854 2.072h4.623l4.488 2.778v1.868c-0.4 1.018-1.063 2.192-1.467 2.409-1.16 0.622-1.225 3.271-1.07 5.382l0.018 0.23 0.143 0.184c0.051 0.065 1.246 1.593 3.15 1.593 0.326 0 0.564 0.025 0.764 0.048 1.021 0.107 1.465-0.015 3.172-1.223 0.718-0.507 1.292-0.99 1.754-1.38 0.559-0.47 1.088-0.915 1.332-0.915 0.014 0 0.047 0 0.115 0.034 1.046 0.523 2.63 1.62 2.966 2.042 0.069 0.635 0.538 1.854 1.129 2.481 0.418 0.441 0.831 0.536 1.103 0.536 1.186 0 1.655-1.576 1.813-2.096 1.401-4.688 0.26-6.711-0.125-7.22-0.353-0.465-0.48-0.617-1.094-1.171l3.952-2.444c1.237 0.16 2.975 0.629 3.3 1.173 0.023 0.041 0.046 0.076 0 0.188-0.195 0.483-0.453 0.96-0.703 1.42-0.713 1.313-1.521 2.798-0.513 4.311 1.096 1.645 3.589 3.473 3.692 3.549l0.354 0.259 1.771-0.747 0.263-0.148c-0.058-0.244 0.201-2.006-0.055-2.243z"/>
					<g opacity=".4">
						<path fill="#45302f" d="m101.22 57.57 0.197 0.021c0.313 0.033 1.26 0.152 2.237 0.447v-23.362h-3.739v23.436l1.305-0.542z"/>
					</g>
					<g opacity=".4" fill="#45302f">
						<path d="m91.468 67.028h0.241c-0.003-0.001-0.006-0.004-0.009-0.005-0.068-0.033-0.104-0.033-0.115-0.033-0.031-0.002-0.078 0.025-0.117 0.038z"/>
						<path d="m89.729 66.328c0.653-0.53 1.199-0.889 1.856-0.889 0.271 0 0.545 0.067 0.807 0.197 0.014 0.006 0.396 0.2 0.918 0.505v-20.574h-3.581v4.544h-4.819v3.676h4.818v12.541h0.001z"/>
					</g>
					<linearGradient id="SVGID_18_" y2="-303.45" gradientUnits="userSpaceOnUse" y1="-260.32" gradientTransform="translate(78,350)" x2="7.4601" x1="-53.696">
						<stop stop-color="#455762" stop-opacity="0" offset="0"/>
						<stop stop-color="#445560" stop-opacity=".3969" offset=".3512"/>
						<stop stop-color="#424D58" stop-opacity=".5981" offset=".5291"/>
						<stop stop-color="#3D404C" stop-opacity=".7553" offset=".6682"/>
						<stop stop-color="#372D3A" stop-opacity=".889" offset=".7865"/>
						<stop stop-color="#352633" stop-opacity=".9279" offset=".8209"/>
					</linearGradient>
					<path opacity=".6" d="m109.35 69.305-1.771 0.747-0.354-0.258c-0.104-0.077-2.599-1.906-3.693-3.55-1.008-1.513-0.199-2.999 0.514-4.311 0.25-0.46 0.508-0.937 0.703-1.42 0.046-0.112 0.023-0.146 0-0.188-0.325-0.543-2.063-1.014-3.301-1.174l-3.951 2.444c0.611 0.554 0.741 0.706 1.094 1.171 0.385 0.508 1.525 2.53 0.125 7.22-0.155 0.52-0.627 2.097-1.813 2.097-0.271 0-0.685-0.095-1.103-0.537-0.591-0.628-1.059-1.848-1.129-2.481-0.336-0.422-1.92-1.519-2.966-2.042-0.068-0.033-0.104-0.033-0.115-0.033-0.244 0-0.773 0.444-1.332 0.915-0.462 0.39-1.036 0.872-1.754 1.38-1.707 1.208-2.148 1.331-3.172 1.222-0.197-0.021-0.438-0.048-0.764-0.048-1.904 0-3.102-1.526-3.15-1.592l-0.143-0.185-0.018-0.23c-0.152-2.11-0.09-4.76 1.07-5.382 0.402-0.216 1.064-1.393 1.467-2.409v-1.867l-4.488-2.779h-4.622l-2.854-2.072-3.118-6.802 0.288-0.371c0.629-0.808 3.856-4.866 5.715-5.424 0.146-0.044 0.165-0.095 0.179-0.131 0.146-0.378-0.183-1.285-0.517-1.902l-3.7-1.952-2.355 4.009-0.677-0.438c-3.916-2.525-8.385-5.927-7.438-7.786 0.646-1.271 1.687-1.877 2.352-2.15v-7.024l0.434-0.856-0.548-0.186h-6.5l1.285 1.227-19.249 2.746 18.348 0.871-18.348 6.906 20.756 1.653-14.566 12.33 20.796-2.27-31.731 22.907 38.562-10.938-4.256 10.421 7.979-2.453-2.239 12.706 11.938-5.738-1.041 8.512 5.26-7.479 7.943 16.943-0.016-16.492 4.805 7.852-0.388-12.688 7.823 10.771v-11.681l-0.262 0.269z" enable-background="new    " fill="url(#SVGID_18_)"/>
					<linearGradient id="SVGID_19_" y2="-278.75" gradientUnits="userSpaceOnUse" y1="-277.61" gradientTransform="translate(78,350)" x2="-8.3293" x1="-9.9407">
						<stop stop-color="#455762" stop-opacity="0" offset="0"/>
						<stop stop-color="#455661" stop-opacity=".0049" offset=".0035"/>
						<stop stop-color="#3D3F4B" stop-opacity=".2124" offset=".149"/>
						<stop stop-color="#382F3B" stop-opacity=".4345" offset=".3048"/>
						<stop stop-color="#352532" stop-opacity=".6814" offset=".478"/>
						<stop stop-color="#34222F" offset=".7015"/>
					</linearGradient>
					<circle opacity=".4" enable-background="new    " cy="71.618" cx="69.154" r=".838" fill="url(#SVGID_19_)"/>
					<linearGradient id="SVGID_20_" y2="-266.9" gradientUnits="userSpaceOnUse" y1="-265.76" gradientTransform="translate(78,350)" x2="13.983" x1="12.371">
						<stop stop-color="#455762" stop-opacity="0" offset="0"/>
						<stop stop-color="#455661" stop-opacity=".0049" offset=".0035"/>
						<stop stop-color="#3D3F4B" stop-opacity=".2124" offset=".149"/>
						<stop stop-color="#382F3B" stop-opacity=".4345" offset=".3048"/>
						<stop stop-color="#352532" stop-opacity=".6814" offset=".478"/>
						<stop stop-color="#34222F" offset=".7015"/>
					</linearGradient>
					<circle opacity=".4" enable-background="new    " cy="83.468" cx="91.467" r=".838" fill="url(#SVGID_20_)"/>
					<linearGradient id="SVGID_21_" y2="-296.28" gradientUnits="userSpaceOnUse" y1="-293.04" gradientTransform="translate(78,350)" x2="-30.912" x1="-35.499">
						<stop stop-color="#455762" stop-opacity="0" offset="0"/>
						<stop stop-color="#455661" stop-opacity=".0049" offset=".0035"/>
						<stop stop-color="#3D3F4B" stop-opacity=".2124" offset=".149"/>
						<stop stop-color="#382F3B" stop-opacity=".4345" offset=".3048"/>
						<stop stop-color="#352532" stop-opacity=".6814" offset=".478"/>
						<stop stop-color="#34222F" offset=".7015"/>
					</linearGradient>
					<ellipse opacity=".4" rx="2.427" ry="2.298" cy="54.756" cx="45.618" enable-background="new    " fill="url(#SVGID_21_)"/>
					<path opacity=".4" d="m85.22 30.451v4.225h-4.652v-4.225h-5.473c-0.596 1.769-2.264 3.043-4.231 3.043-1.969 0-3.638-1.274-4.23-3.043h-2.534v1.735l-0.625 0.123c-0.044 0.01-1.225 0.275-1.867 1.482 0.115 0.746 2.678 2.991 5.773 5.105h0.592l2.115-3.599 5.396 2.847 0.111 0.185c0.057 0.095 0.174 0.301 0.303 0.567h13.541v-8.446l-4.219 0.001z" enable-background="new    " fill="#45302f"/>
					<path fill="#1c0e19" d="m19.611 56.366-3.984-4.525h-3.225s-2.25 2.617-1.125 3.846-5.614 5.261-5.614 5.871 0.36 8.583 0.905 8.765c0.543 0.182-0.905 6.522-0.905 6.522s-0.183 1.223 0 3.601c0.181 2.379 0.905 4.189 1.812 4.914 0.906 0.727 3.261 1.661 3.261 1.661l1.862 2.688s4.649 0.183 5.019 0c0.367-0.182 2.547-2.075 1.998-2.688-0.548-0.612 5.255 1.545 5.799 1.545 0.543 0 4.271 2.05 4.271 2.05s9.136 0.726 9.679 0c0.546-0.726 3.625-0.504 3.625-2.05 0-1.545 1.188-4.653-0.946-6.104-2.133-1.449-4.489-0.952-3.583-3.193 0.904-2.242 6.803-8.765 3.583-9.127-3.12-0.352-12.427-9.518-12.355-9.603 2.25-2.719 2.657-5.254 3.813-6.521 1.155-1.27 1.881-6.795 0.61-6.75-1.268 0.046-8.334 0-8.334 0l-3.984 4.033-2.182 5.065z"/>
					<path fill="#2d2d2e" d="m36.279 92.024c-2.877 0-6.846-0.313-7.014-0.325l-0.23-0.02-0.205-0.112c-1.506-0.826-3.377-1.778-3.857-1.918-0.347-0.027-0.894-0.195-2.566-0.737-0.635-0.206-1.533-0.498-2.212-0.695-0.608 1.147-2.104 2.31-2.43 2.469-0.273 0.135-0.604 0.192-1.943 0.192-1.489 0-3.511-0.078-3.596-0.081l-0.542-0.021-1.986-2.868c-0.718-0.3-2.407-1.038-3.234-1.698-1.189-0.951-2.019-3.075-2.216-5.682-0.188-2.47 0-3.786 0.009-3.842l0.015-0.083c0.495-2.167 0.984-4.794 1.005-5.691-0.35-0.53-0.551-1.715-0.778-4.728-0.163-2.148-0.252-4.303-0.252-4.625 0-0.751 0.528-1.157 2.286-2.502 0.892-0.683 2.879-2.205 3.371-2.949-1.197-1.842 0.893-4.444 1.348-4.975l0.325-0.378h4.213l3.174 3.604 1.578-3.678 4.452-4.505 0.458 0.003c0.001 0 7.026 0.047 8.287 0.001 0.362-0.018 1.092 0.098 1.5 1.021 0.734 1.665-0.022 6.18-1.27 7.545-0.384 0.423-0.715 1.145-1.099 1.979-0.494 1.075-1.09 2.372-2.095 3.751 2.092 2.101 8.897 8.34 11.055 8.582 1.109 0.125 1.563 0.767 1.731 1.136 0.698 1.52-0.646 3.689-2.779 6.827-0.699 1.029-1.423 2.095-1.648 2.651-0.081 0.2-0.106 0.323-0.116 0.389 0.167 0.112 0.603 0.267 0.927 0.382 0.683 0.242 1.529 0.542 2.375 1.117 2.189 1.489 1.808 4.108 1.553 5.841-0.066 0.45-0.128 0.875-0.128 1.163 0 1.813-1.899 2.268-3.034 2.538-0.288 0.068-0.711 0.169-0.876 0.248-0.399 0.457-1.107 0.674-3.556 0.674zm-6.61-2.475c0.895 0.066 4.206 0.301 6.61 0.301 1.339 0 1.888-0.073 2.089-0.114 0.456-0.416 1.128-0.576 1.833-0.745 0.398-0.097 1.231-0.297 1.392-0.486-0.025-0.384 0.048-0.885 0.126-1.415 0.258-1.76 0.365-3.057-0.623-3.729-0.614-0.417-1.287-0.655-1.88-0.866-0.885-0.313-1.8-0.639-2.201-1.529-0.265-0.591-0.23-1.278 0.104-2.104 0.313-0.771 1.031-1.833 1.864-3.059 0.828-1.219 2.496-3.672 2.593-4.582-3.407-0.401-12.87-9.38-13.229-10.27l-0.243-0.601 0.413-0.504c1.191-1.438 1.822-2.813 2.379-4.026 0.459-1.001 0.856-1.864 1.469-2.535 0.663-0.729 1.154-3.794 0.969-4.92-1.646 0.023-6.012 0.001-7.437-0.009l-3.52 3.562-2.771 6.461-4.798-5.448h-2.208c-0.677 0.919-1.006 1.852-0.848 2.023 0.301 0.329 0.445 0.761 0.406 1.216-0.116 1.314-1.779 2.682-4.305 4.614-0.51 0.392-1.122 0.858-1.425 1.13 0.049 1.507 0.329 6.292 0.631 7.604 0.539 0.438 0.663 1.743-0.655 7.521-0.022 0.202-0.139 1.337 0.014 3.328 0.169 2.224 0.829 3.686 1.407 4.146 0.565 0.455 2.131 1.161 2.981 1.499l0.305 0.122 1.739 2.51c0.708 0.022 1.979 0.062 2.97 0.062 0.615 0 0.924-0.016 1.065-0.025 0.334-0.25 1.071-0.96 1.331-1.369-0.087-0.264-0.076-0.549 0.04-0.809 0.188-0.422 0.597-0.674 1.094-0.674 0.529 0 1.542 0.311 3.726 1.019 0.76 0.246 1.79 0.58 2.074 0.638 0.3 0.006 1.035 0.16 4.519 2.063z"/>
					<linearGradient id="SVGID_22_" y2="-272.05" gradientUnits="userSpaceOnUse" y1="-308.93" gradientTransform="translate(78,350)" x2="-56.966" x1="-26.27">
						<stop stop-color="#455762" stop-opacity="0" offset="0"/>
						<stop stop-color="#445560" stop-opacity=".3969" offset=".3512"/>
						<stop stop-color="#424D58" stop-opacity=".5981" offset=".5291"/>
						<stop stop-color="#3D404C" stop-opacity=".7553" offset=".6682"/>
						<stop stop-color="#372D3A" stop-opacity=".889" offset=".7865"/>
						<stop stop-color="#352633" stop-opacity=".9279" offset=".8209"/>
					</linearGradient>
					<polygon points="50.906 95.975 23.041 92.571 21.887 95.975 18.08 92.024 11.617 91.271 4.734 89.247 4.164 85.876 1.91 76.906 3.186 67.028 1.91 58.361 4.164 59.366 5.58 42.601 7.184 52.457 15.051 32.799 17.245 51.112 30.443 34.113 29.754 44.663 45.618 40.666 33.725 60.804 42.22 58.361 37.75 64.268 55.529 69.101 42.22 77.423 54.901 83.468 45.618 85.69" fill="url(#SVGID_22_)"/>
					<g opacity=".4" fill="#2c2e2b">
						<path d="m3.451 71.407c0.146-0.676 0.312-1.11 0.312-1.11l-0.193-1.187 0.02-0.01 4.517 0.637s-0.748 0.782-1.222 1.901c-0.88 0.377-2.554 0.879-3.434-0.231z"/>
						<path d="m12.666 78.538c0.055-1.171 0.046-2.607-0.203-3.758 1.171 0.495 2.562 1.529 3.777 2.459-0.042 0.711-0.75 1.704-1.497 2.516-0.732-0.603-1.54-1.077-2.077-1.217z"/>
						<path d="m6.583 72.586c-0.109 0.545-0.119 1.131 0.055 1.724 0.009 0.03 0.021 0.056 0.029 0.084-0.669 0.534-1.885 1.331-2.81 1.246-0.078-0.007-0.149-0.022-0.222-0.043-0.433-1.111-0.452-2.292-0.341-3.258 0.939 0.702 2.227 0.591 3.289 0.247z"/>
						<path d="m16.34 81.748c-0.156-0.48-0.541-0.999-1.022-1.479 0.616-0.665 1.354-1.605 1.606-2.509 0.29 0.221 0.563 0.427 0.813 0.604 1.201 0.858 1.215 2.323 1 3.433-0.688 0.018-1.533 0-2.397-0.049z"/>
						<path d="m8.02 79.006c-0.399-0.13-0.834-0.282-1.338-0.484-1.283-0.514-2.104-1.266-2.631-2.105 1.096-0.024 2.269-0.779 2.933-1.286 0.402 0.688 0.954 0.939 1.552 0.861-0.03 1.116-0.173 2.339-0.516 3.014z"/>
						<path d="m11.602 74.52c0.311 1.021 0.355 2.652 0.281 4.14-0.502 0.364-0.781 1.166-3.119 0.563 0.444-0.988 0.542-2.472 0.548-3.501 0.371-0.202 0.741-0.504 1.086-0.882 0.295-0.323 0.715-0.399 1.204-0.32z"/>
						<path d="m15.497 86.738 0.031-0.232-2.604-0.367c0.162-0.129 3.357-3.45 3.418-3.609 0.891 0.058 1.613 0.072 2.191 0.063-0.102 0.326-2.151 3-3.036 4.145z"/>
					</g>
					<path opacity=".8" d="m42.1 84.307h-10.798v-3.4h2.708v-2.839h-2.708v-1.418h-2.191v1.418h-5.161v-3.095h12.255v-3.354h-12.256v-10.814h-3.223v10.814h-2.708v-15.416l-1.806-2.051v17.466h-3.048v3.354h3.048v5.03c0 0.498 0.405 0.901 0.903 0.901 0.028 0 0.056-0.014 0.086-0.018 0.056 0.008 0.111 0.018 0.172 0.018h3.354 0.646 0.516 2.063 5.161v3.401h-3.115v1.384h3.115v1.534h2.191v-1.534h10.904c0.032-0.527 0.009-0.992-0.108-1.381zm-22.922-5.724h-2.708v-3.61h2.708v3.61zm1.838-1.419c-0.802 0-1.451-0.648-1.451-1.45 0-0.803 0.649-1.451 1.451-1.451 0.801 0 1.451 0.649 1.451 1.451 0 0.801-0.65 1.45-1.451 1.45z" enable-background="new    " fill="#382524"/>
					<path d="m20.677 85.876-3.693 1.356s-2.563 4.962-0.77 6.583c0 0 5.885-6.133 7.885-5.073s1.23-1.117 1.23-1.117l-4.652-1.749z" stroke="#2d2d2e" stroke-miterlimit="10" stroke-width="1.5476" fill="#4a3b46"/>
					<g fill="#2c2e2b">
						<path d="m75.369 52.161c0.051 0.688 0.152 1.144 0.152 1.144l-0.354 1.147 0.017 0.014h4.563s-0.634-0.879-0.945-2.055c-0.818-0.493-2.406-1.224-3.433-0.25z"/>
						<path d="m85.49 46.388c-0.109 1.167-0.318 2.59-0.727 3.692 1.229-0.326 2.75-1.156 4.082-1.906 0.06-0.709-0.503-1.793-1.13-2.7-0.806 0.494-1.674 0.85-2.225 0.914z"/>
						<path d="m78.636 51.433c-0.033-0.555 0.039-1.136 0.295-1.699 0.014-0.027 0.027-0.051 0.041-0.078-0.589-0.622-1.682-1.581-2.605-1.625-0.078-0.005-0.153 0.002-0.229 0.012-0.582 1.04-0.768 2.207-0.791 3.179 1.026-0.57 2.285-0.278 3.289 0.211z"/>
						<path d="m89.578 43.723c-0.225 0.454-0.678 0.913-1.221 1.32 0.519 0.743 1.115 1.776 1.24 2.708 0.318-0.179 0.618-0.345 0.89-0.485 1.312-0.684 1.526-2.132 1.47-3.259-0.678-0.113-1.518-0.211-2.379-0.284z"/>
						<path d="m80.955 45.276c-0.414 0.072-0.865 0.163-1.395 0.292-1.342 0.33-2.262 0.959-2.896 1.719 1.081 0.179 2.136 1.09 2.724 1.685 0.494-0.625 1.075-0.798 1.655-0.637 0.128-1.112 0.158-2.344-0.088-3.059z"/>
						<path d="m83.876 50.218c0.447-0.969 0.721-2.576 0.854-4.06-0.443-0.433-0.607-1.264-3.01-0.995 0.303 1.041 0.191 2.522 0.055 3.543 0.339 0.252 0.662 0.604 0.951 1.024 0.249 0.364 0.653 0.498 1.15 0.488z"/>
						<path d="m89.439 38.662v0.235h-2.631c0.144 0.151 2.844 3.886 2.881 4.052 0.893 0.069 1.607 0.153 2.18 0.245-0.059-0.339-1.713-3.272-2.43-4.532z"/>
					</g>
				</g>
			</g>
			<radialGradient id="SVGID_23_" gradientUnits="userSpaceOnUse" cy="59.592" r="54.931" cx="54.931">
				<stop stop-color="#262125" stop-opacity=".9193" offset=".129"/>
				<stop stop-color="#2A262A" stop-opacity=".9013" offset=".5161"/>
				<stop stop-color="#2C282C" stop-opacity=".4459" offset=".7606"/>
				<stop stop-color="#312F33" stop-opacity=".2819" offset=".8487"/>
				<stop stop-color="#3B3A3E" stop-opacity=".1649" offset=".9115"/>
				<stop stop-color="#494B4F" stop-opacity=".0711" offset=".9618"/>
				<stop stop-color="#585E62" stop-opacity="0" offset="1"/>
			</radialGradient>
			<circle opacity=".8" cy="59.592" cx="54.931" r="54.931" fill="url(#SVGID_23_)"/>
			<radialGradient id="SVGID_24_" gradientUnits="userSpaceOnUse" cy="22.431" r="20.431" cx="25.931">
				<stop stop-color="#262125" stop-opacity=".9193" offset=".129"/>
				<stop stop-color="#585E62" stop-opacity="0" offset="1"/>
			</radialGradient>
			<circle opacity=".9" cy="22.431" cx="25.931" r="20.431" fill="url(#SVGID_24_)"/>
			<radialGradient id="SVGID_25_" gradientUnits="userSpaceOnUse" cy="100.18" r="20.431" cx="83.681">
				<stop stop-color="#262125" stop-opacity=".9193" offset=".129"/>
				<stop stop-color="#585E62" stop-opacity="0" offset="1"/>
			</radialGradient>
			<circle opacity=".9" cy="100.18" cx="83.681" r="20.431" fill="url(#SVGID_25_)"/>
			<linearGradient id="SVGID_26_" y2="-560.74" gradientUnits="userSpaceOnUse" y1="-560.74" gradientTransform="matrix(1 -.0063 .0063 1 234.27 657.81)" x2="-146.54" x1="-152.87">
				<stop stop-color="#2D2C2D" offset="0"/>
				<stop stop-color="#747474" offset=".6169"/>
			</linearGradient>
			<g stroke-miterlimit="10">
				<path d="m78.931 98.242c0.003 0 0.004 0 0.007 0.001 1.894 0.517 2.724 1.981 2.745 3.491l0.549-0.031c-0.359-1.695 0.287-3.645 1.955-4.433l-0.006-0.764c-1.188-0.334-1.975-1.194-2.351-2.226l-1.779 0.013c0.327 1.403-0.051 2.982-1.12 3.952z" stroke="#808080" stroke-width="1.2257" fill="url(#SVGID_26_)"/>
				<path d="m63.996 23.21 4.979-1.392 0.532-1.16-0.629-1.5-1.064-0.871s3.531-0.436 4.111 0.581 1.16 2.949 1.16 2.949l-0.603 0.888v0.219l-8.486 0.286z" stroke="#2e2e2e" stroke-width="1.5476" fill="#3c383b"/>
				<path d="m88.758 24.384s2.343-0.547 2.812-2.281c0.471-1.732 0.513-3.648 0.513-3.648l5.425 3.304s0.996 2.998-1.173 3.314c-2.172 0.317-7.577-0.689-7.577-0.689z" stroke="#2e2e2e" stroke-width="1.3668" fill="#3c383b"/>
			</g>
			<radialGradient id="SVGID_27_" cx="4.7087" gradientUnits="userSpaceOnUse" cy="-238.84" r="7.7778" gradientTransform="translate(78,350)">
				<stop stop-color="#313130" offset=".0538"/>
				<stop stop-color="#313130" offset=".31"/>
				<stop stop-color="#4B4844" offset=".4736"/>
				<stop stop-color="#5E5952" offset=".6414"/>
				<stop stop-color="#69635A" offset=".8146"/>
				<stop stop-color="#6D665D" offset="1"/>
			</radialGradient>
			<circle cy="111.16" cx="82.709" r="7.778" fill="url(#SVGID_27_)"/>
			<circle cy="111.16" cx="82.709" r="5.343" fill="#353232"/>
			<radialGradient id="SVGID_28_" cx="-22.454" gradientUnits="userSpaceOnUse" cy="-238.84" r="7.7781" gradientTransform="translate(78,350)">
				<stop stop-color="#313130" offset=".0538"/>
				<stop stop-color="#313130" offset=".31"/>
				<stop stop-color="#BFBFB5" offset=".7807"/>
				<stop stop-color="#A59B8F" offset="1"/>
			</radialGradient>
			<circle cy="111.16" cx="55.546" r="7.778" fill="url(#SVGID_28_)"/>
			<circle cy="111.16" cx="55.546" r="5.343" fill="#353232"/>
			<linearGradient id="SVGID_29_" y2="-244.45" gradientUnits="userSpaceOnUse" y1="-250.78" gradientTransform="translate(78,350)" x2="-22.473" x1="-22.473">
				<stop stop-color="#2D2C2D" offset="0"/>
				<stop stop-color="#747474" offset=".6169"/>
			</linearGradient>
			<rect height="20.569" width="6.334" stroke="#808080" stroke-miterlimit="10" y="85.69" x="52.361" stroke-width="1.2257" fill="url(#SVGID_29_)"/>
			<polyline stroke="#999" points="52.361 106.26 53.587 108.13 57.265 108.13 58.695 106.26" stroke-miterlimit="10" stroke-width=".86670" fill="#808080"/>
			<radialGradient id="SVGID_30_" cx="-49.618" gradientUnits="userSpaceOnUse" cy="-238.84" r="7.7781" gradientTransform="translate(78,350)">
				<stop stop-color="#313130" offset=".0538"/>
				<stop stop-color="#313130" offset=".31"/>
				<stop stop-color="#BFBFB5" offset=".7807"/>
				<stop stop-color="#A59B8F" offset="1"/>
			</radialGradient>
			<circle cy="111.16" cx="28.382" r="7.778" fill="url(#SVGID_30_)"/>
			<circle cy="111.16" cx="28.382" r="5.343" fill="#353232"/>
			<linearGradient id="SVGID_31_" y2="-244.45" gradientUnits="userSpaceOnUse" y1="-250.78" gradientTransform="translate(78,350)" x2="-49.636" x1="-49.636">
				<stop stop-color="#2D2C2D" offset="0"/>
				<stop stop-color="#747474" offset=".6169"/>
			</linearGradient>
			<rect height="20.569" width="6.332" stroke="#808080" stroke-miterlimit="10" y="85.69" x="25.198" stroke-width="1.2257" fill="url(#SVGID_31_)"/>
			<polyline stroke="#999" points="25.198 106.26 26.423 108.13 30.1 108.13 31.531 106.26" stroke-miterlimit="10" stroke-width=".86670" fill="#808080"/>
			<radialGradient id="SVGID_32_" cx="272.87" gradientUnits="userSpaceOnUse" cy="-538.82" r="7.7781" gradientTransform="matrix(-1 0 0 -1 301.25 -530.8)">
				<stop stop-color="#313130" offset=".0538"/>
				<stop stop-color="#313130" offset=".31"/>
				<stop stop-color="#BFBFB5" offset=".7807"/>
				<stop stop-color="#A59B8F" offset="1"/>
			</radialGradient>
			<circle cy="8.02" cx="28.382" r="7.778" fill="url(#SVGID_32_)"/>
			<circle cy="8.02" cx="28.382" r="5.343" fill="#353232"/>
			<linearGradient id="SVGID_33_" y2="-514.91" gradientUnits="userSpaceOnUse" y1="-514.91" gradientTransform="matrix(-.963 .2695 -.2695 -.963 186.6 -566.07)" x2="314.81" x1="308.47">
				<stop stop-color="#2D2C2D" offset="0"/>
				<stop stop-color="#747474" offset=".6169"/>
			</linearGradient>
			<path d="m27.214 13.002h-0.007c-1.961 0-3.147-1.196-3.567-2.646l-0.521 0.177c0.796 1.542 0.684 3.591-0.719 4.791l0.207 0.737c1.234 0.009 2.22 0.631 2.854 1.526l1.713-0.479c-0.684-1.266-0.736-2.889 0.04-4.106z" stroke="#808080" stroke-miterlimit="10" stroke-width="1.2257" fill="url(#SVGID_33_)"/>
			<linearGradient id="SVGID_34_" y2="-275.02" gradientUnits="userSpaceOnUse" y1="-275.02" gradientTransform="matrix(.9467 .3222 -.3222 .9467 -55.175 287.23)" x2=".4612" x1="-5.8718">
				<stop stop-color="#2D2C2D" offset="0"/>
				<stop stop-color="#747474" offset=".6169"/>
			</linearGradient>
			<path d="m30.212 18.077c1.84 2.094 0.554 5.872-2.182 6.407l-2.582 7.589 5.995 2.041 3.992-11.731c-0.871-0.832-1.172-1.996-1.031-3.12" stroke="#808080" stroke-miterlimit="10" stroke-width="1.2257" fill="url(#SVGID_34_)"/>
			<radialGradient id="SVGID_35_" cx="245.71" gradientUnits="userSpaceOnUse" cy="-538.82" r="7.7781" gradientTransform="matrix(-1 0 0 -1 301.25 -530.8)">
				<stop stop-color="#313130" offset=".0538"/>
				<stop stop-color="#313130" offset=".31"/>
				<stop stop-color="#4B4844" offset=".4736"/>
				<stop stop-color="#5E5952" offset=".6414"/>
				<stop stop-color="#69635A" offset=".8146"/>
				<stop stop-color="#6D665D" offset="1"/>
			</radialGradient>
			<circle cy="8.02" cx="55.546" r="7.778" fill="url(#SVGID_35_)"/>
			<circle cy="8.02" cx="55.546" r="5.343" fill="#353232"/>
			<linearGradient id="SVGID_36_" y2="-544.44" gradientUnits="userSpaceOnUse" y1="-550.76" gradientTransform="matrix(-1 0 0 -1 301.25 -530.8)" x2="245.69" x1="245.69">
				<stop stop-color="#2D2C2D" offset="0"/>
				<stop stop-color="#747474" offset=".6169"/>
			</linearGradient>
			<rect height="20.568" width="6.334" stroke="#808080" stroke-miterlimit="10" y="12.926" x="52.398" stroke-width="1.2257" fill="url(#SVGID_36_)"/>
			<polyline stroke="#999" points="58.732 12.926 57.505 11.055 53.828 11.055 52.398 12.926" stroke-miterlimit="10" stroke-width=".86670" fill="#808080"/>
			<radialGradient id="SVGID_37_" cx="218.54" gradientUnits="userSpaceOnUse" cy="-538.82" r="7.7776" gradientTransform="matrix(-1 0 0 -1 301.25 -530.8)">
				<stop stop-color="#313130" offset=".0538"/>
				<stop stop-color="#313130" offset=".31"/>
				<stop stop-color="#BFBFB5" offset=".7807"/>
				<stop stop-color="#A59B8F" offset="1"/>
			</radialGradient>
			<circle cy="8.02" cx="82.709" r="7.778" fill="url(#SVGID_37_)"/>
			<circle cy="8.02" cx="82.71" r="5.342" fill="#353232"/>
			<linearGradient id="SVGID_38_" y2="-544.44" gradientUnits="userSpaceOnUse" y1="-550.76" gradientTransform="matrix(-1 0 0 -1 301.25 -530.8)" x2="218.52" x1="218.52">
				<stop stop-color="#2D2C2D" offset="0"/>
				<stop stop-color="#747474" offset=".6169"/>
			</linearGradient>
			<rect height="20.568" width="6.334" stroke="#808080" stroke-miterlimit="10" y="12.926" x="79.562" stroke-width="1.2257" fill="url(#SVGID_38_)"/>
			<polyline stroke="#999" points="85.896 12.926 84.669 11.055 80.992 11.055 79.562 12.926" stroke-miterlimit="10" stroke-width=".86670" fill="#808080"/>
			<path fill="#393538" d="m109.61 87.373c0 4.995-4.048 9.042-9.041 9.042h-91.334c-4.991 0-9.042-4.048-9.042-9.042v-53.14c0-4.993 4.05-9.042 9.042-9.042h91.334c4.993 0 9.041 4.05 9.041 9.042v53.14z"/>
			<path fill="#383639" d="m108.29 84.343c0 4.883-3.959 8.842-8.84 8.842h-89.311c-4.883 0-8.842-3.959-8.842-8.842v-51.962c0-4.884 3.958-8.843 8.842-8.843h89.312c4.881 0 8.84 3.958 8.84 8.843v51.962z"/>
			<linearGradient id="SVGID_39_" y2="-372.96" gradientUnits="userSpaceOnUse" y1="-395.25" gradientTransform="matrix(-4.3711e-8 -1 1 -4.3711e-8 397.85 -176.74)" x2="-206.1" x1="-221.51">
				<stop stop-color="#4F4F54" offset="0"/>
				<stop stop-color="#535257" offset=".095"/>
				<stop stop-color="#5D5D61" offset=".1821"/>
				<stop stop-color="#6E6E72" offset=".2662"/>
				<stop stop-color="#868689" offset=".3484"/>
				<stop stop-color="#A6A5A7" offset=".429"/>
				<stop stop-color="#CBCBCB" offset=".5078"/>
				<stop stop-color="#ccc" offset=".5095"/>
				<stop stop-color="#B4B4B5" offset=".5608"/>
				<stop stop-color="#8B8B8E" offset=".6618"/>
				<stop stop-color="#6B6B6F" offset=".759"/>
				<stop stop-color="#535358" offset=".8503"/>
				<stop stop-color="#46454B" offset=".9331"/>
				<stop stop-color="#414046" offset="1"/>
			</linearGradient>
			<path opacity=".2" d="m0.498 32.225v17.508h22.237v-26.808h-12.938c-5.136 0.001-9.299 4.166-9.299 9.3z" enable-background="new    " fill="url(#SVGID_39_)"/>
			<linearGradient id="SVGID_40_" y2="-522.36" gradientUnits="userSpaceOnUse" y1="-544.65" gradientTransform="matrix(-1 0 0 -1 -201.2 -453.01)" x2="-208.38" x1="-223.79">
				<stop stop-color="#535358" offset="0"/>
				<stop stop-color="#57565B" offset=".0963"/>
				<stop stop-color="#616165" offset=".1847"/>
				<stop stop-color="#727276" offset=".27"/>
				<stop stop-color="#8A8A8D" offset=".3533"/>
				<stop stop-color="#A9A9AA" offset=".4345"/>
				<stop stop-color="#ccc" offset=".5095"/>
				<stop stop-color="#BABABB" offset=".55"/>
				<stop stop-color="#919193" offset=".6535"/>
				<stop stop-color="#707074" offset=".7532"/>
				<stop stop-color="#59595E" offset=".8466"/>
				<stop stop-color="#4C4B51" offset=".9315"/>
				<stop stop-color="#47464C" offset="1"/>
			</linearGradient>
			<path opacity=".1" d="m10.041 93.748h17.509v-22.237h-26.808v12.938c-0.001 5.137 4.164 9.299 9.299 9.299z" enable-background="new    " fill="url(#SVGID_40_)"/>
			<linearGradient id="SVGID_41_" y2="-522.36" gradientUnits="userSpaceOnUse" y1="-544.65" gradientTransform="matrix(1 0 0 -1 338.21 -453.01)" x2="-235.81" x1="-251.22">
				<stop stop-color="#4F4F54" offset="0"/>
				<stop stop-color="#535257" offset=".095"/>
				<stop stop-color="#5D5D61" offset=".1821"/>
				<stop stop-color="#6E6E72" offset=".2662"/>
				<stop stop-color="#868689" offset=".3484"/>
				<stop stop-color="#A6A5A7" offset=".429"/>
				<stop stop-color="#CBCBCB" offset=".5078"/>
				<stop stop-color="#ccc" offset=".5095"/>
				<stop stop-color="#B4B4B5" offset=".5608"/>
				<stop stop-color="#8B8B8E" offset=".6618"/>
				<stop stop-color="#6B6B6F" offset=".759"/>
				<stop stop-color="#535358" offset=".8503"/>
				<stop stop-color="#46454B" offset=".9331"/>
				<stop stop-color="#414046" offset="1"/>
			</linearGradient>
			<path opacity=".1" d="m99.537 93.748h-17.511v-22.237h26.811v12.938c-0.002 5.137-4.166 9.299-9.3 9.299z" enable-background="new    " fill="url(#SVGID_41_)"/>
			<linearGradient id="SVGID_42_" y2="-266.19" gradientUnits="userSpaceOnUse" y1="-325.52" gradientTransform="translate(78,350)" x2="-13.57" x1="-39.622">
				<stop stop-color="#585E62" offset="0"/>
				<stop stop-color="#54595D" offset=".2069"/>
				<stop stop-color="#4A4C50" offset=".4472"/>
				<stop stop-color="#39363A" offset=".7032"/>
				<stop stop-color="#342E32" offset=".801"/>
			</linearGradient>
			<path opacity=".2" d="m99.072 81.783c0 4.123-3.343 7.464-7.466 7.464h-75.397c-4.122 0-7.464-3.343-7.464-7.464v-43.868c0-4.121 3.342-7.464 7.464-7.464h75.396c4.123 0 7.466 3.343 7.466 7.464v43.868h0.001z" enable-background="new    " fill="url(#SVGID_42_)"/>
			<path fill="#3c383b" d="m97.382 80.963c0 3.968-3.218 7.186-7.187 7.186h-72.575c-3.969 0-7.187-3.218-7.187-7.186v-42.227c0-3.968 3.218-7.185 7.187-7.185h72.576c3.969 0 7.187 3.216 7.187 7.185l-0.001 42.227z"/>
			<path fill="#494c4d" d="m99.449 93.798h-89.311c-5.213 0-9.455-4.242-9.455-9.455v-51.962c0-5.213 4.242-9.455 9.455-9.455h89.312c5.213 0 9.451 4.242 9.451 9.455v51.962c0.001 5.213-4.239 9.455-9.452 9.455zm-89.311-69.647c-4.538 0-8.229 3.691-8.229 8.229v51.962c0 4.537 3.689 8.229 8.229 8.229h89.312c4.534 0 8.227-3.69 8.227-8.229v-51.961c0-4.537-3.689-8.229-8.227-8.229l-89.312-0.001z"/>
			<path fill="#1c171b" d="m109.61 34.233c0-1.475-0.357-2.861-0.984-4.092-1.012-4.135-4.734-7.216-9.174-7.216h-35.508l-0.616 1.226v7.4s-1.608 0.316-2.437 1.942 7.168 6.784 7.168 6.784l2.322-3.949 4.552 2.401s1.715 2.838 0 3.354-5.326 5.158-5.326 5.158l2.837 6.189 2.489 1.806h4.593l5.041 3.122v2.443s-0.911 2.432-1.873 2.948c-0.963 0.516-0.665 4.643-0.665 4.643s0.991 1.289 2.538 1.289c1.551 0 1.301 0.517 3.486-1.032 2.189-1.547 2.963-2.837 3.994-2.321 1.032 0.517 3.416 2.063 3.385 2.58-0.03 0.517 1.431 4.551 2.535 0.855 1.104-3.693 0.584-5.758 0-6.531-0.585-0.772-2.536-2.432-2.536-2.432l5.901-2.443s4.9 0.527 4.127 2.443-2.321 3.463-1.289 5.011c1.031 1.548 3.505 3.354 3.505 3.354l1.228-0.518 0.707-0.723-0.001-33.691z"/>
			<path fill="#1f1f1f" d="m109.55 66.907-0.719 0.705-0.377 0.387-0.671 0.282c-0.692-0.538-2.25-1.81-2.976-2.896-0.467-0.701-0.102-1.449 0.584-2.712 0.271-0.499 0.553-1.015 0.779-1.58 0.219-0.541 0.181-1.081-0.107-1.563-0.877-1.463-4.029-1.871-4.652-1.938l-0.197-0.021-7.253 3.004 0.965 0.819c0.524 0.446 1.982 1.729 2.419 2.309 0.434 0.572 0.895 2.446-0.124 5.845-0.144 0.479-0.271 0.743-0.357 0.884-0.278-0.342-0.632-1.187-0.662-1.473 0.082-1.354-3.772-3.299-3.813-3.318-0.262-0.13-0.533-0.197-0.807-0.197-0.812 0-1.447 0.537-2.328 1.279-0.463 0.389-0.987 0.831-1.651 1.301-1.271 0.899-1.556 0.973-1.772 0.973-0.105 0-0.213-0.014-0.34-0.025-0.24-0.025-0.529-0.057-0.928-0.057-0.852 0-1.508-0.556-1.782-0.833-0.095-1.658 0.052-3.369 0.273-3.646 1.16-0.622 2.064-2.906 2.233-3.357l0.05-0.132v-3.017l-5.595-3.464h-4.563l-2.121-1.539-2.554-5.575c1.461-1.823 3.695-4.239 4.647-4.525 0.567-0.172 0.978-0.537 1.178-1.058 0.496-1.288-0.528-3.09-0.737-3.438l-0.106-0.185-5.397-2.846-2.284 3.885c-3.286-2.194-6.076-4.611-6.196-5.394 0.645-1.206 1.823-1.473 1.867-1.481l0.625-0.123v-7.853l0.32-0.637h0.303c0.459-0.773 0.175-0.9 0.146-0.953-0.974-0.069-1.402-0.03-1.699 0l-0.616 1.222v7.024c-0.665 0.272-1.706 0.881-2.352 2.15-0.945 1.858 3.521 5.26 7.438 7.786l0.678 0.438 2.354-4.009 3.7 1.952c0.334 0.617 0.663 1.522 0.517 1.902-0.014 0.037-0.033 0.087-0.179 0.131-1.856 0.559-5.086 4.616-5.715 5.424l-0.288 0.371 3.118 6.802 2.854 2.072h4.623l4.488 2.778v1.868c-0.4 1.018-1.063 2.192-1.467 2.409-1.16 0.622-1.225 3.271-1.07 5.382l0.018 0.23 0.143 0.184c0.051 0.065 1.246 1.593 3.15 1.593 0.326 0 0.564 0.025 0.764 0.048 1.021 0.107 1.465-0.015 3.172-1.223 0.718-0.507 1.292-0.99 1.754-1.38 0.559-0.47 1.088-0.915 1.332-0.915 0.014 0 0.047 0 0.115 0.034 1.046 0.523 2.63 1.62 2.966 2.042 0.069 0.635 0.538 1.854 1.129 2.481 0.418 0.441 0.831 0.536 1.103 0.536 1.186 0 1.655-1.576 1.813-2.096 1.401-4.688 0.26-6.711-0.125-7.22-0.353-0.465-0.48-0.617-1.094-1.171l3.952-2.444c1.237 0.16 2.975 0.629 3.3 1.173 0.023 0.041 0.046 0.076 0 0.188-0.195 0.483-0.453 0.96-0.703 1.42-0.713 1.313-1.521 2.798-0.513 4.311 1.096 1.645 3.589 3.473 3.692 3.549l0.354 0.259 1.771-0.747 0.263-0.148c-0.058-0.244 0.201-2.006-0.055-2.243z"/>
			<g opacity=".4">
				<path fill="#453e3e" d="m101.22 57.57 0.197 0.021c0.313 0.033 1.26 0.152 2.237 0.447v-23.362h-3.739v23.436l1.305-0.542z"/>
			</g>
			<g opacity=".4" fill="#453e3e">
				<path d="m91.468 67.028h0.241c-0.003-0.001-0.006-0.004-0.009-0.005-0.068-0.033-0.104-0.033-0.115-0.033-0.031-0.002-0.078 0.025-0.117 0.038z"/>
				<path d="m89.729 66.328c0.653-0.53 1.199-0.889 1.856-0.889 0.271 0 0.545 0.067 0.807 0.197 0.014 0.006 0.396 0.2 0.918 0.505v-20.574h-3.581v4.544h-4.819v3.676h4.818v12.541h0.001z"/>
			</g>
			<linearGradient id="SVGID_43_" y2="-303.45" gradientUnits="userSpaceOnUse" y1="-260.32" gradientTransform="translate(78,350)" x2="7.4601" x1="-53.696">
				<stop stop-color="#585E62" stop-opacity="0" offset="0"/>
				<stop stop-color="#424448" stop-opacity=".2163" offset=".1914"/>
				<stop stop-color="#2C292D" stop-opacity=".493" offset=".4362"/>
				<stop stop-color="#1E191D" stop-opacity=".7392" offset=".654"/>
				<stop stop-color="#191317" stop-opacity=".9279" offset=".8209"/>
			</linearGradient>
			<path opacity=".6" d="m109.35 69.305-1.771 0.747-0.354-0.258c-0.104-0.077-2.599-1.906-3.693-3.55-1.008-1.513-0.199-2.999 0.514-4.311 0.25-0.46 0.508-0.937 0.703-1.42 0.046-0.112 0.023-0.146 0-0.188-0.325-0.543-2.063-1.014-3.301-1.174l-3.951 2.444c0.611 0.554 0.741 0.706 1.094 1.171 0.385 0.508 1.525 2.53 0.125 7.22-0.155 0.52-0.627 2.097-1.813 2.097-0.271 0-0.685-0.095-1.103-0.537-0.591-0.628-1.059-1.848-1.129-2.481-0.336-0.422-1.92-1.519-2.966-2.042-0.068-0.033-0.104-0.033-0.115-0.033-0.244 0-0.773 0.444-1.332 0.915-0.462 0.39-1.036 0.872-1.754 1.38-1.707 1.208-2.148 1.331-3.172 1.222-0.197-0.021-0.438-0.048-0.764-0.048-1.904 0-3.102-1.526-3.15-1.592l-0.143-0.185-0.018-0.23c-0.152-2.11-0.09-4.76 1.07-5.382 0.402-0.216 1.064-1.393 1.467-2.409v-1.867l-4.488-2.779h-4.622l-2.854-2.072-3.118-6.802 0.288-0.371c0.629-0.808 3.856-4.866 5.715-5.424 0.146-0.044 0.165-0.095 0.179-0.131 0.146-0.378-0.183-1.285-0.517-1.902l-3.7-1.952-2.355 4.009-0.677-0.438c-3.916-2.525-8.385-5.927-7.438-7.786 0.646-1.271 1.687-1.877 2.352-2.15v-7.024l0.434-0.856-0.548-0.186h-6.5l1.285 1.227-19.249 2.746 18.348 0.871-18.348 6.906 20.756 1.653-14.566 12.33 20.796-2.27-31.731 22.907 38.562-10.938-4.256 10.421 7.979-2.453-2.239 12.706 11.938-5.738-1.041 8.512 5.26-7.479 7.943 16.943-0.016-16.492 4.805 7.852-0.388-12.688 7.823 10.771v-11.681l-0.262 0.269z" enable-background="new    " fill="url(#SVGID_43_)"/>
			<linearGradient id="SVGID_44_" y2="-278.75" gradientUnits="userSpaceOnUse" y1="-277.61" gradientTransform="translate(78,350)" x2="-8.3293" x1="-9.9407">
				<stop stop-color="#585E62" stop-opacity="0" offset="0"/>
				<stop stop-color="#585D61" stop-opacity=".0049" offset=".0035"/>
				<stop stop-color="#46474B" stop-opacity=".2124" offset=".149"/>
				<stop stop-color="#3A373B" stop-opacity=".4345" offset=".3048"/>
				<stop stop-color="#353034" stop-opacity=".6814" offset=".478"/>
				<stop stop-color="#342E32" offset=".7015"/>
			</linearGradient>
			<circle opacity=".4" enable-background="new    " cy="71.618" cx="69.154" r=".838" fill="url(#SVGID_44_)"/>
			<linearGradient id="SVGID_45_" y2="-266.9" gradientUnits="userSpaceOnUse" y1="-265.76" gradientTransform="translate(78,350)" x2="13.983" x1="12.371">
				<stop stop-color="#585E62" stop-opacity="0" offset="0"/>
				<stop stop-color="#585D61" stop-opacity=".0049" offset=".0035"/>
				<stop stop-color="#46474B" stop-opacity=".2124" offset=".149"/>
				<stop stop-color="#3A373B" stop-opacity=".4345" offset=".3048"/>
				<stop stop-color="#353034" stop-opacity=".6814" offset=".478"/>
				<stop stop-color="#342E32" offset=".7015"/>
			</linearGradient>
			<circle opacity=".4" enable-background="new    " cy="83.468" cx="91.467" r=".838" fill="url(#SVGID_45_)"/>
			<linearGradient id="SVGID_46_" y2="-296.28" gradientUnits="userSpaceOnUse" y1="-293.04" gradientTransform="translate(78,350)" x2="-30.912" x1="-35.499">
				<stop stop-color="#585E62" stop-opacity="0" offset="0"/>
				<stop stop-color="#585D61" stop-opacity=".0049" offset=".0035"/>
				<stop stop-color="#46474B" stop-opacity=".2124" offset=".149"/>
				<stop stop-color="#3A373B" stop-opacity=".4345" offset=".3048"/>
				<stop stop-color="#353034" stop-opacity=".6814" offset=".478"/>
				<stop stop-color="#342E32" offset=".7015"/>
			</linearGradient>
			<ellipse opacity=".4" rx="2.427" ry="2.298" cy="54.756" cx="45.618" enable-background="new    " fill="url(#SVGID_46_)"/>
			<path opacity=".4" d="m85.22 30.451v4.225h-4.652v-4.225h-5.473c-0.596 1.769-2.264 3.043-4.231 3.043-1.969 0-3.638-1.274-4.23-3.043h-2.534v1.735l-0.625 0.123c-0.044 0.01-1.225 0.275-1.867 1.482 0.115 0.746 2.678 2.991 5.773 5.105h0.592l2.115-3.599 5.396 2.847 0.111 0.185c0.057 0.095 0.174 0.301 0.303 0.567h13.541v-8.446l-4.219 0.001z" enable-background="new    " fill="#453e3e"/>
			<path fill="#1c171b" d="m19.611 56.366-3.984-4.525h-3.225s-2.25 2.617-1.125 3.846-5.614 5.261-5.614 5.871 0.36 8.583 0.905 8.765c0.543 0.182-0.905 6.522-0.905 6.522s-0.183 1.223 0 3.601c0.181 2.379 0.905 4.189 1.812 4.914 0.906 0.727 3.261 1.661 3.261 1.661l1.862 2.688s4.649 0.183 5.019 0c0.367-0.182 2.547-2.075 1.998-2.688-0.548-0.612 5.255 1.545 5.799 1.545 0.543 0 4.271 2.05 4.271 2.05s9.136 0.726 9.679 0c0.546-0.726 3.625-0.504 3.625-2.05 0-1.545 1.188-4.653-0.946-6.104-2.133-1.449-4.489-0.952-3.583-3.193 0.904-2.242 6.803-8.765 3.583-9.127-3.12-0.352-12.427-9.518-12.355-9.603 2.25-2.719 2.657-5.254 3.813-6.521 1.155-1.27 1.881-6.795 0.61-6.75-1.268 0.046-8.334 0-8.334 0l-3.984 4.033-2.182 5.065z"/>
			<path fill="#2e2e2e" d="m36.279 92.024c-2.877 0-6.846-0.313-7.014-0.325l-0.23-0.02-0.205-0.112c-1.506-0.826-3.377-1.778-3.857-1.918-0.347-0.027-0.894-0.195-2.566-0.737-0.635-0.206-1.533-0.498-2.212-0.695-0.608 1.147-2.104 2.31-2.43 2.469-0.273 0.135-0.604 0.192-1.943 0.192-1.489 0-3.511-0.078-3.596-0.081l-0.542-0.021-1.986-2.868c-0.718-0.3-2.407-1.038-3.234-1.698-1.189-0.951-2.019-3.075-2.216-5.682-0.188-2.47 0-3.786 0.009-3.842l0.015-0.083c0.495-2.167 0.984-4.794 1.005-5.691-0.35-0.53-0.551-1.715-0.778-4.728-0.163-2.148-0.252-4.303-0.252-4.625 0-0.751 0.528-1.157 2.286-2.502 0.892-0.683 2.879-2.205 3.371-2.949-1.197-1.842 0.893-4.444 1.348-4.975l0.325-0.378h4.213l3.174 3.604 1.578-3.678 4.452-4.505 0.458 0.003c0.001 0 7.026 0.047 8.287 0.001 0.362-0.018 1.092 0.098 1.5 1.021 0.734 1.665-0.022 6.18-1.27 7.545-0.384 0.423-0.715 1.145-1.099 1.979-0.494 1.075-1.09 2.372-2.095 3.751 2.092 2.101 8.897 8.34 11.055 8.582 1.109 0.125 1.563 0.767 1.731 1.136 0.698 1.52-0.646 3.689-2.779 6.827-0.699 1.029-1.423 2.095-1.648 2.651-0.081 0.2-0.106 0.323-0.116 0.389 0.167 0.112 0.603 0.267 0.927 0.382 0.683 0.242 1.529 0.542 2.375 1.117 2.189 1.489 1.808 4.108 1.553 5.841-0.066 0.45-0.128 0.875-0.128 1.163 0 1.813-1.899 2.268-3.034 2.538-0.288 0.068-0.711 0.169-0.876 0.248-0.399 0.457-1.107 0.674-3.556 0.674zm-6.61-2.475c0.895 0.066 4.206 0.301 6.61 0.301 1.339 0 1.888-0.073 2.089-0.114 0.456-0.416 1.128-0.576 1.833-0.745 0.398-0.097 1.231-0.297 1.392-0.486-0.025-0.384 0.048-0.885 0.126-1.415 0.258-1.76 0.365-3.057-0.623-3.729-0.614-0.417-1.287-0.655-1.88-0.866-0.885-0.313-1.8-0.639-2.201-1.529-0.265-0.591-0.23-1.278 0.104-2.104 0.313-0.771 1.031-1.833 1.864-3.059 0.828-1.219 2.496-3.672 2.593-4.582-3.407-0.401-12.87-9.38-13.229-10.27l-0.243-0.601 0.413-0.504c1.191-1.438 1.822-2.813 2.379-4.026 0.459-1.001 0.856-1.864 1.469-2.535 0.663-0.729 1.154-3.794 0.969-4.92-1.646 0.023-6.012 0.001-7.437-0.009l-3.52 3.562-2.771 6.461-4.798-5.448h-2.208c-0.677 0.919-1.006 1.852-0.848 2.023 0.301 0.329 0.445 0.761 0.406 1.216-0.116 1.314-1.779 2.682-4.305 4.614-0.51 0.392-1.122 0.858-1.425 1.13 0.049 1.507 0.329 6.292 0.631 7.604 0.539 0.438 0.663 1.743-0.655 7.521-0.022 0.202-0.139 1.337 0.014 3.328 0.169 2.224 0.829 3.686 1.407 4.146 0.565 0.455 2.131 1.161 2.981 1.499l0.305 0.122 1.739 2.51c0.708 0.022 1.979 0.062 2.97 0.062 0.615 0 0.924-0.016 1.065-0.025 0.334-0.25 1.071-0.96 1.331-1.369-0.087-0.264-0.076-0.549 0.04-0.809 0.188-0.422 0.597-0.674 1.094-0.674 0.529 0 1.542 0.311 3.726 1.019 0.76 0.246 1.79 0.58 2.074 0.638 0.3 0.006 1.035 0.16 4.519 2.063z"/>
			<linearGradient id="SVGID_47_" y2="-272.05" gradientUnits="userSpaceOnUse" y1="-308.93" gradientTransform="translate(78,350)" x2="-56.966" x1="-26.27">
				<stop stop-color="#585E62" stop-opacity="0" offset="0"/>
				<stop stop-color="#54595D" stop-opacity=".0605" offset=".0169"/>
				<stop stop-color="#454549" stop-opacity=".3288" offset=".092"/>
				<stop stop-color="#3C3A3E" stop-opacity=".6028" offset=".1687"/>
				<stop stop-color="#39363A" stop-opacity=".889" offset=".2489"/>
				<stop stop-color="#241F23" stop-opacity=".9279" offset=".8209"/>
			</linearGradient>
			<polygon points="50.906 95.975 23.041 92.571 21.887 95.975 18.08 92.024 11.617 91.271 4.734 89.247 4.164 85.876 1.91 76.906 3.186 67.028 1.91 58.361 4.164 59.366 5.58 42.601 7.184 52.457 15.051 32.799 17.245 51.112 30.443 34.113 29.754 44.663 45.618 40.666 33.725 60.804 42.22 58.361 37.75 64.268 55.529 69.101 42.22 77.423 54.901 83.468 45.618 85.69" fill="url(#SVGID_47_)"/>
			<g opacity=".4" fill="#2d2e2d">
				<path d="m3.451 71.407c0.146-0.676 0.312-1.11 0.312-1.11l-0.193-1.187 0.02-0.01 4.517 0.637s-0.748 0.782-1.222 1.901c-0.88 0.377-2.554 0.879-3.434-0.231z"/>
				<path d="m12.666 78.538c0.055-1.171 0.046-2.607-0.203-3.758 1.171 0.495 2.562 1.529 3.777 2.459-0.042 0.711-0.75 1.704-1.497 2.516-0.732-0.603-1.54-1.077-2.077-1.217z"/>
				<path d="m6.583 72.586c-0.109 0.545-0.119 1.131 0.055 1.724 0.009 0.03 0.021 0.056 0.029 0.084-0.669 0.534-1.885 1.331-2.81 1.246-0.078-0.007-0.149-0.022-0.222-0.043-0.433-1.111-0.452-2.292-0.341-3.258 0.939 0.702 2.227 0.591 3.289 0.247z"/>
				<path d="m16.34 81.748c-0.156-0.48-0.541-0.999-1.022-1.479 0.616-0.665 1.354-1.605 1.606-2.509 0.29 0.221 0.563 0.427 0.813 0.604 1.201 0.858 1.215 2.323 1 3.433-0.688 0.018-1.533 0-2.397-0.049z"/>
				<path d="m8.02 79.006c-0.399-0.13-0.834-0.282-1.338-0.484-1.283-0.514-2.104-1.266-2.631-2.105 1.096-0.024 2.269-0.779 2.933-1.286 0.402 0.688 0.954 0.939 1.552 0.861-0.03 1.116-0.173 2.339-0.516 3.014z"/>
				<path d="m11.602 74.52c0.311 1.021 0.355 2.652 0.281 4.14-0.502 0.364-0.781 1.166-3.119 0.563 0.444-0.988 0.542-2.472 0.548-3.501 0.371-0.202 0.741-0.504 1.086-0.882 0.295-0.323 0.715-0.399 1.204-0.32z"/>
				<path d="m15.497 86.738 0.031-0.232-2.604-0.367c0.162-0.129 3.357-3.45 3.418-3.609 0.891 0.058 1.613 0.072 2.191 0.063-0.102 0.326-2.151 3-3.036 4.145z"/>
			</g>
			<path opacity=".8" d="m42.1 84.307h-10.798v-3.4h2.708v-2.839h-2.708v-1.418h-2.191v1.418h-5.161v-3.095h12.255v-3.354h-12.256v-10.814h-3.223v10.814h-2.708v-15.416l-1.806-2.051v17.466h-3.048v3.354h3.048v5.03c0 0.498 0.405 0.901 0.903 0.901 0.028 0 0.056-0.014 0.086-0.018 0.056 0.008 0.111 0.018 0.172 0.018h3.354 0.646 0.516 2.063 5.161v3.401h-3.115v1.384h3.115v1.534h2.191v-1.534h10.904c0.032-0.527 0.009-0.992-0.108-1.381zm-22.922-5.724h-2.708v-3.61h2.708v3.61zm1.838-1.419c-0.802 0-1.451-0.648-1.451-1.45 0-0.803 0.649-1.451 1.451-1.451 0.801 0 1.451 0.649 1.451 1.451 0 0.801-0.65 1.45-1.451 1.45z" enable-background="new    " fill="#383231"/>
			<path d="m20.677 85.876-3.693 1.356s-2.563 4.962-0.77 6.583c0 0 5.885-6.133 7.885-5.073s1.23-1.117 1.23-1.117l-4.652-1.749z" stroke="#2e2e2e" stroke-miterlimit="10" stroke-width="1.5476" fill="#4a4549"/>
			<g fill="#2d2e2d">
				<path d="m75.369 52.161c0.051 0.688 0.152 1.144 0.152 1.144l-0.354 1.147 0.017 0.014h4.563s-0.634-0.879-0.945-2.055c-0.818-0.493-2.406-1.224-3.433-0.25z"/>
				<path d="m85.49 46.388c-0.109 1.167-0.318 2.59-0.727 3.692 1.229-0.326 2.75-1.156 4.082-1.906 0.06-0.709-0.503-1.793-1.13-2.7-0.806 0.494-1.674 0.85-2.225 0.914z"/>
				<path d="m78.636 51.433c-0.033-0.555 0.039-1.136 0.295-1.699 0.014-0.027 0.027-0.051 0.041-0.078-0.589-0.622-1.682-1.581-2.605-1.625-0.078-0.005-0.153 0.002-0.229 0.012-0.582 1.04-0.768 2.207-0.791 3.179 1.026-0.57 2.285-0.278 3.289 0.211z"/>
				<path d="m89.578 43.723c-0.225 0.454-0.678 0.913-1.221 1.32 0.519 0.743 1.115 1.776 1.24 2.708 0.318-0.179 0.618-0.345 0.89-0.485 1.312-0.684 1.526-2.132 1.47-3.259-0.678-0.113-1.518-0.211-2.379-0.284z"/>
				<path d="m80.955 45.276c-0.414 0.072-0.865 0.163-1.395 0.292-1.342 0.33-2.262 0.959-2.896 1.719 1.081 0.179 2.136 1.09 2.724 1.685 0.494-0.625 1.075-0.798 1.655-0.637 0.128-1.112 0.158-2.344-0.088-3.059z"/>
				<path d="m83.876 50.218c0.447-0.969 0.721-2.576 0.854-4.06-0.443-0.433-0.607-1.264-3.01-0.995 0.303 1.041 0.191 2.522 0.055 3.543 0.339 0.252 0.662 0.604 0.951 1.024 0.249 0.364 0.653 0.498 1.15 0.488z"/>
				<path d="m89.439 38.662v0.235h-2.631c0.144 0.151 2.844 3.886 2.881 4.052 0.893 0.069 1.607 0.153 2.18 0.245-0.059-0.339-1.713-3.272-2.43-4.532z"/>
			</g>
			<radialGradient id="SVGID_48_" gradientUnits="userSpaceOnUse" cy="29.181" r="20.431" cx="97.181">
				<stop stop-color="#262125" stop-opacity=".9193" offset=".129"/>
				<stop stop-color="#585E62" stop-opacity="0" offset="1"/>
			</radialGradient>
			<circle opacity=".9" cy="29.181" cx="97.181" r="20.431" fill="url(#SVGID_48_)"/>
		</g>
		<g id="us_chip_restored" transform="translate(415.46 147.1)">
			<radialGradient id="SVGID_1_-6" cx="4.8521" gradientUnits="userSpaceOnUse" cy="1030.6" r="7.8098" gradientTransform="matrix(1,0,0,-1,78,1142)">
				<stop stop-color="#31312F" offset=".0538"/>
				<stop stop-color="#31312F" offset=".31"/>
				<stop stop-color="#BEBFA0" offset=".7807"/>
				<stop stop-color="#A58661" offset="1"/>
			</radialGradient>
			<circle cy="111.37" cx="82.852" r="7.81" fill="url(#SVGID_1_-6)"/>
			<circle cy="111.37" cx="82.852" r="5.364" fill="#352d2d"/>
			<linearGradient id="SVGID_2_-2" y2="1036.3" gradientUnits="userSpaceOnUse" y1="1042.6" gradientTransform="matrix(1,0,0,-1,78,1142)" x2="4.834" x1="4.834">
				<stop stop-color="#8C8C8C" offset="0"/>
				<stop stop-color="#9E9E9E" offset=".1037"/>
				<stop stop-color="#B2B2B2" offset=".2609"/>
				<stop stop-color="#C1C1C1" offset=".4388"/>
				<stop stop-color="#C9C9C9" offset=".6528"/>
				<stop stop-color="#ccc" offset="1"/>
			</linearGradient>
			<rect height="20.652" width="6.358" stroke="#999" stroke-miterlimit="10" y="85.796" x="79.654" stroke-width="1.2307" fill="url(#SVGID_2_-2)"/>
			<polyline stroke="#999" points="79.654 106.45 80.885 108.33 84.577 108.33 86.013 106.45" stroke-miterlimit="10" stroke-width=".87020" fill="#808080"/>
			<radialGradient id="SVGID_3_-9" cx="-22.422" gradientUnits="userSpaceOnUse" cy="1030.6" r="7.8096" gradientTransform="matrix(1,0,0,-1,78,1142)">
				<stop stop-color="#31312F" offset=".0538"/>
				<stop stop-color="#31312F" offset=".31"/>
				<stop stop-color="#BEBFA0" offset=".7807"/>
				<stop stop-color="#A58661" offset="1"/>
			</radialGradient>
			<circle cy="111.37" cx="55.578" r="7.81" fill="url(#SVGID_3_-9)"/>
			<circle cy="111.37" cx="55.578" r="5.364" fill="#352d2d"/>
			<linearGradient id="SVGID_4_-1" y2="1036.3" gradientUnits="userSpaceOnUse" y1="1042.6" gradientTransform="matrix(1,0,0,-1,78,1142)" x2="-22.44" x1="-22.44">
				<stop stop-color="#8C8C8C" offset="0"/>
				<stop stop-color="#9E9E9E" offset=".1037"/>
				<stop stop-color="#B2B2B2" offset=".2609"/>
				<stop stop-color="#C1C1C1" offset=".4388"/>
				<stop stop-color="#C9C9C9" offset=".6528"/>
				<stop stop-color="#ccc" offset="1"/>
			</linearGradient>
			<rect height="20.652" width="6.358" stroke="#999" stroke-miterlimit="10" y="85.796" x="52.38" stroke-width="1.2307" fill="url(#SVGID_4_-1)"/>
			<polyline stroke="#999" points="52.38 106.45 53.611 108.33 57.304 108.33 58.738 106.45" stroke-miterlimit="10" stroke-width=".87020" fill="#808080"/>
			<radialGradient id="SVGID_5_-2" cx="-49.695" gradientUnits="userSpaceOnUse" cy="1030.6" r="7.8098" gradientTransform="matrix(1,0,0,-1,78,1142)">
				<stop stop-color="#31312F" offset=".0538"/>
				<stop stop-color="#31312F" offset=".31"/>
				<stop stop-color="#BEBFA0" offset=".7807"/>
				<stop stop-color="#A58661" offset="1"/>
			</radialGradient>
			<circle cy="111.37" cx="28.305" r="7.81" fill="url(#SVGID_5_-2)"/>
			<circle cy="111.38" cx="28.305" r="5.365" fill="#352d2d"/>
			<linearGradient id="SVGID_6_-7" y2="1036.3" gradientUnits="userSpaceOnUse" y1="1042.6" gradientTransform="matrix(1,0,0,-1,78,1142)" x2="-49.713" x1="-49.713">
				<stop stop-color="#8C8C8C" offset="0"/>
				<stop stop-color="#9E9E9E" offset=".1037"/>
				<stop stop-color="#B2B2B2" offset=".2609"/>
				<stop stop-color="#C1C1C1" offset=".4388"/>
				<stop stop-color="#C9C9C9" offset=".6528"/>
				<stop stop-color="#ccc" offset="1"/>
			</linearGradient>
			<rect height="20.652" width="6.359" stroke="#999" stroke-miterlimit="10" y="85.796" x="25.107" stroke-width="1.2307" fill="url(#SVGID_6_-7)"/>
			<polyline stroke="#999" points="25.107 106.45 26.338 108.33 30.029 108.33 31.465 106.45" stroke-miterlimit="10" stroke-width=".87020" fill="#808080"/>
			<radialGradient id="SVGID_7_-0" cx="774.09" gradientUnits="userSpaceOnUse" cy="658.79" r="7.8096" gradientTransform="matrix(-1 0 0 1 802.39 -650.98)">
				<stop stop-color="#31312F" offset=".0538"/>
				<stop stop-color="#31312F" offset=".31"/>
				<stop stop-color="#BEBFA0" offset=".7807"/>
				<stop stop-color="#A58661" offset="1"/>
			</radialGradient>
			<circle cy="7.81" cx="28.305" r="7.81" fill="url(#SVGID_7_-0)"/>
			<circle cy="7.81" cx="28.305" r="5.365" fill="#352d2d"/>
			<linearGradient id="SVGID_8_-9" y2="664.44" gradientUnits="userSpaceOnUse" y1="670.79" gradientTransform="matrix(-1 0 0 1 802.39 -650.98)" x2="774.07" x1="774.07">
				<stop stop-color="#8C8C8C" offset="0"/>
				<stop stop-color="#9E9E9E" offset=".1037"/>
				<stop stop-color="#B2B2B2" offset=".2609"/>
				<stop stop-color="#C1C1C1" offset=".4388"/>
				<stop stop-color="#C9C9C9" offset=".6528"/>
				<stop stop-color="#ccc" offset="1"/>
			</linearGradient>
			<rect height="20.652" width="6.359" stroke="#999" stroke-miterlimit="10" y="12.736" x="25.144" stroke-width="1.2307" fill="url(#SVGID_8_-9)"/>
			<polyline stroke="#999" points="31.503 12.736 30.272 10.858 26.58 10.858 25.144 12.736" stroke-miterlimit="10" stroke-width=".87020" fill="#808080"/>
			<radialGradient id="SVGID_9_-3" cx="746.81" gradientUnits="userSpaceOnUse" cy="658.79" r="7.8101" gradientTransform="matrix(-1 0 0 1 802.39 -650.98)">
				<stop stop-color="#31312F" offset=".0538"/>
				<stop stop-color="#31312F" offset=".31"/>
				<stop stop-color="#BEBFA0" offset=".7807"/>
				<stop stop-color="#A58661" offset="1"/>
			</radialGradient>
			<circle cy="7.81" cx="55.578" r="7.81" fill="url(#SVGID_9_-3)"/>
			<circle cy="7.81" cx="55.578" r="5.364" fill="#352d2d"/>
			<linearGradient id="SVGID_10_-6" y2="664.44" gradientUnits="userSpaceOnUse" y1="670.79" gradientTransform="matrix(-1 0 0 1 802.39 -650.98)" x2="746.79" x1="746.79">
				<stop stop-color="#8C8C8C" offset="0"/>
				<stop stop-color="#9E9E9E" offset=".1037"/>
				<stop stop-color="#B2B2B2" offset=".2609"/>
				<stop stop-color="#C1C1C1" offset=".4388"/>
				<stop stop-color="#C9C9C9" offset=".6528"/>
				<stop stop-color="#ccc" offset="1"/>
			</linearGradient>
			<rect height="20.652" width="6.358" stroke="#999" stroke-miterlimit="10" y="12.736" x="52.417" stroke-width="1.2307" fill="url(#SVGID_10_-6)"/>
			<polyline stroke="#999" points="58.775 12.736 57.545 10.858 53.854 10.858 52.417 12.736" stroke-miterlimit="10" stroke-width=".87020" fill="#808080"/>
			<radialGradient id="SVGID_11_-0" cx="719.54" gradientUnits="userSpaceOnUse" cy="658.79" r="7.8096" gradientTransform="matrix(-1 0 0 1 802.39 -650.98)">
				<stop stop-color="#31312F" offset=".0538"/>
				<stop stop-color="#31312F" offset=".31"/>
				<stop stop-color="#BEBFA0" offset=".7807"/>
				<stop stop-color="#A58661" offset="1"/>
			</radialGradient>
			<circle cy="7.81" cx="82.852" r="7.81" fill="url(#SVGID_11_-0)"/>
			<circle cy="7.81" cx="82.852" r="5.365" fill="#352d2d"/>
			<linearGradient id="SVGID_12_-6" y2="664.44" gradientUnits="userSpaceOnUse" y1="670.79" gradientTransform="matrix(-1 0 0 1 802.39 -650.98)" x2="719.52" x1="719.52">
				<stop stop-color="#8C8C8C" offset="0"/>
				<stop stop-color="#9E9E9E" offset=".1037"/>
				<stop stop-color="#B2B2B2" offset=".2609"/>
				<stop stop-color="#C1C1C1" offset=".4388"/>
				<stop stop-color="#C9C9C9" offset=".6528"/>
				<stop stop-color="#ccc" offset="1"/>
			</linearGradient>
			<rect height="20.652" width="6.358" stroke="#999" stroke-miterlimit="10" y="12.736" x="79.691" stroke-width="1.2307" fill="url(#SVGID_12_-6)"/>
			<path fill="#012239" d="m109.86 87.487c0 5.014-4.065 9.079-9.08 9.079h-91.703c-5.012 0-9.077-4.064-9.077-9.079v-53.355c0-5.015 4.065-9.08 9.078-9.08h91.705c5.014 0 9.078 4.065 9.078 9.08v53.355z"/>
			<path fill="#0d3654" d="m108.54 84.441c0 4.904-3.975 8.878-8.877 8.878h-89.671c-4.903 0-8.877-3.976-8.877-8.878v-52.172c0-4.903 3.974-8.878 8.877-8.878h89.671c4.902 0 8.877 3.975 8.877 8.878v52.172z"/>
			<path fill="#084050" d="m99.658 93.936h-89.671c-5.235 0-9.493-4.258-9.493-9.494v-52.173c0-5.234 4.258-9.493 9.493-9.493h89.671c5.234 0 9.492 4.258 9.492 9.493v52.172c0 5.237-4.257 9.495-9.492 9.495zm-89.671-69.929c-4.556 0-8.262 3.707-8.262 8.262v52.172c0 4.557 3.707 8.263 8.262 8.263h89.671c4.556 0 8.262-3.706 8.262-8.263v-52.172c0-4.556-3.707-8.262-8.262-8.262h-89.671z"/>
			<polyline stroke="#999" points="86.05 12.736 84.818 10.858 81.128 10.858 79.691 12.736" stroke-miterlimit="10" stroke-width=".87020" fill="#808080"/>
			<path fill="#012239" d="m109.86 87.487c0 5.014-4.065 9.079-9.08 9.079h-91.703c-5.012 0-9.077-4.064-9.077-9.079v-53.355c0-5.015 4.065-9.08 9.078-9.08h91.705c5.014 0 9.078 4.065 9.078 9.08v53.355z"/>
			<path fill="#0d3654" d="m108.54 84.441c0 4.904-3.975 8.878-8.877 8.878h-89.671c-4.903 0-8.877-3.976-8.877-8.878v-52.172c0-4.903 3.974-8.878 8.877-8.878h89.671c4.902 0 8.877 3.975 8.877 8.878v52.172z"/>
			<linearGradient id="SVGID_13_-2" y2="1094.7" gradientUnits="userSpaceOnUse" y1="1117.1" gradientTransform="matrix(1,0,0,-1,78,1142)" x2="24.624" x1="9.1509">
				<stop stop-color="#0E3B57" offset="0"/>
				<stop stop-color="#123F5A" offset=".095"/>
				<stop stop-color="#1D4A64" offset=".1821"/>
				<stop stop-color="#2F5C75" offset=".2662"/>
				<stop stop-color="#49778C" offset=".3484"/>
				<stop stop-color="#6B98AA" offset=".429"/>
				<stop stop-color="#93C1CE" offset=".5078"/>
				<stop stop-color="#94C2CF" offset=".5095"/>
				<stop stop-color="#80AEBE" offset=".5258"/>
				<stop stop-color="#608EA1" offset=".5578"/>
				<stop stop-color="#447289" offset=".5938"/>
				<stop stop-color="#2E5B75" offset=".634"/>
				<stop stop-color="#1C4966" offset=".6803"/>
				<stop stop-color="#103D5B" offset=".7365"/>
				<stop stop-color="#093655" offset=".8129"/>
				<stop stop-color="#073453" offset="1"/>
			</linearGradient>
			<path opacity=".5" style="enable-background:new" fill="url(#SVGID_13_-2)" d="m99.747 22.777h-17.58v22.328h26.917v-12.992c0-5.157-4.184-9.336-9.337-9.336z"/>
			<linearGradient id="SVGID_14_-6" y2="1079.7" gradientUnits="userSpaceOnUse" y1="1102.1" gradientTransform="matrix(-4.3711e-8 -1 -1 4.3711e-8 1104.5 409.74)" x2="380.5" x1="365.03">
				<stop stop-color="#0E3B57" offset="0"/>
				<stop stop-color="#123F5A" offset=".095"/>
				<stop stop-color="#1D4A64" offset=".1821"/>
				<stop stop-color="#2F5C75" offset=".2662"/>
				<stop stop-color="#49778C" offset=".3484"/>
				<stop stop-color="#6B98AA" offset=".429"/>
				<stop stop-color="#93C1CE" offset=".5078"/>
				<stop stop-color="#94C2CF" offset=".5095"/>
				<stop stop-color="#7BA8B8" offset=".5608"/>
				<stop stop-color="#4E7C91" offset=".6618"/>
				<stop stop-color="#2B5972" offset=".759"/>
				<stop stop-color="#12405B" offset=".8503"/>
				<stop stop-color="#03304E" offset=".9331"/>
				<stop stop-color="#002B49" offset="1"/>
			</linearGradient>
			<path opacity=".5" style="enable-background:new" fill="url(#SVGID_14_-6)" d="m0.306 32.114v17.58h22.329v-26.917h-12.991c-5.158 0-9.338 4.181-9.338 9.337z"/>
			<linearGradient id="SVGID_15_-1" y2="642.58" gradientUnits="userSpaceOnUse" y1="664.96" gradientTransform="matrix(-1 0 0 1 299.93 -573.19)" x2="292.92" x1="277.45">
				<stop stop-color="#123F5B" offset="0"/>
				<stop stop-color="#16435E" offset=".0963"/>
				<stop stop-color="#214E68" offset=".1847"/>
				<stop stop-color="#336079" offset=".27"/>
				<stop stop-color="#4D7B90" offset=".3533"/>
				<stop stop-color="#6E9CAD" offset=".4345"/>
				<stop stop-color="#94C2CF" offset=".5095"/>
				<stop stop-color="#81AEBE" offset=".55"/>
				<stop stop-color="#548296" offset=".6535"/>
				<stop stop-color="#315F77" offset=".7532"/>
				<stop stop-color="#184661" offset=".8466"/>
				<stop stop-color="#093654" offset=".9315"/>
				<stop stop-color="#04314F" offset="1"/>
			</linearGradient>
			<path opacity=".5" style="enable-background:new" fill="url(#SVGID_15_-1)" d="m9.888 93.887h17.58v-22.328h-26.917v12.991c0 5.157 4.181 9.337 9.337 9.337z"/>
			<linearGradient id="SVGID_16_-8" y2="642.58" gradientUnits="userSpaceOnUse" y1="664.96" gradientTransform="translate(338.21 -573.19)" x2="-235.58" x1="-251.06">
				<stop stop-color="#0E3B57" offset="0"/>
				<stop stop-color="#123F5A" offset=".095"/>
				<stop stop-color="#1D4A64" offset=".1821"/>
				<stop stop-color="#2F5C75" offset=".2662"/>
				<stop stop-color="#49778C" offset=".3484"/>
				<stop stop-color="#6B98AA" offset=".429"/>
				<stop stop-color="#93C1CE" offset=".5078"/>
				<stop stop-color="#94C2CF" offset=".5095"/>
				<stop stop-color="#7BA8B8" offset=".5608"/>
				<stop stop-color="#4E7C91" offset=".6618"/>
				<stop stop-color="#2B5972" offset=".759"/>
				<stop stop-color="#12405B" offset=".8503"/>
				<stop stop-color="#03304E" offset=".9331"/>
				<stop stop-color="#002B49" offset="1"/>
			</linearGradient>
			<path opacity=".5" style="enable-background:new" fill="url(#SVGID_16_-8)" d="m99.747 93.887h-17.58v-22.328h26.917v12.991c0 5.157-4.184 9.337-9.337 9.337z"/>
			<linearGradient id="SVGID_17_-7" y2="1058.1" gradientUnits="userSpaceOnUse" y1="1117.7" gradientTransform="matrix(1,0,0,-1,78,1142)" x2="-13.502" x1="-39.659">
				<stop stop-color="#0D4D65" offset="0"/>
				<stop stop-color="#0B4860" offset=".2069"/>
				<stop stop-color="#073A53" offset=".4472"/>
				<stop stop-color="#00233D" offset=".7032"/>
				<stop stop-color="#001832" offset=".801"/>
			</linearGradient>
			<path opacity=".9" style="enable-background:new" fill="url(#SVGID_17_-7)" d="m99.279 81.874c0 4.138-3.354 7.495-7.493 7.495h-75.704c-4.138 0-7.494-3.355-7.494-7.495v-44.046c0-4.139 3.355-7.494 7.494-7.494h75.704c4.139 0 7.493 3.355 7.493 7.494v44.046z"/>
			<path fill="#042547" d="m97.584 81.05c0 3.984-3.23 7.214-7.214 7.214h-72.87c-3.984 0-7.214-3.229-7.214-7.214v-42.397c0-3.985 3.229-7.215 7.214-7.215h72.87c3.983 0 7.214 3.23 7.214 7.215v42.397z"/>
			<path fill="#084050" d="m99.658 93.936h-89.671c-5.235 0-9.493-4.258-9.493-9.494v-52.173c0-5.234 4.258-9.493 9.493-9.493h89.671c5.234 0 9.492 4.258 9.492 9.493v52.172c0 5.237-4.257 9.495-9.492 9.495zm-89.671-69.929c-4.556 0-8.262 3.707-8.262 8.262v52.172c0 4.557 3.707 8.263 8.262 8.263h89.671c4.556 0 8.262-3.706 8.262-8.263v-52.172c0-4.556-3.707-8.262-8.262-8.262h-89.671z"/>
		</g>
	</g>
</svg>
