<?xml version="1.0" encoding="UTF-8" standalone="no"?>
<svg id="unit_playing" xmlns:rdf="http://www.w3.org/1999/02/22-rdf-syntax-ns#" xmlns="http://www.w3.org/2000/svg" y="0px" xml:space="preserve" height="768" viewBox="0 0 1023.9983 767.99763" width="1024" version="1.1" enable-background="new 0 0 1024 768" x="0px" xmlns:cc="http://creativecommons.org/ns#" xmlns:xlink="http://www.w3.org/1999/xlink" xmlns:dc="http://purl.org/dc/elements/1.1/"><metadata id="metadata4527"><rdf:RDF><cc:Work rdf:about=""><dc:format>image/svg+xml</dc:format><dc:type rdf:resource="http://purl.org/dc/dcmitype/StillImage"/><dc:title/></cc:Work></rdf:RDF></metadata><defs id="defs588"><rect id="SVGID_1_-79" y="0" width="16.749" x=".001" height="19.5"/><rect id="SVGID_1_-04" y="0" width="13.333" x="0" height="15.5"/><rect id="SVGID_1_-487" y="0" width="13.333" x="0" height="15.5"/><rect id="SVGID_1_-62" y="0" width="13.332" x="0" height="15.5"/><rect id="SVGID_1_-93" y="0" width="13.333" x="0" height="22"/><rect id="SVGID_1_-83" y="-.001" width="13.333" x="0" height="22.001"/><rect id="SVGID_1_-78" y="-.001" width="13.333" x="0" height="22.001"/><rect id="SVGID_1_-54" y="0" width="13.333" x="0" height="22"/><rect id="SVGID_1_-749" y="0" width="13.333" x="0" height="22"/><rect id="SVGID_1_-935" y="0" width="16.749" x="0" height="19.5"/><linearGradient id="linearGradient5733" y2="66.075" gradientUnits="userSpaceOnUse" x2="671.17" gradientTransform="matrix(.99885 0 0 1 .64047 0)" y1="766.81" x1="671.17"><stop id="stop5727" stop-color="#798b7a" offset="0"/><stop id="stop5729" stop-color="#e9e3ec" offset="1"/></linearGradient></defs><g id="g821"><rect id="up_code_segment" height="767" width="255.03" stroke="#000" y=".50008" x="768.73" stroke-width="1.0013" fill="#e3dbe2"/><g id="up_background" transform="translate(-322.26)"><rect id="rect4704" height="703.35" width="768" y="63.765" x="322.08" fill="url(#linearGradient5733)"/><rect id="rect4839" height="64.754" width="768" y="-.98902" x="322.08" stroke-width="0" fill="#772a35"/></g></g><g id="g1153"><g id="up_heap_segment_disabled"><g stroke="#000" stroke-miterlimit="10"><path id="path827" d="m383.06 64.384v225.65h386.25v-225.65z" fill="#65675f"/><rect id="rect831" height="9.054" width="386.6" y="64.384" x="383.06" fill="#898989"/><path id="path877" d="m0.55671 64.384v225.65h382.14v-225.65z" fill="#65675f"/><rect id="rect881" height="9.054" width="382.49" y="64.384" x=".21671" fill="#898989"/></g><g id="g929" fill="#364a59" transform="translate(.21771 64.382)"><polygon id="polygon923" points="406.1 123.3 401.27 118.47 389.9 118.47 390.15 118.81 381.95 118.81 381.95 124.46 401.27 124.46 406.1 129.29 410.93 134.12 410.93 128.14"/><polygon id="polygon925" points="354.6 112.82 358.82 112.82 372.09 93.968 385.79 112.82 390.15 112.82 372.09 87.979"/><rect id="rect927" y="152.29" width="9.666" height="5.989" x="381.95"/></g><g id="g939" fill="#90b5b3" transform="translate(.21771 64.382)"><rect id="rect931" y="127.74" width="9.666" height="5.229" x="381.95"/><polygon id="polygon933" points="381.95 112.82 390.15 112.82 386.35 107.6 381.95 107.6"/><polygon id="polygon935" points="362.62 107.6 358.28 107.6 354.6 112.82 362.62 112.82"/><polygon id="polygon937" points="362.62 157.12 367.45 161.95 372.28 166.79 401.27 166.79 406.1 161.95 410.93 157.12 410.93 151.9 406.1 156.72 401.27 161.56 372.28 161.56 367.45 156.72 362.62 151.9"/></g><path id="path941" opacity=".3" d="m401.49 182.85h-19.326v-5.646h8.201l-18.054-24.847-17.491 24.847h8.017v44.298l4.834 4.829 4.83 4.835h28.989l4.832-4.835 4.83-4.829v-28.988l-4.83-4.834zm-9.66 33.822h-9.666v-19.32h9.666z" stroke="#636363" stroke-miterlimit="10" fill="#3f3f3f"/><path id="path943" d="m401.49 182.85h-19.326v-5.646h8.201l-18.054-24.847-17.491 24.847h8.017v44.298l4.834 4.829 4.83 4.835h28.989l4.832-4.835 4.83-4.829v-28.988l-4.83-4.834zm-9.66 33.822h-9.666v-19.32h9.666z" stroke="#585c53" stroke-miterlimit="10" fill="none"/><g id="g953" fill="#525954" transform="translate(.21771 64.382)"><rect id="rect945" y="124.35" width="8.625" height="3.386" x="380.47"/><rect id="rect947" y="158.27" width="8.626" height="3.386" x="382.23"/><rect id="rect949" y="133.42" width="8.625" height="18.479" x="374.72"/><rect id="rect951" y="113.23" width="8.625" height="4.602" x="374.72"/></g></g></g><g id="g2522"><g id="up_cpu_core" stroke-miterlimit="10" stroke="#000"><g id="g1340" transform="translate(1.0277,352.41)"><rect id="rect1336" height="231.64" width="7.16" y="0" x=".001" fill="#898989"/><rect id="rect1338" height="185.84" width="7.161" y="82.405" x="0" fill="#565951"/></g><g id="g1346" transform="translate(1.0277,352.41)"><rect id="rect1342" height="231.64" width="7.16" y="0" x="183.96" fill="#898989"/><rect id="rect1344" height="185.84" width="7.16" y="82.405" x="183.96" fill="#565951"/></g></g><g id="up_robot_wave" fill="#31c1ff" transform="translate(266.63,390.25)"><path id="path2511" d="m0 19.07h2.063c1.017-3.561 4.293-6.18 8.177-6.18 3.883 0 7.159 2.619 8.176 6.18h2.063c-1.063-4.676-5.246-8.18-10.239-8.18-4.994 0-9.176 3.504-10.24 8.18z"/><path id="path2513" d="m0 8.39h2.063c1.017-3.56 4.293-6.18 8.177-6.18 3.883 0 7.159 2.619 8.176 6.18h2.063c-1.063-4.676-5.246-8.18-10.239-8.18-4.994 0-9.176 3.504-10.24 8.18z"/><path id="path2515" d="m0 29.75h2.063c1.017-3.561 4.293-6.18 8.177-6.18 3.883 0 7.159 2.619 8.176 6.18h2.063c-1.063-4.676-5.246-8.18-10.239-8.18-4.994 0-9.176 3.504-10.24 8.18z"/><path id="path2517" d="m0 40.429h2.063c1.017-3.561 4.293-6.18 8.177-6.18 3.883 0 7.159 2.619 8.176 6.18h2.063c-1.063-4.676-5.246-8.18-10.239-8.18-4.994 0.001-9.176 3.504-10.24 8.18z"/><polygon id="polygon2519" opacity=".2" points="10.224 1.333 18.224 4.3 18.224 40.429 2.224 40.429 2.224 4.3"/></g><ellipse id="up_thread1_side" rx="34.343" ry="46.321" stroke="#000" cy="406.89" cx="345.35" fill="#005ab3"/><g id="up_thread1_front" transform="translate(0 -1.8657)" stroke="#000"><ellipse id="ellipse2996" rx="52.878" ry="46.525" cy="515.22" cx="346.51" stroke-width="1.2436" fill="#005ab3"/><rect id="rect3175" rx="2" ry="2" height="20.421" width="42.6" y="494.82" x="325.14" fill="#091d29"/></g><g id="up_thread1_back" transform="translate(0 101.71)" stroke="#000"><ellipse id="ellipse3181" rx="52.878" ry="46.525" cy="515.22" cx="346.51" stroke-width="1.2436" fill="#005ab3"/><rect id="rect3183" rx="2" ry="2" height="20.421" width="42.6" y="494.82" x="325.14" fill="#091d29"/></g><ellipse id="up_thread2_side" rx="33.523" ry="48.593" stroke="#000" cy="406.89" cx="462.29" stroke-width="1.0119" fill="#ffc000"/><g id="up_thread2_front" stroke="#000"><ellipse id="ellipse3288" rx="59.687" ry="47.048" cy="514.19" cx="461.9" stroke-width="1.3286" fill="#ffc000"/><rect id="rect3290" rx="2" ry="2" height="32.289" width="44.758" y="517.88" x="439.63" fill="#091d29"/></g><g id="up_thread2_back" transform="translate(0 104.26)" stroke="#000"><ellipse id="ellipse3454" rx="59.687" ry="47.048" cy="514.19" cx="461.9" stroke-width="1.3286" fill="#ffc000"/><rect id="rect3456" rx="2" ry="2" height="32.289" width="44.758" y="517.88" x="439.63" fill="#091d29"/></g><rect id="up_thread3_side" rx="25.159" ry="20.997" height="101.74" width="50.318" stroke="#000" y="354.49" x="545.25" stroke-width="1.5" fill="#de6b00"/><g id="up_thread3_front" stroke="#000"><rect id="rect3604" rx="41.932" ry="20.922" height="101.38" width="83.865" y="459.44" x="527.85" stroke-width="1.5" fill="#de6b00"/><rect id="rect3290-3" rx="2" ry="2" height="30.131" width="36.486" y="510.05" x="552.62" fill="#091d29"/></g><g id="up_thread3_back" transform="translate(0 104.3)" stroke="#000"><rect id="rect3753" rx="41.932" ry="20.922" height="101.38" width="83.865" y="459.44" x="527.85" stroke-width="1.5" fill="#de6b00"/><rect id="rect3755" rx="2" ry="2" height="30.131" width="36.486" y="510.05" x="552.62" fill="#091d29"/></g><rect id="up_thread4_side" rx="10.552" ry="9.4735" height="94.774" width="62.313" stroke="#000" y="361.72" x="641.15" stroke-width="1.5" fill="#728c00"/><g id="up_thread4_front" stroke="#000"><rect id="rect3850" rx="18.314" ry="9.4139" height="94.177" width="108.15" y="467.01" x="618.48" stroke-width="1.9699" fill="#728c00"/><rect id="rect3290-3-6" rx="2" ry="2" height="25.27" width="42.938" y="494.18" x="651.9" fill="#091d29"/></g><g id="up_thread4_back" transform="translate(0 103.94)" stroke="#000"><rect id="rect4033" rx="18.314" ry="9.4139" height="94.177" width="108.15" y="467.01" x="618.48" stroke-width="1.9699" fill="#728c00"/><rect id="rect4035" rx="2" ry="2" height="25.27" width="42.938" y="494.18" x="651.9" fill="#091d29"/></g><g id="up_cpu_core_rails" fill="#666"><rect id="rect4093" height="57.988" width="20.61" y="360.32" x="16.337"/><rect id="rect4096" height="57.988" width="20.61" y="360.32" x="155.99"/></g><g id="up_stack_segment_allocator_closed" stroke="#000" stroke-width="1px"><path id="path4106" d="m11.314 620.57h169.18l-4.42-18.39h-159.98z" fill="#7a8784"/><path id="path4108" d="m13.965 611.37h164.04" fill="none"/></g><g id="up_stack_segment_allocator_open_33"><g id="g4119" transform="translate(0 -30.052)"><path id="path4114" d="m11.314 620.57h169.18l-4.42-18.39h-159.98z" stroke="#000" stroke-width="1px" fill="#7a8784"/></g><path id="path4125" d="m14.253 579.12-1.2153 5.125h166.05l-1.2264-5.125z" stroke="#000" stroke-width="1px" fill="#3f3f3f"/></g><g id="up_stack_segment_allocator_open_66" stroke="#000" stroke-width="1px"><path id="path4132" d="m11.314 563.26h169.18l-4.42-18.38h-159.98z" fill="#7a8784"/><path id="path4137" d="m15.313 548.16-3.1378 11.842h167.5l-2.8358-11.842h-161.54z" fill="#3f3f3f"/></g><g stroke="#000" fill="#3f3f3f"><path id="up_stack_segment_allocator_open_100" d="m11.314 536.39h169.18l-4.42-18.38h-159.98z" stroke-width="1px"/><path id="up_stack_segment_allocator_open_lower" d="m13.602 499.65-2.2871 8.8125h169.18l-2.1172-8.8125z" transform="translate(0 -.0005475)" stroke-width="1px"/><path id="up_stack_segment_allocator_open_upper" d="m13.602 499.65h164.77l-2.3008-9.5723h-159.98z" transform="translate(0 -.0005475)" stroke-width="1px"/></g></g><g id="g4045"><g id="up_standard_output_middle" transform="translate(254.99)"><rect id="rect4481" height="38.8" width="187.6" y="729.2" x="162.7" fill="none"/><rect id="rect4483" fill-opacity=".50196" rx="2" ry="2" height="21.567" width="188.49" stroke="#000" y="731.88" x="162.35" stroke-width="0.983" fill="#ccc"/></g><g id="up_standard_input_right"><rect id="rect3745" rx="2" ry="2" height="37.351" width="33.229" stroke="#000" y="730.15" x="350.84" stroke-width="0.983" fill="#ccc"/><polygon id="polygon2778-3" transform="translate(350.44 728.23)" points="13.836 19.359 18.686 14.512 23.535 19.359 21.352 19.361 21.352 24.525 16.02 24.525 16.02 19.359"/></g><g id="up_standard_input_middle"><rect id="rect3012" height="38.8" width="187.6" y="729.2" x="162.7" fill="none"/><rect id="rect3010" fill-opacity=".50196" rx="2" ry="2" height="21.567" width="188.49" stroke="#000" y="731.88" x="162.35" stroke-width="0.983" fill="#ccc"/></g><g id="up_standard_input_left"><rect id="rect3393" height="38.799" width="162.98" y="729.2" x="-5.6843e-14" fill="none"/><rect id="rect2194" height="16.126" width="136.99" stroke="#000" y="737.32" x="25.355" stroke-width="0.983" fill="#ccc"/><rect id="rect3004" rx="2" ry="2" height="23.276" width="24.961" stroke="#000" y="730.17" x=".38146" stroke-width="0.983" fill="#ccc"/></g><g id="up_standard_output_left" transform="translate(33.193)"><rect id="rect4458" rx="2" ry="2" height="37.351" width="33.229" stroke="#000" y="730.15" x="350.84" stroke-width="0.983" fill="#ccc"/><polygon id="polygon4460" transform="matrix(1 0 0 -1 347.11 767.27)" points="21.352 24.525 16.02 24.525 16.02 19.359 13.836 19.359 18.686 14.512 23.535 19.359 21.352 19.361"/></g><g id="up_standard_output_right" transform="matrix(-1 0 0 1 768.32 0)"><rect id="rect4494" height="38.799" width="162.98" y="729.2" x="-5.6843e-14" fill="none"/><rect id="rect4496" height="16.126" width="136.99" stroke="#000" y="737.32" x="25.355" stroke-width="0.983" fill="#ccc"/><rect id="rect4498" rx="2" ry="2" height="23.276" width="24.961" stroke="#000" y="730.17" x=".38146" stroke-width="0.983" fill="#ccc"/></g><g id="up_standard_output_test_inactive"><g id="g4523"><rect id="rect4510" height="38.44" width="29.168" y="729.2" x="417.69" fill="none"/><rect id="rect4512" rx="2" ry="2" height="21.567" width="30.056" stroke="#000" y="731.88" x="417.33" stroke-width="0.983" fill="#ccc"/></g><circle id="path4525" stroke="#000" cy="742.73" cx="430.67" r="8.6314" fill="#666"/></g><g id="up_standard_output_test_valid" transform="translate(37.762)"><g id="g4537"><rect id="rect4533" height="38.44" width="29.168" y="729.2" x="417.69" fill="none"/><rect id="rect4535" rx="2" ry="2" height="21.567" width="30.056" stroke="#000" y="731.88" x="417.33" stroke-width="0.983" fill="#ccc"/></g><circle id="circle4539" cx="430.67" stroke="#000" cy="742.73" r="8.6314" fill="#17c000"/></g><g id="up_standard_output_test_invalid" transform="translate(75.075)"><g id="g4547"><rect id="rect4543" height="38.44" width="29.168" y="729.2" x="417.69" fill="none"/><rect id="rect4545" rx="2" ry="2" height="21.567" width="30.056" stroke="#000" y="731.88" x="417.33" stroke-width="0.983" fill="#ccc"/></g><circle id="circle4549" stroke="#000" cy="742.73" cx="430.67" r="8.6314" fill="#ff1400"/></g><g id="up_memory_row_left"><rect id="rect4581" height="34.763" width="23.944" y="694.12" x=".28144" fill="#636363"/><path id="path4585" d="m0.77719 694.12v34.763" stroke="#000" stroke-width="1px" fill="none"/><path id="path4587" d="m23.729 694.12v24.328" stroke="#000" stroke-width="1px" fill="none"/></g><g id="up_memory_row_middle"><g id="g4607"><rect id="rect4594" height="11.451" width="123.26" y="717.44" x="24.225" fill="#636363"/><path id="path4598" d="m147.46 728.38h-123.24" stroke="#000" stroke-width="1px" fill="none"/><path id="path4600" d="m147.46 717.94h-123.24" stroke="#000" stroke-width="1px" fill="none"/></g><rect id="rect4688" height="34.763" width="122.95" y="694.12" x="24.225" fill="none"/></g><g id="up_memory_top_left" transform="translate(0 -34.764)"><rect id="rect900" height="21.731" width="23.944" y="707.16" x=".28144" fill="#636363"/><path id="path902" d="m0.77719 707.15v21.794" stroke="#000" stroke-width="1px" fill="none"/><path id="path904" d="m0.28874 707.65h23.941" stroke="#000" stroke-width="1px" fill="none"/></g><g id="up_memory_top_middle" transform="translate(23.934 -34.764)"><rect id="rect908" height="21.731" width="123.28" y="707.16" x=".28144" fill="#636363"/><path id="path910" d="m123.55 728.39h-123.27" stroke="#000" stroke-width="1px" fill="none"/><path id="path912" d="m0.28042 707.65h123.16" stroke="#000" stroke-width="1px" fill="none"/></g><g id="up_memory_row_base_left1" transform="matrix(1 0 0 -1 13.875 1323.2)"><rect id="rect1061" height="25.129" width="23.944" y="707.16" x=".28144" fill="#636363"/><g stroke="#000" stroke-width="1px" fill="none"><path id="path1063" d="m0.77719 707.15v25.13"/><path id="path1065" d="m0.28874 707.65h23.941"/><path id="path1069" d="m23.722 707.15v25.13"/></g></g><g id="up_memory_row_base_right1" transform="matrix(1 0 0 -1 153.87 1323.2)"><rect id="rect1073" height="25.129" width="23.944" y="707.16" x=".28144" fill="#636363"/><g stroke="#000" stroke-width="1px" fill="none"><path id="path1075" d="m0.77719 707.15v25.13"/><path id="path1077" d="m0.28874 707.65h23.941"/><path id="path1079" d="m23.722 707.15v25.13"/></g></g><g id="up_memory_row_right" transform="matrix(-1 0 0 1 171.72 0)"><rect id="rect1083" height="34.763" width="23.944" y="694.12" x=".28144" fill="#636363"/><path id="path1085" d="m0.77719 694.12v34.763" stroke="#000" stroke-width="1px" fill="none"/><path id="path1087" d="m23.729 694.12v24.328" stroke="#000" stroke-width="1px" fill="none"/></g><g id="up_memory_top_right" transform="matrix(-1 0 0 1 171.72 -34.764)"><rect id="rect1091" height="21.731" width="23.944" y="707.16" x=".28144" fill="#636363"/><path id="path1093" d="m0.77719 707.15v21.794" stroke="#000" stroke-width="1px" fill="none"/><path id="path1095" d="m0.28874 707.65h23.941" stroke="#000" stroke-width="1px" fill="none"/></g></g><g id="g4524"><g id="up_address_0" transform="translate(30.447,679.48)"><g id="g4055" stroke-miterlimit="10" stroke="#000" fill="#868478"><rect id="rect4047" y="0" width="12.552" height="37.922" x="0"/><rect id="rect4049" y="14.465" width="6.36" height="1.572" x="3.326"/><rect id="rect4051" y="18.305" width="6.36" height="1.572" x="3.326"/><rect id="rect4053" y="22.387" width="6.36" height="1.57" x="3.326"/></g><path id="path4057" fill="#868478" d="m6.477 34.575c-1.886 0-3.42-1.572-3.42-3.506s1.534-3.506 3.42-3.506c1.887 0 3.421 1.572 3.421 3.506s-1.535 3.506-3.421 3.506z"/><path id="path4059" d="m6.477 28.063c1.613 0 2.921 1.346 2.921 3.006s-1.308 3.006-2.921 3.006-2.92-1.346-2.92-3.006 1.306-3.006 2.92-3.006m0-1c-2.162 0-3.92 1.797-3.92 4.006s1.759 4.006 3.92 4.006c2.162 0 3.921-1.797 3.921-4.006s-1.759-4.006-3.921-4.006z"/><ellipse id="ellipse4061" rx="1.167" ry="1.203" stroke="#000" cy="31.068" cx="6.477" stroke-miterlimit="10" fill="#868478"/></g><g id="up_array_left" fill="none" transform="translate(400.23,697.86)"><path id="path4064" opacity=".3" d="m6.254 16.738c0-1.525 1.237-2.762 2.762-2.762h7.734v5.524h-7.734c-1.526 0-2.762-1.236-2.762-2.762z" fill="#231f20"/><path id="path4066" opacity=".4" d="m9.418 0.5h7.332v17h-7.332c-4.693 0-8.5-3.807-8.5-8.5 0-4.694 3.807-8.5 8.5-8.5z" fill="#fff"/><clipPath id="clipPath4070"><use id="use4068" xlink:href="#SVGID_1_-79" height="100%" width="100%" y="0" x="0" overflow="visible"/></clipPath><rect id="rect4072" opacity=".4" height="0.641" width="8.499" y="1.594" x="8.251" fill="#fff"/><path id="path4074" fill="#8ec0d1" d="m9.418 1c-4.411 0-8 3.589-8 8 0 1.688 0.52 3.303 1.503 4.67 1.503 2.085 3.932 3.33 6.497 3.33h7.332v1h-7.332c-2.886 0-5.618-1.4-7.309-3.746-1.106-1.538-1.691-3.355-1.691-5.254 0-4.962 4.037-9 9-9h7.332v1z"/><path id="path4076" fill="#caa95a" d="m1.382 14.316c0.498 0 0.903-0.383 0.903-0.853v-8.77c0-0.471-0.405-0.854-0.903-0.854s-0.903 0.383-0.903 0.854v8.771c0 0.47 0.405 0.852 0.903 0.852z"/><path id="path4078" fill="#936440" d="m1.382 4.304c0.234 0 0.425 0.175 0.425 0.389v8.771c0 0.215-0.19 0.389-0.425 0.389s-0.425-0.174-0.425-0.389v-8.771c0-0.214 0.189-0.389 0.425-0.389m0-0.929c-0.763 0-1.382 0.591-1.382 1.318v8.771c0 0.726 0.619 1.317 1.382 1.317s1.382-0.592 1.382-1.317v-8.771c0-0.727-0.619-1.318-1.382-1.318z"/></g><g id="up_array_right" transform="translate(416.98,697.86)"><path id="path4081" opacity=".3" d="m10.496 16.738c0-1.525-1.237-2.762-2.761-2.762h-7.735v5.524h7.735c1.525 0 2.761-1.236 2.761-2.762z" fill="#231f20"/><path id="path4083" opacity=".4" d="m7.332 0.5h-7.332v17h7.332c4.693 0 8.5-3.807 8.5-8.5 0-4.694-3.807-8.5-8.5-8.5z" fill="#fff"/><rect id="rect4085" opacity=".4" height="0.641" width="8.499" y="1.594" x="0" fill="#fff"/><path id="path4087" fill="#8ec0d1" d="m7.332 1c4.411 0 8 3.589 8 8 0 1.688-0.52 3.303-1.503 4.67-1.503 2.085-3.933 3.33-6.497 3.33h-7.332v1h7.332c2.886 0 5.618-1.4 7.309-3.746 1.106-1.538 1.691-3.354 1.691-5.254 0-4.962-4.037-9-9-9h-7.332v1z"/><path id="path4089" fill="#caa95a" d="m15.368 14.316c-0.498 0-0.903-0.383-0.903-0.854v-8.77c0-0.471 0.405-0.854 0.903-0.854s0.903 0.383 0.903 0.854v8.771c0 0.471-0.405 0.853-0.903 0.853z"/><path id="path4091" fill="#936440" d="m15.368 4.304c0.235 0 0.425 0.175 0.425 0.389v8.771c0 0.216-0.189 0.39-0.425 0.39-0.234 0-0.425-0.174-0.425-0.39v-8.771c0-0.214 0.191-0.389 0.425-0.389m0-0.929c-0.763 0-1.382 0.591-1.382 1.318v8.771c0 0.726 0.619 1.317 1.382 1.317s1.382-0.592 1.382-1.317v-8.771c0-0.727-0.619-1.318-1.382-1.318z"/></g><g id="up_bool_false" transform="translate(111.95,700.86)"><path id="path4094" fill="#5e839a" d="m6.977 13.454c-3.571 0-6.477-2.905-6.477-6.477 0-3.571 2.905-6.477 6.477-6.477s6.478 2.906 6.478 6.477c-0.001 3.572-2.907 6.477-6.478 6.477z"/><path id="path4096" fill="#46484e" d="m6.977 1c3.296 0 5.978 2.681 5.978 5.977 0 3.295-2.682 5.977-5.978 5.977s-5.977-2.682-5.977-5.977c0-3.296 2.681-5.977 5.977-5.977m0-1c-3.853 0-6.977 3.124-6.977 6.977s3.124 6.977 6.977 6.977c3.854 0 6.978-3.124 6.978-6.977-0.001-3.853-3.125-6.977-6.978-6.977z"/><ellipse id="ellipse4098" opacity=".2" rx="1.625" ry="1.875" cy="4.5" cx="9.459" fill="#fff"/><ellipse id="ellipse4100" opacity=".3" rx="4.22" ry="2.173" cy="14.327" cx="6.864" fill="#231f20"/></g><g id="up_bool_right" transform="translate(131.16,700.86)"><path id="path4103" fill="#8ccc00" d="m6.977 13.454c-3.571 0-6.477-2.906-6.477-6.477s2.906-6.477 6.477-6.477 6.477 2.906 6.477 6.477-2.906 6.477-6.477 6.477z"/><path id="path4105" fill="#336" d="m6.977 1c3.296 0 5.977 2.681 5.977 5.977s-2.681 5.977-5.977 5.977-5.977-2.681-5.977-5.977 2.681-5.977 5.977-5.977m0-1c-3.853 0-6.977 3.124-6.977 6.977s3.124 6.977 6.977 6.977c3.854 0 6.977-3.124 6.977-6.977s-3.123-6.977-6.977-6.977z"/><polyline id="polyline4107" stroke="#fff" points="4.237 7.938 5.762 10.083 9.8 3.688" stroke-miterlimit="10" fill="none"/><ellipse id="ellipse4109" opacity=".3" rx="1.625" ry="1.875" cy="4.5" cx="9.8" fill="#fff"/><ellipse id="ellipse4111" opacity=".3" rx="4.22" ry="2.173" cy="14.327" cx="7.018" fill="#231f20"/></g><g fill="none"><g id="up_int_left" transform="translate(156.35,701.36)"><clipPath id="SVGID_2_-10"><use id="use4165" xlink:href="#SVGID_1_-04" height="100%" width="100%" y="0" x="0" overflow="visible"/></clipPath><g id="g4176" clip-path="url(#SVGID_2_-10)"><path id="path4168" fill="#7ec9a5" d="m7 13.5c-3.584 0-6.5-2.916-6.5-6.5s2.916-6.5 6.5-6.5h39.333c3.584 0 6.5 2.916 6.5 6.5s-2.916 6.5-6.5 6.5z"/><path id="path4170" fill="#46484e" d="m46.333 1c3.309 0 6 2.691 6 6s-2.691 6-6 6h-39.333c-3.309 0-6-2.691-6-6s2.691-6 6-6h39.333m0-1h-39.333c-3.866 0-7 3.134-7 7s3.134 7 7 7h39.333c3.865 0 7-3.134 7-7s-3.135-7-7-7z"/><rect id="rect4172" opacity=".3" height=".958" width="40.813" y="1.584" x="6.334" fill="#fff"/><path id="path4174" opacity=".3" fill="#231f20" d="m49.261 13.248c0 1.243-1.009 2.251-2.251 2.251h-41.175c-1.243 0-2.251-1.008-2.251-2.251s1.008-2.251 2.251-2.251h41.175c1.242 0 2.251 1.008 2.251 2.251z"/></g></g><g id="up_int_middle" transform="translate(169.68,701.36)"><clipPath id="SVGID_2_-08"><use id="use4179" xlink:href="#SVGID_1_-487" height="100%" width="100%" y="0" x="0" overflow="visible"/></clipPath><g id="g4190" clip-path="url(#SVGID_2_-08)"><path id="path4182" fill="#7ec9a5" d="m-13 13.5c-3.584 0-6.5-2.916-6.5-6.5s2.916-6.5 6.5-6.5h39.332c3.584 0 6.5 2.916 6.5 6.5s-2.916 6.5-6.5 6.5z"/><path id="path4184" fill="#46484e" d="m26.333 1c3.309 0 6 2.691 6 6s-2.691 6-6 6h-39.333c-3.309 0-6-2.691-6-6s2.691-6 6-6h39.333m0-1h-39.333c-3.866 0-7 3.134-7 7s3.134 7 7 7h39.332c3.866 0 7-3.134 7-7s-3.133-7-6.999-7z"/><rect id="rect4186" opacity=".3" height=".958" width="40.813" y="1.584" x="-13.666" fill="#fff"/><path id="path4188" opacity=".3" fill="#231f20" d="m29.261 13.248c0 1.243-1.008 2.251-2.251 2.251h-41.175c-1.243 0-2.251-1.008-2.251-2.251s1.008-2.251 2.251-2.251h41.175c1.243 0 2.251 1.008 2.251 2.251z"/></g></g><g id="up_int_right" transform="translate(183.01,701.36)"><clipPath id="SVGID_2_-47"><use id="use4193" xlink:href="#SVGID_1_-62" height="100%" width="100%" y="0" x="0" overflow="visible"/></clipPath><g id="g4204" clip-path="url(#SVGID_2_-47)"><path id="path4196" fill="#7ec9a5" d="m-33 13.5c-3.584 0-6.5-2.916-6.5-6.5s2.916-6.5 6.5-6.5h39.333c3.583 0 6.5 2.916 6.5 6.5s-2.916 6.5-6.5 6.5z"/><path id="path4198" fill="#46484e" d="m-33 1h39.333c3.309 0 6 2.691 6 6s-2.69 6-6 6h-39.333c-3.309 0-6-2.691-6-6s2.692-6 6-6m0-1c-3.865 0-7 3.134-7 7s3.135 7 7 7h39.333c3.867 0 7-3.134 7-7s-3.133-7-7-7z"/><rect id="rect4200" opacity=".3" height=".958" width="40.813" y="1.584" x="-33.814" fill="#fff"/><path id="path4202" opacity=".3" fill="#231f20" d="m-35.928 13.248c0-1.243 1.009-2.251 2.251-2.251h41.176c1.242 0 2.25 1.008 2.25 2.251s-1.008 2.251-2.25 2.251h-41.176c-1.242 0-2.251-1.008-2.251-2.251z"/></g></g><g id="up_pointer_left" transform="translate(260.37,695.36)"><clipPath id="SVGID_2_-92"><use id="use4207" xlink:href="#SVGID_1_-93" height="100%" width="100%" y="0" x="0" overflow="visible"/></clipPath><g id="g4248" clip-path="url(#SVGID_2_-92)"><path id="path4210" fill="#b6b8ba" d="m2.836 20.229c-1.288 0-2.335-1.047-2.335-2.334v-8.332c0-1.287 1.047-2.334 2.335-2.334h47.664c1.287 0 2.334 1.047 2.334 2.334v8.332c0 1.287-1.047 2.334-2.334 2.334z"/><path id="path4212" fill="#46484e" d="m50.5 7.729c1.012 0 1.834 0.823 1.834 1.834v8.332c0 1.013-0.822 1.834-1.834 1.834h-47.664c-1.012 0-1.835-0.821-1.835-1.834v-8.332c0-1.012 0.823-1.834 1.835-1.834h47.664m0-1h-47.664c-1.565 0-2.835 1.269-2.835 2.834v8.332c0 1.564 1.27 2.834 2.835 2.834h47.664c1.563 0 2.834-1.27 2.834-2.834v-8.332c0-1.565-1.269-2.834-2.834-2.834z"/><rect id="rect4214" opacity=".3" height=".958" width="45.75" y="8.313" x="4.919" fill="#fff"/><ellipse id="ellipse4216" opacity=".3" rx="3.778" ry="4.757" cy="10.038" cx="7.312" fill="#231f20"/><path id="path4218" fill="#b6b8ba" d="m7.446 9.597c-1.107 0-2.17-0.21-2.708-0.534-0.085-0.052-0.231-0.152-0.246-0.246-0.045-0.285 0.54-0.968 1.056-1.571 0.525-0.613 1.179-1.377 1.722-2.277 0.543-0.899 0.914-1.833 1.212-2.584 0.296-0.745 0.665-1.672 0.942-1.672 0.039 0 0.129 0.014 0.287 0.11 1.285 0.775 3.559 4.702 2.201 6.95-0.688 1.142-2.358 1.824-4.466 1.824z"/><path id="path4220" fill="#46484e" d="m9.516 1.291c1.168 0.79 3.093 4.362 1.969 6.224-0.703 1.166-2.548 1.582-4.039 1.582-1.102 0-1.973-0.208-2.385-0.426 0.166-0.279 0.562-0.743 0.867-1.099 0.537-0.627 1.206-1.409 1.77-2.343 0.564-0.935 0.943-1.89 1.249-2.658 0.173-0.437 0.399-1.004 0.569-1.28m-0.092-1.078c-1.024 0-1.272 2.327-2.583 4.498-1.516 2.512-3.88 3.863-2.361 4.78 0.604 0.365 1.732 0.606 2.966 0.606 1.869 0 3.982-0.553 4.896-2.065 1.517-2.512-0.854-6.719-2.37-7.636-0.208-0.125-0.388-0.183-0.548-0.183z"/><g id="g4226" fill="#46484e"><path id="path4222" d="m5.145 9.102c-0.227 0-0.428-0.052-0.597-0.154-0.929-0.561-0.944-2.878 0.521-5.306 1.097-1.817 2.684-3.085 3.857-3.085 0.227 0 0.428 0.051 0.596 0.153 0.467 0.281 0.703 0.972 0.648 1.896-0.062 1.052-0.478 2.263-1.168 3.41-1.097 1.817-2.683 3.086-3.857 3.086z"/><path id="path4224" d="m8.926 1.056c0.137 0 0.246 0.026 0.338 0.082 0.293 0.177 0.449 0.728 0.408 1.439-0.057 0.959-0.457 2.118-1.098 3.18-1.115 1.848-2.6 2.845-3.43 2.845-0.136 0-0.247-0.027-0.338-0.082-0.626-0.378-0.669-2.366 0.691-4.62 1.115-1.847 2.599-2.844 3.429-2.844m0-1c-1.319 0-3.06 1.296-4.286 3.327-1.515 2.513-1.672 5.195-0.35 5.993 0.253 0.153 0.542 0.226 0.855 0.226 1.32 0 3.061-1.297 4.285-3.328 1.517-2.511 1.674-5.195 0.352-5.993-0.254-0.153-0.543-0.225-0.856-0.225z"/></g><g id="g4244" stroke-linejoin="round" stroke="#46484e" stroke-linecap="round" stroke-miterlimit="10"><polygon id="polygon4228" points="3.631 2.376 8.667 3.957 7.117 6.527 3.044 3.347" fill="#b6b8ba"/><path id="path4230" d="m4.017 3.331c-0.511 0.849-1.633 1.106-2.505 0.579-0.873-0.527-1.167-1.64-0.656-2.488 0.51-0.847 1.634-1.105 2.506-0.58 0.436 0.265 0.728 0.675 0.846 1.125 0.119 0.45 0.065 0.941-0.191 1.364z" fill="#b6b8ba"/><g id="g4242" fill="none"><rect id="rect4232" y="11.75" x="41.752" width="8.438" height="8.5"/><line id="line4234" x2="43.821" y1="12.063" x1="43.821" y2="19.875"/><line id="line4236" x2="45.971" y1="12.063" x1="45.971" y2="19.875"/><line id="line4238" x2="48.065" y1="12.063" x1="48.065" y2="19.875"/><polyline id="polyline4240" points="10.215 19.875 10.215 15.969 41.252 15.969"/></g></g><rect id="rect4246" opacity=".3" height="3.521" width="48.694" y="18.479" x="1.974" fill="#231f20"/></g></g><g id="up_pointer_left_invalid" transform="translate(290.01,695.36)"><clipPath id="SVGID_2_-01"><use id="use4251" xlink:href="#SVGID_1_-83" height="100%" width="100%" y="0" x="0" overflow="visible"/></clipPath><g id="g4292" clip-path="url(#SVGID_2_-01)"><path id="path4254" fill="#b6b8ba" d="m2.836 20.229c-1.288 0-2.335-1.047-2.335-2.334v-8.333c0-1.287 1.047-2.334 2.335-2.334h47.664c1.287 0 2.334 1.047 2.334 2.334v8.333c0 1.287-1.047 2.334-2.334 2.334z"/><path id="path4256" fill="#46484e" d="m50.5 7.728c1.012 0 1.834 0.823 1.834 1.834v8.333c0 1.012-0.822 1.834-1.834 1.834h-47.664c-1.012 0-1.835-0.822-1.835-1.834v-8.333c0-1.012 0.823-1.834 1.835-1.834h47.664m0-1h-47.664c-1.565 0-2.835 1.269-2.835 2.834v8.333c0 1.563 1.27 2.834 2.835 2.834h47.664c1.563 0 2.834-1.271 2.834-2.834v-8.333c0-1.565-1.269-2.834-2.834-2.834z"/><rect id="rect4258" opacity=".3" height=".958" width="45.75" y="8.311" x="4.919" fill="#fff"/><ellipse id="ellipse4260" opacity=".3" rx="3.778" ry="4.757" cy="10.037" cx="7.312" fill="#231f20"/><path id="path4262" fill="#b6b8ba" d="m7.446 9.596c-1.107 0-2.17-0.21-2.708-0.534-0.085-0.053-0.231-0.152-0.246-0.247-0.045-0.285 0.54-0.968 1.056-1.571 0.525-0.613 1.179-1.376 1.722-2.277 0.543-0.899 0.914-1.833 1.212-2.584 0.296-0.745 0.665-1.672 0.942-1.672 0.039 0 0.129 0.014 0.287 0.11 1.285 0.775 3.559 4.702 2.201 6.95-0.688 1.143-2.358 1.825-4.466 1.825z"/><path id="path4264" fill="#46484e" d="m9.516 1.29c1.168 0.79 3.093 4.362 1.969 6.224-0.703 1.166-2.548 1.582-4.039 1.582-1.102 0-1.973-0.208-2.385-0.426 0.166-0.279 0.562-0.743 0.867-1.099 0.537-0.627 1.206-1.409 1.77-2.343 0.564-0.935 0.943-1.89 1.249-2.658 0.173-0.438 0.399-1.005 0.569-1.28m-0.092-1.079c-1.024 0-1.272 2.327-2.583 4.498-1.516 2.513-3.88 3.864-2.361 4.781 0.604 0.365 1.732 0.606 2.966 0.606 1.869 0 3.982-0.553 4.896-2.065 1.517-2.512-0.854-6.719-2.37-7.636-0.208-0.126-0.388-0.184-0.548-0.184z"/><g id="g4270" fill="#46484e"><path id="path4266" d="m5.145 9.101c-0.227 0-0.428-0.052-0.597-0.154-0.929-0.561-0.944-2.879 0.521-5.306 1.097-1.817 2.684-3.085 3.857-3.085 0.227 0 0.428 0.051 0.596 0.153 0.467 0.281 0.703 0.972 0.648 1.896-0.063 1.052-0.479 2.263-1.168 3.41-1.097 1.817-2.683 3.086-3.857 3.086z"/><path id="path4268" d="m8.926 1.055c0.137 0 0.246 0.026 0.338 0.082 0.293 0.177 0.449 0.728 0.408 1.439-0.057 0.959-0.457 2.118-1.098 3.18-1.115 1.848-2.6 2.845-3.43 2.845-0.136 0-0.247-0.027-0.338-0.082-0.627-0.378-0.67-2.366 0.69-4.62 1.116-1.847 2.6-2.844 3.43-2.844m0-1c-1.319 0-3.06 1.296-4.286 3.327-1.515 2.512-1.672 5.195-0.35 5.992 0.253 0.153 0.542 0.226 0.855 0.226 1.32 0 3.061-1.297 4.285-3.328 1.517-2.511 1.674-5.195 0.352-5.993-0.254-0.153-0.543-0.224-0.856-0.224z"/></g><g id="g4288" stroke-linejoin="round" stroke-linecap="round" stroke-miterlimit="10"><polygon id="polygon4272" points="7.117 6.525 3.044 3.346 3.631 2.374 8.667 3.956" stroke="#46484e" fill="#b6b8ba"/><path id="path4274" d="m4.017 3.33c-0.511 0.849-1.633 1.106-2.505 0.579-0.873-0.527-1.167-1.64-0.656-2.488 0.51-0.847 1.634-1.105 2.506-0.58 0.436 0.265 0.728 0.675 0.846 1.125 0.119 0.449 0.065 0.941-0.191 1.364z" stroke="#f0537c" fill="#ed1c24"/><g id="g4286" stroke="#46484e" fill="none"><rect id="rect4276" y="11.749" x="41.752" width="8.438" height="8.501"/><line id="line4278" x2="43.821" y1="12.061" x1="43.821" y2="19.874"/><line id="line4280" x2="45.971" y1="12.061" x1="45.971" y2="19.874"/><line id="line4282" x2="48.065" y1="12.061" x1="48.065" y2="19.874"/><polyline id="polyline4284" points="10.215 19.874 10.215 15.967 41.252 15.967"/></g></g><rect id="rect4290" opacity=".3" height="3.522" width="48.694" y="18.477" x="1.974" fill="#231f20"/></g></g><g id="up_pointer_left_valid" transform="translate(275.19,695.36)"><clipPath id="SVGID_2_-91"><use id="use4295" xlink:href="#SVGID_1_-78" height="100%" width="100%" y="0" x="0" overflow="visible"/></clipPath><g id="g4336" clip-path="url(#SVGID_2_-91)"><path id="path4298" fill="#b6b8ba" d="m2.836 20.229c-1.288 0-2.335-1.047-2.335-2.334v-8.333c0-1.287 1.047-2.334 2.335-2.334h47.664c1.287 0 2.334 1.047 2.334 2.334v8.333c0 1.287-1.047 2.334-2.334 2.334z"/><path id="path4300" fill="#46484e" d="m50.5 7.728c1.012 0 1.834 0.823 1.834 1.834v8.333c0 1.012-0.822 1.834-1.834 1.834h-47.664c-1.012 0-1.835-0.822-1.835-1.834v-8.333c0-1.012 0.823-1.834 1.835-1.834h47.664m0-1h-47.664c-1.565 0-2.835 1.269-2.835 2.834v8.333c0 1.563 1.27 2.834 2.835 2.834h47.664c1.563 0 2.834-1.271 2.834-2.834v-8.333c0-1.565-1.269-2.834-2.834-2.834z"/><rect id="rect4302" opacity=".3" height=".958" width="45.75" y="8.311" x="4.919" fill="#fff"/><ellipse id="ellipse4304" opacity=".3" rx="3.778" ry="4.757" cy="10.037" cx="7.312" fill="#231f20"/><path id="path4306" fill="#b6b8ba" d="m7.446 9.596c-1.107 0-2.17-0.21-2.708-0.534-0.085-0.053-0.231-0.152-0.246-0.247-0.045-0.285 0.54-0.968 1.056-1.571 0.525-0.613 1.179-1.376 1.722-2.277 0.543-0.899 0.914-1.833 1.212-2.584 0.296-0.745 0.665-1.672 0.942-1.672 0.039 0 0.129 0.014 0.287 0.11 1.285 0.775 3.559 4.702 2.201 6.95-0.688 1.143-2.358 1.825-4.466 1.825z"/><path id="path4308" fill="#46484e" d="m9.516 1.29c1.168 0.79 3.093 4.362 1.969 6.224-0.703 1.166-2.548 1.582-4.039 1.582-1.102 0-1.973-0.208-2.385-0.426 0.166-0.279 0.562-0.743 0.867-1.099 0.537-0.627 1.206-1.409 1.77-2.343 0.564-0.935 0.943-1.89 1.249-2.658 0.173-0.438 0.399-1.005 0.569-1.28m-0.092-1.079c-1.024 0-1.272 2.327-2.583 4.498-1.516 2.513-3.88 3.864-2.361 4.781 0.604 0.365 1.732 0.606 2.966 0.606 1.869 0 3.982-0.553 4.896-2.065 1.517-2.512-0.854-6.719-2.37-7.636-0.208-0.126-0.388-0.184-0.548-0.184z"/><g id="g4314" fill="#46484e"><path id="path4310" d="m5.145 9.101c-0.227 0-0.428-0.052-0.597-0.154-0.929-0.561-0.944-2.879 0.521-5.306 1.097-1.817 2.684-3.085 3.857-3.085 0.227 0 0.428 0.051 0.596 0.153 0.467 0.281 0.703 0.972 0.648 1.896-0.063 1.052-0.479 2.263-1.168 3.41-1.097 1.817-2.683 3.086-3.857 3.086z"/><path id="path4312" d="m8.926 1.055c0.137 0 0.246 0.026 0.338 0.082 0.293 0.177 0.449 0.728 0.408 1.439-0.057 0.959-0.457 2.118-1.098 3.18-1.115 1.848-2.6 2.845-3.43 2.845-0.136 0-0.247-0.027-0.338-0.082-0.627-0.378-0.67-2.366 0.69-4.62 1.116-1.847 2.6-2.844 3.43-2.844m0-1c-1.319 0-3.06 1.296-4.286 3.327-1.515 2.512-1.672 5.195-0.35 5.992 0.253 0.153 0.542 0.226 0.855 0.226 1.32 0 3.061-1.297 4.285-3.328 1.517-2.511 1.674-5.195 0.352-5.993-0.254-0.153-0.543-0.224-0.856-0.224z"/></g><g id="g4332" stroke-linejoin="round" stroke-linecap="round" stroke-miterlimit="10"><polygon id="polygon4316" points="7.117 6.525 3.044 3.346 3.631 2.374 8.667 3.956" stroke="#46484e" fill="#b6b8ba"/><path id="path4318" d="m4.017 3.33c-0.511 0.849-1.633 1.106-2.505 0.579-0.873-0.527-1.167-1.64-0.656-2.488 0.51-0.847 1.634-1.105 2.506-0.58 0.436 0.265 0.728 0.675 0.846 1.125 0.119 0.449 0.065 0.941-0.191 1.364z" stroke="#95cc77" fill="#75c044"/><g id="g4330" stroke="#46484e" fill="none"><rect id="rect4320" y="11.749" x="41.752" width="8.438" height="8.501"/><line id="line4322" x2="43.821" y1="12.061" x1="43.821" y2="19.874"/><line id="line4324" x2="45.971" y1="12.061" x1="45.971" y2="19.874"/><line id="line4326" x2="48.065" y1="12.061" x1="48.065" y2="19.874"/><polyline id="polyline4328" points="10.215 19.874 10.215 15.967 41.252 15.967"/></g></g><rect id="rect4334" opacity=".3" height="3.522" width="48.694" y="18.477" x="1.974" fill="#231f20"/></g></g><g id="up_pointer_middle" transform="translate(303.35,695.36)"><clipPath id="SVGID_2_-925"><use id="use4339" xlink:href="#SVGID_1_-54" height="100%" width="100%" y="0" x="0" overflow="visible"/></clipPath><g id="g4380" clip-path="url(#SVGID_2_-925)"><path id="path4342" fill="#b6b8ba" d="m-17.165 20.229c-1.288 0-2.335-1.047-2.335-2.334v-8.332c0-1.287 1.047-2.334 2.335-2.334h47.665c1.287 0 2.334 1.047 2.334 2.334v8.332c0 1.287-1.047 2.334-2.334 2.334z"/><path id="path4344" fill="#46484e" d="m30.5 7.729c1.012 0 1.834 0.823 1.834 1.834v8.332c0 1.013-0.822 1.834-1.834 1.834h-47.666c-1.012 0-1.835-0.821-1.835-1.834v-8.332c0-1.012 0.823-1.834 1.835-1.834h47.666m0-1h-47.666c-1.564 0-2.834 1.269-2.834 2.834v8.332c0 1.564 1.27 2.834 2.835 2.834h47.665c1.563 0 2.834-1.27 2.834-2.834v-8.332c-0.001-1.565-1.27-2.834-2.834-2.834z"/><rect id="rect4346" opacity=".3" height=".958" width="45.749" y="8.313" x="-15.082" fill="#fff"/><ellipse id="ellipse4348" opacity=".3" rx="3.779" ry="4.757" cy="10.038" cx="-12.689" fill="#231f20"/><path id="path4350" fill="#b6b8ba" d="m-12.555 9.597c-1.107 0-2.17-0.21-2.708-0.534-0.085-0.051-0.231-0.152-0.246-0.245-0.045-0.285 0.54-0.968 1.056-1.571 0.525-0.613 1.179-1.377 1.722-2.277 0.543-0.899 0.914-1.833 1.212-2.584 0.296-0.745 0.665-1.672 0.942-1.672 0.039 0 0.129 0.014 0.288 0.11 1.284 0.775 3.558 4.702 2.2 6.95-0.688 1.141-2.358 1.823-4.466 1.823z"/><path id="path4352" fill="#46484e" d="m-10.485 1.291c1.168 0.79 3.093 4.362 1.969 6.224-0.703 1.166-2.548 1.582-4.039 1.582-1.102 0-1.973-0.208-2.385-0.426 0.166-0.279 0.562-0.743 0.867-1.099 0.537-0.627 1.206-1.409 1.77-2.343 0.564-0.935 0.943-1.89 1.249-2.658 0.173-0.437 0.399-1.004 0.569-1.28m-0.092-1.078c-1.024 0-1.272 2.327-2.583 4.498-1.516 2.512-3.88 3.863-2.361 4.78 0.604 0.365 1.732 0.606 2.966 0.606 1.869 0 3.982-0.553 4.896-2.065 1.517-2.512-0.853-6.719-2.37-7.636-0.208-0.125-0.388-0.183-0.548-0.183z"/><g id="g4358" fill="#46484e"><path id="path4354" d="m-14.856 9.102c-0.227 0-0.428-0.052-0.597-0.154-0.929-0.561-0.944-2.878 0.521-5.307 1.097-1.817 2.684-3.085 3.857-3.085 0.227 0 0.428 0.051 0.596 0.153 0.467 0.281 0.703 0.972 0.648 1.896-0.061 1.052-0.477 2.263-1.168 3.41-1.097 1.818-2.683 3.087-3.857 3.087z"/><path id="path4356" d="m-11.074 1.056c0.136 0 0.246 0.026 0.337 0.082 0.293 0.177 0.449 0.728 0.408 1.439-0.057 0.959-0.457 2.118-1.098 3.181-1.115 1.848-2.6 2.845-3.43 2.845-0.136 0-0.247-0.027-0.338-0.082-0.627-0.378-0.67-2.367 0.689-4.62 1.117-1.848 2.601-2.845 3.432-2.845m-0.001-1c-1.319 0-3.06 1.296-4.286 3.327-1.515 2.512-1.673 5.195-0.351 5.993 0.253 0.153 0.542 0.226 0.855 0.226 1.32 0 3.06-1.297 4.285-3.328 1.517-2.511 1.674-5.195 0.351-5.993-0.252-0.153-0.541-0.225-0.854-0.225z"/></g><g id="g4376" stroke-linejoin="round" stroke="#46484e" stroke-linecap="round" stroke-miterlimit="10"><polygon id="polygon4360" points="-16.957 3.347 -16.37 2.376 -11.333 3.957 -12.884 6.527" fill="#b6b8ba"/><path id="path4362" d="m-15.984 3.331c-0.51 0.849-1.633 1.106-2.505 0.579-0.873-0.527-1.167-1.64-0.655-2.488 0.51-0.847 1.634-1.105 2.506-0.58 0.436 0.265 0.728 0.675 0.846 1.125s0.064 0.941-0.192 1.364z" fill="#b6b8ba"/><g id="g4374" fill="none"><rect id="rect4364" y="11.75" x="21.75" width="8.438" height="8.5"/><line id="line4366" x2="23.82" y1="12.063" x1="23.82" y2="19.875"/><line id="line4368" x2="25.97" y1="12.063" x1="25.97" y2="19.875"/><line id="line4370" x2="28.064" y1="12.063" x1="28.064" y2="19.875"/><polyline id="polyline4372" points="-9.785 19.875 -9.785 15.969 21.25 15.969"/></g></g><rect id="rect4378" opacity=".3" height="3.521" width="48.693" y="18.479" x="-18.027" fill="#231f20"/></g></g><g id="up_pointer_right" transform="translate(316.68,695.36)"><clipPath id="SVGID_2_-94"><use id="use4383" xlink:href="#SVGID_1_-749" height="100%" width="100%" y="0" x="0" overflow="visible"/></clipPath><g id="g4424" clip-path="url(#SVGID_2_-94)"><path id="path4386" fill="#b6b8ba" d="m-37.166 20.229c-1.288 0-2.335-1.047-2.335-2.334v-8.332c0-1.287 1.047-2.334 2.335-2.334h47.665c1.287 0 2.334 1.047 2.334 2.334v8.332c0 1.287-1.047 2.334-2.334 2.334z"/><path id="path4388" fill="#46484e" d="m10.499 7.729c1.013 0 1.834 0.823 1.834 1.834v8.332c0 1.013-0.821 1.834-1.834 1.834h-47.665c-1.012 0-1.835-0.821-1.835-1.834v-8.332c0-1.012 0.823-1.834 1.835-1.834h47.665m0-1h-47.665c-1.565 0-2.835 1.269-2.835 2.834v8.332c0 1.564 1.27 2.834 2.835 2.834h47.665c1.564 0 2.834-1.27 2.834-2.834v-8.332c0-1.565-1.27-2.834-2.834-2.834z"/><rect id="rect4390" opacity=".3" height=".958" width="45.75" y="8.313" x="-35.083" fill="#fff"/><ellipse id="ellipse4392" opacity=".3" rx="3.779" ry="4.757" cy="10.038" cx="-32.69" fill="#231f20"/><path id="path4394" fill="#b6b8ba" d="m-32.556 9.597c-1.107 0-2.17-0.21-2.708-0.534-0.085-0.051-0.231-0.152-0.246-0.245-0.045-0.285 0.54-0.968 1.056-1.571 0.525-0.613 1.179-1.377 1.722-2.277 0.543-0.898 0.914-1.833 1.212-2.584 0.296-0.745 0.665-1.672 0.942-1.672 0.039 0 0.129 0.014 0.288 0.11 1.284 0.775 3.558 4.702 2.2 6.95-0.688 1.141-2.358 1.823-4.466 1.823z"/><path id="path4396" fill="#46484e" d="m-30.486 1.291c1.168 0.79 3.093 4.362 1.969 6.224-0.703 1.166-2.548 1.582-4.039 1.582-1.102 0-1.973-0.208-2.385-0.426 0.166-0.279 0.562-0.743 0.867-1.099 0.537-0.627 1.206-1.409 1.77-2.343 0.564-0.935 0.943-1.89 1.249-2.658 0.173-0.437 0.399-1.004 0.569-1.28m-0.092-1.078c-1.024 0-1.272 2.327-2.583 4.498-1.516 2.512-3.88 3.863-2.361 4.78 0.604 0.365 1.732 0.605 2.966 0.605 1.869 0 3.982-0.553 4.896-2.064 1.517-2.512-0.853-6.719-2.37-7.636-0.208-0.125-0.387-0.183-0.548-0.183z"/><g id="g4402" fill="#46484e"><path id="path4398" d="m-34.857 9.102c-0.227 0-0.428-0.052-0.597-0.154-0.929-0.562-0.944-2.878 0.521-5.307 1.097-1.817 2.684-3.085 3.857-3.085 0.227 0 0.428 0.051 0.596 0.153 0.467 0.281 0.703 0.972 0.648 1.896-0.061 1.052-0.477 2.263-1.168 3.41-1.097 1.818-2.683 3.087-3.857 3.087z"/><path id="path4400" d="m-31.075 1.056c0.136 0 0.246 0.026 0.337 0.082 0.293 0.177 0.449 0.729 0.408 1.439-0.057 0.959-0.457 2.118-1.098 3.181-1.115 1.848-2.6 2.845-3.43 2.845-0.136 0-0.247-0.027-0.338-0.082-0.627-0.378-0.67-2.367 0.689-4.62 1.117-1.848 2.601-2.845 3.432-2.845m-0.001-1c-1.319 0-3.06 1.296-4.286 3.327-1.515 2.512-1.673 5.195-0.351 5.993 0.253 0.153 0.542 0.226 0.855 0.226 1.32 0 3.06-1.297 4.285-3.328 1.517-2.511 1.674-5.195 0.351-5.993-0.252-0.153-0.541-0.225-0.854-0.225z"/></g><g id="g4420" stroke-linejoin="round" stroke="#46484e" stroke-linecap="round" stroke-miterlimit="10"><polygon id="polygon4404" points="-32.885 6.527 -36.958 3.347 -36.371 2.376 -31.334 3.957" fill="#b6b8ba"/><path id="path4406" d="m-35.985 3.331c-0.51 0.849-1.633 1.106-2.505 0.579-0.873-0.527-1.167-1.64-0.655-2.488 0.51-0.847 1.634-1.105 2.506-0.58 0.436 0.265 0.728 0.675 0.846 1.125s0.064 0.941-0.192 1.364z" fill="#b6b8ba"/><g id="g4418" fill="none"><rect id="rect4408" y="11.75" x="1.75" width="8.438" height="8.5"/><line id="line4410" x2="3.819" y1="12.063" x1="3.819" y2="19.875"/><line id="line4412" x2="5.969" y1="12.063" x1="5.969" y2="19.875"/><line id="line4414" x2="8.063" y1="12.063" x1="8.063" y2="19.875"/><polyline id="polyline4416" points="-29.786 19.875 -29.786 15.969 1.25 15.969"/></g></g><rect id="rect4422" opacity=".3" height="3.521" width="48.694" y="18.479" x="-38.028" fill="#231f20"/></g></g><g id="up_struct_left" transform="translate(341.26,697.86)"><path id="path4427" opacity=".3" fill="#231f20" d="m9.016 19.5h7.734v-5.523h-7.734c-1.524 0-2.762 1.236-2.762 2.762s1.236 2.761 2.762 2.761z"/><path id="path4429" opacity=".4" fill="#fff" d="m0.918 9c0 4.693 3.807 8.5 8.5 8.5h7.332v-17h-7.332c-4.693 0-8.5 3.806-8.5 8.5z"/><rect id="rect4431" opacity=".4" height="0.641" width="8.499" y="1.594" x="8.251" fill="#fff"/><path id="path4433" fill="#8ec0d1" d="m16.75 1v-1h-7.332c-4.963 0-9 4.038-9 9 0 1.9 0.585 3.716 1.691 5.254 1.691 2.346 4.423 3.746 7.309 3.746h7.332v-1h-7.332c-2.564 0-4.994-1.245-6.497-3.33-0.983-1.367-1.503-2.982-1.503-4.67 0-4.411 3.589-8 8-8z"/></g><g id="up_struct_middle" transform="translate(358.01,697.86)"><g id="g4438" display="none"><rect id="rect4436" display="inline" width="16.75" y="0" x="0" height="19.5" fill="#8e3640"/></g><g id="struct_x5F_middle"><clipPath id="SVGID_2_-70"><use id="use4440" xlink:href="#SVGID_1_-935" height="100%" width="100%" y="0" x="0" overflow="visible"/></clipPath><rect id="rect4443" opacity=".3" clip-path="url(#SVGID_2_-70)" height="5.523" width="16.75" y="13.977" x="0" fill="#231f20"/><rect id="rect4445" opacity=".4" height="17" width="16.75" y="0" x="0" fill="#fff"/><g id="g4451" fill="#8ec0d1"><rect id="rect4447" y="17" x="0" width="16.75" height="1"/><rect id="rect4449" y="0" x="0" width="16.75" height="1"/></g><rect id="rect4453" opacity=".4" height="0.656" width="16.75" y="1.579" x="0" fill="#fff"/></g></g><g id="up_struct_right" transform="translate(374.76,697.86)"><path id="path4457" opacity=".3" fill="#231f20" d="m10.496 16.738c0-1.525-1.237-2.762-2.761-2.762h-7.735v5.524h7.735c1.525 0 2.761-1.236 2.761-2.762z"/><path id="path4459" opacity=".4" fill="#fff" d="m7.332 0.5h-7.332v17h7.332c4.693 0 8.5-3.807 8.5-8.5 0-4.694-3.807-8.5-8.5-8.5z"/><rect id="rect4461" opacity=".4" height="0.641" width="8.499" y="1.594" x="0" fill="#fff"/><path id="path4463" fill="#8ec0d1" d="m7.332 1c4.411 0 8 3.589 8 8 0 1.688-0.52 3.303-1.503 4.67-1.503 2.085-3.933 3.33-6.497 3.33h-7.332v1h7.332c2.886 0 5.618-1.4 7.309-3.746 1.106-1.538 1.691-3.354 1.691-5.254 0-4.962-4.037-9-9-9h-7.332v1z"/></g></g><g id="up_variable_name_left" transform="translate(162.09,703.2)"><g id="g4472" opacity=".5"><polygon id="polygon4468" opacity=".6" points="3.246 -0.686 0.729 -0.686 1.798 1.491 0.323 2.538 1.493 4.547 0.323 6.472 1.289 8.483 0.882 10.743 3.246 10.743" fill="#fff"/><polygon id="polygon4470" points="3.246 10.869 3.246 10.616 1.051 10.616 1.438 8.467 1.422 8.433 0.483 6.479 1.656 4.548 0.504 2.571 1.974 1.53 0.949 -0.559 3.246 -0.559 3.246 -0.812 0.51 -0.812 1.623 1.453 0.142 2.503 1.331 4.545 0.163 6.467 1.14 8.499 0.713 10.869" fill="#fcfcfc"/></g><g id="g4478" opacity=".3"><polygon id="polygon4474" points="0.308 -0.715 0.557 -0.715 1.623 1.453 1.445 1.58"/><polygon id="polygon4476" points="0.902 10.869 0.713 10.869 1.14 8.499 0.163 6.467 1.331 4.545 0.162 2.538 0 2.652 0 2.708 1.186 4.728 0.021 6.631 1.01 8.669 0.562 11.134 3.246 11.134 3.246 10.881 0.899 10.881"/></g><g id="g4482" opacity=".1"><polygon id="polygon4480" points="1.262 0.115 3.246 0.115 3.246 1.115 1.752 1.115" fill="#fff"/></g></g><g id="up_variable_name_middle" transform="translate(164.66,703.98)"><g id="g4491" opacity=".5" fill="#fff"><rect id="rect4485" opacity=".6" height="11.427" width="11.951" y="-1.462" x="0.672"/><rect id="rect4487" y="-1.589" width="11.951" height="0.253" x="0.672"/><rect id="rect4489" y="9.838" width="11.951" height="0.254" x="0.672"/></g><rect id="rect4493" opacity=".3" height="0.254" width="11.951" y="10.103" x="0.672"/><rect id="rect4495" opacity=".1" height="1" width="11.951" y="-0.661" x="0.672" fill="#fff"/></g><g id="up_variable_name_right" transform="translate(167.24,703.96)"><g id="g4502" opacity=".5"><polygon id="polygon4498" opacity=".6" points="10.047 -1.478 10.047 9.982 12.43 9.982 12.021 7.717 12.99 6.622 11.816 3.769 12.617 2.083 11.51 0.704 12.582 -1.478" fill="#fff"/><polygon id="polygon4500" points="12.17 7.732 13.15 6.615 11.979 3.767 12.799 2.047 11.687 0.666 12.803 -1.605 10.047 -1.605 10.047 -1.351 12.361 -1.351 11.334 0.743 12.434 2.116 11.654 3.77 12.83 6.628 11.887 7.667 11.871 7.701 12.26 9.855 10.047 9.855 10.047 10.109 12.6 10.109" fill="#fcfcfc"/></g><g id="g4508" opacity=".3"><polygon id="polygon4504" points="11.865 0.794 13.005 -1.508 12.754 -1.508 11.687 0.666"/><polygon id="polygon4506" points="12.412 10.121 10.047 10.121 10.047 10.375 12.75 10.375 12.301 7.903 13.293 6.779 12.125 3.951 12.963 2.212 12.777 2.083 11.979 3.767 13.15 6.615 12.17 7.732 12.6 10.109 12.409 10.109"/></g><g id="g4512" opacity=".1"><polygon id="polygon4510" points="11.541 0.322 12.031 -0.678 10.047 -0.678 10.047 0.322" fill="#fff"/></g></g><g id="g4522" stroke-miterlimit="10" stroke="#807b65"><g id="up_uninitialized_1" fill="#b3a1a1" transform="translate(53.154,699.78)"><path id="path4515" d="m14.931 12.746s1.322-4.334 0-4.576c-1.32-0.24-3.967-1.203-3.967-1.203-1.252 0.48-4.343-4.818-4.343-4.818l-1.423-1.445-2.872 1.445 1.262 4.576v2.65s-3.211 0.48-2.748 1.443c0.462 0.965 1.488 3.291 1.488 3.291h12.604z"/><polyline id="polyline4517" points="4.891 13.453 5.712 9.928 10.634 10.797 10.634 12.336 9.201 13.453"/></g><path id="up_uninitialized_2" fill="#a09ea7" d="m86.502 711.74c-0.604-0.047-1.457-0.108-1.814 0-0.357 0.109 0.627-1.793 0.627-1.793v-0.744l-2.137 1.24-1.27-1.476s0.986-2.663 1.254-2.896c0.27-0.23-3.29-0.325-3.29-0.325l1.059-2.336h-1.21c-3.314 0-6 2.347-6 5.24 0 2.895 2.686 5.24 6 5.24h2.208c1.984 0 3.736-0.844 4.83-2.139-0.093-0.002-0.179-0.005-0.257-0.011z"/><path id="up_uninitialized_3" fill="#b3a1a1" d="m104.65 713.89-1.845-4.042-1.313-0.477-1.478-1.765s-2.062-0.251-2.418-0.171c-0.355 0.079-1.27 1.531-1.207 2.005 0.063 0.476 0.041 1.027 0.041 1.027s-0.353 1.04-0.728 1.198-1.273 1.115-1.18 1.354c0.096 0.236 0.221 0.871 0.221 0.871z"/></g><g id="up_char"><rect id="rect1154" height="16.681" width="16.689" y="738.37" x="129.76" fill="none"/><path id="path1135" d="m130.37 751.9h12.408l3.1469-12.992h-12.453z" stroke="#000" stroke-width="1px" fill="#ffc200"/></g></g><g id="layer2"><g id="up_float_left"><rect id="rect1357" height="15.499" width="13.293" y="701.36" x="207.63" fill="none"/><g id="g1419"><rect id="rect1402" height="12.97" width="12.829" y="701.88" x="208.08" fill="#f3821f"/><g stroke="#000" stroke-width="1px" fill="none"><path id="path1409" d="m220.91 701.86h-13.28"/><path id="path1411" d="m208.13 701.36-0.004 14"/><path id="path1413" d="m220.91 714.86h-13.28"/></g></g></g><g id="up_float_right" transform="matrix(-1 0 0 1 455.11 0)"><rect id="rect1431" height="15.499" width="13.293" y="701.36" x="207.63" fill="none"/><g id="g1441"><rect id="rect1433" height="12.97" width="12.829" y="701.88" x="208.08" fill="#f3821f"/><g stroke="#000" stroke-width="1px" fill="none"><path id="path1435" d="m220.91 701.86h-13.28"/><path id="path1437" d="m208.13 701.36-0.004 14"/><path id="path1439" d="m220.91 714.86h-13.28"/></g></g></g><g id="up_float_middle" transform="translate(13.28)"><rect id="rect1445" height="15.499" width="13.293" y="701.36" x="207.63" fill="none"/><g id="g1455"><rect id="rect1447" height="12.97" width="13.293" y="701.88" x="207.62" fill="#f3821f"/><path id="path1449" d="m220.91 701.86h-13.28" stroke="#000" stroke-width="1px" fill="none"/><path id="path1453" d="m220.91 714.86h-13.28" stroke="#000" stroke-width="1px" fill="none"/></g></g></g></svg>
