<?xml version="1.0" encoding="utf-8"?>
<!-- Generator: Adobe Illustrator 16.0.0, SVG Export Plug-In . SVG Version: 6.00 Build 0)  -->
<!DOCTYPE svg PUBLIC "-//W3C//DTD SVG 1.1//EN" "http://www.w3.org/Graphics/SVG/1.1/DTD/svg11.dtd" [
	<!ENTITY st0 "fill:url(#SVGID_1_);stroke:#CCCCCC;stroke-width:2.0714;stroke-miterlimit:10;">
	<!ENTITY st1 "fill:url(#SVGID_2_);">
	<!ENTITY st2 "fill:url(#SVGID_3_);">
	<!ENTITY st3 "fill:url(#SVGID_4_);">
	<!ENTITY st4 "fill:url(#SVGID_5_);stroke:#D1BD96;stroke-miterlimit:10;">
	<!ENTITY st5 "fill:url(#SVGID_6_);stroke:#D1BD96;stroke-miterlimit:10;">
]>
<svg version="1.1" id="air_x5F_tube_x5F_short" xmlns="http://www.w3.org/2000/svg" xmlns:xlink="http://www.w3.org/1999/xlink"
	 x="0px" y="0px" width="84px" height="41.583px" viewBox="0 0 84 41.583" style="enable-background:new 0 0 84 41.583;"
	 xml:space="preserve">
<g>
	
		<linearGradient id="SVGID_1_" gradientUnits="userSpaceOnUse" x1="-35.9888" y1="1097.3877" x2="-35.9888" y2="1126.8896" gradientTransform="matrix(1 0 0 -1 78 1133.666)">
		<stop  offset="0" style="stop-color:#F4F4F4;stop-opacity:0"/>
		<stop  offset="1" style="stop-color:#B3B3B3;stop-opacity:0.4"/>
	</linearGradient>
	<rect x="3.446" y="3.412" style="&st0;" width="77.132" height="34.538"/>
	
		<linearGradient id="SVGID_2_" gradientUnits="userSpaceOnUse" x1="496.562" y1="543.915" x2="496.562" y2="531.1161" gradientTransform="matrix(-1 0 0 1 538.5742 -523.9482)">
		<stop  offset="0" style="stop-color:#F4F4F4;stop-opacity:0"/>
		<stop  offset="0.5068" style="stop-color:#F8F8F8;stop-opacity:0.6043"/>
		<stop  offset="0.8387" style="stop-color:#FFFFFF"/>
	</linearGradient>
	<rect x="6.058" y="6.094" style="&st1;" width="71.907" height="14.586"/>
	
		<linearGradient id="SVGID_3_" gradientUnits="userSpaceOnUse" x1="-37.3398" y1="1107.2715" x2="-37.3398" y2="1098.7056" gradientTransform="matrix(1 0 0 -1 78 1133.666)">
		<stop  offset="0" style="stop-color:#F4F4F4;stop-opacity:0.6"/>
		<stop  offset="0.0986" style="stop-color:#E9E9E9;stop-opacity:0.6329"/>
		<stop  offset="0.4219" style="stop-color:#CCCCCC;stop-opacity:0.741"/>
		<stop  offset="0.6996" style="stop-color:#B9B9B9;stop-opacity:0.8338"/>
		<stop  offset="0.8978" style="stop-color:#B3B3B3;stop-opacity:0.9"/>
	</linearGradient>
	<rect x="3.446" y="25.944" style="&st2;" width="74.428" height="9.25"/>
	
		<linearGradient id="SVGID_4_" gradientUnits="userSpaceOnUse" x1="-37.3398" y1="1100.4277" x2="-37.3398" y2="1098.4026" gradientTransform="matrix(1 0 0 -1 78 1133.666)">
		<stop  offset="0" style="stop-color:#F4F4F4;stop-opacity:0.6"/>
		<stop  offset="0.0986" style="stop-color:#E9E9E9;stop-opacity:0.6329"/>
		<stop  offset="0.4219" style="stop-color:#CCCCCC;stop-opacity:0.741"/>
		<stop  offset="0.6996" style="stop-color:#B9B9B9;stop-opacity:0.8338"/>
		<stop  offset="0.8978" style="stop-color:#B3B3B3;stop-opacity:0.9"/>
	</linearGradient>
	<rect x="3.446" y="33.132" style="&st3;" width="74.428" height="2.188"/>
	
		<linearGradient id="SVGID_5_" gradientUnits="userSpaceOnUse" x1="-74.5547" y1="1092.7959" x2="-74.5547" y2="1132.8564" gradientTransform="matrix(1 0 0 -1 78 1133.666)">
		<stop  offset="0" style="stop-color:#31312F"/>
		<stop  offset="0.1541" style="stop-color:#31312F"/>
		<stop  offset="0.8667" style="stop-color:#D2C494"/>
		<stop  offset="1" style="stop-color:#A58661"/>
	</linearGradient>
	<path style="&st4;" d="M6.058,38.759c0,1.166-1.17,2.111-2.612,2.111l0,0c-1.443,0-2.612-0.945-2.612-2.111V2.921
		c0-1.166,1.169-2.112,2.612-2.112l0,0c1.442,0,2.612,0.946,2.612,2.112V38.759z"/>
	
		<linearGradient id="SVGID_6_" gradientUnits="userSpaceOnUse" x1="2.5771" y1="1092.7959" x2="2.5771" y2="1132.8564" gradientTransform="matrix(1 0 0 -1 78 1133.666)">
		<stop  offset="0" style="stop-color:#31312F"/>
		<stop  offset="0.1541" style="stop-color:#31312F"/>
		<stop  offset="0.8667" style="stop-color:#D2C494"/>
		<stop  offset="1" style="stop-color:#A58661"/>
	</linearGradient>
	<path style="&st5;" d="M83.19,38.759c0,1.166-1.17,2.111-2.612,2.111l0,0c-1.443,0-2.612-0.945-2.612-2.111V2.921
		c0-1.166,1.169-2.112,2.612-2.112l0,0c1.442,0,2.612,0.946,2.612,2.112V38.759z"/>
</g>
</svg>
