<?xml version="1.0" encoding="utf-8"?>
<!-- Generator: Adobe Illustrator 16.0.0, SVG Export Plug-In . SVG Version: 6.00 Build 0)  -->
<!DOCTYPE svg PUBLIC "-//W3C//DTD SVG 1.1//EN" "http://www.w3.org/Graphics/SVG/1.1/DTD/svg11.dtd">
<svg version="1.1"
	 id="background" xmlns:sodipodi="http://sodipodi.sourceforge.net/DTD/sodipodi-0.dtd" xmlns:svg="http://www.w3.org/2000/svg" xmlns:rdf="http://www.w3.org/1999/02/22-rdf-syntax-ns#" xmlns:cc="http://creativecommons.org/ns#" xmlns:dc="http://purl.org/dc/elements/1.1/" xmlns:inkscape="http://www.inkscape.org/namespaces/inkscape" sodipodi:docname="background.svg" inkscape:version="0.48.2 r9819"
	 xmlns="http://www.w3.org/2000/svg" xmlns:xlink="http://www.w3.org/1999/xlink" x="0px" y="0px" width="1024px" height="768px"
	 viewBox="0 0 1024 768" enable-background="new 0 0 1024 768" xml:space="preserve">
<sodipodi:namedview  guidetolerance="10" showgrid="false" gridtolerance="10" inkscape:cy="384" showguides="true" inkscape:cx="512" inkscape:zoom="0.72395833" objecttolerance="10" borderopacity="1" pagecolor="#ffffff" id="namedview179" bordercolor="#666666" inkscape:window-x="0" inkscape:pageshadow="2" inkscape:pageopacity="0" inkscape:window-height="720" inkscape:window-width="1366" inkscape:guide-bbox="true" inkscape:current-layer="layer1" inkscape:window-maximized="1" inkscape:window-y="0">
	</sodipodi:namedview>
<g id="layer1" inkscape:label="Background" inkscape:groupmode="layer">
	<g id="fondo">
		<rect id="rect6" x="-0.001" y="0.062" fill="#22B573" width="1024.002" height="766.938"/>
	</g>
	
		<linearGradient id="rect17_1_" gradientUnits="userSpaceOnUse" x1="799.5752" y1="-343.7095" x2="799.5753" y2="303.8571" gradientTransform="matrix(1 0 0 -1 -287.5752 390.5752)">
		<stop  offset="0" style="stop-color:#007C61;stop-opacity:0.6"/>
		<stop  offset="0.265" style="stop-color:#00684E;stop-opacity:0.6885"/>
		<stop  offset="0.6339" style="stop-color:#005D57;stop-opacity:0.8118"/>
		<stop  offset="0.8978" style="stop-color:#004F44;stop-opacity:0.9"/>
	</linearGradient>
	
		<rect id="rect17" x="-0.001" y="69" opacity="0.5" fill="url(#rect17_1_)" enable-background="new    " width="1024.001" height="699.32"/>
	<polygon id="polygon19" fill="#196352" points="119.681,69.467 119.681,72.133 129.142,72.133 129.142,69.467 150.491,69.467 
		150.491,72.133 159.951,72.133 159.951,69.467 181.302,69.467 181.302,72.133 190.762,72.133 190.762,69.467 212.112,69.467 
		212.112,72.133 221.572,72.133 221.572,69.467 242.922,69.467 242.922,72.133 252.383,72.133 252.383,69.467 273.732,69.467 
		273.732,72.133 283.192,72.133 283.192,69.467 304.543,69.467 304.543,72.133 314.003,72.133 314.003,69.467 335.353,69.467 
		335.353,72.133 344.813,72.133 344.813,69.467 366.164,69.467 366.164,72.133 375.624,72.133 375.624,69.467 396.974,69.467 
		396.974,72.133 406.434,72.133 406.434,69.467 427.785,69.467 427.785,72.133 437.245,72.133 437.245,69.467 458.594,69.467 
		458.594,72.133 468.054,72.133 468.054,69.467 489.405,69.467 489.405,72.133 498.865,72.133 498.865,69.467 520.215,69.467 
		520.215,72.133 529.676,72.133 529.676,69.467 551.025,69.467 551.025,72.133 560.486,72.133 560.486,69.467 581.836,69.467 
		581.836,72.133 591.297,72.133 591.297,69.467 612.646,69.467 612.646,72.133 622.106,72.133 622.106,69.467 643.456,69.467 
		643.456,72.133 652.916,72.133 652.916,69.467 674.267,69.467 674.267,72.133 683.727,72.133 683.727,69.467 705.076,69.467 
		705.076,72.133 714.537,72.133 714.537,69.467 735.886,69.467 735.886,72.133 745.348,72.133 745.348,69.467 766.697,69.467 
		766.697,72.133 776.157,72.133 776.157,69.467 797.508,69.467 797.508,72.133 806.968,72.133 806.968,69.467 828.318,69.467 
		828.318,72.133 837.778,72.133 837.778,69.467 859.128,69.467 859.128,72.133 868.589,72.133 868.589,69.467 889.938,69.467 
		889.938,72.133 899.399,72.133 899.399,69.467 920.749,69.467 920.749,72.133 930.21,72.133 930.21,69.467 951.56,69.467 
		951.56,72.133 961.021,72.133 961.021,69.467 982.369,69.467 982.369,72.133 991.83,72.133 991.83,69.467 1013.18,69.467 
		1013.18,72.133 1013.18,75.317 1024,75.317 1024,50.317 -0.001,50.317 -0.001,75.317 5.9,75.317 5.9,72.133 5.9,69.467 
		27.25,69.467 27.25,72.133 36.711,72.133 36.711,69.467 58.061,69.467 58.061,72.133 67.521,72.133 67.521,69.467 88.871,69.467 
		88.871,72.133 98.331,72.133 98.331,69.467 	"/>
	<rect id="rect21" x="-0.001" fill="#ACA943" width="1024.001" height="60.819"/>
	<rect id="rect23" x="-0.001" fill="#AC8B37" width="21.704" height="63.486"/>
	<rect id="rect25" x="31.321" fill="#AC8B37" width="21.704" height="63.486"/>
	<rect id="rect27" x="31.321" fill="#AC8B37" width="21.704" height="63.486"/>
	<rect id="rect29" x="62.643" fill="#AC8B37" width="21.704" height="63.486"/>
	<rect id="rect31" x="62.643" fill="#AC8B37" width="21.704" height="63.486"/>
	<rect id="rect33" x="93.964" fill="#AC8B37" width="21.704" height="63.486"/>
	<rect id="rect35" x="93.964" fill="#AC8B37" width="21.704" height="63.486"/>
	<rect id="rect37" x="125.286" fill="#AC8B37" width="21.704" height="63.486"/>
	<rect id="rect39" x="125.286" fill="#AC8B37" width="21.704" height="63.486"/>
	<rect id="rect41" x="156.608" fill="#AC8B37" width="21.704" height="63.486"/>
	<rect id="rect43" x="156.608" fill="#AC8B37" width="21.704" height="63.486"/>
	<rect id="rect45" x="187.93" fill="#AC8B37" width="21.704" height="63.486"/>
	<rect id="rect47" x="187.93" fill="#AC8B37" width="21.704" height="63.486"/>
	<rect id="rect49" x="219.251" fill="#AC8B37" width="21.704" height="63.486"/>
	<rect id="rect51" x="219.251" fill="#AC8B37" width="21.704" height="63.486"/>
	<rect id="rect53" x="250.573" fill="#AC8B37" width="21.704" height="63.486"/>
	<rect id="rect55" x="250.573" fill="#AC8B37" width="21.704" height="63.486"/>
	<rect id="rect57" x="281.895" fill="#AC8B37" width="21.704" height="63.486"/>
	<rect id="rect59" x="281.895" fill="#AC8B37" width="21.704" height="63.486"/>
	<rect id="rect61" x="313.217" fill="#AC8B37" width="21.704" height="63.486"/>
	<rect id="rect63" x="313.217" fill="#AC8B37" width="21.704" height="63.486"/>
	<rect id="rect65" x="344.539" fill="#AC8B37" width="21.704" height="63.486"/>
	<rect id="rect67" x="344.539" fill="#AC8B37" width="21.704" height="63.486"/>
	<rect id="rect69" x="375.86" fill="#AC8B37" width="21.704" height="63.486"/>
	<rect id="rect71" x="375.86" fill="#AC8B37" width="21.704" height="63.486"/>
	<rect id="rect73" x="407.182" fill="#AC8B37" width="21.704" height="63.486"/>
	<rect id="rect75" x="407.182" fill="#AC8B37" width="21.704" height="63.486"/>
	<rect id="rect77" x="438.504" fill="#AC8B37" width="21.704" height="63.486"/>
	<rect id="rect79" x="438.504" fill="#AC8B37" width="21.704" height="63.486"/>
	<rect id="rect81" x="469.826" fill="#AC8B37" width="21.704" height="63.486"/>
	<rect id="rect83" x="469.826" fill="#AC8B37" width="21.704" height="63.486"/>
	<rect id="rect85" x="501.147" fill="#AC8B37" width="21.703" height="63.486"/>
	<rect id="rect87" x="501.147" fill="#AC8B37" width="21.703" height="63.486"/>
	<rect id="rect89" x="532.469" fill="#AC8B37" width="21.705" height="63.486"/>
	<rect id="rect91" x="532.469" fill="#AC8B37" width="21.705" height="63.486"/>
	<rect id="rect93" x="563.791" fill="#AC8B37" width="21.704" height="63.486"/>
	<rect id="rect95" x="563.791" fill="#AC8B37" width="21.704" height="63.486"/>
	<rect id="rect97" x="595.112" fill="#AC8B37" width="21.705" height="63.486"/>
	<rect id="rect99" x="595.112" fill="#AC8B37" width="21.705" height="63.486"/>
	<rect id="rect101" x="626.435" fill="#AC8B37" width="21.704" height="63.486"/>
	<rect id="rect103" x="626.435" fill="#AC8B37" width="21.704" height="63.486"/>
	<rect id="rect105" x="657.756" fill="#AC8B37" width="21.705" height="63.486"/>
	<rect id="rect107" x="657.756" fill="#AC8B37" width="21.705" height="63.486"/>
	<rect id="rect109" x="689.078" fill="#AC8B37" width="21.704" height="63.486"/>
	<rect id="rect111" x="689.078" fill="#AC8B37" width="21.704" height="63.486"/>
	<rect id="rect113" x="720.399" fill="#AC8B37" width="21.705" height="63.486"/>
	<rect id="rect115" x="720.399" fill="#AC8B37" width="21.705" height="63.486"/>
	<rect id="rect117" x="751.722" fill="#AC8B37" width="21.704" height="63.486"/>
	<rect id="rect119" x="751.722" fill="#AC8B37" width="21.704" height="63.486"/>
	<rect id="rect121" x="783.043" fill="#AC8B37" width="21.705" height="63.486"/>
	<rect id="rect123" x="783.043" fill="#AC8B37" width="21.705" height="63.486"/>
	<rect id="rect125" x="814.365" fill="#AC8B37" width="21.704" height="63.486"/>
	<rect id="rect127" x="814.365" fill="#AC8B37" width="21.704" height="63.486"/>
	<rect id="rect129" x="845.687" fill="#AC8B37" width="21.705" height="63.486"/>
	<rect id="rect131" x="845.687" fill="#AC8B37" width="21.705" height="63.486"/>
	<rect id="rect133" x="877.009" fill="#AC8B37" width="21.704" height="63.486"/>
	<rect id="rect135" x="877.009" fill="#AC8B37" width="21.704" height="63.486"/>
	<rect id="rect137" x="908.33" fill="#AC8B37" width="21.705" height="63.486"/>
	<rect id="rect139" x="908.33" fill="#AC8B37" width="21.705" height="63.486"/>
	<rect id="rect141" x="939.652" fill="#AC8B37" width="21.704" height="63.486"/>
	<rect id="rect143" x="939.652" fill="#AC8B37" width="21.704" height="63.486"/>
	<rect id="rect145" x="970.974" fill="#AC8B37" width="21.704" height="63.486"/>
	<rect id="rect147" x="970.974" fill="#AC8B37" width="21.704" height="63.486"/>
	<rect id="rect149" x="1002.296" fill="#AC8B37" width="21.704" height="63.486"/>
	<g id="g151">
		<path id="path153" inkscape:connector-curvature="0" opacity="0.4" fill="#48FF82" enable-background="new    " d="
			M99.369,132.945c-1.139,1.349-1.829,3.089-1.829,4.993c0,4.278,3.468,7.745,7.746,7.745c4.277,0,7.745-3.467,7.745-7.745
			s-3.468-7.745-7.745-7.745c-0.059,0-0.116,0.007-0.175,0.009l-25.534-25.535H0v6h77.091L99.369,132.945z"/>
		<polygon id="polygon155" opacity="0.4" fill="#48FF82" enable-background="new    " points="39.173,185.9 39.173,689.816 
			78.8,729.443 920.587,729.443 957.179,768.056 965.608,768 923.163,723.443 81.285,723.443 45.173,687.332 45.173,183 0,140.795 
			0,150.387 		"/>
		<polygon id="polygon157" opacity="0.4" fill="#48FF82" enable-background="new    " points="16.855,190.051 16.855,699.96 
			67.448,750.554 790.923,750.554 810.812,768 819.867,768.133 793.181,744.554 69.934,744.554 22.855,697.476 22.855,187.565 
			0,164.667 0,173.196 		"/>
		<polygon id="polygon159" opacity="0.4" fill="#48FF82" enable-background="new    " points="1024,158.604 1024,150.375 
			1008.335,165.907 1008.335,461.774 982.266,487.844 982.266,667.582 1024.001,709.125 1024,700.969 988.266,665.098 
			988.266,490.328 1014.335,464.259 1014.335,168.392 		"/>
		<path id="path161" inkscape:connector-curvature="0" opacity="0.4" fill="#48FF82" enable-background="new    " d="
			M935.309,671.198c0.262-0.778,0.408-1.607,0.408-2.475c0-4.295-3.48-7.775-7.775-7.775s-7.776,3.48-7.776,7.775
			s3.481,7.776,7.776,7.776c1.22,0,2.37-0.289,3.396-0.789L1024.001,768l-0.001-8.11L935.309,671.198z"/>
	</g>
	<polygon id="polygon163" fill="#196352" points="940.767,68.73 896.52,68.73 954.286,126.497 	"/>
	<polygon id="polygon165" fill="#196352" points="0,705 -0.001,698.334 55.333,758 327,758 339,770 0,770 	"/>
	<polygon id="polygon167" fill="#196352" points="66.495,571.5 55.643,552.5 55.643,683.5 83.884,711.741 155,711.741 
		147.851,704.592 97.816,704.592 75.536,682.311 66.495,682.311 	"/>
	<polygon id="polygon169" fill="#196352" points="883.402,742.736 826.069,742.736 851.402,768.07 937.07,768.07 917.9,747.403 
		888.069,747.403 	"/>
	<polygon id="polygon171" fill="#196352" points="0,67.5 0,87 82,87 113.005,118.005 130.629,100.381 130.629,67.5 	"/>
	<g id="g173">
		<polygon id="polygon175" fill="#196352" points="982,316.909 951.56,347.35 951.56,375.091 980.412,403.943 980.412,442.588 
			996.009,426.991 996.009,156.35 1024.771,127.587 1024.771,84.338 951.56,84.338 951.56,90.987 951.56,123.983 982,154.424 		"/>
		<polygon id="polygon177" fill="#196352" points="951.56,132.469 951.56,324.094 951.56,338.864 976,314.424 976,156.909 		"/>
	</g>
	<path id="rect3485" opacity="0.25" enable-background="new    " d="M7.979,0.965h1011.305c3.865,0,7,2.513,7,5.614v51.54
		c0,3.1-3.135,5.614-7,5.614H7.979c-3.866,0-7-2.514-7-5.614V6.579C0.979,3.479,4.112,0.965,7.979,0.965z"/>
	<polygon fill="#196352" points="934.25,67 951.75,120 1025.25,88.5 1024,65.25 	"/>
</g>
</svg>
