<?xml version="1.0" encoding="utf-8"?>
<!-- Generator: Adobe Illustrator 16.0.0, SVG Export Plug-In . SVG Version: 6.00 Build 0)  -->
<!DOCTYPE svg PUBLIC "-//W3C//DTD SVG 1.1//EN" "http://www.w3.org/Graphics/SVG/1.1/DTD/svg11.dtd" [
	<!ENTITY st0 "fill:#AC8B37;">
	<!ENTITY st1 "fill:#ACA943;">
	<!ENTITY st2 "fill:#196352;">
	<!ENTITY st3 "opacity:0.4;fill:#48FF82;">
	<!ENTITY st4 "fill:#22B573;">
	<!ENTITY st5 "opacity:0.5;fill:url(#SVGID_1_);">
]>
<svg version="1.1" id="background" xmlns="http://www.w3.org/2000/svg" xmlns:xlink="http://www.w3.org/1999/xlink" x="0px" y="0px"
	 width="1024px" height="768px" viewBox="0 0 1024 768" style="enable-background:new 0 0 1024 768;" xml:space="preserve">
<g>
	<g id="fondo">
		<rect x="-0.001" style="&st4;" width="1024.002" height="768"/>
	</g>
	<linearGradient id="SVGID_1_" gradientUnits="userSpaceOnUse" x1="511.9995" y1="734.7715" x2="511.9996" y2="96.4649">
		<stop  offset="0" style="stop-color:#007C61;stop-opacity:0.6"/>
		<stop  offset="0.265" style="stop-color:#00684E;stop-opacity:0.6885"/>
		<stop  offset="0.6339" style="stop-color:#005D57;stop-opacity:0.8118"/>
		<stop  offset="0.8978" style="stop-color:#004F44;stop-opacity:0.9"/>
	</linearGradient>
	<rect x="-0.001" y="79" style="&st5;" width="1024.001" height="689.32"/>
	<polygon style="&st2;" points="-0.001,71.837 -0.001,96.837 5.9,96.837 5.9,93.653 5.9,90.987 27.25,90.987 27.25,93.653 
		36.711,93.653 36.711,90.987 58.061,90.987 58.061,93.653 67.521,93.653 67.521,90.987 88.871,90.987 88.871,93.653 98.331,93.653 
		98.331,90.987 119.681,90.987 119.681,93.653 129.142,93.653 129.142,90.987 150.491,90.987 150.491,93.653 159.951,93.653 
		159.951,90.987 181.302,90.987 181.302,93.653 190.762,93.653 190.762,90.987 212.112,90.987 212.112,93.653 221.572,93.653 
		221.572,90.987 242.922,90.987 242.922,93.653 252.383,93.653 252.383,90.987 273.732,90.987 273.732,93.653 283.192,93.653 
		283.192,90.987 304.543,90.987 304.543,93.653 314.003,93.653 314.003,90.987 335.353,90.987 335.353,93.653 344.813,93.653 
		344.813,90.987 366.164,90.987 366.164,93.653 375.624,93.653 375.624,90.987 396.974,90.987 396.974,93.653 406.434,93.653 
		406.434,90.987 427.785,90.987 427.785,93.653 437.245,93.653 437.245,90.987 458.594,90.987 458.594,93.653 468.054,93.653 
		468.054,90.987 489.405,90.987 489.405,93.653 498.865,93.653 498.865,90.987 520.215,90.987 520.215,93.653 529.676,93.653 
		529.676,90.987 551.025,90.987 551.025,93.653 560.486,93.653 560.486,90.987 581.836,90.987 581.836,93.653 591.297,93.653 
		591.297,90.987 612.646,90.987 612.646,93.653 622.106,93.653 622.106,90.987 643.456,90.987 643.456,93.653 652.916,93.653 
		652.916,90.987 674.267,90.987 674.267,93.653 683.727,93.653 683.727,90.987 705.076,90.987 705.076,93.653 714.537,93.653 
		714.537,90.987 735.886,90.987 735.886,93.653 745.348,93.653 745.348,90.987 766.697,90.987 766.697,93.653 776.157,93.653 
		776.157,90.987 797.508,90.987 797.508,93.653 806.968,93.653 806.968,90.987 828.318,90.987 828.318,93.653 837.778,93.653 
		837.778,90.987 859.128,90.987 859.128,93.653 868.589,93.653 868.589,90.987 889.938,90.987 889.938,93.653 899.399,93.653 
		899.399,90.987 920.749,90.987 920.749,93.653 930.21,93.653 930.21,90.987 951.56,90.987 951.56,93.653 961.021,93.653 
		961.021,90.987 982.369,90.987 982.369,93.653 991.83,93.653 991.83,90.987 1013.18,90.987 1013.18,93.653 1013.18,96.837 
		1024,96.837 1024,71.837 	"/>
	<rect x="-0.001" style="&st1;" width="1024.001" height="76.333"/>
	<rect x="-0.001" style="&st0;" width="21.704" height="79"/>
	<rect x="31.321" style="&st0;" width="21.704" height="79"/>
	<rect x="31.321" style="&st0;" width="21.704" height="79"/>
	<rect x="62.643" style="&st0;" width="21.704" height="79"/>
	<rect x="62.643" style="&st0;" width="21.704" height="79"/>
	<rect x="93.964" style="&st0;" width="21.704" height="79"/>
	<rect x="93.964" style="&st0;" width="21.704" height="79"/>
	<rect x="125.286" style="&st0;" width="21.704" height="79"/>
	<rect x="125.286" style="&st0;" width="21.704" height="79"/>
	<rect x="156.608" style="&st0;" width="21.704" height="79"/>
	<rect x="156.608" style="&st0;" width="21.704" height="79"/>
	<rect x="187.93" style="&st0;" width="21.704" height="79"/>
	<rect x="187.93" style="&st0;" width="21.704" height="79"/>
	<rect x="219.251" style="&st0;" width="21.704" height="79"/>
	<rect x="219.251" style="&st0;" width="21.704" height="79"/>
	<rect x="250.573" style="&st0;" width="21.704" height="79"/>
	<rect x="250.573" style="&st0;" width="21.704" height="79"/>
	<rect x="281.895" style="&st0;" width="21.704" height="79"/>
	<rect x="281.895" style="&st0;" width="21.704" height="79"/>
	<rect x="313.217" style="&st0;" width="21.704" height="79"/>
	<rect x="313.217" style="&st0;" width="21.704" height="79"/>
	<rect x="344.539" style="&st0;" width="21.704" height="79"/>
	<rect x="344.539" style="&st0;" width="21.704" height="79"/>
	<rect x="375.86" style="&st0;" width="21.704" height="79"/>
	<rect x="375.86" style="&st0;" width="21.704" height="79"/>
	<rect x="407.182" style="&st0;" width="21.704" height="79"/>
	<rect x="407.182" style="&st0;" width="21.704" height="79"/>
	<rect x="438.504" style="&st0;" width="21.704" height="79"/>
	<rect x="438.504" style="&st0;" width="21.704" height="79"/>
	<rect x="469.826" style="&st0;" width="21.704" height="79"/>
	<rect x="469.826" style="&st0;" width="21.704" height="79"/>
	<rect x="501.147" style="&st0;" width="21.704" height="79"/>
	<rect x="501.147" style="&st0;" width="21.704" height="79"/>
	<rect x="532.469" style="&st0;" width="21.705" height="79"/>
	<rect x="532.469" style="&st0;" width="21.705" height="79"/>
	<rect x="563.791" style="&st0;" width="21.704" height="79"/>
	<rect x="563.791" style="&st0;" width="21.704" height="79"/>
	<rect x="595.112" style="&st0;" width="21.705" height="79"/>
	<rect x="595.112" style="&st0;" width="21.705" height="79"/>
	<rect x="626.435" style="&st0;" width="21.704" height="79"/>
	<rect x="626.435" style="&st0;" width="21.704" height="79"/>
	<rect x="657.756" style="&st0;" width="21.705" height="79"/>
	<rect x="657.756" style="&st0;" width="21.705" height="79"/>
	<rect x="689.078" style="&st0;" width="21.704" height="79"/>
	<rect x="689.078" style="&st0;" width="21.704" height="79"/>
	<rect x="720.399" style="&st0;" width="21.705" height="79"/>
	<rect x="720.399" style="&st0;" width="21.705" height="79"/>
	<rect x="751.722" style="&st0;" width="21.704" height="79"/>
	<rect x="751.722" style="&st0;" width="21.704" height="79"/>
	<rect x="783.043" style="&st0;" width="21.705" height="79"/>
	<rect x="783.043" style="&st0;" width="21.705" height="79"/>
	<rect x="814.365" style="&st0;" width="21.704" height="79"/>
	<rect x="814.365" style="&st0;" width="21.704" height="79"/>
	<rect x="845.687" style="&st0;" width="21.705" height="79"/>
	<rect x="845.687" style="&st0;" width="21.705" height="79"/>
	<rect x="877.009" style="&st0;" width="21.704" height="79"/>
	<rect x="877.009" style="&st0;" width="21.704" height="79"/>
	<rect x="908.33" style="&st0;" width="21.705" height="79"/>
	<rect x="908.33" style="&st0;" width="21.705" height="79"/>
	<rect x="939.652" style="&st0;" width="21.704" height="79"/>
	<rect x="939.652" style="&st0;" width="21.704" height="79"/>
	<rect x="970.974" style="&st0;" width="21.704" height="79"/>
	<rect x="970.974" style="&st0;" width="21.704" height="79"/>
	<rect x="1002.296" style="&st0;" width="21.704" height="79"/>
	<g>
		<path style="&st3;" d="M99.369,143.612c-1.139,1.349-1.829,3.089-1.829,4.993c0,4.278,3.468,7.745,7.746,7.745
			c4.277,0,7.745-3.467,7.745-7.745s-3.468-7.745-7.745-7.745c-0.059,0-0.116,0.007-0.175,0.009l-25.534-25.535H0v6h77.091
			L99.369,143.612z"/>
		<polygon style="&st3;" points="81.285,723.443 45.173,687.332 45.173,183 0,140.795 0,150.387 39.173,185.9 39.173,689.816 
			78.8,729.443 920.587,729.443 957.179,768.056 965.608,768 923.163,723.443 		"/>
		<polygon style="&st3;" points="69.934,744.554 22.855,697.476 22.855,187.565 0,164.667 0,173.196 16.855,190.051 16.855,699.96 
			67.448,750.554 790.923,750.554 810.812,768 819.867,768.133 793.181,744.554 		"/>
		<polygon style="&st3;" points="1024,700.969 988.266,665.098 988.266,490.328 1014.335,464.259 1014.335,168.392 1024,158.604 
			1024,150.375 1008.335,165.907 1008.335,461.774 982.266,487.844 982.266,667.582 1024.001,709.125 		"/>
		<path style="&st3;" d="M935.309,671.198c0.261-0.778,0.408-1.607,0.408-2.474c0-4.295-3.481-7.776-7.776-7.776
			s-7.776,3.481-7.776,7.776s3.481,7.776,7.776,7.776c1.22,0,2.37-0.289,3.397-0.789L1024.001,768l-0.001-8.11L935.309,671.198z"/>
	</g>
	<polygon style="&st2;" points="910.039,82.25 954.286,126.497 954.286,82.25 	"/>
	<polygon style="&st2;" points="-0.001,698.334 55.333,758 327,758 339,770 0,770 0,705 	"/>
	<polygon style="&st2;" points="55.643,552.5 55.643,683.5 83.884,711.741 155,711.741 147.851,704.592 97.816,704.592 
		75.536,682.311 66.495,682.311 66.495,571.5 	"/>
	<polygon style="&st2;" points="826.069,742.736 851.402,768.07 937.07,768.07 917.9,747.403 888.069,747.403 883.402,742.736 	"/>
	<polygon style="&st2;" points="0,107.5 82,107.5 113.005,138.505 130.629,120.881 130.629,88 0,88 	"/>
	<g>
		<polygon style="&st2;" points="951.56,84.338 951.56,90.987 951.56,123.983 982,154.424 982,316.909 951.56,347.35 
			951.56,375.091 980.412,403.943 980.412,442.588 996.009,426.991 996.009,156.35 1024.771,127.587 1024.771,84.338 		"/>
		<polygon style="&st2;" points="976,314.424 976,156.909 951.56,132.469 951.56,324.094 951.56,338.864 		"/>
	</g>
</g>
</svg>
