<?xml version="1.0" encoding="UTF-8" standalone="no"?>
<!-- Generator: Adobe Illustrator 16.0.0, SVG Export Plug-In . SVG Version: 6.00 Build 0)  -->

<svg
   xmlns:dc="http://purl.org/dc/elements/1.1/"
   xmlns:cc="http://creativecommons.org/ns#"
   xmlns:rdf="http://www.w3.org/1999/02/22-rdf-syntax-ns#"
   xmlns:svg="http://www.w3.org/2000/svg"
   xmlns="http://www.w3.org/2000/svg"
   xmlns:xlink="http://www.w3.org/1999/xlink"
   xmlns:sodipodi="http://sodipodi.sourceforge.net/DTD/sodipodi-0.dtd"
   xmlns:inkscape="http://www.inkscape.org/namespaces/inkscape"
   version="1.1"
   id="background"
   x="0px"
   y="0px"
   width="1024px"
   height="768px"
   viewBox="0 0 1024 768"
   style="enable-background:new 0 0 1024 768;"
   xml:space="preserve"
   inkscape:version="0.48.2 r9819"
   sodipodi:docname="background.svg"><metadata
     id="metadata183"><rdf:RDF><cc:Work
         rdf:about=""><dc:format>image/svg+xml</dc:format><dc:type
           rdf:resource="http://purl.org/dc/dcmitype/StillImage" /><dc:title /></cc:Work></rdf:RDF></metadata><defs
     id="defs181"><linearGradient
       id="SVGID_1_"
       gradientUnits="userSpaceOnUse"
       x1="511.99951"
       y1="734.77148"
       x2="511.9996"
       y2="96.464897"><stop
         offset="0"
         style="stop-color:#007C61;stop-opacity:0.6"
         id="stop9" /><stop
         offset="0.265"
         style="stop-color:#00684E;stop-opacity:0.6885"
         id="stop11" /><stop
         offset="0.6339"
         style="stop-color:#005D57;stop-opacity:0.8118"
         id="stop13" /><stop
         offset="0.8978"
         style="stop-color:#004F44;stop-opacity:0.9"
         id="stop15" /></linearGradient><linearGradient
       inkscape:collect="always"
       xlink:href="#SVGID_1_"
       id="linearGradient3463"
       gradientUnits="userSpaceOnUse"
       x1="511.99951"
       y1="734.77148"
       x2="511.9996"
       y2="96.464897" /><clipPath
       clipPathUnits="userSpaceOnUse"
       id="clipPath17719"><rect
         style="opacity:0.25;fill:#000000;fill-opacity:1;stroke:none"
         id="rect17721"
         width="1024"
         height="768"
         x="0"
         y="0" /></clipPath></defs><sodipodi:namedview
     pagecolor="#ffffff"
     bordercolor="#666666"
     borderopacity="1"
     objecttolerance="10"
     gridtolerance="10"
     guidetolerance="10"
     inkscape:pageopacity="0"
     inkscape:pageshadow="2"
     inkscape:window-width="1366"
     inkscape:window-height="720"
     id="namedview179"
     showgrid="false"
     inkscape:zoom="0.72395833"
     inkscape:cx="512"
     inkscape:cy="384"
     inkscape:window-x="0"
     inkscape:window-y="0"
     inkscape:window-maximized="1"
     inkscape:current-layer="layer1"
     showguides="true"
     inkscape:guide-bbox="true" /><g
     inkscape:groupmode="layer"
     id="layer1"
     inkscape:label="Background"
     style="display:inline"><g
       id="g3"><g
         id="fondo"><rect
           y="0"
           x="-0.001"
           style="fill:#22b573"
           width="1024.002"
           height="768"
           id="rect6" /></g><linearGradient
         id="linearGradient3179"
         gradientUnits="userSpaceOnUse"
         x1="511.99951"
         y1="734.77148"
         x2="511.9996"
         y2="96.464897"><stop
           offset="0"
           style="stop-color:#007C61;stop-opacity:0.6"
           id="stop3181" /><stop
           offset="0.265"
           style="stop-color:#00684E;stop-opacity:0.6885"
           id="stop3183" /><stop
           offset="0.6339"
           style="stop-color:#005D57;stop-opacity:0.8118"
           id="stop3185" /><stop
           offset="0.8978"
           style="stop-color:#004F44;stop-opacity:0.9"
           id="stop3187" /></linearGradient><rect
         x="-0.001"
         y="79"
         style="opacity:0.5;fill:url(#linearGradient3463)"
         width="1024.001"
         height="689.32001"
         id="rect17" /><polygon
         style="fill:#196352"
         points="119.681,90.987 119.681,93.653 129.142,93.653 129.142,90.987 150.491,90.987 150.491,93.653 159.951,93.653 159.951,90.987 181.302,90.987 181.302,93.653 190.762,93.653 190.762,90.987 212.112,90.987 212.112,93.653 221.572,93.653 221.572,90.987 242.922,90.987 242.922,93.653 252.383,93.653 252.383,90.987 273.732,90.987 273.732,93.653 283.192,93.653 283.192,90.987 304.543,90.987 304.543,93.653 314.003,93.653 314.003,90.987 335.353,90.987 335.353,93.653 344.813,93.653 344.813,90.987 366.164,90.987 366.164,93.653 375.624,93.653 375.624,90.987 396.974,90.987 396.974,93.653 406.434,93.653 406.434,90.987 427.785,90.987 427.785,93.653 437.245,93.653 437.245,90.987 458.594,90.987 458.594,93.653 468.054,93.653 468.054,90.987 489.405,90.987 489.405,93.653 498.865,93.653 498.865,90.987 520.215,90.987 520.215,93.653 529.676,93.653 529.676,90.987 551.025,90.987 551.025,93.653 560.486,93.653 560.486,90.987 581.836,90.987 581.836,93.653 591.297,93.653 591.297,90.987 612.646,90.987 612.646,93.653 622.106,93.653 622.106,90.987 643.456,90.987 643.456,93.653 652.916,93.653 652.916,90.987 674.267,90.987 674.267,93.653 683.727,93.653 683.727,90.987 705.076,90.987 705.076,93.653 714.537,93.653 714.537,90.987 735.886,90.987 735.886,93.653 745.348,93.653 745.348,90.987 766.697,90.987 766.697,93.653 776.157,93.653 776.157,90.987 797.508,90.987 797.508,93.653 806.968,93.653 806.968,90.987 828.318,90.987 828.318,93.653 837.778,93.653 837.778,90.987 859.128,90.987 859.128,93.653 868.589,93.653 868.589,90.987 889.938,90.987 889.938,93.653 899.399,93.653 899.399,90.987 920.749,90.987 920.749,93.653 930.21,93.653 930.21,90.987 951.56,90.987 951.56,93.653 961.021,93.653 961.021,90.987 982.369,90.987 982.369,93.653 991.83,93.653 991.83,90.987 1013.18,90.987 1013.18,93.653 1013.18,96.837 1024,96.837 1024,71.837 -0.001,71.837 -0.001,96.837 5.9,96.837 5.9,93.653 5.9,90.987 27.25,90.987 27.25,93.653 36.711,93.653 36.711,90.987 58.061,90.987 58.061,93.653 67.521,93.653 67.521,90.987 88.871,90.987 88.871,93.653 98.331,93.653 98.331,90.987 "
         id="polygon19" /><rect
         y="0"
         x="-0.001"
         style="fill:#aca943"
         width="1024.001"
         height="76.333"
         id="rect21" /><rect
         y="0"
         x="-0.001"
         style="fill:#ac8b37"
         width="21.704"
         height="79"
         id="rect23" /><rect
         y="0"
         x="31.320999"
         style="fill:#ac8b37"
         width="21.704"
         height="79"
         id="rect25" /><rect
         y="0"
         x="31.320999"
         style="fill:#ac8b37"
         width="21.704"
         height="79"
         id="rect27" /><rect
         y="0"
         x="62.643002"
         style="fill:#ac8b37"
         width="21.704"
         height="79"
         id="rect29" /><rect
         y="0"
         x="62.643002"
         style="fill:#ac8b37"
         width="21.704"
         height="79"
         id="rect31" /><rect
         y="0"
         x="93.963997"
         style="fill:#ac8b37"
         width="21.704"
         height="79"
         id="rect33" /><rect
         y="0"
         x="93.963997"
         style="fill:#ac8b37"
         width="21.704"
         height="79"
         id="rect35" /><rect
         y="0"
         x="125.286"
         style="fill:#ac8b37"
         width="21.704"
         height="79"
         id="rect37" /><rect
         y="0"
         x="125.286"
         style="fill:#ac8b37"
         width="21.704"
         height="79"
         id="rect39" /><rect
         y="0"
         x="156.608"
         style="fill:#ac8b37"
         width="21.704"
         height="79"
         id="rect41" /><rect
         y="0"
         x="156.608"
         style="fill:#ac8b37"
         width="21.704"
         height="79"
         id="rect43" /><rect
         y="0"
         x="187.92999"
         style="fill:#ac8b37"
         width="21.704"
         height="79"
         id="rect45" /><rect
         y="0"
         x="187.92999"
         style="fill:#ac8b37"
         width="21.704"
         height="79"
         id="rect47" /><rect
         y="0"
         x="219.25101"
         style="fill:#ac8b37"
         width="21.704"
         height="79"
         id="rect49" /><rect
         y="0"
         x="219.25101"
         style="fill:#ac8b37"
         width="21.704"
         height="79"
         id="rect51" /><rect
         y="0"
         x="250.573"
         style="fill:#ac8b37"
         width="21.704"
         height="79"
         id="rect53" /><rect
         y="0"
         x="250.573"
         style="fill:#ac8b37"
         width="21.704"
         height="79"
         id="rect55" /><rect
         y="0"
         x="281.89499"
         style="fill:#ac8b37"
         width="21.704"
         height="79"
         id="rect57" /><rect
         y="0"
         x="281.89499"
         style="fill:#ac8b37"
         width="21.704"
         height="79"
         id="rect59" /><rect
         y="0"
         x="313.21701"
         style="fill:#ac8b37"
         width="21.704"
         height="79"
         id="rect61" /><rect
         y="0"
         x="313.21701"
         style="fill:#ac8b37"
         width="21.704"
         height="79"
         id="rect63" /><rect
         y="0"
         x="344.539"
         style="fill:#ac8b37"
         width="21.704"
         height="79"
         id="rect65" /><rect
         y="0"
         x="344.539"
         style="fill:#ac8b37"
         width="21.704"
         height="79"
         id="rect67" /><rect
         y="0"
         x="375.85999"
         style="fill:#ac8b37"
         width="21.704"
         height="79"
         id="rect69" /><rect
         y="0"
         x="375.85999"
         style="fill:#ac8b37"
         width="21.704"
         height="79"
         id="rect71" /><rect
         y="0"
         x="407.18201"
         style="fill:#ac8b37"
         width="21.704"
         height="79"
         id="rect73" /><rect
         y="0"
         x="407.18201"
         style="fill:#ac8b37"
         width="21.704"
         height="79"
         id="rect75" /><rect
         y="0"
         x="438.504"
         style="fill:#ac8b37"
         width="21.704"
         height="79"
         id="rect77" /><rect
         y="0"
         x="438.504"
         style="fill:#ac8b37"
         width="21.704"
         height="79"
         id="rect79" /><rect
         y="0"
         x="469.82599"
         style="fill:#ac8b37"
         width="21.704"
         height="79"
         id="rect81" /><rect
         y="0"
         x="469.82599"
         style="fill:#ac8b37"
         width="21.704"
         height="79"
         id="rect83" /><rect
         y="0"
         x="501.147"
         style="fill:#ac8b37"
         width="21.704"
         height="79"
         id="rect85" /><rect
         y="0"
         x="501.147"
         style="fill:#ac8b37"
         width="21.704"
         height="79"
         id="rect87" /><rect
         y="0"
         x="532.46899"
         style="fill:#ac8b37"
         width="21.705"
         height="79"
         id="rect89" /><rect
         y="0"
         x="532.46899"
         style="fill:#ac8b37"
         width="21.705"
         height="79"
         id="rect91" /><rect
         y="0"
         x="563.79102"
         style="fill:#ac8b37"
         width="21.704"
         height="79"
         id="rect93" /><rect
         y="0"
         x="563.79102"
         style="fill:#ac8b37"
         width="21.704"
         height="79"
         id="rect95" /><rect
         y="0"
         x="595.112"
         style="fill:#ac8b37"
         width="21.705"
         height="79"
         id="rect97" /><rect
         y="0"
         x="595.112"
         style="fill:#ac8b37"
         width="21.705"
         height="79"
         id="rect99" /><rect
         y="0"
         x="626.435"
         style="fill:#ac8b37"
         width="21.704"
         height="79"
         id="rect101" /><rect
         y="0"
         x="626.435"
         style="fill:#ac8b37"
         width="21.704"
         height="79"
         id="rect103" /><rect
         y="0"
         x="657.75598"
         style="fill:#ac8b37"
         width="21.705"
         height="79"
         id="rect105" /><rect
         y="0"
         x="657.75598"
         style="fill:#ac8b37"
         width="21.705"
         height="79"
         id="rect107" /><rect
         y="0"
         x="689.078"
         style="fill:#ac8b37"
         width="21.704"
         height="79"
         id="rect109" /><rect
         y="0"
         x="689.078"
         style="fill:#ac8b37"
         width="21.704"
         height="79"
         id="rect111" /><rect
         y="0"
         x="720.39899"
         style="fill:#ac8b37"
         width="21.705"
         height="79"
         id="rect113" /><rect
         y="0"
         x="720.39899"
         style="fill:#ac8b37"
         width="21.705"
         height="79"
         id="rect115" /><rect
         y="0"
         x="751.72198"
         style="fill:#ac8b37"
         width="21.704"
         height="79"
         id="rect117" /><rect
         y="0"
         x="751.72198"
         style="fill:#ac8b37"
         width="21.704"
         height="79"
         id="rect119" /><rect
         y="0"
         x="783.04303"
         style="fill:#ac8b37"
         width="21.705"
         height="79"
         id="rect121" /><rect
         y="0"
         x="783.04303"
         style="fill:#ac8b37"
         width="21.705"
         height="79"
         id="rect123" /><rect
         y="0"
         x="814.36499"
         style="fill:#ac8b37"
         width="21.704"
         height="79"
         id="rect125" /><rect
         y="0"
         x="814.36499"
         style="fill:#ac8b37"
         width="21.704"
         height="79"
         id="rect127" /><rect
         y="0"
         x="845.68701"
         style="fill:#ac8b37"
         width="21.705"
         height="79"
         id="rect129" /><rect
         y="0"
         x="845.68701"
         style="fill:#ac8b37"
         width="21.705"
         height="79"
         id="rect131" /><rect
         y="0"
         x="877.00897"
         style="fill:#ac8b37"
         width="21.704"
         height="79"
         id="rect133" /><rect
         y="0"
         x="877.00897"
         style="fill:#ac8b37"
         width="21.704"
         height="79"
         id="rect135" /><rect
         y="0"
         x="908.33002"
         style="fill:#ac8b37"
         width="21.705"
         height="79"
         id="rect137" /><rect
         y="0"
         x="908.33002"
         style="fill:#ac8b37"
         width="21.705"
         height="79"
         id="rect139" /><rect
         y="0"
         x="939.65198"
         style="fill:#ac8b37"
         width="21.704"
         height="79"
         id="rect141" /><rect
         y="0"
         x="939.65198"
         style="fill:#ac8b37"
         width="21.704"
         height="79"
         id="rect143" /><rect
         y="0"
         x="970.974"
         style="fill:#ac8b37"
         width="21.704"
         height="79"
         id="rect145" /><rect
         y="0"
         x="970.974"
         style="fill:#ac8b37"
         width="21.704"
         height="79"
         id="rect147" /><rect
         y="0"
         x="1002.296"
         style="fill:#ac8b37"
         width="21.704"
         height="79"
         id="rect149" /><g
         id="g151"><path
           inkscape:connector-curvature="0"
           style="opacity:0.4;fill:#48ff82"
           d="m 99.369,143.612 c -1.139,1.349 -1.829,3.089 -1.829,4.993 0,4.278 3.468,7.745 7.746,7.745 4.277,0 7.745,-3.467 7.745,-7.745 0,-4.278 -3.468,-7.745 -7.745,-7.745 -0.059,0 -0.116,0.007 -0.175,0.009 L 79.577,115.334 H 0 v 6 h 77.091 l 22.278,22.278 z"
           id="path153" /><polygon
           style="opacity:0.4;fill:#48ff82"
           points="39.173,185.9 39.173,689.816 78.8,729.443 920.587,729.443 957.179,768.056 965.608,768 923.163,723.443 81.285,723.443 45.173,687.332 45.173,183 0,140.795 0,150.387 "
           id="polygon155" /><polygon
           style="opacity:0.4;fill:#48ff82"
           points="16.855,190.051 16.855,699.96 67.448,750.554 790.923,750.554 810.812,768 819.867,768.133 793.181,744.554 69.934,744.554 22.855,697.476 22.855,187.565 0,164.667 0,173.196 "
           id="polygon157" /><polygon
           style="opacity:0.4;fill:#48ff82"
           points="1024,158.604 1024,150.375 1008.335,165.907 1008.335,461.774 982.266,487.844 982.266,667.582 1024.001,709.125 1024,700.969 988.266,665.098 988.266,490.328 1014.335,464.259 1014.335,168.392 "
           id="polygon159" /><path
           inkscape:connector-curvature="0"
           style="opacity:0.4;fill:#48ff82"
           d="m 935.309,671.198 c 0.261,-0.778 0.408,-1.607 0.408,-2.474 0,-4.295 -3.481,-7.776 -7.776,-7.776 -4.295,0 -7.776,3.481 -7.776,7.776 0,4.295 3.481,7.776 7.776,7.776 1.22,0 2.37,-0.289 3.397,-0.789 L 1024.001,768 1024,759.89 935.309,671.198 z"
           id="path161" /></g><polygon
         style="fill:#196352"
         points="954.286,82.25 910.039,82.25 954.286,126.497 "
         id="polygon163" /><polygon
         style="fill:#196352"
         points="0,705 -0.001,698.334 55.333,758 327,758 339,770 0,770 "
         id="polygon165" /><polygon
         style="fill:#196352"
         points="66.495,571.5 55.643,552.5 55.643,683.5 83.884,711.741 155,711.741 147.851,704.592 97.816,704.592 75.536,682.311 66.495,682.311 "
         id="polygon167" /><polygon
         style="fill:#196352"
         points="883.402,742.736 826.069,742.736 851.402,768.07 937.07,768.07 917.9,747.403 888.069,747.403 "
         id="polygon169" /><polygon
         style="fill:#196352"
         points="0,88 0,107.5 82,107.5 113.005,138.505 130.629,120.881 130.629,88 "
         id="polygon171" /><g
         id="g173"><polygon
           style="fill:#196352"
           points="982,316.909 951.56,347.35 951.56,375.091 980.412,403.943 980.412,442.588 996.009,426.991 996.009,156.35 1024.771,127.587 1024.771,84.338 951.56,84.338 951.56,90.987 951.56,123.983 982,154.424 "
           id="polygon175" /><polygon
           style="fill:#196352"
           points="951.56,132.469 951.56,324.094 951.56,338.864 976,314.424 976,156.909 "
           id="polygon177" /></g></g><rect
       style="opacity:0.25;fill:#000000;fill-opacity:1;stroke:none"
       id="rect3485"
       width="1025.3044"
       height="78.267517"
       x="0.97834396"
       y="0.97834396"
       rx="7"
       ry="7" /><polygon
       transform="matrix(3.265025,0,0,0.10895392,-2292.4426,-1.5253549)"
       style="opacity:0.6;fill:#6f003e;display:inline"
       points="702.121,19.313 702.121,745 707.435,750.313 1010.435,750.313 1015.748,745 1015.748,19.313 1010.435,14 707.435,14 "
       id="TitleBar"
       inkscape:label="#polygon1017-2"
       inkscape:export-filename="/Users/jhc/dev/bointerpp/Resources/LevelScene/TitleBar.png"
       inkscape:export-xdpi="90"
       inkscape:export-ydpi="90" /></g></svg>