<?xml version="1.0" encoding="utf-8"?>
<!-- Generator: Adobe Illustrator 16.0.0, SVG Export Plug-In . SVG Version: 6.00 Build 0)  -->
<!DOCTYPE svg PUBLIC "-//W3C//DTD SVG 1.1//EN" "http://www.w3.org/Graphics/SVG/1.1/DTD/svg11.dtd" [
	<!ENTITY st0 "opacity:0.4;fill:url(#SVGID_21_);enable-background:new    ;">
	<!ENTITY st1 "opacity:0.4;fill:url(#SVGID_19_);enable-background:new    ;">
	<!ENTITY st2 "fill:#808080;stroke:#999999;stroke-width:0.8667;stroke-miterlimit:10;">
	<!ENTITY st3 "opacity:0.8;fill:#382524;enable-background:new    ;">
	<!ENTITY st4 "fill:#3C2F39;stroke:#2D2D2E;stroke-width:1.3668;stroke-miterlimit:10;">
	<!ENTITY st5 "opacity:0.1;fill:url(#SVGID_16_);enable-background:new    ;">
	<!ENTITY st6 "fill:#1C0E19;">
	<!ENTITY st7 "fill:url(#SVGID_6_);stroke:#808080;stroke-width:1.2257;stroke-miterlimit:10;">
	<!ENTITY st8 "fill:#1E1E1F;">
	<!ENTITY st9 "opacity:0.4;fill:url(#SVGID_20_);enable-background:new    ;">
	<!ENTITY st10 "opacity:0.6;fill:url(#SVGID_18_);enable-background:new    ;">
	<!ENTITY st11 "fill:#3C2F39;stroke:#2D2D2E;stroke-width:1.5476;stroke-miterlimit:10;">
	<!ENTITY st12 "fill:url(#SVGID_11_);stroke:#808080;stroke-width:1.2257;stroke-miterlimit:10;">
	<!ENTITY st13 "fill:url(#SVGID_2_);">
	<!ENTITY st14 "fill:url(#SVGID_3_);">
	<!ENTITY st15 "fill:url(#SVGID_5_);">
	<!ENTITY st16 "fill:url(#SVGID_7_);">
	<!ENTITY st17 "fill:#2C2E2B;">
	<!ENTITY st18 "fill:#2D2D2E;">
	<!ENTITY st19 "opacity:0.4;">
	<!ENTITY st20 "opacity:0.1;fill:url(#SVGID_15_);enable-background:new    ;">
	<!ENTITY st21 "opacity:0.4;fill:#45302F;enable-background:new    ;">
	<!ENTITY st22 "fill:#352D2D;">
	<!ENTITY st23 "fill:#363139;">
	<!ENTITY st24 "fill:url(#SVGID_4_);stroke:#808080;stroke-width:1.2257;stroke-miterlimit:10;">
	<!ENTITY st25 "fill:#392C36;">
	<!ENTITY st26 "fill:url(#SVGID_8_);stroke:#808080;stroke-width:1.2257;stroke-miterlimit:10;">
	<!ENTITY st27 "fill:#4A3B46;stroke:#2D2D2E;stroke-width:1.5476;stroke-miterlimit:10;">
	<!ENTITY st28 "opacity:0.2;fill:url(#SVGID_17_);enable-background:new    ;">
	<!ENTITY st29 "fill:#3C2F39;">
	<!ENTITY st30 "fill:url(#SVGID_10_);">
	<!ENTITY st31 "fill:url(#SVGID_12_);">
	<!ENTITY st32 "fill:url(#SVGID_22_);">
	<!ENTITY st33 "fill:#404A4D;">
	<!ENTITY st34 "fill:url(#SVGID_1_);stroke:#808080;stroke-width:1.2257;stroke-miterlimit:10;">
	<!ENTITY st35 "fill:url(#SVGID_13_);stroke:#808080;stroke-width:1.2257;stroke-miterlimit:10;">
	<!ENTITY st36 "fill:url(#SVGID_9_);stroke:#808080;stroke-width:1.2257;stroke-miterlimit:10;">
	<!ENTITY st37 "opacity:0.2;fill:url(#SVGID_14_);enable-background:new    ;">
	<!ENTITY st38 "fill:#45302F;">
]>
<svg version="1.1" id="chip_x5F_damaged" xmlns="http://www.w3.org/2000/svg" xmlns:xlink="http://www.w3.org/1999/xlink" x="0px"
	 y="0px" width="109.862px" height="119.184px" viewBox="0 0 109.862 119.184" style="enable-background:new 0 0 109.862 119.184;"
	 xml:space="preserve">
<g>
	
		<linearGradient id="SVGID_1_" gradientUnits="userSpaceOnUse" x1="-150.7422" y1="1354.3066" x2="-144.4087" y2="1354.3066" gradientTransform="matrix(1 -0.0063 -0.0063 -1 237.1416 1451.3901)">
		<stop  offset="0" style="stop-color:#2C2B2D"/>
		<stop  offset="0.6169" style="stop-color:#737474"/>
	</linearGradient>
	<path style="&st34;" d="M78.931,98.242c0.003,0,0.004,0,0.007,0.001c1.893,0.517,2.723,1.982,2.745,3.492l0.549-0.032
		c-0.36-1.695,0.287-3.644,1.955-4.432l-0.006-0.767c-1.188-0.334-1.975-1.194-2.351-2.225l-1.779,0.012
		C80.378,95.693,80,97.272,78.931,98.242z"/>
	<path style="&st11;" d="M63.996,23.21l4.98-1.391l0.532-1.161l-0.629-1.5l-1.064-0.871c0,0,3.531-0.435,4.111,0.581
		c0.58,1.017,1.16,2.95,1.16,2.95l-0.602,0.887v0.219L63.996,23.21z"/>
	<path style="&st4;" d="M88.758,24.384c0,0,2.343-0.547,2.812-2.281c0.47-1.733,0.512-3.649,0.512-3.649l5.425,3.304
		c0,0,0.996,2.998-1.173,3.314C94.163,25.39,88.758,24.384,88.758,24.384z"/>
	<g>
		<g>
			
				<radialGradient id="SVGID_2_" cx="4.7095" cy="1030.8359" r="7.7778" gradientTransform="matrix(1 0 0 -1 78 1142)" gradientUnits="userSpaceOnUse">
				<stop  offset="0.0538" style="stop-color:#31312F"/>
				<stop  offset="0.31" style="stop-color:#31312F"/>
				<stop  offset="0.4736" style="stop-color:#4B4236"/>
				<stop  offset="0.6414" style="stop-color:#5E4F3A"/>
				<stop  offset="0.8146" style="stop-color:#69573D"/>
				<stop  offset="1" style="stop-color:#6D593E"/>
			</radialGradient>
			<circle style="&st13;" cx="82.709" cy="111.165" r="7.778"/>
			<circle style="&st22;" cx="82.709" cy="111.165" r="5.343"/>
		</g>
		<g>
			
				<radialGradient id="SVGID_3_" cx="-22.4536" cy="1030.8359" r="7.7778" gradientTransform="matrix(1 0 0 -1 78 1142)" gradientUnits="userSpaceOnUse">
				<stop  offset="0.0538" style="stop-color:#31312F"/>
				<stop  offset="0.31" style="stop-color:#31312F"/>
				<stop  offset="0.7807" style="stop-color:#BEBFA0"/>
				<stop  offset="1" style="stop-color:#A58661"/>
			</radialGradient>
			<circle style="&st14;" cx="55.546" cy="111.165" r="7.778"/>
			<circle style="&st22;" cx="55.546" cy="111.165" r="5.343"/>
			
				<linearGradient id="SVGID_4_" gradientUnits="userSpaceOnUse" x1="-22.4717" y1="1042.7822" x2="-22.4717" y2="1036.4557" gradientTransform="matrix(1 0 0 -1 78 1142)">
				<stop  offset="0" style="stop-color:#2C2B2D"/>
				<stop  offset="0.6169" style="stop-color:#737474"/>
			</linearGradient>
			<rect x="52.361" y="85.69" style="&st24;" width="6.334" height="20.569"/>
			<polyline style="&st2;" points="52.361,106.26 53.587,108.13 57.265,108.13 58.695,106.26 			"/>
		</g>
		<g>
			
				<radialGradient id="SVGID_5_" cx="-49.6177" cy="1030.8359" r="7.7778" gradientTransform="matrix(1 0 0 -1 78 1142)" gradientUnits="userSpaceOnUse">
				<stop  offset="0.0538" style="stop-color:#31312F"/>
				<stop  offset="0.31" style="stop-color:#31312F"/>
				<stop  offset="0.7807" style="stop-color:#BEBFA0"/>
				<stop  offset="1" style="stop-color:#A58661"/>
			</radialGradient>
			<circle style="&st15;" cx="28.382" cy="111.165" r="7.778"/>
			<circle style="&st22;" cx="28.382" cy="111.165" r="5.343"/>
			
				<linearGradient id="SVGID_6_" gradientUnits="userSpaceOnUse" x1="-49.6353" y1="1042.7822" x2="-49.6353" y2="1036.4557" gradientTransform="matrix(1 0 0 -1 78 1142)">
				<stop  offset="0" style="stop-color:#2C2B2D"/>
				<stop  offset="0.6169" style="stop-color:#737474"/>
			</linearGradient>
			<rect x="25.198" y="85.69" style="&st7;" width="6.333" height="20.569"/>
			<polyline style="&st2;" points="25.198,106.26 26.423,108.13 30.1,108.13 31.531,106.26 			"/>
		</g>
		<g>
			
				<radialGradient id="SVGID_7_" cx="774.0088" cy="659.002" r="7.7783" gradientTransform="matrix(-1 0 0 1 802.3906 -650.9824)" gradientUnits="userSpaceOnUse">
				<stop  offset="0.0538" style="stop-color:#31312F"/>
				<stop  offset="0.31" style="stop-color:#31312F"/>
				<stop  offset="0.7807" style="stop-color:#BEBFA0"/>
				<stop  offset="1" style="stop-color:#A58661"/>
			</radialGradient>
			<circle style="&st16;" cx="28.382" cy="8.02" r="7.778"/>
			<circle style="&st22;" cx="28.382" cy="8.02" r="5.343"/>
			
				<linearGradient id="SVGID_8_" gradientUnits="userSpaceOnUse" x1="709.8145" y1="579.9932" x2="716.1479" y2="579.9932" gradientTransform="matrix(-0.963 0.2695 0.2695 0.963 555.5469 -736.9063)">
				<stop  offset="0" style="stop-color:#2C2B2D"/>
				<stop  offset="0.6169" style="stop-color:#737474"/>
			</linearGradient>
			<path style="&st26;" d="M27.214,13.002c-0.002,0-0.005,0-0.007,0c-1.961,0-3.147-1.196-3.567-2.646l-0.521,0.176
				c0.796,1.542,0.684,3.591-0.718,4.791l0.207,0.738c1.234,0.009,2.219,0.631,2.854,1.526l1.713-0.479
				C26.49,15.842,26.438,14.219,27.214,13.002z"/>
			
				<linearGradient id="SVGID_9_" gradientUnits="userSpaceOnUse" x1="-100.7275" y1="968.373" x2="-94.3936" y2="968.373" gradientTransform="matrix(0.9467 0.3222 0.3222 -0.9467 -188.7725 974.1836)">
				<stop  offset="0" style="stop-color:#2C2B2D"/>
				<stop  offset="0.6169" style="stop-color:#737474"/>
			</linearGradient>
			<path style="&st36;" d="M30.212,18.077c1.84,2.094,0.554,5.872-2.181,6.408l-2.583,7.588l5.996,2.041l3.992-11.731
				c-0.871-0.832-1.172-1.996-1.031-3.12"/>
		</g>
		<g>
			
				<radialGradient id="SVGID_10_" cx="746.8447" cy="659.002" r="7.7783" gradientTransform="matrix(-1 0 0 1 802.3906 -650.9824)" gradientUnits="userSpaceOnUse">
				<stop  offset="0.0538" style="stop-color:#31312F"/>
				<stop  offset="0.31" style="stop-color:#31312F"/>
				<stop  offset="0.4736" style="stop-color:#4B4236"/>
				<stop  offset="0.6414" style="stop-color:#5E4F3A"/>
				<stop  offset="0.8146" style="stop-color:#69573D"/>
				<stop  offset="1" style="stop-color:#6D593E"/>
			</radialGradient>
			<circle style="&st30;" cx="55.546" cy="8.02" r="7.778"/>
			<circle style="&st22;" cx="55.546" cy="8.02" r="5.343"/>
			
				<linearGradient id="SVGID_11_" gradientUnits="userSpaceOnUse" x1="746.8252" y1="670.9482" x2="746.8252" y2="664.6223" gradientTransform="matrix(-1 0 0 1 802.3906 -650.9824)">
				<stop  offset="0" style="stop-color:#2C2B2D"/>
				<stop  offset="0.6169" style="stop-color:#737474"/>
			</linearGradient>
			<rect x="52.398" y="12.926" style="&st12;" width="6.334" height="20.568"/>
			<polyline style="&st2;" points="58.732,12.926 57.505,11.055 53.828,11.055 52.398,12.926 			"/>
		</g>
		<g>
			
				<radialGradient id="SVGID_12_" cx="719.6807" cy="659.002" r="7.7783" gradientTransform="matrix(-1 0 0 1 802.3906 -650.9824)" gradientUnits="userSpaceOnUse">
				<stop  offset="0.0538" style="stop-color:#31312F"/>
				<stop  offset="0.31" style="stop-color:#31312F"/>
				<stop  offset="0.7807" style="stop-color:#BEBFA0"/>
				<stop  offset="1" style="stop-color:#A58661"/>
			</radialGradient>
			<circle style="&st31;" cx="82.709" cy="8.02" r="7.778"/>
			<circle style="&st22;" cx="82.71" cy="8.02" r="5.342"/>
			
				<linearGradient id="SVGID_13_" gradientUnits="userSpaceOnUse" x1="719.6611" y1="670.9482" x2="719.6611" y2="664.6223" gradientTransform="matrix(-1 0 0 1 802.3906 -650.9824)">
				<stop  offset="0" style="stop-color:#2C2B2D"/>
				<stop  offset="0.6169" style="stop-color:#737474"/>
			</linearGradient>
			<rect x="79.562" y="12.926" style="&st35;" width="6.334" height="20.568"/>
			<polyline style="&st2;" points="85.896,12.926 84.669,11.055 80.992,11.055 79.562,12.926 			"/>
		</g>
		<path style="&st25;" d="M109.609,87.373c0,4.995-4.048,9.042-9.041,9.042H9.234c-4.992,0-9.042-4.048-9.042-9.042v-53.14
			c0-4.994,4.049-9.042,9.042-9.042h91.334c4.993,0,9.041,4.049,9.041,9.042V87.373z"/>
		<g>
			<path style="&st23;" d="M108.289,84.343c0,4.883-3.959,8.842-8.84,8.842H10.138c-4.883,0-8.842-3.959-8.842-8.842V32.381
				c0-4.884,3.958-8.843,8.842-8.843h89.311c4.881,0,8.84,3.958,8.84,8.843V84.343z"/>
		</g>
		
			<linearGradient id="SVGID_14_" gradientUnits="userSpaceOnUse" x1="364.9678" y1="1101.9063" x2="380.3785" y2="1079.6157" gradientTransform="matrix(-4.371139e-008 -1 -1 4.371139e-008 1104.5151 409.7388)">
			<stop  offset="0" style="stop-color:#464554"/>
			<stop  offset="0.095" style="stop-color:#4A4957"/>
			<stop  offset="0.1821" style="stop-color:#555461"/>
			<stop  offset="0.2662" style="stop-color:#676672"/>
			<stop  offset="0.3484" style="stop-color:#818189"/>
			<stop  offset="0.429" style="stop-color:#A3A2A7"/>
			<stop  offset="0.5078" style="stop-color:#CBCBCB"/>
			<stop  offset="0.5095" style="stop-color:#CCCCCC"/>
			<stop  offset="0.5608" style="stop-color:#B3B2B5"/>
			<stop  offset="0.6618" style="stop-color:#86868E"/>
			<stop  offset="0.759" style="stop-color:#63636F"/>
			<stop  offset="0.8503" style="stop-color:#4A4A58"/>
			<stop  offset="0.9331" style="stop-color:#3B3A4B"/>
			<stop  offset="1" style="stop-color:#363546"/>
		</linearGradient>
		<path style="&st37;" d="M0.498,32.225v17.508h22.238V22.925H9.797C4.661,22.926,0.498,27.091,0.498,32.225z"/>
		
			<linearGradient id="SVGID_15_" gradientUnits="userSpaceOnUse" x1="277.3491" y1="664.832" x2="292.7592" y2="642.5425" gradientTransform="matrix(-1 0 0 1 299.9336 -573.1943)">
			<stop  offset="0" style="stop-color:#4A4958"/>
			<stop  offset="0.0963" style="stop-color:#4E4D5B"/>
			<stop  offset="0.1847" style="stop-color:#595865"/>
			<stop  offset="0.27" style="stop-color:#6B6A76"/>
			<stop  offset="0.3533" style="stop-color:#85858D"/>
			<stop  offset="0.4345" style="stop-color:#A6A6AA"/>
			<stop  offset="0.5095" style="stop-color:#CCCCCC"/>
			<stop  offset="0.55" style="stop-color:#B9B8BB"/>
			<stop  offset="0.6535" style="stop-color:#8C8C93"/>
			<stop  offset="0.7532" style="stop-color:#696974"/>
			<stop  offset="0.8466" style="stop-color:#50505E"/>
			<stop  offset="0.9315" style="stop-color:#414051"/>
			<stop  offset="1" style="stop-color:#3C3B4C"/>
		</linearGradient>
		<path style="&st20;" d="M10.041,93.748h17.509V71.511H0.742v12.938C0.741,89.586,4.906,93.748,10.041,93.748z"/>
		
			<linearGradient id="SVGID_16_" gradientUnits="userSpaceOnUse" x1="-251.2188" y1="664.834" x2="-235.8085" y2="642.5441" gradientTransform="matrix(1 0 0 1 338.209 -573.1943)">
			<stop  offset="0" style="stop-color:#464554"/>
			<stop  offset="0.095" style="stop-color:#4A4957"/>
			<stop  offset="0.1821" style="stop-color:#555461"/>
			<stop  offset="0.2662" style="stop-color:#676672"/>
			<stop  offset="0.3484" style="stop-color:#818189"/>
			<stop  offset="0.429" style="stop-color:#A3A2A7"/>
			<stop  offset="0.5078" style="stop-color:#CBCBCB"/>
			<stop  offset="0.5095" style="stop-color:#CCCCCC"/>
			<stop  offset="0.5608" style="stop-color:#B3B2B5"/>
			<stop  offset="0.6618" style="stop-color:#86868E"/>
			<stop  offset="0.759" style="stop-color:#63636F"/>
			<stop  offset="0.8503" style="stop-color:#4A4A58"/>
			<stop  offset="0.9331" style="stop-color:#3B3A4B"/>
			<stop  offset="1" style="stop-color:#363546"/>
		</linearGradient>
		<path style="&st5;" d="M99.537,93.748H82.026V71.511h26.81v12.938C108.835,89.586,104.671,93.748,99.537,93.748z"/>
		
			<linearGradient id="SVGID_17_" gradientUnits="userSpaceOnUse" x1="-39.6216" y1="1117.5176" x2="-13.5697" y2="1058.1912" gradientTransform="matrix(1 0 0 -1 78 1142)">
			<stop  offset="0" style="stop-color:#455762"/>
			<stop  offset="0.2069" style="stop-color:#43525D"/>
			<stop  offset="0.4472" style="stop-color:#3F4450"/>
			<stop  offset="0.7032" style="stop-color:#382D3A"/>
			<stop  offset="0.801" style="stop-color:#34222F"/>
		</linearGradient>
		<path style="&st28;" d="M99.072,81.783c0,4.123-3.343,7.464-7.466,7.464H16.209c-4.122,0-7.464-3.342-7.464-7.464V37.915
			c0-4.121,3.342-7.464,7.464-7.464h75.397c4.123,0,7.466,3.343,7.466,7.464L99.072,81.783L99.072,81.783z"/>
		<path style="&st29;" d="M97.382,80.963c0,3.968-3.218,7.186-7.186,7.186H17.62c-3.968,0-7.186-3.218-7.186-7.186V38.736
			c0-3.968,3.218-7.185,7.186-7.185h72.577c3.968,0,7.186,3.216,7.186,7.185V80.963z"/>
		<path style="&st33;" d="M99.449,93.798H10.138c-5.213,0-9.455-4.242-9.455-9.455V32.381c0-5.213,4.242-9.455,9.455-9.455h89.311
			c5.213,0,9.452,4.242,9.452,9.455v51.962C108.902,89.556,104.662,93.798,99.449,93.798z M10.138,24.151
			c-4.538,0-8.229,3.691-8.229,8.229v51.962c0,4.537,3.69,8.229,8.229,8.229h89.311c4.535,0,8.227-3.691,8.227-8.229V32.381
			c0-4.537-3.689-8.229-8.227-8.229H10.138z"/>
	</g>
	<path style="&st6;" d="M109.609,34.233c0-1.475-0.358-2.862-0.985-4.092c-1.011-4.135-4.734-7.216-9.174-7.216H63.943l-0.617,1.226
		v7.4c0,0-1.608,0.316-2.436,1.942c-0.828,1.626,7.168,6.785,7.168,6.785l2.322-3.95l4.552,2.402c0,0,1.715,2.838,0,3.354
		c-1.715,0.516-5.326,5.158-5.326,5.158l2.837,6.19l2.489,1.806h4.593l5.041,3.122v2.443c0,0-0.911,2.432-1.873,2.948
		c-0.963,0.516-0.665,4.643-0.665,4.643s0.991,1.289,2.538,1.289c1.55,0,1.3,0.516,3.486-1.032c2.189-1.547,2.963-2.837,3.994-2.322
		c1.032,0.517,3.416,2.064,3.385,2.58c-0.03,0.517,1.431,4.551,2.535,0.856c1.105-3.694,0.584-5.758,0-6.531
		s-2.535-2.432-2.535-2.432l5.901-2.443c0,0,4.901,0.527,4.127,2.443c-0.773,1.916-2.321,3.463-1.289,5.011
		c1.031,1.548,3.505,3.354,3.505,3.354l1.228-0.517l0.707-0.723L109.609,34.233L109.609,34.233z"/>
	<g>
		<path style="&st8;" d="M109.554,66.907l-0.719,0.706l-0.377,0.386l-0.671,0.282c-0.692-0.538-2.25-1.809-2.975-2.896
			c-0.467-0.701-0.102-1.449,0.584-2.712c0.271-0.499,0.552-1.015,0.779-1.58c0.219-0.541,0.181-1.081-0.107-1.563
			c-0.877-1.463-4.03-1.872-4.653-1.938l-0.197-0.021l-7.253,3.003l0.965,0.82c0.524,0.446,1.982,1.729,2.419,2.308
			c0.433,0.573,0.894,2.447-0.124,5.845c-0.144,0.479-0.271,0.743-0.358,0.884c-0.278-0.342-0.631-1.187-0.662-1.473
			c0.082-1.354-3.772-3.299-3.813-3.318c-0.262-0.13-0.533-0.197-0.807-0.197c-0.811,0-1.447,0.537-2.328,1.279
			c-0.463,0.389-0.987,0.831-1.651,1.301c-1.271,0.899-1.556,0.972-1.773,0.972c-0.105,0-0.213-0.013-0.34-0.025
			c-0.24-0.025-0.529-0.057-0.927-0.057c-0.852,0-1.508-0.555-1.783-0.833c-0.094-1.658,0.052-3.369,0.274-3.645
			c1.16-0.622,2.064-2.906,2.233-3.358l0.05-0.131V57.93l-5.595-3.464h-4.563l-2.121-1.539l-2.554-5.575
			c1.461-1.823,3.695-4.239,4.648-4.526c0.567-0.171,0.977-0.537,1.177-1.057c0.496-1.288-0.528-3.09-0.737-3.438l-0.111-0.184
			l-5.396-2.847l-2.284,3.885c-3.286-2.195-6.076-4.612-6.196-5.394c0.644-1.206,1.823-1.472,1.867-1.481l0.625-0.123v-7.853
			l0.32-0.637h0.303c0.459-0.773,0.175-0.9,0.146-0.953c-0.973-0.069-1.402-0.03-1.699,0l-0.616,1.222v7.024
			c-0.665,0.273-1.706,0.881-2.352,2.151c-0.945,1.858,3.522,5.26,7.438,7.786l0.678,0.437l2.354-4.008l3.7,1.952
			c0.334,0.617,0.663,1.522,0.517,1.902c-0.014,0.037-0.033,0.087-0.179,0.131c-1.856,0.559-5.086,4.616-5.715,5.424l-0.288,0.371
			l3.118,6.802l2.855,2.072h4.623l4.488,2.778v1.868c-0.4,1.018-1.063,2.193-1.467,2.41c-1.16,0.622-1.224,3.271-1.07,5.381
			l0.018,0.231l0.142,0.184c0.051,0.065,1.246,1.592,3.151,1.592c0.326,0,0.564,0.026,0.763,0.048
			c1.022,0.108,1.465-0.014,3.172-1.222c0.718-0.507,1.292-0.991,1.754-1.38c0.559-0.47,1.088-0.915,1.332-0.915
			c0.014,0,0.047,0,0.115,0.034c1.046,0.523,2.63,1.62,2.966,2.042c0.07,0.635,0.538,1.854,1.129,2.481
			c0.418,0.442,0.831,0.536,1.103,0.536c1.185,0,1.655-1.576,1.812-2.095c1.402-4.688,0.26-6.711-0.125-7.22
			c-0.352-0.465-0.48-0.617-1.094-1.171l3.953-2.444c1.237,0.16,2.974,0.629,3.299,1.173c0.024,0.041,0.046,0.076,0,0.188
			c-0.195,0.483-0.453,0.96-0.703,1.42c-0.713,1.312-1.521,2.798-0.512,4.31c1.095,1.645,3.588,3.473,3.692,3.549l0.354,0.259
			l1.771-0.747l0.263-0.148C109.551,68.905,109.81,67.144,109.554,66.907z"/>
	</g>
	<g style="&st19;">
		<path style="&st38;" d="M101.218,57.57l0.197,0.021c0.313,0.033,1.26,0.152,2.238,0.447V34.676h-3.74v23.436L101.218,57.57z"/>
	</g>
	<g style="&st19;">
		<path style="&st38;" d="M91.468,67.028h0.241c-0.003-0.001-0.006-0.004-0.009-0.005c-0.068-0.034-0.103-0.034-0.115-0.034
			C91.554,66.988,91.507,67.015,91.468,67.028z"/>
		<path style="&st38;" d="M89.729,66.328c0.653-0.53,1.199-0.888,1.856-0.888c0.272,0,0.545,0.067,0.807,0.197
			c0.014,0.006,0.396,0.2,0.918,0.505V45.567h-3.581v4.544H84.91v3.675h4.819V66.328L89.729,66.328z"/>
	</g>
	
		<linearGradient id="SVGID_18_" gradientUnits="userSpaceOnUse" x1="-53.6958" y1="1052.3213" x2="7.4604" y2="1095.4546" gradientTransform="matrix(1 0 0 -1 78 1142)">
		<stop  offset="0" style="stop-color:#455762;stop-opacity:0"/>
		<stop  offset="0.3512" style="stop-color:#445560;stop-opacity:0.3969"/>
		<stop  offset="0.5291" style="stop-color:#424D58;stop-opacity:0.5981"/>
		<stop  offset="0.6682" style="stop-color:#3D404C;stop-opacity:0.7553"/>
		<stop  offset="0.7865" style="stop-color:#372D3A;stop-opacity:0.889"/>
		<stop  offset="0.8209" style="stop-color:#352633;stop-opacity:0.9279"/>
	</linearGradient>
	<path style="&st10;" d="M109.346,69.305l-1.771,0.747l-0.354-0.258c-0.104-0.077-2.599-1.906-3.693-3.55
		c-1.008-1.512-0.2-2.999,0.513-4.31c0.25-0.46,0.508-0.937,0.703-1.42c0.046-0.112,0.024-0.147,0-0.188
		c-0.325-0.543-2.062-1.013-3.3-1.173l-3.952,2.444c0.612,0.554,0.742,0.706,1.094,1.171c0.385,0.508,1.526,2.53,0.125,7.22
		c-0.155,0.519-0.627,2.096-1.812,2.096c-0.271,0-0.685-0.095-1.103-0.537c-0.591-0.628-1.058-1.848-1.129-2.481
		c-0.336-0.422-1.92-1.519-2.966-2.042c-0.068-0.034-0.103-0.034-0.115-0.034c-0.244,0-0.773,0.445-1.332,0.915
		c-0.462,0.39-1.036,0.873-1.754,1.38c-1.707,1.208-2.148,1.331-3.172,1.222c-0.197-0.021-0.437-0.048-0.763-0.048
		c-1.905,0-3.102-1.526-3.151-1.592l-0.142-0.184l-0.018-0.231c-0.152-2.11-0.09-4.759,1.07-5.381
		c0.403-0.216,1.065-1.393,1.467-2.41v-1.867l-4.488-2.779H74.68l-2.855-2.072l-3.118-6.802l0.288-0.371
		c0.629-0.808,3.857-4.866,5.715-5.424c0.146-0.044,0.165-0.095,0.179-0.131c0.146-0.378-0.183-1.285-0.517-1.902l-3.7-1.952
		l-2.355,4.008l-0.677-0.437c-3.916-2.526-8.385-5.927-7.438-7.786c0.646-1.271,1.687-1.877,2.352-2.151v-7.024l0.434-0.857
		l-0.548-0.185H55.94l1.285,1.226l-19.249,2.747l18.347,0.871l-18.347,6.906l20.756,1.653L44.167,48.663l20.796-2.269L33.238,69.3
		l38.562-10.938l-4.256,10.42l7.979-2.453l-2.24,12.706l11.938-5.738l-1.041,8.512l5.26-7.48l7.943,16.944L97.367,74.78l4.805,7.852
		l-0.388-12.688l7.824,10.77V69.036L109.346,69.305z"/>
	
		<linearGradient id="SVGID_19_" gradientUnits="userSpaceOnUse" x1="-9.9404" y1="1069.6094" x2="-8.3288" y2="1070.7461" gradientTransform="matrix(1 0 0 -1 78 1142)">
		<stop  offset="0" style="stop-color:#455762;stop-opacity:0"/>
		<stop  offset="0.0035" style="stop-color:#455661;stop-opacity:0.0049"/>
		<stop  offset="0.149" style="stop-color:#3D3F4B;stop-opacity:0.2124"/>
		<stop  offset="0.3048" style="stop-color:#382F3B;stop-opacity:0.4345"/>
		<stop  offset="0.478" style="stop-color:#352532;stop-opacity:0.6814"/>
		<stop  offset="0.7015" style="stop-color:#34222F"/>
	</linearGradient>
	<circle style="&st1;" cx="69.154" cy="71.618" r="0.838"/>
	
		<linearGradient id="SVGID_20_" gradientUnits="userSpaceOnUse" x1="12.3726" y1="1057.7588" x2="13.985" y2="1058.896" gradientTransform="matrix(1 0 0 -1 78 1142)">
		<stop  offset="0" style="stop-color:#455762;stop-opacity:0"/>
		<stop  offset="0.0035" style="stop-color:#455661;stop-opacity:0.0049"/>
		<stop  offset="0.149" style="stop-color:#3D3F4B;stop-opacity:0.2124"/>
		<stop  offset="0.3048" style="stop-color:#382F3B;stop-opacity:0.4345"/>
		<stop  offset="0.478" style="stop-color:#352532;stop-opacity:0.6814"/>
		<stop  offset="0.7015" style="stop-color:#34222F"/>
	</linearGradient>
	<circle style="&st9;" cx="91.467" cy="83.468" r="0.838"/>
	
		<linearGradient id="SVGID_21_" gradientUnits="userSpaceOnUse" x1="-35.4985" y1="1085.0449" x2="-30.9119" y2="1088.2799" gradientTransform="matrix(1 0 0 -1 78 1142)">
		<stop  offset="0" style="stop-color:#455762;stop-opacity:0"/>
		<stop  offset="0.0035" style="stop-color:#455661;stop-opacity:0.0049"/>
		<stop  offset="0.149" style="stop-color:#3D3F4B;stop-opacity:0.2124"/>
		<stop  offset="0.3048" style="stop-color:#382F3B;stop-opacity:0.4345"/>
		<stop  offset="0.478" style="stop-color:#352532;stop-opacity:0.6814"/>
		<stop  offset="0.7015" style="stop-color:#34222F"/>
	</linearGradient>
	<ellipse style="&st0;" cx="45.618" cy="54.756" rx="2.427" ry="2.298"/>
	<path style="&st21;" d="M85.22,30.451v4.225h-4.652v-4.225h-5.473c-0.596,1.769-2.264,3.043-4.231,3.043
		c-1.969,0-3.638-1.274-4.231-3.043H64.1v1.736l-0.625,0.123c-0.044,0.01-1.225,0.275-1.867,1.482
		c0.115,0.746,2.677,2.991,5.773,5.106h0.592l2.115-3.599l5.396,2.847l0.111,0.184c0.057,0.095,0.174,0.301,0.303,0.568h13.541
		v-8.448H85.22z"/>
	<g>
		<path style="&st6;" d="M19.611,56.366l-3.985-4.525h-3.224c0,0-2.25,2.617-1.125,3.846c1.125,1.228-5.615,5.26-5.615,5.871
			c0,0.61,0.361,8.583,0.906,8.764c0.543,0.182-0.906,6.523-0.906,6.523s-0.182,1.223,0,3.601c0.181,2.378,0.906,4.189,1.812,4.914
			c0.906,0.726,3.261,1.661,3.261,1.661l1.862,2.688c0,0,4.649,0.183,5.018,0c0.368-0.181,2.547-2.075,1.999-2.688
			s5.254,1.545,5.798,1.545c0.543,0,4.271,2.049,4.271,2.049s9.136,0.726,9.679,0c0.545-0.725,3.625-0.503,3.625-2.049
			c0-1.545,1.187-4.654-0.947-6.104c-2.133-1.449-4.489-0.952-3.583-3.193c0.905-2.242,6.803-8.765,3.583-9.127
			c-3.12-0.352-12.426-9.518-12.355-9.603c2.25-2.718,2.657-5.254,3.813-6.521c1.156-1.27,1.881-6.795,0.611-6.75
			c-1.268,0.046-8.334,0-8.334,0l-3.985,4.033L19.611,56.366z"/>
	</g>
	<path style="&st18;" d="M36.279,92.024c-2.877,0-6.846-0.313-7.014-0.326l-0.231-0.019l-0.205-0.112
		c-1.506-0.827-3.377-1.779-3.857-1.918c-0.347-0.028-0.894-0.196-2.566-0.738c-0.635-0.206-1.534-0.498-2.212-0.695
		c-0.609,1.147-2.104,2.31-2.43,2.469c-0.274,0.135-0.605,0.192-1.943,0.192c-1.49,0-3.511-0.078-3.596-0.081l-0.542-0.021
		l-1.986-2.869C8.98,87.608,7.291,86.87,6.464,86.21c-1.189-0.951-2.018-3.075-2.216-5.681c-0.188-2.47,0-3.787,0.009-3.842
		l0.015-0.083c0.495-2.167,0.984-4.794,1.005-5.692c-0.35-0.53-0.551-1.715-0.779-4.727c-0.163-2.149-0.252-4.303-0.252-4.625
		c0-0.751,0.529-1.157,2.286-2.502c0.892-0.683,2.879-2.205,3.372-2.949c-1.198-1.842,0.892-4.445,1.347-4.975l0.325-0.378h4.213
		l3.174,3.604l1.578-3.678l4.452-4.505l0.458,0.003c0.001,0,7.027,0.047,8.288,0.001c0.362-0.018,1.091,0.098,1.5,1.021
		c0.734,1.665-0.023,6.18-1.27,7.545c-0.384,0.423-0.715,1.145-1.099,1.979c-0.494,1.075-1.089,2.372-2.094,3.751
		c2.091,2.1,8.897,8.34,11.054,8.582c1.11,0.125,1.563,0.766,1.732,1.136c0.698,1.519-0.647,3.689-2.78,6.827
		c-0.699,1.029-1.422,2.094-1.648,2.651c-0.081,0.2-0.106,0.323-0.116,0.389c0.167,0.112,0.602,0.266,0.927,0.382
		c0.682,0.242,1.529,0.542,2.375,1.117c2.189,1.489,1.807,4.108,1.552,5.841c-0.066,0.45-0.128,0.875-0.128,1.163
		c0,1.812-1.899,2.267-3.034,2.538c-0.288,0.068-0.711,0.169-0.876,0.248C39.436,91.807,38.728,92.024,36.279,92.024z
		 M29.669,89.549c0.895,0.066,4.206,0.301,6.611,0.301c1.338,0,1.887-0.073,2.088-0.114c0.456-0.416,1.128-0.577,1.833-0.746
		c0.399-0.096,1.232-0.296,1.392-0.486c-0.025-0.384,0.048-0.885,0.126-1.415c0.258-1.76,0.365-3.057-0.623-3.728
		c-0.614-0.417-1.287-0.656-1.88-0.867c-0.885-0.313-1.8-0.638-2.201-1.529c-0.265-0.591-0.231-1.278,0.103-2.104
		c0.313-0.772,1.032-1.833,1.865-3.059c0.828-1.219,2.496-3.672,2.592-4.582c-3.407-0.401-12.87-9.38-13.229-10.27l-0.243-0.6
		l0.413-0.504c1.191-1.438,1.822-2.813,2.379-4.026c0.459-1.001,0.856-1.865,1.469-2.536c0.663-0.729,1.154-3.794,0.968-4.92
		c-1.645,0.024-6.011,0.001-7.436-0.008l-3.52,3.561l-2.771,6.461l-4.798-5.448h-2.208c-0.677,0.919-1.006,1.851-0.848,2.023
		c0.301,0.329,0.446,0.761,0.406,1.216c-0.116,1.315-1.779,2.682-4.304,4.614c-0.51,0.392-1.122,0.859-1.425,1.13
		c0.049,1.507,0.329,6.292,0.631,7.604c0.539,0.437,0.663,1.743-0.655,7.52c-0.023,0.202-0.139,1.337,0.013,3.328
		c0.169,2.224,0.829,3.686,1.407,4.147c0.566,0.455,2.131,1.161,2.982,1.499l0.305,0.122l1.739,2.51
		c0.708,0.022,1.979,0.061,2.97,0.061c0.615,0,0.923-0.015,1.065-0.025c0.334-0.25,1.071-0.96,1.331-1.369
		c-0.087-0.264-0.076-0.549,0.04-0.809c0.188-0.422,0.597-0.674,1.094-0.674c0.529,0,1.542,0.311,3.725,1.019
		c0.76,0.246,1.79,0.58,2.075,0.638C25.45,87.492,26.185,87.646,29.669,89.549z"/>
	
		<linearGradient id="SVGID_22_" gradientUnits="userSpaceOnUse" x1="-26.27" y1="1100.9355" x2="-56.9654" y2="1064.0499" gradientTransform="matrix(1 0 0 -1 78 1142)">
		<stop  offset="0" style="stop-color:#455762;stop-opacity:0"/>
		<stop  offset="0.3512" style="stop-color:#445560;stop-opacity:0.3969"/>
		<stop  offset="0.5291" style="stop-color:#424D58;stop-opacity:0.5981"/>
		<stop  offset="0.6682" style="stop-color:#3D404C;stop-opacity:0.7553"/>
		<stop  offset="0.7865" style="stop-color:#372D3A;stop-opacity:0.889"/>
		<stop  offset="0.8209" style="stop-color:#352633;stop-opacity:0.9279"/>
	</linearGradient>
	<polygon style="&st32;" points="4.164,59.366 5.58,42.601 7.184,52.457 15.051,32.799 17.245,51.112 30.443,34.113 29.754,44.663 
		45.618,40.666 33.725,60.804 42.22,58.361 37.75,64.268 55.529,69.101 42.22,77.423 54.901,83.468 45.618,85.69 50.906,95.975 
		23.041,92.571 21.887,95.975 18.08,92.024 11.617,91.271 4.734,89.247 4.164,85.876 1.91,76.906 3.186,67.028 1.91,58.361 	"/>
	<g style="&st19;">
		<path style="&st17;" d="M3.451,71.407c0.146-0.675,0.312-1.11,0.312-1.11L3.57,69.11l0.019-0.01l4.517,0.637
			c0,0-0.748,0.782-1.222,1.901C6.005,72.015,4.331,72.517,3.451,71.407z"/>
		<path style="&st17;" d="M12.666,78.538c0.055-1.171,0.046-2.607-0.203-3.758c1.171,0.496,2.562,1.53,3.777,2.459
			c-0.042,0.711-0.75,1.705-1.497,2.516C14.011,79.152,13.203,78.678,12.666,78.538z"/>
		<path style="&st17;" d="M6.583,72.586c-0.109,0.545-0.119,1.131,0.055,1.724c0.009,0.03,0.021,0.055,0.029,0.084
			c-0.669,0.534-1.885,1.331-2.809,1.246c-0.078-0.007-0.15-0.023-0.222-0.043c-0.433-1.111-0.452-2.292-0.341-3.258
			C4.233,73.041,5.521,72.93,6.583,72.586z"/>
		<path style="&st17;" d="M16.34,81.748c-0.156-0.48-0.541-0.999-1.022-1.478c0.616-0.665,1.354-1.606,1.606-2.509
			c0.29,0.221,0.563,0.427,0.813,0.604c1.201,0.859,1.214,2.324,1,3.433C18.049,81.815,17.204,81.797,16.34,81.748z"/>
		<path style="&st17;" d="M8.02,79.006c-0.4-0.13-0.834-0.282-1.338-0.484c-1.283-0.514-2.105-1.266-2.631-2.106
			c1.096-0.024,2.269-0.779,2.933-1.286c0.402,0.688,0.954,0.94,1.551,0.861C8.506,77.108,8.363,78.331,8.02,79.006z"/>
		<path style="&st17;" d="M11.602,74.52c0.31,1.021,0.355,2.652,0.281,4.139c-0.502,0.365-0.781,1.166-3.119,0.564
			c0.444-0.988,0.542-2.472,0.548-3.501c0.371-0.202,0.741-0.504,1.086-0.882C10.693,74.517,11.113,74.441,11.602,74.52z"/>
		<path style="&st17;" d="M15.497,86.738l0.032-0.233l-2.604-0.367c0.162-0.129,3.357-3.45,3.418-3.609
			c0.891,0.057,1.613,0.072,2.191,0.062C18.431,82.919,16.382,85.593,15.497,86.738z"/>
	</g>
	<path style="&st3;" d="M42.1,84.307H31.302v-3.401h2.708v-2.838h-2.708v-1.418h-2.191v1.418h-5.162v-3.095h12.255v-3.354H23.949
		V60.805h-3.222v10.814h-2.708V56.203l-1.806-2.05v17.465h-3.048v3.354h3.048v5.03c0,0.498,0.405,0.902,0.903,0.902
		c0.029,0,0.056-0.014,0.086-0.018c0.056,0.008,0.112,0.018,0.172,0.018h3.354h0.646h0.516h2.062h5.162v3.401h-3.116v1.384h3.116
		v1.534h2.191v-1.534h10.904C42.24,85.161,42.217,84.696,42.1,84.307z M19.178,78.583H16.47v-3.61h2.708V78.583z M21.016,77.164
		c-0.802,0-1.451-0.648-1.451-1.45c0-0.803,0.649-1.451,1.451-1.451c0.801,0,1.451,0.649,1.451,1.451
		C22.467,76.515,21.817,77.164,21.016,77.164z"/>
	<path style="&st27;" d="M20.677,85.876l-3.693,1.357c0,0-2.563,4.962-0.77,6.583c0,0,5.885-6.133,7.885-5.074
		c2,1.06,1.23-1.117,1.23-1.117L20.677,85.876z"/>
	<g>
		<path style="&st17;" d="M75.369,52.161c0.051,0.688,0.153,1.144,0.153,1.144l-0.355,1.147l0.017,0.014h4.563
			c0,0-0.633-0.879-0.945-2.055C77.984,51.918,76.396,51.187,75.369,52.161z"/>
		<path style="&st17;" d="M85.49,46.388c-0.109,1.167-0.318,2.59-0.726,3.692c1.229-0.326,2.75-1.156,4.082-1.906
			c0.06-0.709-0.503-1.793-1.13-2.7C86.909,45.968,86.041,46.324,85.49,46.388z"/>
		<path style="&st17;" d="M78.636,51.433c-0.033-0.555,0.039-1.136,0.295-1.699c0.014-0.028,0.027-0.051,0.041-0.079
			c-0.589-0.622-1.682-1.581-2.606-1.625c-0.078-0.004-0.153,0.002-0.228,0.012c-0.582,1.04-0.768,2.207-0.791,3.179
			C76.373,50.652,77.632,50.944,78.636,51.433z"/>
		<path style="&st17;" d="M89.578,43.723c-0.224,0.454-0.677,0.913-1.22,1.32c0.518,0.743,1.115,1.777,1.24,2.708
			c0.318-0.179,0.618-0.345,0.89-0.485c1.311-0.684,1.526-2.132,1.469-3.259C91.279,43.894,90.439,43.796,89.578,43.723z"/>
		<path style="&st17;" d="M80.955,45.276c-0.414,0.072-0.865,0.163-1.394,0.292c-1.342,0.33-2.262,0.959-2.897,1.718
			c1.081,0.179,2.136,1.09,2.724,1.685c0.494-0.625,1.075-0.798,1.655-0.637C81.171,47.223,81.201,45.991,80.955,45.276z"/>
		<path style="&st17;" d="M83.876,50.218c0.447-0.969,0.721-2.576,0.854-4.06c-0.444-0.432-0.608-1.263-3.01-0.995
			c0.303,1.041,0.191,2.523,0.055,3.543c0.339,0.252,0.662,0.604,0.951,1.025C82.975,50.094,83.379,50.228,83.876,50.218z"/>
		<path style="&st17;" d="M89.439,38.662v0.236h-2.631c0.143,0.151,2.844,3.885,2.881,4.051c0.892,0.07,1.607,0.154,2.179,0.246
			C91.81,42.855,90.156,39.922,89.439,38.662z"/>
	</g>
</g>
</svg>
