<?xml version="1.0" encoding="utf-8"?>
<!-- Generator: Adobe Illustrator 16.0.0, SVG Export Plug-In . SVG Version: 6.00 Build 0)  -->
<!DOCTYPE svg PUBLIC "-//W3C//DTD SVG 1.1//EN" "http://www.w3.org/Graphics/SVG/1.1/DTD/svg11.dtd" [
	<!ENTITY st0 "opacity:0.5;fill:url(#SVGID_14_);enable-background:new    ;">
	<!ENTITY st1 "fill:url(#SVGID_4_);stroke:#999999;stroke-width:1.2307;stroke-miterlimit:10;">
	<!ENTITY st2 "fill:url(#SVGID_12_);stroke:#999999;stroke-width:1.2307;stroke-miterlimit:10;">
	<!ENTITY st3 "fill:url(#SVGID_8_);stroke:#999999;stroke-width:1.2307;stroke-miterlimit:10;">
	<!ENTITY st4 "opacity:0.5;fill:url(#SVGID_16_);enable-background:new    ;">
	<!ENTITY st5 "opacity:0.5;fill:url(#SVGID_13_);enable-background:new    ;">
	<!ENTITY st6 "fill:url(#SVGID_1_);">
	<!ENTITY st7 "fill:url(#SVGID_3_);">
	<!ENTITY st8 "fill:url(#SVGID_5_);">
	<!ENTITY st9 "fill:url(#SVGID_7_);">
	<!ENTITY st10 "fill:url(#SVGID_9_);">
	<!ENTITY st11 "fill:url(#SVGID_2_);stroke:#999999;stroke-width:1.2307;stroke-miterlimit:10;">
	<!ENTITY st12 "fill:url(#SVGID_10_);stroke:#999999;stroke-width:1.2307;stroke-miterlimit:10;">
	<!ENTITY st13 "fill:url(#SVGID_6_);stroke:#999999;stroke-width:1.2307;stroke-miterlimit:10;">
	<!ENTITY st14 "opacity:0.5;fill:url(#SVGID_15_);enable-background:new    ;">
	<!ENTITY st15 "fill:#352D2D;">
	<!ENTITY st16 "fill:#012239;">
	<!ENTITY st17 "fill:#042547;">
	<!ENTITY st18 "fill:#084050;">
	<!ENTITY st19 "fill:url(#SVGID_11_);">
	<!ENTITY st20 "opacity:0.9;fill:url(#SVGID_17_);enable-background:new    ;">
	<!ENTITY st21 "fill:#0D3654;">
	<!ENTITY st22 "fill:#808080;stroke:#999999;stroke-width:0.8702;stroke-miterlimit:10;">
]>
<svg version="1.1" id="chip_x5F_restored" xmlns="http://www.w3.org/2000/svg" xmlns:xlink="http://www.w3.org/1999/xlink" x="0px"
	 y="0px" width="109.862px" height="119.184px" viewBox="0 0 109.862 119.184" style="enable-background:new 0 0 109.862 119.184;"
	 xml:space="preserve">
<g>
	<g>
		
			<radialGradient id="SVGID_1_" cx="4.8521" cy="1030.626" r="7.8098" gradientTransform="matrix(1 0 0 -1 78 1142)" gradientUnits="userSpaceOnUse">
			<stop  offset="0.0538" style="stop-color:#31312F"/>
			<stop  offset="0.31" style="stop-color:#31312F"/>
			<stop  offset="0.7807" style="stop-color:#BEBFA0"/>
			<stop  offset="1" style="stop-color:#A58661"/>
		</radialGradient>
		<circle style="&st6;" cx="82.852" cy="111.374" r="7.81"/>
		<circle style="&st15;" cx="82.852" cy="111.374" r="5.364"/>
		
			<linearGradient id="SVGID_2_" gradientUnits="userSpaceOnUse" x1="4.834" y1="1042.6221" x2="4.834" y2="1036.2705" gradientTransform="matrix(1 0 0 -1 78 1142)">
			<stop  offset="0" style="stop-color:#8C8C8C"/>
			<stop  offset="0.1037" style="stop-color:#9E9E9E"/>
			<stop  offset="0.2609" style="stop-color:#B2B2B2"/>
			<stop  offset="0.4388" style="stop-color:#C1C1C1"/>
			<stop  offset="0.6528" style="stop-color:#C9C9C9"/>
			<stop  offset="1" style="stop-color:#CCCCCC"/>
		</linearGradient>
		<rect x="79.654" y="85.796" style="&st11;" width="6.358" height="20.652"/>
		<polyline style="&st22;" points="79.654,106.448 80.885,108.327 84.577,108.327 86.013,106.448 		"/>
	</g>
	<g>
		
			<radialGradient id="SVGID_3_" cx="-22.4219" cy="1030.626" r="7.8096" gradientTransform="matrix(1 0 0 -1 78 1142)" gradientUnits="userSpaceOnUse">
			<stop  offset="0.0538" style="stop-color:#31312F"/>
			<stop  offset="0.31" style="stop-color:#31312F"/>
			<stop  offset="0.7807" style="stop-color:#BEBFA0"/>
			<stop  offset="1" style="stop-color:#A58661"/>
		</radialGradient>
		<circle style="&st7;" cx="55.578" cy="111.374" r="7.81"/>
		<circle style="&st15;" cx="55.578" cy="111.374" r="5.364"/>
		
			<linearGradient id="SVGID_4_" gradientUnits="userSpaceOnUse" x1="-22.4404" y1="1042.6221" x2="-22.4404" y2="1036.2705" gradientTransform="matrix(1 0 0 -1 78 1142)">
			<stop  offset="0" style="stop-color:#8C8C8C"/>
			<stop  offset="0.1037" style="stop-color:#9E9E9E"/>
			<stop  offset="0.2609" style="stop-color:#B2B2B2"/>
			<stop  offset="0.4388" style="stop-color:#C1C1C1"/>
			<stop  offset="0.6528" style="stop-color:#C9C9C9"/>
			<stop  offset="1" style="stop-color:#CCCCCC"/>
		</linearGradient>
		<rect x="52.38" y="85.796" style="&st1;" width="6.358" height="20.652"/>
		<polyline style="&st22;" points="52.38,106.448 53.611,108.327 57.304,108.327 58.738,106.448 		"/>
	</g>
	<g>
		
			<radialGradient id="SVGID_5_" cx="-49.6953" cy="1030.626" r="7.8098" gradientTransform="matrix(1 0 0 -1 78 1142)" gradientUnits="userSpaceOnUse">
			<stop  offset="0.0538" style="stop-color:#31312F"/>
			<stop  offset="0.31" style="stop-color:#31312F"/>
			<stop  offset="0.7807" style="stop-color:#BEBFA0"/>
			<stop  offset="1" style="stop-color:#A58661"/>
		</radialGradient>
		<circle style="&st8;" cx="28.305" cy="111.374" r="7.81"/>
		<circle style="&st15;" cx="28.305" cy="111.375" r="5.365"/>
		
			<linearGradient id="SVGID_6_" gradientUnits="userSpaceOnUse" x1="-49.7134" y1="1042.6221" x2="-49.7134" y2="1036.2705" gradientTransform="matrix(1 0 0 -1 78 1142)">
			<stop  offset="0" style="stop-color:#8C8C8C"/>
			<stop  offset="0.1037" style="stop-color:#9E9E9E"/>
			<stop  offset="0.2609" style="stop-color:#B2B2B2"/>
			<stop  offset="0.4388" style="stop-color:#C1C1C1"/>
			<stop  offset="0.6528" style="stop-color:#C9C9C9"/>
			<stop  offset="1" style="stop-color:#CCCCCC"/>
		</linearGradient>
		<rect x="25.107" y="85.796" style="&st13;" width="6.359" height="20.652"/>
		<polyline style="&st22;" points="25.107,106.448 26.338,108.327 30.029,108.327 31.465,106.448 		"/>
	</g>
	<g>
		
			<radialGradient id="SVGID_7_" cx="774.0859" cy="658.793" r="7.8096" gradientTransform="matrix(-1 0 0 1 802.3906 -650.9824)" gradientUnits="userSpaceOnUse">
			<stop  offset="0.0538" style="stop-color:#31312F"/>
			<stop  offset="0.31" style="stop-color:#31312F"/>
			<stop  offset="0.7807" style="stop-color:#BEBFA0"/>
			<stop  offset="1" style="stop-color:#A58661"/>
		</radialGradient>
		<circle style="&st9;" cx="28.305" cy="7.81" r="7.81"/>
		<circle style="&st15;" cx="28.305" cy="7.81" r="5.365"/>
		
			<linearGradient id="SVGID_8_" gradientUnits="userSpaceOnUse" x1="774.0664" y1="670.7891" x2="774.0664" y2="664.4374" gradientTransform="matrix(-1 0 0 1 802.3906 -650.9824)">
			<stop  offset="0" style="stop-color:#8C8C8C"/>
			<stop  offset="0.1037" style="stop-color:#9E9E9E"/>
			<stop  offset="0.2609" style="stop-color:#B2B2B2"/>
			<stop  offset="0.4388" style="stop-color:#C1C1C1"/>
			<stop  offset="0.6528" style="stop-color:#C9C9C9"/>
			<stop  offset="1" style="stop-color:#CCCCCC"/>
		</linearGradient>
		<rect x="25.144" y="12.736" style="&st3;" width="6.359" height="20.652"/>
		<polyline style="&st22;" points="31.503,12.736 30.272,10.858 26.58,10.858 25.144,12.736 		"/>
	</g>
	<g>
		
			<radialGradient id="SVGID_9_" cx="746.8125" cy="658.793" r="7.8101" gradientTransform="matrix(-1 0 0 1 802.3906 -650.9824)" gradientUnits="userSpaceOnUse">
			<stop  offset="0.0538" style="stop-color:#31312F"/>
			<stop  offset="0.31" style="stop-color:#31312F"/>
			<stop  offset="0.7807" style="stop-color:#BEBFA0"/>
			<stop  offset="1" style="stop-color:#A58661"/>
		</radialGradient>
		<circle style="&st10;" cx="55.578" cy="7.81" r="7.81"/>
		<circle style="&st15;" cx="55.578" cy="7.81" r="5.364"/>
		
			<linearGradient id="SVGID_10_" gradientUnits="userSpaceOnUse" x1="746.7939" y1="670.7891" x2="746.7939" y2="664.4374" gradientTransform="matrix(-1 0 0 1 802.3906 -650.9824)">
			<stop  offset="0" style="stop-color:#8C8C8C"/>
			<stop  offset="0.1037" style="stop-color:#9E9E9E"/>
			<stop  offset="0.2609" style="stop-color:#B2B2B2"/>
			<stop  offset="0.4388" style="stop-color:#C1C1C1"/>
			<stop  offset="0.6528" style="stop-color:#C9C9C9"/>
			<stop  offset="1" style="stop-color:#CCCCCC"/>
		</linearGradient>
		<rect x="52.417" y="12.736" style="&st12;" width="6.358" height="20.652"/>
		<polyline style="&st22;" points="58.775,12.736 57.545,10.858 53.854,10.858 52.417,12.736 		"/>
	</g>
	<g>
		
			<radialGradient id="SVGID_11_" cx="719.5391" cy="658.793" r="7.8096" gradientTransform="matrix(-1 0 0 1 802.3906 -650.9824)" gradientUnits="userSpaceOnUse">
			<stop  offset="0.0538" style="stop-color:#31312F"/>
			<stop  offset="0.31" style="stop-color:#31312F"/>
			<stop  offset="0.7807" style="stop-color:#BEBFA0"/>
			<stop  offset="1" style="stop-color:#A58661"/>
		</radialGradient>
		<circle style="&st19;" cx="82.852" cy="7.81" r="7.81"/>
		<circle style="&st15;" cx="82.852" cy="7.81" r="5.365"/>
		
			<linearGradient id="SVGID_12_" gradientUnits="userSpaceOnUse" x1="719.5195" y1="670.7891" x2="719.5195" y2="664.4374" gradientTransform="matrix(-1 0 0 1 802.3906 -650.9824)">
			<stop  offset="0" style="stop-color:#8C8C8C"/>
			<stop  offset="0.1037" style="stop-color:#9E9E9E"/>
			<stop  offset="0.2609" style="stop-color:#B2B2B2"/>
			<stop  offset="0.4388" style="stop-color:#C1C1C1"/>
			<stop  offset="0.6528" style="stop-color:#C9C9C9"/>
			<stop  offset="1" style="stop-color:#CCCCCC"/>
		</linearGradient>
		<rect x="79.691" y="12.736" style="&st2;" width="6.358" height="20.652"/>
		<path style="&st16;" d="M109.861,87.487c0,5.014-4.065,9.079-9.08,9.079H9.078C4.065,96.566,0,92.502,0,87.487V34.132
			c0-5.015,4.065-9.08,9.078-9.08h91.705c5.014,0,9.078,4.065,9.078,9.08V87.487L109.861,87.487z"/>
		<g>
			<path style="&st21;" d="M108.535,84.441c0,4.904-3.975,8.878-8.877,8.878H9.987c-4.903,0-8.877-3.976-8.877-8.878V32.269
				c0-4.903,3.974-8.878,8.877-8.878h89.671c4.902,0,8.877,3.975,8.877,8.878V84.441L108.535,84.441z"/>
		</g>
		<path style="&st18;" d="M99.658,93.936H9.987c-5.235,0-9.493-4.258-9.493-9.494V32.269c0-5.234,4.258-9.493,9.493-9.493h89.671
			c5.234,0,9.492,4.258,9.492,9.493v52.172C109.15,89.678,104.893,93.936,99.658,93.936z M9.987,24.007
			c-4.556,0-8.262,3.707-8.262,8.262v52.172c0,4.557,3.707,8.263,8.262,8.263h89.671c4.556,0,8.262-3.706,8.262-8.263V32.269
			c0-4.556-3.707-8.262-8.262-8.262H9.987z"/>
		<polyline style="&st22;" points="86.05,12.736 84.818,10.858 81.128,10.858 79.691,12.736 		"/>
	</g>
	<path style="&st16;" d="M109.861,87.487c0,5.014-4.065,9.079-9.08,9.079H9.078C4.065,96.566,0,92.502,0,87.487V34.132
		c0-5.015,4.065-9.08,9.078-9.08h91.705c5.014,0,9.078,4.065,9.078,9.08V87.487L109.861,87.487z"/>
	<g>
		<path style="&st21;" d="M108.535,84.441c0,4.904-3.975,8.878-8.877,8.878H9.987c-4.903,0-8.877-3.976-8.877-8.878V32.269
			c0-4.903,3.974-8.878,8.877-8.878h89.671c4.902,0,8.877,3.975,8.877,8.878V84.441L108.535,84.441z"/>
	</g>
	
		<linearGradient id="SVGID_13_" gradientUnits="userSpaceOnUse" x1="9.1509" y1="1117.1055" x2="24.6242" y2="1094.7244" gradientTransform="matrix(1 0 0 -1 78 1142)">
		<stop  offset="0" style="stop-color:#0E3B57"/>
		<stop  offset="0.095" style="stop-color:#123F5A"/>
		<stop  offset="0.1821" style="stop-color:#1D4A64"/>
		<stop  offset="0.2662" style="stop-color:#2F5C75"/>
		<stop  offset="0.3484" style="stop-color:#49778C"/>
		<stop  offset="0.429" style="stop-color:#6B98AA"/>
		<stop  offset="0.5078" style="stop-color:#93C1CE"/>
		<stop  offset="0.5095" style="stop-color:#94C2CF"/>
		<stop  offset="0.5258" style="stop-color:#80AEBE"/>
		<stop  offset="0.5578" style="stop-color:#608EA1"/>
		<stop  offset="0.5938" style="stop-color:#447289"/>
		<stop  offset="0.634" style="stop-color:#2E5B75"/>
		<stop  offset="0.6803" style="stop-color:#1C4966"/>
		<stop  offset="0.7365" style="stop-color:#103D5B"/>
		<stop  offset="0.8129" style="stop-color:#093655"/>
		<stop  offset="1" style="stop-color:#073453"/>
	</linearGradient>
	<path style="&st5;" d="M99.747,22.777h-17.58v22.328h26.917V32.113C109.084,26.956,104.9,22.777,99.747,22.777z"/>
	
		<linearGradient id="SVGID_14_" gradientUnits="userSpaceOnUse" x1="365.0293" y1="1102.0908" x2="380.5024" y2="1079.7101" gradientTransform="matrix(-4.371139e-008 -1 -1 4.371139e-008 1104.5151 409.7388)">
		<stop  offset="0" style="stop-color:#0E3B57"/>
		<stop  offset="0.095" style="stop-color:#123F5A"/>
		<stop  offset="0.1821" style="stop-color:#1D4A64"/>
		<stop  offset="0.2662" style="stop-color:#2F5C75"/>
		<stop  offset="0.3484" style="stop-color:#49778C"/>
		<stop  offset="0.429" style="stop-color:#6B98AA"/>
		<stop  offset="0.5078" style="stop-color:#93C1CE"/>
		<stop  offset="0.5095" style="stop-color:#94C2CF"/>
		<stop  offset="0.5608" style="stop-color:#7BA8B8"/>
		<stop  offset="0.6618" style="stop-color:#4E7C91"/>
		<stop  offset="0.759" style="stop-color:#2B5972"/>
		<stop  offset="0.8503" style="stop-color:#12405B"/>
		<stop  offset="0.9331" style="stop-color:#03304E"/>
		<stop  offset="1" style="stop-color:#002B49"/>
	</linearGradient>
	<path style="&st0;" d="M0.306,32.114v17.58h22.329V22.777H9.644C4.486,22.777,0.306,26.958,0.306,32.114z"/>
	
		<linearGradient id="SVGID_15_" gradientUnits="userSpaceOnUse" x1="277.4512" y1="664.9639" x2="292.924" y2="642.5835" gradientTransform="matrix(-1 0 0 1 299.9336 -573.1943)">
		<stop  offset="0" style="stop-color:#123F5B"/>
		<stop  offset="0.0963" style="stop-color:#16435E"/>
		<stop  offset="0.1847" style="stop-color:#214E68"/>
		<stop  offset="0.27" style="stop-color:#336079"/>
		<stop  offset="0.3533" style="stop-color:#4D7B90"/>
		<stop  offset="0.4345" style="stop-color:#6E9CAD"/>
		<stop  offset="0.5095" style="stop-color:#94C2CF"/>
		<stop  offset="0.55" style="stop-color:#81AEBE"/>
		<stop  offset="0.6535" style="stop-color:#548296"/>
		<stop  offset="0.7532" style="stop-color:#315F77"/>
		<stop  offset="0.8466" style="stop-color:#184661"/>
		<stop  offset="0.9315" style="stop-color:#093654"/>
		<stop  offset="1" style="stop-color:#04314F"/>
	</linearGradient>
	<path style="&st14;" d="M9.888,93.887h17.58V71.559H0.551V84.55C0.551,89.707,4.732,93.887,9.888,93.887z"/>
	
		<linearGradient id="SVGID_16_" gradientUnits="userSpaceOnUse" x1="-251.0581" y1="664.9648" x2="-235.5848" y2="642.5837" gradientTransform="matrix(1 0 0 1 338.209 -573.1943)">
		<stop  offset="0" style="stop-color:#0E3B57"/>
		<stop  offset="0.095" style="stop-color:#123F5A"/>
		<stop  offset="0.1821" style="stop-color:#1D4A64"/>
		<stop  offset="0.2662" style="stop-color:#2F5C75"/>
		<stop  offset="0.3484" style="stop-color:#49778C"/>
		<stop  offset="0.429" style="stop-color:#6B98AA"/>
		<stop  offset="0.5078" style="stop-color:#93C1CE"/>
		<stop  offset="0.5095" style="stop-color:#94C2CF"/>
		<stop  offset="0.5608" style="stop-color:#7BA8B8"/>
		<stop  offset="0.6618" style="stop-color:#4E7C91"/>
		<stop  offset="0.759" style="stop-color:#2B5972"/>
		<stop  offset="0.8503" style="stop-color:#12405B"/>
		<stop  offset="0.9331" style="stop-color:#03304E"/>
		<stop  offset="1" style="stop-color:#002B49"/>
	</linearGradient>
	<path style="&st4;" d="M99.747,93.887h-17.58V71.559h26.917V84.55C109.084,89.707,104.9,93.887,99.747,93.887z"/>
	
		<linearGradient id="SVGID_17_" gradientUnits="userSpaceOnUse" x1="-39.6592" y1="1117.6582" x2="-13.5016" y2="1058.0913" gradientTransform="matrix(1 0 0 -1 78 1142)">
		<stop  offset="0" style="stop-color:#0D4D65"/>
		<stop  offset="0.2069" style="stop-color:#0B4860"/>
		<stop  offset="0.4472" style="stop-color:#073A53"/>
		<stop  offset="0.7032" style="stop-color:#00233D"/>
		<stop  offset="0.801" style="stop-color:#001832"/>
	</linearGradient>
	<path style="&st20;" d="M99.279,81.874c0,4.138-3.354,7.495-7.493,7.495H16.082c-4.138,0-7.494-3.355-7.494-7.495V37.828
		c0-4.139,3.355-7.494,7.494-7.494h75.704c4.139,0,7.493,3.355,7.493,7.494V81.874z"/>
	<path style="&st17;" d="M97.584,81.05c0,3.984-3.23,7.214-7.214,7.214H17.5c-3.984,0-7.214-3.229-7.214-7.214V38.653
		c0-3.985,3.229-7.215,7.214-7.215h72.87c3.983,0,7.214,3.23,7.214,7.215V81.05z"/>
	<path style="&st18;" d="M99.658,93.936H9.987c-5.235,0-9.493-4.258-9.493-9.494V32.269c0-5.234,4.258-9.493,9.493-9.493h89.671
		c5.234,0,9.492,4.258,9.492,9.493v52.172C109.15,89.678,104.893,93.936,99.658,93.936z M9.987,24.007
		c-4.556,0-8.262,3.707-8.262,8.262v52.172c0,4.557,3.707,8.263,8.262,8.263h89.671c4.556,0,8.262-3.706,8.262-8.263V32.269
		c0-4.556-3.707-8.262-8.262-8.262H9.987z"/>
</g>
</svg>
