<?xml version="1.0" encoding="utf-8"?>
<!-- Generator: Adobe Illustrator 16.0.0, SVG Export Plug-In . SVG Version: 6.00 Build 0)  -->
<!DOCTYPE svg PUBLIC "-//W3C//DTD SVG 1.1//EN" "http://www.w3.org/Graphics/SVG/1.1/DTD/svg11.dtd">
<svg version="1.1"
	 id="background" sodipodi:docname="background3.svg" inkscape:version="0.48.2 r9819" xmlns:sodipodi="http://sodipodi.sourceforge.net/DTD/sodipodi-0.dtd" xmlns:dc="http://purl.org/dc/elements/1.1/" xmlns:cc="http://creativecommons.org/ns#" xmlns:rdf="http://www.w3.org/1999/02/22-rdf-syntax-ns#" xmlns:inkscape="http://www.inkscape.org/namespaces/inkscape" xmlns:svg="http://www.w3.org/2000/svg"
	 xmlns="http://www.w3.org/2000/svg" xmlns:xlink="http://www.w3.org/1999/xlink" x="0px" y="0px" width="1024px" height="768px"
	 viewBox="0 0 1024 768" enable-background="new 0 0 1024 768" xml:space="preserve">
<sodipodi:namedview  id="namedview179" inkscape:window-maximized="1" inkscape:window-y="0" inkscape:pageshadow="2" inkscape:window-x="0" inkscape:window-height="720" inkscape:current-layer="layer1" inkscape:guide-bbox="true" inkscape:window-width="1366" inkscape:pageopacity="0" gridtolerance="10" bordercolor="#666666" objecttolerance="10" inkscape:zoom="0.72395833" inkscape:cy="384" showguides="true" inkscape:cx="512" showgrid="false" guidetolerance="10" borderopacity="1" pagecolor="#ffffff">
	</sodipodi:namedview>
<g id="layer1" inkscape:groupmode="layer" inkscape:label="Background">
	<rect id="rect21" x="-0.001" fill="#ACA943" width="1024.001" height="61.585"/>
	<rect id="rect23" x="-0.001" fill="#AC8B37" width="21.704" height="63.737"/>
	<rect id="rect25" x="31.321" fill="#AC8B37" width="21.704" height="63.737"/>
	<rect id="rect27" x="31.321" fill="#AC8B37" width="21.704" height="63.737"/>
	<rect id="rect29" x="62.643" fill="#AC8B37" width="21.704" height="63.737"/>
	<rect id="rect31" x="62.643" fill="#AC8B37" width="21.704" height="63.737"/>
	<rect id="rect33" x="93.964" fill="#AC8B37" width="21.704" height="63.737"/>
	<rect id="rect35" x="93.964" fill="#AC8B37" width="21.704" height="63.737"/>
	<rect id="rect37" x="125.286" fill="#AC8B37" width="21.704" height="63.737"/>
	<rect id="rect39" x="125.286" fill="#AC8B37" width="21.704" height="63.737"/>
	<rect id="rect41" x="156.608" fill="#AC8B37" width="21.704" height="63.737"/>
	<rect id="rect43" x="156.608" fill="#AC8B37" width="21.704" height="63.737"/>
	<rect id="rect45" x="187.93" fill="#AC8B37" width="21.704" height="63.737"/>
	<rect id="rect47" x="187.93" fill="#AC8B37" width="21.704" height="63.737"/>
	<rect id="rect49" x="219.251" fill="#AC8B37" width="21.704" height="63.737"/>
	<rect id="rect51" x="219.251" fill="#AC8B37" width="21.704" height="63.737"/>
	<rect id="rect53" x="250.573" fill="#AC8B37" width="21.704" height="63.737"/>
	<rect id="rect55" x="250.573" fill="#AC8B37" width="21.704" height="63.737"/>
	<rect id="rect57" x="281.895" fill="#AC8B37" width="21.704" height="63.737"/>
	<rect id="rect59" x="281.895" fill="#AC8B37" width="21.704" height="63.737"/>
	<rect id="rect61" x="313.217" fill="#AC8B37" width="21.704" height="63.737"/>
	<rect id="rect63" x="313.217" fill="#AC8B37" width="21.704" height="63.737"/>
	<rect id="rect65" x="344.539" fill="#AC8B37" width="21.704" height="63.737"/>
	<rect id="rect67" x="344.539" fill="#AC8B37" width="21.704" height="63.737"/>
	<rect id="rect69" x="375.86" fill="#AC8B37" width="21.705" height="63.737"/>
	<rect id="rect71" x="375.86" fill="#AC8B37" width="21.705" height="63.737"/>
	<rect id="rect73" x="407.182" fill="#AC8B37" width="21.704" height="63.737"/>
	<rect id="rect75" x="407.182" fill="#AC8B37" width="21.704" height="63.737"/>
	<rect id="rect77" x="438.504" fill="#AC8B37" width="21.704" height="63.737"/>
	<rect id="rect79" x="438.504" fill="#AC8B37" width="21.704" height="63.737"/>
	<rect id="rect81" x="469.826" fill="#AC8B37" width="21.704" height="63.737"/>
	<rect id="rect83" x="469.826" fill="#AC8B37" width="21.704" height="63.737"/>
	<rect id="rect85" x="501.147" fill="#AC8B37" width="21.703" height="63.737"/>
	<rect id="rect87" x="501.147" fill="#AC8B37" width="21.703" height="63.737"/>
	<rect id="rect89" x="532.469" fill="#AC8B37" width="21.705" height="63.737"/>
	<rect id="rect91" x="532.469" fill="#AC8B37" width="21.705" height="63.737"/>
	<rect id="rect93" x="563.791" fill="#AC8B37" width="21.704" height="63.737"/>
	<rect id="rect95" x="563.791" fill="#AC8B37" width="21.704" height="63.737"/>
	<rect id="rect97" x="595.112" fill="#AC8B37" width="21.705" height="63.737"/>
	<rect id="rect99" x="595.112" fill="#AC8B37" width="21.705" height="63.737"/>
	<rect id="rect101" x="626.435" fill="#AC8B37" width="21.704" height="63.737"/>
	<rect id="rect103" x="626.435" fill="#AC8B37" width="21.704" height="63.737"/>
	<rect id="rect105" x="657.756" fill="#AC8B37" width="21.705" height="63.737"/>
	<rect id="rect107" x="657.756" fill="#AC8B37" width="21.705" height="63.737"/>
	<rect id="rect109" x="689.078" fill="#AC8B37" width="21.704" height="63.737"/>
	<rect id="rect111" x="689.078" fill="#AC8B37" width="21.704" height="63.737"/>
	<rect id="rect113" x="720.399" fill="#AC8B37" width="21.704" height="63.737"/>
	<rect id="rect115" x="720.399" fill="#AC8B37" width="21.704" height="63.737"/>
	<rect id="rect117" x="751.722" fill="#AC8B37" width="21.704" height="63.737"/>
	<rect id="rect119" x="751.722" fill="#AC8B37" width="21.704" height="63.737"/>
	<rect id="rect121" x="783.043" fill="#AC8B37" width="21.705" height="63.737"/>
	<rect id="rect123" x="783.043" fill="#AC8B37" width="21.705" height="63.737"/>
	<rect id="rect125" x="814.365" fill="#AC8B37" width="21.704" height="63.737"/>
	<rect id="rect127" x="814.365" fill="#AC8B37" width="21.704" height="63.737"/>
	<rect id="rect129" x="845.688" fill="#AC8B37" width="21.704" height="63.737"/>
	<rect id="rect131" x="845.688" fill="#AC8B37" width="21.704" height="63.737"/>
	<rect id="rect133" x="877.009" fill="#AC8B37" width="21.704" height="63.737"/>
	<rect id="rect135" x="877.009" fill="#AC8B37" width="21.704" height="63.737"/>
	<rect id="rect137" x="908.33" fill="#AC8B37" width="21.705" height="63.737"/>
	<rect id="rect139" x="908.33" fill="#AC8B37" width="21.705" height="63.737"/>
	<rect id="rect141" x="939.652" fill="#AC8B37" width="21.703" height="63.737"/>
	<rect id="rect143" x="939.652" fill="#AC8B37" width="21.703" height="63.737"/>
	<rect id="rect145" x="970.974" fill="#AC8B37" width="21.704" height="63.737"/>
	<rect id="rect147" x="970.974" fill="#AC8B37" width="21.704" height="63.737"/>
	<rect id="rect149" x="1002.296" fill="#AC8B37" width="21.704" height="63.737"/>
	<path id="rect3485" opacity="0.25" enable-background="new    " d="M7.979,0.79h1011.305c3.865,0,7,2.528,7,5.647v51.851
		c0,3.119-3.135,5.647-7,5.647H7.979c-3.866,0-7-2.529-7-5.647V6.437C0.979,3.318,4.112,0.79,7.979,0.79z"/>
	
		<polygon id="TitleBar" inkscape:export-ydpi="90" inkscape:export-xdpi="90" inkscape:export-filename="/Users/jhc/dev/bointerpp/Resources/LevelScene/TitleBar.png" inkscape:label="#polygon1017-2" opacity="0.6" fill="#6F003E" enable-background="new    " points="
		1024,64.258 1024,0.467 1006.652,0 17.351,0 0,0.467 0,64.258 17.351,64.725 1006.652,64.725 	">
	</polygon>
</g>
<g>
	<rect x="-0.001" y="64.742" fill="#E0FFFF" width="767.893" height="703.976"/>
	<linearGradient id="SVGID_1_" gradientUnits="userSpaceOnUse" x1="383.7642" y1="64.7251" x2="383.7641" y2="768.7183">
		<stop  offset="0" style="stop-color:#F0D2E1"/>
		<stop  offset="0.2675" style="stop-color:#B6A4A6"/>
		<stop  offset="0.6191" style="stop-color:#706D5F"/>
		<stop  offset="0.8724" style="stop-color:#444A32"/>
		<stop  offset="1" style="stop-color:#333D21"/>
	</linearGradient>
	<rect x="-0.001" y="64.725" opacity="0.6" fill="url(#SVGID_1_)" width="767.53" height="703.993"/>
	<line opacity="0.2" fill="none" stroke="#000000" stroke-miterlimit="10" x1="410.358" y1="66.89" x2="450.585" y2="770.002"/>
	<line opacity="0.2" fill="none" stroke="#000000" stroke-miterlimit="10" x1="454.92" y1="69.504" x2="549.49" y2="767.388"/>
	<line opacity="0.2" fill="none" stroke="#000000" stroke-miterlimit="10" x1="519.954" y1="66.89" x2="627.55" y2="770.002"/>
	<line opacity="0.2" fill="none" stroke="#000000" stroke-miterlimit="10" x1="605.113" y1="69.504" x2="699.684" y2="767.388"/>
	<line opacity="0.2" fill="none" stroke="#000000" stroke-miterlimit="10" x1="677.45" y1="69.504" x2="766.358" y2="725.602"/>
	<line opacity="0.2" fill="none" stroke="#000000" stroke-miterlimit="10" x1="713.576" y1="69.504" x2="767.892" y2="480.082"/>
	<g opacity="0.2">
		<line fill="none" stroke="#000000" stroke-miterlimit="10" x1="366.743" y1="66.89" x2="326.517" y2="770.002"/>
		<line fill="none" stroke="#000000" stroke-miterlimit="10" x1="322.182" y1="69.504" x2="227.611" y2="767.388"/>
		<line fill="none" stroke="#000000" stroke-miterlimit="10" x1="250.347" y1="69.504" x2="155.776" y2="767.388"/>
		<line fill="none" stroke="#000000" stroke-miterlimit="10" x1="171.988" y1="69.504" x2="77.418" y2="767.388"/>
		<line fill="none" stroke="#000000" stroke-miterlimit="10" x1="99.651" y1="69.504" x2="5.081" y2="767.388"/>
		<line fill="none" stroke="#000000" stroke-miterlimit="10" x1="63.525" y1="69.504" x2="1" y2="547.896"/>
	</g>
	<line opacity="0.2" fill="none" stroke="#000000" stroke-miterlimit="10" x1="755.394" y1="385.604" x2="720.165" y2="385.604"/>
	<polyline opacity="0.2" fill="none" stroke="#000000" stroke-miterlimit="10" points="429.29,393.604 489.825,393.604 
		497.599,387.039 	"/>
	<line opacity="0.2" fill="none" stroke="#000000" stroke-miterlimit="10" x1="568.769" y1="387.039" x2="497.233" y2="387.039"/>
	<line opacity="0.2" fill="none" stroke="#000000" stroke-miterlimit="10" x1="667.129" y1="525.55" x2="591.148" y2="525.55"/>
	<line opacity="0.2" fill="none" stroke="#000000" stroke-miterlimit="10" x1="652.398" y1="421.217" x2="574.176" y2="421.217"/>
	<line opacity="0.2" fill="none" stroke="#000000" stroke-miterlimit="10" x1="278.263" y1="393.604" x2="206.723" y2="393.604"/>
	<line opacity="0.2" fill="none" stroke="#000000" stroke-miterlimit="10" x1="433.279" y1="471.014" x2="268.325" y2="471.014"/>
	<line opacity="0.2" fill="none" stroke="#000000" stroke-miterlimit="10" x1="22.13" y1="393.604" x2="1" y2="393.604"/>
	<polyline opacity="0.2" fill="none" stroke="#000000" stroke-miterlimit="10" points="257.151,393.604 252.249,431.468 
		269.483,458.392 	"/>
	<polyline opacity="0.2" fill="none" stroke="#000000" stroke-miterlimit="10" points="111.138,518.55 142.714,563.947 
		127.88,676.551 84.093,708.382 	"/>
	<ellipse opacity="0.2" fill="none" stroke="#000000" stroke-miterlimit="10" cx="67.795" cy="415.873" rx="11.612" ry="5.344"/>
	<ellipse opacity="0.2" fill="none" stroke="#000000" stroke-miterlimit="10" cx="67.795" cy="415.873" rx="8.606" ry="3.96"/>
	<ellipse opacity="0.2" fill="none" stroke="#000000" stroke-miterlimit="10" cx="72.873" cy="387.039" rx="9.531" ry="4.386"/>
	<ellipse opacity="0.2" fill="none" stroke="#000000" stroke-miterlimit="10" cx="72.873" cy="387.039" rx="7.063" ry="3.25"/>
	<ellipse opacity="0.2" fill="none" stroke="#000000" stroke-miterlimit="10" cx="705.816" cy="466.717" rx="12.992" ry="5.979"/>
	<ellipse opacity="0.2" fill="none" stroke="#000000" stroke-miterlimit="10" cx="705.816" cy="466.717" rx="9.628" ry="4.431"/>
	<ellipse opacity="0.2" fill="none" stroke="#000000" stroke-miterlimit="10" cx="497.599" cy="553.88" rx="14.616" ry="6.726"/>
	<ellipse opacity="0.2" fill="none" stroke="#000000" stroke-miterlimit="10" cx="497.599" cy="553.88" rx="10.832" ry="4.984"/>
	<polyline opacity="0.2" fill="none" stroke="#000000" stroke-miterlimit="10" points="652.398,421.217 676.294,440.418 
		690.329,533.821 671.364,553.88 	"/>
	<line opacity="0.2" fill="none" stroke="#000000" stroke-miterlimit="10" x1="682.493" y1="481.57" x2="733.326" y2="481.57"/>
	<line opacity="0.2" fill="none" stroke="#000000" stroke-miterlimit="10" x1="684.376" y1="494.204" x2="735.359" y2="494.204"/>
	<line opacity="0.2" fill="none" stroke="#000000" stroke-miterlimit="10" x1="744.499" y1="385.604" x2="754.548" y2="379.212"/>
	<polyline opacity="0.2" fill="none" stroke="#000000" stroke-miterlimit="10" points="120.249,448.188 130.808,435.058 
		199.455,435.058 	"/>
	<polyline opacity="0.2" fill="none" stroke="#000000" stroke-miterlimit="10" points="117.773,469.589 44.987,469.589 
		6.989,507.587 	"/>
	<polygon opacity="0.2" fill="none" stroke="#000000" stroke-miterlimit="10" points="193.583,484.874 152.338,484.874 
		149.999,496.843 192.639,496.843 	"/>
	<polyline opacity="0.2" fill="none" stroke="#000000" stroke-miterlimit="10" points="164.55,702.644 236.426,702.644 
		332.434,666.578 	"/>
	<line opacity="0.2" fill="none" stroke="#000000" stroke-miterlimit="10" x1="450.134" y1="762.131" x2="549.759" y2="762.131"/>
	<line opacity="0.2" fill="none" stroke="#000000" stroke-miterlimit="10" x1="617.1" y1="702.644" x2="690.329" y2="702.644"/>
	<line opacity="0.2" fill="none" stroke="#000000" stroke-miterlimit="10" x1="246.513" y1="630.297" x2="334.502" y2="630.297"/>
</g>
</svg>
