<?xml version="1.0" encoding="UTF-8" standalone="no"?>
<svg xmlns:dc="http://purl.org/dc/elements/1.1/" xmlns:cc="http://creativecommons.org/ns#" xmlns:rdf="http://www.w3.org/1999/02/22-rdf-syntax-ns#" xmlns:svg="http://www.w3.org/2000/svg" xmlns="http://www.w3.org/2000/svg" xml:space="preserve" enable-background="new 0 0 1024 768" viewBox="0 0 768.38873 770.07764" height="770.07764" width="768.38873" y="0px" x="0px" id="background" version="1.1">
	<metadata id="metadata176">
		<rdf:RDF>
			<cc:Work rdf:about="">
				<dc:format>image/svg+xml</dc:format>
				<dc:type rdf:resource="http://purl.org/dc/dcmitype/StillImage"/>
				<dc:title/>
			</cc:Work>
		</rdf:RDF>
	</metadata>
	<defs id="defs174"/>
	<g transform="translate(0.001,0)" id="layer1">
		<g transform="matrix(0.74786365,0,0,1,-2.5213636e-4,0)" id="g3504">
			<rect style="fill:#aca943" y="0" id="rect21" x="-0.001" width="1024.001" height="61.584999"/>
			<rect style="fill:#ac8b37" y="0" id="rect23" x="-0.001" width="21.704" height="63.737"/>
			<rect style="fill:#ac8b37" y="0" id="rect25" x="31.320999" width="21.704" height="63.737"/>
			<rect style="fill:#ac8b37" y="0" id="rect27" x="31.320999" width="21.704" height="63.737"/>
			<rect style="fill:#ac8b37" y="0" id="rect29" x="62.643002" width="21.704" height="63.737"/>
			<rect style="fill:#ac8b37" y="0" id="rect31" x="62.643002" width="21.704" height="63.737"/>
			<rect style="fill:#ac8b37" y="0" id="rect33" x="93.963997" width="21.704" height="63.737"/>
			<rect style="fill:#ac8b37" y="0" id="rect35" x="93.963997" width="21.704" height="63.737"/>
			<rect style="fill:#ac8b37" y="0" id="rect37" x="125.286" width="21.704" height="63.737"/>
			<rect style="fill:#ac8b37" y="0" id="rect39" x="125.286" width="21.704" height="63.737"/>
			<rect style="fill:#ac8b37" y="0" id="rect41" x="156.608" width="21.704" height="63.737"/>
			<rect style="fill:#ac8b37" y="0" id="rect43" x="156.608" width="21.704" height="63.737"/>
			<rect style="fill:#ac8b37" y="0" id="rect45" x="187.92999" width="21.704" height="63.737"/>
			<rect style="fill:#ac8b37" y="0" id="rect47" x="187.92999" width="21.704" height="63.737"/>
			<rect style="fill:#ac8b37" y="0" id="rect49" x="219.25101" width="21.704" height="63.737"/>
			<rect style="fill:#ac8b37" y="0" id="rect51" x="219.25101" width="21.704" height="63.737"/>
			<rect style="fill:#ac8b37" y="0" id="rect53" x="250.573" width="21.704" height="63.737"/>
			<rect style="fill:#ac8b37" y="0" id="rect55" x="250.573" width="21.704" height="63.737"/>
			<rect style="fill:#ac8b37" y="0" id="rect57" x="281.89499" width="21.704" height="63.737"/>
			<rect style="fill:#ac8b37" y="0" id="rect59" x="281.89499" width="21.704" height="63.737"/>
			<rect style="fill:#ac8b37" y="0" id="rect61" x="313.21701" width="21.704" height="63.737"/>
			<rect style="fill:#ac8b37" y="0" id="rect63" x="313.21701" width="21.704" height="63.737"/>
			<rect style="fill:#ac8b37" y="0" id="rect65" x="344.539" width="21.704" height="63.737"/>
			<rect style="fill:#ac8b37" y="0" id="rect67" x="344.539" width="21.704" height="63.737"/>
			<rect style="fill:#ac8b37" y="0" id="rect69" x="375.85999" width="21.705" height="63.737"/>
			<rect style="fill:#ac8b37" y="0" id="rect71" x="375.85999" width="21.705" height="63.737"/>
			<rect style="fill:#ac8b37" y="0" id="rect73" x="407.18201" width="21.704" height="63.737"/>
			<rect style="fill:#ac8b37" y="0" id="rect75" x="407.18201" width="21.704" height="63.737"/>
			<rect style="fill:#ac8b37" y="0" id="rect77" x="438.504" width="21.704" height="63.737"/>
			<rect style="fill:#ac8b37" y="0" id="rect79" x="438.504" width="21.704" height="63.737"/>
			<rect style="fill:#ac8b37" y="0" id="rect81" x="469.82599" width="21.704" height="63.737"/>
			<rect style="fill:#ac8b37" y="0" id="rect83" x="469.82599" width="21.704" height="63.737"/>
			<rect style="fill:#ac8b37" y="0" id="rect85" x="501.147" width="21.702999" height="63.737"/>
			<rect style="fill:#ac8b37" y="0" id="rect87" x="501.147" width="21.702999" height="63.737"/>
			<rect style="fill:#ac8b37" y="0" id="rect89" x="532.46899" width="21.705" height="63.737"/>
			<rect style="fill:#ac8b37" y="0" id="rect91" x="532.46899" width="21.705" height="63.737"/>
			<rect style="fill:#ac8b37" y="0" id="rect93" x="563.79102" width="21.704" height="63.737"/>
			<rect style="fill:#ac8b37" y="0" id="rect95" x="563.79102" width="21.704" height="63.737"/>
			<rect style="fill:#ac8b37" y="0" id="rect97" x="595.112" width="21.705" height="63.737"/>
			<rect style="fill:#ac8b37" y="0" id="rect99" x="595.112" width="21.705" height="63.737"/>
			<rect style="fill:#ac8b37" y="0" id="rect101" x="626.435" width="21.704" height="63.737"/>
			<rect style="fill:#ac8b37" y="0" id="rect103" x="626.435" width="21.704" height="63.737"/>
			<rect style="fill:#ac8b37" y="0" id="rect105" x="657.75598" width="21.705" height="63.737"/>
			<rect style="fill:#ac8b37" y="0" id="rect107" x="657.75598" width="21.705" height="63.737"/>
			<rect style="fill:#ac8b37" y="0" id="rect109" x="689.078" width="21.704" height="63.737"/>
			<rect style="fill:#ac8b37" y="0" id="rect111" x="689.078" width="21.704" height="63.737"/>
			<rect style="fill:#ac8b37" y="0" id="rect113" x="720.39899" width="21.704" height="63.737"/>
			<rect style="fill:#ac8b37" y="0" id="rect115" x="720.39899" width="21.704" height="63.737"/>
			<rect style="fill:#ac8b37" y="0" id="rect117" x="751.72198" width="21.704" height="63.737"/>
			<rect style="fill:#ac8b37" y="0" id="rect119" x="751.72198" width="21.704" height="63.737"/>
			<rect style="fill:#ac8b37" y="0" id="rect121" x="783.04303" width="21.705" height="63.737"/>
			<rect style="fill:#ac8b37" y="0" id="rect123" x="783.04303" width="21.705" height="63.737"/>
			<rect style="fill:#ac8b37" y="0" id="rect125" x="814.36499" width="21.704" height="63.737"/>
			<rect style="fill:#ac8b37" y="0" id="rect127" x="814.36499" width="21.704" height="63.737"/>
			<rect style="fill:#ac8b37" y="0" id="rect129" x="845.68799" width="21.704" height="63.737"/>
			<rect style="fill:#ac8b37" y="0" id="rect131" x="845.68799" width="21.704" height="63.737"/>
			<rect style="fill:#ac8b37" y="0" id="rect133" x="877.00897" width="21.704" height="63.737"/>
			<rect style="fill:#ac8b37" y="0" id="rect135" x="877.00897" width="21.704" height="63.737"/>
			<rect style="fill:#ac8b37" y="0" id="rect137" x="908.33002" width="21.705" height="63.737"/>
			<rect style="fill:#ac8b37" y="0" id="rect139" x="908.33002" width="21.705" height="63.737"/>
			<rect style="fill:#ac8b37" y="0" id="rect141" x="939.65198" width="21.702999" height="63.737"/>
			<rect style="fill:#ac8b37" y="0" id="rect143" x="939.65198" width="21.702999" height="63.737"/>
			<rect style="fill:#ac8b37" y="0" id="rect145" x="970.974" width="21.704" height="63.737"/>
			<rect style="fill:#ac8b37" y="0" id="rect147" x="970.974" width="21.704" height="63.737"/>
			<rect style="fill:#ac8b37" y="0" id="rect149" x="1002.296" width="21.704" height="63.737"/>
			<path style="opacity:0.25" id="rect3485" enable-background="new    " d="m 7.979,0.79 1011.305,0 c 3.865,0 7,2.528 7,5.647 l 0,51.851 c 0,3.119 -3.135,5.647 -7,5.647 l -1011.305,0 c -3.866,0 -7,-2.529 -7,-5.647 l 0,-51.851 c 0,-3.119 3.133,-5.647 7,-5.647 z"/>
			<polygon style="opacity:0.6;fill:#6f003e" id="TitleBar" enable-background="new    " points="17.351,64.725 1006.652,64.725 1024,64.258 1024,0.467 1006.652,0 17.351,0 0,0.467 0,64.258 "/>
		</g>
	</g>
	<g transform="translate(0.001,0)" id="g72">
		<rect style="fill:#e0ffff" id="rect74" height="703.97601" width="767.89301" y="64.741997" x="-0.001"/>
		<linearGradient y2="768.71832" x2="383.7641" y1="64.725098" x1="383.76419" gradientUnits="userSpaceOnUse" id="SVGID_1_">
			<stop id="stop77" style="stop-color:#F0D2E1" offset="0"/>
			<stop id="stop79" style="stop-color:#B6A4A6" offset="0.2675"/>
			<stop id="stop81" style="stop-color:#706D5F" offset="0.6191"/>
			<stop id="stop83" style="stop-color:#444A32" offset="0.8724"/>
			<stop id="stop85" style="stop-color:#333D21" offset="1"/>
		</linearGradient>
		<rect style="opacity:0.6;fill:url(#SVGID_1_)" id="rect88" height="703.99298" width="767.53003" y="64.724998" x="-0.001"/>
		<line style="opacity:0.2;fill:none;stroke:#000000;stroke-miterlimit:10" id="line90" y2="770.00201" x2="450.58499" y1="66.889999" x1="410.358" stroke-miterlimit="10"/>
		<line style="opacity:0.2;fill:none;stroke:#000000;stroke-miterlimit:10" id="line92" y2="767.388" x2="549.48999" y1="69.503998" x1="454.92001" stroke-miterlimit="10"/>
		<line style="opacity:0.2;fill:none;stroke:#000000;stroke-miterlimit:10" id="line94" y2="770.00201" x2="627.54999" y1="66.889999" x1="519.95398" stroke-miterlimit="10"/>
		<line style="opacity:0.2;fill:none;stroke:#000000;stroke-miterlimit:10" id="line96" y2="767.388" x2="699.68402" y1="69.503998" x1="605.11298" stroke-miterlimit="10"/>
		<line style="opacity:0.2;fill:none;stroke:#000000;stroke-miterlimit:10" id="line98" y2="725.60199" x2="766.35797" y1="69.503998" x1="677.45001" stroke-miterlimit="10"/>
		<line style="opacity:0.2;fill:none;stroke:#000000;stroke-miterlimit:10" id="line100" y2="480.082" x2="767.89203" y1="69.503998" x1="713.57599" stroke-miterlimit="10"/>
		<g style="opacity:0.2" id="g102">
			<line style="fill:none;stroke:#000000;stroke-miterlimit:10" id="line104" y2="770.00201" x2="326.517" y1="66.889999" x1="366.74301" stroke-miterlimit="10"/>
			<line style="fill:none;stroke:#000000;stroke-miterlimit:10" id="line106" y2="767.388" x2="227.61099" y1="69.503998" x1="322.18201" stroke-miterlimit="10"/>
			<line style="fill:none;stroke:#000000;stroke-miterlimit:10" id="line108" y2="767.388" x2="155.776" y1="69.503998" x1="250.347" stroke-miterlimit="10"/>
			<line style="fill:none;stroke:#000000;stroke-miterlimit:10" id="line110" y2="767.388" x2="77.417999" y1="69.503998" x1="171.98801" stroke-miterlimit="10"/>
			<line style="fill:none;stroke:#000000;stroke-miterlimit:10" id="line112" y2="767.388" x2="5.0809999" y1="69.503998" x1="99.651001" stroke-miterlimit="10"/>
			<line style="fill:none;stroke:#000000;stroke-miterlimit:10" id="line114" y2="547.896" x2="1" y1="69.503998" x1="63.525002" stroke-miterlimit="10"/>
		</g>
		<line style="opacity:0.2;fill:none;stroke:#000000;stroke-miterlimit:10" id="line116" y2="385.604" x2="720.16498" y1="385.604" x1="755.39398" stroke-miterlimit="10"/>
		<polyline style="opacity:0.2;fill:none;stroke:#000000;stroke-miterlimit:10" id="polyline118" points="429.29,393.604 489.825,393.604    497.599,387.039  " stroke-miterlimit="10"/>
		<line style="opacity:0.2;fill:none;stroke:#000000;stroke-miterlimit:10" id="line120" y2="387.039" x2="497.233" y1="387.039" x1="568.76898" stroke-miterlimit="10"/>
		<line style="opacity:0.2;fill:none;stroke:#000000;stroke-miterlimit:10" id="line122" y2="525.54999" x2="591.14801" y1="525.54999" x1="667.12903" stroke-miterlimit="10"/>
		<line style="opacity:0.2;fill:none;stroke:#000000;stroke-miterlimit:10" id="line124" y2="421.21701" x2="574.17603" y1="421.21701" x1="652.39801" stroke-miterlimit="10"/>
		<line style="opacity:0.2;fill:none;stroke:#000000;stroke-miterlimit:10" id="line126" y2="393.604" x2="206.72301" y1="393.604" x1="278.263" stroke-miterlimit="10"/>
		<line style="opacity:0.2;fill:none;stroke:#000000;stroke-miterlimit:10" id="line128" y2="471.01401" x2="268.32501" y1="471.01401" x1="433.27899" stroke-miterlimit="10"/>
		<line style="opacity:0.2;fill:none;stroke:#000000;stroke-miterlimit:10" id="line130" y2="393.604" x2="1" y1="393.604" x1="22.129999" stroke-miterlimit="10"/>
		<polyline style="opacity:0.2;fill:none;stroke:#000000;stroke-miterlimit:10" id="polyline132" points="257.151,393.604 252.249,431.468    269.483,458.392  " stroke-miterlimit="10"/>
		<polyline style="opacity:0.2;fill:none;stroke:#000000;stroke-miterlimit:10" id="polyline134" points="111.138,518.55 142.714,563.947    127.88,676.551 84.093,708.382  " stroke-miterlimit="10"/>
		<ellipse style="opacity:0.2;fill:none;stroke:#000000;stroke-miterlimit:10" id="ellipse136" ry="5.3439999" rx="11.612" cy="415.87299" cx="67.794998" stroke-miterlimit="10"/>
		<ellipse style="opacity:0.2;fill:none;stroke:#000000;stroke-miterlimit:10" id="ellipse138" ry="3.96" rx="8.6059999" cy="415.87299" cx="67.794998" stroke-miterlimit="10"/>
		<ellipse style="opacity:0.2;fill:none;stroke:#000000;stroke-miterlimit:10" id="ellipse140" ry="4.3860002" rx="9.5310001" cy="387.039" cx="72.873001" stroke-miterlimit="10"/>
		<ellipse style="opacity:0.2;fill:none;stroke:#000000;stroke-miterlimit:10" id="ellipse142" ry="3.25" rx="7.0630002" cy="387.039" cx="72.873001" stroke-miterlimit="10"/>
		<ellipse style="opacity:0.2;fill:none;stroke:#000000;stroke-miterlimit:10" id="ellipse144" ry="5.9790001" rx="12.992" cy="466.71701" cx="705.81598" stroke-miterlimit="10"/>
		<ellipse style="opacity:0.2;fill:none;stroke:#000000;stroke-miterlimit:10" id="ellipse146" ry="4.4310002" rx="9.6280003" cy="466.71701" cx="705.81598" stroke-miterlimit="10"/>
		<ellipse style="opacity:0.2;fill:none;stroke:#000000;stroke-miterlimit:10" id="ellipse148" ry="6.7259998" rx="14.616" cy="553.88" cx="497.599" stroke-miterlimit="10"/>
		<ellipse style="opacity:0.2;fill:none;stroke:#000000;stroke-miterlimit:10" id="ellipse150" ry="4.9840002" rx="10.832" cy="553.88" cx="497.599" stroke-miterlimit="10"/>
		<polyline style="opacity:0.2;fill:none;stroke:#000000;stroke-miterlimit:10" id="polyline152" points="652.398,421.217 676.294,440.418    690.329,533.821 671.364,553.88  " stroke-miterlimit="10"/>
		<line style="opacity:0.2;fill:none;stroke:#000000;stroke-miterlimit:10" id="line154" y2="481.57001" x2="733.32599" y1="481.57001" x1="682.49298" stroke-miterlimit="10"/>
		<line style="opacity:0.2;fill:none;stroke:#000000;stroke-miterlimit:10" id="line156" y2="494.20401" x2="735.35901" y1="494.20401" x1="684.37598" stroke-miterlimit="10"/>
		<line style="opacity:0.2;fill:none;stroke:#000000;stroke-miterlimit:10" id="line158" y2="379.21201" x2="754.54797" y1="385.604" x1="744.49902" stroke-miterlimit="10"/>
		<polyline style="opacity:0.2;fill:none;stroke:#000000;stroke-miterlimit:10" id="polyline160" points="120.249,448.188 130.808,435.058    199.455,435.058  " stroke-miterlimit="10"/>
		<polyline style="opacity:0.2;fill:none;stroke:#000000;stroke-miterlimit:10" id="polyline162" points="117.773,469.589 44.987,469.589    6.989,507.587  " stroke-miterlimit="10"/>
		<polygon style="opacity:0.2;fill:none;stroke:#000000;stroke-miterlimit:10" id="polygon164" points="192.639,496.843 193.583,484.874 152.338,484.874 149.999,496.843 " stroke-miterlimit="10"/>
		<polyline style="opacity:0.2;fill:none;stroke:#000000;stroke-miterlimit:10" id="polyline166" points="164.55,702.644 236.426,702.644    332.434,666.578  " stroke-miterlimit="10"/>
		<line style="opacity:0.2;fill:none;stroke:#000000;stroke-miterlimit:10" id="line168" y2="762.13098" x2="549.75897" y1="762.13098" x1="450.134" stroke-miterlimit="10"/>
		<line style="opacity:0.2;fill:none;stroke:#000000;stroke-miterlimit:10" id="line170" y2="702.64398" x2="690.32898" y1="702.64398" x1="617.09998" stroke-miterlimit="10"/>
		<line style="opacity:0.2;fill:none;stroke:#000000;stroke-miterlimit:10" id="line172" y2="630.297" x2="334.50201" y1="630.297" x1="246.513" stroke-miterlimit="10"/>
	</g>
</svg>
