<?xml version="1.0" encoding="UTF-8" standalone="no"?>
<svg xmlns:dc="http://purl.org/dc/elements/1.1/" xmlns:cc="http://creativecommons.org/ns#" xmlns:rdf="http://www.w3.org/1999/02/22-rdf-syntax-ns#" xmlns:svg="http://www.w3.org/2000/svg" xmlns="http://www.w3.org/2000/svg" xmlns:xlink="http://www.w3.org/1999/xlink" version="1.1" id="svg5763" viewBox="0 0 32.298 32.300001" height="9.115778mm" width="9.1152134mm">
  <defs id="defs5765">
    <radialGradient r="16.365101" cy="117.1543" cx="787.98932" gradientTransform="translate(0,-23)" gradientUnits="userSpaceOnUse" id="radialGradient9504" xlink:href="#SVGID_8_"/>
    <radialGradient id="SVGID_8_" cx="787.98932" cy="117.1543" r="16.365101" gradientTransform="translate(0,-23)" gradientUnits="userSpaceOnUse">
      <stop offset="0" style="stop-color:#E7ECEF" id="stop2801"/>
      <stop offset="1" style="stop-color:#BFC8CD" id="stop2803"/>
    </radialGradient>
    <linearGradient y2="132.1517" x2="795.89929" y1="100.0854" x1="787.53223" gradientTransform="translate(0,-23)" gradientUnits="userSpaceOnUse" id="linearGradient9506" xlink:href="#SVGID_9_"/>
    <linearGradient id="SVGID_9_" gradientUnits="userSpaceOnUse" x1="787.53223" y1="100.0854" x2="795.89929" y2="132.1517" gradientTransform="translate(0,-23)">
      <stop offset="0" style="stop-color:#FFFFFF" id="stop2814"/>
      <stop offset="1" style="stop-color:#B7C6CE" id="stop2816"/>
    </linearGradient>
    <linearGradient y2="111.2264" x2="789.49213" y1="90.222198" x1="783.71881" gradientTransform="translate(0,-23)" gradientUnits="userSpaceOnUse" id="linearGradient9508" xlink:href="#SVGID_10_"/>
    <linearGradient id="SVGID_10_" gradientUnits="userSpaceOnUse" x1="783.71881" y1="90.222198" x2="789.49213" y2="111.2264" gradientTransform="translate(0,-23)">
      <stop offset="0" style="stop-color:#FFFBD4" id="stop2825"/>
      <stop offset="1" style="stop-color:#000000" id="stop2827"/>
    </linearGradient>
    <linearGradient y2="118.5684" x2="791.75232" y1="87.413101" x1="781.00879" gradientTransform="translate(0,-23)" gradientUnits="userSpaceOnUse" id="linearGradient9510" xlink:href="#SVGID_11_"/>
    <linearGradient id="SVGID_11_" gradientUnits="userSpaceOnUse" x1="781.00879" y1="87.413101" x2="791.75232" y2="118.5684" gradientTransform="translate(0,-23)">
      <stop offset="0" style="stop-color:#FFFFFF" id="stop2834"/>
      <stop offset="1" style="stop-color:#000000" id="stop2836"/>
    </linearGradient>
    <linearGradient y2="99.102997" x2="790.71582" y1="113.2852" x1="790.71582" gradientTransform="translate(0,-23)" gradientUnits="userSpaceOnUse" id="linearGradient9512" xlink:href="#SVGID_12_"/>
    <linearGradient id="SVGID_12_" gradientUnits="userSpaceOnUse" x1="790.71582" y1="113.2852" x2="790.71582" y2="99.102997" gradientTransform="translate(0,-23)">
      <stop offset="0" style="stop-color:#FFFFFF" id="stop2841"/>
      <stop offset="1" style="stop-color:#B7C6CE" id="stop2843"/>
    </linearGradient>
  </defs>
  <metadata id="metadata5768">
    <rdf:RDF>
      <cc:Work rdf:about="">
        <dc:format>image/svg+xml</dc:format>
        <dc:type rdf:resource="http://purl.org/dc/dcmitype/StillImage"/>
        <dc:title/>
      </cc:Work>
    </rdf:RDF>
  </metadata>
  <g transform="translate(71.149,-516.2122)" id="layer1">
    <g id="g2794" transform="translate(-842.989,449.6012)">
      <g id="g2796">
        <g id="g2798">
          <radialGradient id="radialGradient5720" cx="787.98932" cy="117.1543" r="16.365101" gradientTransform="translate(0,-23)" gradientUnits="userSpaceOnUse">
            <stop offset="0" style="stop-color:#E7ECEF" id="stop5722"/>
            <stop offset="1" style="stop-color:#BFC8CD" id="stop5724"/>
          </radialGradient>
          <path d="m 787.99,98.66 c -8.769,0 -15.898,-7.131 -15.898,-15.898 0,-8.766 7.132,-15.898 15.898,-15.898 8.766,0 15.896,7.132 15.896,15.898 0.003,8.766 -7.129,15.898 -15.896,15.898 z" id="path2805" style="fill:url(#radialGradient9504)"/>
          <g id="g2807">
            <path d="m 787.99,67.116 c 8.627,0 15.646,7.019 15.646,15.646 0,8.627 -7.019,15.646 -15.646,15.646 -8.627,0 -15.646,-7.018 -15.646,-15.646 10e-4,-8.627 7.019,-15.646 15.646,-15.646 m 0,-0.505 c -8.92,0 -16.15,7.231 -16.15,16.15 0,8.92 7.23,16.15 16.15,16.15 8.919,0 16.148,-7.231 16.148,-16.15 0.003,-8.918 -7.229,-16.15 -16.148,-16.15 l 0,0 z" id="path2809" style="fill:#8b98a0"/>
          </g>
        </g>
        <g id="g2811" style="opacity:0.8">
          <linearGradient id="linearGradient5730" gradientUnits="userSpaceOnUse" x1="787.53223" y1="100.0854" x2="795.89929" y2="132.1517" gradientTransform="translate(0,-23)">
            <stop offset="0" style="stop-color:#FFFFFF" id="stop5732"/>
            <stop offset="1" style="stop-color:#B7C6CE" id="stop5734"/>
          </linearGradient>
          <path d="m 798.79,71.457 c 2.685,2.811 4.34,6.615 4.34,10.8 0,8.627 -7.017,15.646 -15.645,15.646 -4.188,0 -7.989,-1.655 -10.802,-4.341 2.853,2.983 6.863,4.846 11.307,4.846 8.628,0 15.646,-7.018 15.646,-15.646 0,-4.442 -1.865,-8.454 -4.846,-11.305 z" id="path2818" style="fill:url(#linearGradient9506)"/>
        </g>
        <g id="g2820">
          <g id="g2822">
            <linearGradient id="linearGradient5739" gradientUnits="userSpaceOnUse" x1="783.71881" y1="90.222198" x2="789.49213" y2="111.2264" gradientTransform="translate(0,-23)">
              <stop offset="0" style="stop-color:#FFFBD4" id="stop5741"/>
              <stop offset="1" style="stop-color:#000000" id="stop5743"/>
            </linearGradient>
            <path d="m 784.131,85.64 c 5.489,-4.724 12.593,-9.133 18.714,-5.808 -1.369,-6.951 -7.509,-12.212 -14.854,-12.212 -8.352,0 -15.143,6.794 -15.143,15.143 0,2.023 0.4,3.953 1.125,5.718 2.402,0.604 6.137,0.622 10.158,-2.841 z" id="path2829" style="fill:url(#linearGradient9508)"/>
          </g>
        </g>
        <g id="g2831">
          <linearGradient id="linearGradient5747" gradientUnits="userSpaceOnUse" x1="781.00879" y1="87.413101" x2="791.75232" y2="118.5684" gradientTransform="translate(0,-23)">
            <stop offset="0" style="stop-color:#FFFFFF" id="stop5749"/>
            <stop offset="1" style="stop-color:#000000" id="stop5751"/>
          </linearGradient>
          <path d="m 773.859,83.773 c 0,-8.349 6.792,-15.143 15.142,-15.143 3.917,0 7.492,1.497 10.185,3.947 -2.771,-3.044 -6.766,-4.958 -11.193,-4.958 -8.352,0 -15.143,6.794 -15.143,15.143 0,4.431 1.913,8.423 4.957,11.195 -2.451,-2.691 -3.948,-6.266 -3.948,-10.184 z" id="path2838" style="fill:url(#linearGradient9510)"/>
        </g>
      </g>
      <linearGradient id="linearGradient5754" gradientUnits="userSpaceOnUse" x1="790.71582" y1="113.2852" x2="790.71582" y2="99.102997" gradientTransform="translate(0,-23)">
        <stop offset="0" style="stop-color:#FFFFFF" id="stop5756"/>
        <stop offset="1" style="stop-color:#B7C6CE" id="stop5758"/>
      </linearGradient>
      <polygon enable-background="new    " points="784.457,76.201 784.457,90.332 796.975,83.267 " id="polygon2845" style="opacity:0.8;fill:url(#linearGradient9512)"/>
      <polygon points="783.952,75.696 783.952,89.828 796.47,82.762 " id="polygon2847"/>
      <polygon display="none" points="804.141,98.912 771.84,98.912 771.84,66.611 804.141,66.611 " id="polygon2849" style="display:none;fill:none"/>
    </g>
  </g>
</svg>
