<?xml version="1.0" encoding="utf-8"?>
<!-- Generator: Adobe Illustrator 16.0.0, SVG Export Plug-In . SVG Version: 6.00 Build 0)  -->
<!DOCTYPE svg PUBLIC "-//W3C//DTD SVG 1.1//EN" "http://www.w3.org/Graphics/SVG/1.1/DTD/svg11.dtd">
<svg version="1.1" id="Layer_1" xmlns="http://www.w3.org/2000/svg" xmlns:xlink="http://www.w3.org/1999/xlink" x="0px" y="0px"
	 width="169.956px" height="19.254px" viewBox="0 0 169.956 19.254" enable-background="new 0 0 169.956 19.254"
	 xml:space="preserve">
<g>
	<polygon fill="none" stroke="#000000" stroke-miterlimit="10" points="165.027,1.316 4.97,1.316 0.688,19.335 169.43,19.335 	"/>
	<polygon fill="#3F3F3F" points="3.909,5.778 0.943,18.259 18.909,18.259 29.909,13.884 58.472,13.821 67.159,18.071 98.346,18.071 
		106.721,13.696 135.783,13.759 146.033,18.071 169.121,18.071 166.547,6.1 146.18,5.481 135.553,1.268 106.648,1.268 97.43,5.481 
		67.014,5.481 58.508,1.268 29.604,1.268 19.045,5.707 	"/>
	<polygon fill="#65675F" points="4.856,1.464 4.856,19.187 0.526,19.187 	"/>
	<polygon fill="#65675F" points="164.918,1.464 164.918,19.187 169.248,19.187 	"/>
	<g>
		<polygon fill="#7A8784" points="4.97,1.316 3.909,5.778 19.122,5.639 29.628,1.4 58.605,1.2 67.661,5.803 98.053,5.803 
			106.682,1.4 136.225,1.2 146.242,5.803 166.123,5.803 165.027,1.316 		"/>
		<polygon fill="#7A8784" points="0.943,19.335 1.383,18.259 19.458,18.163 29.284,14.071 59.203,14.138 66.264,17.792 
			98.764,17.792 107.148,13.354 135.785,13.354 146.728,18.163 169.121,18.071 169.43,19.335 		"/>
	</g>
	<g>
		<polygon fill="#231F20" points="146.191,17.792 135.785,13.386 106.453,13.354 98.068,17.792 82.578,17.792 67.088,17.792 
			58.703,13.354 29.524,13.354 18.964,17.792 1.534,17.792 0.943,18.577 19.045,18.577 29.604,14.138 58.508,14.138 66.892,18.577 
			82.578,18.577 98.265,18.577 106.648,14.138 135.553,14.138 146.032,18.577 168.742,18.577 168.596,17.792 		"/>
	</g>
	<g>
		<polygon fill="#231F20" points="146.191,5.314 135.785,0.907 106.453,0.876 98.068,5.314 82.578,5.314 67.088,5.314 58.703,0.876 
			29.524,0.876 18.964,5.314 3.891,5.314 3.562,6.099 19.045,6.099 29.604,1.659 58.508,1.659 66.892,6.099 82.578,6.099 
			98.265,6.099 106.648,1.659 135.553,1.659 146.032,6.099 166.547,6.099 166.352,5.314 		"/>
		<polygon fill="#939598" points="146.625,5.087 135.787,0.699 106.305,0.685 98.002,5.087 97.643,5.087 67.661,5.087 67.3,5.087 
			59.047,0.685 29.589,0.685 18.678,5.087 3.909,5.087 3.769,5.479 18.717,5.479 29.628,1.076 58.949,1.076 67.202,5.479 
			67.661,5.479 97.643,5.479 98.053,5.479 106.354,1.076 135.676,1.076 146.512,5.464 166.301,5.479 166.252,5.087 		"/>
	</g>
	<polygon fill="#464D4B" points="146.191,6.1 135.785,1.692 106.453,1.661 98.068,6.1 82.578,6.1 67.088,6.1 58.703,1.661 
		29.524,1.661 18.964,6.1 3.891,6.1 3.562,6.884 19.045,6.884 29.604,2.444 58.508,2.444 66.892,6.884 82.578,6.884 98.265,6.884 
		106.648,2.444 135.553,2.444 146.032,6.884 166.547,6.884 166.352,6.1 	"/>
	<polygon fill="none" stroke="#000000" stroke-miterlimit="10" points="165.027,1.316 4.97,1.316 0.688,19.335 169.43,19.335 	"/>
	<rect x="4.597" y="-0.081" fill="#464D4B" width="160.792" height="1.065"/>
</g>
</svg>
