<?xml version="1.0" encoding="utf-8"?>
<!-- Generator: Adobe Illustrator 16.0.0, SVG Export Plug-In . SVG Version: 6.00 Build 0)  -->
<!DOCTYPE svg PUBLIC "-//W3C//DTD SVG 1.1//EN" "http://www.w3.org/Graphics/SVG/1.1/DTD/svg11.dtd">
<svg version="1.1" id="Layer_1" xmlns="http://www.w3.org/2000/svg" xmlns:xlink="http://www.w3.org/1999/xlink" x="0px" y="0px"
	 width="169.956px" height="19.254px" viewBox="0 0 169.956 19.254" enable-background="new 0 0 169.956 19.254"
	 xml:space="preserve">
<rect x="4.597" fill="#464D4B" width="160.792" height="1.065"/>
<g>
	<polygon fill="#7A8784" points="4.96,0.792 2.408,11.919 19.112,12.15 29.618,7.912 58.596,7.712 67.651,12.314 98.043,12.314 
		106.672,7.912 136.216,7.712 146.232,12.314 167.834,12.314 165.191,0.792 	"/>
	<polygon fill="#7A8784" points="0.678,18.81 2.631,12.146 18.604,11.414 29.595,7.319 58.499,7.319 66.882,11.759 98.256,11.759 
		106.639,7.319 135.543,7.319 146.023,11.759 167.642,11.759 169.42,18.81 	"/>
	<polygon fill="#7A8784" stroke="#000000" stroke-miterlimit="10" points="165.018,0.792 4.96,0.792 0.678,18.81 169.42,18.81 	"/>
	<polygon fill="#231F20" points="146.183,11.366 135.776,6.959 106.443,6.928 98.06,11.366 82.568,11.366 67.078,11.366 
		58.694,6.928 29.515,6.928 18.955,11.366 2.958,11.366 2.63,12.15 19.035,12.15 29.595,7.711 58.499,7.711 66.882,12.15 
		82.568,12.15 98.256,12.15 106.639,7.711 135.543,7.711 146.023,12.15 167.32,12.15 167.123,11.366 	"/>
	<polygon fill="#939598" points="146.615,11.139 135.777,6.751 106.295,6.736 97.993,11.139 97.633,11.139 67.651,11.139 
		67.291,11.139 59.038,6.736 29.58,6.736 18.668,11.139 2.978,11.139 2.837,11.53 18.707,11.53 29.618,7.128 58.94,7.128 
		67.192,11.53 67.651,11.53 97.633,11.53 98.043,11.53 106.345,7.128 135.666,7.128 146.503,11.516 167.074,11.53 167.025,11.139 	
		"/>
</g>
</svg>
