<?xml version="1.0" encoding="utf-8"?>
<!-- Generator: Adobe Illustrator 16.0.0, SVG Export Plug-In . SVG Version: 6.00 Build 0)  -->
<!DOCTYPE svg PUBLIC "-//W3C//DTD SVG 1.1//EN" "http://www.w3.org/Graphics/SVG/1.1/DTD/svg11.dtd">
<svg version="1.1" id="Layer_1" xmlns="http://www.w3.org/2000/svg" xmlns:xlink="http://www.w3.org/1999/xlink" x="0px" y="0px"
	 width="768.27px" height="60.14px" viewBox="0 0 768.27 60.14" enable-background="new 0 0 768.27 60.14" xml:space="preserve">
<g>
	<g>
		<polygon fill="#65675F" stroke="#000000" stroke-miterlimit="10" points="444.289,5.707 323.436,5.707 0,5.707 0,60.138 
			768.27,60.138 768.27,5.707 		"/>
	</g>
	<rect x="0.5" y="7.825" fill="#3F3F3F" width="759.5" height="5.082"/>
	<rect x="0" y="0.002" fill="#898989" stroke="#000000" stroke-miterlimit="10" width="768.269" height="7.823"/>
	<g>
		<g>
			<polygon fill="#737778" points="441.43,42.618 531.91,42.618 545.957,30.981 597.484,30.981 597.566,31.474 547.596,31.474 
				533.896,42.618 532.504,43.951 441.43,43.951 427.32,32.815 427.32,30.981 			"/>
			<polygon fill="#4B4C4C" points="441.43,41.315 531.91,41.315 545.957,29.679 597.484,29.679 597.566,30.171 547.596,30.171 
				533.896,41.315 532.504,42.648 441.43,42.648 427.32,31.513 427.32,29.679 			"/>
		</g>
		<g>
			<polygon fill="#737778" points="611.676,42.618 702.156,42.618 716.203,30.981 767.73,30.981 767.813,31.474 717.842,31.474 
				704.143,42.618 702.75,43.951 611.676,43.951 597.566,32.815 597.566,30.981 			"/>
			<polygon fill="#4B4C4C" points="611.676,41.315 702.156,41.315 716.203,29.679 767.73,29.679 767.813,30.171 717.842,30.171 
				704.143,41.315 702.75,42.648 611.676,42.648 597.566,31.513 597.566,29.679 			"/>
		</g>
	</g>
	<g>
		<g>
			<polygon fill="#737778" points="326.883,42.618 236.403,42.618 222.356,30.981 170.829,30.981 170.747,31.474 220.717,31.474 
				234.417,42.618 235.809,43.951 326.883,43.951 340.993,32.815 340.993,30.981 			"/>
			<polygon fill="#4B4C4C" points="326.883,41.315 236.403,41.315 222.356,29.679 170.829,29.679 170.747,30.171 220.717,30.171 
				234.417,41.315 235.809,42.648 326.883,42.648 340.993,31.513 340.993,29.679 			"/>
		</g>
		<g>
			<polygon fill="#737778" points="156.637,42.618 66.157,42.618 52.11,30.981 0.583,30.981 0.5,31.474 50.471,31.474 64.17,42.618 
				65.563,43.951 156.637,43.951 170.747,32.815 170.747,30.981 			"/>
			<polygon fill="#4B4C4C" points="156.637,41.315 66.157,41.315 52.11,29.679 0.583,29.679 0.5,30.171 50.471,30.171 64.17,41.315 
				65.563,42.648 156.637,42.648 170.747,31.513 170.747,29.679 			"/>
		</g>
	</g>
	<g>
		<rect x="474.345" y="15.998" fill="#7A7D77" stroke="#000000" stroke-miterlimit="10" width="23.146" height="24.75"/>
		<rect x="474.741" y="18.331" fill="#005B59" width="20.25" height="22.084"/>
		<g>
			<g>
				<rect x="477.554" y="20.726" fill="#00F77E" stroke="#000000" stroke-miterlimit="10" width="16.73" height="16.74"/>
				<polygon opacity="0.5" fill="#00BA60" points="477.554,21.165 494.284,37.466 477.554,37.466 				"/>
				<polyline fill="none" stroke="#000000" stroke-miterlimit="10" points="491.312,27.91 485.808,32.095 480.524,27.91 				"/>
				
					<line fill="none" stroke="#000000" stroke-width="1.3159" stroke-miterlimit="10" x1="485.808" y1="32.095" x2="485.808" y2="24.496"/>
			</g>
			<rect x="477.554" y="18.743" fill="#47FF66" stroke="#000000" stroke-miterlimit="10" width="16.73" height="1.982"/>
		</g>
		<rect x="474.741" y="16.394" fill="#BBBFB8" width="22.168" height="1.938"/>
		<rect x="473.741" y="41.248" fill="#535657" width="24.324" height="4.25"/>
		<rect x="270.807" y="15.998" fill="#7A7D77" stroke="#000000" stroke-miterlimit="10" width="23.147" height="24.75"/>
		<rect x="271.204" y="18.331" fill="#005B59" width="20.25" height="22.084"/>
		<g>
			<g>
				<rect x="274.016" y="20.726" fill="#00F77E" stroke="#000000" stroke-miterlimit="10" width="16.73" height="16.74"/>
				<polygon opacity="0.5" fill="#00BA60" points="274.016,21.165 290.746,37.466 274.016,37.466 				"/>
				<polyline fill="none" stroke="#000000" stroke-miterlimit="10" points="276.986,28.681 282.489,24.496 287.773,28.681 				"/>
				
					<line fill="none" stroke="#000000" stroke-width="1.3159" stroke-miterlimit="10" x1="282.489" y1="24.496" x2="282.489" y2="32.095"/>
			</g>
			<rect x="274.016" y="18.743" fill="#47FF66" stroke="#000000" stroke-miterlimit="10" width="16.73" height="1.982"/>
		</g>
		<rect x="271.204" y="16.394" fill="#BBBFB8" width="22.166" height="1.938"/>
		<rect x="270.204" y="41.248" fill="#535657" width="24.323" height="4.25"/>
	</g>
	<rect x="760" y="8.331" fill="#3F3F3F" width="7.813" height="51.257"/>
	<g>
		<g>
			
				<rect x="44.717" y="17.956" opacity="0.7" fill="#871A58" stroke="#000000" stroke-miterlimit="10" width="111.488" height="27.875"/>
			<rect x="47.52" y="21.009" fill="#333233" stroke="#000000" stroke-miterlimit="10" width="105.883" height="22.17"/>
			<linearGradient id="SVGID_1_" gradientUnits="userSpaceOnUse" x1="100.4438" y1="42.5947" x2="100.4438" y2="32.3379">
				<stop  offset="0" style="stop-color:#969696"/>
				<stop  offset="0.4036" style="stop-color:#545454"/>
				<stop  offset="0.8073" style="stop-color:#181818"/>
				<stop  offset="1" style="stop-color:#000000"/>
			</linearGradient>
			<polygon fill="url(#SVGID_1_)" points="152.872,42.595 48.016,42.595 53.771,32.338 147.192,32.338 			"/>
			<polygon fill="#514D4D" points="53.771,32.338 53.771,21.519 48.016,21.519 48.016,42.595 			"/>
			<polygon fill="#514D4D" points="147.116,32.338 147.116,21.519 152.872,21.519 152.872,42.595 			"/>
			<line fill="none" stroke="#BBB9EA" stroke-miterlimit="10" x1="155.455" y1="19.022" x2="45.455" y2="19.022"/>
			<line fill="none" stroke="#BBB9EA" stroke-miterlimit="10" x1="153.872" y1="44.009" x2="46.997" y2="44.009"/>
		</g>
		<rect x="44.281" y="46.213" fill="#535657" width="112.469" height="4.25"/>
	</g>
	<g>
		<g>
			
				<rect x="328.39" y="17.956" opacity="0.7" fill="#806A00" stroke="#000000" stroke-miterlimit="10" width="111.487" height="27.875"/>
			<rect x="331.193" y="21.009" fill="#333233" stroke="#000000" stroke-miterlimit="10" width="105.881" height="22.17"/>
			<linearGradient id="SVGID_2_" gradientUnits="userSpaceOnUse" x1="384.1177" y1="42.5947" x2="384.1177" y2="32.3379">
				<stop  offset="0" style="stop-color:#969696"/>
				<stop  offset="0.4036" style="stop-color:#545454"/>
				<stop  offset="0.8073" style="stop-color:#181818"/>
				<stop  offset="1" style="stop-color:#000000"/>
			</linearGradient>
			<polygon fill="url(#SVGID_2_)" points="436.545,42.595 331.689,42.595 337.445,32.338 430.865,32.338 			"/>
			<polygon fill="#514D4D" points="337.445,32.338 337.445,21.519 331.689,21.519 331.689,42.595 			"/>
			<polygon fill="#514D4D" points="430.789,32.338 430.789,21.519 436.545,21.519 436.545,42.595 			"/>
			<line fill="none" stroke="#FFF4BB" stroke-miterlimit="10" x1="439.127" y1="19.022" x2="329.128" y2="19.022"/>
			<line fill="none" stroke="#FFF4BB" stroke-miterlimit="10" x1="437.545" y1="44.009" x2="330.67" y2="44.009"/>
		</g>
		<rect x="327.9" y="46.213" fill="#535657" width="112.469" height="4.25"/>
	</g>
	<g>
		<g>
			
				<rect x="596.438" y="18.119" opacity="0.7" fill="#004775" stroke="#000000" stroke-miterlimit="10" width="111.488" height="27.875"/>
			<rect x="599.24" y="21.172" fill="#333233" stroke="#000000" stroke-miterlimit="10" width="105.883" height="22.171"/>
			<linearGradient id="SVGID_3_" gradientUnits="userSpaceOnUse" x1="652.166" y1="42.7578" x2="652.166" y2="32.501">
				<stop  offset="0" style="stop-color:#969696"/>
				<stop  offset="0.4036" style="stop-color:#545454"/>
				<stop  offset="0.8073" style="stop-color:#181818"/>
				<stop  offset="1" style="stop-color:#000000"/>
			</linearGradient>
			<polygon fill="url(#SVGID_3_)" points="704.594,42.758 599.738,42.758 605.492,32.501 698.914,32.501 			"/>
			<polygon fill="#514D4D" points="605.492,32.501 605.492,21.682 599.738,21.682 599.738,42.758 			"/>
			<polygon fill="#514D4D" points="698.838,32.501 698.838,21.682 704.594,21.682 704.594,42.758 			"/>
			<line fill="none" stroke="#79D3FF" stroke-miterlimit="10" x1="707.176" y1="19.186" x2="597.176" y2="19.186"/>
			<line fill="none" stroke="#79D3FF" stroke-miterlimit="10" x1="705.594" y1="44.171" x2="598.719" y2="44.171"/>
		</g>
		<rect x="595.947" y="46.463" fill="#535657" width="112.469" height="4.25"/>
	</g>
</g>
</svg>
