<?xml version="1.0" encoding="utf-8"?>
<!-- Generator: Adobe Illustrator 16.0.0, SVG Export Plug-In . SVG Version: 6.00 Build 0)  -->
<!DOCTYPE svg PUBLIC "-//W3C//DTD SVG 1.1//EN" "http://www.w3.org/Graphics/SVG/1.1/DTD/svg11.dtd">
<svg version="1.1" id="Layer_1" xmlns="http://www.w3.org/2000/svg" xmlns:xlink="http://www.w3.org/1999/xlink" x="0px" y="0px"
	 width="768.27px" height="60.141px" viewBox="0 0 768.27 60.141" enable-background="new 0 0 768.27 60.141" xml:space="preserve">
<g>
	<g>
		<polygon fill="#65675F" stroke="#000000" stroke-miterlimit="10" points="444.289,6.375 323.435,6.375 0,6.375 0,60.806 
			768.269,60.806 768.269,6.375 		"/>
	</g>
	<rect x="0.5" y="8.493" fill="#3F3F3F" width="756.479" height="5.083"/>
	<rect x="0" y="0.67" fill="#898989" stroke="#000000" stroke-miterlimit="10" width="768.269" height="7.823"/>
	<g>
		<g>
			<polygon fill="#737778" points="156.137,33.277 65.656,33.277 51.61,21.64 0.082,21.64 0,22.133 49.971,22.133 63.67,33.277 
				65.063,34.61 156.137,34.61 170.245,23.475 170.245,21.64 			"/>
			<polygon fill="#4B4C4C" points="156.137,31.974 65.656,31.974 51.61,20.338 0.082,20.338 0,20.83 49.971,20.83 63.67,31.974 
				65.063,33.307 156.137,33.307 170.245,22.172 170.245,20.338 			"/>
		</g>
		<g>
			<polygon fill="#737778" points="326.382,33.277 235.902,33.277 221.855,21.64 170.327,21.64 170.245,22.133 220.216,22.133 
				233.915,33.277 235.308,34.61 326.382,34.61 340.49,23.475 340.49,21.64 			"/>
			<polygon fill="#4B4C4C" points="326.382,31.974 235.902,31.974 221.855,20.338 170.327,20.338 170.245,20.83 220.216,20.83 
				233.915,31.974 235.308,33.307 326.382,33.307 340.49,22.172 340.49,20.338 			"/>
		</g>
		<g>
			<polygon fill="#737778" points="426.22,33.277 516.7,33.277 530.747,21.64 582.275,21.64 582.357,22.133 532.386,22.133 
				518.687,33.277 517.294,34.61 426.22,34.61 412.112,23.475 412.112,21.64 			"/>
			<polygon fill="#4B4C4C" points="426.22,31.974 516.7,31.974 530.747,20.338 582.275,20.338 582.357,20.83 532.386,20.83 
				518.687,31.974 517.294,33.307 426.22,33.307 412.112,22.172 412.112,20.338 			"/>
		</g>
		<g>
			<polygon fill="#737778" points="611.481,33.277 701.961,33.277 716.008,21.64 767.535,21.64 767.617,22.133 717.647,22.133 
				703.948,33.277 702.555,34.61 611.481,34.61 597.371,23.475 597.371,21.64 			"/>
			<polygon fill="#4B4C4C" points="611.481,31.974 701.961,31.974 716.008,20.338 767.535,20.338 767.617,20.83 717.647,20.83 
				703.948,31.974 702.555,33.307 611.481,33.307 597.371,22.172 597.371,20.338 			"/>
		</g>
	</g>
	<rect x="753.912" y="9" fill="#3F3F3F" width="13.9" height="51.257"/>
	<g>
		<g>
			<g>
				
					<rect x="164.551" y="10.617" opacity="0.7" fill="#871A58" stroke="#000000" stroke-miterlimit="10" width="111.488" height="27.875"/>
				<rect x="167.354" y="13.67" fill="#333233" stroke="#000000" stroke-miterlimit="10" width="105.883" height="22.17"/>
				<linearGradient id="SVGID_1_" gradientUnits="userSpaceOnUse" x1="220.2781" y1="35.2556" x2="220.2781" y2="24.9993">
					<stop  offset="0" style="stop-color:#969696"/>
					<stop  offset="0.4036" style="stop-color:#545454"/>
					<stop  offset="0.8073" style="stop-color:#181818"/>
					<stop  offset="1" style="stop-color:#000000"/>
				</linearGradient>
				<polygon fill="url(#SVGID_1_)" points="272.706,35.256 167.85,35.256 173.606,24.999 267.026,24.999 				"/>
				<polygon fill="#514D4D" points="173.606,24.999 173.606,14.179 167.85,14.179 167.85,35.256 				"/>
				<polygon fill="#514D4D" points="266.95,24.999 266.95,14.179 272.706,14.179 272.706,35.256 				"/>
				<line fill="none" stroke="#BBB9EA" stroke-miterlimit="10" x1="275.289" y1="11.683" x2="165.289" y2="11.683"/>
				<line fill="none" stroke="#BBB9EA" stroke-miterlimit="10" x1="273.706" y1="36.67" x2="166.831" y2="36.67"/>
			</g>
			<rect x="164.115" y="38.874" fill="#535657" width="112.469" height="4.25"/>
		</g>
		<g>
			<g>
				
					<rect x="327.075" y="10.617" opacity="0.7" fill="#806A00" stroke="#000000" stroke-miterlimit="10" width="111.488" height="27.875"/>
				<rect x="329.878" y="13.67" fill="#333233" stroke="#000000" stroke-miterlimit="10" width="105.882" height="22.17"/>
				<linearGradient id="SVGID_2_" gradientUnits="userSpaceOnUse" x1="382.8025" y1="35.2556" x2="382.8025" y2="24.9993">
					<stop  offset="0" style="stop-color:#969696"/>
					<stop  offset="0.4036" style="stop-color:#545454"/>
					<stop  offset="0.8073" style="stop-color:#181818"/>
					<stop  offset="1" style="stop-color:#000000"/>
				</linearGradient>
				<polygon fill="url(#SVGID_2_)" points="435.23,35.256 330.374,35.256 336.13,24.999 429.55,24.999 				"/>
				<polygon fill="#514D4D" points="336.13,24.999 336.13,14.179 330.374,14.179 330.374,35.256 				"/>
				<polygon fill="#514D4D" points="429.475,24.999 429.475,14.179 435.23,14.179 435.23,35.256 				"/>
				<line fill="none" stroke="#FFF4BB" stroke-miterlimit="10" x1="437.813" y1="11.683" x2="327.813" y2="11.683"/>
				<line fill="none" stroke="#FFF4BB" stroke-miterlimit="10" x1="436.23" y1="36.67" x2="329.355" y2="36.67"/>
			</g>
			<rect x="326.585" y="38.874" fill="#535657" width="112.469" height="4.25"/>
		</g>
		<g>
			<g>
				
					<rect x="489.545" y="10.78" opacity="0.7" fill="#004775" stroke="#000000" stroke-miterlimit="10" width="111.488" height="27.875"/>
				<rect x="492.348" y="13.833" fill="#333233" stroke="#000000" stroke-miterlimit="10" width="105.883" height="22.171"/>
				<linearGradient id="SVGID_3_" gradientUnits="userSpaceOnUse" x1="545.2727" y1="35.4187" x2="545.2727" y2="25.1624">
					<stop  offset="0" style="stop-color:#969696"/>
					<stop  offset="0.4036" style="stop-color:#545454"/>
					<stop  offset="0.8073" style="stop-color:#181818"/>
					<stop  offset="1" style="stop-color:#000000"/>
				</linearGradient>
				<polygon fill="url(#SVGID_3_)" points="597.7,35.419 492.845,35.419 498.6,25.162 592.021,25.162 				"/>
				<polygon fill="#514D4D" points="498.6,25.162 498.6,14.343 492.845,14.343 492.845,35.419 				"/>
				<polygon fill="#514D4D" points="591.946,25.162 591.946,14.343 597.7,14.343 597.7,35.419 				"/>
				<line fill="none" stroke="#79D3FF" stroke-miterlimit="10" x1="600.283" y1="11.846" x2="490.283" y2="11.846"/>
				<line fill="none" stroke="#79D3FF" stroke-miterlimit="10" x1="598.7" y1="36.832" x2="491.825" y2="36.832"/>
			</g>
			<rect x="489.054" y="39.124" fill="#535657" width="112.47" height="4.25"/>
		</g>
	</g>
</g>
</svg>
