<?xml version="1.0" encoding="utf-8"?>
<!-- Generator: Adobe Illustrator 16.0.0, SVG Export Plug-In . SVG Version: 6.00 Build 0)  -->
<!DOCTYPE svg PUBLIC "-//W3C//DTD SVG 1.1//EN" "http://www.w3.org/Graphics/SVG/1.1/DTD/svg11.dtd">
<svg version="1.1" id="Layer_1" xmlns="http://www.w3.org/2000/svg" xmlns:xlink="http://www.w3.org/1999/xlink" x="0px" y="0px"
	 width="768.27px" height="60.141px" viewBox="0 0 768.27 60.141" enable-background="new 0 0 768.27 60.141" xml:space="preserve">
<g>
	<g>
		<polygon fill="#65675F" stroke="#000000" stroke-miterlimit="10" points="444.289,5.707 323.436,5.707 0,5.707 0,60.139 
			768.27,60.139 768.27,5.707 		"/>
	</g>
	<rect x="0.5" y="7.825" fill="#3F3F3F" width="756.48" height="5.083"/>
	<rect y="0.002" fill="#898989" stroke="#000000" stroke-miterlimit="10" width="768.27" height="7.823"/>
	<g>
		<g>
			<polygon fill="#737778" points="156.137,32.61 65.656,32.61 51.609,20.972 0.082,20.972 0,21.465 49.971,21.465 63.67,32.61 
				65.063,33.942 156.137,33.942 170.245,22.807 170.245,20.972 			"/>
			<polygon fill="#4B4C4C" points="156.137,31.307 65.656,31.307 51.609,19.67 0.082,19.67 0,20.162 49.971,20.162 63.67,31.307 
				65.063,32.639 156.137,32.639 170.245,21.504 170.245,19.67 			"/>
		</g>
		<g>
			<polygon fill="#737778" points="326.382,32.61 235.901,32.61 221.854,20.972 170.327,20.972 170.245,21.465 220.216,21.465 
				233.915,32.61 235.308,33.942 326.382,33.942 340.49,22.807 340.49,20.972 			"/>
			<polygon fill="#4B4C4C" points="326.382,31.307 235.901,31.307 221.854,19.67 170.327,19.67 170.245,20.162 220.216,20.162 
				233.915,31.307 235.308,32.639 326.382,32.639 340.49,21.504 340.49,19.67 			"/>
		</g>
		<g>
			<polygon fill="#737778" points="426.221,32.61 516.701,32.61 530.748,20.972 582.275,20.972 582.357,21.465 532.387,21.465 
				518.688,32.61 517.295,33.942 426.221,33.942 412.111,22.807 412.111,20.972 			"/>
			<polygon fill="#4B4C4C" points="426.221,31.307 516.701,31.307 530.748,19.67 582.275,19.67 582.357,20.162 532.387,20.162 
				518.688,31.307 517.295,32.639 426.221,32.639 412.111,21.504 412.111,19.67 			"/>
		</g>
		<g>
			<polygon fill="#737778" points="611.48,32.61 701.961,32.61 716.008,20.972 767.535,20.972 767.617,21.465 717.646,21.465 
				703.947,32.61 702.555,33.942 611.48,33.942 597.371,22.807 597.371,20.972 			"/>
			<polygon fill="#4B4C4C" points="611.48,31.307 701.961,31.307 716.008,19.67 767.535,19.67 767.617,20.162 717.646,20.162 
				703.947,31.307 702.555,32.639 611.48,32.639 597.371,21.504 597.371,19.67 			"/>
		</g>
	</g>
	<rect x="753.912" y="8.332" fill="#3F3F3F" width="13.9" height="51.256"/>
	<g>
		<g>
			<g>
				
					<rect x="168.429" y="9.949" opacity="0.7" fill="#871A58" stroke="#000000" stroke-miterlimit="10" width="111.488" height="27.875"/>
				<rect x="171.231" y="13.002" fill="#333233" stroke="#000000" stroke-miterlimit="10" width="105.883" height="22.17"/>
				<linearGradient id="SVGID_1_" gradientUnits="userSpaceOnUse" x1="224.1563" y1="34.5881" x2="224.1563" y2="24.3313">
					<stop  offset="0" style="stop-color:#969696"/>
					<stop  offset="0.4036" style="stop-color:#545454"/>
					<stop  offset="0.8073" style="stop-color:#181818"/>
					<stop  offset="1" style="stop-color:#000000"/>
				</linearGradient>
				<polygon fill="url(#SVGID_1_)" points="276.584,34.588 171.729,34.588 177.483,24.331 270.904,24.331 				"/>
				<polygon fill="#514D4D" points="177.483,24.331 177.483,13.511 171.729,13.511 171.729,34.588 				"/>
				<polygon fill="#514D4D" points="270.828,24.331 270.828,13.511 276.584,13.511 276.584,34.588 				"/>
				<line fill="none" stroke="#BBB9EA" stroke-miterlimit="10" x1="279.167" y1="11.015" x2="169.167" y2="11.015"/>
				<line fill="none" stroke="#BBB9EA" stroke-miterlimit="10" x1="277.584" y1="36.001" x2="170.709" y2="36.001"/>
			</g>
			<rect x="167.993" y="38.205" fill="#535657" width="112.47" height="4.25"/>
		</g>
		<g>
			<g>
				
					<rect x="313.223" y="9.949" opacity="0.7" fill="#806A00" stroke="#000000" stroke-miterlimit="10" width="111.488" height="27.875"/>
				<rect x="316.025" y="13.002" fill="#333233" stroke="#000000" stroke-miterlimit="10" width="105.883" height="22.17"/>
				<linearGradient id="SVGID_2_" gradientUnits="userSpaceOnUse" x1="368.9497" y1="34.5881" x2="368.9497" y2="24.3313">
					<stop  offset="0" style="stop-color:#969696"/>
					<stop  offset="0.4036" style="stop-color:#545454"/>
					<stop  offset="0.8073" style="stop-color:#181818"/>
					<stop  offset="1" style="stop-color:#000000"/>
				</linearGradient>
				<polygon fill="url(#SVGID_2_)" points="421.377,34.588 316.521,34.588 322.277,24.331 415.697,24.331 				"/>
				<polygon fill="#514D4D" points="322.277,24.331 322.277,13.511 316.521,13.511 316.521,34.588 				"/>
				<polygon fill="#514D4D" points="415.623,24.331 415.623,13.511 421.377,13.511 421.377,34.588 				"/>
				<line fill="none" stroke="#FFF4BB" stroke-miterlimit="10" x1="423.961" y1="11.015" x2="313.961" y2="11.015"/>
				<line fill="none" stroke="#FFF4BB" stroke-miterlimit="10" x1="422.377" y1="36.001" x2="315.502" y2="36.001"/>
			</g>
			<rect x="312.732" y="38.205" fill="#535657" width="112.469" height="4.25"/>
		</g>
		<g>
			<g>
				
					<rect x="489.545" y="10.112" opacity="0.7" fill="#004775" stroke="#000000" stroke-miterlimit="10" width="111.488" height="27.875"/>
				<rect x="492.348" y="13.165" fill="#333233" stroke="#000000" stroke-miterlimit="10" width="105.883" height="22.17"/>
				<linearGradient id="SVGID_3_" gradientUnits="userSpaceOnUse" x1="545.2734" y1="34.7502" x2="545.2734" y2="24.4944">
					<stop  offset="0" style="stop-color:#969696"/>
					<stop  offset="0.4036" style="stop-color:#545454"/>
					<stop  offset="0.8073" style="stop-color:#181818"/>
					<stop  offset="1" style="stop-color:#000000"/>
				</linearGradient>
				<polygon fill="url(#SVGID_3_)" points="597.701,34.75 492.846,34.75 498.6,24.494 592.021,24.494 				"/>
				<polygon fill="#514D4D" points="498.6,24.494 498.6,13.675 492.846,13.675 492.846,34.75 				"/>
				<polygon fill="#514D4D" points="591.945,24.494 591.945,13.675 597.701,13.675 597.701,34.75 				"/>
				<line fill="none" stroke="#79D3FF" stroke-miterlimit="10" x1="600.283" y1="11.178" x2="490.283" y2="11.178"/>
				<line fill="none" stroke="#79D3FF" stroke-miterlimit="10" x1="598.701" y1="36.164" x2="491.826" y2="36.164"/>
			</g>
			<rect x="489.055" y="38.455" fill="#535657" width="112.469" height="4.25"/>
		</g>
	</g>
	<rect x="614.34" y="11.969" fill="#535657" width="24.322" height="30.238"/>
	<rect x="451.734" y="11.969" fill="#535657" width="24.324" height="30.238"/>
	<line fill="#535657" x1="475.889" y1="42.207" x2="451.566" y2="42.207"/>
</g>
</svg>
