<?xml version="1.0" encoding="utf-8"?>
<!-- Generator: Adobe Illustrator 16.0.0, SVG Export Plug-In . SVG Version: 6.00 Build 0)  -->
<!DOCTYPE svg PUBLIC "-//W3C//DTD SVG 1.1//EN" "http://www.w3.org/Graphics/SVG/1.1/DTD/svg11.dtd">
<svg version="1.1" id="Layer_3" xmlns="http://www.w3.org/2000/svg" xmlns:xlink="http://www.w3.org/1999/xlink" x="0px" y="0px"
	 width="24.26px" height="34.879px" viewBox="0 0 24.26 34.879" enable-background="new 0 0 24.26 34.879" xml:space="preserve">
<g>
	
		<linearGradient id="SVGID_1_" gradientUnits="userSpaceOnUse" x1="316.9873" y1="773.3848" x2="316.9873" y2="783.8408" gradientTransform="matrix(1 0 0 1 -305.1499 -762.3848)">
		<stop  offset="0" style="stop-color:#C2C2C2"/>
		<stop  offset="0.0673" style="stop-color:#B1B1B1"/>
		<stop  offset="0.2964" style="stop-color:#7E7E7E"/>
		<stop  offset="0.5119" style="stop-color:#6E6E6E"/>
		<stop  offset="0.7074" style="stop-color:#454545"/>
		<stop  offset="0.8766" style="stop-color:#5E5E5E"/>
		<stop  offset="1" style="stop-color:#949494"/>
	</linearGradient>
	<polyline fill="url(#SVGID_1_)" points="0,11.5 0,21.456 17.01,21.456 19.188,20.288 20.75,18.667 22.083,16.478 23.674,11.5 
		23.674,11 0.5,11.167 0,11.005 0,11.5 	"/>
	
		<linearGradient id="SVGID_2_" gradientUnits="userSpaceOnUse" x1="314.1914" y1="773.3906" x2="314.1914" y2="762.8848" gradientTransform="matrix(1 0 0 1 -305.1499 -762.3848)">
		<stop  offset="0" style="stop-color:#C2C2C2"/>
		<stop  offset="0.0032" style="stop-color:#B9B9B9"/>
		<stop  offset="0.0129" style="stop-color:#A3A3A3"/>
		<stop  offset="0.0243" style="stop-color:#929292"/>
		<stop  offset="0.0385" style="stop-color:#878787"/>
		<stop  offset="0.0584" style="stop-color:#808080"/>
		<stop  offset="0.1136" style="stop-color:#7E7E7E"/>
		<stop  offset="0.1233" style="stop-color:#7C7C7C"/>
		<stop  offset="0.3676" style="stop-color:#555555"/>
		<stop  offset="0.5917" style="stop-color:#383838"/>
		<stop  offset="0.7865" style="stop-color:#272727"/>
		<stop  offset="0.9301" style="stop-color:#212121"/>
	</linearGradient>
	<polyline fill="url(#SVGID_2_)" points="0,0.5 0,11.005 18.084,11 16.75,8.585 16.373,6.031 16.375,3.752 16.626,2.177 17.01,0.5 
		0,0.5 	"/>
	<polygon points="17.334,1 0,1 0,0 17.625,0 	"/>
	<rect y="20.938" width="16.375" height="1"/>
	<rect x="2.938" y="0.002" fill="#58595B" width="2.813" height="5.19"/>
	<rect x="10.724" fill="#939598" width="2.813" height="10.5"/>
	<rect x="2.438" width="1" height="4.354"/>
	<rect x="5.25" width="1" height="4.354"/>
	<rect x="10.094" width="1" height="10.5"/>
	<rect x="12.875" width="1" height="10.5"/>
	<rect x="2.938" y="21.939" fill="#58595B" width="2.813" height="12.939"/>
	<rect x="10.724" y="21.938" fill="#939598" width="2.813" height="12.939"/>
	<rect x="2.438" y="21.938" width="1" height="12.941"/>
	<rect x="5.25" y="21.938" width="1" height="12.941"/>
	<rect x="10.094" y="21.938" width="1" height="12.939"/>
	<rect x="12.875" y="21.938" width="1" height="12.939"/>
	<rect y="10.5" width="24.083" height="1"/>
	<path d="M16.375,20.938c0,0,4.801,0.125,6.713-9.438h0.995c0,0-1.488,9.781-7.708,10.438"/>
	<path d="M17.334,1c0,0-1.459,7.083,0.833,9.5h-1.291c0,0-1.918-3.208-0.501-9.5H17.334z"/>
	<path d="M3.438,4.354c0,0,0.048,0.693,0.907,0.693c0,0,0.905,0.004,0.905-0.693h1c0,0-0.139,1.678-1.905,1.678
		c0,0-1.907-0.074-1.907-1.678H3.438z"/>
</g>
</svg>
