<?xml version="1.0" encoding="utf-8"?>
<!-- Generator: Adobe Illustrator 16.0.0, SVG Export Plug-In . SVG Version: 6.00 Build 0)  -->
<!DOCTYPE svg PUBLIC "-//W3C//DTD SVG 1.1//EN" "http://www.w3.org/Graphics/SVG/1.1/DTD/svg11.dtd">
<svg version="1.1" id="Layer_3" xmlns="http://www.w3.org/2000/svg" xmlns:xlink="http://www.w3.org/1999/xlink" x="0px" y="0px"
	 width="24.26px" height="34.88px" viewBox="0 0 24.26 34.88" enable-background="new 0 0 24.26 34.88" xml:space="preserve">
<g>
	
		<linearGradient id="SVGID_1_" gradientUnits="userSpaceOnUse" x1="11.6602" y1="11.0005" x2="11.6602" y2="21.4546" gradientTransform="matrix(-1 0 0 1 24.083 0)">
		<stop  offset="0" style="stop-color:#C2C2C2"/>
		<stop  offset="0.0673" style="stop-color:#B1B1B1"/>
		<stop  offset="0.2964" style="stop-color:#7E7E7E"/>
		<stop  offset="0.5119" style="stop-color:#6E6E6E"/>
		<stop  offset="0.7074" style="stop-color:#454545"/>
		<stop  offset="0.8766" style="stop-color:#5E5E5E"/>
		<stop  offset="1" style="stop-color:#949494"/>
	</linearGradient>
	<polyline fill="url(#SVGID_1_)" points="24.26,11.5 24.26,21.455 7.25,21.455 5.071,20.288 3.51,18.667 2.177,16.478 0.586,11.5 
		0.586,11 23.76,11.167 24.26,11.005 24.26,11.5 	"/>
	
		<linearGradient id="SVGID_2_" gradientUnits="userSpaceOnUse" x1="8.8652" y1="11.0049" x2="8.8652" y2="0.4995" gradientTransform="matrix(-1 0 0 1 24.083 0)">
		<stop  offset="0" style="stop-color:#C2C2C2"/>
		<stop  offset="0.0032" style="stop-color:#B9B9B9"/>
		<stop  offset="0.0129" style="stop-color:#A3A3A3"/>
		<stop  offset="0.0243" style="stop-color:#929292"/>
		<stop  offset="0.0385" style="stop-color:#878787"/>
		<stop  offset="0.0584" style="stop-color:#808080"/>
		<stop  offset="0.1136" style="stop-color:#7E7E7E"/>
		<stop  offset="0.1233" style="stop-color:#7C7C7C"/>
		<stop  offset="0.3676" style="stop-color:#555555"/>
		<stop  offset="0.5917" style="stop-color:#383838"/>
		<stop  offset="0.7865" style="stop-color:#272727"/>
		<stop  offset="0.9301" style="stop-color:#212121"/>
	</linearGradient>
	<polyline fill="url(#SVGID_2_)" points="24.26,0.5 24.26,11.005 6.176,11 7.51,8.585 7.887,6.031 7.885,3.752 7.634,2.177 
		7.25,0.5 24.26,0.5 	"/>
	<polygon points="6.926,1 24.26,1 24.26,0 6.635,0 	"/>
	<rect x="7.885" y="20.938" width="16.375" height="1"/>
	<rect x="18.509" y="0.002" fill="#58595B" width="2.813" height="5.19"/>
	<rect x="10.723" fill="#939598" width="2.813" height="10.5"/>
	<rect x="20.821" width="1" height="4.354"/>
	<rect x="18.01" width="1" height="4.354"/>
	<rect x="13.166" width="1" height="10.5"/>
	<rect x="10.385" width="1" height="10.5"/>
	<rect x="18.509" y="21.939" fill="#58595B" width="2.813" height="12.94"/>
	<rect x="10.723" y="21.938" fill="#939598" width="2.813" height="12.939"/>
	<rect x="20.821" y="21.938" width="1" height="12.942"/>
	<rect x="18.01" y="21.938" width="1" height="12.942"/>
	<rect x="13.166" y="21.938" width="1" height="12.939"/>
	<rect x="10.385" y="21.938" width="1" height="12.939"/>
	<rect x="0.177" y="10.5" width="24.083" height="1"/>
	<path d="M7.885,20.938c0,0-4.801,0.125-6.713-9.438H0.177c0,0,1.489,9.781,7.708,10.438"/>
	<path d="M6.926,1c0,0,1.459,7.083-0.833,9.5h1.291c0,0,1.918-3.208,0.501-9.5H6.926z"/>
	<path d="M20.821,4.354c0,0-0.048,0.693-0.906,0.693c0,0-0.905,0.004-0.905-0.693h-1c0,0,0.139,1.678,1.905,1.678
		c0,0,1.906-0.074,1.906-1.678H20.821z"/>
</g>
</svg>
