<?xml version="1.0" encoding="utf-8"?>
<!-- Generator: Adobe Illustrator 16.0.0, SVG Export Plug-In . SVG Version: 6.00 Build 0)  -->
<!DOCTYPE svg PUBLIC "-//W3C//DTD SVG 1.1//EN" "http://www.w3.org/Graphics/SVG/1.1/DTD/svg11.dtd">
<svg version="1.1" id="Layer_3" xmlns="http://www.w3.org/2000/svg" xmlns:xlink="http://www.w3.org/1999/xlink" x="0px" y="0px"
	 width="24.26px" height="34.879px" viewBox="0 0 24.26 34.879" enable-background="new 0 0 24.26 34.879" xml:space="preserve">
<g>
	
		<linearGradient id="SVGID_1_" gradientUnits="userSpaceOnUse" x1="700.3955" y1="-1047.4165" x2="700.3955" y2="-1057.8726" gradientTransform="matrix(-1 0 0 -1 712.8184 -1023.4756)">
		<stop  offset="0" style="stop-color:#C2C2C2"/>
		<stop  offset="0.0673" style="stop-color:#B1B1B1"/>
		<stop  offset="0.2964" style="stop-color:#7E7E7E"/>
		<stop  offset="0.5119" style="stop-color:#6E6E6E"/>
		<stop  offset="0.7074" style="stop-color:#454545"/>
		<stop  offset="0.8766" style="stop-color:#5E5E5E"/>
		<stop  offset="1" style="stop-color:#949494"/>
	</linearGradient>
	<polyline fill="url(#SVGID_1_)" points="24.26,24.441 24.26,23.946 23.76,24.108 0.585,23.941 0.585,24.441 2.177,29.419 
		3.509,31.608 5.071,33.229 7.249,34.397 24.26,34.397 24.26,24.441 	"/>
	
		<linearGradient id="SVGID_2_" gradientUnits="userSpaceOnUse" x1="697.6006" y1="-1047.4224" x2="697.6006" y2="-1036.917" gradientTransform="matrix(-1 0 0 -1 712.8184 -1023.4756)">
		<stop  offset="0" style="stop-color:#C2C2C2"/>
		<stop  offset="0.0032" style="stop-color:#B9B9B9"/>
		<stop  offset="0.0129" style="stop-color:#A3A3A3"/>
		<stop  offset="0.0243" style="stop-color:#929292"/>
		<stop  offset="0.0385" style="stop-color:#878787"/>
		<stop  offset="0.0584" style="stop-color:#808080"/>
		<stop  offset="0.1136" style="stop-color:#7E7E7E"/>
		<stop  offset="0.1233" style="stop-color:#7C7C7C"/>
		<stop  offset="0.3676" style="stop-color:#555555"/>
		<stop  offset="0.5917" style="stop-color:#383838"/>
		<stop  offset="0.7865" style="stop-color:#272727"/>
		<stop  offset="0.9301" style="stop-color:#212121"/>
	</linearGradient>
	<polyline fill="url(#SVGID_2_)" points="24.26,13.441 7.249,13.441 7.634,15.118 7.884,16.693 7.886,18.973 7.509,21.526 
		6.175,23.941 24.26,23.946 24.26,13.441 	"/>
	<polygon points="6.634,12.941 24.26,12.941 24.26,13.941 6.925,13.941 	"/>
	<rect x="7.884" y="33.879" width="16.376" height="1"/>
	<rect x="18.509" y="12.943" fill="#58595B" width="2.813" height="5.19"/>
	<rect x="10.722" y="12.941" fill="#939598" width="2.814" height="10.5"/>
	<rect x="20.821" y="12.941" width="1" height="4.354"/>
	<rect x="18.01" y="12.941" width="1" height="4.354"/>
	<rect x="13.166" y="12.941" width="1" height="10.5"/>
	<rect x="10.384" y="12.941" width="1" height="10.5"/>
	<rect x="18.509" y="0.002" fill="#58595B" width="2.813" height="12.938"/>
	<rect x="10.722" fill="#939598" width="2.814" height="12.939"/>
	<rect x="20.821" width="1" height="12.941"/>
	<rect x="18.01" width="1" height="12.941"/>
	<rect x="13.166" width="1" height="12.939"/>
	<rect x="10.384" width="1" height="12.939"/>
	<rect x="0.177" y="23.441" width="24.083" height="1"/>
	<path d="M7.884,34.879c-6.219-0.656-7.707-10.438-7.707-10.438h0.994c1.912,9.563,6.713,9.438,6.713,9.438"/>
	<path d="M7.884,13.941c1.418,6.292-0.5,9.5-0.5,9.5H6.093c2.291-2.417,0.832-9.5,0.832-9.5H7.884z"/>
	<path d="M21.821,17.296c0,1.604-1.906,1.678-1.906,1.678c-1.766,0-1.905-1.678-1.905-1.678h1c0,0.696,0.905,0.692,0.905,0.692
		c0.859,0,0.906-0.692,0.906-0.692H21.821z"/>
</g>
</svg>
