<?xml version="1.0" encoding="utf-8"?>
<!-- Generator: Adobe Illustrator 16.0.0, SVG Export Plug-In . SVG Version: 6.00 Build 0)  -->
<!DOCTYPE svg PUBLIC "-//W3C//DTD SVG 1.1//EN" "http://www.w3.org/Graphics/SVG/1.1/DTD/svg11.dtd">
<svg version="1.1" id="Layer_1" xmlns="http://www.w3.org/2000/svg" xmlns:xlink="http://www.w3.org/1999/xlink" x="0px" y="0px"
	 width="24.26px" height="34.23px" viewBox="0 0 24.26 34.23" enable-background="new 0 0 24.26 34.23" xml:space="preserve">
<g>
	<g id="Layer_3">
		<rect y="16.448" fill="#636363" width="24" height="4.552"/>
		<rect x="2.938" y="21.438" fill="#58595B" width="2.813" height="12.793"/>
		<rect x="10.724" y="21.438" fill="#939598" width="2.813" height="12.793"/>
		<polygon fill="#A8A8A8" points="19.813,0.51 23.674,16.205 0,16.205 0,0.51 		"/>
		<ellipse fill="#787878" cx="12.507" cy="9.286" rx="1.909" ry="0.787"/>
		<ellipse fill="#787878" cx="4.368" cy="5.202" rx="1.909" ry="0.787"/>
	</g>
	<g id="Layer_2">
		<rect y="15.938" width="24.26" height="1.021"/>
		<polygon points="20.47,1.021 0,1.021 0,0 20.25,0 		"/>
		<rect y="20.719" width="24.26" height="1.017"/>
		<rect x="23.088" y="15.938" width="1.172" height="5.75"/>
		<polygon points="20.25,0 24.26,15.938 23.088,15.938 19.188,0 		"/>
		<rect x="2.438" y="21.688" width="1" height="12.543"/>
		<rect x="5.25" y="21.688" width="1" height="12.543"/>
		<rect x="10.094" y="21.688" width="1" height="12.543"/>
		<rect x="12.875" y="21.688" width="1" height="12.543"/>
	</g>
</g>
</svg>
