<?xml version="1.0" encoding="utf-8"?>
<!-- Generator: Adobe Illustrator 16.0.0, SVG Export Plug-In . SVG Version: 6.00 Build 0)  -->
<!DOCTYPE svg PUBLIC "-//W3C//DTD SVG 1.1//EN" "http://www.w3.org/Graphics/SVG/1.1/DTD/svg11.dtd">
<svg version="1.1" id="Layer_2" xmlns="http://www.w3.org/2000/svg" xmlns:xlink="http://www.w3.org/1999/xlink" x="0px" y="0px"
	 width="24.26px" height="34.23px" viewBox="0 0 24.26 34.23" enable-background="new 0 0 24.26 34.23" xml:space="preserve">
<g>
	<rect x="0.26" y="16.448" fill="#636363" width="24" height="4.552"/>
	<rect x="18.51" y="21.438" fill="#58595B" width="2.813" height="12.793"/>
	<rect x="10.724" y="21.438" fill="#939598" width="2.813" height="12.793"/>
	<polygon fill="#A8A8A8" points="4.447,0.511 0.586,16.205 24.26,16.205 24.26,0.511 	"/>
	<ellipse fill="#787878" cx="11.752" cy="9.286" rx="1.909" ry="0.787"/>
	<ellipse fill="#787878" cx="19.892" cy="5.202" rx="1.909" ry="0.787"/>
	<rect y="15.938" width="24.26" height="1.021"/>
	<polygon points="3.791,1.021 24.26,1.021 24.26,0 4.01,0 	"/>
	<rect y="20.719" width="24.26" height="1.016"/>
	<rect y="15.938" width="1.172" height="5.75"/>
	<polygon points="4.01,0 0,15.938 1.172,15.938 5.072,0 	"/>
	<rect x="20.822" y="21.688" width="1" height="12.543"/>
	<rect x="18.01" y="21.688" width="1" height="12.543"/>
	<rect x="13.166" y="21.688" width="1" height="12.543"/>
	<rect x="10.385" y="21.688" width="1" height="12.543"/>
</g>
</svg>
