<?xml version="1.0" encoding="utf-8"?>
<!-- Generator: Adobe Illustrator 16.0.0, SVG Export Plug-In . SVG Version: 6.00 Build 0)  -->
<!DOCTYPE svg PUBLIC "-//W3C//DTD SVG 1.1//EN" "http://www.w3.org/Graphics/SVG/1.1/DTD/svg11.dtd">
<svg version="1.1" id="Layer_3" xmlns="http://www.w3.org/2000/svg" xmlns:xlink="http://www.w3.org/1999/xlink" x="0px" y="0px"
	 width="24.26px" height="34.879px" viewBox="0 0 24.26 34.879" enable-background="new 0 0 24.26 34.879" xml:space="preserve">
<g>
	
		<linearGradient id="SVGID_1_" gradientUnits="userSpaceOnUse" x1="700.5713" y1="-1047.4175" x2="700.5713" y2="-1057.8735" gradientTransform="matrix(1 0 0 -1 -688.7344 -1023.4756)">
		<stop  offset="0" style="stop-color:#C2C2C2"/>
		<stop  offset="0.0673" style="stop-color:#B1B1B1"/>
		<stop  offset="0.2964" style="stop-color:#7E7E7E"/>
		<stop  offset="0.5119" style="stop-color:#6E6E6E"/>
		<stop  offset="0.7074" style="stop-color:#454545"/>
		<stop  offset="0.8766" style="stop-color:#5E5E5E"/>
		<stop  offset="1" style="stop-color:#949494"/>
	</linearGradient>
	<polyline fill="url(#SVGID_1_)" points="0,24.441 0,34.397 17.011,34.397 19.188,33.229 20.751,31.608 22.083,29.419 
		23.675,24.441 23.675,23.941 0.5,24.108 0,23.946 0,24.441 	"/>
	
		<linearGradient id="SVGID_2_" gradientUnits="userSpaceOnUse" x1="697.7783" y1="-1047.4214" x2="697.7783" y2="-1036.917" gradientTransform="matrix(1 0 0 -1 -688.7344 -1023.4756)">
		<stop  offset="0" style="stop-color:#C2C2C2"/>
		<stop  offset="0.0032" style="stop-color:#B9B9B9"/>
		<stop  offset="0.0129" style="stop-color:#A3A3A3"/>
		<stop  offset="0.0243" style="stop-color:#929292"/>
		<stop  offset="0.0385" style="stop-color:#878787"/>
		<stop  offset="0.0584" style="stop-color:#808080"/>
		<stop  offset="0.1136" style="stop-color:#7E7E7E"/>
		<stop  offset="0.1233" style="stop-color:#7C7C7C"/>
		<stop  offset="0.3676" style="stop-color:#555555"/>
		<stop  offset="0.5917" style="stop-color:#383838"/>
		<stop  offset="0.7865" style="stop-color:#272727"/>
		<stop  offset="0.9301" style="stop-color:#212121"/>
	</linearGradient>
	<polyline fill="url(#SVGID_2_)" points="0,13.441 0,23.946 18.085,23.941 16.751,21.526 16.374,18.973 16.376,16.693 
		16.626,15.118 17.011,13.441 0,13.441 	"/>
	<polygon points="17.335,13.941 0,13.941 0,12.941 17.626,12.941 	"/>
	<rect y="33.879" width="16.376" height="1"/>
	<rect x="2.938" y="12.943" fill="#58595B" width="2.813" height="5.19"/>
	<rect x="10.724" y="12.941" fill="#939598" width="2.814" height="10.5"/>
	<rect x="2.438" y="12.941" width="1" height="4.354"/>
	<rect x="5.25" y="12.941" width="1" height="4.354"/>
	<rect x="10.094" y="12.941" width="1" height="10.5"/>
	<rect x="12.876" y="12.941" width="1" height="10.5"/>
	<rect x="2.938" y="0.002" fill="#58595B" width="2.813" height="12.938"/>
	<rect x="10.724" fill="#939598" width="2.814" height="12.939"/>
	<rect x="2.438" width="1" height="12.941"/>
	<rect x="5.25" width="1" height="12.941"/>
	<rect x="10.094" width="1" height="12.939"/>
	<rect x="12.876" width="1" height="12.939"/>
	<rect y="23.441" width="24.083" height="1"/>
	<path d="M16.376,33.879c0,0,4.801,0.125,6.713-9.438h0.994c0,0-1.488,9.781-7.707,10.438"/>
	<path d="M17.335,13.941c0,0-1.459,7.083,0.832,9.5h-1.291c0,0-1.918-3.208-0.5-9.5H17.335z"/>
	<path d="M3.438,17.296c0,0,0.047,0.692,0.906,0.692c0,0,0.905,0.004,0.905-0.692h1c0,0-0.14,1.678-1.905,1.678
		c0,0-1.906-0.074-1.906-1.678H3.438z"/>
</g>
</svg>
