<?xml version="1.0" encoding="utf-8"?>
<!-- Generator: Adobe Illustrator 16.0.0, SVG Export Plug-In . SVG Version: 6.00 Build 0)  -->
<!DOCTYPE svg PUBLIC "-//W3C//DTD SVG 1.1//EN" "http://www.w3.org/Graphics/SVG/1.1/DTD/svg11.dtd">
<svg version="1.1" id="robot2_x5F_side" xmlns="http://www.w3.org/2000/svg" xmlns:xlink="http://www.w3.org/1999/xlink" x="0px"
	 y="0px" width="121px" height="99px" viewBox="0 0 121 99" enable-background="new 0 0 121 99" xml:space="preserve">
<g>
	<ellipse fill="#EDEDED" stroke="#000000" stroke-miterlimit="10" cx="60.813" cy="63.525" rx="32.614" ry="31.709"/>
	<path fill="#EDEDED" stroke="#000000" stroke-miterlimit="10" d="M94.011,81.244c0,1.483-0.146,2.688-0.324,2.688h-4.73
		c-0.179,0-0.324-1.204-0.324-2.688V54.346c0-1.485,0.146-2.688,0.324-2.688h4.73c0.179,0,0.324,1.203,0.324,2.688V81.244z"/>
	<path fill="#EDEDED" stroke="#000000" stroke-miterlimit="10" d="M32.367,81.244c0,1.483-0.146,2.688-0.323,2.688h-4.73
		c-0.18,0-0.324-1.204-0.324-2.688V54.346c0-1.485,0.145-2.688,0.324-2.688h4.73c0.178,0,0.323,1.203,0.323,2.688V81.244z"/>
	<g>
		<path fill="#EDEDED" stroke="#000000" stroke-miterlimit="10" d="M62.352,54.868c-2.11-0.154-3.251-2.906-2.548-6.144
			c0.704-3.238,2.986-5.737,5.097-5.583c2.112,0.156,3.253,2.906,2.548,6.145C66.745,52.523,64.462,55.022,62.352,54.868z"/>
		<g>
			<path fill="#EDEDED" stroke="#000000" stroke-miterlimit="10" d="M44.286,62.742c0.313,0.216,0.695,0.329,1.103,0.31
				c0.989-0.049,1.747-0.891,1.696-1.879c-0.154-3.008,0.634-5.303,2.404-7.012c4.21-4.06,12.425-3.398,12.506-3.391
				c0.984,0.086,1.854-0.645,1.939-1.63c0.087-0.981-0.644-1.853-1.629-1.938c-0.402-0.035-9.934-0.799-15.301,4.381
				c-2.527,2.439-3.703,5.727-3.495,9.773C43.539,61.937,43.841,62.438,44.286,62.742z"/>
		</g>
		<path fill="#EDEDED" stroke="#000000" stroke-miterlimit="10" d="M45.411,77.323l0.827-4.222c1.601-0.804,2.827-2.308,3.198-4.2
			c0.636-3.252-1.48-6.406-4.732-7.042c-3.254-0.637-6.406,1.482-7.044,4.731c-0.321,1.641,0.062,3.256,0.935,4.535l-0.87,4.439
			c-2.917-2.174-4.502-5.891-3.754-9.699c1.036-5.289,6.166-8.737,11.456-7.697c5.289,1.037,8.736,6.166,7.701,11.456
			C52.339,73.638,49.194,76.586,45.411,77.323z"/>
		<circle fill="#EDEDED" stroke="#000000" stroke-miterlimit="10" cx="45.119" cy="60.893" r="4.1"/>
	</g>
	<ellipse fill="#EDEDED" stroke="#000000" stroke-miterlimit="10" cx="72.858" cy="40.951" rx="2.074" ry="2.186"/>
	<path fill="#EDEDED" stroke="#000000" stroke-miterlimit="10" d="M61.821,8.952H40.639l3.699,7.957c0,0,14.569-1.904,14.569,3.476
		c0,0,0.717,5.979-0.806,10.138c-1.938,0.438-3.229,1.204-3.229,2.08c0,1.36,3.111,2.465,6.949,2.465s6.949-1.104,6.949-2.465
		c0-0.876-1.291-1.644-3.229-2.08c-1.523-4.157-0.807-10.138-0.807-10.138c0-5.38,14.57-3.476,14.57-3.476l3.697-7.957H61.821z"/>
	
		<ellipse transform="matrix(0.3051 -0.9523 0.9523 0.3051 0.8398 85.3238)" fill="#EDEDED" stroke="#000000" stroke-miterlimit="10" cx="58.885" cy="42.086" rx="4.203" ry="10.424"/>
	
		<ellipse transform="matrix(0.3402 -0.9404 0.9404 0.3402 -36.376 115.957)" fill="#EDEDED" stroke="#000000" stroke-miterlimit="10" cx="64.439" cy="83.899" rx="14.685" ry="9.933"/>
	<path fill="#EDEDED" stroke="#000000" stroke-miterlimit="10" d="M82.012,16.216c0,2.527-2.056,4.574-4.591,4.574H44.323
		c-2.535,0-4.591-2.047-4.591-4.574l0,0c0-2.525,2.056-4.573,4.591-4.573h33.098C79.956,11.643,82.012,13.69,82.012,16.216
		L82.012,16.216z"/>
	<path fill="#EDEDED" stroke="#000000" stroke-miterlimit="10" d="M86.482,17.41c0,3.187-2.583,5.769-5.769,5.769h-3.005
		c-3.187,0-5.769-2.582-5.769-5.769l0,0c0-3.187,2.582-5.769,5.769-5.769h3.005C83.899,11.642,86.482,14.224,86.482,17.41
		L86.482,17.41z"/>
	<ellipse fill="#EDEDED" stroke="#000000" stroke-miterlimit="10" cx="81.829" cy="16.909" rx="4.653" ry="5.829"/>
	<ellipse fill="#EDEDED" stroke="#000000" stroke-miterlimit="10" cx="81.829" cy="16.909" rx="3.311" ry="4.147"/>
	<path fill="#EDEDED" stroke="#000000" stroke-miterlimit="10" d="M91.308,11.642c0.004-0.074,0.014-0.146,0.014-0.225
		c0-5.818-12.545-10.536-28.02-10.536c-15.477,0-28.021,4.718-28.021,10.536c0,0.075,0.012,0.147,0.016,0.225H91.308z"/>
</g>
</svg>
