<?xml version="1.0" encoding="utf-8"?>
<!-- Generator: Adobe Illustrator 16.0.0, SVG Export Plug-In . SVG Version: 6.00 Build 0)  -->
<!DOCTYPE svg PUBLIC "-//W3C//DTD SVG 1.1//EN" "http://www.w3.org/Graphics/SVG/1.1/DTD/svg11.dtd">
<svg version="1.1" id="robot3_x5F_side" xmlns="http://www.w3.org/2000/svg" xmlns:xlink="http://www.w3.org/1999/xlink" x="0px"
	 y="0px" width="90px" height="105px" viewBox="0 0 90 105" enable-background="new 0 0 90 105" xml:space="preserve">
<g>
	<g>
		<path fill="#EDEDED" stroke="#000000" stroke-miterlimit="10" d="M69.248,79.551c0,13.395-10.855,24.246-24.248,24.246l0,0
			c-13.392,0-24.248-10.854-24.248-24.246V25.45C20.752,12.056,31.607,1.203,45,1.203l0,0c13.391,0,24.248,10.854,24.248,24.247
			V79.551z"/>
		<path fill="#EDEDED" stroke="#000000" stroke-miterlimit="10" d="M22.5,79.674c0,1.613-0.125,2.924-0.278,2.924h-2.94
			c-0.153,0-0.278-1.311-0.278-2.924V55.426c0-1.615,0.125-2.926,0.278-2.926h2.94c0.153,0,0.278,1.311,0.278,2.926V79.674z"/>
		<path fill="#EDEDED" stroke="#000000" stroke-miterlimit="10" d="M70.996,79.674c0,1.613-0.125,2.924-0.277,2.924h-2.941
			c-0.152,0-0.277-1.311-0.277-2.924V55.426c0-1.615,0.125-2.926,0.277-2.926h2.941c0.152,0,0.277,1.311,0.277,2.926V79.674z"/>
		<path fill="#EDEDED" stroke="#000000" stroke-miterlimit="10" d="M20.753,30.325c0,0,30.462-6.459,48.495,1.339"/>
		<path fill="#EDEDED" stroke="#000000" stroke-miterlimit="10" d="M20.753,44.796c0,0,30.462-6.459,48.495,1.341"/>
		
			<ellipse transform="matrix(-0.2791 -0.9603 0.9603 -0.2791 12.2961 100.0986)" fill="#EDEDED" stroke="#000000" stroke-miterlimit="10" cx="43.723" cy="45.434" rx="7.981" ry="8.042"/>
		<g>
			<g>
				<path fill="#EDEDED" stroke="#000000" stroke-miterlimit="10" d="M39.884,70.043c0.297-0.072,0.573-0.242,0.778-0.504
					c0.5-0.625,0.401-1.535-0.226-2.039c-1.905-1.523-2.874-3.229-2.962-5.223c-0.204-4.732,4.609-9.355,4.66-9.403
					c0.581-0.551,0.606-1.47,0.054-2.051c-0.549-0.579-1.468-0.605-2.049-0.053c-0.238,0.224-5.817,5.595-5.56,11.628
					c0.122,2.84,1.481,5.32,4.048,7.365C38.995,70.063,39.458,70.148,39.884,70.043z"/>
			</g>
			<path fill="#EDEDED" stroke="#000000" stroke-miterlimit="10" d="M49.326,77.188l-2.115-2.766
				c0.367-1.402,0.117-2.955-0.834-4.195c-1.627-2.129-4.674-2.541-6.806-0.91c-2.132,1.633-2.54,4.68-0.912,6.811
				c0.822,1.076,2.006,1.709,3.251,1.869l2.225,2.908c-2.885,0.602-5.989-0.432-7.897-2.932c-2.651-3.467-1.986-8.428,1.482-11.078
				c3.47-2.65,8.431-1.986,11.083,1.482C50.811,71.012,50.91,74.502,49.326,77.188z"/>
			<circle fill="#EDEDED" stroke="#000000" stroke-miterlimit="10" cx="39.209" cy="68.545" r="3.319"/>
		</g>
	</g>
	<path fill="#EDEDED" stroke="#000000" stroke-miterlimit="10" d="M69.248,25.45c0-3.733-0.846-7.268-2.352-10.427h-4.098
		c-4.844,0-8.77,3.93-8.77,8.773v8.771h15.219V25.45z"/>
	<circle fill="#EDEDED" stroke="#000000" stroke-miterlimit="10" cx="62.313" cy="26.23" r="4.143"/>
</g>
</svg>
