<?xml version="1.0" encoding="utf-8"?>
<!-- Generator: Adobe Illustrator 16.0.0, SVG Export Plug-In . SVG Version: 6.00 Build 0)  -->
<!DOCTYPE svg PUBLIC "-//W3C//DTD SVG 1.1//EN" "http://www.w3.org/Graphics/SVG/1.1/DTD/svg11.dtd">
<svg version="1.1" id="robot4_x5F_front" xmlns="http://www.w3.org/2000/svg" xmlns:xlink="http://www.w3.org/1999/xlink" x="0px"
	 y="0px" width="112px" height="98px" viewBox="0 0 112 98" enable-background="new 0 0 112 98" xml:space="preserve">
<g>
	<polygon fill="#EDEDED" stroke="#000000" stroke-miterlimit="10" points="59.027,69.209 48.683,69.209 52.533,89.209 
		48.683,89.209 48.683,96.334 53.855,96.334 53.855,90.574 	"/>
	<ellipse fill="#EDEDED" stroke="#000000" stroke-miterlimit="10" cx="48.683" cy="74.943" rx="5.058" ry="6.564"/>
	<path fill="#EDEDED" stroke="#000000" stroke-miterlimit="10" d="M85.809,56.311c0,7.619-6.174,13.795-13.793,13.795H39.946
		c-7.617,0-13.793-6.176-13.793-13.795V30.124c0-7.615,6.176-13.793,13.793-13.793h32.069c7.619,0,13.793,6.178,13.793,13.793
		V56.311z"/>
	<path fill="#EDEDED" stroke="#000000" stroke-miterlimit="10" d="M78.338,51.623c0,1.523-1.234,2.76-2.758,2.76H38.223
		c-1.523,0-2.759-1.234-2.759-2.76V31.737c0-1.521,1.232-2.759,2.759-2.759H75.58c1.52,0,2.758,1.233,2.758,2.759V51.623z"/>
	<path fill="#EDEDED" stroke="#000000" stroke-miterlimit="10" d="M75.35,49.555c0,1.521-1.234,2.758-2.758,2.758h-31.15
		c-1.521,0-2.759-1.232-2.759-2.758v-15.52c0-1.521,1.235-2.76,2.759-2.76h31.15c1.52,0,2.758,1.235,2.758,2.76V49.555z"/>
	<path fill="#EDEDED" stroke="#000000" stroke-miterlimit="10" d="M73.051,37.657c0,0.479-0.387,0.862-0.863,0.862l0,0
		c-0.475,0-0.861-0.386-0.861-0.862V34.21c0-0.477,0.389-0.86,0.861-0.86l0,0c0.48,0,0.863,0.387,0.863,0.86V37.657z"/>
	<path fill="#EDEDED" stroke="#000000" stroke-miterlimit="10" d="M71.258,1.666H40.705c-4.135,0-7.481,3.352-7.481,7.481v6.988
		c0,3.858,10.188,6.987,22.758,6.987c12.569,0,22.759-3.129,22.759-6.987V9.147C78.74,5.016,75.391,1.666,71.258,1.666z"/>
	<path fill="#EDEDED" stroke="#000000" stroke-miterlimit="10" d="M75.018,11.902c0,2.238-1.646,4.054-3.676,4.054H41.36
		c-2.028,0-3.676-1.813-3.676-4.054l0,0c0-2.237,1.646-4.053,3.676-4.053h29.981C73.371,7.85,75.018,9.664,75.018,11.902
		L75.018,11.902z"/>
	<circle fill="#EDEDED" stroke="#000000" stroke-miterlimit="10" cx="47.512" cy="10.551" r="2.702"/>
	<circle fill="#EDEDED" stroke="#000000" stroke-miterlimit="10" cx="66.441" cy="10.551" r="2.702"/>
	<g>
		<path fill="#EDEDED" stroke="#000000" stroke-miterlimit="10" d="M30.374,36.489c0.557,2.998,0.088,5.596-1.05,5.807
			c-1.134,0.214-2.505-2.044-3.063-5.038c-0.557-2.997-0.088-5.598,1.046-5.81C28.446,31.236,29.817,33.493,30.374,36.489z"/>
		<g>
			<path fill="#EDEDED" stroke="#000000" stroke-miterlimit="10" d="M11.121,49.007c0.282,0.215,0.639,0.337,1.02,0.331
				c0.924-0.009,1.664-0.763,1.655-1.688c-0.025-2.813,0.798-4.921,2.518-6.445c4.082-3.624,11.72-2.686,11.793-2.677
				c0.918,0.119,1.756-0.526,1.873-1.442c0.119-0.913-0.524-1.754-1.44-1.869c-0.375-0.051-9.234-1.134-14.442,3.487
				c-2.45,2.176-3.676,5.196-3.644,8.979C10.455,48.226,10.718,48.704,11.121,49.007z"/>
		</g>
		<path fill="#EDEDED" stroke="#000000" stroke-miterlimit="10" d="M11.603,62.65l0.938-3.906c1.521-0.688,2.727-2.043,3.145-3.793
			c0.723-3.008-1.131-6.031-4.139-6.754c-3.012-0.722-6.031,1.134-6.753,4.141c-0.363,1.521-0.069,3.041,0.692,4.27l-0.981,4.107
			c-2.638-2.145-3.973-5.672-3.124-9.193c1.173-4.895,6.093-7.907,10.98-6.735c4.896,1.174,7.909,6.095,6.736,10.985
			C18.205,59.484,15.159,62.109,11.603,62.65z"/>
		<circle fill="#EDEDED" stroke="#000000" stroke-miterlimit="10" cx="11.971" cy="47.313" r="3.828"/>
	</g>
	<path fill="#EDEDED" stroke="#000000" stroke-miterlimit="10" d="M31.326,33.462c0,1.522-1.232,2.761-2.759,2.761h-4.939
		c-1.523,0-2.762-1.235-2.762-2.761v-0.229c0-1.522,1.235-2.759,2.762-2.759h4.939c1.523,0,2.759,1.233,2.759,2.759V33.462z"/>
	<g>
		<path fill="#EDEDED" stroke="#000000" stroke-miterlimit="10" d="M81.623,36.489c-0.559,2.998-0.09,5.596,1.047,5.807
			c1.135,0.214,2.506-2.044,3.063-5.038c0.561-2.997,0.088-5.598-1.045-5.81C83.551,31.236,82.18,33.493,81.623,36.489z"/>
		<g>
			<path fill="#EDEDED" stroke="#000000" stroke-miterlimit="10" d="M100.877,49.007c-0.283,0.215-0.639,0.337-1.02,0.331
				c-0.924-0.009-1.664-0.763-1.656-1.688c0.027-2.813-0.797-4.921-2.516-6.445c-4.084-3.624-11.721-2.686-11.795-2.677
				c-0.916,0.119-1.756-0.526-1.873-1.442c-0.119-0.913,0.527-1.754,1.443-1.869c0.375-0.051,9.232-1.134,14.439,3.487
				c2.451,2.176,3.678,5.196,3.645,8.979C101.543,48.226,101.281,48.704,100.877,49.007z"/>
		</g>
		<path fill="#EDEDED" stroke="#000000" stroke-miterlimit="10" d="M100.396,62.65l-0.938-3.906
			c-1.523-0.688-2.729-2.043-3.146-3.793c-0.721-3.008,1.133-6.031,4.141-6.754c3.012-0.722,6.031,1.134,6.756,4.141
			c0.359,1.521,0.066,3.041-0.695,4.27l0.984,4.107c2.635-2.145,3.969-5.672,3.121-9.193c-1.174-4.895-6.092-7.907-10.98-6.735
			c-4.896,1.174-7.91,6.095-6.736,10.985C93.791,59.484,96.84,62.109,100.396,62.65z"/>
		<circle fill="#EDEDED" stroke="#000000" stroke-miterlimit="10" cx="100.027" cy="47.313" r="3.828"/>
	</g>
	<path fill="#EDEDED" stroke="#000000" stroke-miterlimit="10" d="M80.672,33.462c0,1.522,1.232,2.761,2.758,2.761h4.943
		c1.52,0,2.758-1.235,2.758-2.761v-0.229c0-1.522-1.234-2.759-2.758-2.759H83.43c-1.523,0-2.758,1.233-2.758,2.759V33.462z"/>
	<path fill="#EDEDED" stroke="#000000" stroke-miterlimit="10" d="M59.266,19.085c0,0.479-0.387,0.865-0.865,0.865h-2.555
		c-0.479,0-0.865-0.389-0.865-0.865l0,0c0-0.479,0.388-0.863,0.865-0.863H58.4C58.879,18.22,59.266,18.607,59.266,19.085
		L59.266,19.085z"/>
</g>
</svg>
