<?xml version="1.0" encoding="utf-8"?>
<!-- Generator: Adobe Illustrator 16.0.0, SVG Export Plug-In . SVG Version: 6.00 Build 0)  -->
<!DOCTYPE svg PUBLIC "-//W3C//DTD SVG 1.1//EN" "http://www.w3.org/Graphics/SVG/1.1/DTD/svg11.dtd">
<svg version="1.1" id="robot3_x5F_front" xmlns="http://www.w3.org/2000/svg" xmlns:xlink="http://www.w3.org/1999/xlink" x="0px"
	 y="0px" width="90px" height="105px" viewBox="0 0 90 105" enable-background="new 0 0 90 105" xml:space="preserve">
<g>
	<ellipse fill="#EDEDED" stroke="#000000" stroke-miterlimit="10" cx="18.517" cy="46.136" rx="8.042" ry="7.981"/>
	<ellipse fill="#EDEDED" stroke="#000000" stroke-miterlimit="10" cx="70.668" cy="46.136" rx="8.042" ry="7.981"/>
	<path fill="#EDEDED" stroke="#000000" stroke-miterlimit="10" d="M70.668,79.551c0,13.395-10.855,24.246-24.248,24.246l0,0
		c-13.392,0-24.249-10.854-24.249-24.246V25.45c0-13.394,10.855-24.247,24.249-24.247l0,0c13.392,0,24.248,10.854,24.248,24.247
		V79.551z"/>
	<path fill="#EDEDED" stroke="#000000" stroke-miterlimit="10" d="M64.576,79.674c0,1.613-1.313,2.924-2.924,2.924H30.702
		c-1.615,0-2.925-1.311-2.925-2.924V55.426c0-1.615,1.31-2.926,2.925-2.926h30.951c1.612,0,2.924,1.311,2.924,2.926V79.674z"/>
	<path fill="#EDEDED" stroke="#000000" stroke-miterlimit="10" d="M62.6,78.371c0,1.438-1.168,2.609-2.607,2.609H32.367
		c-1.442,0-2.611-1.172-2.611-2.609V56.725c0-1.439,1.169-2.607,2.611-2.607h27.625c1.438,0,2.607,1.168,2.607,2.607V78.371z"/>
	<g>
		<g>
			<path fill="#EDEDED" stroke="#000000" stroke-miterlimit="10" d="M7.962,68.697c0.306,0.012,0.618-0.074,0.888-0.268
				c0.655-0.461,0.813-1.363,0.353-2.021c-1.404-1.994-1.858-3.902-1.387-5.842c1.125-4.602,7.037-7.697,7.099-7.729
				c0.712-0.366,0.992-1.242,0.624-1.954c-0.366-0.709-1.241-0.991-1.953-0.623c-0.291,0.148-7.147,3.747-8.584,9.612
				c-0.676,2.764-0.063,5.523,1.832,8.203C7.103,68.467,7.525,68.68,7.962,68.697z"/>
		</g>
		<path fill="#EDEDED" stroke="#000000" stroke-miterlimit="10" d="M15.037,78.193l-1.26-3.248c0.744-1.244,0.937-2.805,0.37-4.262
			c-0.969-2.5-3.779-3.744-6.282-2.773c-2.503,0.973-3.745,3.785-2.776,6.285c0.489,1.262,1.449,2.203,2.601,2.703l1.324,3.414
			c-2.938-0.229-5.63-2.088-6.765-5.02c-1.578-4.068,0.444-8.648,4.515-10.225c4.071-1.576,8.649,0.445,10.229,4.516
			C18.186,72.676,17.306,76.055,15.037,78.193z"/>
		<circle fill="#EDEDED" stroke="#000000" stroke-miterlimit="10" cx="7.733" cy="67.069" r="3.319"/>
	</g>
	<g>
		<g>
			<path fill="#EDEDED" stroke="#000000" stroke-miterlimit="10" d="M82.039,67.615c-0.309,0.014-0.617-0.072-0.889-0.266
				c-0.655-0.463-0.813-1.363-0.353-2.02c1.404-1.994,1.859-3.904,1.385-5.842c-1.125-4.604-7.038-7.698-7.096-7.729
				c-0.713-0.366-0.993-1.242-0.624-1.955c0.365-0.709,1.242-0.989,1.954-0.621c0.291,0.148,7.146,3.747,8.583,9.614
				c0.675,2.76,0.059,5.521-1.831,8.201C82.899,67.387,82.476,67.6,82.039,67.615z"/>
		</g>
		<path fill="#EDEDED" stroke="#000000" stroke-miterlimit="10" d="M74.966,77.115l1.258-3.25c-0.747-1.244-0.936-2.805-0.372-4.26
			c0.973-2.502,3.783-3.744,6.284-2.775c2.505,0.973,3.746,3.785,2.777,6.287c-0.489,1.262-1.45,2.201-2.604,2.699l-1.32,3.418
			c2.937-0.229,5.63-2.09,6.764-5.021c1.576-4.07-0.445-8.646-4.519-10.225c-4.068-1.578-8.646,0.443-10.225,4.516
			C71.815,71.596,72.695,74.975,74.966,77.115z"/>
		<circle fill="#EDEDED" stroke="#000000" stroke-miterlimit="10" cx="82.269" cy="65.987" r="3.319"/>
	</g>
	<path fill="#EDEDED" stroke="#000000" stroke-miterlimit="10" d="M22.172,30.325c0,0,30.462-6.459,48.496,1.339"/>
	<path fill="#EDEDED" stroke="#000000" stroke-miterlimit="10" d="M22.172,44.797c0,0,30.462-6.459,48.496,1.341"/>
	<path fill="#EDEDED" stroke="#000000" stroke-miterlimit="10" d="M60.555,62.033c0,0.939-0.764,1.707-1.707,1.707l0,0
		c-0.939,0-1.705-0.768-1.705-1.707v-3.809c0-0.941,0.766-1.707,1.705-1.707l0,0c0.943,0,1.707,0.766,1.707,1.707V62.033z"/>
	<path fill="#EDEDED" stroke="#000000" stroke-miterlimit="10" d="M64.576,34.347v-8.771c0-4.847-3.932-8.773-8.773-8.773H36.55
		c-4.845,0-8.771,3.93-8.771,8.773v8.771H64.576z"/>
	<circle fill="#EDEDED" stroke="#000000" stroke-miterlimit="10" cx="36.063" cy="28.009" r="4.143"/>
	<circle fill="#EDEDED" stroke="#000000" stroke-miterlimit="10" cx="55.315" cy="28.009" r="4.387"/>
</g>
</svg>
