<?xml version="1.0" encoding="utf-8"?>
<!-- Generator: Adobe Illustrator 16.0.0, SVG Export Plug-In . SVG Version: 6.00 Build 0)  -->
<!DOCTYPE svg PUBLIC "-//W3C//DTD SVG 1.1//EN" "http://www.w3.org/Graphics/SVG/1.1/DTD/svg11.dtd">
<svg version="1.1" id="robot4_x5F_side" xmlns="http://www.w3.org/2000/svg" xmlns:xlink="http://www.w3.org/1999/xlink" x="0px"
	 y="0px" width="112px" height="98px" viewBox="0 0 112 98" enable-background="new 0 0 112 98" xml:space="preserve">
<g>
	<path fill="#EDEDED" stroke="#000000" stroke-miterlimit="10" d="M71.339,1.446H40.786c-4.135,0-7.48,3.352-7.48,7.481v6.988
		c0,3.858,10.188,6.987,22.758,6.987s22.758-3.129,22.758-6.987V8.928C78.821,4.796,75.472,1.446,71.339,1.446z"/>
	<polygon fill="#EDEDED" stroke="#000000" stroke-miterlimit="10" points="54.976,90.354 54.976,96.114 60.147,96.114 
		60.147,88.989 56.298,88.989 60.147,68.989 49.804,68.989 	"/>
	<ellipse fill="#EDEDED" stroke="#000000" stroke-miterlimit="10" cx="55.315" cy="75.388" rx="5.573" ry="7.229"/>
	<path fill="#EDEDED" stroke="#000000" stroke-miterlimit="10" d="M85.892,56.091c0,7.619-6.176,13.795-13.793,13.795h-32.07
		c-7.617,0-13.793-6.176-13.793-13.795V29.904c0-7.615,6.176-13.793,13.793-13.793h32.07c7.617,0,13.793,6.178,13.793,13.793V56.091
		z"/>
	<path fill="#EDEDED" stroke="#000000" stroke-miterlimit="10" d="M27.469,51.403c0,1.523-0.079,2.76-0.175,2.76h-2.371
		c-0.097,0-0.175-1.234-0.175-2.76V31.518c0-1.521,0.078-2.759,0.175-2.759h2.371c0.097,0,0.175,1.233,0.175,2.759V51.403z"/>
	<path fill="#EDEDED" stroke="#000000" stroke-miterlimit="10" d="M87.253,51.403c0,1.523-0.079,2.76-0.176,2.76h-2.371
		c-0.097,0-0.176-1.234-0.176-2.76V31.518c0-1.521,0.078-2.759,0.176-2.759h2.371c0.097,0,0.176,1.233,0.176,2.759V51.403z"/>
	<rect x="54.976" y="88.353" fill="#EDEDED" stroke="#000000" stroke-miterlimit="10" width="5.172" height="8.201"/>
	<g>
		<path fill="#EDEDED" stroke="#000000" stroke-miterlimit="10" d="M60.385,38.508c-0.33,2.654-2.201,4.001-4.19,3.009
			c-1.98-0.985-3.321-3.938-2.998-6.591c0.329-2.652,2.201-4.003,4.184-3.015C59.37,32.904,60.712,35.854,60.385,38.508z"/>
		<g>
			<path fill="#EDEDED" stroke="#000000" stroke-miterlimit="10" d="M45.257,53.415c0.342,0.1,0.717,0.084,1.07-0.057
				c0.859-0.34,1.279-1.311,0.94-2.17c-1.034-2.616-1.023-4.88,0.035-6.92c2.508-4.849,9.973-6.715,10.045-6.733
				c0.899-0.219,1.45-1.121,1.229-2.019c-0.216-0.895-1.119-1.448-2.017-1.229c-0.368,0.089-9.025,2.26-12.225,8.442
				c-1.506,2.91-1.565,6.169-0.177,9.69C44.355,52.925,44.773,53.276,45.257,53.415z"/>
		</g>
		<path fill="#EDEDED" stroke="#000000" stroke-miterlimit="10" d="M50.606,65.974l-0.527-3.98c1.173-1.188,1.811-2.887,1.573-4.67
			c-0.405-3.066-3.221-5.223-6.288-4.816c-3.07,0.408-5.222,3.225-4.815,6.289c0.207,1.549,1.026,2.863,2.178,3.736l0.56,4.186
			c-3.232-1.055-5.745-3.867-6.218-7.459c-0.662-4.988,2.848-9.566,7.83-10.229c4.991-0.663,9.571,2.848,10.231,7.834
			C55.63,60.649,53.731,64.194,50.606,65.974z"/>
		<circle fill="#EDEDED" stroke="#000000" stroke-miterlimit="10" cx="45.442" cy="51.528" r="3.827"/>
	</g>
	<path fill="#EDEDED" stroke="#000000" stroke-miterlimit="10" d="M62.071,33.242c0,1.522-1.232,2.761-2.758,2.761h-4.94
		c-1.523,0-2.762-1.235-2.762-2.761v-0.229c0-1.522,1.234-2.759,2.762-2.759h4.94c1.523,0,2.758,1.233,2.758,2.759V33.242z"/>
</g>
</svg>
