<?xml version="1.0" encoding="utf-8"?>
<!-- Generator: Adobe Illustrator 16.0.0, SVG Export Plug-In . SVG Version: 6.00 Build 0)  -->
<!DOCTYPE svg PUBLIC "-//W3C//DTD SVG 1.1//EN" "http://www.w3.org/Graphics/SVG/1.1/DTD/svg11.dtd">
<svg version="1.1" id="shelf_x5F_left" xmlns="http://www.w3.org/2000/svg" xmlns:xlink="http://www.w3.org/1999/xlink" x="0px"
	 y="0px" width="15.26px" height="44.209px" viewBox="0 0 15.26 44.209" enable-background="new 0 0 15.26 44.209"
	 xml:space="preserve">
<g>
	<rect fill="#383838" width="15.095" height="44.209"/>
	
		<linearGradient id="SVGID_1_" gradientUnits="userSpaceOnUse" x1="714.3564" y1="-531.979" x2="714.3564" y2="-521.8008" gradientTransform="matrix(-1 0 0 -1 723.5508 -521.791)">
		<stop  offset="0" style="stop-color:#C2C2C2"/>
		<stop  offset="0.0106" style="stop-color:#BFBFBF"/>
		<stop  offset="0.1853" style="stop-color:#8F8F8F"/>
		<stop  offset="0.3594" style="stop-color:#676767"/>
		<stop  offset="0.5119" style="stop-color:#494949"/>
		<stop  offset="0.6958" style="stop-color:#6B6969"/>
		<stop  offset="0.8549" style="stop-color:#686666"/>
		<stop  offset="1" style="stop-color:#676565"/>
	</linearGradient>
	<polygon fill="url(#SVGID_1_)" points="15.26,10.188 3.129,10.021 9.795,0.01 15.26,0.01 	"/>
	<rect fill="#636363" width="3.13" height="44.209"/>
	<g>
		
			<linearGradient id="SVGID_2_" gradientUnits="userSpaceOnUse" x1="681.21" y1="-555.9487" x2="681.21" y2="-531.6563" gradientTransform="matrix(-1 0 0 -1 690.9648 -521.791)">
			<stop  offset="0" style="stop-color:#858585"/>
			<stop  offset="0.4409" style="stop-color:#424241"/>
			<stop  offset="0.9677" style="stop-color:#4C4A4B"/>
		</linearGradient>
		<path fill="url(#SVGID_2_)" d="M7.746,22.063c0-6.01-1.502-11.025-3.498-12.198H15.26v24.292H4.646
			C6.57,32.831,7.746,27.927,7.746,22.063z"/>
	</g>
	<path d="M7.281,22.266c0-6.915-1.768-12.532-3.973-12.744H15.26v1H5.992c1.56,2.6,2.288,7.324,2.288,11.744
		c0,4.563-0.789,9.2-2.322,11.756h9.302v1H3.244C5.48,34.916,7.281,29.25,7.281,22.266z"/>
	<rect x="2.442" y="-0.02" width="0.976" height="44.229"/>
	<rect width="0.976" height="44.229"/>
	<polygon points="9.283,0.021 15.26,0.021 15.26,1.021 9.834,1.021 4.477,9.48 15.26,9.484 15.26,10.483 2.66,10.479 	"/>
	
		<linearGradient id="SVGID_3_" gradientUnits="userSpaceOnUse" x1="691.7021" y1="-556.7031" x2="691.7021" y2="-565.1063" gradientTransform="matrix(-1 0 0 -1 701.1172 -521.791)">
		<stop  offset="0" style="stop-color:#C2C2C2"/>
		<stop  offset="0.0673" style="stop-color:#B1B1B1"/>
		<stop  offset="0.2964" style="stop-color:#7E7E7E"/>
		<stop  offset="0.5119" style="stop-color:#565656"/>
		<stop  offset="0.7074" style="stop-color:#6C6A6A"/>
		<stop  offset="0.8766" style="stop-color:#696666"/>
		<stop  offset="1" style="stop-color:#676565"/>
	</linearGradient>
	<polygon fill="url(#SVGID_3_)" points="15.26,44.2 9.415,44.2 3.569,34.157 15.26,34.157 	"/>
	<polygon points="9.283,44.209 15.26,44.209 15.26,43.209 9.834,43.209 4.477,34.75 15.26,34.746 15.26,33.747 2.66,33.752 	"/>
</g>
</svg>
