<?xml version="1.0" encoding="utf-8"?>
<!-- Generator: Adobe Illustrator 16.0.0, SVG Export Plug-In . SVG Version: 6.00 Build 0)  -->
<!DOCTYPE svg PUBLIC "-//W3C//DTD SVG 1.1//EN" "http://www.w3.org/Graphics/SVG/1.1/DTD/svg11.dtd">
<svg version="1.1" id="shelf_x5F_right" xmlns="http://www.w3.org/2000/svg" xmlns:xlink="http://www.w3.org/1999/xlink" x="0px"
	 y="0px" width="15.26px" height="44.209px" viewBox="0 0 15.26 44.209" enable-background="new 0 0 15.26 44.209"
	 xml:space="preserve">
<g>
	<rect x="0.165" fill="#383838" width="15.095" height="44.21"/>
	<rect x="12.13" fill="#636363" width="3.13" height="44.21"/>
	<g>
		
			<linearGradient id="SVGID_1_" gradientUnits="userSpaceOnUse" x1="675.3896" y1="-555.9478" x2="675.3896" y2="-531.6563" gradientTransform="matrix(1 0 0 -1 -669.9199 -521.791)">
			<stop  offset="0" style="stop-color:#858585"/>
			<stop  offset="0.4409" style="stop-color:#424241"/>
			<stop  offset="0.9677" style="stop-color:#4C4A4B"/>
		</linearGradient>
		<path fill="url(#SVGID_1_)" d="M7.478,22.063c0-6.01,1.501-11.025,3.498-12.198H-0.037v24.292h10.62
			C8.658,32.831,7.478,27.927,7.478,22.063z"/>
	</g>
	
		<linearGradient id="SVGID_2_" gradientUnits="userSpaceOnUse" x1="675.9854" y1="-531.979" x2="675.9854" y2="-521.8008" gradientTransform="matrix(1 0 0 -1 -669.9199 -521.791)">
		<stop  offset="0" style="stop-color:#C2C2C2"/>
		<stop  offset="0.0106" style="stop-color:#BFBFBF"/>
		<stop  offset="0.1853" style="stop-color:#8F8F8F"/>
		<stop  offset="0.3594" style="stop-color:#676767"/>
		<stop  offset="0.5119" style="stop-color:#494949"/>
		<stop  offset="0.6958" style="stop-color:#6B6969"/>
		<stop  offset="0.8549" style="stop-color:#686666"/>
		<stop  offset="1" style="stop-color:#676565"/>
	</linearGradient>
	<polygon fill="url(#SVGID_2_)" points="0,0.01 5.463,0.01 12.13,10.021 0,10.188 	"/>
	<path d="M7.979,22.266c0-6.916,1.768-12.533,3.973-12.745H0v1h9.269c-1.561,2.6-2.29,7.324-2.29,11.745
		c0,4.563,0.79,9.2,2.323,11.757H0v1h12.017C9.778,34.917,7.979,29.251,7.979,22.266z"/>
	<rect x="11.842" y="-0.02" width="0.976" height="44.23"/>
	<rect x="14.284" width="0.976" height="44.229"/>
	<polygon points="5.977,0.021 0,0.021 0,1.021 5.426,1.021 10.783,9.48 0,9.484 0,10.483 12.601,10.479 	"/>
	
		<linearGradient id="SVGID_3_" gradientUnits="userSpaceOnUse" x1="675.7646" y1="-556.7041" x2="675.7646" y2="-565.1072" gradientTransform="matrix(1 0 0 -1 -669.9199 -521.791)">
		<stop  offset="0" style="stop-color:#C2C2C2"/>
		<stop  offset="0.0673" style="stop-color:#B1B1B1"/>
		<stop  offset="0.2964" style="stop-color:#7E7E7E"/>
		<stop  offset="0.5119" style="stop-color:#565656"/>
		<stop  offset="0.7074" style="stop-color:#6C6A6A"/>
		<stop  offset="0.8766" style="stop-color:#696666"/>
		<stop  offset="1" style="stop-color:#676565"/>
	</linearGradient>
	<polygon fill="url(#SVGID_3_)" points="0,34.157 11.69,34.157 5.845,44.2 0,44.2 	"/>
	<polygon points="5.977,44.21 0,44.21 0,43.21 5.426,43.21 10.783,34.751 0,34.747 0,33.747 12.601,33.753 	"/>
</g>
</svg>
