<?xml version="1.0" encoding="utf-8"?>
<!-- Generator: Adobe Illustrator 16.0.0, SVG Export Plug-In . SVG Version: 6.00 Build 0)  -->
<!DOCTYPE svg PUBLIC "-//W3C//DTD SVG 1.1//EN" "http://www.w3.org/Graphics/SVG/1.1/DTD/svg11.dtd">
<svg version="1.1" id="shelf_x5F_left" xmlns="http://www.w3.org/2000/svg" xmlns:xlink="http://www.w3.org/1999/xlink" x="0px"
	 y="0px" width="15.258px" height="47.375px" viewBox="0 0 15.258 47.375" enable-background="new 0 0 15.258 47.375"
	 xml:space="preserve">
<g>
	<g>
		<rect x="7.566" y="19.188" fill="#F0ECEC" width="7.691" height="22.938"/>
		<rect x="7.482" y="5.313" fill="#5C5C5C" width="7.775" height="13.563"/>
		<polygon fill="#C7C7C7" points="15.258,5.313 15.258,0 7.504,0 4.816,0 0,0 0,47.375 4.816,47.375 7.504,47.375 15.258,47.375 
			15.258,42.063 7.504,42.063 7.504,5.313 		"/>
		<rect width="1.004" height="47.375"/>
	</g>
	<polygon points="15.258,5.783 15.258,4.779 7.971,4.779 7.971,4.779 6.967,4.779 6.967,42.658 7.971,42.658 7.971,42.658 
		15.258,42.658 15.258,41.654 7.971,41.654 7.971,19.533 15.258,19.533 15.258,18.529 7.971,18.529 7.971,5.783 	"/>
</g>
</svg>
