<?xml version="1.0" encoding="utf-8"?>
<!-- Generator: Adobe Illustrator 16.0.0, SVG Export Plug-In . SVG Version: 6.00 Build 0)  -->
<!DOCTYPE svg PUBLIC "-//W3C//DTD SVG 1.1//EN" "http://www.w3.org/Graphics/SVG/1.1/DTD/svg11.dtd">
<svg version="1.1" id="shelf_x5F_top_x5F_middle" xmlns="http://www.w3.org/2000/svg" xmlns:xlink="http://www.w3.org/1999/xlink"
	 x="0px" y="0px" width="15.26px" height="37.438px" viewBox="0 0 15.26 37.438" enable-background="new 0 0 15.26 37.438"
	 xml:space="preserve">
<g>
	<defs>
		<rect id="SVGID_1_" x="0" width="15.259" height="37.438"/>
	</defs>
	<clipPath id="SVGID_2_">
		<use xlink:href="#SVGID_1_"  overflow="visible"/>
	</clipPath>
	<g id="estante_1_" clip-path="url(#SVGID_2_)">
		<g>
			<g>
				<rect x="-724.851" y="17.349" fill="#5C5C5C" width="753.888" height="273.346"/>
				<rect x="-724.851" y="57.664" fill="#F0ECEC" stroke="#000000" stroke-miterlimit="10" width="753.888" height="31.134"/>
				<rect x="-724.851" y="105.383" fill="#F0ECEC" stroke="#000000" stroke-miterlimit="10" width="753.888" height="31.135"/>
				<rect x="-724.851" y="153.122" fill="#F0ECEC" stroke="#000000" stroke-miterlimit="10" width="753.888" height="31.022"/>
				<rect x="-724.851" y="200.553" fill="#F0ECEC" stroke="#000000" stroke-miterlimit="10" width="753.888" height="31.225"/>
				<rect x="-724.851" y="246.848" fill="#F0ECEC" stroke="#000000" stroke-miterlimit="10" width="753.888" height="31.232"/>
			</g>
			<g>
				<g id="estante">
					<path fill="#C7C7C7" stroke="#000000" stroke-miterlimit="10" d="M-731.454,32.041v0.924v266.366h7.029v-16.574H29.037v16.574
						h7.029v-20.271v-7.116v-40.678v-7.118v-40.678v-7.117v-40.681v-7.115V87.879v-7.117v-40.68v-6.268v-1.773H-731.454z
						 M29.037,271.945h-753.462V234.04H29.037V271.945L29.037,271.945z M29.037,223.225h-753.462v-36.162H29.037v37.086V223.225
						L29.037,223.225z M29.037,176.273h-753.558l0.096-37.008H29.037V176.273L29.037,176.273z M29.037,128.558h-753.462V91.67
						H29.037V128.558L29.037,128.558z M29.037,80.762h-753.462V42.854H29.037V80.762L29.037,80.762z"/>
					<rect x="-731.789" y="0.593" fill="#F0ECEC" stroke="#000000" stroke-miterlimit="10" width="767.855" height="31.448"/>
				</g>
			</g>
		</g>
	</g>
</g>
</svg>
