<?xml version="1.0" encoding="utf-8"?>
<!-- Generator: Adobe Illustrator 16.0.0, SVG Export Plug-In . SVG Version: 6.00 Build 0)  -->
<!DOCTYPE svg PUBLIC "-//W3C//DTD SVG 1.1//EN" "http://www.w3.org/Graphics/SVG/1.1/DTD/svg11.dtd">
<svg version="1.1" id="shelf_x5F_bottom_x5F_left" xmlns="http://www.w3.org/2000/svg" xmlns:xlink="http://www.w3.org/1999/xlink"
	 x="0px" y="0px" width="15.26px" height="37.438px" viewBox="0 0 15.26 37.438" enable-background="new 0 0 15.26 37.438"
	 xml:space="preserve">
<g>
	<g>
		<defs>
			<rect id="SVGID_1_" y="0" width="15.259" height="37.438"/>
		</defs>
		<clipPath id="SVGID_2_">
			<use xlink:href="#SVGID_1_"  overflow="visible"/>
		</clipPath>
		<g id="estante_1_" clip-path="url(#SVGID_2_)">
			<g>
				<g>
					<rect x="-746.102" y="-259.189" fill="#5C5C5C" width="753.889" height="273.345"/>
					<rect x="-746.102" y="-218.874" fill="#F0ECEC" stroke="#000000" stroke-miterlimit="10" width="753.889" height="31.135"/>
					<rect x="-746.102" y="-171.155" fill="#F0ECEC" stroke="#000000" stroke-miterlimit="10" width="753.889" height="31.135"/>
					<rect x="-746.102" y="-123.415" fill="#F0ECEC" stroke="#000000" stroke-miterlimit="10" width="753.889" height="31.021"/>
					<rect x="-746.102" y="-75.986" fill="#F0ECEC" stroke="#000000" stroke-miterlimit="10" width="753.889" height="31.225"/>
					<rect x="-746.102" y="-29.691" fill="#F0ECEC" stroke="#000000" stroke-miterlimit="10" width="753.889" height="31.232"/>
				</g>
				<g>
					<g id="estante">
						<path fill="#C7C7C7" stroke="#000000" stroke-miterlimit="10" d="M-752.704-244.496v0.924V22.793h7.029V6.219H7.787v16.574
							h7.03V2.522v-7.117v-40.677v-7.117v-40.678v-7.117v-40.681v-7.115v-40.678v-7.117v-40.679v-6.269v-1.772H-752.704z
							 M7.787-4.594h-753.462v-37.904H7.787V-4.594L7.787-4.594z M7.787-53.314h-753.462v-36.162H7.787v37.086V-53.314L7.787-53.314
							z M7.787-100.265h-753.559l0.097-37.007H7.787V-100.265L7.787-100.265z M7.787-147.979h-753.462v-36.889H7.787V-147.979
							L7.787-147.979z M7.787-195.776h-753.462v-37.908H7.787V-195.776L7.787-195.776z"/>
						<rect x="-753.039" y="-275.945" fill="#F0ECEC" stroke="#000000" stroke-miterlimit="10" width="767.854" height="31.448"/>
					</g>
				</g>
			</g>
		</g>
	</g>
</g>
</svg>
