<?xml version="1.0" encoding="utf-8"?>
<!-- Generator: Adobe Illustrator 16.0.0, SVG Export Plug-In . SVG Version: 6.00 Build 0)  -->
<!DOCTYPE svg PUBLIC "-//W3C//DTD SVG 1.1//EN" "http://www.w3.org/Graphics/SVG/1.1/DTD/svg11.dtd">
<svg version="1.1" id="shelf_x5F_bottom_x5F_left" xmlns="http://www.w3.org/2000/svg" xmlns:xlink="http://www.w3.org/1999/xlink"
	 x="0px" y="0px" width="15.26px" height="37.438px" viewBox="0 0 15.26 37.438" enable-background="new 0 0 15.26 37.438"
	 xml:space="preserve">
<g>
	<g>
		<defs>
			<rect id="SVGID_1_" y="0" width="15.259" height="37.438"/>
		</defs>
		<clipPath id="SVGID_2_">
			<use xlink:href="#SVGID_1_"  overflow="visible"/>
		</clipPath>
		<g id="estante_1_" clip-path="url(#SVGID_2_)">
			<g>
				<g>
					<rect x="7.472" y="-259.189" fill="#5C5C5C" width="753.889" height="273.345"/>
					<rect x="7.472" y="-218.874" fill="#F0ECEC" stroke="#000000" stroke-miterlimit="10" width="753.889" height="31.135"/>
					<rect x="7.472" y="-171.155" fill="#F0ECEC" stroke="#000000" stroke-miterlimit="10" width="753.889" height="31.135"/>
					<rect x="7.472" y="-123.415" fill="#F0ECEC" stroke="#000000" stroke-miterlimit="10" width="753.889" height="31.021"/>
					<rect x="7.472" y="-75.986" fill="#F0ECEC" stroke="#000000" stroke-miterlimit="10" width="753.889" height="31.225"/>
					<rect x="7.472" y="-29.691" fill="#F0ECEC" stroke="#000000" stroke-miterlimit="10" width="753.889" height="31.232"/>
				</g>
				<g>
					<g id="estante">
						<path fill="#C7C7C7" stroke="#000000" stroke-miterlimit="10" d="M0.441-244.496v1.772v6.269v40.679v7.117v40.678v7.115
							v40.681v7.117v40.678v7.117v40.677v7.117v20.271h7.03V6.219h753.462v16.574h7.029v-266.366v-0.924H0.441z M7.472-4.594
							v-37.904h753.462v37.904H7.472L7.472-4.594z M7.472-53.314v0.924v-37.086h753.462v36.162H7.472L7.472-53.314z M7.472-100.265
							v-37.007h753.462l0.097,37.007H7.472L7.472-100.265z M7.472-147.979v-36.889h753.462v36.889H7.472L7.472-147.979z
							 M7.472-195.776v-37.908h753.462v37.908H7.472L7.472-195.776z"/>
						<rect x="0.443" y="-275.945" fill="#F0ECEC" stroke="#000000" stroke-miterlimit="10" width="767.854" height="31.448"/>
					</g>
				</g>
			</g>
		</g>
	</g>
</g>
</svg>
