<?xml version="1.0" encoding="utf-8"?>
<!-- Generator: Adobe Illustrator 16.0.0, SVG Export Plug-In . SVG Version: 6.00 Build 0)  -->
<!DOCTYPE svg PUBLIC "-//W3C//DTD SVG 1.1//EN" "http://www.w3.org/Graphics/SVG/1.1/DTD/svg11.dtd">
<svg version="1.1" id="shelf_x5F_separation" xmlns="http://www.w3.org/2000/svg" xmlns:xlink="http://www.w3.org/1999/xlink"
	 x="0px" y="0px" width="15.207px" height="44.21px" viewBox="0 0 15.207 44.21" enable-background="new 0 0 15.207 44.21"
	 xml:space="preserve">
<g>
	<defs>
		<rect id="SVGID_1_" x="-0.026" y="0.01" width="15.26" height="44.189"/>
	</defs>
	<clipPath id="SVGID_2_">
		<use xlink:href="#SVGID_1_"  overflow="visible"/>
	</clipPath>
	<g clip-path="url(#SVGID_2_)">
		
			<linearGradient id="SVGID_3_" gradientUnits="userSpaceOnUse" x1="342.5576" y1="-273.8081" x2="342.5576" y2="-282.2112" gradientTransform="matrix(1 0 0 -1 -334.96 -238.8955)">
			<stop  offset="0" style="stop-color:#C2C2C2"/>
			<stop  offset="0.0673" style="stop-color:#B1B1B1"/>
			<stop  offset="0.2964" style="stop-color:#7E7E7E"/>
			<stop  offset="0.5119" style="stop-color:#565656"/>
			<stop  offset="0.7074" style="stop-color:#393939"/>
			<stop  offset="0.8766" style="stop-color:#272727"/>
			<stop  offset="1" style="stop-color:#212121"/>
		</linearGradient>
		<rect x="-0.026" y="34.157" fill="url(#SVGID_3_)" width="15.247" height="10.043"/>
		
			<linearGradient id="SVGID_4_" gradientUnits="userSpaceOnUse" x1="342.5635" y1="-273.0518" x2="342.5635" y2="-248.7603" gradientTransform="matrix(1 0 0 -1 -334.96 -238.8955)">
			<stop  offset="0" style="stop-color:#858585"/>
			<stop  offset="0.4409" style="stop-color:#212121"/>
			<stop  offset="0.9677" style="stop-color:#1A1A1A"/>
		</linearGradient>
		<rect x="-0.001" y="9.865" fill="url(#SVGID_4_)" width="15.21" height="24.292"/>
		
			<linearGradient id="SVGID_5_" gradientUnits="userSpaceOnUse" x1="342.5635" y1="-248.7603" x2="342.5635" y2="-238.9058" gradientTransform="matrix(1 0 0 -1 -334.96 -238.8955)">
			<stop  offset="0" style="stop-color:#C2C2C2"/>
			<stop  offset="0.0106" style="stop-color:#BFBFBF"/>
			<stop  offset="0.1853" style="stop-color:#8F8F8F"/>
			<stop  offset="0.3594" style="stop-color:#676767"/>
			<stop  offset="0.5299" style="stop-color:#494949"/>
			<stop  offset="0.6958" style="stop-color:#333333"/>
			<stop  offset="0.8549" style="stop-color:#262626"/>
			<stop  offset="1" style="stop-color:#212121"/>
		</linearGradient>
		<rect x="-0.002" y="0.01" fill="url(#SVGID_5_)" width="15.211" height="9.854"/>
		
			<linearGradient id="SVGID_6_" gradientUnits="userSpaceOnUse" x1="334.9336" y1="-238.9058" x2="334.9336" y2="-238.9058" gradientTransform="matrix(1 0 0 -1 -334.96 -238.8955)">
			<stop  offset="0" style="stop-color:#C2C2C2"/>
			<stop  offset="0.0106" style="stop-color:#BFBFBF"/>
			<stop  offset="0.1853" style="stop-color:#8F8F8F"/>
			<stop  offset="0.3594" style="stop-color:#676767"/>
			<stop  offset="0.5299" style="stop-color:#494949"/>
			<stop  offset="0.6958" style="stop-color:#333333"/>
			<stop  offset="0.8549" style="stop-color:#262626"/>
			<stop  offset="1" style="stop-color:#212121"/>
		</linearGradient>
		<path fill="none" stroke="url(#SVGID_6_)" stroke-miterlimit="10" d="M-0.026,0.01"/>
		<g>
			<polygon fill="#636363" points="3.97,43.131 3.47,43.131 -0.026,34.677 0.474,34.677 			"/>
			<polygon fill="#7D7D7D" points="4.47,43.131 3.97,43.131 0.474,34.677 0.974,34.677 			"/>
		</g>
		<g>
			<polygon fill="#636363" points="3.97,1.02 3.47,1.02 -0.026,9.474 0.474,9.474 			"/>
			<polygon fill="#7D7D7D" points="4.47,1.02 3.97,1.02 0.474,9.474 0.974,9.474 			"/>
		</g>
		<path fill="#3D3D3D" d="M3.983,22.099c0-6.832-1.744-12.379-3.92-12.589h11.791v0.988H2.711c1.541,2.568,2.259,7.234,2.259,11.601
			c0,4.507-0.778,9.088-2.291,11.611h9.177v0.987H0C2.206,34.594,3.983,28.999,3.983,22.099z"/>
		<g>
			<rect x="-0.002" y="0.01" width="15.211" height="1"/>
			<rect x="-0.002" y="9.471" width="15.211" height="1"/>
		</g>
		<g>
			<rect x="-0.026" y="33.739" width="15.26" height="1"/>
			<rect x="-0.013" y="43.208" width="15.233" height="1.002"/>
		</g>
	</g>
</g>
</svg>
