<?xml version="1.0" encoding="utf-8"?>
<!-- Generator: Adobe Illustrator 16.0.0, SVG Export Plug-In . SVG Version: 6.00 Build 0)  -->
<!DOCTYPE svg PUBLIC "-//W3C//DTD SVG 1.1//EN" "http://www.w3.org/Graphics/SVG/1.1/DTD/svg11.dtd">
<svg version="1.1" id="shelf_x5F_middle" xmlns="http://www.w3.org/2000/svg" xmlns:xlink="http://www.w3.org/1999/xlink" x="0px"
	 y="0px" width="15.258px" height="47.375px" viewBox="0 0 15.258 47.375" enable-background="new 0 0 15.258 47.375"
	 xml:space="preserve">
<g>
	<defs>
		<rect id="SVGID_1_" x="0" width="15.258" height="47.375"/>
	</defs>
	<clipPath id="SVGID_2_">
		<use xlink:href="#SVGID_1_"  overflow="visible"/>
	</clipPath>
	<g id="estante_2_" clip-path="url(#SVGID_2_)">
		<g>
			<g>
				<rect x="-730.89" y="-69.026" fill="#5C5C5C" width="753.888" height="273.346"/>
				<rect x="-730.89" y="-28.71" fill="#F0ECEC" stroke="#000000" stroke-miterlimit="10" width="753.888" height="31.133"/>
				<rect x="-730.89" y="19.008" fill="#F0ECEC" stroke="#000000" stroke-miterlimit="10" width="753.888" height="31.134"/>
				<rect x="-730.89" y="66.747" fill="#F0ECEC" stroke="#000000" stroke-miterlimit="10" width="753.888" height="31.022"/>
				<rect x="-730.89" y="114.178" fill="#F0ECEC" stroke="#000000" stroke-miterlimit="10" width="753.888" height="31.225"/>
				<rect x="-730.89" y="160.473" fill="#F0ECEC" stroke="#000000" stroke-miterlimit="10" width="753.888" height="31.232"/>
			</g>
			<g>
				<g id="estante_3_">
					<path fill="#C7C7C7" stroke="#000000" stroke-miterlimit="10" d="M-737.493-54.333v0.924v266.366h7.029v-16.574H22.999v16.574
						h7.029v-20.271v-7.116v-40.678v-7.118V97.096v-7.117V49.298v-7.115V1.504v-7.117v-40.681v-6.267v-1.773H-737.493z
						 M22.999,185.57h-753.462v-37.905H22.999V185.57L22.999,185.57z M22.999,136.85h-753.462v-36.162H22.999v37.086V136.85
						L22.999,136.85z M22.999,89.898H-730.56l0.096-37.008H22.999V89.898L22.999,89.898z M22.999,42.183h-753.462V5.295H22.999
						V42.183L22.999,42.183z M22.999-5.614h-753.462v-37.908H22.999V-5.614L22.999-5.614z"/>
					<rect x="-737.828" y="-85.782" fill="#F0ECEC" stroke="#000000" stroke-miterlimit="10" width="767.855" height="31.449"/>
				</g>
			</g>
		</g>
	</g>
</g>
</svg>
