<?xml version="1.0" encoding="utf-8"?>
<!-- Generator: Adobe Illustrator 16.0.0, SVG Export Plug-In . SVG Version: 6.00 Build 0)  -->
<!DOCTYPE svg PUBLIC "-//W3C//DTD SVG 1.1//EN" "http://www.w3.org/Graphics/SVG/1.1/DTD/svg11.dtd">
<svg version="1.1" id="shelf_x5F_interface" xmlns="http://www.w3.org/2000/svg" xmlns:xlink="http://www.w3.org/1999/xlink"
	 x="0px" y="0px" width="768.938px" height="64.743px" viewBox="0 0 768.938 64.743" enable-background="new 0 0 768.938 64.743"
	 xml:space="preserve">
<polygon fill="#808080" points="444.615,19.784 424,2.785 342.707,2.785 323.808,19.784 0.5,19.784 0.5,64.743 768.467,64.743 
	768.467,19.784 "/>
<polygon fill="#5C5C5C" points="329.97,22.903 329.97,64.743 344.25,64.743 344.25,6.285 "/>
<polygon fill="#5C5C5C" points="438.668,22.903 438.668,64.713 424.389,64.713 424.389,6.285 "/>
<g>
	<g>
		<g>
			<rect x="280.655" y="35.11" fill="#FFFFFF" stroke="#000000" stroke-miterlimit="10" width="16.73" height="16.74"/>
			<polyline fill="#FFFFFF" stroke="#000000" stroke-miterlimit="10" points="283.517,44.25 289.021,40.066 294.303,44.25 			"/>
			
				<line fill="#FFFFFF" stroke="#000000" stroke-width="1.3159" stroke-miterlimit="10" x1="289.021" y1="40.066" x2="289.021" y2="47.664"/>
		</g>
		<rect x="280.655" y="33.128" fill="#FFFFFF" stroke="#000000" stroke-miterlimit="10" width="16.73" height="1.982"/>
	</g>
	<g>
		<g>
			<rect x="466.396" y="35.804" fill="#FFFFFF" stroke="#000000" stroke-miterlimit="10" width="16.729" height="16.74"/>
			<polyline fill="#FFFFFF" stroke="#000000" stroke-miterlimit="10" points="480.153,42.988 474.65,47.173 469.365,42.988 			"/>
			
				<line fill="#FFFFFF" stroke="#000000" stroke-width="1.3159" stroke-miterlimit="10" x1="474.65" y1="47.173" x2="474.65" y2="39.574"/>
		</g>
		<rect x="466.396" y="33.821" fill="#FFFFFF" stroke="#000000" stroke-miterlimit="10" width="16.729" height="1.982"/>
	</g>
	<g>
		<g>
			<rect x="368.474" y="12.399" fill="#FFFFFF" stroke="#000000" stroke-miterlimit="10" width="31.479" height="31.498"/>
			<circle stroke="#000000" stroke-miterlimit="10" cx="384.212" cy="28.142" r="12.672"/>
		</g>
		<rect x="368.474" y="9.598" fill="#FFFFFF" stroke="#000000" stroke-miterlimit="10" width="31.479" height="2.432"/>
		<circle fill="#FFFFFF" stroke="#000000" stroke-miterlimit="10" cx="372.331" cy="16.371" r="1.552"/>
		<circle fill="#FFFFFF" stroke="#000000" stroke-miterlimit="10" cx="396.154" cy="16.371" r="1.552"/>
		<circle fill="#FFFFFF" stroke="#000000" stroke-miterlimit="10" cx="396.154" cy="40.816" r="1.553"/>
		<circle fill="#FFFFFF" stroke="#000000" stroke-miterlimit="10" cx="372.331" cy="40.816" r="1.553"/>
	</g>
	<g>
		<path fill="#FFECEC" stroke="#000000" stroke-miterlimit="10" d="M36.861,51.661c0,1.413-1.146,2.56-2.559,2.56h-20.04
			c-1.413,0-2.559-1.146-2.559-2.56V34.773c0-1.413,1.146-2.56,2.559-2.56h20.04c1.413,0,2.559,1.146,2.559,2.56V51.661z"/>
		<path fill="#FFECEC" stroke="#000000" stroke-miterlimit="10" d="M36.861,53.635c0,1.413-1.146,2.56-2.559,2.56h-20.04
			c-1.413,0-2.559-1.146-2.559-2.56V36.748c0-1.414,1.146-2.56,2.559-2.56h20.04c1.413,0,2.559,1.146,2.559,2.56V53.635z"/>
		<path fill="#FFECEC" stroke="#000000" stroke-miterlimit="10" d="M34.857,52.397c0,1.188-0.963,2.151-2.151,2.151H15.858
			c-1.189,0-2.152-0.963-2.152-2.151V38.2c0-1.188,0.963-2.151,2.152-2.151h16.847c1.188,0,2.151,0.963,2.151,2.151V52.397z"/>
	</g>
	<g>
		<path fill="#FFECEC" stroke="#000000" stroke-miterlimit="10" d="M223.297,51.661c0,1.413-1.146,2.56-2.559,2.56h-20.04
			c-1.413,0-2.559-1.146-2.559-2.56V34.773c0-1.413,1.146-2.56,2.559-2.56h20.04c1.413,0,2.559,1.146,2.559,2.56V51.661z"/>
		<path fill="#FFECEC" stroke="#000000" stroke-miterlimit="10" d="M223.297,53.635c0,1.413-1.146,2.56-2.559,2.56h-20.04
			c-1.413,0-2.559-1.146-2.559-2.56V36.748c0-1.414,1.146-2.56,2.559-2.56h20.04c1.413,0,2.559,1.146,2.559,2.56V53.635z"/>
		<path fill="#FFECEC" stroke="#000000" stroke-miterlimit="10" d="M221.293,52.397c0,1.188-0.963,2.151-2.151,2.151h-16.847
			c-1.189,0-2.152-0.963-2.152-2.151V38.2c0-1.188,0.963-2.151,2.152-2.151h16.847c1.188,0,2.151,0.963,2.151,2.151V52.397z"/>
	</g>
	<g>
		<path fill="#FFECEC" stroke="#000000" stroke-miterlimit="10" d="M560.863,51.661c0,1.413-1.146,2.56-2.559,2.56h-20.041
			c-1.412,0-2.559-1.146-2.559-2.56V34.773c0-1.413,1.146-2.56,2.559-2.56h20.041c1.412,0,2.559,1.146,2.559,2.56V51.661z"/>
		<path fill="#FFECEC" stroke="#000000" stroke-miterlimit="10" d="M560.863,53.635c0,1.413-1.146,2.56-2.559,2.56h-20.041
			c-1.412,0-2.559-1.146-2.559-2.56V36.748c0-1.414,1.146-2.56,2.559-2.56h20.041c1.412,0,2.559,1.146,2.559,2.56V53.635z"/>
		<path fill="#FFECEC" stroke="#000000" stroke-miterlimit="10" d="M558.859,52.397c0,1.188-0.963,2.151-2.151,2.151h-16.847
			c-1.189,0-2.152-0.963-2.152-2.151V38.2c0-1.188,0.963-2.151,2.152-2.151h16.847c1.188,0,2.151,0.963,2.151,2.151V52.397z"/>
	</g>
	<g>
		<path fill="#FFECEC" stroke="#000000" stroke-miterlimit="10" d="M757.742,51.661c0,1.413-1.146,2.56-2.56,2.56h-20.039
			c-1.414,0-2.56-1.146-2.56-2.56V34.773c0-1.413,1.146-2.56,2.56-2.56h20.039c1.414,0,2.56,1.146,2.56,2.56V51.661z"/>
		<path fill="#FFECEC" stroke="#000000" stroke-miterlimit="10" d="M757.742,53.635c0,1.413-1.146,2.56-2.56,2.56h-20.039
			c-1.414,0-2.56-1.146-2.56-2.56V36.748c0-1.414,1.146-2.56,2.56-2.56h20.039c1.414,0,2.56,1.146,2.56,2.56V53.635z"/>
		<path fill="#FFECEC" stroke="#000000" stroke-miterlimit="10" d="M755.738,52.397c0,1.188-0.963,2.151-2.151,2.151h-16.848
			c-1.188,0-2.151-0.963-2.151-2.151V38.2c0-1.188,0.963-2.151,2.151-2.151h16.848c1.188,0,2.151,0.963,2.151,2.151V52.397z"/>
	</g>
</g>
<polygon fill="#FFFFFF" stroke="#000000" stroke-miterlimit="10" points="442.289,15.08 427.209,0 427.021,0 416.756,0 351.667,0 
	341.215,0 326.134,15.08 0.5,15.08 0.5,18.99 0.5,22.903 0.5,64.229 7.661,64.229 7.661,22.903 329.97,22.903 336.95,15.08 
	336.587,15.08 345.382,6.285 423.041,6.285 431.836,15.08 439.659,22.903 761.959,22.903 761.959,64.229 768.467,64.229 
	768.467,22.903 768.467,15.207 768.467,15.08 "/>
<g>
	<rect x="762.428" y="60.969" fill="#FFFFFF" width="5.516" height="3.76"/>
	<rect x="1.006" y="60.953" fill="#FFFFFF" width="6.15" height="3.76"/>
</g>
</svg>
