<?xml version="1.0" encoding="utf-8"?>
<!-- Generator: Adobe Illustrator 16.0.0, SVG Export Plug-In . SVG Version: 6.00 Build 0)  -->
<!DOCTYPE svg PUBLIC "-//W3C//DTD SVG 1.1//EN" "http://www.w3.org/Graphics/SVG/1.1/DTD/svg11.dtd">
<svg version="1.1" id="shelf_x5F_right" xmlns="http://www.w3.org/2000/svg" xmlns:xlink="http://www.w3.org/1999/xlink" x="0px"
	 y="0px" width="15.258px" height="47.375px" viewBox="0 0 15.258 47.375" enable-background="new 0 0 15.258 47.375"
	 xml:space="preserve">
<g>
	<g>
		<rect x="0" y="19.188" fill="#F0ECEC" width="7.691" height="22.938"/>
		<rect x="0" y="5.313" fill="#5C5C5C" width="7.775" height="13.563"/>
		<polygon fill="#C7C7C7" points="0,5.313 0,0 7.754,0 10.442,0 15.258,0 15.258,47.375 10.442,47.375 7.754,47.375 0,47.375 
			0,42.063 7.754,42.063 7.754,5.313 		"/>
		<rect x="14.254" width="1.004" height="47.375"/>
	</g>
	<polygon points="0,5.783 0,4.779 7.288,4.779 7.288,4.779 8.292,4.779 8.292,42.658 7.288,42.658 7.288,42.658 0,42.658 0,41.654 
		7.288,41.654 7.288,19.533 0,19.533 0,18.529 7.288,18.529 7.288,5.783 	"/>
</g>
</svg>
