<?xml version="1.0" encoding="utf-8"?>
<!-- Generator: Adobe Illustrator 16.0.0, SVG Export Plug-In . SVG Version: 6.00 Build 0)  -->
<!DOCTYPE svg PUBLIC "-//W3C//DTD SVG 1.1//EN" "http://www.w3.org/Graphics/SVG/1.1/DTD/svg11.dtd">
<svg version="1.1" id="Layer_1" xmlns="http://www.w3.org/2000/svg" xmlns:xlink="http://www.w3.org/1999/xlink" x="0px" y="0px"
	 width="169.956px" height="19.254px" viewBox="0 0 169.956 19.254" enable-background="new 0 0 169.956 19.254"
	 xml:space="preserve">
<g>
	<rect x="4.597" y="-0.12" fill="#464D4B" width="160.792" height="1.065"/>
	<polygon fill="none" stroke="#000000" stroke-miterlimit="10" points="165.027,1.278 4.97,1.278 0.688,19.296 169.43,19.296 	"/>
	<polygon fill="#3F3F3F" points="2.847,10.287 1.488,15.927 19.045,15.927 29.763,10.704 58.703,10.704 67.263,15.927 
		98.068,15.142 106.453,10.704 135.785,10.704 146.191,15.142 168.388,15.927 167.329,10.287 146.18,10.287 135.553,6.073 
		106.648,6.073 97.43,10.287 67.014,10.287 58.508,6.073 29.604,6.073 19.045,10.513 	"/>
	<polygon fill="#65675F" points="4.856,1.425 4.856,19.147 0.526,19.147 	"/>
	<polygon fill="#65675F" points="164.918,1.651 164.918,19.374 169.248,19.374 	"/>
	<g>
		<polygon fill="#7A8784" points="4.97,1.278 2.418,9.806 19.122,10.038 29.628,5.799 58.605,5.599 67.661,10.202 98.053,10.202 
			106.682,5.799 136.225,5.599 146.242,10.202 167.581,10.202 165.201,1.278 		"/>
		<polygon fill="#7A8784" points="0.688,19.296 1.986,15.614 19.458,15.513 29.539,11.282 59.203,11.487 66.264,15.142 
			98.764,15.142 107.148,10.704 135.785,10.704 146.728,15.513 168.346,15.513 169.43,19.296 		"/>
		<polygon fill="none" stroke="#000000" stroke-miterlimit="10" points="165.027,1.278 4.97,1.278 0.688,19.296 169.43,19.296 		"/>
	</g>
	<g>
		<polygon fill="#231F20" points="146.191,15.142 135.785,10.735 106.453,10.704 98.068,15.142 82.578,15.142 67.088,15.142 
			58.703,10.704 29.524,10.704 18.964,15.142 2.05,15.142 1.986,15.927 19.045,15.927 29.604,11.487 58.508,11.487 66.892,15.927 
			82.578,15.927 98.265,15.927 106.648,11.487 135.553,11.487 146.032,15.927 168.388,15.927 168.191,15.142 		"/>
	</g>
	<g>
		<polygon fill="#231F20" points="146.191,9.728 135.785,5.321 106.453,5.29 98.068,9.728 82.578,9.728 67.088,9.728 58.703,5.29 
			29.524,5.29 18.964,9.728 3.329,9.728 3.173,10.513 19.045,10.513 29.604,6.073 58.508,6.073 66.892,10.513 82.578,10.513 
			98.265,10.513 106.648,6.073 135.553,6.073 146.032,10.513 167.329,10.513 167.133,9.728 		"/>
		<polygon fill="#939598" points="146.625,9.5 135.787,5.113 106.305,5.098 98.002,9.5 97.643,9.5 67.661,9.5 67.3,9.5 
			59.047,5.098 29.589,5.098 18.678,9.5 3.548,9.5 3.423,9.892 18.717,9.892 29.628,5.49 58.949,5.49 67.202,9.892 67.661,9.892 
			97.643,9.892 98.053,9.892 106.354,5.49 135.676,5.49 146.512,9.877 166.706,9.892 166.56,9.5 		"/>
	</g>
	<polygon fill="#464D4B" points="146.191,10.499 135.785,6.091 106.453,6.06 98.068,10.499 82.578,10.499 67.088,10.499 
		58.703,6.06 29.524,6.06 18.964,10.499 3.313,10.499 3.173,11.282 19.045,11.282 29.604,6.843 58.508,6.843 66.892,11.282 
		82.578,11.282 98.265,11.282 106.648,6.843 135.553,6.843 146.032,11.282 166.935,11.282 166.81,10.499 	"/>
</g>
</svg>
