<?xml version="1.0" encoding="utf-8"?>
<!-- Generator: Adobe Illustrator 16.0.0, SVG Export Plug-In . SVG Version: 6.00 Build 0)  -->
<!DOCTYPE svg PUBLIC "-//W3C//DTD SVG 1.1//EN" "http://www.w3.org/Graphics/SVG/1.1/DTD/svg11.dtd">
<svg version="1.1" id="Layer_1" xmlns="http://www.w3.org/2000/svg" xmlns:xlink="http://www.w3.org/1999/xlink" x="0px" y="0px"
	 width="171.21px" height="208.63px" viewBox="0 0 171.21 208.63" enable-background="new 0 0 171.21 208.63" xml:space="preserve">
<g>
	<g>
		<g id="Layer_3">
			<rect x="146.949" y="16.449" fill="#636363" width="24" height="4.552"/>
			<rect x="149.887" y="21.439" fill="#58595B" width="2.814" height="12.793"/>
			<rect x="157.674" y="21.439" fill="#939598" width="2.813" height="12.793"/>
			<polygon fill="#A8A8A8" points="166.764,0.512 170.623,16.206 146.949,16.206 146.949,0.512 			"/>
			<ellipse fill="#787878" cx="159.457" cy="9.287" rx="1.908" ry="0.787"/>
			<ellipse fill="#787878" cx="151.318" cy="5.203" rx="1.908" ry="0.787"/>
		</g>
		<g id="Layer_2_1_">
			<rect x="146.949" y="15.939" width="24.26" height="1.021"/>
			<polygon points="167.42,1.022 146.949,1.022 146.949,0.001 167.199,0.001 			"/>
			<rect x="146.949" y="20.72" width="24.26" height="1.017"/>
			<rect x="170.037" y="15.939" width="1.172" height="5.75"/>
			<polygon points="167.199,0.001 171.209,15.939 170.037,15.939 166.139,0.001 			"/>
			<rect x="149.387" y="21.689" width="1" height="12.543"/>
			<rect x="152.199" y="21.689" width="1" height="12.543"/>
			<rect x="157.043" y="21.689" width="1" height="12.543"/>
			<rect x="159.824" y="21.689" width="1" height="12.543"/>
		</g>
	</g>
	<g>
		<rect x="24.21" y="16.449" fill="#636363" width="122.946" height="4.552"/>
		<rect x="24.21" y="0.512" fill="#A8A8A8" width="122.946" height="15.694"/>
		<rect x="24.21" y="15.939" width="122.946" height="1.021"/>
		<rect x="24.21" y="0.001" width="122.946" height="1.021"/>
		<rect x="24.21" y="20.72" width="122.946" height="1.017"/>
	</g>
	<g>
		
			<linearGradient id="SVGID_1_" gradientUnits="userSpaceOnUse" x1="463.9092" y1="807.6191" x2="463.9092" y2="818.0742" gradientTransform="matrix(1 0 0 1 -305.1504 -762.3848)">
			<stop  offset="0" style="stop-color:#C2C2C2"/>
			<stop  offset="0.0673" style="stop-color:#B1B1B1"/>
			<stop  offset="0.2964" style="stop-color:#7E7E7E"/>
			<stop  offset="0.5119" style="stop-color:#6E6E6E"/>
			<stop  offset="0.7074" style="stop-color:#454545"/>
			<stop  offset="0.8766" style="stop-color:#5E5E5E"/>
			<stop  offset="1" style="stop-color:#949494"/>
		</linearGradient>
		<polyline fill="url(#SVGID_1_)" points="146.922,45.734 146.922,55.69 163.932,55.69 166.111,54.522 167.672,52.901 
			169.006,50.713 170.596,45.734 170.596,45.234 147.422,45.401 146.922,45.239 146.922,45.734 		"/>
		
			<linearGradient id="SVGID_2_" gradientUnits="userSpaceOnUse" x1="461.1133" y1="807.625" x2="461.1133" y2="797.1191" gradientTransform="matrix(1 0 0 1 -305.1504 -762.3848)">
			<stop  offset="0" style="stop-color:#C2C2C2"/>
			<stop  offset="0.0032" style="stop-color:#B9B9B9"/>
			<stop  offset="0.0129" style="stop-color:#A3A3A3"/>
			<stop  offset="0.0243" style="stop-color:#929292"/>
			<stop  offset="0.0385" style="stop-color:#878787"/>
			<stop  offset="0.0584" style="stop-color:#808080"/>
			<stop  offset="0.1136" style="stop-color:#7E7E7E"/>
			<stop  offset="0.1233" style="stop-color:#7C7C7C"/>
			<stop  offset="0.3676" style="stop-color:#555555"/>
			<stop  offset="0.5917" style="stop-color:#383838"/>
			<stop  offset="0.7865" style="stop-color:#272727"/>
			<stop  offset="0.9301" style="stop-color:#212121"/>
		</linearGradient>
		<polyline fill="url(#SVGID_2_)" points="146.922,34.734 146.922,45.239 165.006,45.234 163.672,42.819 163.295,40.266 
			163.297,37.986 163.549,36.411 163.932,34.734 146.922,34.734 		"/>
		<polygon points="164.256,35.234 146.922,35.234 146.922,34.234 164.547,34.234 		"/>
		<rect x="146.922" y="55.172" width="16.375" height="1"/>
		<rect x="149.861" y="34.236" fill="#58595B" width="2.813" height="5.19"/>
		<rect x="157.646" y="34.234" fill="#939598" width="2.813" height="10.5"/>
		<rect x="149.361" y="34.234" width="1" height="4.354"/>
		<rect x="152.172" y="34.234" width="1" height="4.354"/>
		<rect x="157.018" y="34.234" width="1" height="10.5"/>
		<rect x="159.797" y="34.234" width="1" height="10.5"/>
		<rect x="149.861" y="56.174" fill="#58595B" width="2.813" height="12.939"/>
		<rect x="157.646" y="56.172" fill="#939598" width="2.813" height="12.939"/>
		<rect x="149.361" y="56.172" width="1" height="12.941"/>
		<rect x="152.172" y="56.172" width="1" height="12.941"/>
		<rect x="157.018" y="56.172" width="1" height="12.939"/>
		<rect x="159.797" y="56.172" width="1" height="12.939"/>
		<rect x="146.922" y="44.734" width="24.084" height="1"/>
		<path d="M163.297,55.172c0,0,4.801,0.125,6.713-9.438h0.996c0,0-1.488,9.781-7.709,10.438"/>
		<path d="M164.256,35.234c0,0-1.459,7.083,0.834,9.5h-1.291c0,0-1.918-3.208-0.502-9.5H164.256z"/>
		<path d="M150.361,38.589c0,0,0.047,0.692,0.906,0.692c0,0,0.904,0.004,0.904-0.692h1c0,0-0.139,1.678-1.904,1.678
			c0,0-1.906-0.074-1.906-1.678H150.361z"/>
	</g>
	<g>
		<g id="Layer_3_1_">
			<rect x="0.26" y="16.449" fill="#636363" width="24" height="4.552"/>
			<rect x="18.509" y="21.439" fill="#58595B" width="2.813" height="12.793"/>
			<rect x="10.723" y="21.439" fill="#939598" width="2.813" height="12.793"/>
			<polygon fill="#A8A8A8" points="24.26,0.512 24.26,16.206 0.586,16.206 4.447,0.512 			"/>
			<ellipse fill="#787878" cx="11.753" cy="9.287" rx="1.909" ry="0.787"/>
			<ellipse fill="#787878" cx="19.892" cy="5.203" rx="1.909" ry="0.787"/>
		</g>
		<g id="Layer_2_2_">
			<rect x="0" y="15.939" width="24.26" height="1.021"/>
			<polygon points="4.01,0.001 24.26,0.001 24.26,1.022 3.791,1.022 			"/>
			<rect x="0" y="20.72" width="24.26" height="1.017"/>
			<rect x="0" y="15.939" width="1.172" height="5.75"/>
			<polygon points="5.072,0.001 1.172,15.939 0,15.939 4.01,0.001 			"/>
			<rect x="20.823" y="21.689" width="1" height="12.543"/>
			<rect x="18.01" y="21.689" width="1" height="12.543"/>
			<rect x="13.167" y="21.689" width="1" height="12.543"/>
			<rect x="10.385" y="21.689" width="1" height="12.543"/>
		</g>
	</g>
	<g>
		
			<linearGradient id="SVGID_3_" gradientUnits="userSpaceOnUse" x1="259.7354" y1="807.6191" x2="259.7354" y2="818.0752" gradientTransform="matrix(-1 0 0 1 272.1855 -762.3848)">
			<stop  offset="0" style="stop-color:#C2C2C2"/>
			<stop  offset="0.0673" style="stop-color:#B1B1B1"/>
			<stop  offset="0.2964" style="stop-color:#7E7E7E"/>
			<stop  offset="0.5119" style="stop-color:#6E6E6E"/>
			<stop  offset="0.7074" style="stop-color:#454545"/>
			<stop  offset="0.8766" style="stop-color:#5E5E5E"/>
			<stop  offset="1" style="stop-color:#949494"/>
		</linearGradient>
		<polyline fill="url(#SVGID_3_)" points="24.288,45.734 24.288,45.239 23.788,45.401 0.614,45.234 0.614,45.734 2.205,50.713 
			3.538,52.901 5.099,54.522 7.278,55.69 24.288,55.69 24.288,45.734 		"/>
		
			<linearGradient id="SVGID_4_" gradientUnits="userSpaceOnUse" x1="256.9395" y1="807.624" x2="256.9395" y2="797.1191" gradientTransform="matrix(-1 0 0 1 272.1855 -762.3848)">
			<stop  offset="0" style="stop-color:#C2C2C2"/>
			<stop  offset="0.0032" style="stop-color:#B9B9B9"/>
			<stop  offset="0.0129" style="stop-color:#A3A3A3"/>
			<stop  offset="0.0243" style="stop-color:#929292"/>
			<stop  offset="0.0385" style="stop-color:#878787"/>
			<stop  offset="0.0584" style="stop-color:#808080"/>
			<stop  offset="0.1136" style="stop-color:#7E7E7E"/>
			<stop  offset="0.1233" style="stop-color:#7C7C7C"/>
			<stop  offset="0.3676" style="stop-color:#555555"/>
			<stop  offset="0.5917" style="stop-color:#383838"/>
			<stop  offset="0.7865" style="stop-color:#272727"/>
			<stop  offset="0.9301" style="stop-color:#212121"/>
		</linearGradient>
		<polyline fill="url(#SVGID_4_)" points="24.288,34.734 7.278,34.734 7.662,36.411 7.913,37.986 7.915,40.266 7.538,42.819 
			6.204,45.234 24.288,45.239 24.288,34.734 		"/>
		<polygon points="6.663,34.234 24.288,34.234 24.288,35.234 6.954,35.234 		"/>
		<rect x="7.913" y="55.172" width="16.375" height="1"/>
		<rect x="18.537" y="34.236" fill="#58595B" width="2.813" height="5.19"/>
		<rect x="10.75" y="34.234" fill="#939598" width="2.813" height="10.5"/>
		<rect x="20.849" y="34.234" width="1" height="4.354"/>
		<rect x="18.038" y="34.234" width="1" height="4.354"/>
		<rect x="13.193" y="34.234" width="1" height="10.5"/>
		<rect x="10.413" y="34.234" width="1" height="10.5"/>
		<rect x="18.537" y="56.174" fill="#58595B" width="2.813" height="12.939"/>
		<rect x="10.75" y="56.172" fill="#939598" width="2.813" height="12.939"/>
		<rect x="20.849" y="56.172" width="1" height="12.941"/>
		<rect x="18.038" y="56.172" width="1" height="12.941"/>
		<rect x="13.193" y="56.172" width="1" height="12.939"/>
		<rect x="10.413" y="56.172" width="1" height="12.939"/>
		<rect x="0.205" y="44.734" width="24.083" height="1"/>
		<path d="M7.913,56.172c-6.22-0.656-7.708-10.438-7.708-10.438H1.2c1.912,9.563,6.713,9.438,6.713,9.438"/>
		<path d="M7.913,35.234c1.417,6.292-0.501,9.5-0.501,9.5H6.121c2.292-2.417,0.833-9.5,0.833-9.5H7.913z"/>
		<path d="M21.849,38.589c0,1.604-1.906,1.678-1.906,1.678c-1.766,0-1.905-1.678-1.905-1.678h1c0,0.696,0.905,0.692,0.905,0.692
			c0.859,0,0.906-0.692,0.906-0.692H21.849z"/>
	</g>
	<g>
		
			<linearGradient id="SVGID_5_" gradientUnits="userSpaceOnUse" x1="390.834" y1="807.6191" x2="390.834" y2="818.0742" gradientTransform="matrix(1 0 0 1 -305.1504 -762.3848)">
			<stop  offset="0" style="stop-color:#C2C2C2"/>
			<stop  offset="0.0673" style="stop-color:#B1B1B1"/>
			<stop  offset="0.2964" style="stop-color:#7E7E7E"/>
			<stop  offset="0.5119" style="stop-color:#6E6E6E"/>
			<stop  offset="0.7074" style="stop-color:#454545"/>
			<stop  offset="0.8766" style="stop-color:#5E5E5E"/>
			<stop  offset="1" style="stop-color:#949494"/>
		</linearGradient>
		<polyline fill="url(#SVGID_5_)" points="24.209,45.734 24.209,55.69 147.158,55.69 147.158,45.234 24.709,45.401 24.209,45.239 
			24.209,45.734 		"/>
		
			<linearGradient id="SVGID_6_" gradientUnits="userSpaceOnUse" x1="390.833" y1="807.625" x2="390.833" y2="797.1191" gradientTransform="matrix(1 0 0 1 -305.1504 -762.3848)">
			<stop  offset="0" style="stop-color:#C2C2C2"/>
			<stop  offset="0.0032" style="stop-color:#B9B9B9"/>
			<stop  offset="0.0129" style="stop-color:#A3A3A3"/>
			<stop  offset="0.0243" style="stop-color:#929292"/>
			<stop  offset="0.0385" style="stop-color:#878787"/>
			<stop  offset="0.0584" style="stop-color:#808080"/>
			<stop  offset="0.1136" style="stop-color:#7E7E7E"/>
			<stop  offset="0.1233" style="stop-color:#7C7C7C"/>
			<stop  offset="0.3676" style="stop-color:#555555"/>
			<stop  offset="0.5917" style="stop-color:#383838"/>
			<stop  offset="0.7865" style="stop-color:#272727"/>
			<stop  offset="0.9301" style="stop-color:#212121"/>
		</linearGradient>
		<polyline fill="url(#SVGID_6_)" points="24.209,34.734 24.209,45.239 147.158,45.234 147.158,34.734 24.209,34.734 		"/>
		<polygon points="147.158,35.234 24.209,35.234 24.209,34.234 147.158,34.234 		"/>
		<rect x="24.209" y="55.172" width="122.947" height="1"/>
		<rect x="24.209" y="44.734" width="122.947" height="1"/>
	</g>
	<g>
		
			<linearGradient id="SVGID_7_" gradientUnits="userSpaceOnUse" x1="463.9092" y1="842.498" x2="463.9092" y2="852.9551" gradientTransform="matrix(1 0 0 1 -305.1504 -762.3848)">
			<stop  offset="0" style="stop-color:#C2C2C2"/>
			<stop  offset="0.0673" style="stop-color:#B1B1B1"/>
			<stop  offset="0.2964" style="stop-color:#7E7E7E"/>
			<stop  offset="0.5119" style="stop-color:#6E6E6E"/>
			<stop  offset="0.7074" style="stop-color:#454545"/>
			<stop  offset="0.8766" style="stop-color:#5E5E5E"/>
			<stop  offset="1" style="stop-color:#949494"/>
		</linearGradient>
		<polyline fill="url(#SVGID_7_)" points="146.922,80.613 146.922,90.57 163.932,90.57 166.111,89.402 167.672,87.781 
			169.006,85.592 170.596,80.613 170.596,80.113 147.422,80.281 146.922,80.119 146.922,80.613 		"/>
		
			<linearGradient id="SVGID_8_" gradientUnits="userSpaceOnUse" x1="461.1133" y1="842.5039" x2="461.1133" y2="831.998" gradientTransform="matrix(1 0 0 1 -305.1504 -762.3848)">
			<stop  offset="0" style="stop-color:#C2C2C2"/>
			<stop  offset="0.0032" style="stop-color:#B9B9B9"/>
			<stop  offset="0.0129" style="stop-color:#A3A3A3"/>
			<stop  offset="0.0243" style="stop-color:#929292"/>
			<stop  offset="0.0385" style="stop-color:#878787"/>
			<stop  offset="0.0584" style="stop-color:#808080"/>
			<stop  offset="0.1136" style="stop-color:#7E7E7E"/>
			<stop  offset="0.1233" style="stop-color:#7C7C7C"/>
			<stop  offset="0.3676" style="stop-color:#555555"/>
			<stop  offset="0.5917" style="stop-color:#383838"/>
			<stop  offset="0.7865" style="stop-color:#272727"/>
			<stop  offset="0.9301" style="stop-color:#212121"/>
		</linearGradient>
		<polyline fill="url(#SVGID_8_)" points="146.922,69.613 146.922,80.119 165.006,80.113 163.672,77.699 163.295,75.145 
			163.297,72.865 163.549,71.29 163.932,69.613 146.922,69.613 		"/>
		<polygon points="164.256,70.113 146.922,70.113 146.922,69.113 164.547,69.113 		"/>
		<rect x="146.922" y="90.051" width="16.375" height="1"/>
		<rect x="149.861" y="69.115" fill="#58595B" width="2.813" height="5.19"/>
		<rect x="157.646" y="69.113" fill="#939598" width="2.813" height="10.5"/>
		<rect x="149.361" y="69.113" width="1" height="4.354"/>
		<rect x="152.172" y="69.113" width="1" height="4.354"/>
		<rect x="157.018" y="69.113" width="1" height="10.5"/>
		<rect x="159.797" y="69.113" width="1" height="10.5"/>
		<rect x="149.861" y="91.053" fill="#58595B" width="2.813" height="12.939"/>
		<rect x="157.646" y="91.051" fill="#939598" width="2.813" height="12.939"/>
		<rect x="149.361" y="91.051" width="1" height="12.941"/>
		<rect x="152.172" y="91.051" width="1" height="12.941"/>
		<rect x="157.018" y="91.051" width="1" height="12.939"/>
		<rect x="159.797" y="91.051" width="1" height="12.939"/>
		<rect x="146.922" y="79.613" width="24.084" height="1"/>
		<path d="M163.297,90.051c0,0,4.801,0.125,6.713-9.438h0.996c0,0-1.488,9.781-7.709,10.438"/>
		<path d="M164.256,70.113c0,0-1.459,7.084,0.834,9.5h-1.291c0,0-1.918-3.208-0.502-9.5H164.256z"/>
		<path d="M150.361,73.468c0,0,0.047,0.692,0.906,0.692c0,0,0.904,0.004,0.904-0.692h1c0,0-0.139,1.678-1.904,1.678
			c0,0-1.906-0.074-1.906-1.678H150.361z"/>
	</g>
	<g>
		
			<linearGradient id="SVGID_9_" gradientUnits="userSpaceOnUse" x1="259.7354" y1="842.498" x2="259.7354" y2="852.9551" gradientTransform="matrix(-1 0 0 1 272.1855 -762.3848)">
			<stop  offset="0" style="stop-color:#C2C2C2"/>
			<stop  offset="0.0673" style="stop-color:#B1B1B1"/>
			<stop  offset="0.2964" style="stop-color:#7E7E7E"/>
			<stop  offset="0.5119" style="stop-color:#6E6E6E"/>
			<stop  offset="0.7074" style="stop-color:#454545"/>
			<stop  offset="0.8766" style="stop-color:#5E5E5E"/>
			<stop  offset="1" style="stop-color:#949494"/>
		</linearGradient>
		<polyline fill="url(#SVGID_9_)" points="24.288,80.613 24.288,80.119 23.788,80.281 0.614,80.113 0.614,80.613 2.205,85.592 
			3.538,87.781 5.099,89.402 7.278,90.57 24.288,90.57 24.288,80.613 		"/>
		
			<linearGradient id="SVGID_10_" gradientUnits="userSpaceOnUse" x1="256.9395" y1="842.5039" x2="256.9395" y2="831.998" gradientTransform="matrix(-1 0 0 1 272.1855 -762.3848)">
			<stop  offset="0" style="stop-color:#C2C2C2"/>
			<stop  offset="0.0032" style="stop-color:#B9B9B9"/>
			<stop  offset="0.0129" style="stop-color:#A3A3A3"/>
			<stop  offset="0.0243" style="stop-color:#929292"/>
			<stop  offset="0.0385" style="stop-color:#878787"/>
			<stop  offset="0.0584" style="stop-color:#808080"/>
			<stop  offset="0.1136" style="stop-color:#7E7E7E"/>
			<stop  offset="0.1233" style="stop-color:#7C7C7C"/>
			<stop  offset="0.3676" style="stop-color:#555555"/>
			<stop  offset="0.5917" style="stop-color:#383838"/>
			<stop  offset="0.7865" style="stop-color:#272727"/>
			<stop  offset="0.9301" style="stop-color:#212121"/>
		</linearGradient>
		<polyline fill="url(#SVGID_10_)" points="24.288,69.613 7.278,69.613 7.662,71.29 7.913,72.865 7.915,75.145 7.538,77.699 
			6.204,80.113 24.288,80.119 24.288,69.613 		"/>
		<polygon points="6.663,69.113 24.288,69.113 24.288,70.113 6.954,70.113 		"/>
		<rect x="7.913" y="90.051" width="16.375" height="1"/>
		<rect x="18.537" y="69.115" fill="#58595B" width="2.813" height="5.19"/>
		<rect x="10.75" y="69.113" fill="#939598" width="2.813" height="10.5"/>
		<rect x="20.849" y="69.113" width="1" height="4.354"/>
		<rect x="18.038" y="69.113" width="1" height="4.354"/>
		<rect x="13.193" y="69.113" width="1" height="10.5"/>
		<rect x="10.413" y="69.113" width="1" height="10.5"/>
		<rect x="18.537" y="91.053" fill="#58595B" width="2.813" height="12.939"/>
		<rect x="10.75" y="91.051" fill="#939598" width="2.813" height="12.939"/>
		<rect x="20.849" y="91.051" width="1" height="12.941"/>
		<rect x="18.038" y="91.051" width="1" height="12.941"/>
		<rect x="13.193" y="91.051" width="1" height="12.939"/>
		<rect x="10.413" y="91.051" width="1" height="12.939"/>
		<rect x="0.205" y="79.613" width="24.083" height="1"/>
		<path d="M7.913,91.051c-6.22-0.656-7.708-10.438-7.708-10.438H1.2c1.912,9.563,6.713,9.438,6.713,9.438"/>
		<path d="M7.913,70.113c1.417,6.292-0.501,9.5-0.501,9.5H6.121c2.292-2.416,0.833-9.5,0.833-9.5H7.913z"/>
		<path d="M21.849,73.468c0,1.604-1.906,1.678-1.906,1.678c-1.766,0-1.905-1.678-1.905-1.678h1c0,0.696,0.905,0.692,0.905,0.692
			c0.859,0,0.906-0.692,0.906-0.692H21.849z"/>
	</g>
	<g>
		
			<linearGradient id="SVGID_11_" gradientUnits="userSpaceOnUse" x1="390.834" y1="842.498" x2="390.834" y2="852.9551" gradientTransform="matrix(1 0 0 1 -305.1504 -762.3848)">
			<stop  offset="0" style="stop-color:#C2C2C2"/>
			<stop  offset="0.0673" style="stop-color:#B1B1B1"/>
			<stop  offset="0.2964" style="stop-color:#7E7E7E"/>
			<stop  offset="0.5119" style="stop-color:#6E6E6E"/>
			<stop  offset="0.7074" style="stop-color:#454545"/>
			<stop  offset="0.8766" style="stop-color:#5E5E5E"/>
			<stop  offset="1" style="stop-color:#949494"/>
		</linearGradient>
		<polyline fill="url(#SVGID_11_)" points="24.209,80.613 24.209,90.57 147.158,90.57 147.158,80.113 24.709,80.281 24.209,80.119 
			24.209,80.613 		"/>
		
			<linearGradient id="SVGID_12_" gradientUnits="userSpaceOnUse" x1="390.833" y1="842.5039" x2="390.833" y2="831.998" gradientTransform="matrix(1 0 0 1 -305.1504 -762.3848)">
			<stop  offset="0" style="stop-color:#C2C2C2"/>
			<stop  offset="0.0032" style="stop-color:#B9B9B9"/>
			<stop  offset="0.0129" style="stop-color:#A3A3A3"/>
			<stop  offset="0.0243" style="stop-color:#929292"/>
			<stop  offset="0.0385" style="stop-color:#878787"/>
			<stop  offset="0.0584" style="stop-color:#808080"/>
			<stop  offset="0.1136" style="stop-color:#7E7E7E"/>
			<stop  offset="0.1233" style="stop-color:#7C7C7C"/>
			<stop  offset="0.3676" style="stop-color:#555555"/>
			<stop  offset="0.5917" style="stop-color:#383838"/>
			<stop  offset="0.7865" style="stop-color:#272727"/>
			<stop  offset="0.9301" style="stop-color:#212121"/>
		</linearGradient>
		<polyline fill="url(#SVGID_12_)" points="24.209,69.613 24.209,80.119 147.158,80.113 147.158,69.613 24.209,69.613 		"/>
		<polygon points="147.158,70.113 24.209,70.113 24.209,69.113 147.158,69.113 		"/>
		<rect x="24.209" y="90.051" width="122.947" height="1"/>
		<rect x="24.209" y="79.613" width="122.947" height="1"/>
	</g>
	<g>
		
			<linearGradient id="SVGID_13_" gradientUnits="userSpaceOnUse" x1="463.9092" y1="877.3789" x2="463.9092" y2="887.834" gradientTransform="matrix(1 0 0 1 -305.1504 -762.3848)">
			<stop  offset="0" style="stop-color:#C2C2C2"/>
			<stop  offset="0.0673" style="stop-color:#B1B1B1"/>
			<stop  offset="0.2964" style="stop-color:#7E7E7E"/>
			<stop  offset="0.5119" style="stop-color:#6E6E6E"/>
			<stop  offset="0.7074" style="stop-color:#454545"/>
			<stop  offset="0.8766" style="stop-color:#5E5E5E"/>
			<stop  offset="1" style="stop-color:#949494"/>
		</linearGradient>
		<polyline fill="url(#SVGID_13_)" points="146.922,115.494 146.922,125.449 163.932,125.449 166.111,124.281 167.672,122.66 
			169.006,120.472 170.596,115.494 170.596,114.994 147.422,115.16 146.922,114.998 146.922,115.494 		"/>
		
			<linearGradient id="SVGID_14_" gradientUnits="userSpaceOnUse" x1="461.1133" y1="877.3828" x2="461.1133" y2="866.8789" gradientTransform="matrix(1 0 0 1 -305.1504 -762.3848)">
			<stop  offset="0" style="stop-color:#C2C2C2"/>
			<stop  offset="0.0032" style="stop-color:#B9B9B9"/>
			<stop  offset="0.0129" style="stop-color:#A3A3A3"/>
			<stop  offset="0.0243" style="stop-color:#929292"/>
			<stop  offset="0.0385" style="stop-color:#878787"/>
			<stop  offset="0.0584" style="stop-color:#808080"/>
			<stop  offset="0.1136" style="stop-color:#7E7E7E"/>
			<stop  offset="0.1233" style="stop-color:#7C7C7C"/>
			<stop  offset="0.3676" style="stop-color:#555555"/>
			<stop  offset="0.5917" style="stop-color:#383838"/>
			<stop  offset="0.7865" style="stop-color:#272727"/>
			<stop  offset="0.9301" style="stop-color:#212121"/>
		</linearGradient>
		<polyline fill="url(#SVGID_14_)" points="146.922,104.494 146.922,114.998 165.006,114.994 163.672,112.578 163.295,110.025 
			163.297,107.746 163.549,106.17 163.932,104.494 146.922,104.494 		"/>
		<polygon points="164.256,104.994 146.922,104.994 146.922,103.994 164.547,103.994 		"/>
		<rect x="146.922" y="124.932" width="16.375" height="1"/>
		<rect x="149.861" y="103.996" fill="#58595B" width="2.813" height="5.189"/>
		<rect x="157.646" y="103.994" fill="#939598" width="2.813" height="10.5"/>
		<rect x="149.361" y="103.994" width="1" height="4.354"/>
		<rect x="152.172" y="103.994" width="1" height="4.354"/>
		<rect x="157.018" y="103.994" width="1" height="10.5"/>
		<rect x="159.797" y="103.994" width="1" height="10.5"/>
		<rect x="149.861" y="125.934" fill="#58595B" width="2.813" height="12.939"/>
		<rect x="157.646" y="125.932" fill="#939598" width="2.813" height="12.939"/>
		<rect x="149.361" y="125.932" width="1" height="12.941"/>
		<rect x="152.172" y="125.932" width="1" height="12.941"/>
		<rect x="157.018" y="125.932" width="1" height="12.939"/>
		<rect x="159.797" y="125.932" width="1" height="12.939"/>
		<rect x="146.922" y="114.494" width="24.084" height="1"/>
		<path d="M163.297,124.932c0,0,4.801,0.125,6.713-9.438h0.996c0,0-1.488,9.781-7.709,10.438"/>
		<path d="M164.256,104.994c0,0-1.459,7.082,0.834,9.5h-1.291c0,0-1.918-3.209-0.502-9.5H164.256z"/>
		<path d="M150.361,108.348c0,0,0.047,0.693,0.906,0.693c0,0,0.904,0.004,0.904-0.693h1c0,0-0.139,1.678-1.904,1.678
			c0,0-1.906-0.074-1.906-1.678H150.361z"/>
	</g>
	<g>
		
			<linearGradient id="SVGID_15_" gradientUnits="userSpaceOnUse" x1="259.7354" y1="877.3779" x2="259.7354" y2="887.833" gradientTransform="matrix(-1 0 0 1 272.1855 -762.3848)">
			<stop  offset="0" style="stop-color:#C2C2C2"/>
			<stop  offset="0.0673" style="stop-color:#B1B1B1"/>
			<stop  offset="0.2964" style="stop-color:#7E7E7E"/>
			<stop  offset="0.5119" style="stop-color:#6E6E6E"/>
			<stop  offset="0.7074" style="stop-color:#454545"/>
			<stop  offset="0.8766" style="stop-color:#5E5E5E"/>
			<stop  offset="1" style="stop-color:#949494"/>
		</linearGradient>
		<polyline fill="url(#SVGID_15_)" points="24.288,115.494 24.288,114.998 23.788,115.16 0.614,114.994 0.614,115.494 
			2.205,120.472 3.538,122.66 5.099,124.281 7.278,125.449 24.288,125.449 24.288,115.494 		"/>
		
			<linearGradient id="SVGID_16_" gradientUnits="userSpaceOnUse" x1="256.9395" y1="877.3838" x2="256.9395" y2="866.8789" gradientTransform="matrix(-1 0 0 1 272.1855 -762.3848)">
			<stop  offset="0" style="stop-color:#C2C2C2"/>
			<stop  offset="0.0032" style="stop-color:#B9B9B9"/>
			<stop  offset="0.0129" style="stop-color:#A3A3A3"/>
			<stop  offset="0.0243" style="stop-color:#929292"/>
			<stop  offset="0.0385" style="stop-color:#878787"/>
			<stop  offset="0.0584" style="stop-color:#808080"/>
			<stop  offset="0.1136" style="stop-color:#7E7E7E"/>
			<stop  offset="0.1233" style="stop-color:#7C7C7C"/>
			<stop  offset="0.3676" style="stop-color:#555555"/>
			<stop  offset="0.5917" style="stop-color:#383838"/>
			<stop  offset="0.7865" style="stop-color:#272727"/>
			<stop  offset="0.9301" style="stop-color:#212121"/>
		</linearGradient>
		<polyline fill="url(#SVGID_16_)" points="24.288,104.494 7.278,104.494 7.662,106.17 7.913,107.746 7.915,110.025 7.538,112.578 
			6.204,114.994 24.288,114.998 24.288,104.494 		"/>
		<polygon points="6.663,103.994 24.288,103.994 24.288,104.994 6.954,104.994 		"/>
		<rect x="7.913" y="124.932" width="16.375" height="1"/>
		<rect x="18.537" y="103.996" fill="#58595B" width="2.813" height="5.189"/>
		<rect x="10.75" y="103.994" fill="#939598" width="2.813" height="10.5"/>
		<rect x="20.849" y="103.994" width="1" height="4.354"/>
		<rect x="18.038" y="103.994" width="1" height="4.354"/>
		<rect x="13.193" y="103.994" width="1" height="10.5"/>
		<rect x="10.413" y="103.994" width="1" height="10.5"/>
		<rect x="18.537" y="125.934" fill="#58595B" width="2.813" height="12.939"/>
		<rect x="10.75" y="125.932" fill="#939598" width="2.813" height="12.939"/>
		<rect x="20.849" y="125.932" width="1" height="12.941"/>
		<rect x="18.038" y="125.932" width="1" height="12.941"/>
		<rect x="13.193" y="125.932" width="1" height="12.939"/>
		<rect x="10.413" y="125.932" width="1" height="12.939"/>
		<rect x="0.205" y="114.494" width="24.083" height="1"/>
		<path d="M7.913,125.932c-6.22-0.656-7.708-10.438-7.708-10.438H1.2c1.912,9.563,6.713,9.438,6.713,9.438"/>
		<path d="M7.913,104.994c1.417,6.291-0.501,9.5-0.501,9.5H6.121c2.292-2.418,0.833-9.5,0.833-9.5H7.913z"/>
		<path d="M21.849,108.348c0,1.604-1.906,1.678-1.906,1.678c-1.766,0-1.905-1.678-1.905-1.678h1c0,0.697,0.905,0.693,0.905,0.693
			c0.859,0,0.906-0.693,0.906-0.693H21.849z"/>
	</g>
	<g>
		
			<linearGradient id="SVGID_17_" gradientUnits="userSpaceOnUse" x1="390.834" y1="877.3789" x2="390.834" y2="887.834" gradientTransform="matrix(1 0 0 1 -305.1504 -762.3848)">
			<stop  offset="0" style="stop-color:#C2C2C2"/>
			<stop  offset="0.0673" style="stop-color:#B1B1B1"/>
			<stop  offset="0.2964" style="stop-color:#7E7E7E"/>
			<stop  offset="0.5119" style="stop-color:#6E6E6E"/>
			<stop  offset="0.7074" style="stop-color:#454545"/>
			<stop  offset="0.8766" style="stop-color:#5E5E5E"/>
			<stop  offset="1" style="stop-color:#949494"/>
		</linearGradient>
		<polyline fill="url(#SVGID_17_)" points="24.209,115.494 24.209,125.449 147.158,125.449 147.158,114.994 24.709,115.16 
			24.209,114.998 24.209,115.494 		"/>
		
			<linearGradient id="SVGID_18_" gradientUnits="userSpaceOnUse" x1="390.833" y1="877.3828" x2="390.833" y2="866.8789" gradientTransform="matrix(1 0 0 1 -305.1504 -762.3848)">
			<stop  offset="0" style="stop-color:#C2C2C2"/>
			<stop  offset="0.0032" style="stop-color:#B9B9B9"/>
			<stop  offset="0.0129" style="stop-color:#A3A3A3"/>
			<stop  offset="0.0243" style="stop-color:#929292"/>
			<stop  offset="0.0385" style="stop-color:#878787"/>
			<stop  offset="0.0584" style="stop-color:#808080"/>
			<stop  offset="0.1136" style="stop-color:#7E7E7E"/>
			<stop  offset="0.1233" style="stop-color:#7C7C7C"/>
			<stop  offset="0.3676" style="stop-color:#555555"/>
			<stop  offset="0.5917" style="stop-color:#383838"/>
			<stop  offset="0.7865" style="stop-color:#272727"/>
			<stop  offset="0.9301" style="stop-color:#212121"/>
		</linearGradient>
		<polyline fill="url(#SVGID_18_)" points="24.209,104.494 24.209,114.998 147.158,114.994 147.158,104.494 24.209,104.494 		"/>
		<polygon points="147.158,104.994 24.209,104.994 24.209,103.994 147.158,103.994 		"/>
		<rect x="24.209" y="124.932" width="122.947" height="1"/>
		<rect x="24.209" y="114.494" width="122.947" height="1"/>
	</g>
	<g>
		
			<linearGradient id="SVGID_19_" gradientUnits="userSpaceOnUse" x1="463.9092" y1="912.2568" x2="463.9092" y2="922.7139" gradientTransform="matrix(1 0 0 1 -305.1504 -762.3848)">
			<stop  offset="0" style="stop-color:#C2C2C2"/>
			<stop  offset="0.0673" style="stop-color:#B1B1B1"/>
			<stop  offset="0.2964" style="stop-color:#7E7E7E"/>
			<stop  offset="0.5119" style="stop-color:#6E6E6E"/>
			<stop  offset="0.7074" style="stop-color:#454545"/>
			<stop  offset="0.8766" style="stop-color:#5E5E5E"/>
			<stop  offset="1" style="stop-color:#949494"/>
		</linearGradient>
		<polyline fill="url(#SVGID_19_)" points="146.922,150.372 146.922,160.329 163.932,160.329 166.111,159.161 167.672,157.54 
			169.006,155.351 170.596,150.372 170.596,149.872 147.422,150.04 146.922,149.878 146.922,150.372 		"/>
		
			<linearGradient id="SVGID_20_" gradientUnits="userSpaceOnUse" x1="461.1133" y1="912.2627" x2="461.1133" y2="901.7578" gradientTransform="matrix(1 0 0 1 -305.1504 -762.3848)">
			<stop  offset="0" style="stop-color:#C2C2C2"/>
			<stop  offset="0.0032" style="stop-color:#B9B9B9"/>
			<stop  offset="0.0129" style="stop-color:#A3A3A3"/>
			<stop  offset="0.0243" style="stop-color:#929292"/>
			<stop  offset="0.0385" style="stop-color:#878787"/>
			<stop  offset="0.0584" style="stop-color:#808080"/>
			<stop  offset="0.1136" style="stop-color:#7E7E7E"/>
			<stop  offset="0.1233" style="stop-color:#7C7C7C"/>
			<stop  offset="0.3676" style="stop-color:#555555"/>
			<stop  offset="0.5917" style="stop-color:#383838"/>
			<stop  offset="0.7865" style="stop-color:#272727"/>
			<stop  offset="0.9301" style="stop-color:#212121"/>
		</linearGradient>
		<polyline fill="url(#SVGID_20_)" points="146.922,139.373 146.922,149.878 165.006,149.872 163.672,147.458 163.295,144.904 
			163.297,142.625 163.549,141.049 163.932,139.373 146.922,139.373 		"/>
		<polygon points="164.256,139.873 146.922,139.873 146.922,138.873 164.547,138.873 		"/>
		<rect x="146.922" y="159.81" width="16.375" height="1"/>
		<rect x="149.861" y="138.875" fill="#58595B" width="2.813" height="5.189"/>
		<rect x="157.646" y="138.873" fill="#939598" width="2.813" height="10.499"/>
		<rect x="149.361" y="138.873" width="1" height="4.354"/>
		<rect x="152.172" y="138.873" width="1" height="4.354"/>
		<rect x="157.018" y="138.873" width="1" height="10.499"/>
		<rect x="159.797" y="138.873" width="1" height="10.499"/>
		<rect x="149.861" y="160.812" fill="#58595B" width="2.813" height="12.939"/>
		<rect x="157.646" y="160.81" fill="#939598" width="2.813" height="12.939"/>
		<rect x="149.361" y="160.81" width="1" height="12.941"/>
		<rect x="152.172" y="160.81" width="1" height="12.941"/>
		<rect x="157.018" y="160.81" width="1" height="12.939"/>
		<rect x="159.797" y="160.81" width="1" height="12.939"/>
		<rect x="146.922" y="149.372" width="24.084" height="1"/>
		<path d="M163.297,159.81c0,0,4.801,0.125,6.713-9.438h0.996c0,0-1.488,9.781-7.709,10.438"/>
		<path d="M164.256,139.873c0,0-1.459,7.083,0.834,9.499h-1.291c0,0-1.918-3.208-0.502-9.499H164.256z"/>
		<path d="M150.361,143.227c0,0,0.047,0.693,0.906,0.693c0,0,0.904,0.004,0.904-0.693h1c0,0-0.139,1.678-1.904,1.678
			c0,0-1.906-0.074-1.906-1.678H150.361z"/>
	</g>
	<g>
		
			<linearGradient id="SVGID_21_" gradientUnits="userSpaceOnUse" x1="259.7354" y1="912.2559" x2="259.7354" y2="922.7129" gradientTransform="matrix(-1 0 0 1 272.1855 -762.3848)">
			<stop  offset="0" style="stop-color:#C2C2C2"/>
			<stop  offset="0.0673" style="stop-color:#B1B1B1"/>
			<stop  offset="0.2964" style="stop-color:#7E7E7E"/>
			<stop  offset="0.5119" style="stop-color:#6E6E6E"/>
			<stop  offset="0.7074" style="stop-color:#454545"/>
			<stop  offset="0.8766" style="stop-color:#5E5E5E"/>
			<stop  offset="1" style="stop-color:#949494"/>
		</linearGradient>
		<polyline fill="url(#SVGID_21_)" points="24.288,150.372 24.288,149.878 23.788,150.04 0.614,149.872 0.614,150.372 
			2.205,155.351 3.538,157.54 5.099,159.161 7.278,160.329 24.288,160.329 24.288,150.372 		"/>
		
			<linearGradient id="SVGID_22_" gradientUnits="userSpaceOnUse" x1="256.9395" y1="912.2637" x2="256.9395" y2="901.7588" gradientTransform="matrix(-1 0 0 1 272.1855 -762.3848)">
			<stop  offset="0" style="stop-color:#C2C2C2"/>
			<stop  offset="0.0032" style="stop-color:#B9B9B9"/>
			<stop  offset="0.0129" style="stop-color:#A3A3A3"/>
			<stop  offset="0.0243" style="stop-color:#929292"/>
			<stop  offset="0.0385" style="stop-color:#878787"/>
			<stop  offset="0.0584" style="stop-color:#808080"/>
			<stop  offset="0.1136" style="stop-color:#7E7E7E"/>
			<stop  offset="0.1233" style="stop-color:#7C7C7C"/>
			<stop  offset="0.3676" style="stop-color:#555555"/>
			<stop  offset="0.5917" style="stop-color:#383838"/>
			<stop  offset="0.7865" style="stop-color:#272727"/>
			<stop  offset="0.9301" style="stop-color:#212121"/>
		</linearGradient>
		<polyline fill="url(#SVGID_22_)" points="24.288,139.373 7.278,139.373 7.662,141.049 7.913,142.625 7.915,144.904 7.538,147.458 
			6.204,149.872 24.288,149.878 24.288,139.373 		"/>
		<polygon points="6.663,138.873 24.288,138.873 24.288,139.873 6.954,139.873 		"/>
		<rect x="7.913" y="159.81" width="16.375" height="1"/>
		<rect x="18.537" y="138.875" fill="#58595B" width="2.813" height="5.189"/>
		<rect x="10.75" y="138.873" fill="#939598" width="2.813" height="10.499"/>
		<rect x="20.849" y="138.873" width="1" height="4.354"/>
		<rect x="18.038" y="138.873" width="1" height="4.354"/>
		<rect x="13.193" y="138.873" width="1" height="10.499"/>
		<rect x="10.413" y="138.873" width="1" height="10.499"/>
		<rect x="18.537" y="160.812" fill="#58595B" width="2.813" height="12.939"/>
		<rect x="10.75" y="160.81" fill="#939598" width="2.813" height="12.939"/>
		<rect x="20.849" y="160.81" width="1" height="12.941"/>
		<rect x="18.038" y="160.81" width="1" height="12.941"/>
		<rect x="13.193" y="160.81" width="1" height="12.939"/>
		<rect x="10.413" y="160.81" width="1" height="12.939"/>
		<rect x="0.205" y="149.372" width="24.083" height="1"/>
		<path d="M7.913,160.81c-6.22-0.656-7.708-10.438-7.708-10.438H1.2c1.912,9.563,6.713,9.438,6.713,9.438"/>
		<path d="M7.913,139.873c1.417,6.291-0.501,9.499-0.501,9.499H6.121c2.292-2.416,0.833-9.499,0.833-9.499H7.913z"/>
		<path d="M21.849,143.227c0,1.604-1.906,1.678-1.906,1.678c-1.766,0-1.905-1.678-1.905-1.678h1c0,0.697,0.905,0.693,0.905,0.693
			c0.859,0,0.906-0.693,0.906-0.693H21.849z"/>
	</g>
	<g>
		
			<linearGradient id="SVGID_23_" gradientUnits="userSpaceOnUse" x1="390.834" y1="912.2568" x2="390.834" y2="922.7139" gradientTransform="matrix(1 0 0 1 -305.1504 -762.3848)">
			<stop  offset="0" style="stop-color:#C2C2C2"/>
			<stop  offset="0.0673" style="stop-color:#B1B1B1"/>
			<stop  offset="0.2964" style="stop-color:#7E7E7E"/>
			<stop  offset="0.5119" style="stop-color:#6E6E6E"/>
			<stop  offset="0.7074" style="stop-color:#454545"/>
			<stop  offset="0.8766" style="stop-color:#5E5E5E"/>
			<stop  offset="1" style="stop-color:#949494"/>
		</linearGradient>
		<polyline fill="url(#SVGID_23_)" points="24.209,150.372 24.209,160.329 147.158,160.329 147.158,149.872 24.709,150.04 
			24.209,149.878 24.209,150.372 		"/>
		
			<linearGradient id="SVGID_24_" gradientUnits="userSpaceOnUse" x1="390.833" y1="912.2627" x2="390.833" y2="901.7578" gradientTransform="matrix(1 0 0 1 -305.1504 -762.3848)">
			<stop  offset="0" style="stop-color:#C2C2C2"/>
			<stop  offset="0.0032" style="stop-color:#B9B9B9"/>
			<stop  offset="0.0129" style="stop-color:#A3A3A3"/>
			<stop  offset="0.0243" style="stop-color:#929292"/>
			<stop  offset="0.0385" style="stop-color:#878787"/>
			<stop  offset="0.0584" style="stop-color:#808080"/>
			<stop  offset="0.1136" style="stop-color:#7E7E7E"/>
			<stop  offset="0.1233" style="stop-color:#7C7C7C"/>
			<stop  offset="0.3676" style="stop-color:#555555"/>
			<stop  offset="0.5917" style="stop-color:#383838"/>
			<stop  offset="0.7865" style="stop-color:#272727"/>
			<stop  offset="0.9301" style="stop-color:#212121"/>
		</linearGradient>
		<polyline fill="url(#SVGID_24_)" points="24.209,139.373 24.209,149.878 147.158,149.872 147.158,139.373 24.209,139.373 		"/>
		<polygon points="147.158,139.873 24.209,139.873 24.209,138.873 147.158,138.873 		"/>
		<rect x="24.209" y="159.81" width="122.947" height="1"/>
		<rect x="24.209" y="149.372" width="122.947" height="1"/>
	</g>
	<g>
		
			<linearGradient id="SVGID_25_" gradientUnits="userSpaceOnUse" x1="463.9092" y1="947.1348" x2="463.9092" y2="957.5918" gradientTransform="matrix(1 0 0 1 -305.1504 -762.3848)">
			<stop  offset="0" style="stop-color:#C2C2C2"/>
			<stop  offset="0.0673" style="stop-color:#B1B1B1"/>
			<stop  offset="0.2964" style="stop-color:#7E7E7E"/>
			<stop  offset="0.5119" style="stop-color:#6E6E6E"/>
			<stop  offset="0.7074" style="stop-color:#454545"/>
			<stop  offset="0.8766" style="stop-color:#5E5E5E"/>
			<stop  offset="1" style="stop-color:#949494"/>
		</linearGradient>
		<polyline fill="url(#SVGID_25_)" points="146.922,185.25 146.922,195.207 163.932,195.207 166.111,194.039 167.672,192.418 
			169.006,190.229 170.596,185.25 170.596,184.75 147.422,184.918 146.922,184.756 146.922,185.25 		"/>
		
			<linearGradient id="SVGID_26_" gradientUnits="userSpaceOnUse" x1="461.1133" y1="947.1406" x2="461.1133" y2="936.6357" gradientTransform="matrix(1 0 0 1 -305.1504 -762.3848)">
			<stop  offset="0" style="stop-color:#C2C2C2"/>
			<stop  offset="0.0032" style="stop-color:#B9B9B9"/>
			<stop  offset="0.0129" style="stop-color:#A3A3A3"/>
			<stop  offset="0.0243" style="stop-color:#929292"/>
			<stop  offset="0.0385" style="stop-color:#878787"/>
			<stop  offset="0.0584" style="stop-color:#808080"/>
			<stop  offset="0.1136" style="stop-color:#7E7E7E"/>
			<stop  offset="0.1233" style="stop-color:#7C7C7C"/>
			<stop  offset="0.3676" style="stop-color:#555555"/>
			<stop  offset="0.5917" style="stop-color:#383838"/>
			<stop  offset="0.7865" style="stop-color:#272727"/>
			<stop  offset="0.9301" style="stop-color:#212121"/>
		</linearGradient>
		<polyline fill="url(#SVGID_26_)" points="146.922,174.251 146.922,184.756 165.006,184.75 163.672,182.336 163.295,179.782 
			163.297,177.503 163.549,175.927 163.932,174.251 146.922,174.251 		"/>
		<polygon points="164.256,174.751 146.922,174.751 146.922,173.751 164.547,173.751 		"/>
		<rect x="146.922" y="194.688" width="16.375" height="1"/>
		<rect x="149.861" y="173.753" fill="#58595B" width="2.813" height="5.189"/>
		<rect x="157.646" y="173.751" fill="#939598" width="2.813" height="10.499"/>
		<rect x="149.361" y="173.751" width="1" height="4.354"/>
		<rect x="152.172" y="173.751" width="1" height="4.354"/>
		<rect x="157.018" y="173.751" width="1" height="10.499"/>
		<rect x="159.797" y="173.751" width="1" height="10.499"/>
		<rect x="149.861" y="195.689" fill="#58595B" width="2.813" height="12.939"/>
		<rect x="157.646" y="195.688" fill="#939598" width="2.813" height="12.939"/>
		<rect x="149.361" y="195.688" width="1" height="12.941"/>
		<rect x="152.172" y="195.688" width="1" height="12.941"/>
		<rect x="157.018" y="195.688" width="1" height="12.939"/>
		<rect x="159.797" y="195.688" width="1" height="12.939"/>
		<rect x="146.922" y="184.25" width="24.084" height="1"/>
		<path d="M163.297,194.688c0,0,4.801,0.125,6.713-9.438h0.996c0,0-1.488,9.781-7.709,10.438"/>
		<path d="M164.256,174.751c0,0-1.459,7.083,0.834,9.499h-1.291c0,0-1.918-3.208-0.502-9.499H164.256z"/>
		<path d="M150.361,178.104c0,0,0.047,0.693,0.906,0.693c0,0,0.904,0.004,0.904-0.693h1c0,0-0.139,1.678-1.904,1.678
			c0,0-1.906-0.074-1.906-1.678H150.361z"/>
	</g>
	<g>
		
			<linearGradient id="SVGID_27_" gradientUnits="userSpaceOnUse" x1="259.7354" y1="947.1338" x2="259.7354" y2="957.5908" gradientTransform="matrix(-1 0 0 1 272.1855 -762.3848)">
			<stop  offset="0" style="stop-color:#C2C2C2"/>
			<stop  offset="0.0673" style="stop-color:#B1B1B1"/>
			<stop  offset="0.2964" style="stop-color:#7E7E7E"/>
			<stop  offset="0.5119" style="stop-color:#6E6E6E"/>
			<stop  offset="0.7074" style="stop-color:#454545"/>
			<stop  offset="0.8766" style="stop-color:#5E5E5E"/>
			<stop  offset="1" style="stop-color:#949494"/>
		</linearGradient>
		<polyline fill="url(#SVGID_27_)" points="24.288,185.25 24.288,184.756 23.788,184.918 0.614,184.75 0.614,185.25 2.205,190.229 
			3.538,192.418 5.099,194.039 7.278,195.207 24.288,195.207 24.288,185.25 		"/>
		
			<linearGradient id="SVGID_28_" gradientUnits="userSpaceOnUse" x1="256.9395" y1="947.1416" x2="256.9395" y2="936.6367" gradientTransform="matrix(-1 0 0 1 272.1855 -762.3848)">
			<stop  offset="0" style="stop-color:#C2C2C2"/>
			<stop  offset="0.0032" style="stop-color:#B9B9B9"/>
			<stop  offset="0.0129" style="stop-color:#A3A3A3"/>
			<stop  offset="0.0243" style="stop-color:#929292"/>
			<stop  offset="0.0385" style="stop-color:#878787"/>
			<stop  offset="0.0584" style="stop-color:#808080"/>
			<stop  offset="0.1136" style="stop-color:#7E7E7E"/>
			<stop  offset="0.1233" style="stop-color:#7C7C7C"/>
			<stop  offset="0.3676" style="stop-color:#555555"/>
			<stop  offset="0.5917" style="stop-color:#383838"/>
			<stop  offset="0.7865" style="stop-color:#272727"/>
			<stop  offset="0.9301" style="stop-color:#212121"/>
		</linearGradient>
		<polyline fill="url(#SVGID_28_)" points="24.288,174.251 7.278,174.251 7.662,175.927 7.913,177.503 7.915,179.782 7.538,182.336 
			6.204,184.75 24.288,184.756 24.288,174.251 		"/>
		<polygon points="6.663,173.751 24.288,173.751 24.288,174.751 6.954,174.751 		"/>
		<rect x="7.913" y="194.688" width="16.375" height="1"/>
		<rect x="18.537" y="173.753" fill="#58595B" width="2.813" height="5.189"/>
		<rect x="10.75" y="173.751" fill="#939598" width="2.813" height="10.499"/>
		<rect x="20.849" y="173.751" width="1" height="4.354"/>
		<rect x="18.038" y="173.751" width="1" height="4.354"/>
		<rect x="13.193" y="173.751" width="1" height="10.499"/>
		<rect x="10.413" y="173.751" width="1" height="10.499"/>
		<rect x="18.537" y="195.689" fill="#58595B" width="2.813" height="12.939"/>
		<rect x="10.75" y="195.688" fill="#939598" width="2.813" height="12.939"/>
		<rect x="20.849" y="195.688" width="1" height="12.941"/>
		<rect x="18.038" y="195.688" width="1" height="12.941"/>
		<rect x="13.193" y="195.688" width="1" height="12.939"/>
		<rect x="10.413" y="195.688" width="1" height="12.939"/>
		<rect x="0.205" y="184.25" width="24.083" height="1"/>
		<path d="M7.913,195.688c-6.22-0.656-7.708-10.438-7.708-10.438H1.2c1.912,9.563,6.713,9.438,6.713,9.438"/>
		<path d="M7.913,174.751c1.417,6.291-0.501,9.499-0.501,9.499H6.121c2.292-2.416,0.833-9.499,0.833-9.499H7.913z"/>
		<path d="M21.849,178.104c0,1.604-1.906,1.678-1.906,1.678c-1.766,0-1.905-1.678-1.905-1.678h1c0,0.697,0.905,0.693,0.905,0.693
			c0.859,0,0.906-0.693,0.906-0.693H21.849z"/>
	</g>
	<g>
		
			<linearGradient id="SVGID_29_" gradientUnits="userSpaceOnUse" x1="390.834" y1="947.1348" x2="390.834" y2="957.5918" gradientTransform="matrix(1 0 0 1 -305.1504 -762.3848)">
			<stop  offset="0" style="stop-color:#C2C2C2"/>
			<stop  offset="0.0673" style="stop-color:#B1B1B1"/>
			<stop  offset="0.2964" style="stop-color:#7E7E7E"/>
			<stop  offset="0.5119" style="stop-color:#6E6E6E"/>
			<stop  offset="0.7074" style="stop-color:#454545"/>
			<stop  offset="0.8766" style="stop-color:#5E5E5E"/>
			<stop  offset="1" style="stop-color:#949494"/>
		</linearGradient>
		<polyline fill="url(#SVGID_29_)" points="24.209,185.25 24.209,195.207 147.158,195.207 147.158,184.75 24.709,184.918 
			24.209,184.756 24.209,185.25 		"/>
		
			<linearGradient id="SVGID_30_" gradientUnits="userSpaceOnUse" x1="390.833" y1="947.1406" x2="390.833" y2="936.6357" gradientTransform="matrix(1 0 0 1 -305.1504 -762.3848)">
			<stop  offset="0" style="stop-color:#C2C2C2"/>
			<stop  offset="0.0032" style="stop-color:#B9B9B9"/>
			<stop  offset="0.0129" style="stop-color:#A3A3A3"/>
			<stop  offset="0.0243" style="stop-color:#929292"/>
			<stop  offset="0.0385" style="stop-color:#878787"/>
			<stop  offset="0.0584" style="stop-color:#808080"/>
			<stop  offset="0.1136" style="stop-color:#7E7E7E"/>
			<stop  offset="0.1233" style="stop-color:#7C7C7C"/>
			<stop  offset="0.3676" style="stop-color:#555555"/>
			<stop  offset="0.5917" style="stop-color:#383838"/>
			<stop  offset="0.7865" style="stop-color:#272727"/>
			<stop  offset="0.9301" style="stop-color:#212121"/>
		</linearGradient>
		<polyline fill="url(#SVGID_30_)" points="24.209,174.251 24.209,184.756 147.158,184.75 147.158,174.251 24.209,174.251 		"/>
		<polygon points="147.158,174.751 24.209,174.751 24.209,173.751 147.158,173.751 		"/>
		<rect x="24.209" y="194.688" width="122.947" height="1"/>
		<rect x="24.209" y="184.25" width="122.947" height="1"/>
	</g>
</g>
</svg>
