<?xml version="1.0" encoding="utf-8"?>
<!-- Generator: Adobe Illustrator 16.0.0, SVG Export Plug-In . SVG Version: 6.00 Build 0)  -->
<!DOCTYPE svg PUBLIC "-//W3C//DTD SVG 1.1//EN" "http://www.w3.org/Graphics/SVG/1.1/DTD/svg11.dtd">
<svg version="1.1" id="Layer_1" xmlns="http://www.w3.org/2000/svg" xmlns:xlink="http://www.w3.org/1999/xlink" x="0px" y="0px"
	 width="191.121px" height="268.25px" viewBox="0 0 191.121 268.25" enable-background="new 0 0 191.121 268.25"
	 xml:space="preserve">
<g>
	<g>
		<g>
			<rect x="160.516" y="200.757" fill="#171717" width="11.055" height="55.984"/>
			<line fill="none" stroke="#595959" stroke-miterlimit="10" x1="168.958" y1="200.97" x2="168.958" y2="256.534"/>
			<line fill="none" stroke="#595959" stroke-miterlimit="10" x1="163.816" y1="200.97" x2="163.816" y2="256.534"/>
			<rect x="163.816" y="251.17" fill="none" stroke="#595959" stroke-miterlimit="10" width="5.143" height="0.902"/>
			<rect x="163.816" y="252.953" fill="none" stroke="#595959" stroke-miterlimit="10" width="5.143" height="0.903"/>
			<rect x="163.816" y="254.816" fill="none" stroke="#595959" stroke-miterlimit="10" width="5.143" height="0.903"/>
			<rect x="163.816" y="244.421" fill="none" stroke="#595959" stroke-miterlimit="10" width="5.143" height="0.903"/>
			<rect x="163.816" y="246.205" fill="none" stroke="#595959" stroke-miterlimit="10" width="5.143" height="0.901"/>
			<rect x="163.816" y="248.067" fill="none" stroke="#595959" stroke-miterlimit="10" width="5.143" height="0.902"/>
			<g>
				<rect x="163.816" y="236.852" fill="none" stroke="#595959" stroke-miterlimit="10" width="5.143" height="0.902"/>
				<rect x="163.816" y="238.637" fill="none" stroke="#595959" stroke-miterlimit="10" width="5.143" height="0.9"/>
				<rect x="163.816" y="240.498" fill="none" stroke="#595959" stroke-miterlimit="10" width="5.143" height="0.902"/>
			</g>
			<g>
				<rect x="163.816" y="228.101" fill="none" stroke="#595959" stroke-miterlimit="10" width="5.143" height="0.904"/>
				<rect x="163.816" y="229.886" fill="none" stroke="#595959" stroke-miterlimit="10" width="5.143" height="0.903"/>
				<rect x="163.816" y="231.748" fill="none" stroke="#595959" stroke-miterlimit="10" width="5.143" height="0.903"/>
			</g>
			<g>
				<rect x="163.816" y="219.617" fill="none" stroke="#595959" stroke-miterlimit="10" width="5.143" height="0.902"/>
				<rect x="163.816" y="221.401" fill="none" stroke="#595959" stroke-miterlimit="10" width="5.143" height="0.902"/>
				<rect x="163.816" y="223.265" fill="none" stroke="#595959" stroke-miterlimit="10" width="5.143" height="0.902"/>
			</g>
			<g>
				<rect x="163.816" y="208.294" fill="none" stroke="#595959" stroke-miterlimit="10" width="5.143" height="0.901"/>
				<rect x="163.816" y="210.076" fill="none" stroke="#595959" stroke-miterlimit="10" width="5.143" height="0.903"/>
				<rect x="163.816" y="211.939" fill="none" stroke="#595959" stroke-miterlimit="10" width="5.143" height="0.903"/>
			</g>
			<g>
				<rect x="163.816" y="201.144" fill="none" stroke="#595959" stroke-miterlimit="10" width="5.143" height="0.904"/>
				<rect x="163.816" y="202.928" fill="none" stroke="#595959" stroke-miterlimit="10" width="5.143" height="0.903"/>
				<rect x="163.816" y="204.791" fill="none" stroke="#595959" stroke-miterlimit="10" width="5.143" height="0.902"/>
			</g>
			<polygon fill="#B88D00" points="160.516,200.757 160.516,256.741 171.594,256.741 171.594,200.757 175.643,200.757 
				175.643,256.741 175.643,258.139 175.643,258.182 156.466,258.182 156.466,258.139 156.466,256.741 156.466,200.757 			"/>
			<polygon points="175.643,253.472 171.645,252.072 171.645,255.969 175.643,257.267 			"/>
			<polygon points="156.471,251.877 160.516,250.479 160.516,254.376 156.471,255.674 			"/>
			<polygon points="175.643,245.802 171.645,244.404 171.645,248.3 175.643,249.598 			"/>
			<polygon points="156.471,244.208 160.516,242.812 160.516,246.707 156.471,248.007 			"/>
			<polygon points="175.643,238.103 171.645,236.705 171.645,240.602 175.643,241.901 			"/>
			<polygon points="156.471,236.511 160.516,235.112 160.516,239.009 156.471,240.308 			"/>
			<polygon points="175.643,230.497 171.645,229.099 171.645,232.996 175.643,234.294 			"/>
			<polygon points="156.471,228.904 160.516,227.505 160.516,231.404 156.471,232.701 			"/>
			<polygon points="175.643,222.417 171.645,221.02 171.645,224.917 175.643,226.213 			"/>
			<polygon points="156.471,220.824 160.516,219.426 160.516,223.322 156.471,224.621 			"/>
			<polygon points="175.643,214.824 171.645,213.428 171.645,217.324 175.643,218.621 			"/>
			<polygon points="156.471,213.232 160.516,211.834 160.516,215.729 156.471,217.029 			"/>
			<polygon points="175.643,207.89 171.645,206.492 171.645,210.39 175.643,211.687 			"/>
			<polygon points="156.471,206.299 160.516,204.899 160.516,208.796 156.471,210.094 			"/>
			<polygon points="167.751,258.139 171.75,256.741 160.607,256.741 156.896,258.139 			"/>
			<rect x="156.466" y="258.182" fill="#594400" width="19.177" height="0.48"/>
			<rect x="170.375" y="200.917" fill="#594400" width="1.375" height="55.824"/>
			<rect x="155.096" y="200.917" fill="#594400" width="1.375" height="57.745"/>
		</g>
		<g>
			<rect x="19.549" y="200.757" fill="#171717" width="11.056" height="55.984"/>
			<line fill="none" stroke="#595959" stroke-miterlimit="10" x1="22.161" y1="200.97" x2="22.161" y2="256.534"/>
			<line fill="none" stroke="#595959" stroke-miterlimit="10" x1="27.304" y1="200.97" x2="27.304" y2="256.534"/>
			<rect x="22.161" y="251.17" fill="none" stroke="#595959" stroke-miterlimit="10" width="5.143" height="0.902"/>
			<rect x="22.161" y="252.953" fill="none" stroke="#595959" stroke-miterlimit="10" width="5.143" height="0.903"/>
			<rect x="22.161" y="254.816" fill="none" stroke="#595959" stroke-miterlimit="10" width="5.143" height="0.903"/>
			<rect x="22.161" y="244.421" fill="none" stroke="#595959" stroke-miterlimit="10" width="5.143" height="0.903"/>
			<rect x="22.161" y="246.205" fill="none" stroke="#595959" stroke-miterlimit="10" width="5.143" height="0.901"/>
			<rect x="22.161" y="248.067" fill="none" stroke="#595959" stroke-miterlimit="10" width="5.143" height="0.902"/>
			<g>
				<rect x="22.161" y="236.852" fill="none" stroke="#595959" stroke-miterlimit="10" width="5.143" height="0.902"/>
				<rect x="22.161" y="238.637" fill="none" stroke="#595959" stroke-miterlimit="10" width="5.143" height="0.9"/>
				<rect x="22.161" y="240.498" fill="none" stroke="#595959" stroke-miterlimit="10" width="5.143" height="0.902"/>
			</g>
			<g>
				<rect x="22.161" y="228.101" fill="none" stroke="#595959" stroke-miterlimit="10" width="5.143" height="0.904"/>
				<rect x="22.161" y="229.886" fill="none" stroke="#595959" stroke-miterlimit="10" width="5.143" height="0.903"/>
				<rect x="22.161" y="231.748" fill="none" stroke="#595959" stroke-miterlimit="10" width="5.143" height="0.903"/>
			</g>
			<g>
				<rect x="22.161" y="219.617" fill="none" stroke="#595959" stroke-miterlimit="10" width="5.143" height="0.902"/>
				<rect x="22.161" y="221.401" fill="none" stroke="#595959" stroke-miterlimit="10" width="5.143" height="0.902"/>
				<rect x="22.161" y="223.265" fill="none" stroke="#595959" stroke-miterlimit="10" width="5.143" height="0.902"/>
			</g>
			<g>
				<rect x="22.161" y="208.294" fill="none" stroke="#595959" stroke-miterlimit="10" width="5.143" height="0.901"/>
				<rect x="22.161" y="210.076" fill="none" stroke="#595959" stroke-miterlimit="10" width="5.143" height="0.903"/>
				<rect x="22.161" y="211.939" fill="none" stroke="#595959" stroke-miterlimit="10" width="5.143" height="0.903"/>
			</g>
			<g>
				<rect x="22.161" y="201.144" fill="none" stroke="#595959" stroke-miterlimit="10" width="5.143" height="0.904"/>
				<rect x="22.161" y="202.928" fill="none" stroke="#595959" stroke-miterlimit="10" width="5.143" height="0.903"/>
				<rect x="22.161" y="204.791" fill="none" stroke="#595959" stroke-miterlimit="10" width="5.143" height="0.902"/>
			</g>
			<polygon fill="#B88D00" points="30.604,200.757 30.604,256.741 19.527,256.741 19.527,200.757 15.478,200.757 15.478,256.741 
				15.478,258.139 15.478,258.182 34.654,258.182 34.654,258.139 34.654,256.741 34.654,200.757 			"/>
			<polygon points="15.478,253.472 19.476,252.072 19.476,255.969 15.478,257.267 			"/>
			<polygon points="34.648,251.877 30.604,250.479 30.604,254.376 34.648,255.674 			"/>
			<polygon points="15.478,245.802 19.476,244.404 19.476,248.3 15.478,249.598 			"/>
			<polygon points="34.648,244.208 30.604,242.812 30.604,246.707 34.648,248.007 			"/>
			<polygon points="15.478,238.103 19.476,236.705 19.476,240.602 15.478,241.901 			"/>
			<polygon points="34.648,236.511 30.604,235.112 30.604,239.009 34.648,240.308 			"/>
			<polygon points="15.478,230.497 19.476,229.099 19.476,232.996 15.478,234.294 			"/>
			<polygon points="34.648,228.904 30.604,227.505 30.604,231.404 34.648,232.701 			"/>
			<polygon points="15.478,222.417 19.476,221.02 19.476,224.917 15.478,226.213 			"/>
			<polygon points="34.648,220.824 30.604,219.426 30.604,223.322 34.648,224.621 			"/>
			<polygon points="15.478,214.824 19.476,213.428 19.476,217.324 15.478,218.621 			"/>
			<polygon points="34.648,213.232 30.604,211.834 30.604,215.729 34.648,217.029 			"/>
			<polygon points="15.478,207.89 19.476,206.492 19.476,210.39 15.478,211.687 			"/>
			<polygon points="34.648,206.299 30.604,204.899 30.604,208.796 34.648,210.094 			"/>
			<polygon points="23.368,258.139 19.37,256.741 30.513,256.741 34.224,258.139 			"/>
			<rect x="15.478" y="258.182" fill="#594400" width="19.176" height="0.48"/>
			<rect x="19.37" y="200.917" fill="#594400" width="1.375" height="55.824"/>
			<rect x="34.648" y="200.917" fill="#594400" width="1.375" height="57.745"/>
		</g>
	</g>
	<g>
		<rect x="0.001" fill="#898989" stroke="#000000" stroke-miterlimit="10" width="7.16" height="231.641"/>
		<rect y="82.405" fill="#565951" stroke="#000000" stroke-miterlimit="10" width="7.161" height="185.845"/>
	</g>
	<g>
		<rect x="183.958" fill="#898989" stroke="#000000" stroke-miterlimit="10" width="7.16" height="231.641"/>
		<rect x="183.958" y="82.405" fill="#565951" stroke="#000000" stroke-miterlimit="10" width="7.16" height="185.845"/>
	</g>
</g>
</svg>
