<?xml version="1.0" encoding="utf-8"?>
<!-- Generator: Adobe Illustrator 16.0.0, SVG Export Plug-In . SVG Version: 6.00 Build 0)  -->
<!DOCTYPE svg PUBLIC "-//W3C//DTD SVG 1.1//EN" "http://www.w3.org/Graphics/SVG/1.1/DTD/svg11.dtd">
<svg version="1.1" id="Layer_1" xmlns="http://www.w3.org/2000/svg" xmlns:xlink="http://www.w3.org/1999/xlink" x="0px" y="0px"
	 width="163.48px" height="29.609px" viewBox="0 0 163.48 29.609" enable-background="new 0 0 163.48 29.609" xml:space="preserve">
<g>
	<g>
		<path opacity="0.4" fill="#563F11" enable-background="new    " d="M163,5.924V5.922h-16.901c0.651,0,1.286,0.063,1.903,0.188
			c-1.018-0.112-1.688-0.022-1.895-0.022c0,0,0.43,2.692-2.531,3.709H4.469V4.844c0-1.096-0.891-1.982-1.985-1.982
			c-0.947,0-1.736,0.664-1.937,1.552H0v21.522h0.525c0.139,0.963,0.959,1.703,1.957,1.703c0.039,0,0.076-0.01,0.115-0.012
			c0.284,0.613,0.954,1.19,2.352,1.483l0.219,0.255h158.314v-5.552v-0.666c0-1.336-0.183-2.373-0.482-3.178V5.924z"/>
		<g>
			<g>
				
					<linearGradient id="SVGID_1_" gradientUnits="userSpaceOnUse" x1="-1882.1292" y1="1307.5452" x2="-1881.8572" y2="1307.5452" gradientTransform="matrix(0 -1 -1 0 1466.9629 -1866.9482)">
					<stop  offset="0" style="stop-color:#C2C2C2"/>
					<stop  offset="0.0673" style="stop-color:#B1B1B1"/>
					<stop  offset="0.2964" style="stop-color:#7E7E7E"/>
					<stop  offset="0.5119" style="stop-color:#565656"/>
					<stop  offset="0.7074" style="stop-color:#393939"/>
					<stop  offset="0.8766" style="stop-color:#272727"/>
					<stop  offset="1" style="stop-color:#212121"/>
				</linearGradient>
				<path opacity="0.4" fill="url(#SVGID_1_)" stroke="#000000" stroke-miterlimit="10" enable-background="new    " d="
					M159.406,14.909c0.012,0.088,0.02,0.182,0.023,0.271C159.424,15.09,159.418,14.999,159.406,14.909z"/>
				
					<linearGradient id="SVGID_2_" gradientUnits="userSpaceOnUse" x1="-1884.53" y1="1307.5403" x2="-1884.2571" y2="1307.5403" gradientTransform="matrix(0 -1 -1 0 1466.9629 -1866.9482)">
					<stop  offset="0" style="stop-color:#C2C2C2"/>
					<stop  offset="0.0673" style="stop-color:#B1B1B1"/>
					<stop  offset="0.2964" style="stop-color:#7E7E7E"/>
					<stop  offset="0.5119" style="stop-color:#565656"/>
					<stop  offset="0.7074" style="stop-color:#393939"/>
					<stop  offset="0.8766" style="stop-color:#272727"/>
					<stop  offset="1" style="stop-color:#212121"/>
				</linearGradient>
				<path opacity="0.4" fill="url(#SVGID_2_)" stroke="#000000" stroke-miterlimit="10" enable-background="new    " d="
					M159.434,17.311c-0.009,0.09-0.017,0.181-0.023,0.271C159.418,17.49,159.424,17.4,159.434,17.311z"/>
				
					<linearGradient id="SVGID_3_" gradientUnits="userSpaceOnUse" x1="-1885.6394" y1="1307.7112" x2="-1885.5226" y2="1307.7112" gradientTransform="matrix(0 -1 -1 0 1466.9629 -1866.9482)">
					<stop  offset="0" style="stop-color:#C2C2C2"/>
					<stop  offset="0.0673" style="stop-color:#B1B1B1"/>
					<stop  offset="0.2964" style="stop-color:#7E7E7E"/>
					<stop  offset="0.5119" style="stop-color:#565656"/>
					<stop  offset="0.7074" style="stop-color:#393939"/>
					<stop  offset="0.8766" style="stop-color:#272727"/>
					<stop  offset="1" style="stop-color:#212121"/>
				</linearGradient>
				<path opacity="0.4" fill="url(#SVGID_3_)" stroke="#000000" stroke-miterlimit="10" enable-background="new    " d="
					M159.264,18.574c-0.007,0.041-0.019,0.077-0.025,0.116C159.248,18.652,159.258,18.615,159.264,18.574z"/>
				
					<linearGradient id="SVGID_4_" gradientUnits="userSpaceOnUse" x1="-1880.8611" y1="1307.7122" x2="-1880.7489" y2="1307.7122" gradientTransform="matrix(0 -1 -1 0 1466.9629 -1866.9482)">
					<stop  offset="0" style="stop-color:#C2C2C2"/>
					<stop  offset="0.0673" style="stop-color:#B1B1B1"/>
					<stop  offset="0.2964" style="stop-color:#7E7E7E"/>
					<stop  offset="0.5119" style="stop-color:#565656"/>
					<stop  offset="0.7074" style="stop-color:#393939"/>
					<stop  offset="0.8766" style="stop-color:#272727"/>
					<stop  offset="1" style="stop-color:#212121"/>
				</linearGradient>
				<path opacity="0.4" fill="url(#SVGID_4_)" stroke="#000000" stroke-miterlimit="10" enable-background="new    " d="
					M159.238,13.801c0.008,0.037,0.02,0.072,0.025,0.111C159.258,13.874,159.248,13.838,159.238,13.801z"/>
				
					<linearGradient id="SVGID_5_" gradientUnits="userSpaceOnUse" x1="-1887.6614" y1="1308.3303" x2="-1887.593" y2="1308.3303" gradientTransform="matrix(0 -1 -1 0 1466.9629 -1866.9482)">
					<stop  offset="0" style="stop-color:#C2C2C2"/>
					<stop  offset="0.0673" style="stop-color:#B1B1B1"/>
					<stop  offset="0.2964" style="stop-color:#7E7E7E"/>
					<stop  offset="0.5119" style="stop-color:#565656"/>
					<stop  offset="0.7074" style="stop-color:#393939"/>
					<stop  offset="0.8766" style="stop-color:#272727"/>
					<stop  offset="1" style="stop-color:#212121"/>
				</linearGradient>
				<path opacity="0.4" fill="url(#SVGID_5_)" stroke="#000000" stroke-miterlimit="10" enable-background="new    " d="
					M158.645,20.646c-0.011,0.021-0.021,0.045-0.025,0.066C158.627,20.688,158.635,20.668,158.645,20.646z"/>
				
					<linearGradient id="SVGID_6_" gradientUnits="userSpaceOnUse" x1="-1879.8689" y1="1307.967" x2="-1879.6893" y2="1307.967" gradientTransform="matrix(0 -1 -1 0 1466.9629 -1866.9482)">
					<stop  offset="0" style="stop-color:#C2C2C2"/>
					<stop  offset="0.0673" style="stop-color:#B1B1B1"/>
					<stop  offset="0.2964" style="stop-color:#7E7E7E"/>
					<stop  offset="0.5119" style="stop-color:#565656"/>
					<stop  offset="0.7074" style="stop-color:#393939"/>
					<stop  offset="0.8766" style="stop-color:#272727"/>
					<stop  offset="1" style="stop-color:#212121"/>
				</linearGradient>
				<path opacity="0.4" fill="url(#SVGID_6_)" stroke="#000000" stroke-miterlimit="10" enable-background="new    " d="
					M158.969,12.741c0.021,0.061,0.035,0.118,0.056,0.182C159.004,12.862,158.988,12.799,158.969,12.741z"/>
				
					<linearGradient id="SVGID_7_" gradientUnits="userSpaceOnUse" x1="-1877.1248" y1="1309.2776" x2="-1877.1155" y2="1309.2776" gradientTransform="matrix(0 -1 -1 0 1466.9629 -1866.9482)">
					<stop  offset="0" style="stop-color:#C2C2C2"/>
					<stop  offset="0.0673" style="stop-color:#B1B1B1"/>
					<stop  offset="0.2964" style="stop-color:#7E7E7E"/>
					<stop  offset="0.5119" style="stop-color:#565656"/>
					<stop  offset="0.7074" style="stop-color:#393939"/>
					<stop  offset="0.8766" style="stop-color:#272727"/>
					<stop  offset="1" style="stop-color:#212121"/>
				</linearGradient>
				<path opacity="0.4" fill="url(#SVGID_7_)" stroke="#000000" stroke-miterlimit="10" enable-background="new    " d="
					M157.682,10.167c0.002,0.002,0.004,0.006,0.006,0.01C157.686,10.174,157.684,10.172,157.682,10.167z"/>
				
					<linearGradient id="SVGID_8_" gradientUnits="userSpaceOnUse" x1="-1878.7927" y1="1308.3313" x2="-1878.7279" y2="1308.3313" gradientTransform="matrix(0 -1 -1 0 1466.9629 -1866.9482)">
					<stop  offset="0" style="stop-color:#C2C2C2"/>
					<stop  offset="0.0673" style="stop-color:#B1B1B1"/>
					<stop  offset="0.2964" style="stop-color:#7E7E7E"/>
					<stop  offset="0.5119" style="stop-color:#565656"/>
					<stop  offset="0.7074" style="stop-color:#393939"/>
					<stop  offset="0.8766" style="stop-color:#272727"/>
					<stop  offset="1" style="stop-color:#212121"/>
				</linearGradient>
				<path opacity="0.4" fill="url(#SVGID_8_)" stroke="#000000" stroke-miterlimit="10" enable-background="new    " d="
					M158.619,11.78c0.008,0.021,0.019,0.044,0.025,0.064C158.635,11.823,158.627,11.801,158.619,11.78z"/>
				
					<linearGradient id="SVGID_9_" gradientUnits="userSpaceOnUse" x1="-1877.9158" y1="1308.7639" x2="-1877.8748" y2="1308.7639" gradientTransform="matrix(0 -1 -1 0 1466.9629 -1866.9482)">
					<stop  offset="0" style="stop-color:#C2C2C2"/>
					<stop  offset="0.0673" style="stop-color:#B1B1B1"/>
					<stop  offset="0.2964" style="stop-color:#7E7E7E"/>
					<stop  offset="0.5119" style="stop-color:#565656"/>
					<stop  offset="0.7074" style="stop-color:#393939"/>
					<stop  offset="0.8766" style="stop-color:#272727"/>
					<stop  offset="1" style="stop-color:#212121"/>
				</linearGradient>
				<path opacity="0.4" fill="url(#SVGID_9_)" stroke="#000000" stroke-miterlimit="10" enable-background="new    " d="
					M158.189,10.926c0.008,0.016,0.016,0.027,0.021,0.041C158.205,10.954,158.197,10.94,158.189,10.926z"/>
				
					<linearGradient id="SVGID_10_" gradientUnits="userSpaceOnUse" x1="-1886.699" y1="1307.969" x2="-1886.5167" y2="1307.969" gradientTransform="matrix(0 -1 -1 0 1466.9629 -1866.9482)">
					<stop  offset="0" style="stop-color:#C2C2C2"/>
					<stop  offset="0.0673" style="stop-color:#B1B1B1"/>
					<stop  offset="0.2964" style="stop-color:#7E7E7E"/>
					<stop  offset="0.5119" style="stop-color:#565656"/>
					<stop  offset="0.7074" style="stop-color:#393939"/>
					<stop  offset="0.8766" style="stop-color:#272727"/>
					<stop  offset="1" style="stop-color:#212121"/>
				</linearGradient>
				<path opacity="0.4" fill="url(#SVGID_10_)" stroke="#000000" stroke-miterlimit="10" enable-background="new    " d="
					M159.021,19.568c-0.021,0.062-0.033,0.121-0.056,0.185C158.988,19.689,159.004,19.629,159.021,19.568z"/>
				
					<linearGradient id="SVGID_11_" gradientUnits="userSpaceOnUse" x1="-1883.2405" y1="1307.4797" x2="-1883.1443" y2="1307.4797" gradientTransform="matrix(0 -1 -1 0 1466.9629 -1866.9482)">
					<stop  offset="0" style="stop-color:#C2C2C2"/>
					<stop  offset="0.0673" style="stop-color:#B1B1B1"/>
					<stop  offset="0.2964" style="stop-color:#7E7E7E"/>
					<stop  offset="0.5119" style="stop-color:#565656"/>
					<stop  offset="0.7074" style="stop-color:#393939"/>
					<stop  offset="0.8766" style="stop-color:#272727"/>
					<stop  offset="1" style="stop-color:#212121"/>
				</linearGradient>
				<path opacity="0.4" fill="url(#SVGID_11_)" stroke="#000000" stroke-miterlimit="10" enable-background="new    " d="
					M159.482,16.293c0-0.019,0.002-0.031,0.002-0.051c0-0.017-0.002-0.029-0.002-0.048c0,0.019,0,0.031,0,0.048
					C159.482,16.262,159.482,16.275,159.482,16.293z"/>
				
					<linearGradient id="SVGID_12_" gradientUnits="userSpaceOnUse" x1="-1889.2717" y1="1309.2795" x2="-1889.262" y2="1309.2795" gradientTransform="matrix(0 -1 -1 0 1466.9629 -1866.9482)">
					<stop  offset="0" style="stop-color:#C2C2C2"/>
					<stop  offset="0.0673" style="stop-color:#B1B1B1"/>
					<stop  offset="0.2964" style="stop-color:#7E7E7E"/>
					<stop  offset="0.5119" style="stop-color:#565656"/>
					<stop  offset="0.7074" style="stop-color:#393939"/>
					<stop  offset="0.8766" style="stop-color:#272727"/>
					<stop  offset="1" style="stop-color:#212121"/>
				</linearGradient>
				<path opacity="0.4" fill="url(#SVGID_12_)" stroke="#000000" stroke-miterlimit="10" enable-background="new    " d="
					M157.688,22.313c-0.002,0.004-0.006,0.008-0.01,0.011C157.682,22.32,157.686,22.318,157.688,22.313z"/>
				
					<linearGradient id="SVGID_13_" gradientUnits="userSpaceOnUse" x1="-1888.5139" y1="1308.76" x2="-1888.4711" y2="1308.76" gradientTransform="matrix(0 -1 -1 0 1466.9629 -1866.9482)">
					<stop  offset="0" style="stop-color:#C2C2C2"/>
					<stop  offset="0.0673" style="stop-color:#B1B1B1"/>
					<stop  offset="0.2964" style="stop-color:#7E7E7E"/>
					<stop  offset="0.5119" style="stop-color:#565656"/>
					<stop  offset="0.7074" style="stop-color:#393939"/>
					<stop  offset="0.8766" style="stop-color:#272727"/>
					<stop  offset="1" style="stop-color:#212121"/>
				</linearGradient>
				<path opacity="0.4" fill="url(#SVGID_13_)" stroke="#000000" stroke-miterlimit="10" enable-background="new    " d="
					M158.213,21.521c-0.008,0.015-0.018,0.027-0.021,0.043C158.197,21.551,158.209,21.533,158.213,21.521z"/>
				
					<linearGradient id="SVGID_14_" gradientUnits="userSpaceOnUse" x1="-1887.5925" y1="1308.1545" x2="-1886.697" y2="1308.1545" gradientTransform="matrix(0 -1 -1 0 1466.9629 -1866.9482)">
					<stop  offset="0" style="stop-color:#C2C2C2"/>
					<stop  offset="0.0673" style="stop-color:#B1B1B1"/>
					<stop  offset="0.2964" style="stop-color:#7E7E7E"/>
					<stop  offset="0.5119" style="stop-color:#565656"/>
					<stop  offset="0.7074" style="stop-color:#393939"/>
					<stop  offset="0.8766" style="stop-color:#272727"/>
					<stop  offset="1" style="stop-color:#212121"/>
				</linearGradient>
				<path opacity="0.4" fill="url(#SVGID_14_)" stroke="#000000" stroke-miterlimit="10" enable-background="new    " d="
					M158.969,19.746c-0.096,0.313-0.2,0.612-0.321,0.896C158.766,20.359,158.875,20.061,158.969,19.746z"/>
				
					<linearGradient id="SVGID_15_" gradientUnits="userSpaceOnUse" x1="-1879.6902" y1="1308.1565" x2="-1878.7937" y2="1308.1565" gradientTransform="matrix(0 -1 -1 0 1466.9629 -1866.9482)">
					<stop  offset="0" style="stop-color:#C2C2C2"/>
					<stop  offset="0.0673" style="stop-color:#B1B1B1"/>
					<stop  offset="0.2964" style="stop-color:#7E7E7E"/>
					<stop  offset="0.5119" style="stop-color:#565656"/>
					<stop  offset="0.7074" style="stop-color:#393939"/>
					<stop  offset="0.8766" style="stop-color:#272727"/>
					<stop  offset="1" style="stop-color:#212121"/>
				</linearGradient>
				<path opacity="0.4" fill="url(#SVGID_15_)" stroke="#000000" stroke-miterlimit="10" enable-background="new    " d="
					M158.645,11.844c0.121,0.285,0.229,0.584,0.321,0.896C158.875,12.43,158.766,12.131,158.645,11.844z"/>
				
					<linearGradient id="SVGID_16_" gradientUnits="userSpaceOnUse" x1="-1890.3909" y1="1309.884" x2="-1889.2698" y2="1309.884" gradientTransform="matrix(0 -1 -1 0 1466.9629 -1866.9482)">
					<stop  offset="0" style="stop-color:#C2C2C2"/>
					<stop  offset="0.0673" style="stop-color:#B1B1B1"/>
					<stop  offset="0.2964" style="stop-color:#7E7E7E"/>
					<stop  offset="0.5119" style="stop-color:#565656"/>
					<stop  offset="0.7074" style="stop-color:#393939"/>
					<stop  offset="0.8766" style="stop-color:#272727"/>
					<stop  offset="1" style="stop-color:#212121"/>
				</linearGradient>
				<path opacity="0.4" fill="url(#SVGID_16_)" stroke="#000000" stroke-miterlimit="10" enable-background="new    " d="
					M156.475,23.443c0.438-0.272,0.842-0.651,1.207-1.121C157.316,22.787,156.914,23.17,156.475,23.443z"/>
				
					<linearGradient id="SVGID_17_" gradientUnits="userSpaceOnUse" x1="-1878.7278" y1="1308.5471" x2="-1877.9153" y2="1308.5471" gradientTransform="matrix(0 -1 -1 0 1466.9629 -1866.9482)">
					<stop  offset="0" style="stop-color:#C2C2C2"/>
					<stop  offset="0.0673" style="stop-color:#B1B1B1"/>
					<stop  offset="0.2964" style="stop-color:#7E7E7E"/>
					<stop  offset="0.5119" style="stop-color:#565656"/>
					<stop  offset="0.7074" style="stop-color:#393939"/>
					<stop  offset="0.8766" style="stop-color:#272727"/>
					<stop  offset="1" style="stop-color:#212121"/>
				</linearGradient>
				<path opacity="0.4" fill="url(#SVGID_17_)" stroke="#000000" stroke-miterlimit="10" enable-background="new    " d="
					M158.213,10.967c0.146,0.254,0.281,0.525,0.406,0.813C158.494,11.493,158.357,11.223,158.213,10.967z"/>
				
					<linearGradient id="SVGID_18_" gradientUnits="userSpaceOnUse" x1="-1877.8743" y1="1309.0237" x2="-1877.1243" y2="1309.0237" gradientTransform="matrix(0 -1 -1 0 1466.9629 -1866.9482)">
					<stop  offset="0" style="stop-color:#C2C2C2"/>
					<stop  offset="0.0673" style="stop-color:#B1B1B1"/>
					<stop  offset="0.2964" style="stop-color:#7E7E7E"/>
					<stop  offset="0.5119" style="stop-color:#565656"/>
					<stop  offset="0.7074" style="stop-color:#393939"/>
					<stop  offset="0.8766" style="stop-color:#272727"/>
					<stop  offset="1" style="stop-color:#212121"/>
				</linearGradient>
				<path opacity="0.4" fill="url(#SVGID_18_)" stroke="#000000" stroke-miterlimit="10" enable-background="new    " d="
					M157.688,10.176c0.178,0.229,0.348,0.479,0.502,0.75C158.035,10.657,157.865,10.407,157.688,10.176z"/>
				
					<linearGradient id="SVGID_19_" gradientUnits="userSpaceOnUse" x1="-1877.1165" y1="1309.885" x2="-1875.9954" y2="1309.885" gradientTransform="matrix(0 -1 -1 0 1466.9629 -1866.9482)">
					<stop  offset="0" style="stop-color:#C2C2C2"/>
					<stop  offset="0.0673" style="stop-color:#B1B1B1"/>
					<stop  offset="0.2964" style="stop-color:#7E7E7E"/>
					<stop  offset="0.5119" style="stop-color:#565656"/>
					<stop  offset="0.7074" style="stop-color:#393939"/>
					<stop  offset="0.8766" style="stop-color:#272727"/>
					<stop  offset="1" style="stop-color:#212121"/>
				</linearGradient>
				<path opacity="0.4" fill="url(#SVGID_19_)" stroke="#000000" stroke-miterlimit="10" enable-background="new    " d="
					M157.682,10.168c-0.363-0.472-0.771-0.851-1.209-1.121C156.914,9.319,157.318,9.7,157.682,10.168z"/>
				
					<linearGradient id="SVGID_20_" gradientUnits="userSpaceOnUse" x1="-1888.47" y1="1308.5471" x2="-1887.6575" y2="1308.5471" gradientTransform="matrix(0 -1 -1 0 1466.9629 -1866.9482)">
					<stop  offset="0" style="stop-color:#C2C2C2"/>
					<stop  offset="0.0673" style="stop-color:#B1B1B1"/>
					<stop  offset="0.2964" style="stop-color:#7E7E7E"/>
					<stop  offset="0.5119" style="stop-color:#565656"/>
					<stop  offset="0.7074" style="stop-color:#393939"/>
					<stop  offset="0.8766" style="stop-color:#272727"/>
					<stop  offset="1" style="stop-color:#212121"/>
				</linearGradient>
				<path opacity="0.4" fill="url(#SVGID_20_)" stroke="#000000" stroke-miterlimit="10" enable-background="new    " d="
					M158.617,20.709c-0.125,0.285-0.26,0.555-0.402,0.813C158.357,21.264,158.494,20.994,158.617,20.709z"/>
				
					<linearGradient id="SVGID_21_" gradientUnits="userSpaceOnUse" x1="-1880.7473" y1="1307.8333" x2="-1879.8684" y2="1307.8333" gradientTransform="matrix(0 -1 -1 0 1466.9629 -1866.9482)">
					<stop  offset="0" style="stop-color:#C2C2C2"/>
					<stop  offset="0.0673" style="stop-color:#B1B1B1"/>
					<stop  offset="0.2964" style="stop-color:#7E7E7E"/>
					<stop  offset="0.5119" style="stop-color:#565656"/>
					<stop  offset="0.7074" style="stop-color:#393939"/>
					<stop  offset="0.8766" style="stop-color:#272727"/>
					<stop  offset="1" style="stop-color:#212121"/>
				</linearGradient>
				<path opacity="0.4" fill="url(#SVGID_21_)" stroke="#000000" stroke-miterlimit="10" enable-background="new    " d="
					M159.021,12.92c0.082,0.281,0.153,0.574,0.217,0.879C159.178,13.497,159.104,13.204,159.021,12.92z"/>
				
					<linearGradient id="SVGID_22_" gradientUnits="userSpaceOnUse" x1="-1884.2571" y1="1307.5051" x2="-1883.2415" y2="1307.5051" gradientTransform="matrix(0 -1 -1 0 1466.9629 -1866.9482)">
					<stop  offset="0" style="stop-color:#C2C2C2"/>
					<stop  offset="0.0673" style="stop-color:#B1B1B1"/>
					<stop  offset="0.2964" style="stop-color:#7E7E7E"/>
					<stop  offset="0.5119" style="stop-color:#565656"/>
					<stop  offset="0.7074" style="stop-color:#393939"/>
					<stop  offset="0.8766" style="stop-color:#272727"/>
					<stop  offset="1" style="stop-color:#212121"/>
				</linearGradient>
				<path opacity="0.4" fill="url(#SVGID_22_)" stroke="#000000" stroke-miterlimit="10" enable-background="new    " d="
					M159.482,16.293c-0.002,0.346-0.021,0.684-0.049,1.016C159.461,16.977,159.48,16.639,159.482,16.293z"/>
				
					<linearGradient id="SVGID_23_" gradientUnits="userSpaceOnUse" x1="-1886.5159" y1="1307.8333" x2="-1885.6389" y2="1307.8333" gradientTransform="matrix(0 -1 -1 0 1466.9629 -1866.9482)">
					<stop  offset="0" style="stop-color:#C2C2C2"/>
					<stop  offset="0.0673" style="stop-color:#B1B1B1"/>
					<stop  offset="0.2964" style="stop-color:#7E7E7E"/>
					<stop  offset="0.5119" style="stop-color:#565656"/>
					<stop  offset="0.7074" style="stop-color:#393939"/>
					<stop  offset="0.8766" style="stop-color:#272727"/>
					<stop  offset="1" style="stop-color:#212121"/>
				</linearGradient>
				<path opacity="0.4" fill="url(#SVGID_23_)" stroke="#000000" stroke-miterlimit="10" enable-background="new    " d="
					M159.238,18.691c-0.064,0.302-0.135,0.595-0.217,0.877C159.104,19.283,159.178,18.99,159.238,18.691z"/>
				
					<linearGradient id="SVGID_24_" gradientUnits="userSpaceOnUse" x1="-1889.2615" y1="1309.0247" x2="-1888.5134" y2="1309.0247" gradientTransform="matrix(0 -1 -1 0 1466.9629 -1866.9482)">
					<stop  offset="0" style="stop-color:#C2C2C2"/>
					<stop  offset="0.0673" style="stop-color:#B1B1B1"/>
					<stop  offset="0.2964" style="stop-color:#7E7E7E"/>
					<stop  offset="0.5119" style="stop-color:#565656"/>
					<stop  offset="0.7074" style="stop-color:#393939"/>
					<stop  offset="0.8766" style="stop-color:#272727"/>
					<stop  offset="1" style="stop-color:#212121"/>
				</linearGradient>
				<path opacity="0.4" fill="url(#SVGID_24_)" stroke="#000000" stroke-miterlimit="10" enable-background="new    " d="
					M158.189,21.564c-0.154,0.271-0.324,0.521-0.502,0.748C157.865,22.084,158.035,21.834,158.189,21.564z"/>
				
					<linearGradient id="SVGID_25_" gradientUnits="userSpaceOnUse" x1="-1885.5227" y1="1307.6301" x2="-1884.5305" y2="1307.6301" gradientTransform="matrix(0 -1 -1 0 1466.9629 -1866.9482)">
					<stop  offset="0" style="stop-color:#C2C2C2"/>
					<stop  offset="0.0673" style="stop-color:#B1B1B1"/>
					<stop  offset="0.2964" style="stop-color:#7E7E7E"/>
					<stop  offset="0.5119" style="stop-color:#565656"/>
					<stop  offset="0.7074" style="stop-color:#393939"/>
					<stop  offset="0.8766" style="stop-color:#272727"/>
					<stop  offset="1" style="stop-color:#212121"/>
				</linearGradient>
				<path opacity="0.4" fill="url(#SVGID_25_)" stroke="#000000" stroke-miterlimit="10" enable-background="new    " d="
					M159.406,17.582c-0.035,0.338-0.08,0.672-0.146,0.992C159.328,18.254,159.373,17.92,159.406,17.582z"/>
				
					<linearGradient id="SVGID_26_" gradientUnits="userSpaceOnUse" x1="-1881.8577" y1="1307.6252" x2="-1880.8616" y2="1307.6252" gradientTransform="matrix(0 -1 -1 0 1466.9629 -1866.9482)">
					<stop  offset="0" style="stop-color:#C2C2C2"/>
					<stop  offset="0.0673" style="stop-color:#B1B1B1"/>
					<stop  offset="0.2964" style="stop-color:#7E7E7E"/>
					<stop  offset="0.5119" style="stop-color:#565656"/>
					<stop  offset="0.7074" style="stop-color:#393939"/>
					<stop  offset="0.8766" style="stop-color:#272727"/>
					<stop  offset="1" style="stop-color:#212121"/>
				</linearGradient>
				<path opacity="0.4" fill="url(#SVGID_26_)" stroke="#000000" stroke-miterlimit="10" enable-background="new    " d="
					M159.264,13.913c0.063,0.321,0.106,0.655,0.146,0.996C159.373,14.571,159.328,14.235,159.264,13.913z"/>
				
					<linearGradient id="SVGID_27_" gradientUnits="userSpaceOnUse" x1="-1890.8967" y1="1312.0881" x2="-1890.8893" y2="1312.0881" gradientTransform="matrix(0 -1 -1 0 1466.9629 -1866.9482)">
					<stop  offset="0" style="stop-color:#C2C2C2"/>
					<stop  offset="0.0673" style="stop-color:#B1B1B1"/>
					<stop  offset="0.2964" style="stop-color:#7E7E7E"/>
					<stop  offset="0.5119" style="stop-color:#565656"/>
					<stop  offset="0.7074" style="stop-color:#393939"/>
					<stop  offset="0.8766" style="stop-color:#272727"/>
					<stop  offset="1" style="stop-color:#212121"/>
				</linearGradient>
				<path opacity="0.4" fill="url(#SVGID_27_)" stroke="#000000" stroke-miterlimit="10" enable-background="new    " d="
					M154.828,23.947c0.031,0,0.063-0.008,0.094-0.008l0,0C154.891,23.939,154.861,23.947,154.828,23.947z"/>
				
					<linearGradient id="SVGID_28_" gradientUnits="userSpaceOnUse" x1="-1883.1448" y1="1307.5042" x2="-1882.1301" y2="1307.5042" gradientTransform="matrix(0 -1 -1 0 1466.9629 -1866.9482)">
					<stop  offset="0" style="stop-color:#C2C2C2"/>
					<stop  offset="0.0673" style="stop-color:#B1B1B1"/>
					<stop  offset="0.2964" style="stop-color:#7E7E7E"/>
					<stop  offset="0.5119" style="stop-color:#565656"/>
					<stop  offset="0.7074" style="stop-color:#393939"/>
					<stop  offset="0.8766" style="stop-color:#272727"/>
					<stop  offset="1" style="stop-color:#212121"/>
				</linearGradient>
				<path opacity="0.4" fill="url(#SVGID_28_)" stroke="#000000" stroke-miterlimit="10" enable-background="new    " d="
					M159.434,15.182c0.024,0.332,0.047,0.67,0.049,1.015C159.48,15.852,159.461,15.514,159.434,15.182z"/>
				
					<linearGradient id="SVGID_29_" gradientUnits="userSpaceOnUse" x1="-1890.8967" y1="1312.1809" x2="-1890.8888" y2="1312.1809" gradientTransform="matrix(0 -1 -1 0 1466.9629 -1866.9482)">
					<stop  offset="0" style="stop-color:#C2C2C2"/>
					<stop  offset="0.0673" style="stop-color:#B1B1B1"/>
					<stop  offset="0.2964" style="stop-color:#7E7E7E"/>
					<stop  offset="0.5119" style="stop-color:#565656"/>
					<stop  offset="0.7074" style="stop-color:#393939"/>
					<stop  offset="0.8766" style="stop-color:#272727"/>
					<stop  offset="1" style="stop-color:#212121"/>
				</linearGradient>
				<path opacity="0.4" fill="url(#SVGID_29_)" stroke="#000000" stroke-miterlimit="10" enable-background="new    " d="
					M154.734,23.939c0.031,0,0.063,0.008,0.096,0.008C154.797,23.947,154.766,23.939,154.734,23.939L154.734,23.939z"/>
				<g>
					
						<linearGradient id="SVGID_30_" gradientUnits="userSpaceOnUse" x1="-1890.8948" y1="1387.1194" x2="-1869.9905" y2="1387.1194" gradientTransform="matrix(0 -1 -1 0 1466.9629 -1866.9482)">
						<stop  offset="0" style="stop-color:#C2C2C2"/>
						<stop  offset="0.0673" style="stop-color:#B1B1B1"/>
						<stop  offset="0.2964" style="stop-color:#7E7E7E"/>
						<stop  offset="0.5119" style="stop-color:#565656"/>
						<stop  offset="0.7074" style="stop-color:#393939"/>
						<stop  offset="0.8766" style="stop-color:#272727"/>
						<stop  offset="1" style="stop-color:#212121"/>
					</linearGradient>
					<path fill="url(#SVGID_30_)" d="M2.525,16.242c0,4.202,0.27,7.612-2.256,7.696h154.465c0.031,0,0.063,0.008,0.096,0.008
						c0.031,0,0.063-0.008,0.094-0.008c0.548-0.018,1.066-0.192,1.554-0.498c0.438-0.271,0.842-0.653,1.207-1.119
						c0.002-0.002,0.006-0.006,0.008-0.01c0.178-0.229,0.346-0.479,0.502-0.75c0.006-0.016,0.018-0.028,0.022-0.043
						c0.146-0.254,0.277-0.526,0.402-0.813c0.008-0.021,0.018-0.043,0.025-0.063c0.121-0.287,0.227-0.584,0.321-0.896
						c0.021-0.063,0.035-0.123,0.056-0.183c0.082-0.285,0.153-0.578,0.217-0.879c0.01-0.039,0.021-0.076,0.024-0.115
						c0.063-0.319,0.107-0.653,0.146-0.993c0.008-0.091,0.016-0.181,0.021-0.271c0.027-0.332,0.05-0.67,0.052-1.014
						c0-0.019,0-0.031,0-0.051c0-0.017,0-0.031,0-0.05c-0.002-0.343-0.021-0.681-0.054-1.015c-0.008-0.09-0.016-0.184-0.021-0.271
						c-0.035-0.341-0.08-0.675-0.146-0.996c-0.006-0.037-0.018-0.074-0.022-0.111c-0.063-0.307-0.135-0.6-0.217-0.879
						c-0.021-0.063-0.033-0.121-0.056-0.183c-0.096-0.311-0.202-0.61-0.321-0.895c-0.013-0.023-0.021-0.043-0.027-0.064
						c-0.125-0.286-0.26-0.559-0.404-0.813c-0.008-0.016-0.016-0.027-0.021-0.041c-0.154-0.271-0.322-0.521-0.502-0.75
						c-0.002-0.002-0.006-0.004-0.008-0.01c-0.361-0.467-0.769-0.849-1.207-1.119c-5.494-5.348-9.787-6.004-10.369-6.004
						c0,0,0.328,5.498-5.519,5.498c-0.186,0-0.42,0-0.42,0H0.207C2.775,8.542,2.525,11.991,2.525,16.242z"/>
				</g>
			</g>
			<g opacity="0.4" enable-background="new    ">
				<path opacity="0.4" fill="#FFFFFF" enable-background="new    " d="M154.896,23.947c0.028,0,0.063-0.008,0.094-0.008h-0.188
					C154.836,23.939,154.865,23.947,154.896,23.947z"/>
				<path fill="#FFFFFF" d="M154.803,23.939h0.188c0.521-0.016,1.018-0.18,1.484-0.455l0.481-0.377h-4.17L154.803,23.939z"/>
			</g>
			<g>
				<path fill="#231F20" d="M0.078,9.219h152.791h4.168c-0.639-0.439-1.248-0.688-2.022-0.688C155.012,8.532-0.607,8.78,0.078,9.219
					z"/>
			</g>
			<path fill="#606060" d="M1.84,11.961h149.121h7.734c-0.42-1.039-0.988-1.896-1.658-2.498h-4.416H0.078
				C0.789,10.061,1.393,10.922,1.84,11.961z"/>
			<g>
				<path opacity="0.4" fill="#FFFFFF" enable-background="new    " d="M0.943,23.025c-0.152,0.23-0.313,0.447-0.48,0.644h151.99
					c-0.17-0.195-0.33-0.412-0.483-0.644H0.943z"/>
				<path opacity="0.4" fill="#FFFFFF" enable-background="new    " d="M152.455,23.666h4.969c0.17-0.195,0.33-0.41,0.482-0.642
					h-5.938C152.125,23.258,152.285,23.473,152.455,23.666z"/>
			</g>
		</g>
		<path d="M3.145,23.559v0.762l151.563-0.002c0.041,0.007,0.08,0.009,0.123,0.009l0.113-0.009c0.641-0.02,1.26-0.215,1.842-0.582
			c0.476-0.295,0.92-0.707,1.328-1.229c0.186-0.236,0.361-0.504,0.555-0.836c0.148-0.266,0.287-0.543,0.445-0.91
			c0.125-0.293,0.234-0.604,0.334-0.918l0.057-0.189c0.086-0.293,0.16-0.594,0.229-0.907c0.008-0.045,0.02-0.09,0.021-0.113
			c0.063-0.33,0.109-0.67,0.146-1.021c0.01-0.092,0.018-0.188,0.022-0.278c0.029-0.34,0.05-0.687,0.052-1.09v-0.05
			c-0.002-0.351-0.021-0.698-0.06-1.112l-0.018-0.203c-0.037-0.351-0.082-0.689-0.146-1.014l-0.024-0.125
			c-0.063-0.312-0.14-0.609-0.238-0.953l-0.041-0.134c-0.098-0.321-0.209-0.635-0.361-0.995c-0.131-0.298-0.271-0.578-0.444-0.888
			c-0.152-0.268-0.318-0.518-0.492-0.744l-0.07-0.088c-0.391-0.496-0.824-0.895-1.295-1.188c-0.625-0.392-1.283-0.59-1.955-0.59
			H3.145v0.766H154.83c0.439,0,0.89,0.143,1.334,0.42c0.387,0.24,0.75,0.58,1.063,0.979l0.063,0.08
			c0.158,0.207,0.312,0.432,0.438,0.646l0.033,0.072c0.145,0.242,0.271,0.506,0.385,0.762l0.031,0.08
			c0.116,0.271,0.221,0.563,0.315,0.875l0.049,0.164c0.08,0.275,0.152,0.561,0.211,0.854l0.486-0.059l-0.461,0.172
			c0.061,0.314,0.104,0.639,0.139,0.963l0.023,0.271c0.026,0.324,0.047,0.651,0.049,0.989l0.494-0.002l-0.496,0.097
			c-0.002,0.336-0.021,0.668-0.049,0.996c-0.006,0.09-0.015,0.176-0.021,0.262c-0.037,0.33-0.082,0.658-0.141,0.971l-0.025,0.113
			c-0.061,0.291-0.131,0.574-0.229,0.91l-0.035,0.115c-0.094,0.301-0.193,0.588-0.338,0.93c-0.121,0.271-0.248,0.531-0.408,0.815
			c-0.148,0.257-0.307,0.492-0.482,0.72c-0.342,0.438-0.709,0.778-1.096,1.021c-0.416,0.263-0.838,0.4-1.313,0.422L3.145,23.559
			L3.145,23.559z"/>
		<path fill="#D3A540" stroke="#000000" stroke-miterlimit="10" d="M163,2.881h-16.903c5.397,0,9.771,5.779,9.771,11.18
			c0,5.398-4.375,9.77-9.771,9.77L2.738,23.781c0,0-2.131,3.901,4.432,3.901c0.078,0,0.313,0,0.313,0l155.52,0.051V2.885V2.881H163z
			"/>
		
			<linearGradient id="SVGID_31_" gradientUnits="userSpaceOnUse" x1="700.1833" y1="2239.6448" x2="700.1833" y2="2247.1716" gradientTransform="matrix(-1 0 0 1 858.4917 -2232.4805)">
			<stop  offset="0.2849" style="stop-color:#FFFFFF"/>
			<stop  offset="0.5049" style="stop-color:#FFFFFF;stop-opacity:0"/>
		</linearGradient>
		<path opacity="0.6" fill="url(#SVGID_31_)" enable-background="new    " d="M162.48,12.897c0,0-6.054,1.529-6.125,0
			c-0.146-3.047-2.218-5.916-2.218-5.916h8.343V12.897z"/>
		<path fill="#D3A540" stroke="#000000" stroke-miterlimit="10" d="M4.469,24.021c0,1.092-0.887,1.984-1.985,1.984l0,0
			c-1.094,0-1.984-0.889-1.984-1.984V3.211c0-1.096,0.89-1.982,1.984-1.982l0,0c1.096,0,1.985,0.886,1.985,1.982V24.021z"/>
		
			<linearGradient id="SVGID_32_" gradientUnits="userSpaceOnUse" x1="856.156" y1="2240.5413" x2="856.156" y2="2247.2917" gradientTransform="matrix(-1 0 0 1 858.4917 -2232.4805)">
			<stop  offset="0.2849" style="stop-color:#FFFFFF"/>
			<stop  offset="0.5049" style="stop-color:#FFFFFF;stop-opacity:0"/>
		</linearGradient>
		<rect x="1.043" y="7.895" opacity="0.6" fill="url(#SVGID_32_)" enable-background="new    " width="2.586" height="5.916"/>
		<path opacity="0.4" fill="#856829" enable-background="new    " d="M163.48,21.518c0-8.333-6.979-5.166-6.979-5.166
			c-1.643,4.463-8.5,7.67-8.5,7.67H4.469l-0.301-1.004l-2.832-0.334l-0.334,1.834l2.834,1.666l1.332,1.551H163.48v-5.551"/>
	</g>
</g>
</svg>
