<?xml version="1.0" encoding="utf-8"?>
<!-- Generator: Adobe Illustrator 16.0.0, SVG Export Plug-In . SVG Version: 6.00 Build 0)  -->
<!DOCTYPE svg PUBLIC "-//W3C//DTD SVG 1.1//EN" "http://www.w3.org/Graphics/SVG/1.1/DTD/svg11.dtd">
<svg version="1.1" id="Layer_1" xmlns="http://www.w3.org/2000/svg" xmlns:xlink="http://www.w3.org/1999/xlink" x="0px" y="0px"
	 width="163.48px" height="29.61px" viewBox="0 0 163.48 29.61" enable-background="new 0 0 163.48 29.61" xml:space="preserve">
<g>
	<g>
		<path opacity="0.4" fill="#563F11" enable-background="new    " d="M0.482,5.924V5.922h16.902c-0.652,0-1.287,0.064-1.904,0.188
			c1.018-0.113,1.689-0.023,1.895-0.023c0,0-0.43,2.693,2.531,3.709h139.107V4.844c0-1.096,0.891-1.982,1.986-1.982
			c0.947,0,1.736,0.664,1.936,1.551h0.547v21.523h-0.525c-0.139,0.963-0.959,1.703-1.957,1.703c-0.039,0-0.076-0.01-0.115-0.012
			c-0.285,0.613-0.955,1.191-2.352,1.484l-0.219,0.254H0v-5.551v-0.666c0-1.336,0.182-2.373,0.482-3.178V5.924z"/>
		<g>
			<g>
				
					<linearGradient id="SVGID_1_" gradientUnits="userSpaceOnUse" x1="-1578.8696" y1="-1592.1992" x2="-1578.5972" y2="-1592.1992" gradientTransform="matrix(4.489659e-011 -1 -1 -4.489659e-011 -1588.1348 -1563.6885)">
					<stop  offset="0" style="stop-color:#C2C2C2"/>
					<stop  offset="0.0673" style="stop-color:#B1B1B1"/>
					<stop  offset="0.2964" style="stop-color:#7E7E7E"/>
					<stop  offset="0.5119" style="stop-color:#565656"/>
					<stop  offset="0.7074" style="stop-color:#393939"/>
					<stop  offset="0.8766" style="stop-color:#272727"/>
					<stop  offset="1" style="stop-color:#212121"/>
				</linearGradient>
				<path opacity="0.4" fill="url(#SVGID_1_)" stroke="#000000" stroke-miterlimit="10" enable-background="new    " d="
					M4.076,14.909c-0.012,0.088-0.02,0.182-0.023,0.271C4.059,15.09,4.064,14.999,4.076,14.909z"/>
				
					<linearGradient id="SVGID_2_" gradientUnits="userSpaceOnUse" x1="-1581.27" y1="-1592.1953" x2="-1580.9976" y2="-1592.1953" gradientTransform="matrix(4.489659e-011 -1 -1 -4.489659e-011 -1588.1348 -1563.6885)">
					<stop  offset="0" style="stop-color:#C2C2C2"/>
					<stop  offset="0.0673" style="stop-color:#B1B1B1"/>
					<stop  offset="0.2964" style="stop-color:#7E7E7E"/>
					<stop  offset="0.5119" style="stop-color:#565656"/>
					<stop  offset="0.7074" style="stop-color:#393939"/>
					<stop  offset="0.8766" style="stop-color:#272727"/>
					<stop  offset="1" style="stop-color:#212121"/>
				</linearGradient>
				<path opacity="0.4" fill="url(#SVGID_2_)" stroke="#000000" stroke-miterlimit="10" enable-background="new    " d="
					M4.049,17.311c0.008,0.09,0.016,0.18,0.023,0.271C4.064,17.49,4.059,17.4,4.049,17.311z"/>
				
					<linearGradient id="SVGID_3_" gradientUnits="userSpaceOnUse" x1="-1582.3799" y1="-1592.3662" x2="-1582.2626" y2="-1592.3662" gradientTransform="matrix(4.489659e-011 -1 -1 -4.489659e-011 -1588.1348 -1563.6885)">
					<stop  offset="0" style="stop-color:#C2C2C2"/>
					<stop  offset="0.0673" style="stop-color:#B1B1B1"/>
					<stop  offset="0.2964" style="stop-color:#7E7E7E"/>
					<stop  offset="0.5119" style="stop-color:#565656"/>
					<stop  offset="0.7074" style="stop-color:#393939"/>
					<stop  offset="0.8766" style="stop-color:#272727"/>
					<stop  offset="1" style="stop-color:#212121"/>
				</linearGradient>
				<path opacity="0.4" fill="url(#SVGID_3_)" stroke="#000000" stroke-miterlimit="10" enable-background="new    " d="
					M4.219,18.574c0.006,0.041,0.018,0.078,0.025,0.117C4.234,18.652,4.225,18.615,4.219,18.574z"/>
				
					<linearGradient id="SVGID_4_" gradientUnits="userSpaceOnUse" x1="-1577.6011" y1="-1592.3662" x2="-1577.4889" y2="-1592.3662" gradientTransform="matrix(4.489659e-011 -1 -1 -4.489659e-011 -1588.1348 -1563.6885)">
					<stop  offset="0" style="stop-color:#C2C2C2"/>
					<stop  offset="0.0673" style="stop-color:#B1B1B1"/>
					<stop  offset="0.2964" style="stop-color:#7E7E7E"/>
					<stop  offset="0.5119" style="stop-color:#565656"/>
					<stop  offset="0.7074" style="stop-color:#393939"/>
					<stop  offset="0.8766" style="stop-color:#272727"/>
					<stop  offset="1" style="stop-color:#212121"/>
				</linearGradient>
				<path opacity="0.4" fill="url(#SVGID_4_)" stroke="#000000" stroke-miterlimit="10" enable-background="new    " d="
					M4.244,13.801c-0.008,0.037-0.02,0.072-0.025,0.111C4.225,13.874,4.234,13.838,4.244,13.801z"/>
				
					<linearGradient id="SVGID_5_" gradientUnits="userSpaceOnUse" x1="-1584.4014" y1="-1592.9854" x2="-1584.3335" y2="-1592.9854" gradientTransform="matrix(4.489659e-011 -1 -1 -4.489659e-011 -1588.1348 -1563.6885)">
					<stop  offset="0" style="stop-color:#C2C2C2"/>
					<stop  offset="0.0673" style="stop-color:#B1B1B1"/>
					<stop  offset="0.2964" style="stop-color:#7E7E7E"/>
					<stop  offset="0.5119" style="stop-color:#565656"/>
					<stop  offset="0.7074" style="stop-color:#393939"/>
					<stop  offset="0.8766" style="stop-color:#272727"/>
					<stop  offset="1" style="stop-color:#212121"/>
				</linearGradient>
				<path opacity="0.4" fill="url(#SVGID_5_)" stroke="#000000" stroke-miterlimit="10" enable-background="new    " d="
					M4.838,20.646c0.01,0.021,0.02,0.045,0.025,0.066C4.855,20.688,4.848,20.668,4.838,20.646z"/>
				
					<linearGradient id="SVGID_6_" gradientUnits="userSpaceOnUse" x1="-1576.6089" y1="-1592.6211" x2="-1576.4293" y2="-1592.6211" gradientTransform="matrix(4.489659e-011 -1 -1 -4.489659e-011 -1588.1348 -1563.6885)">
					<stop  offset="0" style="stop-color:#C2C2C2"/>
					<stop  offset="0.0673" style="stop-color:#B1B1B1"/>
					<stop  offset="0.2964" style="stop-color:#7E7E7E"/>
					<stop  offset="0.5119" style="stop-color:#565656"/>
					<stop  offset="0.7074" style="stop-color:#393939"/>
					<stop  offset="0.8766" style="stop-color:#272727"/>
					<stop  offset="1" style="stop-color:#212121"/>
				</linearGradient>
				<path opacity="0.4" fill="url(#SVGID_6_)" stroke="#000000" stroke-miterlimit="10" enable-background="new    " d="
					M4.514,12.741c-0.021,0.061-0.035,0.119-0.055,0.182C4.479,12.862,4.494,12.799,4.514,12.741z"/>
				
					<linearGradient id="SVGID_7_" gradientUnits="userSpaceOnUse" x1="-1573.8647" y1="-1593.9326" x2="-1573.8555" y2="-1593.9326" gradientTransform="matrix(4.489659e-011 -1 -1 -4.489659e-011 -1588.1348 -1563.6885)">
					<stop  offset="0" style="stop-color:#C2C2C2"/>
					<stop  offset="0.0673" style="stop-color:#B1B1B1"/>
					<stop  offset="0.2964" style="stop-color:#7E7E7E"/>
					<stop  offset="0.5119" style="stop-color:#565656"/>
					<stop  offset="0.7074" style="stop-color:#393939"/>
					<stop  offset="0.8766" style="stop-color:#272727"/>
					<stop  offset="1" style="stop-color:#212121"/>
				</linearGradient>
				<path opacity="0.4" fill="url(#SVGID_7_)" stroke="#000000" stroke-miterlimit="10" enable-background="new    " d="
					M5.801,10.167c-0.002,0.002-0.004,0.006-0.006,0.01C5.797,10.174,5.799,10.172,5.801,10.167z"/>
				
					<linearGradient id="SVGID_8_" gradientUnits="userSpaceOnUse" x1="-1575.5327" y1="-1592.9854" x2="-1575.4684" y2="-1592.9854" gradientTransform="matrix(4.489659e-011 -1 -1 -4.489659e-011 -1588.1348 -1563.6885)">
					<stop  offset="0" style="stop-color:#C2C2C2"/>
					<stop  offset="0.0673" style="stop-color:#B1B1B1"/>
					<stop  offset="0.2964" style="stop-color:#7E7E7E"/>
					<stop  offset="0.5119" style="stop-color:#565656"/>
					<stop  offset="0.7074" style="stop-color:#393939"/>
					<stop  offset="0.8766" style="stop-color:#272727"/>
					<stop  offset="1" style="stop-color:#212121"/>
				</linearGradient>
				<path opacity="0.4" fill="url(#SVGID_8_)" stroke="#000000" stroke-miterlimit="10" enable-background="new    " d="
					M4.863,11.78c-0.008,0.021-0.018,0.043-0.025,0.064C4.848,11.823,4.855,11.801,4.863,11.78z"/>
				
					<linearGradient id="SVGID_9_" gradientUnits="userSpaceOnUse" x1="-1574.6558" y1="-1593.417" x2="-1574.6147" y2="-1593.417" gradientTransform="matrix(4.489659e-011 -1 -1 -4.489659e-011 -1588.1348 -1563.6885)">
					<stop  offset="0" style="stop-color:#C2C2C2"/>
					<stop  offset="0.0673" style="stop-color:#B1B1B1"/>
					<stop  offset="0.2964" style="stop-color:#7E7E7E"/>
					<stop  offset="0.5119" style="stop-color:#565656"/>
					<stop  offset="0.7074" style="stop-color:#393939"/>
					<stop  offset="0.8766" style="stop-color:#272727"/>
					<stop  offset="1" style="stop-color:#212121"/>
				</linearGradient>
				<path opacity="0.4" fill="url(#SVGID_9_)" stroke="#000000" stroke-miterlimit="10" enable-background="new    " d="
					M5.293,10.926c-0.008,0.016-0.016,0.027-0.021,0.041C5.277,10.954,5.285,10.94,5.293,10.926z"/>
				
					<linearGradient id="SVGID_10_" gradientUnits="userSpaceOnUse" x1="-1583.439" y1="-1592.623" x2="-1583.2572" y2="-1592.623" gradientTransform="matrix(4.489659e-011 -1 -1 -4.489659e-011 -1588.1348 -1563.6885)">
					<stop  offset="0" style="stop-color:#C2C2C2"/>
					<stop  offset="0.0673" style="stop-color:#B1B1B1"/>
					<stop  offset="0.2964" style="stop-color:#7E7E7E"/>
					<stop  offset="0.5119" style="stop-color:#565656"/>
					<stop  offset="0.7074" style="stop-color:#393939"/>
					<stop  offset="0.8766" style="stop-color:#272727"/>
					<stop  offset="1" style="stop-color:#212121"/>
				</linearGradient>
				<path opacity="0.4" fill="url(#SVGID_10_)" stroke="#000000" stroke-miterlimit="10" enable-background="new    " d="
					M4.461,19.568c0.02,0.061,0.033,0.121,0.055,0.184C4.494,19.689,4.479,19.629,4.461,19.568z"/>
				
					<linearGradient id="SVGID_11_" gradientUnits="userSpaceOnUse" x1="-1579.9805" y1="-1592.1338" x2="-1579.8848" y2="-1592.1338" gradientTransform="matrix(4.489659e-011 -1 -1 -4.489659e-011 -1588.1348 -1563.6885)">
					<stop  offset="0" style="stop-color:#C2C2C2"/>
					<stop  offset="0.0673" style="stop-color:#B1B1B1"/>
					<stop  offset="0.2964" style="stop-color:#7E7E7E"/>
					<stop  offset="0.5119" style="stop-color:#565656"/>
					<stop  offset="0.7074" style="stop-color:#393939"/>
					<stop  offset="0.8766" style="stop-color:#272727"/>
					<stop  offset="1" style="stop-color:#212121"/>
				</linearGradient>
				<path opacity="0.4" fill="url(#SVGID_11_)" stroke="#000000" stroke-miterlimit="10" enable-background="new    " d="M4,16.293
					c0-0.018-0.002-0.031-0.002-0.051C3.998,16.227,4,16.213,4,16.195c0,0.018,0,0.031,0,0.047C4,16.262,4,16.275,4,16.293z"/>
				
					<linearGradient id="SVGID_12_" gradientUnits="userSpaceOnUse" x1="-1586.0117" y1="-1593.9346" x2="-1586.0024" y2="-1593.9346" gradientTransform="matrix(4.489659e-011 -1 -1 -4.489659e-011 -1588.1348 -1563.6885)">
					<stop  offset="0" style="stop-color:#C2C2C2"/>
					<stop  offset="0.0673" style="stop-color:#B1B1B1"/>
					<stop  offset="0.2964" style="stop-color:#7E7E7E"/>
					<stop  offset="0.5119" style="stop-color:#565656"/>
					<stop  offset="0.7074" style="stop-color:#393939"/>
					<stop  offset="0.8766" style="stop-color:#272727"/>
					<stop  offset="1" style="stop-color:#212121"/>
				</linearGradient>
				<path opacity="0.4" fill="url(#SVGID_12_)" stroke="#000000" stroke-miterlimit="10" enable-background="new    " d="
					M5.795,22.313c0.002,0.004,0.006,0.008,0.01,0.01C5.801,22.32,5.797,22.318,5.795,22.313z"/>
				
					<linearGradient id="SVGID_13_" gradientUnits="userSpaceOnUse" x1="-1585.2544" y1="-1593.415" x2="-1585.2115" y2="-1593.415" gradientTransform="matrix(4.489659e-011 -1 -1 -4.489659e-011 -1588.1348 -1563.6885)">
					<stop  offset="0" style="stop-color:#C2C2C2"/>
					<stop  offset="0.0673" style="stop-color:#B1B1B1"/>
					<stop  offset="0.2964" style="stop-color:#7E7E7E"/>
					<stop  offset="0.5119" style="stop-color:#565656"/>
					<stop  offset="0.7074" style="stop-color:#393939"/>
					<stop  offset="0.8766" style="stop-color:#272727"/>
					<stop  offset="1" style="stop-color:#212121"/>
				</linearGradient>
				<path opacity="0.4" fill="url(#SVGID_13_)" stroke="#000000" stroke-miterlimit="10" enable-background="new    " d="
					M5.27,21.521c0.008,0.014,0.018,0.027,0.021,0.043C5.285,21.551,5.273,21.533,5.27,21.521z"/>
				
					<linearGradient id="SVGID_14_" gradientUnits="userSpaceOnUse" x1="-1584.333" y1="-1592.8096" x2="-1583.4365" y2="-1592.8096" gradientTransform="matrix(4.489659e-011 -1 -1 -4.489659e-011 -1588.1348 -1563.6885)">
					<stop  offset="0" style="stop-color:#C2C2C2"/>
					<stop  offset="0.0673" style="stop-color:#B1B1B1"/>
					<stop  offset="0.2964" style="stop-color:#7E7E7E"/>
					<stop  offset="0.5119" style="stop-color:#565656"/>
					<stop  offset="0.7074" style="stop-color:#393939"/>
					<stop  offset="0.8766" style="stop-color:#272727"/>
					<stop  offset="1" style="stop-color:#212121"/>
				</linearGradient>
				<path opacity="0.4" fill="url(#SVGID_14_)" stroke="#000000" stroke-miterlimit="10" enable-background="new    " d="
					M4.514,19.746c0.096,0.314,0.201,0.613,0.322,0.896C4.717,20.359,4.607,20.061,4.514,19.746z"/>
				
					<linearGradient id="SVGID_15_" gradientUnits="userSpaceOnUse" x1="-1576.4302" y1="-1592.8115" x2="-1575.5337" y2="-1592.8115" gradientTransform="matrix(4.489659e-011 -1 -1 -4.489659e-011 -1588.1348 -1563.6885)">
					<stop  offset="0" style="stop-color:#C2C2C2"/>
					<stop  offset="0.0673" style="stop-color:#B1B1B1"/>
					<stop  offset="0.2964" style="stop-color:#7E7E7E"/>
					<stop  offset="0.5119" style="stop-color:#565656"/>
					<stop  offset="0.7074" style="stop-color:#393939"/>
					<stop  offset="0.8766" style="stop-color:#272727"/>
					<stop  offset="1" style="stop-color:#212121"/>
				</linearGradient>
				<path opacity="0.4" fill="url(#SVGID_15_)" stroke="#000000" stroke-miterlimit="10" enable-background="new    " d="
					M4.838,11.844c-0.121,0.285-0.229,0.584-0.322,0.896C4.607,12.43,4.717,12.131,4.838,11.844z"/>
				
					<linearGradient id="SVGID_16_" gradientUnits="userSpaceOnUse" x1="-1587.1318" y1="-1594.5391" x2="-1586.0107" y2="-1594.5391" gradientTransform="matrix(4.489659e-011 -1 -1 -4.489659e-011 -1588.1348 -1563.6885)">
					<stop  offset="0" style="stop-color:#C2C2C2"/>
					<stop  offset="0.0673" style="stop-color:#B1B1B1"/>
					<stop  offset="0.2964" style="stop-color:#7E7E7E"/>
					<stop  offset="0.5119" style="stop-color:#565656"/>
					<stop  offset="0.7074" style="stop-color:#393939"/>
					<stop  offset="0.8766" style="stop-color:#272727"/>
					<stop  offset="1" style="stop-color:#212121"/>
				</linearGradient>
				<path opacity="0.4" fill="url(#SVGID_16_)" stroke="#000000" stroke-miterlimit="10" enable-background="new    " d="
					M7.008,23.443c-0.438-0.273-0.842-0.652-1.207-1.121C6.166,22.787,6.568,23.17,7.008,23.443z"/>
				
					<linearGradient id="SVGID_17_" gradientUnits="userSpaceOnUse" x1="-1575.4683" y1="-1593.2012" x2="-1574.6558" y2="-1593.2012" gradientTransform="matrix(4.489659e-011 -1 -1 -4.489659e-011 -1588.1348 -1563.6885)">
					<stop  offset="0" style="stop-color:#C2C2C2"/>
					<stop  offset="0.0673" style="stop-color:#B1B1B1"/>
					<stop  offset="0.2964" style="stop-color:#7E7E7E"/>
					<stop  offset="0.5119" style="stop-color:#565656"/>
					<stop  offset="0.7074" style="stop-color:#393939"/>
					<stop  offset="0.8766" style="stop-color:#272727"/>
					<stop  offset="1" style="stop-color:#212121"/>
				</linearGradient>
				<path opacity="0.4" fill="url(#SVGID_17_)" stroke="#000000" stroke-miterlimit="10" enable-background="new    " d="
					M5.27,10.967c-0.145,0.254-0.281,0.525-0.406,0.813C4.988,11.493,5.125,11.223,5.27,10.967z"/>
				
					<linearGradient id="SVGID_18_" gradientUnits="userSpaceOnUse" x1="-1574.6147" y1="-1593.6787" x2="-1573.8647" y2="-1593.6787" gradientTransform="matrix(4.489659e-011 -1 -1 -4.489659e-011 -1588.1348 -1563.6885)">
					<stop  offset="0" style="stop-color:#C2C2C2"/>
					<stop  offset="0.0673" style="stop-color:#B1B1B1"/>
					<stop  offset="0.2964" style="stop-color:#7E7E7E"/>
					<stop  offset="0.5119" style="stop-color:#565656"/>
					<stop  offset="0.7074" style="stop-color:#393939"/>
					<stop  offset="0.8766" style="stop-color:#272727"/>
					<stop  offset="1" style="stop-color:#212121"/>
				</linearGradient>
				<path opacity="0.4" fill="url(#SVGID_18_)" stroke="#000000" stroke-miterlimit="10" enable-background="new    " d="
					M5.795,10.176c-0.178,0.229-0.348,0.479-0.502,0.75C5.447,10.657,5.617,10.407,5.795,10.176z"/>
				
					<linearGradient id="SVGID_19_" gradientUnits="userSpaceOnUse" x1="-1573.8569" y1="-1594.54" x2="-1572.7358" y2="-1594.54" gradientTransform="matrix(4.489659e-011 -1 -1 -4.489659e-011 -1588.1348 -1563.6885)">
					<stop  offset="0" style="stop-color:#C2C2C2"/>
					<stop  offset="0.0673" style="stop-color:#B1B1B1"/>
					<stop  offset="0.2964" style="stop-color:#7E7E7E"/>
					<stop  offset="0.5119" style="stop-color:#565656"/>
					<stop  offset="0.7074" style="stop-color:#393939"/>
					<stop  offset="0.8766" style="stop-color:#272727"/>
					<stop  offset="1" style="stop-color:#212121"/>
				</linearGradient>
				<path opacity="0.4" fill="url(#SVGID_19_)" stroke="#000000" stroke-miterlimit="10" enable-background="new    " d="
					M5.801,10.168c0.363-0.471,0.77-0.85,1.209-1.121C6.568,9.319,6.164,9.7,5.801,10.168z"/>
				
					<linearGradient id="SVGID_20_" gradientUnits="userSpaceOnUse" x1="-1585.2109" y1="-1593.2012" x2="-1584.3984" y2="-1593.2012" gradientTransform="matrix(4.489659e-011 -1 -1 -4.489659e-011 -1588.1348 -1563.6885)">
					<stop  offset="0" style="stop-color:#C2C2C2"/>
					<stop  offset="0.0673" style="stop-color:#B1B1B1"/>
					<stop  offset="0.2964" style="stop-color:#7E7E7E"/>
					<stop  offset="0.5119" style="stop-color:#565656"/>
					<stop  offset="0.7074" style="stop-color:#393939"/>
					<stop  offset="0.8766" style="stop-color:#272727"/>
					<stop  offset="1" style="stop-color:#212121"/>
				</linearGradient>
				<path opacity="0.4" fill="url(#SVGID_20_)" stroke="#000000" stroke-miterlimit="10" enable-background="new    " d="
					M4.865,20.709c0.125,0.285,0.26,0.555,0.402,0.813C5.125,21.264,4.988,20.994,4.865,20.709z"/>
				
					<linearGradient id="SVGID_21_" gradientUnits="userSpaceOnUse" x1="-1577.4878" y1="-1592.4873" x2="-1576.6089" y2="-1592.4873" gradientTransform="matrix(4.489659e-011 -1 -1 -4.489659e-011 -1588.1348 -1563.6885)">
					<stop  offset="0" style="stop-color:#C2C2C2"/>
					<stop  offset="0.0673" style="stop-color:#B1B1B1"/>
					<stop  offset="0.2964" style="stop-color:#7E7E7E"/>
					<stop  offset="0.5119" style="stop-color:#565656"/>
					<stop  offset="0.7074" style="stop-color:#393939"/>
					<stop  offset="0.8766" style="stop-color:#272727"/>
					<stop  offset="1" style="stop-color:#212121"/>
				</linearGradient>
				<path opacity="0.4" fill="url(#SVGID_21_)" stroke="#000000" stroke-miterlimit="10" enable-background="new    " d="
					M4.461,12.92c-0.082,0.281-0.154,0.574-0.217,0.879C4.305,13.497,4.379,13.204,4.461,12.92z"/>
				
					<linearGradient id="SVGID_22_" gradientUnits="userSpaceOnUse" x1="-1580.9971" y1="-1592.1592" x2="-1579.9814" y2="-1592.1592" gradientTransform="matrix(4.489659e-011 -1 -1 -4.489659e-011 -1588.1348 -1563.6885)">
					<stop  offset="0" style="stop-color:#C2C2C2"/>
					<stop  offset="0.0673" style="stop-color:#B1B1B1"/>
					<stop  offset="0.2964" style="stop-color:#7E7E7E"/>
					<stop  offset="0.5119" style="stop-color:#565656"/>
					<stop  offset="0.7074" style="stop-color:#393939"/>
					<stop  offset="0.8766" style="stop-color:#272727"/>
					<stop  offset="1" style="stop-color:#212121"/>
				</linearGradient>
				<path opacity="0.4" fill="url(#SVGID_22_)" stroke="#000000" stroke-miterlimit="10" enable-background="new    " d="M4,16.293
					c0.002,0.346,0.021,0.684,0.049,1.016C4.021,16.977,4.002,16.639,4,16.293z"/>
				
					<linearGradient id="SVGID_23_" gradientUnits="userSpaceOnUse" x1="-1583.2568" y1="-1592.4873" x2="-1582.3799" y2="-1592.4873" gradientTransform="matrix(4.489659e-011 -1 -1 -4.489659e-011 -1588.1348 -1563.6885)">
					<stop  offset="0" style="stop-color:#C2C2C2"/>
					<stop  offset="0.0673" style="stop-color:#B1B1B1"/>
					<stop  offset="0.2964" style="stop-color:#7E7E7E"/>
					<stop  offset="0.5119" style="stop-color:#565656"/>
					<stop  offset="0.7074" style="stop-color:#393939"/>
					<stop  offset="0.8766" style="stop-color:#272727"/>
					<stop  offset="1" style="stop-color:#212121"/>
				</linearGradient>
				<path opacity="0.4" fill="url(#SVGID_23_)" stroke="#000000" stroke-miterlimit="10" enable-background="new    " d="
					M4.244,18.691c0.064,0.301,0.135,0.594,0.217,0.877C4.379,19.283,4.305,18.99,4.244,18.691z"/>
				
					<linearGradient id="SVGID_24_" gradientUnits="userSpaceOnUse" x1="-1586.002" y1="-1593.6787" x2="-1585.2539" y2="-1593.6787" gradientTransform="matrix(4.489659e-011 -1 -1 -4.489659e-011 -1588.1348 -1563.6885)">
					<stop  offset="0" style="stop-color:#C2C2C2"/>
					<stop  offset="0.0673" style="stop-color:#B1B1B1"/>
					<stop  offset="0.2964" style="stop-color:#7E7E7E"/>
					<stop  offset="0.5119" style="stop-color:#565656"/>
					<stop  offset="0.7074" style="stop-color:#393939"/>
					<stop  offset="0.8766" style="stop-color:#272727"/>
					<stop  offset="1" style="stop-color:#212121"/>
				</linearGradient>
				<path opacity="0.4" fill="url(#SVGID_24_)" stroke="#000000" stroke-miterlimit="10" enable-background="new    " d="
					M5.293,21.564c0.154,0.271,0.324,0.521,0.502,0.748C5.617,22.084,5.447,21.834,5.293,21.564z"/>
				
					<linearGradient id="SVGID_25_" gradientUnits="userSpaceOnUse" x1="-1582.2627" y1="-1592.2842" x2="-1581.2705" y2="-1592.2842" gradientTransform="matrix(4.489659e-011 -1 -1 -4.489659e-011 -1588.1348 -1563.6885)">
					<stop  offset="0" style="stop-color:#C2C2C2"/>
					<stop  offset="0.0673" style="stop-color:#B1B1B1"/>
					<stop  offset="0.2964" style="stop-color:#7E7E7E"/>
					<stop  offset="0.5119" style="stop-color:#565656"/>
					<stop  offset="0.7074" style="stop-color:#393939"/>
					<stop  offset="0.8766" style="stop-color:#272727"/>
					<stop  offset="1" style="stop-color:#212121"/>
				</linearGradient>
				<path opacity="0.4" fill="url(#SVGID_25_)" stroke="#000000" stroke-miterlimit="10" enable-background="new    " d="
					M4.076,17.582c0.035,0.338,0.08,0.672,0.146,0.992C4.154,18.254,4.109,17.92,4.076,17.582z"/>
				
					<linearGradient id="SVGID_26_" gradientUnits="userSpaceOnUse" x1="-1578.5972" y1="-1592.2803" x2="-1577.6011" y2="-1592.2803" gradientTransform="matrix(4.489659e-011 -1 -1 -4.489659e-011 -1588.1348 -1563.6885)">
					<stop  offset="0" style="stop-color:#C2C2C2"/>
					<stop  offset="0.0673" style="stop-color:#B1B1B1"/>
					<stop  offset="0.2964" style="stop-color:#7E7E7E"/>
					<stop  offset="0.5119" style="stop-color:#565656"/>
					<stop  offset="0.7074" style="stop-color:#393939"/>
					<stop  offset="0.8766" style="stop-color:#272727"/>
					<stop  offset="1" style="stop-color:#212121"/>
				</linearGradient>
				<path opacity="0.4" fill="url(#SVGID_26_)" stroke="#000000" stroke-miterlimit="10" enable-background="new    " d="
					M4.219,13.913c-0.063,0.322-0.107,0.656-0.146,0.996C4.109,14.571,4.154,14.235,4.219,13.913z"/>
				
					<linearGradient id="SVGID_27_" gradientUnits="userSpaceOnUse" x1="-1587.6372" y1="-1596.7422" x2="-1587.6298" y2="-1596.7422" gradientTransform="matrix(4.489659e-011 -1 -1 -4.489659e-011 -1588.1348 -1563.6885)">
					<stop  offset="0" style="stop-color:#C2C2C2"/>
					<stop  offset="0.0673" style="stop-color:#B1B1B1"/>
					<stop  offset="0.2964" style="stop-color:#7E7E7E"/>
					<stop  offset="0.5119" style="stop-color:#565656"/>
					<stop  offset="0.7074" style="stop-color:#393939"/>
					<stop  offset="0.8766" style="stop-color:#272727"/>
					<stop  offset="1" style="stop-color:#212121"/>
				</linearGradient>
				<path opacity="0.4" fill="url(#SVGID_27_)" stroke="#000000" stroke-miterlimit="10" enable-background="new    " d="
					M8.654,23.947c-0.031,0-0.063-0.008-0.094-0.008l0,0C8.592,23.939,8.621,23.947,8.654,23.947z"/>
				
					<linearGradient id="SVGID_28_" gradientUnits="userSpaceOnUse" x1="-1579.8857" y1="-1592.1592" x2="-1578.8706" y2="-1592.1592" gradientTransform="matrix(4.489659e-011 -1 -1 -4.489659e-011 -1588.1348 -1563.6885)">
					<stop  offset="0" style="stop-color:#C2C2C2"/>
					<stop  offset="0.0673" style="stop-color:#B1B1B1"/>
					<stop  offset="0.2964" style="stop-color:#7E7E7E"/>
					<stop  offset="0.5119" style="stop-color:#565656"/>
					<stop  offset="0.7074" style="stop-color:#393939"/>
					<stop  offset="0.8766" style="stop-color:#272727"/>
					<stop  offset="1" style="stop-color:#212121"/>
				</linearGradient>
				<path opacity="0.4" fill="url(#SVGID_28_)" stroke="#000000" stroke-miterlimit="10" enable-background="new    " d="
					M4.049,15.182C4.023,15.514,4.002,15.852,4,16.197C4.002,15.852,4.021,15.514,4.049,15.182z"/>
				
					<linearGradient id="SVGID_29_" gradientUnits="userSpaceOnUse" x1="-1587.6372" y1="-1596.835" x2="-1587.6293" y2="-1596.835" gradientTransform="matrix(4.489659e-011 -1 -1 -4.489659e-011 -1588.1348 -1563.6885)">
					<stop  offset="0" style="stop-color:#C2C2C2"/>
					<stop  offset="0.0673" style="stop-color:#B1B1B1"/>
					<stop  offset="0.2964" style="stop-color:#7E7E7E"/>
					<stop  offset="0.5119" style="stop-color:#565656"/>
					<stop  offset="0.7074" style="stop-color:#393939"/>
					<stop  offset="0.8766" style="stop-color:#272727"/>
					<stop  offset="1" style="stop-color:#212121"/>
				</linearGradient>
				<path opacity="0.4" fill="url(#SVGID_29_)" stroke="#000000" stroke-miterlimit="10" enable-background="new    " d="
					M8.748,23.939c-0.031,0-0.063,0.008-0.096,0.008C8.686,23.947,8.717,23.939,8.748,23.939L8.748,23.939z"/>
				<g>
					
						<linearGradient id="SVGID_30_" gradientUnits="userSpaceOnUse" x1="-1587.6357" y1="-1671.7725" x2="-1566.7319" y2="-1671.7725" gradientTransform="matrix(4.489659e-011 -1 -1 -4.489659e-011 -1588.1348 -1563.6885)">
						<stop  offset="0" style="stop-color:#C2C2C2"/>
						<stop  offset="0.0673" style="stop-color:#B1B1B1"/>
						<stop  offset="0.2964" style="stop-color:#7E7E7E"/>
						<stop  offset="0.5119" style="stop-color:#565656"/>
						<stop  offset="0.7074" style="stop-color:#393939"/>
						<stop  offset="0.8766" style="stop-color:#272727"/>
						<stop  offset="1" style="stop-color:#212121"/>
					</linearGradient>
					<path fill="url(#SVGID_30_)" d="M160.957,16.242c0,4.203-0.27,7.613,2.256,7.697H8.748c-0.031,0-0.063,0.008-0.096,0.008
						c-0.031,0-0.063-0.008-0.094-0.008c-0.547-0.018-1.066-0.193-1.553-0.498c-0.438-0.271-0.842-0.654-1.207-1.119
						c-0.002-0.002-0.006-0.006-0.008-0.01c-0.178-0.229-0.346-0.479-0.502-0.75c-0.006-0.016-0.018-0.029-0.023-0.043
						c-0.145-0.254-0.277-0.527-0.402-0.813c-0.008-0.02-0.018-0.043-0.025-0.063c-0.121-0.287-0.227-0.584-0.322-0.896
						c-0.021-0.063-0.035-0.123-0.055-0.182c-0.082-0.285-0.154-0.578-0.217-0.879c-0.01-0.039-0.021-0.076-0.025-0.115
						c-0.063-0.32-0.107-0.654-0.146-0.994c-0.008-0.09-0.016-0.18-0.021-0.271C4.023,16.975,4.002,16.637,4,16.293
						c0-0.018,0-0.031,0-0.051c0-0.016,0-0.031,0-0.049c0.002-0.343,0.021-0.681,0.053-1.015c0.008-0.09,0.016-0.184,0.021-0.271
						c0.035-0.34,0.08-0.674,0.146-0.996c0.006-0.037,0.018-0.074,0.023-0.111c0.063-0.307,0.135-0.6,0.217-0.879
						c0.02-0.063,0.033-0.121,0.055-0.182c0.096-0.311,0.203-0.611,0.322-0.895c0.012-0.023,0.021-0.043,0.027-0.064
						c0.125-0.287,0.26-0.559,0.404-0.813c0.008-0.016,0.016-0.027,0.021-0.041c0.154-0.271,0.322-0.521,0.502-0.75
						c0.002-0.002,0.006-0.004,0.008-0.01C6.162,9.7,6.568,9.319,7.008,9.047c5.494-5.348,9.787-6.004,10.369-6.004
						c0,0-0.328,5.498,5.518,5.498c0.186,0,0.42,0,0.42,0h139.961C160.707,8.542,160.957,11.991,160.957,16.242z"/>
				</g>
			</g>
			<g opacity="0.4" enable-background="new    ">
				<path opacity="0.4" fill="#FFFFFF" enable-background="new    " d="M8.586,23.947c-0.029,0-0.063-0.008-0.094-0.008H8.68
					C8.646,23.939,8.617,23.947,8.586,23.947z"/>
				<path fill="#FFFFFF" d="M8.68,23.939H8.492c-0.521-0.016-1.018-0.18-1.484-0.455l-0.482-0.377h4.17L8.68,23.939z"/>
			</g>
			<g>
				<path fill="#231F20" d="M163.404,9.219H10.613H6.445C7.084,8.78,7.693,8.532,8.469,8.532C8.471,8.532,164.09,8.78,163.404,9.219
					z"/>
			</g>
			<path fill="#606060" d="M161.643,11.961H12.521H4.787c0.42-1.039,0.988-1.896,1.658-2.498h4.416h152.543
				C162.693,10.061,162.09,10.922,161.643,11.961z"/>
			<g>
				<path opacity="0.4" fill="#FFFFFF" enable-background="new    " d="M162.539,23.025c0.152,0.23,0.313,0.447,0.48,0.643H11.029
					c0.17-0.195,0.33-0.412,0.484-0.643H162.539z"/>
				<path opacity="0.4" fill="#FFFFFF" enable-background="new    " d="M11.027,23.666H6.059c-0.17-0.195-0.33-0.41-0.482-0.641
					h5.938C11.357,23.258,11.197,23.473,11.027,23.666z"/>
			</g>
		</g>
		<path d="M160.338,23.559v0.762L8.775,24.318c-0.041,0.006-0.08,0.008-0.123,0.008l-0.113-0.008
			c-0.641-0.02-1.26-0.215-1.842-0.582c-0.475-0.295-0.92-0.707-1.328-1.229c-0.186-0.236-0.361-0.504-0.555-0.836
			c-0.148-0.266-0.287-0.543-0.445-0.91c-0.125-0.293-0.234-0.604-0.334-0.918l-0.057-0.189c-0.086-0.293-0.16-0.594-0.229-0.908
			c-0.008-0.045-0.02-0.09-0.021-0.113c-0.063-0.33-0.109-0.67-0.146-1.02c-0.01-0.092-0.018-0.188-0.023-0.279
			c-0.029-0.34-0.049-0.686-0.051-1.09v-0.049c0.002-0.351,0.021-0.699,0.059-1.113l0.018-0.203c0.037-0.35,0.082-0.689,0.146-1.014
			l0.025-0.125c0.063-0.311,0.139-0.609,0.238-0.953l0.041-0.133c0.098-0.322,0.209-0.635,0.361-0.996
			c0.131-0.297,0.271-0.578,0.445-0.887c0.152-0.268,0.318-0.518,0.492-0.744L5.402,9.94c0.391-0.496,0.824-0.895,1.295-1.188
			c0.625-0.391,1.283-0.59,1.955-0.59h151.686v0.766H8.652c-0.439,0-0.889,0.143-1.334,0.42c-0.387,0.24-0.75,0.58-1.063,0.979
			l-0.063,0.08c-0.158,0.207-0.311,0.432-0.438,0.646l-0.033,0.072c-0.145,0.242-0.271,0.506-0.385,0.762l-0.031,0.08
			c-0.117,0.271-0.221,0.563-0.316,0.875l-0.049,0.164c-0.08,0.275-0.152,0.561-0.211,0.854l-0.486-0.059l0.461,0.172
			c-0.061,0.314-0.105,0.639-0.139,0.963l-0.023,0.271c-0.027,0.324-0.047,0.652-0.049,0.99L4,16.195l0.496,0.096
			c0.002,0.336,0.021,0.668,0.049,0.996c0.006,0.09,0.014,0.176,0.021,0.262c0.037,0.33,0.082,0.658,0.141,0.971l0.025,0.113
			c0.061,0.291,0.131,0.574,0.229,0.91l0.035,0.115c0.094,0.301,0.193,0.588,0.338,0.93c0.121,0.271,0.248,0.531,0.408,0.816
			c0.148,0.256,0.307,0.492,0.482,0.719c0.342,0.439,0.709,0.779,1.096,1.021c0.416,0.262,0.838,0.4,1.313,0.422L160.338,23.559
			L160.338,23.559z"/>
		<path fill="#D3A540" stroke="#000000" stroke-miterlimit="10" d="M0.482,2.881h16.904c-5.398,0-9.771,5.779-9.771,11.18
			c0,5.398,4.375,9.769,9.771,9.769l143.357-0.049c0,0,2.131,3.902-4.432,3.902c-0.078,0-0.313,0-0.313,0L0.48,27.734V2.885V2.881
			H0.482z"/>
		
			<linearGradient id="SVGID_31_" gradientUnits="userSpaceOnUse" x1="1025.9043" y1="-1918.8403" x2="1025.9043" y2="-1926.3671" gradientTransform="matrix(1 0 0 -1 -1020.7305 -1911.6758)">
			<stop  offset="0.2849" style="stop-color:#FFFFFF"/>
			<stop  offset="0.5049" style="stop-color:#FFFFFF;stop-opacity:0"/>
		</linearGradient>
		<path opacity="0.6" fill="url(#SVGID_31_)" enable-background="new    " d="M1.002,12.897c0,0,6.053,1.529,6.125,0
			C7.273,9.85,9.345,6.981,9.345,6.981H1.002V12.897z"/>
		<path fill="#D3A540" stroke="#000000" stroke-miterlimit="10" d="M159.014,24.021c0,1.092,0.887,1.984,1.986,1.984l0,0
			c1.094,0,1.984-0.889,1.984-1.984V3.211c0-1.096-0.889-1.982-1.984-1.982l0,0c-1.096,0-1.986,0.885-1.986,1.982V24.021z"/>
		
			<linearGradient id="SVGID_32_" gradientUnits="userSpaceOnUse" x1="1181.876" y1="-1919.7368" x2="1181.876" y2="-1926.4873" gradientTransform="matrix(1 0 0 -1 -1020.7305 -1911.6758)">
			<stop  offset="0.2849" style="stop-color:#FFFFFF"/>
			<stop  offset="0.5049" style="stop-color:#FFFFFF;stop-opacity:0"/>
		</linearGradient>
		<rect x="159.854" y="7.895" opacity="0.6" fill="url(#SVGID_32_)" enable-background="new    " width="2.586" height="5.916"/>
		<path opacity="0.4" fill="#856829" enable-background="new    " d="M0.002,21.518c0-8.333,6.979-5.166,6.979-5.166
			c1.643,4.463,8.5,7.67,8.5,7.67h143.533l0.301-1.004l2.832-0.334l0.334,1.834l-2.834,1.666l-1.332,1.551H0.002v-5.551"/>
	</g>
</g>
</svg>
