<?xml version="1.0" encoding="utf-8"?>
<!-- Generator: Adobe Illustrator 16.0.0, SVG Export Plug-In . SVG Version: 6.00 Build 0)  -->
<!DOCTYPE svg PUBLIC "-//W3C//DTD SVG 1.1//EN" "http://www.w3.org/Graphics/SVG/1.1/DTD/svg11.dtd">
<svg version="1.1" id="Layer_1" xmlns="http://www.w3.org/2000/svg" xmlns:xlink="http://www.w3.org/1999/xlink" x="0px" y="0px"
	 width="34.14px" height="39.36px" viewBox="0 0 34.14 39.36" enable-background="new 0 0 34.14 39.36" xml:space="preserve">
<g>
	<g>
		<g>
			<g>
				<rect x="10.205" y="34.228" fill="#515151" width="19.858" height="4.633"/>
				<path d="M10.725,34.728h18.82v3.633h-18.82V34.728 M9.687,33.728v5.633h20.896v-5.633H9.687L9.687,33.728z"/>
			</g>
			<rect x="10.679" y="34.099" fill="#666666" width="18.894" height="0.287"/>
			<rect x="10.677" y="34.923" fill="#7F7F7F" width="18.925" height="0.289"/>
		</g>
	</g>
	<g>
		<g>
			<path opacity="0.4" fill="#563F11" enable-background="new    " d="M0,5.719h0.498c0.197-0.887,0.988-1.551,1.936-1.551
				c1.025,0,1.859,0.777,1.965,1.771c0.213-0.006,0.428-0.018,0.643-0.018c14.188,0,25.529,8.146,25.75,22.275
				c0.813,0.488,2.416,1.509,3.348,2.354v2.304c-2.096,1.824-8.479,2.707-14.098,2.707c-3.98,0-7.5-0.371-9.752-1.188l-0.268-0.045
				l-0.137-0.105c-1.369-0.57-2.174-1.334-2.174-2.316c0-0.84,0.596-1.623,1.625-2.303L9.271,29.02l-1.25-2.375l-0.795,1.063
				l-2.438-0.5l-0.5,0.5L4.264,27.73c-0.221,0.523-0.666,0.928-1.213,1.105L2.852,29.02l-1.125-0.063l-0.229-0.256
				c-0.543-0.293-0.932-0.826-1.021-1.459H0V5.719z"/>
			<g>
				<path fill="#D3A540" stroke="#000000" stroke-miterlimit="10" d="M30.885,32.35H9.232c0.326-0.643,0.525-1.354,0.525-2.123
					c0-2.605-2.111-4.717-4.717-4.717c-0.863,0-1.66,0.25-2.357,0.654V4.402c0.777-0.07,1.564-0.111,2.357-0.111
					c14.324,0,25.936,11.613,25.936,25.936C30.977,30.941,30.941,31.648,30.885,32.35z"/>
			</g>
			<ellipse fill="#D3A540" stroke="#000000" stroke-miterlimit="10" cx="20.289" cy="33.618" rx="10.186" ry="1.901"/>
			<g>
				<path fill="#D3A540" stroke="#000000" stroke-miterlimit="10" d="M20.475,27.619c-6.832,0-12.371,2.082-12.371,4.654
					c0,2.574,5.498,3.654,12.33,3.654c6.834,0,12.416-1.08,12.416-3.654S27.309,27.617,20.475,27.619z"/>
				<ellipse fill="#D3A540" stroke="#000000" stroke-miterlimit="10" cx="20.477" cy="30.239" rx="10.447" ry="2.124"/>
			</g>
			
				<linearGradient id="SVGID_1_" gradientUnits="userSpaceOnUse" x1="1045.96" y1="-1933.9326" x2="1045.96" y2="-1937.6042" gradientTransform="matrix(1 0 0 -1 -1020.0742 -1901.6758)">
				<stop  offset="0.2899" style="stop-color:#FFFFFF;stop-opacity:0.7"/>
				<stop  offset="0.6044" style="stop-color:#FFFFFF;stop-opacity:0"/>
			</linearGradient>
			<polygon opacity="0.6" fill="url(#SVGID_1_)" enable-background="new    " points="25.051,35.383 28.176,34.406 27.363,32.166 
				23.598,33.027 			"/>
			<path fill="#D3A540" d="M10.916,27.072l1.875-0.688l16.875,0.688c0,0,0.176-1.664,0.688,0.875
				c0.406,2.016,0.047,2.266,0.047,2.266L10.51,30.23l-0.656-2.096L10.916,27.072z"/>
			
				<linearGradient id="SVGID_2_" gradientUnits="userSpaceOnUse" x1="578.8633" y1="374.8965" x2="598.062" y2="408.5193" gradientTransform="matrix(1 0 0 1 -565.3184 -361.25)">
				<stop  offset="0.1129" style="stop-color:#FFFFFF;stop-opacity:0.8"/>
				<stop  offset="0.6418" style="stop-color:#FFFFFF;stop-opacity:0.1493"/>
				<stop  offset="0.978" style="stop-color:#FFFFFF;stop-opacity:0"/>
			</linearGradient>
			<path opacity="0.6" fill="url(#SVGID_2_)" enable-background="new    " d="M27.115,30.227c0,0.631-0.023,0.979-0.074,1.596
				l-3.367,0.75c0-12.916-7.282-19.438-18.779-20.086v-3.33C5.58,9.094,6.082,9.059,6.781,9.059
				C19.391,9.059,27.117,17.617,27.115,30.227z"/>
			<polygon fill="#856829" points="13.836,19.359 18.686,14.512 23.535,19.359 21.352,19.361 21.352,24.525 16.02,24.525 
				16.02,19.359 			"/>
			<path fill="#D3A540" stroke="#000000" stroke-miterlimit="10" d="M0.449,25.328c0,1.092,0.887,1.984,1.984,1.984l0,0
				c1.094,0,1.986-0.889,1.986-1.984V4.518c0-1.096-0.891-1.982-1.986-1.982l0,0c-1.094,0-1.984,0.885-1.984,1.982V25.328z"/>
			
				<linearGradient id="SVGID_3_" gradientUnits="userSpaceOnUse" x1="1022.5" y1="-1910.937" x2="1022.5" y2="-1917.6885" gradientTransform="matrix(1 0 0 -1 -1020.0742 -1901.6758)">
				<stop  offset="0.2849" style="stop-color:#FFFFFF"/>
				<stop  offset="0.5049" style="stop-color:#FFFFFF;stop-opacity:0"/>
			</linearGradient>
			<rect x="0.957" y="9.096" opacity="0.6" fill="url(#SVGID_3_)" enable-background="new    " width="2.938" height="5.916"/>
			<path opacity="0.4" fill="#856829" enable-background="new    " d="M0.543,17.012c-0.064,2.188,4.063,2.125,4.063,2.125
				c10.188,5.188,10,12.625,10,12.625l2.5,0.5c-4.375,0.625,0.063,3.563,0.063,3.563l-6.75-1.125l-1.75-1.375l-0.375-1.375
				l0.375-1.063l1.094-0.658l-0.094-0.842l-1.25-2.375L7.23,26.074l-2.438-0.5l-0.5,0.5l-1.439,1.313l-1.125-0.063l-1.063-1.189
				l-0.188-6.313L0.543,17.012z"/>
		</g>
	</g>
</g>
</svg>
