<?xml version="1.0" encoding="utf-8"?>
<!-- Generator: Adobe Illustrator 16.0.0, SVG Export Plug-In . SVG Version: 6.00 Build 0)  -->
<!DOCTYPE svg PUBLIC "-//W3C//DTD SVG 1.1//EN" "http://www.w3.org/Graphics/SVG/1.1/DTD/svg11.dtd">
<svg version="1.1" id="Layer_1" xmlns="http://www.w3.org/2000/svg" xmlns:xlink="http://www.w3.org/1999/xlink" x="0px" y="0px"
	 width="162.948px" height="38.805px" viewBox="0 0 162.948 38.805" enable-background="new 0 0 162.948 38.805"
	 xml:space="preserve">
<path opacity="0.4" fill="#563F11" enable-background="new    " d="M154.949,28.013h-2.705l-10.41-4.088V23.26
	c0-1.336-0.182-2.373-0.482-3.178V6.035V6.033h-5.701c-1.025-0.949-3.75-2.305-3.436-2.242c-1.018-0.113-2.273-0.637-2.479-0.637
	c0,0,0.432,5.736-2.529,6.752H4.385V4.955c0-1.096-0.891-1.982-1.986-1.982c-0.947,0-1.736,0.664-1.936,1.551h-0.471v21.523h0.45
	C0.58,27.01,1.401,27.75,2.399,27.75c0.039,0,0.076-0.01,0.115-0.012c0.285,0.613,0.955,1.191,2.352,1.484l5.498,0.254l144.39-0.004
	h0.195c0.402,0,0.73-0.326,0.73-0.729C155.679,28.34,155.351,28.013,154.949,28.013z"/>
<g>
	<g>
		<path d="M3.145,23.559v0.762l151.563-0.002c0.041,0.007,0.08,0.009,0.123,0.009l0.113-0.009c0.641-0.021,1.26-0.215,1.842-0.582
			c0.477-0.295,0.92-0.707,1.328-1.229c0.186-0.235,0.361-0.504,0.555-0.836c0.148-0.266,0.287-0.543,0.445-0.909
			c0.125-0.294,0.234-0.604,0.334-0.919l0.057-0.188c0.086-0.293,0.16-0.594,0.229-0.907c0.008-0.045,0.02-0.09,0.021-0.113
			c0.063-0.329,0.109-0.67,0.146-1.021c0.01-0.092,0.018-0.188,0.021-0.278c0.029-0.34,0.051-0.687,0.053-1.09v-0.05
			c-0.002-0.351-0.021-0.698-0.061-1.112l-0.018-0.203c-0.037-0.351-0.082-0.688-0.146-1.014l-0.023-0.125
			c-0.063-0.312-0.141-0.609-0.238-0.953l-0.041-0.134c-0.098-0.321-0.209-0.635-0.361-0.995c-0.131-0.298-0.271-0.578-0.443-0.888
			c-0.152-0.269-0.318-0.519-0.492-0.744l-0.07-0.088c-0.391-0.496-0.824-0.896-1.295-1.188c-0.625-0.392-1.283-0.59-1.955-0.59
			H3.145v0.767H154.83c0.439,0,0.891,0.143,1.334,0.42c0.387,0.239,0.75,0.58,1.063,0.979l0.063,0.08
			c0.158,0.207,0.313,0.432,0.438,0.646l0.033,0.071c0.145,0.242,0.271,0.506,0.385,0.763l0.031,0.079
			c0.115,0.271,0.221,0.563,0.314,0.875l0.049,0.164c0.08,0.275,0.152,0.562,0.211,0.854l0.486-0.06l-0.461,0.173
			c0.061,0.313,0.104,0.639,0.139,0.963l0.023,0.271c0.025,0.324,0.047,0.651,0.049,0.989l0.494-0.002l-0.496,0.097
			c-0.002,0.336-0.021,0.668-0.049,0.996c-0.006,0.09-0.016,0.176-0.021,0.262c-0.037,0.33-0.082,0.658-0.141,0.972l-0.025,0.112
			c-0.061,0.291-0.131,0.574-0.229,0.91l-0.035,0.115c-0.094,0.301-0.193,0.588-0.338,0.93c-0.121,0.271-0.248,0.531-0.408,0.815
			c-0.148,0.257-0.307,0.492-0.482,0.72c-0.342,0.438-0.709,0.778-1.096,1.021c-0.416,0.263-0.838,0.399-1.313,0.422L3.145,23.559
			L3.145,23.559z"/>
		<path fill="#D3A540" stroke="#000000" stroke-miterlimit="10" d="M4.469,24.021c0,1.092-0.887,1.983-1.984,1.983l0,0
			c-1.094,0-1.984-0.889-1.984-1.983V3.211c0-1.096,0.891-1.981,1.984-1.981l0,0c1.096,0,1.984,0.886,1.984,1.981V24.021z"/>
		
			<linearGradient id="SVGID_1_" gradientUnits="userSpaceOnUse" x1="444.6365" y1="-2455.9324" x2="444.6365" y2="-2462.6829" gradientTransform="matrix(-1 0 0 -1 446.9722 -2447.8716)">
			<stop  offset="0.2849" style="stop-color:#FFFFFF"/>
			<stop  offset="0.5049" style="stop-color:#FFFFFF;stop-opacity:0"/>
		</linearGradient>
		<rect x="1.043" y="7.895" opacity="0.6" fill="url(#SVGID_1_)" enable-background="new    " width="2.586" height="5.916"/>
	</g>
</g>
<g>
	<g>
		<g opacity="0.4" enable-background="new    ">
			
				<linearGradient id="SVGID_2_" gradientUnits="userSpaceOnUse" x1="-1580.4358" y1="-1608.5037" x2="-1580.1633" y2="-1608.5037" gradientTransform="matrix(0 -1 1 0 1751.5527 -1565.144)">
				<stop  offset="0" style="stop-color:#C2C2C2"/>
				<stop  offset="0.0673" style="stop-color:#B1B1B1"/>
				<stop  offset="0.2964" style="stop-color:#7E7E7E"/>
				<stop  offset="0.5119" style="stop-color:#565656"/>
				<stop  offset="0.7074" style="stop-color:#393939"/>
				<stop  offset="0.8766" style="stop-color:#272727"/>
				<stop  offset="1" style="stop-color:#212121"/>
			</linearGradient>
			<path fill="url(#SVGID_2_)" d="M143.037,15.019c0.012,0.088,0.02,0.182,0.023,0.271
				C143.054,15.201,143.049,15.109,143.037,15.019z"/>
			<path d="M143.037,15.019c0.012,0.09,0.018,0.182,0.023,0.271C143.056,15.201,143.049,15.107,143.037,15.019L143.037,15.019z"/>
		</g>
		<g opacity="0.4" enable-background="new    ">
			
				<linearGradient id="SVGID_3_" gradientUnits="userSpaceOnUse" x1="-1582.8362" y1="-1608.4998" x2="-1582.5637" y2="-1608.4998" gradientTransform="matrix(0 -1 1 0 1751.5527 -1565.144)">
				<stop  offset="0" style="stop-color:#C2C2C2"/>
				<stop  offset="0.0673" style="stop-color:#B1B1B1"/>
				<stop  offset="0.2964" style="stop-color:#7E7E7E"/>
				<stop  offset="0.5119" style="stop-color:#565656"/>
				<stop  offset="0.7074" style="stop-color:#393939"/>
				<stop  offset="0.8766" style="stop-color:#272727"/>
				<stop  offset="1" style="stop-color:#212121"/>
			</linearGradient>
			<path fill="url(#SVGID_3_)" d="M143.064,17.422c-0.008,0.09-0.016,0.18-0.023,0.271
				C143.049,17.601,143.054,17.511,143.064,17.422z"/>
			<path d="M143.064,17.422c-0.01,0.09-0.016,0.18-0.023,0.271C143.049,17.601,143.056,17.511,143.064,17.422L143.064,17.422z"/>
		</g>
		<g opacity="0.4" enable-background="new    ">
			
				<linearGradient id="SVGID_4_" gradientUnits="userSpaceOnUse" x1="-1583.946" y1="-1608.6707" x2="-1583.8287" y2="-1608.6707" gradientTransform="matrix(0 -1 1 0 1751.5527 -1565.144)">
				<stop  offset="0" style="stop-color:#C2C2C2"/>
				<stop  offset="0.0673" style="stop-color:#B1B1B1"/>
				<stop  offset="0.2964" style="stop-color:#7E7E7E"/>
				<stop  offset="0.5119" style="stop-color:#565656"/>
				<stop  offset="0.7074" style="stop-color:#393939"/>
				<stop  offset="0.8766" style="stop-color:#272727"/>
				<stop  offset="1" style="stop-color:#212121"/>
			</linearGradient>
			<path fill="url(#SVGID_4_)" d="M142.894,18.685c-0.006,0.041-0.018,0.078-0.025,0.117
				C142.879,18.763,142.888,18.726,142.894,18.685z"/>
			<path d="M142.894,18.685c-0.006,0.041-0.018,0.078-0.025,0.117C142.879,18.763,142.888,18.726,142.894,18.685L142.894,18.685z"/>
		</g>
		<g opacity="0.4" enable-background="new    ">
			
				<linearGradient id="SVGID_5_" gradientUnits="userSpaceOnUse" x1="-1579.1672" y1="-1608.6707" x2="-1579.0551" y2="-1608.6707" gradientTransform="matrix(0 -1 1 0 1751.5527 -1565.144)">
				<stop  offset="0" style="stop-color:#C2C2C2"/>
				<stop  offset="0.0673" style="stop-color:#B1B1B1"/>
				<stop  offset="0.2964" style="stop-color:#7E7E7E"/>
				<stop  offset="0.5119" style="stop-color:#565656"/>
				<stop  offset="0.7074" style="stop-color:#393939"/>
				<stop  offset="0.8766" style="stop-color:#272727"/>
				<stop  offset="1" style="stop-color:#212121"/>
			</linearGradient>
			<path fill="url(#SVGID_5_)" d="M142.869,13.912c0.008,0.037,0.02,0.072,0.025,0.111
				C142.888,13.984,142.879,13.949,142.869,13.912z"/>
			<path d="M142.869,13.912c0.008,0.037,0.02,0.072,0.025,0.111C142.888,13.984,142.879,13.949,142.869,13.912L142.869,13.912z"/>
		</g>
		<g opacity="0.4" enable-background="new    ">
			
				<linearGradient id="SVGID_6_" gradientUnits="userSpaceOnUse" x1="-1585.9675" y1="-1609.2898" x2="-1585.8997" y2="-1609.2898" gradientTransform="matrix(0 -1 1 0 1751.5527 -1565.144)">
				<stop  offset="0" style="stop-color:#C2C2C2"/>
				<stop  offset="0.0673" style="stop-color:#B1B1B1"/>
				<stop  offset="0.2964" style="stop-color:#7E7E7E"/>
				<stop  offset="0.5119" style="stop-color:#565656"/>
				<stop  offset="0.7074" style="stop-color:#393939"/>
				<stop  offset="0.8766" style="stop-color:#272727"/>
				<stop  offset="1" style="stop-color:#212121"/>
			</linearGradient>
			<path fill="url(#SVGID_6_)" d="M142.275,20.758c-0.01,0.021-0.02,0.045-0.025,0.066
				C142.258,20.799,142.265,20.779,142.275,20.758z"/>
			<path d="M142.275,20.758c-0.01,0.021-0.02,0.045-0.025,0.066C142.258,20.799,142.265,20.779,142.275,20.758L142.275,20.758z"/>
		</g>
		<g opacity="0.4" enable-background="new    ">
			
				<linearGradient id="SVGID_7_" gradientUnits="userSpaceOnUse" x1="-1578.175" y1="-1608.9255" x2="-1577.9955" y2="-1608.9255" gradientTransform="matrix(0 -1 1 0 1751.5527 -1565.144)">
				<stop  offset="0" style="stop-color:#C2C2C2"/>
				<stop  offset="0.0673" style="stop-color:#B1B1B1"/>
				<stop  offset="0.2964" style="stop-color:#7E7E7E"/>
				<stop  offset="0.5119" style="stop-color:#565656"/>
				<stop  offset="0.7074" style="stop-color:#393939"/>
				<stop  offset="0.8766" style="stop-color:#272727"/>
				<stop  offset="1" style="stop-color:#212121"/>
			</linearGradient>
			<path fill="url(#SVGID_7_)" d="M142.599,12.851c0.021,0.061,0.035,0.119,0.055,0.182
				C142.635,12.972,142.619,12.91,142.599,12.851z"/>
			<path d="M142.599,12.851c0.02,0.059,0.035,0.121,0.055,0.182C142.635,12.97,142.621,12.912,142.599,12.851L142.599,12.851z"/>
		</g>
		<g opacity="0.4" enable-background="new    ">
			
				<linearGradient id="SVGID_8_" gradientUnits="userSpaceOnUse" x1="-1575.4314" y1="-1610.2371" x2="-1575.4221" y2="-1610.2371" gradientTransform="matrix(0 -1 1 0 1751.5527 -1565.144)">
				<stop  offset="0" style="stop-color:#C2C2C2"/>
				<stop  offset="0.0673" style="stop-color:#B1B1B1"/>
				<stop  offset="0.2964" style="stop-color:#7E7E7E"/>
				<stop  offset="0.5119" style="stop-color:#565656"/>
				<stop  offset="0.7074" style="stop-color:#393939"/>
				<stop  offset="0.8766" style="stop-color:#272727"/>
				<stop  offset="1" style="stop-color:#212121"/>
			</linearGradient>
			<path fill="url(#SVGID_8_)" d="M141.312,10.278c0.002,0.002,0.004,0.006,0.006,0.01
				C141.316,10.285,141.314,10.283,141.312,10.278z"/>
			<path d="M141.312,10.278c0.002,0.006,0.004,0.008,0.006,0.01C141.316,10.283,141.314,10.28,141.312,10.278L141.312,10.278z"/>
		</g>
		<g opacity="0.4" enable-background="new    ">
			
				<linearGradient id="SVGID_9_" gradientUnits="userSpaceOnUse" x1="-1577.0989" y1="-1609.2898" x2="-1577.0345" y2="-1609.2898" gradientTransform="matrix(0 -1 1 0 1751.5527 -1565.144)">
				<stop  offset="0" style="stop-color:#C2C2C2"/>
				<stop  offset="0.0673" style="stop-color:#B1B1B1"/>
				<stop  offset="0.2964" style="stop-color:#7E7E7E"/>
				<stop  offset="0.5119" style="stop-color:#565656"/>
				<stop  offset="0.7074" style="stop-color:#393939"/>
				<stop  offset="0.8766" style="stop-color:#272727"/>
				<stop  offset="1" style="stop-color:#212121"/>
			</linearGradient>
			<path fill="url(#SVGID_9_)" d="M142.25,11.89c0.008,0.021,0.018,0.043,0.025,0.064C142.265,11.933,142.258,11.912,142.25,11.89z"
				/>
			<path d="M142.25,11.89c0.008,0.021,0.016,0.043,0.025,0.064C142.267,11.933,142.258,11.912,142.25,11.89L142.25,11.89z"/>
		</g>
		<g opacity="0.4" enable-background="new    ">
			
				<linearGradient id="SVGID_10_" gradientUnits="userSpaceOnUse" x1="-1576.2219" y1="-1609.7214" x2="-1576.1809" y2="-1609.7214" gradientTransform="matrix(0 -1 1 0 1751.5527 -1565.144)">
				<stop  offset="0" style="stop-color:#C2C2C2"/>
				<stop  offset="0.0673" style="stop-color:#B1B1B1"/>
				<stop  offset="0.2964" style="stop-color:#7E7E7E"/>
				<stop  offset="0.5119" style="stop-color:#565656"/>
				<stop  offset="0.7074" style="stop-color:#393939"/>
				<stop  offset="0.8766" style="stop-color:#272727"/>
				<stop  offset="1" style="stop-color:#212121"/>
			</linearGradient>
			<path fill="url(#SVGID_10_)" d="M141.82,11.037c0.008,0.016,0.016,0.027,0.021,0.041
				C141.836,11.064,141.828,11.051,141.82,11.037z"/>
			<path d="M141.82,11.037c0.008,0.016,0.016,0.027,0.021,0.041C141.836,11.064,141.828,11.051,141.82,11.037L141.82,11.037z"/>
		</g>
		<g opacity="0.4" enable-background="new    ">
			
				<linearGradient id="SVGID_11_" gradientUnits="userSpaceOnUse" x1="-1585.0051" y1="-1608.9275" x2="-1584.8234" y2="-1608.9275" gradientTransform="matrix(0 -1 1 0 1751.5527 -1565.144)">
				<stop  offset="0" style="stop-color:#C2C2C2"/>
				<stop  offset="0.0673" style="stop-color:#B1B1B1"/>
				<stop  offset="0.2964" style="stop-color:#7E7E7E"/>
				<stop  offset="0.5119" style="stop-color:#565656"/>
				<stop  offset="0.7074" style="stop-color:#393939"/>
				<stop  offset="0.8766" style="stop-color:#272727"/>
				<stop  offset="1" style="stop-color:#212121"/>
			</linearGradient>
			<path fill="url(#SVGID_11_)" d="M142.652,19.679c-0.02,0.061-0.033,0.121-0.055,0.184
				C142.619,19.801,142.635,19.74,142.652,19.679z"/>
			<path d="M142.652,19.679c-0.02,0.06-0.033,0.12-0.054,0.182C142.619,19.8,142.635,19.739,142.652,19.679L142.652,19.679z
				 M142.598,19.861c-0.001,0.001-0.001,0.001-0.001,0.002C142.597,19.862,142.597,19.862,142.598,19.861L142.598,19.861z"/>
		</g>
		<g opacity="0.4" enable-background="new    ">
			
				<linearGradient id="SVGID_12_" gradientUnits="userSpaceOnUse" x1="-1581.5466" y1="-1608.4382" x2="-1581.4509" y2="-1608.4382" gradientTransform="matrix(0 -1 1 0 1751.5527 -1565.144)">
				<stop  offset="0" style="stop-color:#C2C2C2"/>
				<stop  offset="0.0673" style="stop-color:#B1B1B1"/>
				<stop  offset="0.2964" style="stop-color:#7E7E7E"/>
				<stop  offset="0.5119" style="stop-color:#565656"/>
				<stop  offset="0.7074" style="stop-color:#393939"/>
				<stop  offset="0.8766" style="stop-color:#272727"/>
				<stop  offset="1" style="stop-color:#212121"/>
			</linearGradient>
			<path fill="url(#SVGID_12_)" d="M143.113,16.404c0-0.018,0.002-0.031,0.002-0.051c0-0.016-0.002-0.029-0.002-0.047
				c0,0.018,0,0.031,0,0.047C143.113,16.373,143.113,16.386,143.113,16.404z"/>
			<path d="M143.113,16.306c0,0.018,0,0.031,0,0.047c0,0.02,0,0.033,0,0.051c0-0.018,0.002-0.031,0.002-0.051
				C143.115,16.338,143.113,16.324,143.113,16.306L143.113,16.306z"/>
		</g>
		<g opacity="0.4" enable-background="new    ">
			
				<linearGradient id="SVGID_13_" gradientUnits="userSpaceOnUse" x1="-1587.5779" y1="-1610.239" x2="-1587.5686" y2="-1610.239" gradientTransform="matrix(0 -1 1 0 1751.5527 -1565.144)">
				<stop  offset="0" style="stop-color:#C2C2C2"/>
				<stop  offset="0.0673" style="stop-color:#B1B1B1"/>
				<stop  offset="0.2964" style="stop-color:#7E7E7E"/>
				<stop  offset="0.5119" style="stop-color:#565656"/>
				<stop  offset="0.7074" style="stop-color:#393939"/>
				<stop  offset="0.8766" style="stop-color:#272727"/>
				<stop  offset="1" style="stop-color:#212121"/>
			</linearGradient>
			<path fill="url(#SVGID_13_)" d="M141.318,22.424c-0.002,0.004-0.006,0.008-0.01,0.01
				C141.312,22.431,141.316,22.429,141.318,22.424z"/>
			<path d="M141.318,22.424c-0.002,0.004-0.006,0.008-0.01,0.01C141.312,22.431,141.316,22.429,141.318,22.424L141.318,22.424z"/>
		</g>
		<g opacity="0.4" enable-background="new    ">
			
				<linearGradient id="SVGID_14_" gradientUnits="userSpaceOnUse" x1="-1586.8206" y1="-1609.7195" x2="-1586.7777" y2="-1609.7195" gradientTransform="matrix(0 -1 1 0 1751.5527 -1565.144)">
				<stop  offset="0" style="stop-color:#C2C2C2"/>
				<stop  offset="0.0673" style="stop-color:#B1B1B1"/>
				<stop  offset="0.2964" style="stop-color:#7E7E7E"/>
				<stop  offset="0.5119" style="stop-color:#565656"/>
				<stop  offset="0.7074" style="stop-color:#393939"/>
				<stop  offset="0.8766" style="stop-color:#272727"/>
				<stop  offset="1" style="stop-color:#212121"/>
			</linearGradient>
			<path fill="url(#SVGID_14_)" d="M141.844,21.633c-0.008,0.014-0.018,0.027-0.021,0.043
				C141.828,21.662,141.84,21.644,141.844,21.633z"/>
			<path d="M141.844,21.633c-0.008,0.014-0.018,0.027-0.021,0.043C141.828,21.662,141.84,21.644,141.844,21.633L141.844,21.633z"/>
		</g>
		<g opacity="0.4" enable-background="new    ">
			
				<linearGradient id="SVGID_15_" gradientUnits="userSpaceOnUse" x1="-1585.8992" y1="-1609.114" x2="-1585.0027" y2="-1609.114" gradientTransform="matrix(0 -1 1 0 1751.5527 -1565.144)">
				<stop  offset="0" style="stop-color:#C2C2C2"/>
				<stop  offset="0.0673" style="stop-color:#B1B1B1"/>
				<stop  offset="0.2964" style="stop-color:#7E7E7E"/>
				<stop  offset="0.5119" style="stop-color:#565656"/>
				<stop  offset="0.7074" style="stop-color:#393939"/>
				<stop  offset="0.8766" style="stop-color:#272727"/>
				<stop  offset="1" style="stop-color:#212121"/>
			</linearGradient>
			<path fill="url(#SVGID_15_)" d="M142.599,19.857c-0.096,0.314-0.201,0.613-0.322,0.896
				C142.396,20.47,142.506,20.172,142.599,19.857z"/>
			<path d="M142.599,19.857c-0.048,0.157-0.098,0.311-0.151,0.46C142.502,20.168,142.552,20.014,142.599,19.857L142.599,19.857z
				 M142.448,20.317c-0.054,0.149-0.111,0.295-0.171,0.437C142.338,20.612,142.394,20.467,142.448,20.317L142.448,20.317z"/>
		</g>
		<g opacity="0.4" enable-background="new    ">
			
				<linearGradient id="SVGID_16_" gradientUnits="userSpaceOnUse" x1="-1577.9963" y1="-1609.116" x2="-1577.0999" y2="-1609.116" gradientTransform="matrix(0 -1 1 0 1751.5527 -1565.144)">
				<stop  offset="0" style="stop-color:#C2C2C2"/>
				<stop  offset="0.0673" style="stop-color:#B1B1B1"/>
				<stop  offset="0.2964" style="stop-color:#7E7E7E"/>
				<stop  offset="0.5119" style="stop-color:#565656"/>
				<stop  offset="0.7074" style="stop-color:#393939"/>
				<stop  offset="0.8766" style="stop-color:#272727"/>
				<stop  offset="1" style="stop-color:#212121"/>
			</linearGradient>
			<path fill="url(#SVGID_16_)" d="M142.275,11.955c0.121,0.285,0.229,0.584,0.322,0.896
				C142.506,12.541,142.396,12.242,142.275,11.955z"/>
			<path d="M142.275,11.955c0.045,0.107,0.089,0.217,0.131,0.328C142.364,12.172,142.321,12.062,142.275,11.955L142.275,11.955z
				 M142.406,12.282c0.069,0.185,0.133,0.374,0.191,0.569C142.54,12.657,142.475,12.468,142.406,12.282L142.406,12.282z"/>
		</g>
		<g opacity="0.4" enable-background="new    ">
			
				<linearGradient id="SVGID_17_" gradientUnits="userSpaceOnUse" x1="-1588.698" y1="-1610.8435" x2="-1587.5769" y2="-1610.8435" gradientTransform="matrix(0 -1 1 0 1751.5527 -1565.144)">
				<stop  offset="0" style="stop-color:#C2C2C2"/>
				<stop  offset="0.0673" style="stop-color:#B1B1B1"/>
				<stop  offset="0.2964" style="stop-color:#7E7E7E"/>
				<stop  offset="0.5119" style="stop-color:#565656"/>
				<stop  offset="0.7074" style="stop-color:#393939"/>
				<stop  offset="0.8766" style="stop-color:#272727"/>
				<stop  offset="1" style="stop-color:#212121"/>
			</linearGradient>
			<path fill="url(#SVGID_17_)" d="M140.105,23.554c0.438-0.273,0.842-0.652,1.207-1.121
				C140.947,22.898,140.545,23.281,140.105,23.554z"/>
			<path d="M141.312,22.433c-0.261,0.332-0.541,0.622-0.839,0.86C140.771,23.056,141.052,22.767,141.312,22.433L141.312,22.433z
				 M140.473,23.294c-0.12,0.096-0.243,0.183-0.368,0.261C140.231,23.476,140.353,23.389,140.473,23.294L140.473,23.294z"/>
		</g>
		<g opacity="0.4" enable-background="new    ">
			
				<linearGradient id="SVGID_18_" gradientUnits="userSpaceOnUse" x1="-1577.0344" y1="-1609.5056" x2="-1576.2219" y2="-1609.5056" gradientTransform="matrix(0 -1 1 0 1751.5527 -1565.144)">
				<stop  offset="0" style="stop-color:#C2C2C2"/>
				<stop  offset="0.0673" style="stop-color:#B1B1B1"/>
				<stop  offset="0.2964" style="stop-color:#7E7E7E"/>
				<stop  offset="0.5119" style="stop-color:#565656"/>
				<stop  offset="0.7074" style="stop-color:#393939"/>
				<stop  offset="0.8766" style="stop-color:#272727"/>
				<stop  offset="1" style="stop-color:#212121"/>
			</linearGradient>
			<path fill="url(#SVGID_18_)" d="M141.844,11.078c0.145,0.254,0.281,0.525,0.406,0.813
				C142.125,11.603,141.988,11.334,141.844,11.078z"/>
			<path d="M141.844,11.078c0.145,0.256,0.281,0.525,0.406,0.813C142.125,11.603,141.988,11.332,141.844,11.078L141.844,11.078z"/>
		</g>
		<g opacity="0.4" enable-background="new    ">
			
				<linearGradient id="SVGID_19_" gradientUnits="userSpaceOnUse" x1="-1576.1809" y1="-1609.9832" x2="-1575.4314" y2="-1609.9832" gradientTransform="matrix(0 -1 1 0 1751.5527 -1565.144)">
				<stop  offset="0" style="stop-color:#C2C2C2"/>
				<stop  offset="0.0673" style="stop-color:#B1B1B1"/>
				<stop  offset="0.2964" style="stop-color:#7E7E7E"/>
				<stop  offset="0.5119" style="stop-color:#565656"/>
				<stop  offset="0.7074" style="stop-color:#393939"/>
				<stop  offset="0.8766" style="stop-color:#272727"/>
				<stop  offset="1" style="stop-color:#212121"/>
			</linearGradient>
			<path fill="url(#SVGID_19_)" d="M141.318,10.287c0.178,0.229,0.348,0.478,0.502,0.75
				C141.666,10.767,141.496,10.518,141.318,10.287z"/>
			<path d="M141.318,10.287c0.178,0.23,0.348,0.48,0.502,0.75C141.666,10.765,141.496,10.516,141.318,10.287L141.318,10.287z"/>
		</g>
		<g opacity="0.4" enable-background="new    ">
			
				<linearGradient id="SVGID_20_" gradientUnits="userSpaceOnUse" x1="-1575.4236" y1="-1610.8445" x2="-1574.3025" y2="-1610.8445" gradientTransform="matrix(0 -1 1 0 1751.5527 -1565.144)">
				<stop  offset="0" style="stop-color:#C2C2C2"/>
				<stop  offset="0.0673" style="stop-color:#B1B1B1"/>
				<stop  offset="0.2964" style="stop-color:#7E7E7E"/>
				<stop  offset="0.5119" style="stop-color:#565656"/>
				<stop  offset="0.7074" style="stop-color:#393939"/>
				<stop  offset="0.8766" style="stop-color:#272727"/>
				<stop  offset="1" style="stop-color:#212121"/>
			</linearGradient>
			<path fill="url(#SVGID_20_)" d="M141.312,10.28c-0.363-0.471-0.77-0.85-1.209-1.121C140.545,9.43,140.949,9.811,141.312,10.28z"
				/>
			<path d="M140.103,9.158c0.209,0.129,0.411,0.283,0.604,0.459C140.515,9.442,140.313,9.288,140.103,9.158L140.103,9.158z
				 M140.708,9.618c0.212,0.194,0.414,0.416,0.604,0.662C141.122,10.033,140.92,9.812,140.708,9.618L140.708,9.618z"/>
		</g>
		<g opacity="0.4" enable-background="new    ">
			
				<linearGradient id="SVGID_21_" gradientUnits="userSpaceOnUse" x1="-1586.7771" y1="-1609.5056" x2="-1585.9646" y2="-1609.5056" gradientTransform="matrix(0 -1 1 0 1751.5527 -1565.144)">
				<stop  offset="0" style="stop-color:#C2C2C2"/>
				<stop  offset="0.0673" style="stop-color:#B1B1B1"/>
				<stop  offset="0.2964" style="stop-color:#7E7E7E"/>
				<stop  offset="0.5119" style="stop-color:#565656"/>
				<stop  offset="0.7074" style="stop-color:#393939"/>
				<stop  offset="0.8766" style="stop-color:#272727"/>
				<stop  offset="1" style="stop-color:#212121"/>
			</linearGradient>
			<path fill="url(#SVGID_21_)" d="M142.248,20.82c-0.125,0.285-0.26,0.555-0.402,0.813
				C141.988,21.375,142.125,21.105,142.248,20.82z"/>
			<path d="M142.248,20.82c-0.125,0.285-0.26,0.555-0.402,0.813C141.988,21.375,142.125,21.105,142.248,20.82L142.248,20.82z"/>
		</g>
		<g opacity="0.4" enable-background="new    ">
			
				<linearGradient id="SVGID_22_" gradientUnits="userSpaceOnUse" x1="-1579.054" y1="-1608.7917" x2="-1578.175" y2="-1608.7917" gradientTransform="matrix(0 -1 1 0 1751.5527 -1565.144)">
				<stop  offset="0" style="stop-color:#C2C2C2"/>
				<stop  offset="0.0673" style="stop-color:#B1B1B1"/>
				<stop  offset="0.2964" style="stop-color:#7E7E7E"/>
				<stop  offset="0.5119" style="stop-color:#565656"/>
				<stop  offset="0.7074" style="stop-color:#393939"/>
				<stop  offset="0.8766" style="stop-color:#272727"/>
				<stop  offset="1" style="stop-color:#212121"/>
			</linearGradient>
			<path fill="url(#SVGID_22_)" d="M142.652,13.031c0.082,0.281,0.154,0.574,0.217,0.879
				C142.808,13.607,142.734,13.314,142.652,13.031z"/>
			<path d="M142.652,13.031c0.021,0.076,0.043,0.152,0.063,0.229C142.695,13.183,142.675,13.107,142.652,13.031L142.652,13.031z
				 M142.716,13.26c0.057,0.21,0.107,0.427,0.153,0.65C142.825,13.688,142.773,13.471,142.716,13.26L142.716,13.26z"/>
		</g>
		<g opacity="0.4" enable-background="new    ">
			
				<linearGradient id="SVGID_23_" gradientUnits="userSpaceOnUse" x1="-1582.5632" y1="-1608.4636" x2="-1581.5476" y2="-1608.4636" gradientTransform="matrix(0 -1 1 0 1751.5527 -1565.144)">
				<stop  offset="0" style="stop-color:#C2C2C2"/>
				<stop  offset="0.0673" style="stop-color:#B1B1B1"/>
				<stop  offset="0.2964" style="stop-color:#7E7E7E"/>
				<stop  offset="0.5119" style="stop-color:#565656"/>
				<stop  offset="0.7074" style="stop-color:#393939"/>
				<stop  offset="0.8766" style="stop-color:#272727"/>
				<stop  offset="1" style="stop-color:#212121"/>
			</linearGradient>
			<path fill="url(#SVGID_23_)" d="M143.113,16.404c-0.002,0.346-0.021,0.684-0.049,1.016
				C143.092,17.088,143.111,16.75,143.113,16.404z"/>
			<path d="M143.113,16.404c-0.002,0.346-0.021,0.684-0.049,1.016C143.092,17.088,143.111,16.75,143.113,16.404L143.113,16.404z"/>
		</g>
		<g opacity="0.4" enable-background="new    ">
			
				<linearGradient id="SVGID_24_" gradientUnits="userSpaceOnUse" x1="-1584.823" y1="-1608.7917" x2="-1583.946" y2="-1608.7917" gradientTransform="matrix(0 -1 1 0 1751.5527 -1565.144)">
				<stop  offset="0" style="stop-color:#C2C2C2"/>
				<stop  offset="0.0673" style="stop-color:#B1B1B1"/>
				<stop  offset="0.2964" style="stop-color:#7E7E7E"/>
				<stop  offset="0.5119" style="stop-color:#565656"/>
				<stop  offset="0.7074" style="stop-color:#393939"/>
				<stop  offset="0.8766" style="stop-color:#272727"/>
				<stop  offset="1" style="stop-color:#212121"/>
			</linearGradient>
			<path fill="url(#SVGID_24_)" d="M142.869,18.802c-0.064,0.301-0.135,0.594-0.217,0.877
				C142.734,19.394,142.808,19.101,142.869,18.802z"/>
			<path d="M142.869,18.802c-0.056,0.259-0.115,0.513-0.184,0.759C142.755,19.313,142.817,19.06,142.869,18.802L142.869,18.802z
				 M142.685,19.561c-0.011,0.039-0.021,0.079-0.033,0.118C142.664,19.64,142.675,19.6,142.685,19.561L142.685,19.561z"/>
		</g>
		<g opacity="0.4" enable-background="new    ">
			
				<linearGradient id="SVGID_25_" gradientUnits="userSpaceOnUse" x1="-1587.5681" y1="-1609.9832" x2="-1586.8201" y2="-1609.9832" gradientTransform="matrix(0 -1 1 0 1751.5527 -1565.144)">
				<stop  offset="0" style="stop-color:#C2C2C2"/>
				<stop  offset="0.0673" style="stop-color:#B1B1B1"/>
				<stop  offset="0.2964" style="stop-color:#7E7E7E"/>
				<stop  offset="0.5119" style="stop-color:#565656"/>
				<stop  offset="0.7074" style="stop-color:#393939"/>
				<stop  offset="0.8766" style="stop-color:#272727"/>
				<stop  offset="1" style="stop-color:#212121"/>
			</linearGradient>
			<path fill="url(#SVGID_25_)" d="M141.82,21.676c-0.154,0.271-0.324,0.521-0.502,0.748
				C141.496,22.195,141.666,21.945,141.82,21.676z"/>
			<path d="M141.82,21.676c-0.154,0.27-0.324,0.52-0.502,0.748C141.496,22.197,141.666,21.947,141.82,21.676L141.82,21.676z"/>
		</g>
		<g opacity="0.4" enable-background="new    ">
			
				<linearGradient id="SVGID_26_" gradientUnits="userSpaceOnUse" x1="-1583.8289" y1="-1608.5886" x2="-1582.8367" y2="-1608.5886" gradientTransform="matrix(0 -1 1 0 1751.5527 -1565.144)">
				<stop  offset="0" style="stop-color:#C2C2C2"/>
				<stop  offset="0.0673" style="stop-color:#B1B1B1"/>
				<stop  offset="0.2964" style="stop-color:#7E7E7E"/>
				<stop  offset="0.5119" style="stop-color:#565656"/>
				<stop  offset="0.7074" style="stop-color:#393939"/>
				<stop  offset="0.8766" style="stop-color:#272727"/>
				<stop  offset="1" style="stop-color:#212121"/>
			</linearGradient>
			<path fill="url(#SVGID_26_)" d="M143.037,17.693c-0.035,0.338-0.08,0.672-0.146,0.992
				C142.959,18.365,143.004,18.031,143.037,17.693z"/>
			<path d="M143.037,17.693c-0.035,0.338-0.08,0.672-0.146,0.992C142.959,18.365,143.004,18.031,143.037,17.693L143.037,17.693z"/>
		</g>
		<g opacity="0.4" enable-background="new    ">
			
				<linearGradient id="SVGID_27_" gradientUnits="userSpaceOnUse" x1="-1580.1633" y1="-1608.5847" x2="-1579.1672" y2="-1608.5847" gradientTransform="matrix(0 -1 1 0 1751.5527 -1565.144)">
				<stop  offset="0" style="stop-color:#C2C2C2"/>
				<stop  offset="0.0673" style="stop-color:#B1B1B1"/>
				<stop  offset="0.2964" style="stop-color:#7E7E7E"/>
				<stop  offset="0.5119" style="stop-color:#565656"/>
				<stop  offset="0.7074" style="stop-color:#393939"/>
				<stop  offset="0.8766" style="stop-color:#272727"/>
				<stop  offset="1" style="stop-color:#212121"/>
			</linearGradient>
			<path fill="url(#SVGID_27_)" d="M142.894,14.023c0.063,0.322,0.107,0.656,0.146,0.996
				C143.004,14.681,142.959,14.345,142.894,14.023z"/>
			<path d="M142.894,14.023c0.063,0.322,0.107,0.656,0.146,0.996C143.004,14.681,142.959,14.345,142.894,14.023L142.894,14.023z"/>
		</g>
		<g opacity="0.4" enable-background="new    ">
			
				<linearGradient id="SVGID_28_" gradientUnits="userSpaceOnUse" x1="-1589.2034" y1="-1613.0466" x2="-1589.1959" y2="-1613.0466" gradientTransform="matrix(0 -1 1 0 1751.5527 -1565.144)">
				<stop  offset="0" style="stop-color:#C2C2C2"/>
				<stop  offset="0.0673" style="stop-color:#B1B1B1"/>
				<stop  offset="0.2964" style="stop-color:#7E7E7E"/>
				<stop  offset="0.5119" style="stop-color:#565656"/>
				<stop  offset="0.7074" style="stop-color:#393939"/>
				<stop  offset="0.8766" style="stop-color:#272727"/>
				<stop  offset="1" style="stop-color:#212121"/>
			</linearGradient>
			<path fill="url(#SVGID_28_)" d="M138.459,24.058c0.031,0,0.063-0.008,0.094-0.008l0,0
				C138.521,24.051,138.492,24.058,138.459,24.058z"/>
			<path d="M138.552,24.051c-0.031,0-0.063,0.008-0.094,0.008C138.492,24.058,138.521,24.051,138.552,24.051L138.552,24.051z"/>
		</g>
		<g opacity="0.4" enable-background="new    ">
			
				<linearGradient id="SVGID_29_" gradientUnits="userSpaceOnUse" x1="-1581.4519" y1="-1608.4636" x2="-1580.4368" y2="-1608.4636" gradientTransform="matrix(0 -1 1 0 1751.5527 -1565.144)">
				<stop  offset="0" style="stop-color:#C2C2C2"/>
				<stop  offset="0.0673" style="stop-color:#B1B1B1"/>
				<stop  offset="0.2964" style="stop-color:#7E7E7E"/>
				<stop  offset="0.5119" style="stop-color:#565656"/>
				<stop  offset="0.7074" style="stop-color:#393939"/>
				<stop  offset="0.8766" style="stop-color:#272727"/>
				<stop  offset="1" style="stop-color:#212121"/>
			</linearGradient>
			<path fill="url(#SVGID_29_)" d="M143.064,15.293c0.025,0.332,0.047,0.67,0.049,1.016
				C143.111,15.963,143.092,15.625,143.064,15.293z"/>
			<path d="M143.064,15.293c0.025,0.332,0.047,0.67,0.049,1.016C143.111,15.963,143.092,15.625,143.064,15.293L143.064,15.293z"/>
		</g>
		<g opacity="0.4" enable-background="new    ">
			
				<linearGradient id="SVGID_30_" gradientUnits="userSpaceOnUse" x1="-1589.2034" y1="-1613.1394" x2="-1589.1954" y2="-1613.1394" gradientTransform="matrix(0 -1 1 0 1751.5527 -1565.144)">
				<stop  offset="0" style="stop-color:#C2C2C2"/>
				<stop  offset="0.0673" style="stop-color:#B1B1B1"/>
				<stop  offset="0.2964" style="stop-color:#7E7E7E"/>
				<stop  offset="0.5119" style="stop-color:#565656"/>
				<stop  offset="0.7074" style="stop-color:#393939"/>
				<stop  offset="0.8766" style="stop-color:#272727"/>
				<stop  offset="1" style="stop-color:#212121"/>
			</linearGradient>
			<path fill="url(#SVGID_30_)" d="M138.365,24.051c0.031,0,0.063,0.008,0.096,0.008C138.427,24.058,138.396,24.051,138.365,24.051
				L138.365,24.051z"/>
			<path d="M138.365,24.051c0.031,0,0.063,0.008,0.096,0.008C138.427,24.058,138.396,24.051,138.365,24.051L138.365,24.051z"/>
		</g>
		<g>
			<g>
				<linearGradient id="SVGID_31_" gradientUnits="userSpaceOnUse" x1="2.1189" y1="15.1907" x2="142.6135" y2="15.1907">
					<stop  offset="0" style="stop-color:#C2C2C2"/>
					<stop  offset="0.0673" style="stop-color:#B1B1B1"/>
					<stop  offset="0.2964" style="stop-color:#7E7E7E"/>
					<stop  offset="0.5119" style="stop-color:#565656"/>
					<stop  offset="0.7074" style="stop-color:#393939"/>
					<stop  offset="0.8766" style="stop-color:#272727"/>
					<stop  offset="1" style="stop-color:#212121"/>
				</linearGradient>
				<path fill="url(#SVGID_31_)" d="M138.365,23.551H2.127c0.848-1.257,0.834-3.556,0.819-6.088l-0.004-1.109l0.003-1.04
					c0.014-2.723,0.024-4.927-0.826-6.161h137.258c0.126,0.119,0.419,0.402,0.419,0.402l0.047,0.029
					c0.362,0.224,0.706,0.538,1.022,0.934l0.019,0.055l0.073,0.063c0.155,0.201,0.3,0.419,0.431,0.649
					c0.157,0.28,0.284,0.536,0.402,0.806c0.138,0.327,0.239,0.612,0.33,0.907l0.029,0.097c0.102,0.344,0.17,0.624,0.229,0.916
					l0.024,0.112c0.063,0.306,0.105,0.624,0.139,0.946l0.021,0.263c0.03,0.323,0.049,0.646,0.051,0.976
					c-0.002,0.425-0.022,0.75-0.049,1.069l-0.021,0.27c-0.036,0.313-0.079,0.634-0.14,0.941l-0.023,0.109
					c-0.061,0.288-0.13,0.569-0.208,0.842l-0.053,0.174c-0.09,0.296-0.189,0.577-0.305,0.849c-0.141,0.325-0.265,0.583-0.401,0.822
					l-0.057,0.114c-0.109,0.177-0.265,0.408-0.429,0.619c-0.347,0.44-0.709,0.778-1.084,1.011c-0.426,0.267-0.864,0.409-1.305,0.423
					l-0.078,0.007L138.365,23.551z M139.77,8.153c-0.509-0.469-1.021-0.912-1.536-1.328c1.54,0.653,2.303,1.068,2.682,1.316
					c-0.111,0.007-0.246,0.012-0.412,0.012H139.77z"/>
				<path d="M139.177,9.653c0.076,0.073,0.153,0.147,0.23,0.223l0.078,0.076l0.094,0.058c0.294,0.182,0.577,0.436,0.843,0.757
					l0.038,0.11l0.137,0.112c0.126,0.167,0.243,0.346,0.351,0.534l0.001,0.003l0.012,0.024l0.014,0.023
					c0.119,0.21,0.234,0.44,0.342,0.683c0.014,0.036,0.029,0.072,0.047,0.111c0.1,0.238,0.193,0.5,0.278,0.777l0.021,0.066
					l0.007,0.02l0.024,0.083c0.073,0.251,0.14,0.519,0.188,0.753c0.007,0.043,0.016,0.086,0.031,0.157
					c0.053,0.255,0.095,0.541,0.128,0.861c0.007,0.094,0.015,0.195,0.023,0.298c0.031,0.33,0.047,0.634,0.049,0.972v0.045
					c-0.002,0.269-0.017,0.558-0.049,0.956c-0.005,0.084-0.013,0.166-0.017,0.221c-0.044,0.383-0.086,0.666-0.135,0.917l-0.008,0.04
					l-0.01,0.037l-0.006,0.026c-0.057,0.274-0.124,0.546-0.187,0.766c-0.014,0.043-0.026,0.085-0.038,0.129l-0.023,0.076
					c-0.09,0.293-0.184,0.555-0.288,0.801l-0.016,0.041l-0.004,0.009c-0.121,0.277-0.237,0.513-0.355,0.719l-0.01,0.018
					l-0.046,0.076l-0.005,0.014c-0.116,0.195-0.241,0.381-0.373,0.551l-0.017,0.021c-0.305,0.388-0.623,0.687-0.952,0.89
					c-0.353,0.222-0.698,0.335-1.021,0.346c-0.03,0-0.062,0.001-0.093,0.004l-0.035-0.004h-0.062H2.939
					c0.531-1.436,0.519-3.48,0.507-5.591c-0.002-0.361-0.004-0.73-0.004-1.106c0-0.352,0.002-0.698,0.003-1.037
					c0.012-2.325,0.021-4.285-0.509-5.664H139.177 M129.736,3.155c0,0,2.08,0.688,4.509,1.578
					C131.768,3.39,130.085,3.155,129.736,3.155L129.736,3.155z M134.245,4.732c1.52,0.823,3.338,2.063,5.329,3.92h5.789
					c0,0-4.686,0-4.859,0c-0.003,0-0.005,0-0.005,0s0.002,0,0.005,0C144.281,8.653,138.68,6.357,134.245,4.732L134.245,4.732z
					 M139.574,8.653H0.123c2.568,0,2.318,3.449,2.318,7.701c0,4.203,0.27,7.613-2.256,7.697h138.179
					c0.031,0,0.063,0.008,0.096,0.008c0.031,0,0.063-0.008,0.094-0.008c0.547-0.018,1.066-0.193,1.553-0.498
					c0.438-0.271,0.842-0.654,1.207-1.119c0.002-0.002,0.006-0.006,0.008-0.01c0.178-0.229,0.346-0.479,0.502-0.75
					c0.006-0.016,0.018-0.029,0.023-0.043c0.145-0.254,0.277-0.527,0.402-0.813c0.008-0.02,0.018-0.043,0.025-0.063
					c0.121-0.287,0.227-0.584,0.322-0.896c0.021-0.063,0.035-0.123,0.055-0.182c0.082-0.285,0.154-0.578,0.217-0.879
					c0.01-0.039,0.021-0.076,0.025-0.115c0.063-0.32,0.107-0.654,0.146-0.994c0.008-0.09,0.016-0.18,0.021-0.271
					c0.027-0.332,0.049-0.67,0.051-1.014c0-0.018,0-0.031,0-0.051c0-0.016,0-0.031,0-0.049c-0.002-0.344-0.021-0.682-0.053-1.016
					c-0.008-0.09-0.016-0.184-0.021-0.271c-0.035-0.34-0.08-0.674-0.146-0.996c-0.006-0.037-0.018-0.074-0.023-0.111
					c-0.063-0.307-0.135-0.6-0.217-0.879c-0.02-0.063-0.033-0.121-0.055-0.182c-0.096-0.311-0.203-0.611-0.322-0.895
					c-0.012-0.023-0.021-0.043-0.027-0.064c-0.125-0.287-0.26-0.559-0.404-0.813c-0.008-0.016-0.016-0.027-0.021-0.041
					c-0.154-0.271-0.322-0.521-0.502-0.75c-0.002-0.002-0.006-0.004-0.008-0.01c-0.361-0.467-0.768-0.848-1.207-1.119
					C139.927,8.985,139.75,8.817,139.574,8.653L139.574,8.653z"/>
			</g>
		</g>
	</g>
	<g opacity="0.4" enable-background="new    ">
		<path opacity="0.4" fill="#FFFFFF" enable-background="new    " d="M138.527,24.058c0.029,0,0.063-0.008,0.094-0.008h-0.188
			C138.467,24.051,138.496,24.058,138.527,24.058z"/>
		<path fill="#FFFFFF" d="M138.433,24.051h0.188c0.521-0.016,1.018-0.18,1.484-0.455l0.482-0.377h-4.17L138.433,24.051z"/>
	</g>
	<g>
		<path fill="#231F20" d="M-0.006,9.33H136.5h4.168c-0.639-0.439-1.248-0.688-2.023-0.688C138.642,8.643-0.691,8.891-0.006,9.33z"/>
	</g>
	<path fill="#606060" d="M1.756,12.072h132.835h7.734c-0.42-1.039-0.988-1.896-1.658-2.498h-4.416H-0.006
		C0.705,10.172,1.309,11.033,1.756,12.072z"/>
	<g>
		<path opacity="0.4" fill="#FFFFFF" enable-background="new    " d="M0.86,23.136c-0.152,0.23-0.313,0.447-0.48,0.643h135.705
			c-0.17-0.195-0.33-0.412-0.484-0.643H0.86z"/>
		<path opacity="0.4" fill="#FFFFFF" enable-background="new    " d="M136.086,23.777h4.969c0.17-0.195,0.33-0.41,0.482-0.641
			h-5.938C135.756,23.369,135.916,23.584,136.086,23.777z"/>
	</g>
</g>
<path d="M3.061,23.67v0.762l135.277-0.002c0.041,0.006,0.08,0.008,0.123,0.008l0.113-0.008c0.641-0.02,1.26-0.215,1.842-0.582
	c0.475-0.295,0.92-0.707,1.328-1.229c0.186-0.236,0.361-0.504,0.555-0.836c0.148-0.266,0.287-0.543,0.445-0.91
	c0.125-0.293,0.234-0.604,0.334-0.918l0.057-0.189c0.086-0.293,0.16-0.594,0.229-0.908c0.008-0.045,0.02-0.09,0.021-0.113
	c0.063-0.33,0.109-0.67,0.146-1.02c0.01-0.092,0.018-0.188,0.023-0.279c0.029-0.34,0.049-0.686,0.051-1.09v-0.049
	c-0.002-0.352-0.021-0.699-0.059-1.113l-0.018-0.203c-0.037-0.35-0.082-0.689-0.146-1.014l-0.025-0.125
	c-0.063-0.311-0.139-0.609-0.238-0.953l-0.041-0.133c-0.098-0.322-0.209-0.635-0.361-0.996c-0.131-0.297-0.271-0.578-0.445-0.887
	c-0.152-0.268-0.318-0.517-0.492-0.744l-0.068-0.088c-0.391-0.496-0.824-0.895-1.295-1.188c-0.625-0.391-1.283-0.59-1.955-0.59
	H3.061v0.766h135.4c0.439,0,0.889,0.143,1.334,0.42c0.387,0.24,0.75,0.58,1.063,0.979l0.063,0.08
	c0.158,0.207,0.311,0.431,0.438,0.646l0.033,0.072c0.145,0.242,0.271,0.506,0.385,0.762l0.031,0.08
	c0.117,0.271,0.221,0.563,0.316,0.875l0.049,0.164c0.08,0.275,0.152,0.561,0.211,0.854l0.486-0.059l-0.461,0.172
	c0.061,0.314,0.105,0.639,0.139,0.963l0.023,0.271c0.027,0.324,0.047,0.652,0.049,0.99l0.494-0.002l-0.496,0.096
	c-0.002,0.336-0.021,0.668-0.049,0.996c-0.006,0.09-0.014,0.176-0.021,0.262c-0.037,0.33-0.082,0.658-0.141,0.971l-0.025,0.113
	c-0.061,0.291-0.131,0.574-0.229,0.91l-0.035,0.115c-0.094,0.301-0.193,0.588-0.338,0.93c-0.121,0.271-0.248,0.531-0.408,0.816
	c-0.148,0.256-0.307,0.492-0.482,0.719c-0.342,0.439-0.709,0.779-1.096,1.021c-0.416,0.262-0.838,0.4-1.313,0.422L3.061,23.67
	L3.061,23.67z"/>
<path fill="#D3A540" stroke="#000000" stroke-miterlimit="10" d="M152.273,2.889c0,0-6.898,0.032-7.279,0.084h-3.555v0.02h-11.713
	c5.398,0,9.771,5.779,9.771,11.179c0,5.398-4.375,9.77-9.771,9.77L2.655,23.892c0,0-2.131,3.902,4.432,3.902
	c0.078,0,0.313,0,0.313,0l134.041,0.049v0.002h4.711h6.123c5.592,0,10.123-5.373,10.123-12v-0.957
	C162.396,8.262,157.865,2.889,152.273,2.889z"/>
<linearGradient id="SVGID_32_" gradientUnits="userSpaceOnUse" x1="1033.0037" y1="-1920.4153" x2="1033.0037" y2="-1930.9214" gradientTransform="matrix(-1 0 0 -1 1182.6929 -1913.0669)">
	<stop  offset="0.2849" style="stop-color:#FFFFFF"/>
	<stop  offset="0.5049" style="stop-color:#FFFFFF;stop-opacity:0"/>
</linearGradient>
<path opacity="0.6" fill="url(#SVGID_32_)" enable-background="new    " d="M161.558,13.396c-3.232,5.961-21.5,1.141-21.572-0.389
	c-0.146-3.046-2.299-5.916-2.299-5.916h21.596l0.582,0.682C159.865,7.774,162.277,12.072,161.558,13.396z"/>
<path fill="#D3A540" stroke="#000000" stroke-miterlimit="10" d="M4.385,24.133c0,1.092-0.887,1.984-1.986,1.984l0,0
	c-1.094,0-1.984-0.889-1.984-1.984V3.323c0-1.096,0.889-1.982,1.984-1.982l0,0c1.096,0,1.986,0.885,1.986,1.982V24.133z"/>
<linearGradient id="SVGID_33_" gradientUnits="userSpaceOnUse" x1="1180.4412" y1="-1921.239" x2="1180.4412" y2="-1927.9889" gradientTransform="matrix(-1 0 0 -1 1182.6929 -1913.0669)">
	<stop  offset="0.2849" style="stop-color:#FFFFFF"/>
	<stop  offset="0.5049" style="stop-color:#FFFFFF;stop-opacity:0"/>
</linearGradient>
<rect x="0.959" y="8.006" opacity="0.6" fill="url(#SVGID_33_)" enable-background="new    " width="2.586" height="5.916"/>
<path opacity="0.4" fill="#856829" enable-background="new    " d="M161.672,21.002l0.605-1.904
	c-0.205,0.025-0.402,0.049-0.605,0.072v-0.191h-22.967c-2.287,4.801-7.072,5.154-7.072,5.154H4.385l-0.301-1.004l-2.832-0.334
	l-0.334,1.834l2.834,1.666l6.611,1.551h143.835l6.916-5.088l0.344-1.082h0.213V21.002z"/>
<path fill="none" stroke="#000000" stroke-miterlimit="10" d="M130.24,3.155c0,0,0.418,4.4-1.666,5.588"/>
<rect x="141.582" y="0.005" fill="#58595B" width="2.813" height="2.467"/>
<rect x="149.367" y="0.005" fill="#939598" width="2.814" height="38.799"/>
<rect x="141.082" y="0.005" width="1" height="2.467"/>
<rect x="143.894" y="0.005" width="1" height="2.467"/>
<rect x="148.738" y="0.005" width="1" height="38.799"/>
<rect x="151.519" y="0.005" width="1" height="38.799"/>
</svg>
