<?xml version="1.0" encoding="utf-8"?>
<!-- Generator: Adobe Illustrator 16.0.0, SVG Export Plug-In . SVG Version: 6.00 Build 0)  -->
<!DOCTYPE svg PUBLIC "-//W3C//DTD SVG 1.1//EN" "http://www.w3.org/Graphics/SVG/1.1/DTD/svg11.dtd">
<svg version="1.1" id="Layer_1" xmlns="http://www.w3.org/2000/svg" xmlns:xlink="http://www.w3.org/1999/xlink" x="0px" y="0px"
	 width="34.14px" height="39.36px" viewBox="0 0 34.14 39.36" enable-background="new 0 0 34.14 39.36" xml:space="preserve">
<g>
	<g>
		<g>
			<rect x="4.075" y="34.228" fill="#515151" width="19.858" height="4.633"/>
			<path d="M23.414,34.728v3.633H4.594v-3.633H23.414 M24.452,33.728H3.556v5.633h20.896V33.728L24.452,33.728z"/>
		</g>
		<rect x="4.566" y="34.099" fill="#666666" width="18.894" height="0.287"/>
		<rect x="4.538" y="34.923" fill="#7F7F7F" width="18.924" height="0.289"/>
	</g>
</g>
<g>
	<g>
		<path opacity="0.4" fill="#563F11" enable-background="new    " d="M34.139,5.719h-0.498c-0.197-0.887-0.988-1.551-1.936-1.551
			c-1.025,0-1.859,0.777-1.965,1.771c-0.213-0.006-0.428-0.018-0.643-0.018c-14.187,0-25.529,8.146-25.75,22.275
			C2.535,28.686,0.931,29.706,0,30.552v2.304c2.096,1.824,8.479,2.707,14.097,2.707c3.981,0,7.5-0.371,9.752-1.188l0.268-0.045
			l0.137-0.105c1.369-0.57,2.174-1.334,2.174-2.316c0-0.84-0.596-1.623-1.625-2.303l0.064-0.586l1.25-2.375l0.795,1.063l2.438-0.5
			l0.5,0.5l0.025,0.023c0.221,0.523,0.666,0.928,1.213,1.105l0.199,0.184l1.125-0.063l0.229-0.256
			c0.543-0.293,0.932-0.826,1.021-1.459h0.477V5.719z"/>
		<g>
			<path fill="#D3A540" stroke="#000000" stroke-miterlimit="10" d="M3.254,32.35h21.652c-0.326-0.643-0.525-1.354-0.525-2.123
				c0-2.605,2.111-4.717,4.717-4.717c0.863,0,1.66,0.25,2.357,0.654V4.402c-0.777-0.07-1.564-0.111-2.357-0.111
				c-14.324,0-25.936,11.613-25.936,25.936C3.162,30.941,3.198,31.648,3.254,32.35z"/>
		</g>
		<ellipse fill="#D3A540" stroke="#000000" stroke-miterlimit="10" cx="13.849" cy="33.618" rx="10.186" ry="1.901"/>
		<g>
			<path fill="#D3A540" stroke="#000000" stroke-miterlimit="10" d="M13.664,27.619c6.833,0,12.372,2.082,12.372,4.654
				c0,2.574-5.498,3.654-12.33,3.654c-6.834,0-12.416-1.08-12.416-3.654S6.831,27.617,13.664,27.619z"/>
			<ellipse fill="#D3A540" stroke="#000000" stroke-miterlimit="10" cx="13.662" cy="30.239" rx="10.448" ry="2.124"/>
		</g>
		
			<linearGradient id="SVGID_1_" gradientUnits="userSpaceOnUse" x1="1045.9619" y1="-1933.9316" x2="1045.9619" y2="-1937.6033" gradientTransform="matrix(-1 0 0 -1 1054.2129 -1901.6758)">
			<stop  offset="0.2899" style="stop-color:#FFFFFF;stop-opacity:0.7"/>
			<stop  offset="0.6044" style="stop-color:#FFFFFF;stop-opacity:0"/>
		</linearGradient>
		<polygon opacity="0.6" fill="url(#SVGID_1_)" enable-background="new    " points="9.087,35.383 5.962,34.406 6.776,32.166 
			10.541,33.027 		"/>
		<path fill="#D3A540" d="M23.223,27.072l-1.875-0.688L4.473,27.072c0,0-0.176-1.664-0.688,0.875
			c-0.406,2.016-0.047,2.266-0.047,2.266l19.89,0.018l0.656-2.096L23.223,27.072z"/>
		
			<linearGradient id="SVGID_2_" gradientUnits="userSpaceOnUse" x1="578.8633" y1="374.8965" x2="598.062" y2="408.5193" gradientTransform="matrix(-1 0 0 1 599.457 -361.25)">
			<stop  offset="0.1129" style="stop-color:#FFFFFF;stop-opacity:0.8"/>
			<stop  offset="0.6418" style="stop-color:#FFFFFF;stop-opacity:0.1493"/>
			<stop  offset="0.978" style="stop-color:#FFFFFF;stop-opacity:0"/>
		</linearGradient>
		<path opacity="0.6" fill="url(#SVGID_2_)" enable-background="new    " d="M7.024,30.227c0,0.631,0.023,0.979,0.073,1.596
			l3.367,0.75c0-12.916,7.282-19.438,18.78-20.086v-3.33c-0.686-0.063-1.188-0.098-1.887-0.098
			C14.748,9.059,7.022,17.617,7.024,30.227z"/>
		<polygon fill="#856829" points="10.604,19.678 15.454,24.525 20.303,19.678 18.119,19.676 18.119,14.512 12.788,14.512 
			12.788,19.678 		"/>
		<path fill="#D3A540" stroke="#000000" stroke-miterlimit="10" d="M33.689,25.328c0,1.092-0.887,1.984-1.984,1.984l0,0
			c-1.094,0-1.986-0.889-1.986-1.984V4.518c0-1.096,0.891-1.982,1.986-1.982l0,0c1.094,0,1.984,0.885,1.984,1.982V25.328z"/>
		
			<linearGradient id="SVGID_3_" gradientUnits="userSpaceOnUse" x1="1022.5" y1="-1910.937" x2="1022.5" y2="-1917.6885" gradientTransform="matrix(-1 0 0 -1 1054.2129 -1901.6758)">
			<stop  offset="0.2849" style="stop-color:#FFFFFF"/>
			<stop  offset="0.5049" style="stop-color:#FFFFFF;stop-opacity:0"/>
		</linearGradient>
		<rect x="30.244" y="9.096" opacity="0.6" fill="url(#SVGID_3_)" enable-background="new    " width="2.938" height="5.916"/>
		<path opacity="0.4" fill="#856829" enable-background="new    " d="M33.596,17.012c0.064,2.188-4.063,2.125-4.063,2.125
			c-10.188,5.188-10,12.625-10,12.625l-2.5,0.5c4.375,0.625-0.063,3.563-0.063,3.563l6.75-1.125l1.75-1.375l0.375-1.375
			l-0.375-1.063l-1.094-0.658l0.094-0.842l1.25-2.375l1.188-0.938l2.438-0.5l0.5,0.5l1.439,1.313l1.125-0.063l1.063-1.189
			l0.188-6.313L33.596,17.012z"/>
	</g>
</g>
</svg>
