<?xml version="1.0" encoding="utf-8"?>
<!-- Generator: Adobe Illustrator 16.0.0, SVG Export Plug-In . SVG Version: 6.00 Build 0)  -->
<!DOCTYPE svg PUBLIC "-//W3C//DTD SVG 1.1//EN" "http://www.w3.org/Graphics/SVG/1.1/DTD/svg11.dtd">
<svg version="1.1" id="Layer_1" xmlns="http://www.w3.org/2000/svg" xmlns:xlink="http://www.w3.org/1999/xlink" x="0px" y="0px"
	 width="419.25px" height="41.953px" viewBox="0 0.044 419.25 41.953" enable-background="new 0 0.044 419.25 41.953"
	 xml:space="preserve">
<g>
	<g>
		<path fill="#D3A540" stroke="#000000" stroke-miterlimit="10" d="M0.667,2.104v22.679h176.547v-3.14H17.569
			c-5.396,0-9.769-4.373-9.769-9.771c0-5.396,4.373-9.769,9.769-9.769H0.667L0.667,2.104z"/>
		<g>
			<path fill="none" stroke="#000000" stroke-miterlimit="10" d="M409.678,2.084h-3.742c-0.131,0-0.258,0.014-0.387,0.02h4.516
				C409.936,2.098,409.809,2.084,409.678,2.084z"/>
			<path fill="none" stroke="#000000" stroke-miterlimit="10" d="M397.432,41.834h20.75V10.588c0-0.695-0.092-1.367-0.25-2.015
				c-0.877-3.601-4.039-6.297-7.867-6.47h-4.516H177.213v21.16h220.218V41.834z"/>
			<path fill="#D3A540" stroke="#000000" stroke-miterlimit="10" d="M410.064,2.104h-4.516h-17.451v21.16h9.334v8.07h20.75V10.588
				c0-0.695-0.092-1.367-0.25-2.015C417.055,4.973,413.893,2.276,410.064,2.104z"/>
		</g>
		
			<linearGradient id="SVGID_1_" gradientUnits="userSpaceOnUse" x1="416.8389" y1="754.499" x2="416.8389" y2="802.7547" gradientTransform="matrix(-1 0 0 1 699.0781 -765)">
			<stop  offset="0.2849" style="stop-color:#FFFFFF"/>
			<stop  offset="0.4404" style="stop-color:#FFFFFF;stop-opacity:0"/>
		</linearGradient>
		<rect x="177.213" y="4.499" fill="url(#SVGID_1_)" width="210.052" height="8.183"/>
		<path fill="#D3A540" stroke="#000000" stroke-miterlimit="10" d="M175.383,1.984c0-1.096,0.889-1.984,1.986-1.984l0,0
			c1.096,0,1.986,0.889,1.986,1.984v20.809c0,1.098-0.89,1.986-1.986,1.986l0,0c-1.098,0-1.986-0.891-1.986-1.986V1.984z"/>
		<path fill="#D3A540" stroke="#000000" stroke-miterlimit="10" d="M387.008,1.984c0-1.096,0.889-1.984,1.986-1.984l0,0
			c1.096,0,1.986,0.889,1.986,1.984v20.809c0,1.098-0.889,1.986-1.986,1.986l0,0c-1.098,0-1.986-0.891-1.986-1.986V1.984z"/>
		<path fill="#D3A540" stroke="#000000" stroke-miterlimit="10" d="M417.15,29.403c0.984,0,1.781,0.89,1.781,1.986l0,0
			c0,1.096-0.797,1.986-1.781,1.986h-18.68c-0.984,0-1.783-0.89-1.783-1.986l0,0c0-1.098,0.801-1.986,1.783-1.986H417.15z"/>
		<rect x="397.182" y="37.584" fill="#948F8F" stroke="#000000" stroke-miterlimit="10" width="21.125" height="4.25"/>
		<rect x="397.182" y="33.584" fill="#948F8F" stroke="#000000" stroke-miterlimit="10" width="21.125" height="4.25"/>
		<linearGradient id="SVGID_2_" gradientUnits="userSpaceOnUse" x1="403.8271" y1="-63.6133" x2="403.8272" y2="155.8813">
			<stop  offset="0.2849" style="stop-color:#FFFFFF"/>
			<stop  offset="0.5049" style="stop-color:#FFFFFF;stop-opacity:0"/>
		</linearGradient>
		<path opacity="0.6" fill="url(#SVGID_2_)" d="M410.744,4.668h-3.396l-14.666-0.053h-1.125l0.125,5.906l15.031-0.031
			c4,0,3.635,5.14,3.635,5.14l0,0v26.204h5.75V10.168C416.098,10.168,415.619,4.668,410.744,4.668z"/>
	</g>
	<rect x="397.682" y="34.084" fill="#BFBFBF" width="20.084" height="0.5"/>
	<rect x="397.713" y="36.823" fill="#666666" width="20.084" height="0.5"/>
	<rect x="397.691" y="41.334" fill="#666666" width="20.115" height="0.5"/>
	<rect x="397.682" y="38.251" fill="#BFBFBF" width="20.115" height="0.5"/>
	<linearGradient id="SVGID_3_" gradientUnits="userSpaceOnUse" x1="389.1396" y1="4.834" x2="389.1396" y2="11.5845">
		<stop  offset="0.2849" style="stop-color:#FFFFFF"/>
		<stop  offset="0.5049" style="stop-color:#FFFFFF;stop-opacity:0"/>
	</linearGradient>
	<rect x="387.848" y="4.668" opacity="0.6" fill="url(#SVGID_3_)" width="2.584" height="5.916"/>
	<linearGradient id="SVGID_4_" gradientUnits="userSpaceOnUse" x1="177.6401" y1="4.834" x2="177.6401" y2="11.5845">
		<stop  offset="0.2849" style="stop-color:#FFFFFF"/>
		<stop  offset="0.5049" style="stop-color:#FFFFFF;stop-opacity:0"/>
	</linearGradient>
	<rect x="176.348" y="4.668" opacity="0.6" fill="url(#SVGID_4_)" width="2.584" height="5.916"/>
	<linearGradient id="SVGID_5_" gradientUnits="userSpaceOnUse" x1="4.8052" y1="4.834" x2="4.8052" y2="11.5845">
		<stop  offset="0.2849" style="stop-color:#FFFFFF"/>
		<stop  offset="0.5049" style="stop-color:#FFFFFF;stop-opacity:0"/>
	</linearGradient>
	<rect x="1.61" y="4.668" opacity="0.6" fill="url(#SVGID_5_)" width="6.391" height="5.916"/>
	<polygon fill="#856829" points="404.914,14.828 404.914,19.994 410.246,19.994 410.246,14.829 412.43,14.828 407.58,9.979 
		402.73,14.828 	"/>
</g>
</svg>
