<?xml version="1.0" encoding="utf-8"?>
<!-- Generator: Adobe Illustrator 16.0.0, SVG Export Plug-In . SVG Version: 6.00 Build 0)  -->
<!DOCTYPE svg PUBLIC "-//W3C//DTD SVG 1.1//EN" "http://www.w3.org/Graphics/SVG/1.1/DTD/svg11.dtd">
<svg version="1.1" id="Layer_1" xmlns="http://www.w3.org/2000/svg" xmlns:xlink="http://www.w3.org/1999/xlink" x="0px" y="0px"
	 width="385.625px" height="33.477px" viewBox="0 0 385.625 33.477" enable-background="new 0 0 385.625 33.477"
	 xml:space="preserve">
<g>
	<path fill="#636363" d="M14.188,24.727c3.798,0,7.236,0.479,9.75,1.252v-2.521l361.687-0.059v5.333l-158.796-0.03V29.2
		c0,0.553-0.447,1-1,1h-2.666c-0.553,0-1-0.447-1-1v-0.499L35.938,28.79v0.499c0,0.553-0.447,1-1,1h-2.5c-0.552,0-1-0.447-1-1V28.79
		h-2.516c0.023,0.104,0.051,0.206,0.051,0.312c0,2.416-7.088,4.375-14.785,4.375S1.057,31.518,1.057,29.102
		S6.491,24.727,14.188,24.727z"/>
	<g>
		<g>
			<g>
				
					<linearGradient id="SVGID_1_" gradientUnits="userSpaceOnUse" x1="79.1636" y1="-489.7935" x2="79.436" y2="-489.7935" gradientTransform="matrix(-4.366649e-008 -1 1 -4.366649e-008 871.3574 92.5679)">
					<stop  offset="0" style="stop-color:#C2C2C2"/>
					<stop  offset="0.0673" style="stop-color:#B1B1B1"/>
					<stop  offset="0.2964" style="stop-color:#7E7E7E"/>
					<stop  offset="0.5119" style="stop-color:#565656"/>
					<stop  offset="0.7074" style="stop-color:#393939"/>
					<stop  offset="0.8766" style="stop-color:#272727"/>
					<stop  offset="1" style="stop-color:#212121"/>
				</linearGradient>
				<path opacity="0.4" fill="url(#SVGID_1_)" stroke="#000000" stroke-miterlimit="10" enable-background="new    " d="
					M381.551,13.132c0.012,0.09,0.02,0.181,0.024,0.272C381.568,13.313,381.563,13.222,381.551,13.132z"/>
				
					<linearGradient id="SVGID_2_" gradientUnits="userSpaceOnUse" x1="76.7632" y1="-489.791" x2="77.0356" y2="-489.791" gradientTransform="matrix(-4.366649e-008 -1 1 -4.366649e-008 871.3574 92.5679)">
					<stop  offset="0" style="stop-color:#C2C2C2"/>
					<stop  offset="0.0673" style="stop-color:#B1B1B1"/>
					<stop  offset="0.2964" style="stop-color:#7E7E7E"/>
					<stop  offset="0.5119" style="stop-color:#565656"/>
					<stop  offset="0.7074" style="stop-color:#393939"/>
					<stop  offset="0.8766" style="stop-color:#272727"/>
					<stop  offset="1" style="stop-color:#212121"/>
				</linearGradient>
				<path opacity="0.4" fill="url(#SVGID_2_)" stroke="#000000" stroke-miterlimit="10" enable-background="new    " d="
					M381.578,15.532c-0.008,0.091-0.016,0.182-0.025,0.272C381.563,15.714,381.568,15.623,381.578,15.532z"/>
				
					<linearGradient id="SVGID_3_" gradientUnits="userSpaceOnUse" x1="75.6538" y1="-489.9609" x2="75.77" y2="-489.9609" gradientTransform="matrix(-4.366649e-008 -1 1 -4.366649e-008 871.3574 92.5679)">
					<stop  offset="0" style="stop-color:#C2C2C2"/>
					<stop  offset="0.0673" style="stop-color:#B1B1B1"/>
					<stop  offset="0.2964" style="stop-color:#7E7E7E"/>
					<stop  offset="0.5119" style="stop-color:#565656"/>
					<stop  offset="0.7074" style="stop-color:#393939"/>
					<stop  offset="0.8766" style="stop-color:#272727"/>
					<stop  offset="1" style="stop-color:#212121"/>
				</linearGradient>
				<path opacity="0.4" fill="url(#SVGID_3_)" stroke="#000000" stroke-miterlimit="10" enable-background="new    " d="
					M381.408,16.798c-0.006,0.041-0.018,0.077-0.025,0.116C381.391,16.875,381.402,16.839,381.408,16.798z"/>
				
					<linearGradient id="SVGID_4_" gradientUnits="userSpaceOnUse" x1="80.4312" y1="-489.9614" x2="80.5454" y2="-489.9614" gradientTransform="matrix(-4.366649e-008 -1 1 -4.366649e-008 871.3574 92.5679)">
					<stop  offset="0" style="stop-color:#C2C2C2"/>
					<stop  offset="0.0673" style="stop-color:#B1B1B1"/>
					<stop  offset="0.2964" style="stop-color:#7E7E7E"/>
					<stop  offset="0.5119" style="stop-color:#565656"/>
					<stop  offset="0.7074" style="stop-color:#393939"/>
					<stop  offset="0.8766" style="stop-color:#272727"/>
					<stop  offset="1" style="stop-color:#212121"/>
				</linearGradient>
				<path opacity="0.4" fill="url(#SVGID_4_)" stroke="#000000" stroke-miterlimit="10" enable-background="new    " d="
					M381.382,12.022c0.009,0.037,0.021,0.074,0.026,0.114C381.402,12.097,381.391,12.06,381.382,12.022z"/>
				
					<linearGradient id="SVGID_5_" gradientUnits="userSpaceOnUse" x1="73.6333" y1="-490.5811" x2="73.7007" y2="-490.5811" gradientTransform="matrix(-4.366649e-008 -1 1 -4.366649e-008 871.3574 92.5679)">
					<stop  offset="0" style="stop-color:#C2C2C2"/>
					<stop  offset="0.0673" style="stop-color:#B1B1B1"/>
					<stop  offset="0.2964" style="stop-color:#7E7E7E"/>
					<stop  offset="0.5119" style="stop-color:#565656"/>
					<stop  offset="0.7074" style="stop-color:#393939"/>
					<stop  offset="0.8766" style="stop-color:#272727"/>
					<stop  offset="1" style="stop-color:#212121"/>
				</linearGradient>
				<path opacity="0.4" fill="url(#SVGID_5_)" stroke="#000000" stroke-miterlimit="10" enable-background="new    " d="
					M380.789,18.867c-0.01,0.023-0.02,0.044-0.027,0.067C380.77,18.911,380.779,18.891,380.789,18.867z"/>
				
					<linearGradient id="SVGID_6_" gradientUnits="userSpaceOnUse" x1="81.4253" y1="-490.2168" x2="81.604" y2="-490.2168" gradientTransform="matrix(-4.366649e-008 -1 1 -4.366649e-008 871.3574 92.5679)">
					<stop  offset="0" style="stop-color:#C2C2C2"/>
					<stop  offset="0.0673" style="stop-color:#B1B1B1"/>
					<stop  offset="0.2964" style="stop-color:#7E7E7E"/>
					<stop  offset="0.5119" style="stop-color:#565656"/>
					<stop  offset="0.7074" style="stop-color:#393939"/>
					<stop  offset="0.8766" style="stop-color:#272727"/>
					<stop  offset="1" style="stop-color:#212121"/>
				</linearGradient>
				<path opacity="0.4" fill="url(#SVGID_6_)" stroke="#000000" stroke-miterlimit="10" enable-background="new    " d="
					M381.113,10.964c0.02,0.058,0.035,0.119,0.053,0.179C381.148,11.084,381.133,11.021,381.113,10.964z"/>
				
					<linearGradient id="SVGID_7_" gradientUnits="userSpaceOnUse" x1="84.1694" y1="-491.5273" x2="84.1772" y2="-491.5273" gradientTransform="matrix(-4.366649e-008 -1 1 -4.366649e-008 871.3574 92.5679)">
					<stop  offset="0" style="stop-color:#C2C2C2"/>
					<stop  offset="0.0673" style="stop-color:#B1B1B1"/>
					<stop  offset="0.2964" style="stop-color:#7E7E7E"/>
					<stop  offset="0.5119" style="stop-color:#565656"/>
					<stop  offset="0.7074" style="stop-color:#393939"/>
					<stop  offset="0.8766" style="stop-color:#272727"/>
					<stop  offset="1" style="stop-color:#212121"/>
				</linearGradient>
				<path opacity="0.4" fill="url(#SVGID_7_)" stroke="#000000" stroke-miterlimit="10" enable-background="new    " d="
					M379.826,8.391c0.002,0.001,0.004,0.005,0.006,0.008C379.83,8.396,379.828,8.394,379.826,8.391z"/>
				
					<linearGradient id="SVGID_8_" gradientUnits="userSpaceOnUse" x1="82.5015" y1="-490.5811" x2="82.5649" y2="-490.5811" gradientTransform="matrix(-4.366649e-008 -1 1 -4.366649e-008 871.3574 92.5679)">
					<stop  offset="0" style="stop-color:#C2C2C2"/>
					<stop  offset="0.0673" style="stop-color:#B1B1B1"/>
					<stop  offset="0.2964" style="stop-color:#7E7E7E"/>
					<stop  offset="0.5119" style="stop-color:#565656"/>
					<stop  offset="0.7074" style="stop-color:#393939"/>
					<stop  offset="0.8766" style="stop-color:#272727"/>
					<stop  offset="1" style="stop-color:#212121"/>
				</linearGradient>
				<path opacity="0.4" fill="url(#SVGID_8_)" stroke="#000000" stroke-miterlimit="10" enable-background="new    " d="
					M380.762,10.003c0.01,0.021,0.02,0.042,0.027,0.063C380.779,10.045,380.77,10.024,380.762,10.003z"/>
				
					<linearGradient id="SVGID_9_" gradientUnits="userSpaceOnUse" x1="83.3774" y1="-491.0107" x2="83.4185" y2="-491.0107" gradientTransform="matrix(-4.366649e-008 -1 1 -4.366649e-008 871.3574 92.5679)">
					<stop  offset="0" style="stop-color:#C2C2C2"/>
					<stop  offset="0.0673" style="stop-color:#B1B1B1"/>
					<stop  offset="0.2964" style="stop-color:#7E7E7E"/>
					<stop  offset="0.5119" style="stop-color:#565656"/>
					<stop  offset="0.7074" style="stop-color:#393939"/>
					<stop  offset="0.8766" style="stop-color:#272727"/>
					<stop  offset="1" style="stop-color:#212121"/>
				</linearGradient>
				<path opacity="0.4" fill="url(#SVGID_9_)" stroke="#000000" stroke-miterlimit="10" enable-background="new    " d="
					M380.334,9.149c0.008,0.013,0.015,0.028,0.023,0.041C380.349,9.178,380.342,9.162,380.334,9.149z"/>
				
					<linearGradient id="SVGID_10_" gradientUnits="userSpaceOnUse" x1="74.5952" y1="-490.2168" x2="74.7769" y2="-490.2168" gradientTransform="matrix(-4.366649e-008 -1 1 -4.366649e-008 871.3574 92.5679)">
					<stop  offset="0" style="stop-color:#C2C2C2"/>
					<stop  offset="0.0673" style="stop-color:#B1B1B1"/>
					<stop  offset="0.2964" style="stop-color:#7E7E7E"/>
					<stop  offset="0.5119" style="stop-color:#565656"/>
					<stop  offset="0.7074" style="stop-color:#393939"/>
					<stop  offset="0.8766" style="stop-color:#272727"/>
					<stop  offset="1" style="stop-color:#212121"/>
				</linearGradient>
				<path opacity="0.4" fill="url(#SVGID_10_)" stroke="#000000" stroke-miterlimit="10" enable-background="new    " d="
					M381.166,17.791c-0.018,0.06-0.033,0.121-0.053,0.182C381.133,17.912,381.148,17.851,381.166,17.791z"/>
				
					<linearGradient id="SVGID_11_" gradientUnits="userSpaceOnUse" x1="78.0522" y1="-489.7285" x2="78.1489" y2="-489.7285" gradientTransform="matrix(-4.366649e-008 -1 1 -4.366649e-008 871.3574 92.5679)">
					<stop  offset="0" style="stop-color:#C2C2C2"/>
					<stop  offset="0.0673" style="stop-color:#B1B1B1"/>
					<stop  offset="0.2964" style="stop-color:#7E7E7E"/>
					<stop  offset="0.5119" style="stop-color:#565656"/>
					<stop  offset="0.7074" style="stop-color:#393939"/>
					<stop  offset="0.8766" style="stop-color:#272727"/>
					<stop  offset="1" style="stop-color:#212121"/>
				</linearGradient>
				<path opacity="0.4" fill="url(#SVGID_11_)" stroke="#000000" stroke-miterlimit="10" enable-background="new    " d="
					M381.627,14.516c0-0.017,0.002-0.031,0.002-0.049c0-0.016-0.002-0.031-0.002-0.048c0,0.017,0,0.032,0,0.048
					C381.627,14.484,381.627,14.499,381.627,14.516z"/>
				
					<linearGradient id="SVGID_12_" gradientUnits="userSpaceOnUse" x1="72.022" y1="-491.5288" x2="72.0317" y2="-491.5288" gradientTransform="matrix(-4.366649e-008 -1 1 -4.366649e-008 871.3574 92.5679)">
					<stop  offset="0" style="stop-color:#C2C2C2"/>
					<stop  offset="0.0673" style="stop-color:#B1B1B1"/>
					<stop  offset="0.2964" style="stop-color:#7E7E7E"/>
					<stop  offset="0.5119" style="stop-color:#565656"/>
					<stop  offset="0.7074" style="stop-color:#393939"/>
					<stop  offset="0.8766" style="stop-color:#272727"/>
					<stop  offset="1" style="stop-color:#212121"/>
				</linearGradient>
				<path opacity="0.4" fill="url(#SVGID_12_)" stroke="#000000" stroke-miterlimit="10" enable-background="new    " d="
					M379.832,20.536c-0.002,0.004-0.006,0.008-0.009,0.01C379.826,20.544,379.83,20.541,379.832,20.536z"/>
				
					<linearGradient id="SVGID_13_" gradientUnits="userSpaceOnUse" x1="72.7808" y1="-491.0107" x2="72.8237" y2="-491.0107" gradientTransform="matrix(-4.366649e-008 -1 1 -4.366649e-008 871.3574 92.5679)">
					<stop  offset="0" style="stop-color:#C2C2C2"/>
					<stop  offset="0.0673" style="stop-color:#B1B1B1"/>
					<stop  offset="0.2964" style="stop-color:#7E7E7E"/>
					<stop  offset="0.5119" style="stop-color:#565656"/>
					<stop  offset="0.7074" style="stop-color:#393939"/>
					<stop  offset="0.8766" style="stop-color:#272727"/>
					<stop  offset="1" style="stop-color:#212121"/>
				</linearGradient>
				<path opacity="0.4" fill="url(#SVGID_13_)" stroke="#000000" stroke-miterlimit="10" enable-background="new    " d="
					M380.357,19.744c-0.009,0.014-0.018,0.029-0.023,0.043C380.342,19.773,380.352,19.757,380.357,19.744z"/>
				
					<linearGradient id="SVGID_14_" gradientUnits="userSpaceOnUse" x1="73.7007" y1="-490.4053" x2="74.5952" y2="-490.4053" gradientTransform="matrix(-4.366649e-008 -1 1 -4.366649e-008 871.3574 92.5679)">
					<stop  offset="0" style="stop-color:#C2C2C2"/>
					<stop  offset="0.0673" style="stop-color:#B1B1B1"/>
					<stop  offset="0.2964" style="stop-color:#7E7E7E"/>
					<stop  offset="0.5119" style="stop-color:#565656"/>
					<stop  offset="0.7074" style="stop-color:#393939"/>
					<stop  offset="0.8766" style="stop-color:#272727"/>
					<stop  offset="1" style="stop-color:#212121"/>
				</linearGradient>
				<path opacity="0.4" fill="url(#SVGID_14_)" stroke="#000000" stroke-miterlimit="10" enable-background="new    " d="
					M381.113,17.973c-0.098,0.311-0.203,0.61-0.324,0.895C380.91,18.583,381.018,18.283,381.113,17.973z"/>
				
					<linearGradient id="SVGID_15_" gradientUnits="userSpaceOnUse" x1="81.604" y1="-490.4053" x2="82.5015" y2="-490.4053" gradientTransform="matrix(-4.366649e-008 -1 1 -4.366649e-008 871.3574 92.5679)">
					<stop  offset="0" style="stop-color:#C2C2C2"/>
					<stop  offset="0.0673" style="stop-color:#B1B1B1"/>
					<stop  offset="0.2964" style="stop-color:#7E7E7E"/>
					<stop  offset="0.5119" style="stop-color:#565656"/>
					<stop  offset="0.7074" style="stop-color:#393939"/>
					<stop  offset="0.8766" style="stop-color:#272727"/>
					<stop  offset="1" style="stop-color:#212121"/>
				</linearGradient>
				<path opacity="0.4" fill="url(#SVGID_15_)" stroke="#000000" stroke-miterlimit="10" enable-background="new    " d="
					M380.789,10.066c0.121,0.285,0.229,0.587,0.324,0.897C381.018,10.652,380.91,10.353,380.789,10.066z"/>
				
					<linearGradient id="SVGID_16_" gradientUnits="userSpaceOnUse" x1="70.9023" y1="-492.1338" x2="72.022" y2="-492.1338" gradientTransform="matrix(-4.366649e-008 -1 1 -4.366649e-008 871.3574 92.5679)">
					<stop  offset="0" style="stop-color:#C2C2C2"/>
					<stop  offset="0.0673" style="stop-color:#B1B1B1"/>
					<stop  offset="0.2964" style="stop-color:#7E7E7E"/>
					<stop  offset="0.5119" style="stop-color:#565656"/>
					<stop  offset="0.7074" style="stop-color:#393939"/>
					<stop  offset="0.8766" style="stop-color:#272727"/>
					<stop  offset="1" style="stop-color:#212121"/>
				</linearGradient>
				<path opacity="0.4" fill="url(#SVGID_16_)" stroke="#000000" stroke-miterlimit="10" enable-background="new    " d="
					M378.619,21.666c0.438-0.274,0.842-0.652,1.207-1.12C379.461,21.011,379.057,21.393,378.619,21.666z"/>
				
					<linearGradient id="SVGID_17_" gradientUnits="userSpaceOnUse" x1="82.5649" y1="-490.7969" x2="83.3774" y2="-490.7969" gradientTransform="matrix(-4.366649e-008 -1 1 -4.366649e-008 871.3574 92.5679)">
					<stop  offset="0" style="stop-color:#C2C2C2"/>
					<stop  offset="0.0673" style="stop-color:#B1B1B1"/>
					<stop  offset="0.2964" style="stop-color:#7E7E7E"/>
					<stop  offset="0.5119" style="stop-color:#565656"/>
					<stop  offset="0.7074" style="stop-color:#393939"/>
					<stop  offset="0.8766" style="stop-color:#272727"/>
					<stop  offset="1" style="stop-color:#212121"/>
				</linearGradient>
				<path opacity="0.4" fill="url(#SVGID_17_)" stroke="#000000" stroke-miterlimit="10" enable-background="new    " d="
					M380.357,9.19c0.143,0.255,0.279,0.526,0.404,0.813C380.637,9.717,380.502,9.446,380.357,9.19z"/>
				
					<linearGradient id="SVGID_18_" gradientUnits="userSpaceOnUse" x1="83.4185" y1="-491.2734" x2="84.1694" y2="-491.2734" gradientTransform="matrix(-4.366649e-008 -1 1 -4.366649e-008 871.3574 92.5679)">
					<stop  offset="0" style="stop-color:#C2C2C2"/>
					<stop  offset="0.0673" style="stop-color:#B1B1B1"/>
					<stop  offset="0.2964" style="stop-color:#7E7E7E"/>
					<stop  offset="0.5119" style="stop-color:#565656"/>
					<stop  offset="0.7074" style="stop-color:#393939"/>
					<stop  offset="0.8766" style="stop-color:#272727"/>
					<stop  offset="1" style="stop-color:#212121"/>
				</linearGradient>
				<path opacity="0.4" fill="url(#SVGID_18_)" stroke="#000000" stroke-miterlimit="10" enable-background="new    " d="
					M379.832,8.398c0.178,0.229,0.346,0.48,0.502,0.751C380.178,8.879,380.01,8.629,379.832,8.398z"/>
				
					<linearGradient id="SVGID_19_" gradientUnits="userSpaceOnUse" x1="84.1772" y1="-492.1348" x2="85.2993" y2="-492.1348" gradientTransform="matrix(-4.366649e-008 -1 1 -4.366649e-008 871.3574 92.5679)">
					<stop  offset="0" style="stop-color:#C2C2C2"/>
					<stop  offset="0.0673" style="stop-color:#B1B1B1"/>
					<stop  offset="0.2964" style="stop-color:#7E7E7E"/>
					<stop  offset="0.5119" style="stop-color:#565656"/>
					<stop  offset="0.7074" style="stop-color:#393939"/>
					<stop  offset="0.8766" style="stop-color:#272727"/>
					<stop  offset="1" style="stop-color:#212121"/>
				</linearGradient>
				<path opacity="0.4" fill="url(#SVGID_19_)" stroke="#000000" stroke-miterlimit="10" enable-background="new    " d="
					M379.826,8.391c-0.364-0.469-0.77-0.848-1.209-1.122C379.057,7.542,379.462,7.923,379.826,8.391z"/>
				
					<linearGradient id="SVGID_20_" gradientUnits="userSpaceOnUse" x1="72.8237" y1="-490.7959" x2="73.6333" y2="-490.7959" gradientTransform="matrix(-4.366649e-008 -1 1 -4.366649e-008 871.3574 92.5679)">
					<stop  offset="0" style="stop-color:#C2C2C2"/>
					<stop  offset="0.0673" style="stop-color:#B1B1B1"/>
					<stop  offset="0.2964" style="stop-color:#7E7E7E"/>
					<stop  offset="0.5119" style="stop-color:#565656"/>
					<stop  offset="0.7074" style="stop-color:#393939"/>
					<stop  offset="0.8766" style="stop-color:#272727"/>
					<stop  offset="1" style="stop-color:#212121"/>
				</linearGradient>
				<path opacity="0.4" fill="url(#SVGID_20_)" stroke="#000000" stroke-miterlimit="10" enable-background="new    " d="
					M380.762,18.935c-0.125,0.284-0.26,0.554-0.402,0.81C380.502,19.487,380.637,19.219,380.762,18.935z"/>
				
					<linearGradient id="SVGID_21_" gradientUnits="userSpaceOnUse" x1="80.5454" y1="-490.082" x2="81.4253" y2="-490.082" gradientTransform="matrix(-4.366649e-008 -1 1 -4.366649e-008 871.3574 92.5679)">
					<stop  offset="0" style="stop-color:#C2C2C2"/>
					<stop  offset="0.0673" style="stop-color:#B1B1B1"/>
					<stop  offset="0.2964" style="stop-color:#7E7E7E"/>
					<stop  offset="0.5119" style="stop-color:#565656"/>
					<stop  offset="0.7074" style="stop-color:#393939"/>
					<stop  offset="0.8766" style="stop-color:#272727"/>
					<stop  offset="1" style="stop-color:#212121"/>
				</linearGradient>
				<path opacity="0.4" fill="url(#SVGID_21_)" stroke="#000000" stroke-miterlimit="10" enable-background="new    " d="
					M381.166,11.143c0.082,0.284,0.156,0.577,0.217,0.88C381.322,11.72,381.248,11.427,381.166,11.143z"/>
				
					<linearGradient id="SVGID_22_" gradientUnits="userSpaceOnUse" x1="77.0356" y1="-489.7539" x2="78.0522" y2="-489.7539" gradientTransform="matrix(-4.366649e-008 -1 1 -4.366649e-008 871.3574 92.5679)">
					<stop  offset="0" style="stop-color:#C2C2C2"/>
					<stop  offset="0.0673" style="stop-color:#B1B1B1"/>
					<stop  offset="0.2964" style="stop-color:#7E7E7E"/>
					<stop  offset="0.5119" style="stop-color:#565656"/>
					<stop  offset="0.7074" style="stop-color:#393939"/>
					<stop  offset="0.8766" style="stop-color:#272727"/>
					<stop  offset="1" style="stop-color:#212121"/>
				</linearGradient>
				<path opacity="0.4" fill="url(#SVGID_22_)" stroke="#000000" stroke-miterlimit="10" enable-background="new    " d="
					M381.627,14.516c-0.002,0.346-0.021,0.684-0.049,1.017C381.605,15.198,381.625,14.861,381.627,14.516z"/>
				
					<linearGradient id="SVGID_23_" gradientUnits="userSpaceOnUse" x1="74.7769" y1="-490.083" x2="75.6538" y2="-490.083" gradientTransform="matrix(-4.366649e-008 -1 1 -4.366649e-008 871.3574 92.5679)">
					<stop  offset="0" style="stop-color:#C2C2C2"/>
					<stop  offset="0.0673" style="stop-color:#B1B1B1"/>
					<stop  offset="0.2964" style="stop-color:#7E7E7E"/>
					<stop  offset="0.5119" style="stop-color:#565656"/>
					<stop  offset="0.7074" style="stop-color:#393939"/>
					<stop  offset="0.8766" style="stop-color:#272727"/>
					<stop  offset="1" style="stop-color:#212121"/>
				</linearGradient>
				<path opacity="0.4" fill="url(#SVGID_23_)" stroke="#000000" stroke-miterlimit="10" enable-background="new    " d="
					M381.382,16.914c-0.062,0.302-0.134,0.594-0.217,0.877C381.248,17.508,381.322,17.215,381.382,16.914z"/>
				
					<linearGradient id="SVGID_24_" gradientUnits="userSpaceOnUse" x1="72.0317" y1="-491.2734" x2="72.7808" y2="-491.2734" gradientTransform="matrix(-4.366649e-008 -1 1 -4.366649e-008 871.3574 92.5679)">
					<stop  offset="0" style="stop-color:#C2C2C2"/>
					<stop  offset="0.0673" style="stop-color:#B1B1B1"/>
					<stop  offset="0.2964" style="stop-color:#7E7E7E"/>
					<stop  offset="0.5119" style="stop-color:#565656"/>
					<stop  offset="0.7074" style="stop-color:#393939"/>
					<stop  offset="0.8766" style="stop-color:#272727"/>
					<stop  offset="1" style="stop-color:#212121"/>
				</linearGradient>
				<path opacity="0.4" fill="url(#SVGID_24_)" stroke="#000000" stroke-miterlimit="10" enable-background="new    " d="
					M380.334,19.787c-0.156,0.27-0.324,0.52-0.502,0.749C380.01,20.307,380.178,20.057,380.334,19.787z"/>
				
					<linearGradient id="SVGID_25_" gradientUnits="userSpaceOnUse" x1="75.77" y1="-489.8779" x2="76.7632" y2="-489.8779" gradientTransform="matrix(-4.366649e-008 -1 1 -4.366649e-008 871.3574 92.5679)">
					<stop  offset="0" style="stop-color:#C2C2C2"/>
					<stop  offset="0.0673" style="stop-color:#B1B1B1"/>
					<stop  offset="0.2964" style="stop-color:#7E7E7E"/>
					<stop  offset="0.5119" style="stop-color:#565656"/>
					<stop  offset="0.7074" style="stop-color:#393939"/>
					<stop  offset="0.8766" style="stop-color:#272727"/>
					<stop  offset="1" style="stop-color:#212121"/>
				</linearGradient>
				<path opacity="0.4" fill="url(#SVGID_25_)" stroke="#000000" stroke-miterlimit="10" enable-background="new    " d="
					M381.551,15.805c-0.035,0.337-0.08,0.672-0.145,0.993C381.471,16.477,381.516,16.143,381.551,15.805z"/>
				
					<linearGradient id="SVGID_26_" gradientUnits="userSpaceOnUse" x1="79.436" y1="-489.876" x2="80.4312" y2="-489.876" gradientTransform="matrix(-4.366649e-008 -1 1 -4.366649e-008 871.3574 92.5679)">
					<stop  offset="0" style="stop-color:#C2C2C2"/>
					<stop  offset="0.0673" style="stop-color:#B1B1B1"/>
					<stop  offset="0.2964" style="stop-color:#7E7E7E"/>
					<stop  offset="0.5119" style="stop-color:#565656"/>
					<stop  offset="0.7074" style="stop-color:#393939"/>
					<stop  offset="0.8766" style="stop-color:#272727"/>
					<stop  offset="1" style="stop-color:#212121"/>
				</linearGradient>
				<path opacity="0.4" fill="url(#SVGID_26_)" stroke="#000000" stroke-miterlimit="10" enable-background="new    " d="
					M381.408,12.137c0.063,0.321,0.107,0.656,0.145,0.995C381.516,12.793,381.471,12.458,381.408,12.137z"/>
				
					<linearGradient id="SVGID_27_" gradientUnits="userSpaceOnUse" x1="70.3975" y1="-494.3369" x2="70.4053" y2="-494.3369" gradientTransform="matrix(-4.366649e-008 -1 1 -4.366649e-008 871.3574 92.5679)">
					<stop  offset="0" style="stop-color:#C2C2C2"/>
					<stop  offset="0.0673" style="stop-color:#B1B1B1"/>
					<stop  offset="0.2964" style="stop-color:#7E7E7E"/>
					<stop  offset="0.5119" style="stop-color:#565656"/>
					<stop  offset="0.7074" style="stop-color:#393939"/>
					<stop  offset="0.8766" style="stop-color:#272727"/>
					<stop  offset="1" style="stop-color:#212121"/>
				</linearGradient>
				<path opacity="0.4" fill="url(#SVGID_27_)" stroke="#000000" stroke-miterlimit="10" enable-background="new    " d="
					M376.973,22.171c0.032,0,0.063-0.008,0.094-0.008l0,0C377.035,22.163,377.005,22.171,376.973,22.171z"/>
				
					<linearGradient id="SVGID_28_" gradientUnits="userSpaceOnUse" x1="78.1479" y1="-489.7539" x2="79.1636" y2="-489.7539" gradientTransform="matrix(-4.366649e-008 -1 1 -4.366649e-008 871.3574 92.5679)">
					<stop  offset="0" style="stop-color:#C2C2C2"/>
					<stop  offset="0.0673" style="stop-color:#B1B1B1"/>
					<stop  offset="0.2964" style="stop-color:#7E7E7E"/>
					<stop  offset="0.5119" style="stop-color:#565656"/>
					<stop  offset="0.7074" style="stop-color:#393939"/>
					<stop  offset="0.8766" style="stop-color:#272727"/>
					<stop  offset="1" style="stop-color:#212121"/>
				</linearGradient>
				<path opacity="0.4" fill="url(#SVGID_28_)" stroke="#000000" stroke-miterlimit="10" enable-background="new    " d="
					M381.578,13.404c0.027,0.333,0.047,0.671,0.049,1.016C381.625,14.075,381.605,13.737,381.578,13.404z"/>
				
					<linearGradient id="SVGID_29_" gradientUnits="userSpaceOnUse" x1="70.3975" y1="-494.4307" x2="70.4053" y2="-494.4307" gradientTransform="matrix(-4.366649e-008 -1 1 -4.366649e-008 871.3574 92.5679)">
					<stop  offset="0" style="stop-color:#C2C2C2"/>
					<stop  offset="0.0673" style="stop-color:#B1B1B1"/>
					<stop  offset="0.2964" style="stop-color:#7E7E7E"/>
					<stop  offset="0.5119" style="stop-color:#565656"/>
					<stop  offset="0.7074" style="stop-color:#393939"/>
					<stop  offset="0.8766" style="stop-color:#272727"/>
					<stop  offset="1" style="stop-color:#212121"/>
				</linearGradient>
				<path opacity="0.4" fill="url(#SVGID_29_)" stroke="#000000" stroke-miterlimit="10" enable-background="new    " d="
					M376.879,22.163c0.031,0,0.062,0.008,0.094,0.008C376.94,22.171,376.91,22.163,376.879,22.163L376.879,22.163z"/>
				<g>
					
						<linearGradient id="SVGID_30_" gradientUnits="userSpaceOnUse" x1="70.3975" y1="-569.3677" x2="85.8022" y2="-569.3677" gradientTransform="matrix(-4.366649e-008 -1 1 -4.366649e-008 871.3574 92.5679)">
						<stop  offset="0" style="stop-color:#C2C2C2"/>
						<stop  offset="0.0673" style="stop-color:#B1B1B1"/>
						<stop  offset="0.2964" style="stop-color:#7E7E7E"/>
						<stop  offset="0.5119" style="stop-color:#565656"/>
						<stop  offset="0.7074" style="stop-color:#393939"/>
						<stop  offset="0.8766" style="stop-color:#272727"/>
						<stop  offset="1" style="stop-color:#212121"/>
					</linearGradient>
					<path fill="url(#SVGID_30_)" d="M224.669,14.467c0,4.202,0.271,7.613-2.256,7.696h154.466c0.031,0,0.062,0.008,0.094,0.008
						s0.063-0.008,0.094-0.008c0.547-0.018,1.067-0.193,1.553-0.497c0.438-0.273,0.842-0.654,1.207-1.12
						c0.002-0.002,0.006-0.005,0.007-0.009c0.179-0.229,0.347-0.48,0.503-0.75c0.007-0.014,0.018-0.029,0.023-0.043
						c0.145-0.254,0.277-0.524,0.402-0.81c0.01-0.021,0.02-0.044,0.027-0.066c0.121-0.285,0.227-0.585,0.324-0.895
						c0.02-0.062,0.035-0.122,0.053-0.181c0.082-0.284,0.156-0.577,0.217-0.878c0.01-0.039,0.021-0.076,0.025-0.116
						c0.063-0.321,0.107-0.655,0.145-0.994c0.01-0.091,0.018-0.182,0.023-0.272c0.027-0.332,0.049-0.671,0.051-1.015
						c0-0.017,0-0.032,0-0.05c0-0.016,0-0.032,0-0.048c-0.002-0.345-0.021-0.683-0.051-1.016c-0.008-0.091-0.016-0.183-0.023-0.271
						c-0.035-0.34-0.08-0.673-0.145-0.995c-0.006-0.039-0.018-0.076-0.025-0.114c-0.061-0.304-0.135-0.597-0.217-0.879
						c-0.018-0.061-0.033-0.121-0.053-0.179c-0.096-0.312-0.203-0.613-0.324-0.897c-0.01-0.022-0.02-0.042-0.027-0.063
						c-0.125-0.287-0.26-0.559-0.404-0.813c-0.009-0.015-0.016-0.028-0.021-0.042c-0.156-0.27-0.324-0.521-0.503-0.75
						c-0.001-0.002-0.005-0.005-0.007-0.009c-0.361-0.467-0.768-0.847-1.207-1.121c-0.514-0.32-1.065-0.505-1.646-0.505H222.351
						C224.919,6.765,224.669,10.214,224.669,14.467z"/>
				</g>
			</g>
			<g opacity="0.4" enable-background="new    ">
				<path opacity="0.4" fill="#FFFFFF" enable-background="new    " d="M377.041,22.171c0.031,0,0.063-0.008,0.094-0.008h-0.188
					C376.979,22.163,377.01,22.171,377.041,22.171z"/>
				<path fill="#FFFFFF" d="M376.946,22.163h0.188c0.521-0.017,1.018-0.178,1.483-0.455l0.485-0.377h-4.171L376.946,22.163z"/>
			</g>
			<g>
				<path fill="#231F20" d="M222.222,7.443h152.792h4.168c-0.639-0.44-1.248-0.689-2.024-0.689
					C377.157,6.754,221.537,7.003,222.222,7.443z"/>
			</g>
			<path fill="#606060" d="M223.983,10.184h149.12h7.736c-0.42-1.04-0.99-1.899-1.66-2.498h-4.416H222.222
				C222.933,8.284,223.537,9.144,223.983,10.184z"/>
			<g>
				<path opacity="0.4" fill="#FFFFFF" enable-background="new    " d="M223.089,20.248c-0.153,0.229-0.313,0.446-0.482,0.641
					h151.991c-0.17-0.193-0.33-0.41-0.484-0.641H223.089z"/>
				<path opacity="0.4" fill="#FFFFFF" enable-background="new    " d="M374.598,20.889h4.97c0.169-0.193,0.329-0.41,0.483-0.641
					h-5.938C374.268,20.48,374.428,20.695,374.598,20.889z"/>
			</g>
		</g>
		<path d="M225.288,21.781l151.706,0.008c0.475-0.021,0.898-0.159,1.313-0.421c0.387-0.242,0.755-0.583,1.097-1.02
			c0.175-0.226,0.334-0.463,0.482-0.718c0.16-0.285,0.287-0.545,0.408-0.818c0.145-0.34,0.244-0.629,0.338-0.929l0.035-0.116
			c0.098-0.336,0.168-0.62,0.229-0.911l0.025-0.114c0.059-0.313,0.104-0.639,0.141-0.969c0.008-0.087,0.016-0.173,0.021-0.26
			c0.027-0.33,0.047-0.662,0.049-0.998l0.494-0.096l-0.494,0.002c-0.002-0.338-0.021-0.666-0.049-0.992l-0.023-0.272
			c-0.033-0.324-0.078-0.648-0.139-0.962l0.461-0.172l-0.486,0.058c-0.059-0.293-0.131-0.578-0.211-0.854l-0.049-0.165
			c-0.096-0.31-0.199-0.601-0.315-0.874l-0.034-0.08c-0.113-0.256-0.24-0.518-0.382-0.762l-0.036-0.072
			c-0.127-0.216-0.278-0.442-0.436-0.646l-0.063-0.081c-0.313-0.4-0.677-0.739-1.063-0.98c-0.445-0.277-0.895-0.419-1.336-0.419
			H225.288V6.385h151.685c0.672,0,1.33,0.199,1.956,0.589c0.471,0.293,0.904,0.693,1.294,1.189l0.068,0.087
			c0.174,0.226,0.34,0.477,0.494,0.745c0.174,0.308,0.313,0.589,0.443,0.887c0.154,0.361,0.266,0.673,0.363,0.995l0.041,0.133
			c0.1,0.343,0.176,0.643,0.239,0.954l0.026,0.124c0.063,0.323,0.109,0.665,0.146,1.013l0.017,0.204
			c0.036,0.415,0.056,0.761,0.058,1.114v0.049c-0.002,0.403-0.021,0.749-0.05,1.088c-0.007,0.091-0.015,0.186-0.024,0.28
			c-0.038,0.348-0.086,0.689-0.148,1.019c-0.002,0.024-0.014,0.07-0.022,0.114c-0.067,0.315-0.142,0.616-0.228,0.908l-0.056,0.192
			c-0.099,0.314-0.208,0.625-0.333,0.918c-0.159,0.366-0.298,0.646-0.447,0.91c-0.191,0.332-0.369,0.597-0.554,0.836
			c-0.409,0.522-0.853,0.932-1.328,1.229c-0.583,0.366-1.202,0.562-1.842,0.582l-0.114,0.008c-0.042,0-0.082-0.003-0.123-0.008
			l-151.562,0.002V21.781z"/>
	</g>
	<path fill="#D3A540" stroke="#000000" stroke-miterlimit="10" d="M385.143,2.513H368.24c5.396,0,9.77,4.373,9.77,9.771
		s-4.373,9.771-9.77,9.771l-143.358-0.051v3.141l160.261,0.051V2.515V2.513z"/>
	<g>
		<path fill="none" stroke="#000000" stroke-miterlimit="10" d="M12.306,2.553h4.516c-0.129-0.006-0.256-0.02-0.387-0.02h-3.742
			C12.562,2.533,12.435,2.547,12.306,2.553z"/>
		<path fill="none" stroke="#000000" stroke-miterlimit="10" d="M24.938,23.713l199.943-0.089V2.464L16.821,2.553h-4.516
			c-3.828,0.174-6.99,2.869-7.867,6.471c-0.158,0.646-0.25,1.318-0.25,2.014v18.496h20.75V23.713z"/>
		<path fill="#D3A540" stroke="#000000" stroke-miterlimit="10" d="M4.439,9.023c-0.157,0.646-0.25,1.318-0.25,2.014V28.7h20.75
			v-4.987h9.334V2.553h-17.45h-4.517C8.478,2.727,5.315,5.422,4.439,9.023z"/>
		<ellipse fill="#D3A540" stroke="#000000" stroke-miterlimit="10" cx="14.564" cy="29.534" rx="10.183" ry="1.901"/>
		<g>
			<path fill="#D3A540" stroke="#000000" stroke-miterlimit="10" d="M2.505,28.189c0,2.575,5.441,3.656,12.101,3.656
				s12.017-1.081,12.017-3.656c0-2.574-5.398-4.656-12.059-4.656C7.905,23.533,2.505,25.615,2.505,28.189z"/>
			<ellipse fill="#D3A540" stroke="#000000" stroke-miterlimit="10" cx="14.564" cy="26.154" rx="10.183" ry="2.124"/>
			<polygon fill="#D3A540" points="24.438,23.241 24.438,25.991 23.688,26.533 6.772,26.241 5.282,26.377 4.688,26.064 4.73,21.7 
							"/>
		</g>
	</g>
	
		<linearGradient id="SVGID_31_" gradientUnits="userSpaceOnUse" x1="633.1641" y1="-995.8511" x2="633.1641" y2="-1044.6221" gradientTransform="matrix(1 0 0 -1 -503.1719 -1006.1523)">
		<stop  offset="0.2849" style="stop-color:#FFFFFF"/>
		<stop  offset="0.4404" style="stop-color:#FFFFFF;stop-opacity:0"/>
	</linearGradient>
	<polygon fill="url(#SVGID_31_)" points="224.882,13.042 35.104,13.131 35.104,4.949 224.882,4.86 	"/>
	<path fill="#D3A540" stroke="#000000" stroke-miterlimit="10" d="M226.712,23.153c0,1.096-0.889,1.986-1.986,1.986l0,0
		c-1.096,0-1.986-0.889-1.986-1.986V2.345c0-1.096,0.891-1.984,1.986-1.984l0,0c1.097,0,1.986,0.889,1.986,1.984V23.153z"/>
	<path fill="#D3A540" stroke="#000000" stroke-miterlimit="10" d="M35.362,23.242c0,1.096-0.888,1.986-1.986,1.986l0,0
		c-1.096,0-1.985-0.889-1.985-1.986V2.434c0-1.096,0.89-1.984,1.985-1.984l0,0c1.098,0,1.986,0.889,1.986,1.984V23.242z"/>
	
		<linearGradient id="SVGID_32_" gradientUnits="userSpaceOnUse" x1="822.8945" y1="-196.7686" x2="822.8946" y2="-355.8478" gradientTransform="matrix(-1 0 0 -1 841.4375 -241.1523)">
		<stop  offset="0.2849" style="stop-color:#FFFFFF"/>
		<stop  offset="0.5049" style="stop-color:#FFFFFF;stop-opacity:0"/>
	</linearGradient>
	<path opacity="0.6" fill="url(#SVGID_32_)" enable-background="new    " d="M6.272,10.617v20.507l5.75,0.916V16.08l0,0
		c0,0-0.365-5.141,3.635-5.141l15.031,0.031l0.125-5.906h-1.125L15.022,5.117h-3.396C6.751,5.117,6.272,10.617,6.272,10.617z"/>
	
		<linearGradient id="SVGID_33_" gradientUnits="userSpaceOnUse" x1="808.208" y1="-246.4351" x2="808.208" y2="-253.1856" gradientTransform="matrix(-1 0 0 -1 841.4375 -241.1523)">
		<stop  offset="0.2849" style="stop-color:#FFFFFF"/>
		<stop  offset="0.5049" style="stop-color:#FFFFFF;stop-opacity:0"/>
	</linearGradient>
	<rect x="31.938" y="5.117" opacity="0.6" fill="url(#SVGID_33_)" enable-background="new    " width="2.584" height="5.916"/>
	
		<linearGradient id="SVGID_34_" gradientUnits="userSpaceOnUse" x1="616.9834" y1="-246.3462" x2="616.9834" y2="-253.0967" gradientTransform="matrix(-1 0 0 -1 841.4375 -241.1523)">
		<stop  offset="0.2849" style="stop-color:#FFFFFF"/>
		<stop  offset="0.5049" style="stop-color:#FFFFFF;stop-opacity:0"/>
	</linearGradient>
	<rect x="223.162" y="5.028" opacity="0.6" fill="url(#SVGID_34_)" enable-background="new    " width="2.584" height="5.916"/>
	
		<linearGradient id="SVGID_35_" gradientUnits="userSpaceOnUse" x1="460.4336" y1="-246.3965" x2="460.4336" y2="-253.1475" gradientTransform="matrix(-1 0 0 -1 841.4375 -241.1523)">
		<stop  offset="0.2849" style="stop-color:#FFFFFF"/>
		<stop  offset="0.5049" style="stop-color:#FFFFFF;stop-opacity:0"/>
	</linearGradient>
	<rect x="377.809" y="5.079" opacity="0.6" fill="url(#SVGID_35_)" enable-background="new    " width="6.391" height="5.916"/>
	<polygon fill="#856829" points="9.94,15.596 14.791,20.443 19.641,15.596 17.457,15.594 17.457,10.43 12.125,10.43 12.125,15.596 	
		"/>
</g>
</svg>
