<?xml version="1.0" encoding="utf-8"?>
<!-- Generator: Adobe Illustrator 16.0.0, SVG Export Plug-In . SVG Version: 6.00 Build 0)  -->
<!DOCTYPE svg PUBLIC "-//W3C//DTD SVG 1.1//EN" "http://www.w3.org/Graphics/SVG/1.1/DTD/svg11.dtd">
<svg version="1.1" id="Layer_1" xmlns="http://www.w3.org/2000/svg" xmlns:xlink="http://www.w3.org/1999/xlink" x="0px" y="0px"
	 width="385.625px" height="33.477px" viewBox="0 0 385.625 33.477" enable-background="new 0 0 385.625 33.477"
	 xml:space="preserve">
<g>
	<path fill="#636363" d="M371.437,24.727c-3.798,0-7.236,0.479-9.75,1.252v-2.521L0,23.398v5.333l158.796-0.03V29.2
		c0,0.553,0.447,1,1,1h2.666c0.553,0,1-0.447,1-1v-0.499l186.225,0.089v0.499c0,0.553,0.447,1,1,1h2.5c0.552,0,1-0.447,1-1V28.79
		h2.516c-0.023,0.104-0.051,0.206-0.051,0.312c0,2.416,7.088,4.375,14.785,4.375s13.132-1.959,13.132-4.375
		S379.134,24.727,371.437,24.727z"/>
	<g>
		<g>
			<g>
				
					<linearGradient id="SVGID_1_" gradientUnits="userSpaceOnUse" x1="79.1636" y1="-488.7373" x2="79.436" y2="-488.7373" gradientTransform="matrix(4.371139e-008 -1 -1 -4.371139e-008 -484.6758 92.5679)">
					<stop  offset="0" style="stop-color:#C2C2C2"/>
					<stop  offset="0.0673" style="stop-color:#B1B1B1"/>
					<stop  offset="0.2964" style="stop-color:#7E7E7E"/>
					<stop  offset="0.5119" style="stop-color:#565656"/>
					<stop  offset="0.7074" style="stop-color:#393939"/>
					<stop  offset="0.8766" style="stop-color:#272727"/>
					<stop  offset="1" style="stop-color:#212121"/>
				</linearGradient>
				<path opacity="0.4" fill="url(#SVGID_1_)" stroke="#000000" stroke-miterlimit="10" enable-background="new    " d="
					M4.05,13.404c0.005-0.092,0.013-0.183,0.024-0.272C4.063,13.222,4.057,13.313,4.05,13.404z"/>
				
					<linearGradient id="SVGID_2_" gradientUnits="userSpaceOnUse" x1="76.7632" y1="-488.7349" x2="77.0356" y2="-488.7349" gradientTransform="matrix(4.371139e-008 -1 -1 -4.371139e-008 -484.6758 92.5679)">
					<stop  offset="0" style="stop-color:#C2C2C2"/>
					<stop  offset="0.0673" style="stop-color:#B1B1B1"/>
					<stop  offset="0.2964" style="stop-color:#7E7E7E"/>
					<stop  offset="0.5119" style="stop-color:#565656"/>
					<stop  offset="0.7074" style="stop-color:#393939"/>
					<stop  offset="0.8766" style="stop-color:#272727"/>
					<stop  offset="1" style="stop-color:#212121"/>
				</linearGradient>
				<path opacity="0.4" fill="url(#SVGID_2_)" stroke="#000000" stroke-miterlimit="10" enable-background="new    " d="
					M4.072,15.805c-0.01-0.091-0.018-0.182-0.025-0.272C4.057,15.623,4.063,15.714,4.072,15.805z"/>
				
					<linearGradient id="SVGID_3_" gradientUnits="userSpaceOnUse" x1="75.6538" y1="-488.9048" x2="75.77" y2="-488.9048" gradientTransform="matrix(4.371139e-008 -1 -1 -4.371139e-008 -484.6758 92.5679)">
					<stop  offset="0" style="stop-color:#C2C2C2"/>
					<stop  offset="0.0673" style="stop-color:#B1B1B1"/>
					<stop  offset="0.2964" style="stop-color:#7E7E7E"/>
					<stop  offset="0.5119" style="stop-color:#565656"/>
					<stop  offset="0.7074" style="stop-color:#393939"/>
					<stop  offset="0.8766" style="stop-color:#272727"/>
					<stop  offset="1" style="stop-color:#212121"/>
				</linearGradient>
				<path opacity="0.4" fill="url(#SVGID_3_)" stroke="#000000" stroke-miterlimit="10" enable-background="new    " d="
					M4.242,16.914c-0.008-0.039-0.02-0.075-0.025-0.116C4.223,16.839,4.234,16.875,4.242,16.914z"/>
				
					<linearGradient id="SVGID_4_" gradientUnits="userSpaceOnUse" x1="80.4312" y1="-488.9053" x2="80.5454" y2="-488.9053" gradientTransform="matrix(4.371139e-008 -1 -1 -4.371139e-008 -484.6758 92.5679)">
					<stop  offset="0" style="stop-color:#C2C2C2"/>
					<stop  offset="0.0673" style="stop-color:#B1B1B1"/>
					<stop  offset="0.2964" style="stop-color:#7E7E7E"/>
					<stop  offset="0.5119" style="stop-color:#565656"/>
					<stop  offset="0.7074" style="stop-color:#393939"/>
					<stop  offset="0.8766" style="stop-color:#272727"/>
					<stop  offset="1" style="stop-color:#212121"/>
				</linearGradient>
				<path opacity="0.4" fill="url(#SVGID_4_)" stroke="#000000" stroke-miterlimit="10" enable-background="new    " d="
					M4.217,12.137c0.006-0.04,0.018-0.077,0.026-0.114C4.234,12.06,4.223,12.097,4.217,12.137z"/>
				
					<linearGradient id="SVGID_5_" gradientUnits="userSpaceOnUse" x1="73.6333" y1="-489.5249" x2="73.7007" y2="-489.5249" gradientTransform="matrix(4.371139e-008 -1 -1 -4.371139e-008 -484.6758 92.5679)">
					<stop  offset="0" style="stop-color:#C2C2C2"/>
					<stop  offset="0.0673" style="stop-color:#B1B1B1"/>
					<stop  offset="0.2964" style="stop-color:#7E7E7E"/>
					<stop  offset="0.5119" style="stop-color:#565656"/>
					<stop  offset="0.7074" style="stop-color:#393939"/>
					<stop  offset="0.8766" style="stop-color:#272727"/>
					<stop  offset="1" style="stop-color:#212121"/>
				</linearGradient>
				<path opacity="0.4" fill="url(#SVGID_5_)" stroke="#000000" stroke-miterlimit="10" enable-background="new    " d="
					M4.863,18.935c-0.008-0.023-0.018-0.044-0.027-0.067C4.846,18.891,4.855,18.911,4.863,18.935z"/>
				
					<linearGradient id="SVGID_6_" gradientUnits="userSpaceOnUse" x1="81.4253" y1="-489.1606" x2="81.604" y2="-489.1606" gradientTransform="matrix(4.371139e-008 -1 -1 -4.371139e-008 -484.6758 92.5679)">
					<stop  offset="0" style="stop-color:#C2C2C2"/>
					<stop  offset="0.0673" style="stop-color:#B1B1B1"/>
					<stop  offset="0.2964" style="stop-color:#7E7E7E"/>
					<stop  offset="0.5119" style="stop-color:#565656"/>
					<stop  offset="0.7074" style="stop-color:#393939"/>
					<stop  offset="0.8766" style="stop-color:#272727"/>
					<stop  offset="1" style="stop-color:#212121"/>
				</linearGradient>
				<path opacity="0.4" fill="url(#SVGID_6_)" stroke="#000000" stroke-miterlimit="10" enable-background="new    " d="
					M4.459,11.143c0.018-0.06,0.033-0.121,0.053-0.179C4.492,11.021,4.477,11.084,4.459,11.143z"/>
				
					<linearGradient id="SVGID_7_" gradientUnits="userSpaceOnUse" x1="84.1694" y1="-490.4712" x2="84.1772" y2="-490.4712" gradientTransform="matrix(4.371139e-008 -1 -1 -4.371139e-008 -484.6758 92.5679)">
					<stop  offset="0" style="stop-color:#C2C2C2"/>
					<stop  offset="0.0673" style="stop-color:#B1B1B1"/>
					<stop  offset="0.2964" style="stop-color:#7E7E7E"/>
					<stop  offset="0.5119" style="stop-color:#565656"/>
					<stop  offset="0.7074" style="stop-color:#393939"/>
					<stop  offset="0.8766" style="stop-color:#272727"/>
					<stop  offset="1" style="stop-color:#212121"/>
				</linearGradient>
				<path opacity="0.4" fill="url(#SVGID_7_)" stroke="#000000" stroke-miterlimit="10" enable-background="new    " d="
					M5.793,8.398c0.002-0.003,0.004-0.007,0.006-0.008C5.797,8.394,5.795,8.396,5.793,8.398z"/>
				
					<linearGradient id="SVGID_8_" gradientUnits="userSpaceOnUse" x1="82.5015" y1="-489.5249" x2="82.5649" y2="-489.5249" gradientTransform="matrix(4.371139e-008 -1 -1 -4.371139e-008 -484.6758 92.5679)">
					<stop  offset="0" style="stop-color:#C2C2C2"/>
					<stop  offset="0.0673" style="stop-color:#B1B1B1"/>
					<stop  offset="0.2964" style="stop-color:#7E7E7E"/>
					<stop  offset="0.5119" style="stop-color:#565656"/>
					<stop  offset="0.7074" style="stop-color:#393939"/>
					<stop  offset="0.8766" style="stop-color:#272727"/>
					<stop  offset="1" style="stop-color:#212121"/>
				</linearGradient>
				<path opacity="0.4" fill="url(#SVGID_8_)" stroke="#000000" stroke-miterlimit="10" enable-background="new    " d="
					M4.836,10.066c0.008-0.021,0.018-0.042,0.027-0.063C4.855,10.024,4.846,10.045,4.836,10.066z"/>
				
					<linearGradient id="SVGID_9_" gradientUnits="userSpaceOnUse" x1="83.3774" y1="-489.9546" x2="83.4185" y2="-489.9546" gradientTransform="matrix(4.371139e-008 -1 -1 -4.371139e-008 -484.6758 92.5679)">
					<stop  offset="0" style="stop-color:#C2C2C2"/>
					<stop  offset="0.0673" style="stop-color:#B1B1B1"/>
					<stop  offset="0.2964" style="stop-color:#7E7E7E"/>
					<stop  offset="0.5119" style="stop-color:#565656"/>
					<stop  offset="0.7074" style="stop-color:#393939"/>
					<stop  offset="0.8766" style="stop-color:#272727"/>
					<stop  offset="1" style="stop-color:#212121"/>
				</linearGradient>
				<path opacity="0.4" fill="url(#SVGID_9_)" stroke="#000000" stroke-miterlimit="10" enable-background="new    " d="M5.268,9.19
					c0.009-0.013,0.016-0.028,0.023-0.041C5.283,9.162,5.276,9.178,5.268,9.19z"/>
				
					<linearGradient id="SVGID_10_" gradientUnits="userSpaceOnUse" x1="74.5952" y1="-489.1606" x2="74.7769" y2="-489.1606" gradientTransform="matrix(4.371139e-008 -1 -1 -4.371139e-008 -484.6758 92.5679)">
					<stop  offset="0" style="stop-color:#C2C2C2"/>
					<stop  offset="0.0673" style="stop-color:#B1B1B1"/>
					<stop  offset="0.2964" style="stop-color:#7E7E7E"/>
					<stop  offset="0.5119" style="stop-color:#565656"/>
					<stop  offset="0.7074" style="stop-color:#393939"/>
					<stop  offset="0.8766" style="stop-color:#272727"/>
					<stop  offset="1" style="stop-color:#212121"/>
				</linearGradient>
				<path opacity="0.4" fill="url(#SVGID_10_)" stroke="#000000" stroke-miterlimit="10" enable-background="new    " d="
					M4.512,17.973c-0.02-0.061-0.035-0.122-0.053-0.182C4.477,17.851,4.492,17.912,4.512,17.973z"/>
				
					<linearGradient id="SVGID_11_" gradientUnits="userSpaceOnUse" x1="78.0522" y1="-488.6724" x2="78.1489" y2="-488.6724" gradientTransform="matrix(4.371139e-008 -1 -1 -4.371139e-008 -484.6758 92.5679)">
					<stop  offset="0" style="stop-color:#C2C2C2"/>
					<stop  offset="0.0673" style="stop-color:#B1B1B1"/>
					<stop  offset="0.2964" style="stop-color:#7E7E7E"/>
					<stop  offset="0.5119" style="stop-color:#565656"/>
					<stop  offset="0.7074" style="stop-color:#393939"/>
					<stop  offset="0.8766" style="stop-color:#272727"/>
					<stop  offset="1" style="stop-color:#212121"/>
				</linearGradient>
				<path opacity="0.4" fill="url(#SVGID_11_)" stroke="#000000" stroke-miterlimit="10" enable-background="new    " d="
					M3.998,14.467c0-0.016,0-0.031,0-0.048c0,0.017-0.002,0.032-0.002,0.048c0,0.018,0.002,0.032,0.002,0.049
					C3.998,14.499,3.998,14.484,3.998,14.467z"/>
				
					<linearGradient id="SVGID_12_" gradientUnits="userSpaceOnUse" x1="72.022" y1="-490.4727" x2="72.0317" y2="-490.4727" gradientTransform="matrix(4.371139e-008 -1 -1 -4.371139e-008 -484.6758 92.5679)">
					<stop  offset="0" style="stop-color:#C2C2C2"/>
					<stop  offset="0.0673" style="stop-color:#B1B1B1"/>
					<stop  offset="0.2964" style="stop-color:#7E7E7E"/>
					<stop  offset="0.5119" style="stop-color:#565656"/>
					<stop  offset="0.7074" style="stop-color:#393939"/>
					<stop  offset="0.8766" style="stop-color:#272727"/>
					<stop  offset="1" style="stop-color:#212121"/>
				</linearGradient>
				<path opacity="0.4" fill="url(#SVGID_12_)" stroke="#000000" stroke-miterlimit="10" enable-background="new    " d="
					M5.802,20.546c-0.003-0.002-0.007-0.006-0.009-0.01C5.795,20.541,5.799,20.544,5.802,20.546z"/>
				
					<linearGradient id="SVGID_13_" gradientUnits="userSpaceOnUse" x1="72.7808" y1="-489.9546" x2="72.8237" y2="-489.9546" gradientTransform="matrix(4.371139e-008 -1 -1 -4.371139e-008 -484.6758 92.5679)">
					<stop  offset="0" style="stop-color:#C2C2C2"/>
					<stop  offset="0.0673" style="stop-color:#B1B1B1"/>
					<stop  offset="0.2964" style="stop-color:#7E7E7E"/>
					<stop  offset="0.5119" style="stop-color:#565656"/>
					<stop  offset="0.7074" style="stop-color:#393939"/>
					<stop  offset="0.8766" style="stop-color:#272727"/>
					<stop  offset="1" style="stop-color:#212121"/>
				</linearGradient>
				<path opacity="0.4" fill="url(#SVGID_13_)" stroke="#000000" stroke-miterlimit="10" enable-background="new    " d="
					M5.291,19.787c-0.006-0.014-0.015-0.029-0.023-0.043C5.273,19.757,5.283,19.773,5.291,19.787z"/>
				
					<linearGradient id="SVGID_14_" gradientUnits="userSpaceOnUse" x1="73.7007" y1="-489.3491" x2="74.5952" y2="-489.3491" gradientTransform="matrix(4.371139e-008 -1 -1 -4.371139e-008 -484.6758 92.5679)">
					<stop  offset="0" style="stop-color:#C2C2C2"/>
					<stop  offset="0.0673" style="stop-color:#B1B1B1"/>
					<stop  offset="0.2964" style="stop-color:#7E7E7E"/>
					<stop  offset="0.5119" style="stop-color:#565656"/>
					<stop  offset="0.7074" style="stop-color:#393939"/>
					<stop  offset="0.8766" style="stop-color:#272727"/>
					<stop  offset="1" style="stop-color:#212121"/>
				</linearGradient>
				<path opacity="0.4" fill="url(#SVGID_14_)" stroke="#000000" stroke-miterlimit="10" enable-background="new    " d="
					M4.836,18.867c-0.121-0.284-0.227-0.584-0.324-0.895C4.607,18.283,4.715,18.583,4.836,18.867z"/>
				
					<linearGradient id="SVGID_15_" gradientUnits="userSpaceOnUse" x1="81.604" y1="-489.3491" x2="82.5015" y2="-489.3491" gradientTransform="matrix(4.371139e-008 -1 -1 -4.371139e-008 -484.6758 92.5679)">
					<stop  offset="0" style="stop-color:#C2C2C2"/>
					<stop  offset="0.0673" style="stop-color:#B1B1B1"/>
					<stop  offset="0.2964" style="stop-color:#7E7E7E"/>
					<stop  offset="0.5119" style="stop-color:#565656"/>
					<stop  offset="0.7074" style="stop-color:#393939"/>
					<stop  offset="0.8766" style="stop-color:#272727"/>
					<stop  offset="1" style="stop-color:#212121"/>
				</linearGradient>
				<path opacity="0.4" fill="url(#SVGID_15_)" stroke="#000000" stroke-miterlimit="10" enable-background="new    " d="
					M4.512,10.964c0.096-0.311,0.203-0.612,0.324-0.897C4.715,10.353,4.607,10.652,4.512,10.964z"/>
				
					<linearGradient id="SVGID_16_" gradientUnits="userSpaceOnUse" x1="70.9014" y1="-491.0776" x2="72.022" y2="-491.0776" gradientTransform="matrix(4.371139e-008 -1 -1 -4.371139e-008 -484.6758 92.5679)">
					<stop  offset="0" style="stop-color:#C2C2C2"/>
					<stop  offset="0.0673" style="stop-color:#B1B1B1"/>
					<stop  offset="0.2964" style="stop-color:#7E7E7E"/>
					<stop  offset="0.5119" style="stop-color:#565656"/>
					<stop  offset="0.7074" style="stop-color:#393939"/>
					<stop  offset="0.8766" style="stop-color:#272727"/>
					<stop  offset="1" style="stop-color:#212121"/>
				</linearGradient>
				<path opacity="0.4" fill="url(#SVGID_16_)" stroke="#000000" stroke-miterlimit="10" enable-background="new    " d="
					M5.799,20.546c0.365,0.468,0.77,0.846,1.207,1.12C6.568,21.393,6.164,21.011,5.799,20.546z"/>
				
					<linearGradient id="SVGID_17_" gradientUnits="userSpaceOnUse" x1="82.5649" y1="-489.7407" x2="83.3774" y2="-489.7407" gradientTransform="matrix(4.371139e-008 -1 -1 -4.371139e-008 -484.6758 92.5679)">
					<stop  offset="0" style="stop-color:#C2C2C2"/>
					<stop  offset="0.0673" style="stop-color:#B1B1B1"/>
					<stop  offset="0.2964" style="stop-color:#7E7E7E"/>
					<stop  offset="0.5119" style="stop-color:#565656"/>
					<stop  offset="0.7074" style="stop-color:#393939"/>
					<stop  offset="0.8766" style="stop-color:#272727"/>
					<stop  offset="1" style="stop-color:#212121"/>
				</linearGradient>
				<path opacity="0.4" fill="url(#SVGID_17_)" stroke="#000000" stroke-miterlimit="10" enable-background="new    " d="
					M4.863,10.003C4.988,9.717,5.125,9.445,5.268,9.19C5.123,9.446,4.988,9.717,4.863,10.003z"/>
				
					<linearGradient id="SVGID_18_" gradientUnits="userSpaceOnUse" x1="83.4185" y1="-490.2173" x2="84.1694" y2="-490.2173" gradientTransform="matrix(4.371139e-008 -1 -1 -4.371139e-008 -484.6758 92.5679)">
					<stop  offset="0" style="stop-color:#C2C2C2"/>
					<stop  offset="0.0673" style="stop-color:#B1B1B1"/>
					<stop  offset="0.2964" style="stop-color:#7E7E7E"/>
					<stop  offset="0.5119" style="stop-color:#565656"/>
					<stop  offset="0.7074" style="stop-color:#393939"/>
					<stop  offset="0.8766" style="stop-color:#272727"/>
					<stop  offset="1" style="stop-color:#212121"/>
				</linearGradient>
				<path opacity="0.4" fill="url(#SVGID_18_)" stroke="#000000" stroke-miterlimit="10" enable-background="new    " d="
					M5.291,9.149c0.156-0.271,0.324-0.521,0.502-0.751C5.615,8.629,5.447,8.879,5.291,9.149z"/>
				
					<linearGradient id="SVGID_19_" gradientUnits="userSpaceOnUse" x1="84.1772" y1="-491.0786" x2="85.2993" y2="-491.0786" gradientTransform="matrix(4.371139e-008 -1 -1 -4.371139e-008 -484.6758 92.5679)">
					<stop  offset="0" style="stop-color:#C2C2C2"/>
					<stop  offset="0.0673" style="stop-color:#B1B1B1"/>
					<stop  offset="0.2964" style="stop-color:#7E7E7E"/>
					<stop  offset="0.5119" style="stop-color:#565656"/>
					<stop  offset="0.7074" style="stop-color:#393939"/>
					<stop  offset="0.8766" style="stop-color:#272727"/>
					<stop  offset="1" style="stop-color:#212121"/>
				</linearGradient>
				<path opacity="0.4" fill="url(#SVGID_19_)" stroke="#000000" stroke-miterlimit="10" enable-background="new    " d="
					M7.008,7.269C6.568,7.543,6.163,7.922,5.799,8.391C6.163,7.923,6.568,7.542,7.008,7.269z"/>
				
					<linearGradient id="SVGID_20_" gradientUnits="userSpaceOnUse" x1="72.8237" y1="-489.7397" x2="73.6333" y2="-489.7397" gradientTransform="matrix(4.371139e-008 -1 -1 -4.371139e-008 -484.6758 92.5679)">
					<stop  offset="0" style="stop-color:#C2C2C2"/>
					<stop  offset="0.0673" style="stop-color:#B1B1B1"/>
					<stop  offset="0.2964" style="stop-color:#7E7E7E"/>
					<stop  offset="0.5119" style="stop-color:#565656"/>
					<stop  offset="0.7074" style="stop-color:#393939"/>
					<stop  offset="0.8766" style="stop-color:#272727"/>
					<stop  offset="1" style="stop-color:#212121"/>
				</linearGradient>
				<path opacity="0.4" fill="url(#SVGID_20_)" stroke="#000000" stroke-miterlimit="10" enable-background="new    " d="
					M5.266,19.744c-0.143-0.256-0.277-0.525-0.402-0.81C4.988,19.219,5.123,19.487,5.266,19.744z"/>
				
					<linearGradient id="SVGID_21_" gradientUnits="userSpaceOnUse" x1="80.5454" y1="-489.0259" x2="81.4253" y2="-489.0259" gradientTransform="matrix(4.371139e-008 -1 -1 -4.371139e-008 -484.6758 92.5679)">
					<stop  offset="0" style="stop-color:#C2C2C2"/>
					<stop  offset="0.0673" style="stop-color:#B1B1B1"/>
					<stop  offset="0.2964" style="stop-color:#7E7E7E"/>
					<stop  offset="0.5119" style="stop-color:#565656"/>
					<stop  offset="0.7074" style="stop-color:#393939"/>
					<stop  offset="0.8766" style="stop-color:#272727"/>
					<stop  offset="1" style="stop-color:#212121"/>
				</linearGradient>
				<path opacity="0.4" fill="url(#SVGID_21_)" stroke="#000000" stroke-miterlimit="10" enable-background="new    " d="
					M4.242,12.022c0.061-0.303,0.135-0.596,0.217-0.88C4.377,11.427,4.303,11.72,4.242,12.022z"/>
				
					<linearGradient id="SVGID_22_" gradientUnits="userSpaceOnUse" x1="77.0356" y1="-488.6978" x2="78.0522" y2="-488.6978" gradientTransform="matrix(4.371139e-008 -1 -1 -4.371139e-008 -484.6758 92.5679)">
					<stop  offset="0" style="stop-color:#C2C2C2"/>
					<stop  offset="0.0673" style="stop-color:#B1B1B1"/>
					<stop  offset="0.2964" style="stop-color:#7E7E7E"/>
					<stop  offset="0.5119" style="stop-color:#565656"/>
					<stop  offset="0.7074" style="stop-color:#393939"/>
					<stop  offset="0.8766" style="stop-color:#272727"/>
					<stop  offset="1" style="stop-color:#212121"/>
				</linearGradient>
				<path opacity="0.4" fill="url(#SVGID_22_)" stroke="#000000" stroke-miterlimit="10" enable-background="new    " d="
					M4.047,15.532C4.02,15.199,4,14.861,3.998,14.516C4,14.861,4.02,15.198,4.047,15.532z"/>
				
					<linearGradient id="SVGID_23_" gradientUnits="userSpaceOnUse" x1="74.7769" y1="-489.0269" x2="75.6538" y2="-489.0269" gradientTransform="matrix(4.371139e-008 -1 -1 -4.371139e-008 -484.6758 92.5679)">
					<stop  offset="0" style="stop-color:#C2C2C2"/>
					<stop  offset="0.0673" style="stop-color:#B1B1B1"/>
					<stop  offset="0.2964" style="stop-color:#7E7E7E"/>
					<stop  offset="0.5119" style="stop-color:#565656"/>
					<stop  offset="0.7074" style="stop-color:#393939"/>
					<stop  offset="0.8766" style="stop-color:#272727"/>
					<stop  offset="1" style="stop-color:#212121"/>
				</linearGradient>
				<path opacity="0.4" fill="url(#SVGID_23_)" stroke="#000000" stroke-miterlimit="10" enable-background="new    " d="
					M4.46,17.791c-0.083-0.283-0.155-0.575-0.217-0.877C4.303,17.215,4.377,17.508,4.46,17.791z"/>
				
					<linearGradient id="SVGID_24_" gradientUnits="userSpaceOnUse" x1="72.0317" y1="-490.2173" x2="72.7808" y2="-490.2173" gradientTransform="matrix(4.371139e-008 -1 -1 -4.371139e-008 -484.6758 92.5679)">
					<stop  offset="0" style="stop-color:#C2C2C2"/>
					<stop  offset="0.0673" style="stop-color:#B1B1B1"/>
					<stop  offset="0.2964" style="stop-color:#7E7E7E"/>
					<stop  offset="0.5119" style="stop-color:#565656"/>
					<stop  offset="0.7074" style="stop-color:#393939"/>
					<stop  offset="0.8766" style="stop-color:#272727"/>
					<stop  offset="1" style="stop-color:#212121"/>
				</linearGradient>
				<path opacity="0.4" fill="url(#SVGID_24_)" stroke="#000000" stroke-miterlimit="10" enable-background="new    " d="
					M5.793,20.536c-0.178-0.229-0.346-0.479-0.502-0.749C5.447,20.057,5.615,20.307,5.793,20.536z"/>
				
					<linearGradient id="SVGID_25_" gradientUnits="userSpaceOnUse" x1="75.77" y1="-488.8218" x2="76.7632" y2="-488.8218" gradientTransform="matrix(4.371139e-008 -1 -1 -4.371139e-008 -484.6758 92.5679)">
					<stop  offset="0" style="stop-color:#C2C2C2"/>
					<stop  offset="0.0673" style="stop-color:#B1B1B1"/>
					<stop  offset="0.2964" style="stop-color:#7E7E7E"/>
					<stop  offset="0.5119" style="stop-color:#565656"/>
					<stop  offset="0.7074" style="stop-color:#393939"/>
					<stop  offset="0.8766" style="stop-color:#272727"/>
					<stop  offset="1" style="stop-color:#212121"/>
				</linearGradient>
				<path opacity="0.4" fill="url(#SVGID_25_)" stroke="#000000" stroke-miterlimit="10" enable-background="new    " d="
					M4.219,16.798c-0.064-0.321-0.109-0.656-0.145-0.993C4.109,16.143,4.154,16.477,4.219,16.798z"/>
				
					<linearGradient id="SVGID_26_" gradientUnits="userSpaceOnUse" x1="79.436" y1="-488.8198" x2="80.4312" y2="-488.8198" gradientTransform="matrix(4.371139e-008 -1 -1 -4.371139e-008 -484.6758 92.5679)">
					<stop  offset="0" style="stop-color:#C2C2C2"/>
					<stop  offset="0.0673" style="stop-color:#B1B1B1"/>
					<stop  offset="0.2964" style="stop-color:#7E7E7E"/>
					<stop  offset="0.5119" style="stop-color:#565656"/>
					<stop  offset="0.7074" style="stop-color:#393939"/>
					<stop  offset="0.8766" style="stop-color:#272727"/>
					<stop  offset="1" style="stop-color:#212121"/>
				</linearGradient>
				<path opacity="0.4" fill="url(#SVGID_26_)" stroke="#000000" stroke-miterlimit="10" enable-background="new    " d="
					M4.072,13.132c0.037-0.339,0.082-0.674,0.145-0.995C4.154,12.458,4.109,12.793,4.072,13.132z"/>
				
					<linearGradient id="SVGID_27_" gradientUnits="userSpaceOnUse" x1="70.3965" y1="-493.2808" x2="70.4043" y2="-493.2808" gradientTransform="matrix(4.371139e-008 -1 -1 -4.371139e-008 -484.6758 92.5679)">
					<stop  offset="0" style="stop-color:#C2C2C2"/>
					<stop  offset="0.0673" style="stop-color:#B1B1B1"/>
					<stop  offset="0.2964" style="stop-color:#7E7E7E"/>
					<stop  offset="0.5119" style="stop-color:#565656"/>
					<stop  offset="0.7074" style="stop-color:#393939"/>
					<stop  offset="0.8766" style="stop-color:#272727"/>
					<stop  offset="1" style="stop-color:#212121"/>
				</linearGradient>
				<path opacity="0.4" fill="url(#SVGID_27_)" stroke="#000000" stroke-miterlimit="10" enable-background="new    " d="
					M8.559,22.163L8.559,22.163c0.031,0,0.062,0.008,0.094,0.008C8.62,22.171,8.59,22.163,8.559,22.163z"/>
				
					<linearGradient id="SVGID_28_" gradientUnits="userSpaceOnUse" x1="78.1479" y1="-488.6978" x2="79.1636" y2="-488.6978" gradientTransform="matrix(4.371139e-008 -1 -1 -4.371139e-008 -484.6758 92.5679)">
					<stop  offset="0" style="stop-color:#C2C2C2"/>
					<stop  offset="0.0673" style="stop-color:#B1B1B1"/>
					<stop  offset="0.2964" style="stop-color:#7E7E7E"/>
					<stop  offset="0.5119" style="stop-color:#565656"/>
					<stop  offset="0.7074" style="stop-color:#393939"/>
					<stop  offset="0.8766" style="stop-color:#272727"/>
					<stop  offset="1" style="stop-color:#212121"/>
				</linearGradient>
				<path opacity="0.4" fill="url(#SVGID_28_)" stroke="#000000" stroke-miterlimit="10" enable-background="new    " d="
					M3.998,14.42C4,14.075,4.02,13.737,4.047,13.404C4.02,13.737,4,14.075,3.998,14.42z"/>
				
					<linearGradient id="SVGID_29_" gradientUnits="userSpaceOnUse" x1="70.3965" y1="-493.3745" x2="70.4043" y2="-493.3745" gradientTransform="matrix(4.371139e-008 -1 -1 -4.371139e-008 -484.6758 92.5679)">
					<stop  offset="0" style="stop-color:#C2C2C2"/>
					<stop  offset="0.0673" style="stop-color:#B1B1B1"/>
					<stop  offset="0.2964" style="stop-color:#7E7E7E"/>
					<stop  offset="0.5119" style="stop-color:#565656"/>
					<stop  offset="0.7074" style="stop-color:#393939"/>
					<stop  offset="0.8766" style="stop-color:#272727"/>
					<stop  offset="1" style="stop-color:#212121"/>
				</linearGradient>
				<path opacity="0.4" fill="url(#SVGID_29_)" stroke="#000000" stroke-miterlimit="10" enable-background="new    " d="
					M8.746,22.163c-0.031,0-0.062,0.008-0.094,0.008C8.685,22.171,8.715,22.163,8.746,22.163L8.746,22.163z"/>
				<g>
					
						<linearGradient id="SVGID_30_" gradientUnits="userSpaceOnUse" x1="70.3965" y1="-568.3115" x2="85.8022" y2="-568.3115" gradientTransform="matrix(4.371139e-008 -1 -1 -4.371139e-008 -484.6758 92.5679)">
						<stop  offset="0" style="stop-color:#C2C2C2"/>
						<stop  offset="0.0673" style="stop-color:#B1B1B1"/>
						<stop  offset="0.2964" style="stop-color:#7E7E7E"/>
						<stop  offset="0.5119" style="stop-color:#565656"/>
						<stop  offset="0.7074" style="stop-color:#393939"/>
						<stop  offset="0.8766" style="stop-color:#272727"/>
						<stop  offset="1" style="stop-color:#212121"/>
					</linearGradient>
					<path fill="url(#SVGID_30_)" d="M163.274,6.766H8.652c-0.581,0-1.133,0.185-1.646,0.505C6.566,7.545,6.16,7.925,5.799,8.392
						C5.797,8.396,5.793,8.398,5.792,8.4c-0.179,0.229-0.347,0.48-0.503,0.75C5.283,9.164,5.276,9.178,5.268,9.192
						c-0.145,0.254-0.279,0.525-0.404,0.813c-0.008,0.021-0.018,0.041-0.027,0.063c-0.121,0.284-0.229,0.586-0.324,0.897
						c-0.02,0.058-0.035,0.118-0.053,0.179c-0.082,0.282-0.156,0.575-0.217,0.879c-0.008,0.038-0.02,0.075-0.025,0.114
						c-0.064,0.322-0.109,0.655-0.145,0.995c-0.008,0.089-0.016,0.181-0.023,0.271C4.02,13.737,4,14.075,3.998,14.42
						c0,0.016,0,0.032,0,0.048c0,0.018,0,0.033,0,0.05C4,14.861,4.021,15.2,4.049,15.532c0.006,0.091,0.014,0.182,0.023,0.272
						c0.037,0.339,0.082,0.673,0.145,0.994c0.004,0.04,0.016,0.077,0.025,0.116c0.061,0.301,0.135,0.594,0.217,0.878
						c0.018,0.059,0.033,0.119,0.053,0.181c0.098,0.31,0.203,0.609,0.324,0.895c0.008,0.022,0.018,0.045,0.027,0.066
						c0.125,0.285,0.258,0.556,0.402,0.81c0.006,0.014,0.017,0.029,0.023,0.043c0.156,0.27,0.324,0.521,0.503,0.75
						c0.001,0.004,0.005,0.007,0.007,0.009c0.365,0.466,0.77,0.847,1.207,1.12c0.485,0.304,1.006,0.479,1.553,0.497
						c0.031,0,0.062,0.008,0.094,0.008s0.063-0.008,0.094-0.008h154.466c-2.527-0.083-2.256-3.494-2.256-7.696
						C160.956,10.214,160.706,6.765,163.274,6.766z"/>
				</g>
			</g>
			<g opacity="0.4" enable-background="new    ">
				<path opacity="0.4" fill="#FFFFFF" enable-background="new    " d="M8.678,22.163H8.49c0.031,0,0.063,0.008,0.094,0.008
					S8.646,22.163,8.678,22.163z"/>
				<path fill="#FFFFFF" d="M10.693,21.331H6.522l0.485,0.377c0.466,0.277,0.963,0.438,1.483,0.455h0.188L10.693,21.331z"/>
			</g>
			<g>
				<path fill="#231F20" d="M8.468,6.754c-0.776,0-1.386,0.249-2.024,0.689h4.168h152.792C164.088,7.003,8.468,6.754,8.468,6.754z"
					/>
			</g>
			<path fill="#606060" d="M163.403,7.686H10.861H6.445c-0.67,0.599-1.24,1.458-1.66,2.498h7.736h149.12
				C162.088,9.144,162.692,8.284,163.403,7.686z"/>
			<g>
				<path opacity="0.4" fill="#FFFFFF" enable-background="new    " d="M11.512,20.248c-0.154,0.23-0.314,0.447-0.484,0.641h151.991
					c-0.17-0.194-0.329-0.411-0.482-0.641H11.512z"/>
				<path opacity="0.4" fill="#FFFFFF" enable-background="new    " d="M11.512,20.248H5.574c0.154,0.23,0.314,0.447,0.483,0.641
					h4.97C11.197,20.695,11.357,20.48,11.512,20.248z"/>
			</g>
		</g>
		<path d="M160.337,21.781L8.631,21.789c-0.475-0.021-0.898-0.159-1.313-0.421c-0.387-0.242-0.755-0.583-1.097-1.02
			c-0.175-0.226-0.334-0.463-0.482-0.718c-0.16-0.285-0.287-0.545-0.408-0.818c-0.145-0.34-0.244-0.629-0.338-0.929l-0.035-0.116
			c-0.098-0.336-0.168-0.62-0.229-0.911l-0.025-0.114c-0.059-0.313-0.104-0.639-0.141-0.969c-0.008-0.087-0.016-0.173-0.021-0.26
			c-0.027-0.33-0.047-0.662-0.049-0.998L3.998,14.42l0.494,0.002c0.002-0.338,0.021-0.666,0.049-0.992l0.023-0.272
			c0.033-0.324,0.078-0.648,0.139-0.962l-0.461-0.172l0.486,0.058c0.059-0.293,0.131-0.578,0.211-0.854l0.049-0.165
			c0.096-0.31,0.199-0.601,0.315-0.874l0.034-0.08c0.113-0.256,0.24-0.518,0.382-0.762l0.036-0.072
			c0.127-0.216,0.278-0.442,0.436-0.646l0.063-0.081c0.313-0.4,0.677-0.739,1.063-0.98C7.762,7.29,8.211,7.148,8.652,7.148h151.685
			V6.385H8.652c-0.672,0-1.33,0.199-1.956,0.589C6.226,7.267,5.792,7.667,5.402,8.163L5.334,8.25C5.16,8.476,4.994,8.727,4.84,8.995
			C4.666,9.303,4.526,9.584,4.396,9.882c-0.154,0.361-0.266,0.673-0.363,0.995L3.992,11.01c-0.1,0.343-0.176,0.643-0.239,0.954
			l-0.026,0.124c-0.063,0.323-0.109,0.665-0.146,1.013l-0.017,0.204c-0.036,0.415-0.056,0.761-0.058,1.114v0.049
			c0.002,0.403,0.021,0.749,0.05,1.088c0.007,0.091,0.015,0.186,0.024,0.28c0.038,0.348,0.086,0.689,0.148,1.019
			c0.002,0.024,0.014,0.07,0.022,0.114c0.067,0.315,0.142,0.616,0.228,0.908l0.056,0.192c0.099,0.314,0.208,0.625,0.333,0.918
			c0.159,0.366,0.298,0.646,0.447,0.91c0.191,0.332,0.369,0.597,0.554,0.836c0.409,0.522,0.853,0.932,1.328,1.229
			c0.583,0.366,1.202,0.562,1.842,0.582l0.114,0.008c0.042,0,0.082-0.003,0.123-0.008l151.562,0.002V21.781z"/>
	</g>
	<path fill="#D3A540" stroke="#000000" stroke-miterlimit="10" d="M0.482,2.515v22.68l160.261-0.051v-3.141L17.385,22.054
		c-5.396,0-9.77-4.373-9.77-9.771s4.373-9.771,9.77-9.771H0.482V2.515z"/>
	<g>
		<path fill="none" stroke="#000000" stroke-miterlimit="10" d="M372.933,2.533h-3.742c-0.131,0-0.258,0.014-0.387,0.02h4.516
			C373.19,2.547,373.063,2.533,372.933,2.533z"/>
		<path fill="none" stroke="#000000" stroke-miterlimit="10" d="M360.687,29.533h20.75V11.037c0-0.695-0.092-1.367-0.25-2.014
			c-0.877-3.602-4.039-6.297-7.867-6.471h-4.516L160.743,2.464v21.16l199.943,0.089V29.533z"/>
		<path fill="#D3A540" stroke="#000000" stroke-miterlimit="10" d="M373.318,2.553h-4.517h-17.45v21.16h9.334V28.7h20.75V11.037
			c0-0.695-0.093-1.367-0.25-2.014C380.31,5.422,377.147,2.727,373.318,2.553z"/>
		<ellipse fill="#D3A540" stroke="#000000" stroke-miterlimit="10" cx="371.061" cy="29.534" rx="10.183" ry="1.901"/>
		<g>
			<path fill="#D3A540" stroke="#000000" stroke-miterlimit="10" d="M383.12,28.189c0,2.575-5.441,3.656-12.101,3.656
				s-12.017-1.081-12.017-3.656c0-2.574,5.398-4.656,12.059-4.656C377.72,23.533,383.12,25.615,383.12,28.189z"/>
			<ellipse fill="#D3A540" stroke="#000000" stroke-miterlimit="10" cx="371.061" cy="26.154" rx="10.183" ry="2.124"/>
			<polygon fill="#D3A540" points="361.187,23.241 361.187,25.991 361.937,26.533 378.853,26.241 380.343,26.377 380.937,26.064 
				380.895,21.7 			"/>
		</g>
	</g>
	
		<linearGradient id="SVGID_31_" gradientUnits="userSpaceOnUse" x1="634.2227" y1="-995.8511" x2="634.2227" y2="-1044.6221" gradientTransform="matrix(-1 0 0 -1 889.8535 -1006.1523)">
		<stop  offset="0.2849" style="stop-color:#FFFFFF"/>
		<stop  offset="0.4404" style="stop-color:#FFFFFF;stop-opacity:0"/>
	</linearGradient>
	<polygon fill="url(#SVGID_31_)" points="160.743,4.86 350.521,4.949 350.521,13.131 160.743,13.042 	"/>
	<path fill="#D3A540" stroke="#000000" stroke-miterlimit="10" d="M158.913,2.345c0-1.096,0.89-1.984,1.986-1.984l0,0
		c1.096,0,1.986,0.889,1.986,1.984v20.809c0,1.098-0.891,1.986-1.986,1.986l0,0c-1.098,0-1.986-0.891-1.986-1.986V2.345z"/>
	<path fill="#D3A540" stroke="#000000" stroke-miterlimit="10" d="M350.263,2.434c0-1.096,0.889-1.984,1.986-1.984l0,0
		c1.096,0,1.985,0.889,1.985,1.984v20.809c0,1.098-0.89,1.986-1.985,1.986l0,0c-1.099,0-1.986-0.891-1.986-1.986V2.434z"/>
	
		<linearGradient id="SVGID_32_" gradientUnits="userSpaceOnUse" x1="821.8369" y1="-196.7666" x2="821.837" y2="-355.8516" gradientTransform="matrix(1 0 0 -1 -454.7559 -241.1523)">
		<stop  offset="0.2849" style="stop-color:#FFFFFF"/>
		<stop  offset="0.5049" style="stop-color:#FFFFFF;stop-opacity:0"/>
	</linearGradient>
	<path opacity="0.6" fill="url(#SVGID_32_)" enable-background="new    " d="M373.999,5.117h-3.396l-14.666-0.053h-1.125
		l0.125,5.906l15.031-0.031c4,0,3.635,5.141,3.635,5.141l0,0v15.96l5.75-0.916V10.617C379.353,10.617,378.874,5.117,373.999,5.117z"
		/>
	
		<linearGradient id="SVGID_33_" gradientUnits="userSpaceOnUse" x1="807.1494" y1="-246.4351" x2="807.1494" y2="-253.1856" gradientTransform="matrix(1 0 0 -1 -454.7559 -241.1523)">
		<stop  offset="0.2849" style="stop-color:#FFFFFF"/>
		<stop  offset="0.5049" style="stop-color:#FFFFFF;stop-opacity:0"/>
	</linearGradient>
	<rect x="351.103" y="5.117" opacity="0.6" fill="url(#SVGID_33_)" enable-background="new    " width="2.584" height="5.916"/>
	
		<linearGradient id="SVGID_34_" gradientUnits="userSpaceOnUse" x1="615.9268" y1="-246.3462" x2="615.9268" y2="-253.0967" gradientTransform="matrix(1 0 0 -1 -454.7559 -241.1523)">
		<stop  offset="0.2849" style="stop-color:#FFFFFF"/>
		<stop  offset="0.5049" style="stop-color:#FFFFFF;stop-opacity:0"/>
	</linearGradient>
	<rect x="159.879" y="5.028" opacity="0.6" fill="url(#SVGID_34_)" enable-background="new    " width="2.584" height="5.916"/>
	
		<linearGradient id="SVGID_35_" gradientUnits="userSpaceOnUse" x1="459.377" y1="-246.3965" x2="459.377" y2="-253.1475" gradientTransform="matrix(1 0 0 -1 -454.7559 -241.1523)">
		<stop  offset="0.2849" style="stop-color:#FFFFFF"/>
		<stop  offset="0.5049" style="stop-color:#FFFFFF;stop-opacity:0"/>
	</linearGradient>
	<rect x="1.426" y="5.079" opacity="0.6" fill="url(#SVGID_35_)" enable-background="new    " width="6.391" height="5.916"/>
	<polygon fill="#856829" points="368.167,15.275 368.167,20.441 373.499,20.441 373.499,15.277 375.683,15.275 370.833,10.428 
		365.982,15.275 	"/>
</g>
</svg>
