<?xml version="1.0" encoding="utf-8"?>
<!-- Generator: Adobe Illustrator 16.0.0, SVG Export Plug-In . SVG Version: 6.00 Build 0)  -->
<!DOCTYPE svg PUBLIC "-//W3C//DTD SVG 1.1//EN" "http://www.w3.org/Graphics/SVG/1.1/DTD/svg11.dtd">
<svg version="1.1" id="wave" xmlns="http://www.w3.org/2000/svg" xmlns:xlink="http://www.w3.org/1999/xlink" x="0px" y="0px"
	 width="20.479px" height="40.429px" viewBox="0 0 20.479 40.429" enable-background="new 0 0 20.479 40.429" xml:space="preserve">
<g>
	<g>
		<path fill="#31C1FF" d="M0,19.07h2.063c1.017-3.561,4.293-6.18,8.177-6.18c3.883,0,7.159,2.619,8.176,6.18h2.063
			c-1.063-4.676-5.246-8.18-10.239-8.18C5.246,10.89,1.064,14.394,0,19.07z"/>
		<path fill="#31C1FF" d="M0,8.39h2.063C3.08,4.83,6.356,2.21,10.24,2.21c3.883,0,7.159,2.619,8.176,6.18h2.063
			c-1.063-4.676-5.246-8.18-10.239-8.18C5.246,0.21,1.064,3.714,0,8.39z"/>
		<path fill="#31C1FF" d="M0,29.75h2.063c1.017-3.561,4.293-6.18,8.177-6.18c3.883,0,7.159,2.619,8.176,6.18h2.063
			c-1.063-4.676-5.246-8.18-10.239-8.18C5.246,21.57,1.064,25.074,0,29.75z"/>
		<path fill="#31C1FF" d="M0,40.429h2.063c1.017-3.561,4.293-6.18,8.177-6.18c3.883,0,7.159,2.619,8.176,6.18h2.063
			c-1.063-4.676-5.246-8.18-10.239-8.18C5.246,32.25,1.064,35.753,0,40.429z"/>
	</g>
	<polygon opacity="0.2" fill="#31C1FF" points="18.224,40.429 2.224,40.429 2.224,4.3 10.224,1.333 18.224,4.3 	"/>
</g>
</svg>
