<?xml version="1.0" encoding="utf-8"?>
<!-- Generator: Adobe Illustrator 16.0.0, SVG Export Plug-In . SVG Version: 6.00 Build 0)  -->
<!DOCTYPE svg PUBLIC "-//W3C//DTD SVG 1.1//EN" "http://www.w3.org/Graphics/SVG/1.1/DTD/svg11.dtd">
<svg version="1.1" id="workstation_x5F_table" xmlns="http://www.w3.org/2000/svg" xmlns:xlink="http://www.w3.org/1999/xlink"
	 x="0px" y="0px" width="184.781px" height="133.927px" viewBox="0 0 184.781 133.927" enable-background="new 0 0 184.781 133.927"
	 xml:space="preserve">
<g>
	<g>
		<g>
			<rect x="10.783" y="83.945" fill="#C7C7C7" stroke="#000000" stroke-miterlimit="10" width="9.099" height="49.5"/>
			<rect x="164.358" y="83.945" fill="#C7C7C7" stroke="#000000" stroke-miterlimit="10" width="9.1" height="49.5"/>
			<rect x="3.025" y="28.49" fill="#C7C7C7" stroke="#000000" stroke-miterlimit="10" width="178.815" height="68.229"/>
			<rect x="3.025" y="34.076" fill="#C7C7C7" stroke="#000000" stroke-miterlimit="10" width="178.815" height="58.759"/>
			
				<rect x="0.563" y="0.583" fill="#F0ECEC" stroke="#000000" stroke-linejoin="bevel" stroke-miterlimit="10" width="183.743" height="87.353"/>
		</g>
		<g>
			<path fill="#C7C7C7" stroke="#000000" stroke-miterlimit="10" d="M26.771,95.095v4.75h-9.167v-4.75h-1.833v5.834
				c0,0.598,0.485,1.083,1.083,1.083h10.667c0.599,0,1.083-0.485,1.083-1.083v-5.834H26.771z"/>
			<rect x="11.021" y="93.271" fill="#C7C7C7" width="22.333" height="2.285"/>
		</g>
		<g>
			<path fill="#C7C7C7" stroke="#000000" stroke-miterlimit="10" d="M167.319,95.095v4.75h-9.166v-4.75h-1.834v5.834
				c0,0.598,0.485,1.083,1.084,1.083h10.666c0.6,0,1.084-0.485,1.084-1.083v-5.834H167.319z"/>
			<rect x="151.569" y="93.271" fill="#C7C7C7" width="22.334" height="2.285"/>
		</g>
		<g>
			<path fill="#C7C7C7" stroke="#000000" stroke-miterlimit="10" d="M26.771,91.036v4.75h-9.167v-4.75h-1.833v5.834
				c0,0.598,0.485,1.083,1.083,1.083h10.667c0.599,0,1.083-0.485,1.083-1.083v-5.834H26.771z"/>
			<rect x="11.021" y="89.212" fill="#C7C7C7" width="22.333" height="2.285"/>
		</g>
		<g>
			<path fill="#C7C7C7" stroke="#000000" stroke-miterlimit="10" d="M167.319,91.036v4.75h-9.166v-4.75h-1.834v5.834
				c0,0.598,0.485,1.083,1.084,1.083h10.666c0.6,0,1.084-0.485,1.084-1.083v-5.834H167.319z"/>
			<rect x="151.569" y="89.212" fill="#C7C7C7" width="22.334" height="2.285"/>
		</g>
	</g>
	<g>
		<path fill="#8C8C8C" d="M9.43,6.311v67.714c0,5.479,4.442,9.921,9.921,9.921h144.185c5.479,0,9.922-4.442,9.922-9.921V6.311H9.43z
			"/>
	</g>
	<g>
		<rect x="0.563" y="0.688" fill="#C7C7C7" stroke="#000000" stroke-miterlimit="10" width="183.419" height="5.622"/>
		<g>
			<path fill="#C7C7C7" stroke="#000000" stroke-miterlimit="10" d="M26.771,4.351v4.75h-9.167v-4.75h-1.833v5.834
				c0,0.598,0.485,1.083,1.083,1.083h10.667c0.599,0,1.083-0.485,1.083-1.083V4.351H26.771z"/>
			<rect x="11.021" y="1.478" fill="#C7C7C7" width="22.333" height="3.334"/>
		</g>
		<g>
			<path fill="#C7C7C7" stroke="#000000" stroke-miterlimit="10" d="M167.319,4.351v4.75h-9.166v-4.75h-1.834v5.834
				c0,0.598,0.485,1.083,1.084,1.083h10.666c0.6,0,1.084-0.485,1.084-1.083V4.351H167.319z"/>
			<rect x="151.569" y="1.478" fill="#C7C7C7" width="22.334" height="3.334"/>
		</g>
	</g>
</g>
</svg>
