<?xml version="1.0" encoding="utf-8"?>
<!-- Generator: Adobe Illustrator 16.0.0, SVG Export Plug-In . SVG Version: 6.00 Build 0)  -->
<!DOCTYPE svg PUBLIC "-//W3C//DTD SVG 1.1//EN" "http://www.w3.org/Graphics/SVG/1.1/DTD/svg11.dtd">
<svg version="1.1" id="workstation_x5F_table" xmlns="http://www.w3.org/2000/svg" xmlns:xlink="http://www.w3.org/1999/xlink"
	 x="0px" y="0px" width="184.781px" height="98.963px" viewBox="0 0 184.781 98.963" enable-background="new 0 0 184.781 98.963"
	 xml:space="preserve">
<g>
	<g>
		<rect x="0.563" y="0.583" fill="#F0ECEC" stroke="#000000" stroke-miterlimit="10" width="183.744" height="87.353"/>
	</g>
	<g>
		<path fill="#8C8C8C" d="M9.43,6.311v67.714c0,5.479,4.442,9.921,9.921,9.921h144.185c5.479,0,9.922-4.441,9.922-9.921V6.311H9.43z
			"/>
	</g>
	<g>
		<rect x="0.563" y="88.188" fill="#C7C7C7" stroke="#000000" stroke-miterlimit="10" width="183.31" height="5.622"/>
		<g>
			<path fill="#C7C7C7" stroke="#000000" stroke-miterlimit="10" d="M26.771,91.851v4.75h-9.167v-4.75h-1.833v5.834
				c0,0.599,0.485,1.083,1.083,1.083h10.667c0.599,0,1.083-0.484,1.083-1.083v-5.834H26.771z"/>
			<rect x="11.021" y="88.978" fill="#C7C7C7" width="22.333" height="3.334"/>
		</g>
		<g>
			<path fill="#C7C7C7" stroke="#000000" stroke-miterlimit="10" d="M167.318,91.851v4.75h-9.166v-4.75h-1.834v5.834
				c0,0.599,0.486,1.083,1.084,1.083h10.666c0.601,0,1.084-0.484,1.084-1.083v-5.834H167.318z"/>
			<rect x="151.568" y="88.978" fill="#C7C7C7" width="22.334" height="3.334"/>
		</g>
	</g>
	<rect x="183.984" y="87.948" width="0.797" height="6.344"/>
</g>
</svg>
