<?xml version="1.0" encoding="utf-8"?>
<!-- Generator: Adobe Illustrator 16.0.0, SVG Export Plug-In . SVG Version: 6.00 Build 0)  -->
<!DOCTYPE svg PUBLIC "-//W3C//DTD SVG 1.1//EN" "http://www.w3.org/Graphics/SVG/1.1/DTD/svg11.dtd">
<svg version="1.1" id="robot1_x5F_back" xmlns="http://www.w3.org/2000/svg" xmlns:xlink="http://www.w3.org/1999/xlink" x="0px"
	 y="0px" width="109px" height="95px" viewBox="0 0 109 95" enable-background="new 0 0 109 95" xml:space="preserve">
<g>
	<g>
		<path fill="#EDEDED" stroke="#000100" stroke-miterlimit="10" d="M83.787,23.949c-1.34,2.723-1.588,5.336-0.555,5.842
			c1.035,0.505,2.961-1.289,4.301-4.011c1.341-2.724,1.588-5.336,0.554-5.843C87.052,19.433,85.127,21.229,83.787,23.949z"/>
		<g>
			<path fill="#B3B3B3" stroke="#000000" stroke-miterlimit="10" d="M98.943,41.09c-0.33,0.128-0.701,0.151-1.066,0.046
				c-0.886-0.256-1.396-1.177-1.141-2.059c0.779-2.688,0.556-4.93-0.688-6.851c-2.952-4.563-10.551-5.707-10.625-5.718
				c-0.912-0.132-1.546-0.977-1.414-1.886c0.132-0.905,0.979-1.537,1.894-1.405c0.373,0.053,9.186,1.386,12.953,7.204
				c1.771,2.74,2.141,5.964,1.09,9.575C99.793,40.518,99.413,40.907,98.943,41.09z"/>
		</g>
		<path fill="#454545" stroke="#000000" stroke-miterlimit="10" d="M94.816,54.029l0.148-3.992
			c-1.281-1.064-2.072-2.688-2.007-4.478c0.114-3.071,2.708-5.475,5.794-5.358c3.088,0.112,5.497,2.697,5.383,5.771
			c-0.057,1.55-0.748,2.932-1.813,3.901l-0.155,4.195c3.108-1.348,5.34-4.369,5.476-7.973c0.185-5-3.736-9.204-8.759-9.391
			s-9.241,3.723-9.429,8.723C89.314,49.229,91.542,52.561,94.816,54.029z"/>
		<path fill="#005AB3" stroke="#000000" stroke-miterlimit="10" d="M102.078,40.772c-0.852,1.927-3.104,2.799-5.037,1.95
			c-1.934-0.848-2.811-3.095-1.958-5.018c0.853-1.925,3.104-2.797,5.037-1.952C102.055,36.602,102.932,38.849,102.078,40.772z"/>
	</g>
	<g>
		<path fill="#EDEDED" stroke="#000000" stroke-miterlimit="10" d="M25.212,24.717c1.34,2.723,1.588,5.336,0.553,5.842
			c-1.034,0.505-2.959-1.289-4.299-4.012c-1.341-2.722-1.588-5.336-0.554-5.841C21.949,20.201,23.873,21.996,25.212,24.717z"/>
		<g>
			<path fill="#B3B3B3" stroke="#000000" stroke-miterlimit="10" d="M10.056,41.857c0.329,0.129,0.702,0.151,1.067,0.047
				c0.886-0.256,1.396-1.178,1.14-2.061c-0.78-2.687-0.555-4.928,0.688-6.849c2.955-4.563,10.551-5.707,10.626-5.718
				c0.913-0.133,1.546-0.978,1.413-1.887c-0.131-0.904-0.979-1.538-1.892-1.403c-0.373,0.053-9.186,1.385-12.953,7.202
				c-1.773,2.74-2.141,5.963-1.091,9.575C9.207,41.285,9.586,41.675,10.056,41.857z"/>
		</g>
		<path fill="#454545" stroke="#000000" stroke-miterlimit="10" d="M14.183,54.797l-0.148-3.99c1.28-1.065,2.073-2.688,2.006-4.478
			c-0.114-3.073-2.708-5.477-5.795-5.36c-3.087,0.117-5.497,2.698-5.383,5.771c0.058,1.551,0.749,2.93,1.815,3.9l0.155,4.194
			c-3.109-1.346-5.34-4.367-5.474-7.972c-0.185-4.999,3.736-9.204,8.757-9.39c5.022-0.187,9.243,3.723,9.429,8.722
			C19.684,49.998,17.458,53.328,14.183,54.797z"/>
		<path fill="#005AB3" stroke="#000000" stroke-miterlimit="10" d="M6.921,41.54c0.85,1.925,3.105,2.797,5.037,1.949
			c1.933-0.848,2.81-3.095,1.958-5.019c-0.851-1.924-3.106-2.797-5.037-1.951C6.947,37.368,6.071,39.615,6.921,41.54z"/>
	</g>
	<path fill="#005AB3" stroke="#000000" stroke-miterlimit="10" d="M65.488,56.57c2.656,1.412,2.951,6.018,0.66,10.281
		c-2.291,4.262-6.301,6.571-8.955,5.155c-2.656-1.416-2.952-6.021-0.661-10.28C58.823,57.463,62.833,55.154,65.488,56.57z"/>
	<path fill="#B3B3B3" stroke="#000000" stroke-miterlimit="10" d="M54.229,87.27l4.11-27.59h-8.235l3.252,27.496
		c-1.803,0.047-3.252,1.51-3.252,3.316c0,1.836,1.495,3.324,3.339,3.324c1.843,0,3.338-1.488,3.338-3.324
		C56.781,88.928,55.689,87.625,54.229,87.27z"/>
	<g>
		<path fill="#005AB3" stroke="#000000" stroke-miterlimit="10" d="M54.556,48.076c-16.287,0-29.538-3.424-30.026-7.692
			c-0.009,0.207-0.023,0.416-0.023,0.626c0,11.303,13.455,20.467,30.049,20.467c16.596,0,30.049-9.164,30.049-20.467
			c0-0.21-0.015-0.419-0.022-0.626C84.096,44.652,70.843,48.076,54.556,48.076z"/>
		<path fill="#EDEDED" stroke="#231F20" stroke-miterlimit="10" d="M84.604,40.139c0-0.187-0.03-0.369-0.08-0.553
			c0.027,0.265,0.045,0.528,0.058,0.797C84.591,40.302,84.604,40.221,84.604,40.139z"/>
		<path fill="#EDEDED" stroke="#231F20" stroke-miterlimit="10" d="M24.505,40.139c0,0.082,0.014,0.163,0.023,0.244
			c0.011-0.269,0.03-0.532,0.057-0.797C24.539,39.77,24.505,39.953,24.505,40.139z"/>
		<path fill="#474747" stroke="#000000" stroke-miterlimit="10" d="M54.556,48.076c16.287,0,29.54-3.424,30.026-7.692
			c-0.012-0.269-0.03-0.532-0.059-0.797c-1.071-4.124-14.074-7.385-29.968-7.385c-15.893,0-28.895,3.261-29.969,7.385
			c-0.027,0.265-0.046,0.528-0.057,0.797C25.017,44.652,38.269,48.076,54.556,48.076z"/>
	</g>
	<g>
		<path fill="#005AB3" stroke="#000000" stroke-miterlimit="10" d="M80.764,33.053c5.032-3.372,8.071-7.729,8.071-12.488
			c0-10.702-15.349-19.381-34.279-19.381c-18.931,0-34.279,8.679-34.279,19.381c0,4.762,3.039,9.116,8.072,12.488
			c6.288-4.215,15.693-6.895,26.208-6.895C65.07,26.159,74.477,28.84,80.764,33.053z"/>
	</g>
	<g>
		<g>
			<path fill="#333333" stroke="#000000" stroke-miterlimit="10" d="M73.749,35.11v8.97c0,1.136-1.076,2.055-2.403,2.055h-34.25
				c-1.328,0-2.404-0.92-2.404-2.055v-8.882v-5.023c-0.748,0.258-1.473,0.528-2.173,0.815v4.53v9.39
				c0,0.269,0.064,0.521,0.165,0.763c5.934,0.949,13.552,1.522,21.872,1.522c7.992,0,15.336-0.528,21.165-1.412
				c0.129-0.271,0.202-0.563,0.202-0.873v-9.49v-4.693c-0.702-0.271-1.427-0.53-2.173-0.777L73.749,35.11L73.749,35.11z"/>
		</g>
		<path fill="#091D29" stroke="#000000" stroke-miterlimit="10" d="M37.097,46.134h34.25c1.325,0,2.402-0.92,2.402-2.055V29.945
			c-5.479-1.806-12.08-2.861-19.194-2.861c-7.408,0-14.259,1.148-19.863,3.09v13.905C34.692,45.215,35.769,46.134,37.097,46.134z"/>
	</g>
	<polygon fill="#EDEDED" points="75.923,34.2 80.436,33.374 76.372,30.973 	"/>
	<polygon fill="#EDEDED" points="32.644,34.2 28.132,33.374 32.195,30.973 	"/>
	<path fill="#091D29" d="M35.267,40.139l1.89,5.583c0,0,21.845,2.543,34.538-0.068l-1.031-5.271L35.267,40.139z"/>
	<path fill="#004182" d="M63.064,61.188c-2.185,0.556-4.529,0.297-4.529,0.297l-1.126,7.866l0,0c0.36,0.146,0.736,0.231,1.126,0.231
		c2.502,0,4.529-3.191,4.529-7.128C63.064,61.745,63.187,61.834,63.064,61.188z"/>
</g>
<circle fill="#005AB3" stroke="#000000" stroke-miterlimit="10" cx="53.481" cy="89.912" r="3.904"/>
<ellipse opacity="0.3" fill="#FFFFFF" cx="54.975" cy="89.266" rx="1.201" ry="1.313"/>
<ellipse opacity="0.3" fill="#FFFFFF" cx="100.615" cy="38.292" rx="1.201" ry="1.313"/>
<ellipse opacity="0.3" fill="#FFFFFF" cx="11.738" cy="38.854" rx="1.201" ry="1.313"/>
<g opacity="0.3">
	<path fill="#FFFFFF" d="M47.854,49.885c0.351-0.018,0.698-0.039,1.045-0.059c-12.834-0.285-19.517-2.468-23.167-5.697
		c0,0-0.209-0.46-0.209-0.281c0,1.374,0.7,2.591,1.142,3.873C31.285,49.367,38.82,50.332,47.854,49.885z"/>
</g>
<path opacity="0.3" fill="#FFFFFF" d="M77.419,46.189c-2.4,7.426-11.652,13.334-23.102,14.184c0.564,0.025,1.133,0.043,1.707,0.043
	c13.348,0,24.299-6.977,25.432-15.869C80.329,45.207,78.429,45.864,77.419,46.189z"/>
<path opacity="0.3" fill="#FFFFFF" d="M86.837,20.02c-1.16-9.58-15.266-17.152-32.506-17.152c-14.703,0-27.127,5.506-31.187,13.068
	c5.764-5.194,15.977-8.651,27.622-8.651c17.038,0,31.015,7.396,32.46,16.816C84.146,22.289,85.524,20.508,86.837,20.02z"/>
<path opacity="0.5" fill="#0D0D0D" d="M31.853,33.982h44.331l3.875-1.232c0,0-12.261-7.276-25.631-6.81
	c0,0-14.155-0.236-26.043,6.99L31.853,33.982z"/>
<path opacity="0.3" fill="#FFFFFF" d="M72.375,43.978c0,0.438-0.355,0.793-0.793,0.793l0,0c-0.438,0-0.793-0.355-0.793-0.793V36.79
	c0-0.438,0.355-0.793,0.793-0.793l0,0c0.438,0,0.793,0.355,0.793,0.793V43.978z"/>
<path opacity="0.5" fill="#0D0D0D" d="M38.324,43.978c0,0.438-0.355,0.793-0.793,0.793l0,0c-0.438,0-0.793-0.355-0.793-0.793V36.79
	c0-0.438,0.355-0.793,0.793-0.793l0,0c0.438,0,0.793,0.355,0.793,0.793V43.978z"/>
<g>
	<defs>
		<path id="SVGID_1_" d="M99.08,41.09c-0.33,0.128-0.703,0.151-1.068,0.046c-0.885-0.256-1.395-1.177-1.139-2.059
			c0.779-2.688,0.555-4.928-0.689-6.851c-2.953-4.563-10.551-5.707-10.627-5.718c-0.912-0.132-1.545-0.977-1.412-1.886
			c0.133-0.905,0.98-1.537,1.893-1.405c0.373,0.054,9.186,1.388,12.953,7.204c1.771,2.74,2.141,5.964,1.092,9.575
			C99.928,40.518,99.549,40.907,99.08,41.09z"/>
	</defs>
	<clipPath id="SVGID_2_">
		<use xlink:href="#SVGID_1_"  overflow="visible"/>
	</clipPath>
	
		<line clip-path="url(#SVGID_2_)" fill="none" stroke="#4F4F4F" stroke-miterlimit="10" x1="88.756" y1="29.95" x2="93.635" y2="22.583"/>
	
		<line clip-path="url(#SVGID_2_)" fill="none" stroke="#4F4F4F" stroke-miterlimit="10" x1="91.195" y1="31.625" x2="97.01" y2="24.865"/>
	
		<line clip-path="url(#SVGID_2_)" fill="none" stroke="#4F4F4F" stroke-miterlimit="10" x1="93.635" y1="33.053" x2="100.664" y2="29.125"/>
</g>
<g>
	<defs>
		<path id="SVGID_3_" d="M9.898,39.996c-1.05-3.611-0.681-6.835,1.092-9.575c3.767-5.816,12.58-7.15,12.953-7.204
			c0.912-0.132,1.76,0.5,1.892,1.405c0.133,0.909-0.5,1.754-1.412,1.886c-0.075,0.011-7.673,1.155-10.627,5.718
			c-1.243,1.923-1.468,4.163-0.688,6.851c0.256,0.882-0.254,1.803-1.14,2.059c-0.365,0.105-0.737,0.082-1.067-0.046
			C10.431,40.907,10.051,40.518,9.898,39.996z"/>
	</defs>
	<clipPath id="SVGID_4_">
		<use xlink:href="#SVGID_3_"  overflow="visible"/>
	</clipPath>
	
		<line clip-path="url(#SVGID_4_)" fill="none" stroke="#4F4F4F" stroke-miterlimit="10" x1="21.223" y1="29.95" x2="16.345" y2="22.583"/>
	
		<line clip-path="url(#SVGID_4_)" fill="none" stroke="#4F4F4F" stroke-miterlimit="10" x1="18.785" y1="31.625" x2="12.97" y2="24.865"/>
	
		<line clip-path="url(#SVGID_4_)" fill="none" stroke="#4F4F4F" stroke-miterlimit="10" x1="16.345" y1="33.053" x2="9.315" y2="29.125"/>
</g>
</svg>
