<?xml version="1.0" encoding="utf-8"?>
<!-- Generator: Adobe Illustrator 16.0.0, SVG Export Plug-In . SVG Version: 6.00 Build 0)  -->
<!DOCTYPE svg PUBLIC "-//W3C//DTD SVG 1.1//EN" "http://www.w3.org/Graphics/SVG/1.1/DTD/svg11.dtd">
<svg version="1.1" id="robot4_x5F_back" xmlns="http://www.w3.org/2000/svg" xmlns:xlink="http://www.w3.org/1999/xlink" x="0px"
	 y="0px" width="112px" height="98px" viewBox="0 0 112 98" enable-background="new 0 0 112 98" xml:space="preserve">
<g>
	<g>
		<path fill="#EDEDED" stroke="#000000" stroke-miterlimit="10" d="M81.624,36.489c-0.56,2.998-0.092,5.596,1.047,5.807
			c1.136,0.214,2.506-2.044,3.062-5.039c0.561-2.996,0.09-5.597-1.045-5.809C83.552,31.236,82.182,33.493,81.624,36.489z"/>
		<g>
			<path fill="#B3B3B3" stroke="#000000" stroke-miterlimit="10" d="M100.876,49.008c-0.28,0.215-0.64,0.336-1.021,0.33
				c-0.922-0.008-1.662-0.763-1.653-1.688c0.024-2.813-0.798-4.921-2.519-6.445c-4.082-3.624-11.719-2.686-11.793-2.677
				c-0.918,0.119-1.756-0.526-1.873-1.442c-0.119-0.913,0.527-1.754,1.443-1.871c0.373-0.049,9.23-1.132,14.439,3.489
				c2.451,2.176,3.676,5.196,3.643,8.979C101.542,48.226,101.279,48.704,100.876,49.008z"/>
		</g>
		<path fill="#474747" stroke="#000000" stroke-miterlimit="10" d="M100.396,62.65l-0.937-3.906
			c-1.522-0.688-2.729-2.043-3.146-3.793c-0.722-3.008,1.131-6.031,4.139-6.754c3.014-0.722,6.033,1.135,6.756,4.141
			c0.361,1.521,0.066,3.041-0.695,4.27l0.984,4.107c2.637-2.145,3.971-5.672,3.121-9.193c-1.172-4.895-6.092-7.906-10.98-6.734
			c-4.896,1.174-7.91,6.095-6.736,10.984C93.792,59.484,96.839,62.109,100.396,62.65z"/>
		<circle fill="#728C00" stroke="#000000" stroke-miterlimit="10" cx="100.025" cy="47.313" r="3.828"/>
	</g>
	<path fill="#728C00" stroke="#000000" stroke-miterlimit="10" d="M80.671,33.462c0,1.522,1.231,2.761,2.761,2.761h4.94
		c1.521,0,2.76-1.235,2.76-2.761v-0.229c0-1.522-1.235-2.759-2.76-2.759h-4.94c-1.523,0-2.761,1.233-2.761,2.759V33.462z"/>
	<g>
		<path fill="#EDEDED" stroke="#000000" stroke-miterlimit="10" d="M30.375,36.489c0.557,2.998,0.088,5.596-1.051,5.807
			c-1.133,0.214-2.504-2.044-3.063-5.039c-0.557-2.996-0.088-5.597,1.047-5.809C28.447,31.236,29.818,33.493,30.375,36.489z"/>
		<g>
			<path fill="#B3B3B3" stroke="#000000" stroke-miterlimit="10" d="M11.121,49.008c0.283,0.215,0.639,0.336,1.02,0.33
				c0.924-0.008,1.664-0.763,1.656-1.688c-0.025-2.813,0.797-4.921,2.518-6.445c4.082-3.624,11.719-2.686,11.793-2.677
				c0.918,0.119,1.756-0.526,1.873-1.442c0.119-0.913-0.525-1.754-1.441-1.871c-0.375-0.049-9.234-1.132-14.441,3.489
				c-2.451,2.176-3.676,5.196-3.645,8.979C10.455,48.226,10.719,48.704,11.121,49.008z"/>
		</g>
		<path fill="#474747" stroke="#000000" stroke-miterlimit="10" d="M11.604,62.65l0.938-3.906c1.521-0.688,2.727-2.043,3.145-3.793
			c0.723-3.008-1.131-6.031-4.139-6.754c-3.012-0.722-6.031,1.135-6.752,4.141c-0.363,1.521-0.07,3.041,0.691,4.27l-0.98,4.107
			c-2.639-2.145-3.973-5.672-3.125-9.193c1.174-4.895,6.094-7.906,10.98-6.734c4.896,1.174,7.91,6.095,6.736,10.984
			C18.205,59.484,15.16,62.109,11.604,62.65z"/>
		<circle fill="#728C00" stroke="#000000" stroke-miterlimit="10" cx="11.971" cy="47.313" r="3.828"/>
	</g>
	<path fill="#728C00" stroke="#000000" stroke-miterlimit="10" d="M31.326,33.462c0,1.522-1.232,2.761-2.758,2.761h-4.939
		c-1.523,0-2.762-1.235-2.762-2.761v-0.229c0-1.522,1.234-2.759,2.762-2.759h4.939c1.523,0,2.758,1.233,2.758,2.759V33.462z"/>
	<path fill="#728C00" stroke="#000000" stroke-miterlimit="10" d="M71.257,1.666H40.705c-4.135,0-7.48,3.352-7.48,7.481v6.988
		c0,3.858,10.188,6.987,22.758,6.987c12.569,0,22.757-3.129,22.757-6.987V9.147C78.738,5.016,75.391,1.666,71.257,1.666z"/>
	<path opacity="0.3" fill="#FFFFFF" enable-background="new    " d="M70.657,3.841H44.803c-2.197,0-4.129,1.118-5.264,2.814
		c0.752-0.314,1.577-0.49,2.444-0.49h25.854c3.497,0,6.332,2.835,6.333,6.331v5.913c0,0.29-0.071,0.574-0.203,0.854
		c1.911-0.918,3.023-2.008,3.023-3.178v-5.913C76.989,6.677,74.154,3.841,70.657,3.841z"/>
	<polygon fill="#B3B3B3" stroke="#000000" stroke-miterlimit="10" points="54.895,90.574 54.895,96.334 60.064,96.334 
		60.064,89.209 56.217,89.209 60.064,69.209 49.723,69.209 	"/>
	<ellipse fill="#728C00" stroke="#000000" stroke-miterlimit="10" cx="60.064" cy="74.942" rx="5.062" ry="6.563"/>
	<path opacity="0.3" fill="#FFFFFF" enable-background="new    " d="M63.895,75.775c0.729-3.033-0.207-5.866-2.092-6.325
		c-0.518-0.126-1.053-0.056-1.57,0.169c1.744,0.611,2.588,3.337,1.886,6.257c-0.53,2.202-1.792,3.898-3.164,4.491
		c0.067,0.024,0.135,0.052,0.205,0.068C61.045,80.896,63.164,78.811,63.895,75.775z"/>
	<path fill="#728C00" stroke="#000000" stroke-miterlimit="10" d="M85.811,56.311c0,7.619-6.177,13.795-13.793,13.795H39.947
		c-7.617,0-13.793-6.176-13.793-13.795V30.124c0-7.615,6.176-13.793,13.793-13.793h32.069c7.617,0,13.793,6.178,13.793,13.793
		v26.187H85.811z"/>
	<path opacity="0.3" fill="#FFFFFF" enable-background="new    " d="M70.054,18.493H40.729c-3.458,0-6.588,1.394-8.867,3.648
		c1.549-0.68,3.258-1.063,5.057-1.063h29.324c6.966,0,12.611,5.649,12.611,12.612v23.944c0,3.508-1.433,6.68-3.744,8.965
		c4.446-1.95,7.555-6.385,7.555-11.551V31.104C82.665,24.142,77.019,18.493,70.054,18.493z"/>
	<path fill="#635B41" stroke="#000000" stroke-miterlimit="10" d="M78.339,51.623c0,1.523-1.235,2.76-2.76,2.76H38.223
		c-1.523,0-2.758-1.234-2.758-2.76V31.737c0-1.521,1.232-2.759,2.758-2.759h37.356c1.521,0,2.76,1.233,2.76,2.759V51.623z"/>
	<path fill="#091D29" stroke="#000000" stroke-miterlimit="10" d="M75.352,49.555c0,1.521-1.236,2.758-2.761,2.758h-31.15
		c-1.52,0-2.758-1.231-2.758-2.758v-15.52c0-1.521,1.234-2.76,2.758-2.76H72.59c1.521,0,2.76,1.233,2.76,2.76v15.52H75.352z"/>
</g>
<ellipse opacity="0.6" fill="#FFFFFF" enable-background="new    " cx="261.625" cy="46.312" rx="1.201" ry="1.313"/>
<ellipse opacity="0.6" fill="#FFFFFF" enable-background="new    " cx="101.229" cy="45.619" rx="1.201" ry="1.313"/>
<ellipse opacity="0.6" fill="#FFFFFF" enable-background="new    " cx="13.625" cy="46.312" rx="1.201" ry="1.313"/>
<rect x="55.004" y="89.209" fill="#728C00" stroke="#000000" stroke-miterlimit="10" width="5.171" height="7.125"/>
<rect x="56.535" y="90.5" opacity="0.3" fill="#FFFFFF" enable-background="new    " width="2.594" height="1.417"/>
<path opacity="0.3" fill="#FFFFFF" enable-background="new    " d="M72.92,41.754c0,0.438-0.355,0.793-0.793,0.793l0,0
	c-0.438,0-0.793-0.355-0.793-0.793v-7.188c0-0.438,0.355-0.793,0.793-0.793l0,0c0.438,0,0.793,0.354,0.793,0.793V41.754z"/>
<path opacity="0.6" fill="#FFFFFF" enable-background="new    " d="M88.323,30.962h-2.001v1.568h2.001
	c0.99,0,1.819,0.65,2.112,1.542c0.071-0.219,0.12-0.449,0.12-0.692v-0.186C90.556,31.963,89.556,30.962,88.323,30.962z"/>
<path opacity="0.6" fill="#FFFFFF" enable-background="new    " d="M23.638,30.962h2.001v1.568h-2.001
	c-0.99,0-1.819,0.65-2.112,1.542c-0.071-0.219-0.12-0.449-0.12-0.692v-0.186C21.405,31.963,22.405,30.962,23.638,30.962z"/>
<g>
	<g>
		<defs>
			<path id="SVGID_1_" d="M101.731,48.993c-0.284,0.211-0.636,0.334-1.018,0.331c-0.922-0.006-1.661-0.756-1.648-1.675
				c0.023-2.799-0.797-4.896-2.512-6.414c-4.075-3.597-11.699-2.651-11.775-2.641c-0.914,0.119-1.75-0.526-1.869-1.437
				c-0.115-0.908,0.53-1.744,1.443-1.863c0.373-0.047,9.222-1.138,14.415,3.447c2.445,2.161,3.671,5.167,3.633,8.925
				C102.395,48.213,102.134,48.692,101.731,48.993z"/>
		</defs>
		<clipPath id="SVGID_2_">
			<use xlink:href="#SVGID_1_"  overflow="visible"/>
		</clipPath>
		
			<line clip-path="url(#SVGID_2_)" fill="none" stroke="#4F4F4F" stroke-miterlimit="10" x1="88.788" y1="41.049" x2="91.5" y2="32.639"/>
	</g>
	<g>
		<defs>
			<path id="SVGID_3_" d="M101.731,48.993c-0.284,0.211-0.636,0.334-1.018,0.331c-0.922-0.006-1.661-0.756-1.648-1.675
				c0.023-2.799-0.797-4.896-2.512-6.414c-4.075-3.597-11.699-2.651-11.775-2.641c-0.914,0.119-1.75-0.526-1.869-1.437
				c-0.115-0.908,0.53-1.744,1.443-1.863c0.373-0.047,9.222-1.138,14.415,3.447c2.445,2.161,3.671,5.167,3.633,8.925
				C102.395,48.213,102.134,48.692,101.731,48.993z"/>
		</defs>
		<clipPath id="SVGID_4_">
			<use xlink:href="#SVGID_3_"  overflow="visible"/>
		</clipPath>
		
			<line clip-path="url(#SVGID_4_)" fill="none" stroke="#4F4F4F" stroke-miterlimit="10" x1="91.588" y1="42.003" x2="95.365" y2="33.926"/>
	</g>
	<g>
		<defs>
			<path id="SVGID_5_" d="M101.731,48.993c-0.284,0.211-0.636,0.334-1.018,0.331c-0.922-0.006-1.661-0.756-1.648-1.675
				c0.023-2.799-0.797-4.896-2.512-6.414c-4.075-3.597-11.699-2.651-11.775-2.641c-0.914,0.119-1.75-0.526-1.869-1.437
				c-0.115-0.908,0.53-1.744,1.443-1.863c0.373-0.047,9.222-1.138,14.415,3.447c2.445,2.161,3.671,5.167,3.633,8.925
				C102.395,48.213,102.134,48.692,101.731,48.993z"/>
		</defs>
		<clipPath id="SVGID_6_">
			<use xlink:href="#SVGID_5_"  overflow="visible"/>
		</clipPath>
		
			<line clip-path="url(#SVGID_6_)" fill="none" stroke="#4F4F4F" stroke-miterlimit="10" x1="94.32" y1="42.721" x2="100.032" y2="37.044"/>
	</g>
</g>
<g>
	<g>
		<defs>
			<path id="SVGID_7_" d="M9.599,47.667c-0.038-3.757,1.188-6.764,3.633-8.925c5.193-4.585,14.042-3.495,14.415-3.447
				c0.913,0.119,1.559,0.955,1.443,1.863c-0.119,0.911-0.955,1.555-1.869,1.437c-0.076-0.011-7.7-0.956-11.775,2.641
				c-1.715,1.519-2.535,3.615-2.512,6.414c0.013,0.919-0.727,1.669-1.648,1.675c-0.382,0.003-0.733-0.12-1.018-0.331
				C9.865,48.692,9.604,48.213,9.599,47.667z"/>
		</defs>
		<clipPath id="SVGID_8_">
			<use xlink:href="#SVGID_7_"  overflow="visible"/>
		</clipPath>
		
			<line clip-path="url(#SVGID_8_)" fill="none" stroke="#4F4F4F" stroke-miterlimit="10" x1="20.499" y1="32.639" x2="23.211" y2="41.049"/>
	</g>
	<g>
		<defs>
			<path id="SVGID_9_" d="M9.599,47.667c-0.038-3.757,1.188-6.764,3.633-8.925c5.193-4.585,14.042-3.495,14.415-3.447
				c0.913,0.119,1.559,0.955,1.443,1.863c-0.119,0.911-0.955,1.555-1.869,1.437c-0.076-0.011-7.7-0.956-11.775,2.641
				c-1.715,1.519-2.535,3.615-2.512,6.414c0.013,0.919-0.727,1.669-1.648,1.675c-0.382,0.003-0.733-0.12-1.018-0.331
				C9.865,48.692,9.604,48.213,9.599,47.667z"/>
		</defs>
		<clipPath id="SVGID_10_">
			<use xlink:href="#SVGID_9_"  overflow="visible"/>
		</clipPath>
		
			<line clip-path="url(#SVGID_10_)" fill="none" stroke="#4F4F4F" stroke-miterlimit="10" x1="16.634" y1="33.926" x2="20.411" y2="42.003"/>
	</g>
	<g>
		<defs>
			<path id="SVGID_11_" d="M9.599,47.667c-0.038-3.757,1.188-6.764,3.633-8.925c5.193-4.585,14.042-3.495,14.415-3.447
				c0.913,0.119,1.559,0.955,1.443,1.863c-0.119,0.911-0.955,1.555-1.869,1.437c-0.076-0.011-7.7-0.956-11.775,2.641
				c-1.715,1.519-2.535,3.615-2.512,6.414c0.013,0.919-0.727,1.669-1.648,1.675c-0.382,0.003-0.733-0.12-1.018-0.331
				C9.865,48.692,9.604,48.213,9.599,47.667z"/>
		</defs>
		<clipPath id="SVGID_12_">
			<use xlink:href="#SVGID_11_"  overflow="visible"/>
		</clipPath>
		
			<line clip-path="url(#SVGID_12_)" fill="none" stroke="#4F4F4F" stroke-miterlimit="10" x1="11.967" y1="37.044" x2="17.679" y2="42.721"/>
	</g>
</g>
<path opacity="0.5" fill="#0D0D0D" enable-background="new    " d="M42.753,48.226c0,0.98-0.355,1.778-0.793,1.778l0,0
	c-0.438,0-0.793-0.797-0.793-1.778V35.361c0-0.982,0.355-1.777,0.793-1.777l0,0c0.438,0,0.793,0.795,0.793,1.777V48.226z"/>
</svg>
