<?xml version="1.0" encoding="utf-8"?>
<!-- Generator: Adobe Illustrator 16.0.0, SVG Export Plug-In . SVG Version: 6.00 Build 0)  -->
<!DOCTYPE svg PUBLIC "-//W3C//DTD SVG 1.1//EN" "http://www.w3.org/Graphics/SVG/1.1/DTD/svg11.dtd">
<svg version="1.1" id="robot2_x5F_back" xmlns="http://www.w3.org/2000/svg" xmlns:xlink="http://www.w3.org/1999/xlink" x="0px"
	 y="0px" width="121px" height="99px" viewBox="0 0 121 99" enable-background="new 0 0 121 99" xml:space="preserve">
<g>
	<g>
		
			<ellipse transform="matrix(0.9921 0.1252 -0.1252 0.9921 6.5462 -3.7306)" fill="#EDEDED" stroke="#000000" stroke-miterlimit="10" cx="32.954" cy="50.217" rx="2.151" ry="5.679"/>
		<g>
			<path fill="#B3B3B3" stroke="#000000" stroke-miterlimit="10" d="M12.306,56.725c0.21,0.299,0.518,0.527,0.893,0.646
				c0.908,0.282,1.871-0.228,2.152-1.134c0.856-2.768,2.325-4.575,4.489-5.532c5.14-2.271,12.333,1.043,12.404,1.075
				c0.861,0.402,1.887,0.033,2.29-0.828c0.402-0.855,0.032-1.885-0.829-2.287c-0.351-0.165-8.699-4.006-15.255-1.105
				c-3.086,1.363-5.235,3.94-6.386,7.66C11.899,55.749,12.005,56.301,12.306,56.725z"/>
		</g>
		<path fill="#454545" stroke="#000000" stroke-miterlimit="10" d="M8.499,70.252l2.143-3.536c1.71-0.196,3.313-1.147,4.274-2.731
			c1.65-2.725,0.782-6.271-1.941-7.92c-2.725-1.649-6.27-0.779-7.92,1.94c-0.833,1.374-1.021,2.958-0.657,4.401l-2.253,3.718
			c-1.912-2.927-2.114-6.806-0.18-9.993c2.685-4.431,8.454-5.845,12.882-3.156c4.431,2.686,5.844,8.451,3.161,12.883
			C15.968,69.218,12.156,70.837,8.499,70.252z"/>
		<circle fill="#FFC000" stroke="#000000" stroke-miterlimit="10" cx="13.67" cy="55.33" r="3.939"/>
	</g>
	
		<ellipse transform="matrix(-0.9035 -0.4286 0.4286 -0.9035 40.3547 96.1472)" fill="#FFC000" stroke="#000000" stroke-miterlimit="10" cx="31.001" cy="43.531" rx="10.424" ry="4.203"/>
	<path opacity="0.6" fill="#FFFFFF" d="M36.526,45.525c0.524-1.759-2.589-4.239-6.953-5.54c-1.706-0.508-3.346-0.758-4.748-0.772
		c0.505,0.108,1.02,0.238,1.542,0.394c4.364,1.3,7.477,3.781,6.952,5.54c-0.319,1.072-1.918,1.625-4.103,1.603
		C32.936,47.546,36.064,47.075,36.526,45.525z"/>
	<g>
		
			<ellipse transform="matrix(-0.9921 0.1253 -0.1253 -0.9921 181.6583 89.054)" fill="#EDEDED" stroke="#000000" stroke-miterlimit="10" cx="88.029" cy="50.238" rx="2.152" ry="5.679"/>
		<g>
			<path fill="#B3B3B3" stroke="#000000" stroke-miterlimit="10" d="M108.693,56.725c-0.209,0.299-0.516,0.527-0.891,0.646
				c-0.91,0.282-1.871-0.228-2.154-1.134c-0.854-2.768-2.323-4.575-4.487-5.532c-5.142-2.271-12.334,1.043-12.402,1.075
				c-0.86,0.402-1.889,0.033-2.288-0.828c-0.402-0.855-0.033-1.885,0.827-2.287c0.353-0.165,8.697-4.006,15.257-1.105
				c3.086,1.363,5.231,3.94,6.385,7.66C109.104,55.749,108.997,56.301,108.693,56.725z"/>
		</g>
		<path fill="#454545" stroke="#000000" stroke-miterlimit="10" d="M112.503,70.252l-2.146-3.536
			c-1.711-0.196-3.313-1.147-4.271-2.731c-1.649-2.725-0.782-6.271,1.938-7.92c2.729-1.649,6.271-0.779,7.92,1.94
			c0.834,1.374,1.021,2.958,0.658,4.401l2.252,3.718c1.912-2.927,2.115-6.806,0.18-9.993c-2.684-4.431-8.449-5.845-12.881-3.156
			c-4.432,2.686-5.844,8.451-3.162,12.883C105.034,69.218,108.848,70.837,112.503,70.252z"/>
		<circle fill="#FFC000" stroke="#000000" stroke-miterlimit="10" cx="107.331" cy="55.33" r="3.939"/>
	</g>
	
		<ellipse transform="matrix(0.9035 -0.4286 0.4286 0.9035 -9.962 42.7689)" fill="#FFC000" stroke="#000000" stroke-miterlimit="10" cx="89.994" cy="43.507" rx="10.425" ry="4.204"/>
	<circle fill="#4D4632" stroke="#000000" stroke-miterlimit="10" cx="43.609" cy="19.025" r="5.94"/>
	<circle fill="#4D4632" stroke="#000000" stroke-miterlimit="10" cx="82.948" cy="18.351" r="5.829"/>
	
		<ellipse transform="matrix(0.8769 -0.4807 0.4807 0.8769 -35.1803 28.1046)" fill="#635B41" stroke="#000000" stroke-miterlimit="10" cx="37.275" cy="82.73" rx="8.07" ry="11.932"/>
	
		<ellipse transform="matrix(-0.8769 -0.4807 0.4807 -0.8769 122.6511 196.9375)" fill="#635B41" stroke="#000000" stroke-miterlimit="10" cx="86.546" cy="82.762" rx="8.073" ry="11.932"/>
	<ellipse fill="#FFC000" stroke="#000000" stroke-miterlimit="10" cx="60.757" cy="64.968" rx="32.615" ry="31.709"/>
	<path opacity="0.6" fill="#FFFFFF" d="M62.848,36.066c-9.438,0-17.813,4.421-23.055,11.249c4.907-3.79,11.112-6.06,17.866-6.06
		c15.879,0,28.751,12.516,28.751,27.953c0,6.262-2.118,12.045-5.696,16.704C87.342,80.791,91.6,72.89,91.6,64.019
		C91.6,48.581,78.727,36.066,62.848,36.066z"/>
	<path fill="#635B41" stroke="#000000" stroke-miterlimit="10" d="M82.948,82.688c0,1.482-1.205,2.688-2.688,2.688H40.92
		c-1.486,0-2.69-1.204-2.69-2.688V55.788c0-1.485,1.204-2.688,2.69-2.688h39.34c1.482,0,2.688,1.203,2.688,2.688V82.688z"/>
	<path fill="#091D29" stroke="#000000" stroke-miterlimit="10" d="M80.259,79.916c0,1.57-1.204,2.848-2.688,2.848H43.273
		c-1.485,0-2.69-1.273-2.69-2.848V59.643c0-1.572,1.205-2.849,2.69-2.849h34.295c1.484,0,2.689,1.272,2.689,2.849L80.259,79.916
		L80.259,79.916z"/>
	<path fill="#635B41" stroke="#000000" stroke-miterlimit="10" d="M61.768,10.395H40.583l3.699,7.956c0,0,14.57-1.903,14.57,3.477
		c0,0,0.717,5.979-0.806,10.138c-1.939,0.438-3.229,1.204-3.229,2.08c0,1.36,3.111,2.465,6.951,2.465
		c3.838,0,6.947-1.104,6.947-2.465c0-0.876-1.291-1.644-3.229-2.08c-1.522-4.159-0.805-10.138-0.805-10.138
		c0-5.38,14.569-3.477,14.569-3.477l3.694-7.956H61.768z"/>
	<path fill="#FFC000" stroke="#000000" stroke-miterlimit="10" d="M91.251,13.084c0.004-0.074,0.017-0.146,0.017-0.225
		c0-5.818-12.545-10.536-28.021-10.536c-15.476,0-28.021,4.718-28.021,10.536c0,0.075,0.011,0.147,0.015,0.225H91.251z"/>
	<path opacity="0.6" fill="#FFFFFF" d="M67.414,4.318c-10.576,0-19.352,2.891-21.056,6.686c3.394-2.747,10.792-4.652,19.378-4.652
		c10.092,0,18.543,2.633,20.777,6.17h2.252c0.004-0.057,0.012-0.112,0.012-0.171C88.777,7.915,79.213,4.318,67.414,4.318z"/>
	<path fill="#635B41" stroke="#000000" stroke-miterlimit="10" d="M84.938,16.523c0,4.022-2.785,7.286-6.221,7.286H47.774
		c-3.436,0-6.221-3.264-6.221-7.286l0,0c0-4.022,2.786-7.284,6.221-7.284h30.944C82.152,9.239,84.938,12.501,84.938,16.523
		L84.938,16.523z"/>
	<path opacity="0.3" fill="#FFFFFF" d="M77.913,68.562c0,0.438-0.355,0.793-0.793,0.793l0,0c-0.438,0-0.793-0.355-0.793-0.793
		v-7.188c0-0.438,0.355-0.793,0.793-0.793l0,0c0.438,0,0.793,0.355,0.793,0.793V68.562z"/>
	<path opacity="0.5" fill="#0D0D0D" d="M45.194,77.89c0,0.98-0.355,1.778-0.793,1.778l0,0c-0.438,0-0.793-0.798-0.793-1.778V61.768
		c0-0.983,0.355-1.778,0.793-1.778l0,0c0.438,0,0.793,0.795,0.793,1.778V77.89z"/>
</g>
<path opacity="0.6" fill="#FFFFFF" d="M97.991,39.794c-0.785-1.659-4.758-1.42-8.872,0.532c-1.608,0.763-2.995,1.675-4.048,2.602
	c0.448-0.257,0.918-0.505,1.41-0.739c4.113-1.952,8.087-2.19,8.874-0.531c0.479,1.01-0.339,2.491-1.978,3.936
	C96.676,43.698,98.686,41.255,97.991,39.794z"/>
<ellipse opacity="0.6" fill="#FFFFFF" cx="109.098" cy="53.697" rx="1.201" ry="1.313"/>
<ellipse opacity="0.6" fill="#FFFFFF" cx="15.75" cy="53.697" rx="1.201" ry="1.313"/>
<g>
	<defs>
		<path id="SVGID_1_" d="M12.239,54.177c1.299-3.527,3.51-5.902,6.563-7.056c6.484-2.444,14.368,1.715,14.7,1.894
			c0.813,0.436,1.12,1.447,0.688,2.254c-0.433,0.811-1.443,1.115-2.255,0.68c-0.067-0.037-6.861-3.627-11.947-1.709
			c-2.142,0.809-3.653,2.479-4.622,5.104c-0.316,0.863-1.274,1.301-2.139,0.98c-0.357-0.131-0.643-0.371-0.832-0.67
			C12.126,55.228,12.053,54.688,12.239,54.177z"/>
	</defs>
	<clipPath id="SVGID_2_">
		<use xlink:href="#SVGID_1_"  overflow="visible"/>
	</clipPath>
	
		<line clip-path="url(#SVGID_2_)" fill="none" stroke="#4F4F4F" stroke-miterlimit="10" x1="27.316" y1="52.819" x2="27.765" y2="43.994"/>
	
		<line clip-path="url(#SVGID_2_)" fill="none" stroke="#4F4F4F" stroke-miterlimit="10" x1="24.359" y1="52.718" x2="23.694" y2="43.825"/>
	
		<line clip-path="url(#SVGID_2_)" fill="none" stroke="#4F4F4F" stroke-miterlimit="10" x1="21.548" y1="52.419" x2="18.224" y2="45.084"/>
</g>
<g>
	<defs>
		<path id="SVGID_3_" d="M108.445,55.653c-0.189,0.299-0.475,0.539-0.832,0.67c-0.863,0.32-1.822-0.117-2.139-0.98
			c-0.969-2.625-2.479-4.295-4.621-5.104c-5.086-1.918-11.879,1.672-11.947,1.709c-0.813,0.436-1.822,0.131-2.256-0.68
			c-0.432-0.807-0.123-1.818,0.689-2.254c0.332-0.179,8.215-4.338,14.699-1.894c3.053,1.153,5.264,3.528,6.563,7.056
			C108.789,54.688,108.715,55.228,108.445,55.653z"/>
	</defs>
	<clipPath id="SVGID_4_">
		<use xlink:href="#SVGID_3_"  overflow="visible"/>
	</clipPath>
	
		<line clip-path="url(#SVGID_4_)" fill="none" stroke="#4F4F4F" stroke-miterlimit="10" x1="93.525" y1="52.819" x2="93.076" y2="43.994"/>
	
		<line clip-path="url(#SVGID_4_)" fill="none" stroke="#4F4F4F" stroke-miterlimit="10" x1="96.482" y1="52.718" x2="97.146" y2="43.825"/>
	
		<line clip-path="url(#SVGID_4_)" fill="none" stroke="#4F4F4F" stroke-miterlimit="10" x1="99.293" y1="52.419" x2="102.617" y2="45.084"/>
</g>
<g>
	<path fill="#4D4632" d="M58,12.572c0,0.581-0.471,1.052-1.052,1.052h-9.513c-0.581,0-1.052-0.471-1.052-1.052l0,0
		c0-0.581,0.471-1.051,1.052-1.051h9.513C57.529,11.521,58,11.992,58,12.572L58,12.572z"/>
	<path fill="#4D4632" d="M58,16.297c0,0.581-0.471,1.052-1.052,1.052h-9.513c-0.581,0-1.052-0.471-1.052-1.052l0,0
		c0-0.581,0.471-1.051,1.052-1.051h9.513C57.529,15.246,58,15.716,58,16.297L58,16.297z"/>
	<path fill="#4D4632" d="M58,20.402c0,0.581-0.471,1.052-1.052,1.052h-9.513c-0.581,0-1.052-0.471-1.052-1.052l0,0
		c0-0.581,0.471-1.051,1.052-1.051h9.513C57.529,19.351,58,19.822,58,20.402L58,20.402z"/>
</g>
<g>
	<path fill="#4D4632" d="M80.402,12.572c0,0.581-0.471,1.052-1.052,1.052h-9.513c-0.58,0-1.052-0.471-1.052-1.052l0,0
		c0-0.581,0.472-1.051,1.052-1.051h9.513C79.932,11.521,80.402,11.992,80.402,12.572L80.402,12.572z"/>
	<path fill="#4D4632" d="M80.402,16.297c0,0.581-0.471,1.052-1.052,1.052h-9.513c-0.58,0-1.052-0.471-1.052-1.052l0,0
		c0-0.581,0.472-1.051,1.052-1.051h9.513C79.932,15.246,80.402,15.716,80.402,16.297L80.402,16.297z"/>
	<path fill="#4D4632" d="M80.402,20.402c0,0.581-0.471,1.052-1.052,1.052h-9.513c-0.58,0-1.052-0.471-1.052-1.052l0,0
		c0-0.581,0.472-1.051,1.052-1.051h9.513C79.932,19.351,80.402,19.822,80.402,20.402L80.402,20.402z"/>
</g>
</svg>
