<?xml version="1.0" encoding="utf-8"?>
<!-- Generator: Adobe Illustrator 16.0.0, SVG Export Plug-In . SVG Version: 6.00 Build 0)  -->
<!DOCTYPE svg PUBLIC "-//W3C//DTD SVG 1.1//EN" "http://www.w3.org/Graphics/SVG/1.1/DTD/svg11.dtd">
<svg version="1.1" id="robot2_x5F_back" xmlns="http://www.w3.org/2000/svg" xmlns:xlink="http://www.w3.org/1999/xlink" x="0px"
	 y="0px" width="121px" height="99px" viewBox="0 0 121 99" enable-background="new 0 0 121 99" xml:space="preserve">
<g>
	<g>
		
			<ellipse transform="matrix(-0.1253 0.9921 -0.9921 -0.1253 86.9058 23.8159)" fill="#EDEDED" stroke="#000000" stroke-miterlimit="10" cx="32.954" cy="50.219" rx="5.679" ry="2.151"/>
		<g>
			<path fill="#EDEDED" stroke="#000000" stroke-miterlimit="10" d="M12.306,56.724c0.21,0.299,0.518,0.528,0.893,0.646
				c0.908,0.282,1.871-0.227,2.152-1.134c0.856-2.767,2.325-4.575,4.489-5.532c5.14-2.271,12.333,1.043,12.404,1.076
				c0.861,0.401,1.887,0.032,2.29-0.829c0.402-0.856,0.032-1.885-0.829-2.287c-0.351-0.165-8.699-4.006-15.255-1.105
				c-3.086,1.363-5.235,3.94-6.386,7.66C11.899,55.749,12.005,56.301,12.306,56.724z"/>
		</g>
		<path fill="#EDEDED" stroke="#000000" stroke-miterlimit="10" d="M8.499,70.252l2.143-3.536c1.71-0.196,3.313-1.147,4.274-2.731
			c1.65-2.725,0.782-6.271-1.941-7.92c-2.725-1.65-6.27-0.78-7.92,1.94c-0.833,1.374-1.021,2.958-0.657,4.401l-2.253,3.718
			c-1.912-2.927-2.114-6.805-0.18-9.993c2.685-4.431,8.454-5.845,12.882-3.157c4.431,2.686,5.844,8.452,3.161,12.884
			C15.968,69.218,12.156,70.837,8.499,70.252z"/>
		<circle fill="#EDEDED" stroke="#000000" stroke-miterlimit="10" cx="13.67" cy="55.33" r="3.94"/>
	</g>
	
		<ellipse transform="matrix(0.4286 -0.9035 0.9035 0.4286 -21.6168 52.8821)" fill="#EDEDED" stroke="#231F20" stroke-miterlimit="10" cx="31.001" cy="43.532" rx="4.203" ry="10.424"/>
	<g>
		
			<ellipse transform="matrix(-0.1252 -0.9921 0.9921 -0.1252 49.2122 143.8644)" fill="#EDEDED" stroke="#000000" stroke-miterlimit="10" cx="88.032" cy="50.236" rx="5.679" ry="2.152"/>
		<g>
			<path fill="#EDEDED" stroke="#000000" stroke-miterlimit="10" d="M108.694,56.724c-0.209,0.299-0.516,0.528-0.891,0.646
				c-0.91,0.282-1.871-0.227-2.154-1.134c-0.854-2.767-2.324-4.575-4.488-5.532c-5.141-2.271-12.334,1.043-12.402,1.076
				c-0.861,0.401-1.889,0.032-2.289-0.829c-0.402-0.856-0.033-1.885,0.828-2.287c0.352-0.165,8.697-4.006,15.256-1.105
				c3.086,1.363,5.232,3.94,6.385,7.66C109.103,55.749,108.997,56.301,108.694,56.724z"/>
		</g>
		<path fill="#EDEDED" stroke="#000000" stroke-miterlimit="10" d="M112.503,70.252l-2.145-3.536
			c-1.711-0.196-3.313-1.147-4.271-2.731c-1.65-2.725-0.783-6.271,1.938-7.92c2.729-1.65,6.271-0.78,7.92,1.94
			c0.834,1.374,1.021,2.958,0.658,4.401l2.252,3.718c1.912-2.927,2.115-6.805,0.18-9.993c-2.684-4.431-8.449-5.845-12.881-3.157
			c-4.432,2.686-5.844,8.452-3.162,12.884C105.034,69.218,108.847,70.837,112.503,70.252z"/>
		<circle fill="#EDEDED" stroke="#000000" stroke-miterlimit="10" cx="107.331" cy="55.33" r="3.94"/>
	</g>
	
		<ellipse transform="matrix(0.4286 0.9035 -0.9035 0.4286 90.7314 -56.4479)" fill="#EDEDED" stroke="#231F20" stroke-miterlimit="10" cx="89.992" cy="43.506" rx="4.204" ry="10.425"/>
	<circle fill="#EDEDED" stroke="#231F20" stroke-miterlimit="10" cx="43.609" cy="19.025" r="5.94"/>
	<circle fill="#EDEDED" stroke="#231F20" stroke-miterlimit="10" cx="82.948" cy="18.351" r="5.829"/>
	
		<ellipse transform="matrix(0.4807 0.8769 -0.8769 0.4807 91.9012 10.2768)" fill="#EDEDED" stroke="#231F20" stroke-miterlimit="10" cx="37.274" cy="82.728" rx="11.932" ry="8.07"/>
	
		<ellipse transform="matrix(0.4807 -0.8769 0.8769 0.4807 -27.6329 118.8677)" fill="#EDEDED" stroke="#231F20" stroke-miterlimit="10" cx="86.545" cy="82.765" rx="11.931" ry="8.073"/>
	<ellipse fill="#EDEDED" stroke="#231F20" stroke-miterlimit="10" cx="60.757" cy="64.968" rx="32.615" ry="31.709"/>
	<path fill="#EDEDED" stroke="#231F20" stroke-miterlimit="10" d="M82.948,82.687c0,1.483-1.205,2.688-2.688,2.688h-39.34
		c-1.486,0-2.69-1.204-2.69-2.688V55.788c0-1.485,1.204-2.689,2.69-2.689h39.34c1.482,0,2.688,1.204,2.688,2.689V82.687z"/>
	<path fill="#EDEDED" stroke="#231F20" stroke-miterlimit="10" d="M80.259,79.916c0,1.57-1.205,2.847-2.689,2.847H43.273
		c-1.485,0-2.69-1.273-2.69-2.847V59.642c0-1.572,1.205-2.848,2.69-2.848h34.296c1.484,0,2.689,1.272,2.689,2.848V79.916z"/>
	<path fill="#EDEDED" stroke="#231F20" stroke-miterlimit="10" d="M61.767,10.395H40.583l3.699,7.956c0,0,14.57-1.903,14.57,3.477
		c0,0,0.717,5.979-0.806,10.138c-1.939,0.438-3.229,1.204-3.229,2.08c0,1.36,3.111,2.465,6.95,2.465
		c3.838,0,6.948-1.104,6.948-2.465c0-0.876-1.291-1.644-3.229-2.08c-1.522-4.159-0.805-10.138-0.805-10.138
		c0-5.38,14.57-3.477,14.57-3.477l3.695-7.956H61.767z"/>
	<path fill="#EDEDED" stroke="#231F20" stroke-miterlimit="10" d="M91.251,13.084c0.004-0.074,0.016-0.146,0.016-0.225
		c0-5.818-12.545-10.536-28.021-10.536c-15.476,0-28.021,4.718-28.021,10.536c0,0.075,0.011,0.147,0.015,0.225H91.251z"/>
	<path fill="#EDEDED" stroke="#000000" stroke-miterlimit="10" d="M77.121,66.969c0,0.99-0.804,1.794-1.794,1.794l0,0
		c-0.99,0-1.793-0.804-1.793-1.794v-4.003c0-0.988,0.803-1.793,1.793-1.793l0,0c0.99,0,1.794,0.803,1.794,1.793V66.969z"/>
	<path fill="#EDEDED" stroke="#231F20" stroke-miterlimit="10" d="M84.938,16.523c0,4.022-2.785,7.286-6.221,7.286H47.774
		c-3.436,0-6.221-3.264-6.221-7.286l0,0c0-4.022,2.786-7.284,6.221-7.284h30.944C82.153,9.239,84.938,12.501,84.938,16.523
		L84.938,16.523z"/>
</g>
</svg>
