<?xml version="1.0" encoding="utf-8"?>
<!-- Generator: Adobe Illustrator 16.0.0, SVG Export Plug-In . SVG Version: 6.00 Build 0)  -->
<!DOCTYPE svg PUBLIC "-//W3C//DTD SVG 1.1//EN" "http://www.w3.org/Graphics/SVG/1.1/DTD/svg11.dtd">
<svg version="1.1" id="robot3_x5F_front" xmlns="http://www.w3.org/2000/svg" xmlns:xlink="http://www.w3.org/1999/xlink" x="0px"
	 y="0px" width="90px" height="105px" viewBox="0 0 90 105" enable-background="new 0 0 90 105" xml:space="preserve">
<g>
	<ellipse fill="#474747" stroke="#000000" stroke-miterlimit="10" cx="18.517" cy="46.136" rx="8.042" ry="7.981"/>
	<ellipse fill="#474747" stroke="#000000" stroke-miterlimit="10" cx="70.668" cy="46.136" rx="8.042" ry="7.981"/>
	<path fill="#DE6B00" stroke="#000000" stroke-miterlimit="10" d="M70.668,79.551c0,13.395-10.855,24.246-24.248,24.246l0,0
		c-13.392,0-24.249-10.854-24.249-24.246V25.45c0-13.394,10.855-24.247,24.249-24.247l0,0c13.393,0,24.248,10.854,24.248,24.247
		V79.551z"/>
	<path opacity="0.3" fill="#FFFFFF" d="M46.106,4.727c-1.352,0-2.673,0.126-3.958,0.353c10.583,1.872,18.624,11.107,18.624,22.229
		v50.384c0,11.123-8.04,20.355-18.623,22.229c1.286,0.228,2.606,0.353,3.958,0.353c12.473,0,22.582-10.106,22.582-22.581V27.309
		C68.688,14.835,58.579,4.727,46.106,4.727z"/>
	<path opacity="0.3" fill="none" stroke="#FFFFFF" stroke-width="0.75" stroke-miterlimit="10" d="M22.172,31.059
		c0,0,30.461-6.459,48.495,1.339"/>
	<path opacity="0.3" fill="none" stroke="#FFFFFF" stroke-width="0.75" stroke-miterlimit="10" d="M22.172,45.53
		c0,0,30.461-6.459,48.495,1.341"/>
	<path fill="#635B41" stroke="#000000" stroke-miterlimit="10" d="M64.576,79.674c0,1.613-1.313,2.924-2.924,2.924h-30.95
		c-1.615,0-2.925-1.311-2.925-2.924V55.426c0-1.615,1.31-2.926,2.925-2.926h30.95c1.613,0,2.925,1.311,2.925,2.926L64.576,79.674
		L64.576,79.674z"/>
	<path fill="#091D29" stroke="#000000" stroke-miterlimit="10" d="M62.6,78.371c0,1.438-1.168,2.609-2.606,2.609H32.367
		c-1.442,0-2.611-1.172-2.611-2.609V56.725c0-1.438,1.169-2.606,2.611-2.606h27.625c1.438,0,2.607,1.168,2.607,2.606V78.371
		L62.6,78.371z"/>
	<g>
		<g>
			<path fill="#B3B3B3" stroke="#000000" stroke-miterlimit="10" d="M7.962,68.697c0.306,0.012,0.618-0.074,0.888-0.268
				c0.655-0.462,0.813-1.363,0.353-2.021c-1.404-1.994-1.858-3.902-1.387-5.842c1.125-4.603,7.037-7.697,7.099-7.729
				c0.712-0.366,0.992-1.242,0.624-1.954c-0.366-0.709-1.241-0.991-1.953-0.623c-0.291,0.148-7.147,3.747-8.584,9.612
				c-0.676,2.765-0.063,5.522,1.832,8.203C7.103,68.467,7.525,68.68,7.962,68.697z"/>
		</g>
		<path fill="#474747" stroke="#000000" stroke-miterlimit="10" d="M15.037,78.193l-1.26-3.248c0.744-1.244,0.937-2.805,0.37-4.262
			c-0.969-2.5-3.779-3.744-6.282-2.773c-2.503,0.973-3.745,3.785-2.776,6.285c0.489,1.262,1.449,2.203,2.601,2.703l1.324,3.414
			c-2.938-0.229-5.63-2.088-6.765-5.021c-1.578-4.067,0.444-8.647,4.515-10.226c4.071-1.575,8.649,0.445,10.229,4.517
			C18.186,72.676,17.306,76.055,15.037,78.193z"/>
		<circle fill="#DE6B00" stroke="#000000" stroke-miterlimit="10" cx="7.733" cy="67.069" r="3.319"/>
	</g>
	<g>
		<g>
			<path fill="#B3B3B3" stroke="#000000" stroke-miterlimit="10" d="M82.039,67.615c-0.309,0.014-0.617-0.072-0.889-0.266
				c-0.655-0.463-0.813-1.363-0.354-2.021c1.404-1.994,1.859-3.904,1.385-5.843c-1.125-4.604-7.037-7.697-7.096-7.729
				c-0.713-0.366-0.993-1.242-0.624-1.955c0.365-0.709,1.242-0.989,1.954-0.621c0.291,0.148,7.146,3.747,8.583,9.614
				c0.675,2.761,0.06,5.521-1.831,8.201C82.898,67.387,82.477,67.6,82.039,67.615z"/>
		</g>
		<path fill="#474747" stroke="#000000" stroke-miterlimit="10" d="M74.966,77.115l1.259-3.25c-0.748-1.244-0.937-2.805-0.373-4.26
			c0.974-2.502,3.783-3.744,6.285-2.775c2.504,0.973,3.745,3.785,2.776,6.287c-0.489,1.262-1.45,2.201-2.604,2.699l-1.319,3.418
			c2.937-0.229,5.63-2.09,6.764-5.021c1.576-4.07-0.444-8.646-4.519-10.225c-4.068-1.578-8.646,0.443-10.226,4.516
			C71.814,71.596,72.695,74.975,74.966,77.115z"/>
		<circle fill="#DE6B00" stroke="#000000" stroke-miterlimit="10" cx="82.27" cy="65.987" r="3.319"/>
	</g>
	<path fill="none" stroke="#000000" stroke-miterlimit="10" d="M22.172,30.325c0,0,30.462-6.459,48.496,1.339"/>
	<path fill="none" stroke="#000000" stroke-miterlimit="10" d="M22.172,44.797c0,0,30.462-6.459,48.496,1.341"/>
	<path fill="#333333" stroke="#000000" stroke-miterlimit="10" d="M64.576,34.347v-8.771c0-4.847-3.932-8.773-8.773-8.773H36.55
		c-4.845,0-8.771,3.93-8.771,8.773v8.771H64.576z"/>
	<circle fill="#E2FF21" stroke="#000000" stroke-miterlimit="10" cx="36.063" cy="28.009" r="4.143"/>
	<circle fill="#E2FF21" stroke="#000000" stroke-miterlimit="10" cx="55.315" cy="28.009" r="4.143"/>
</g>
<path opacity="0.3" fill="#FFFFFF" d="M60.412,65.197c0,0.438-0.355,0.793-0.793,0.793l0,0c-0.438,0-0.793-0.355-0.793-0.793v-7.188
	c0-0.438,0.355-0.793,0.793-0.793l0,0c0.438,0,0.793,0.355,0.793,0.793V65.197z"/>
<path opacity="0.5" fill="#0D0D0D" d="M34.253,75.066c0,0.98-0.355,1.778-0.793,1.778l0,0c-0.438,0-0.793-0.798-0.793-1.778V58.944
	c0-0.983,0.355-1.778,0.793-1.778l0,0c0.438,0,0.793,0.795,0.793,1.778V75.066z"/>
<g>
	<defs>
		<path id="SVGID_1_" d="M6.25,68.987c-1.949-3.213-2.43-6.423-1.428-9.529c2.128-6.594,10.294-10.169,10.64-10.319
			c0.847-0.364,1.829,0.026,2.192,0.867c0.364,0.844-0.027,1.824-0.874,2.188c-0.071,0.029-7.111,3.105-8.78,8.278
			c-0.702,2.181-0.337,4.402,1.111,6.797c0.479,0.785,0.225,1.807-0.565,2.283c-0.325,0.196-0.691,0.271-1.042,0.233
			C7.004,69.729,6.535,69.451,6.25,68.987z"/>
	</defs>
	<clipPath id="SVGID_2_">
		<use xlink:href="#SVGID_1_"  overflow="visible"/>
	</clipPath>
	
		<line clip-path="url(#SVGID_2_)" fill="none" stroke="#4F4F4F" stroke-miterlimit="10" x1="14.584" y1="56.348" x2="7.961" y2="50.499"/>
	
		<line clip-path="url(#SVGID_2_)" fill="none" stroke="#4F4F4F" stroke-miterlimit="10" x1="12.662" y1="58.598" x2="5.293" y2="53.578"/>
	
		<line clip-path="url(#SVGID_2_)" fill="none" stroke="#4F4F4F" stroke-miterlimit="10" x1="10.677" y1="60.609" x2="2.869" y2="58.641"/>
</g>
<g>
	<defs>
		<path id="SVGID_3_" d="M81.97,70.022c-0.354-0.002-0.709-0.115-1.012-0.346c-0.733-0.559-0.875-1.602-0.314-2.33
			c1.699-2.225,2.301-4.394,1.84-6.638c-1.1-5.322-7.766-9.142-7.833-9.179c-0.803-0.454-1.085-1.47-0.633-2.27
			c0.452-0.796,1.47-1.078,2.272-0.625c0.327,0.186,8.059,4.624,9.462,11.409c0.659,3.196-0.165,6.336-2.45,9.319
			C82.969,69.795,82.473,70.021,81.97,70.022z"/>
	</defs>
	<clipPath id="SVGID_4_">
		<use xlink:href="#SVGID_3_"  overflow="visible"/>
	</clipPath>
	
		<line clip-path="url(#SVGID_4_)" fill="none" stroke="#4F4F4F" stroke-miterlimit="10" x1="76.385" y1="55.898" x2="83.602" y2="50.799"/>
	
		<line clip-path="url(#SVGID_4_)" fill="none" stroke="#4F4F4F" stroke-miterlimit="10" x1="78.052" y1="58.342" x2="85.921" y2="54.148"/>
	
		<line clip-path="url(#SVGID_4_)" fill="none" stroke="#4F4F4F" stroke-miterlimit="10" x1="79.807" y1="60.557" x2="87.782" y2="59.444"/>
</g>
<circle fill="#FFFFFF" cx="55.418" cy="28.009" r="1.925"/>
<circle fill="#FFFFFF" cx="36.063" cy="28.009" r="1.925"/>
<circle opacity="0.3" fill="#FFFFFF" cx="55.419" cy="28.009" r="4.077"/>
<circle opacity="0.3" fill="#FFFFFF" cx="36.063" cy="28.009" r="4.077"/>
<ellipse opacity="0.6" fill="#FFFFFF" cx="83.471" cy="65.152" rx="1.201" ry="1.313"/>
<ellipse opacity="0.6" fill="#FFFFFF" cx="8.934" cy="65.844" rx="1.201" ry="1.313"/>
</svg>
