<?xml version="1.0" encoding="utf-8"?>
<!-- Generator: Adobe Illustrator 16.0.0, SVG Export Plug-In . SVG Version: 6.00 Build 0)  -->
<!DOCTYPE svg PUBLIC "-//W3C//DTD SVG 1.1//EN" "http://www.w3.org/Graphics/SVG/1.1/DTD/svg11.dtd">
<svg version="1.1" id="robot2_x5F_side" xmlns="http://www.w3.org/2000/svg" xmlns:xlink="http://www.w3.org/1999/xlink" x="0px"
	 y="0px" width="121px" height="99px" viewBox="0 0 121 99" enable-background="new 0 0 121 99" xml:space="preserve">
<g>
	<ellipse fill="#FFC000" stroke="#000000" stroke-miterlimit="10" cx="60.813" cy="63.525" rx="32.614" ry="31.709"/>
	<path opacity="0.6" fill="#FFFFFF" d="M61.528,34.793c-9.665,0-18.241,4.528-23.609,11.52c5.024-3.881,11.38-6.206,18.296-6.206
		c16.26,0,29.442,12.816,29.442,28.625c0,6.413-2.17,12.334-5.834,17.105c6.789-5.243,11.147-13.335,11.147-22.419
		C90.971,47.608,77.789,34.793,61.528,34.793z"/>
	<path fill="#635B41" stroke="#000000" stroke-miterlimit="10" d="M94.012,81.244c0,1.482-0.146,2.688-0.324,2.688h-4.73
		c-0.18,0-0.324-1.203-0.324-2.688V54.346c0-1.484,0.146-2.688,0.324-2.688h4.73c0.179,0,0.324,1.203,0.324,2.688V81.244z"/>
	<path fill="#635B41" stroke="#000000" stroke-miterlimit="10" d="M32.367,81.244c0,1.482-0.146,2.688-0.323,2.688h-4.73
		c-0.18,0-0.324-1.203-0.324-2.688V54.346c0-1.484,0.145-2.688,0.324-2.688h4.73c0.178,0,0.323,1.203,0.323,2.688V81.244z"/>
	<g>
		<path fill="#474747" stroke="#000000" stroke-miterlimit="10" d="M62.352,54.868c-2.109-0.154-3.25-2.906-2.547-6.144
			c0.704-3.238,2.986-5.737,5.096-5.583c2.113,0.156,3.254,2.906,2.549,6.145C66.745,52.523,64.462,55.021,62.352,54.868z"/>
		<g>
			<path fill="#B3B3B3" stroke="#000000" stroke-miterlimit="10" d="M44.286,62.742c0.313,0.216,0.695,0.328,1.103,0.31
				c0.989-0.049,1.747-0.891,1.696-1.879c-0.154-3.008,0.634-5.303,2.404-7.012c4.21-4.06,12.425-3.397,12.506-3.392
				c0.983,0.086,1.854-0.645,1.938-1.629c0.088-0.981-0.644-1.853-1.629-1.938c-0.402-0.035-9.934-0.799-15.301,4.381
				c-2.527,2.438-3.703,5.728-3.495,9.772C43.539,61.938,43.841,62.438,44.286,62.742z"/>
		</g>
		<path fill="#454545" stroke="#000000" stroke-miterlimit="10" d="M45.411,77.323l0.827-4.222c1.601-0.805,2.827-2.309,3.198-4.201
			c0.636-3.252-1.48-6.405-4.732-7.041c-3.254-0.637-6.406,1.481-7.044,4.73c-0.321,1.641,0.062,3.256,0.935,4.535l-0.87,4.439
			c-2.917-2.174-4.502-5.892-3.754-9.699c1.036-5.289,6.166-8.737,11.456-7.697c5.289,1.037,8.736,6.166,7.701,11.456
			C52.339,73.639,49.194,76.586,45.411,77.323z"/>
		<circle fill="#FFC000" stroke="#000000" stroke-miterlimit="10" cx="45.119" cy="60.893" r="4.1"/>
	</g>
	<ellipse fill="#D14343" stroke="#000000" stroke-miterlimit="10" cx="72.857" cy="40.951" rx="2.074" ry="2.186"/>
	<path fill="#635B41" stroke="#000000" stroke-miterlimit="10" d="M61.82,8.952H40.639l3.699,7.957c0,0,14.569-1.904,14.569,3.476
		c0,0,0.717,5.979-0.806,10.138c-1.938,0.438-3.229,1.204-3.229,2.08c0,1.36,3.111,2.465,6.948,2.465
		c3.839,0,6.949-1.104,6.949-2.465c0-0.876-1.291-1.644-3.229-2.08c-1.523-4.157-0.807-10.138-0.807-10.138
		c0-5.38,14.57-3.476,14.57-3.476l3.696-7.957H61.82z"/>
	
		<ellipse transform="matrix(-0.9523 -0.3051 0.3051 -0.9523 102.1183 100.1359)" fill="#FFC000" stroke="#000000" stroke-miterlimit="10" cx="58.884" cy="42.088" rx="10.424" ry="4.203"/>
	
		<ellipse transform="matrix(-0.9404 -0.3402 0.3402 -0.9404 96.5009 184.7216)" fill="#635B41" stroke="#000000" stroke-miterlimit="10" cx="64.444" cy="83.901" rx="9.933" ry="14.685"/>
	<path fill="#635B41" stroke="#000000" stroke-miterlimit="10" d="M82.012,16.216c0,2.527-2.056,4.574-4.591,4.574H44.323
		c-2.535,0-4.591-2.047-4.591-4.574l0,0c0-2.525,2.056-4.573,4.591-4.573h33.098C79.956,11.643,82.012,13.69,82.012,16.216
		L82.012,16.216z"/>
	<path fill="#4D4632" stroke="#000000" stroke-miterlimit="10" d="M86.482,17.41c0,3.187-2.584,5.769-5.77,5.769h-3.005
		c-3.187,0-5.769-2.582-5.769-5.769l0,0c0-3.187,2.582-5.769,5.769-5.769h3.005C83.898,11.642,86.482,14.224,86.482,17.41
		L86.482,17.41z"/>
	<ellipse fill="#A88628" stroke="#000000" stroke-miterlimit="10" cx="81.829" cy="16.909" rx="4.653" ry="5.829"/>
	<ellipse fill="#EDEDED" stroke="#000000" stroke-miterlimit="10" cx="81.829" cy="16.909" rx="3.312" ry="4.147"/>
	<path fill="#FFC000" stroke="#000000" stroke-miterlimit="10" d="M91.309,11.642c0.004-0.074,0.014-0.146,0.014-0.225
		c0-5.818-12.545-10.536-28.021-10.536c-15.477,0-28.021,4.718-28.021,10.536c0,0.075,0.012,0.147,0.016,0.225H91.309z"/>
</g>
<g>
	<defs>
		<path id="SVGID_1_" d="M43.497,58.447c0.438-3.733,2.032-6.56,4.732-8.395c5.732-3.892,14.37-1.691,14.735-1.596
			c0.892,0.233,1.427,1.146,1.196,2.03c-0.231,0.89-1.143,1.422-2.034,1.188c-0.075-0.021-7.519-1.922-12.016,1.132
			c-1.894,1.287-2.971,3.264-3.301,6.042c-0.105,0.914-0.935,1.563-1.85,1.453c-0.377-0.043-0.711-0.21-0.964-0.457
			C43.633,59.495,43.435,58.988,43.497,58.447z"/>
	</defs>
	<clipPath id="SVGID_2_">
		<use xlink:href="#SVGID_1_"  overflow="visible"/>
	</clipPath>
	
		<line clip-path="url(#SVGID_2_)" fill="none" stroke="#4F4F4F" stroke-miterlimit="10" x1="57.839" y1="53.603" x2="56.212" y2="44.917"/>
	
		<line clip-path="url(#SVGID_2_)" fill="none" stroke="#4F4F4F" stroke-miterlimit="10" x1="54.94" y1="54.195" x2="52.215" y2="45.705"/>
	
		<line clip-path="url(#SVGID_2_)" fill="none" stroke="#4F4F4F" stroke-miterlimit="10" x1="52.138" y1="54.562" x2="47.19" y2="48.208"/>
</g>
<g>
	<ellipse fill="#A88628" stroke="#000000" stroke-miterlimit="10" cx="81.771" cy="17.223" rx="4.711" ry="5.625"/>
	<ellipse fill="#FFBD00" stroke="#000000" stroke-miterlimit="10" cx="81.771" cy="17.224" rx="3.289" ry="3.927"/>
	<ellipse fill="#FFFFFF" cx="81.772" cy="17.224" rx="1.628" ry="1.944"/>
	<ellipse opacity="0.3" fill="#FFF8E6" cx="81.771" cy="17.224" rx="3.29" ry="3.929"/>
</g>
<path opacity="0.6" fill="#FFFFFF" d="M66.833,44.498c0.537-1.802-2.651-4.341-7.12-5.673c-1.746-0.521-3.426-0.776-4.861-0.791
	c0.518,0.111,1.044,0.244,1.578,0.403c4.469,1.332,7.656,3.872,7.119,5.673c-0.326,1.098-1.964,1.665-4.201,1.641
	C63.156,46.567,66.36,46.085,66.833,44.498z"/>
<polygon opacity="0.5" fill="#423C2B" points="39.732,11.898 42.251,15.111 70.488,15.111 73.035,11.898 "/>
<ellipse fill="#EDEDED" stroke="#000000" stroke-width="0.5" stroke-miterlimit="10" cx="73.606" cy="40.062" rx="0.748" ry="0.776"/>
<ellipse opacity="0.6" fill="#FFFFFF" cx="46.81" cy="59.295" rx="1.201" ry="1.313"/>
</svg>
