<?xml version="1.0" encoding="utf-8"?>
<!-- Generator: Adobe Illustrator 16.0.0, SVG Export Plug-In . SVG Version: 6.00 Build 0)  -->
<!DOCTYPE svg PUBLIC "-//W3C//DTD SVG 1.1//EN" "http://www.w3.org/Graphics/SVG/1.1/DTD/svg11.dtd">
<svg version="1.1" id="robot2_x5F_front" xmlns="http://www.w3.org/2000/svg" xmlns:xlink="http://www.w3.org/1999/xlink" x="0px"
	 y="0px" width="121px" height="99px" viewBox="0 0 121 99" enable-background="new 0 0 121 99" xml:space="preserve">
<g>
	
		<ellipse transform="matrix(0.4807 0.8769 -0.8769 0.4807 91.9145 10.3079)" fill="#EDEDED" stroke="#000000" stroke-miterlimit="10" cx="37.254" cy="82.756" rx="11.932" ry="8.07"/>
	
		<ellipse transform="matrix(0.4807 -0.8769 0.8769 0.4807 -27.6139 118.9019)" fill="#EDEDED" stroke="#000000" stroke-miterlimit="10" cx="86.581" cy="82.765" rx="11.931" ry="8.071"/>
	<ellipse fill="#EDEDED" stroke="#000000" stroke-miterlimit="10" cx="60.756" cy="64.968" rx="32.615" ry="31.709"/>
	<path fill="#EDEDED" stroke="#000000" stroke-miterlimit="10" d="M82.949,82.687c0,1.483-1.206,2.688-2.688,2.688H40.92
		c-1.486,0-2.69-1.204-2.69-2.688V55.788c0-1.485,1.204-2.688,2.69-2.688h39.34c1.482,0,2.688,1.203,2.688,2.688V82.687z"/>
	<path fill="#EDEDED" stroke="#000000" stroke-miterlimit="10" d="M80.259,79.916c0,1.57-1.205,2.847-2.69,2.847H43.272
		c-1.485,0-2.69-1.273-2.69-2.847V59.644c0-1.572,1.205-2.848,2.69-2.848h34.296c1.485,0,2.69,1.272,2.69,2.848V79.916z"/>
	<g>
		
			<ellipse transform="matrix(-0.1253 0.9921 -0.9921 -0.1253 86.9081 23.8153)" fill="#EDEDED" stroke="#000000" stroke-miterlimit="10" cx="32.956" cy="50.218" rx="5.679" ry="2.151"/>
		<g>
			<path fill="#EDEDED" stroke="#000000" stroke-miterlimit="10" d="M12.306,56.724c0.21,0.297,0.518,0.526,0.893,0.644
				c0.908,0.282,1.871-0.227,2.152-1.134c0.856-2.767,2.325-4.575,4.489-5.532c5.14-2.271,12.333,1.043,12.404,1.076
				c0.861,0.403,1.887,0.032,2.29-0.829c0.402-0.856,0.032-1.885-0.829-2.287c-0.351-0.165-8.699-4.006-15.255-1.107
				c-3.086,1.365-5.235,3.942-6.386,7.662C11.898,55.749,12.004,56.301,12.306,56.724z"/>
		</g>
		<path fill="#EDEDED" stroke="#000000" stroke-miterlimit="10" d="M8.499,70.252l2.143-3.536c1.71-0.196,3.313-1.147,4.274-2.731
			c1.65-2.725,0.782-6.271-1.941-7.92c-2.725-1.65-6.27-0.78-7.92,1.94c-0.833,1.374-1.021,2.958-0.657,4.401l-2.253,3.718
			c-1.912-2.927-2.114-6.805-0.18-9.993c2.685-4.431,8.454-5.845,12.882-3.157c4.431,2.686,5.844,8.453,3.161,12.884
			C15.968,69.218,12.156,70.837,8.499,70.252z"/>
		<circle fill="#EDEDED" stroke="#000000" stroke-miterlimit="10" cx="13.669" cy="55.33" r="3.94"/>
	</g>
	<ellipse fill="#EDEDED" stroke="#000000" stroke-miterlimit="10" cx="50.501" cy="42.393" rx="2.074" ry="2.186"/>
	<path fill="#EDEDED" stroke="#000000" stroke-miterlimit="10" d="M61.766,10.395H40.583l3.699,7.957c0,0,14.57-1.904,14.57,3.476
		c0,0,0.717,5.979-0.806,10.138c-1.939,0.438-3.229,1.204-3.229,2.08c0,1.36,3.111,2.465,6.949,2.465s6.949-1.104,6.949-2.465
		c0-0.876-1.291-1.644-3.229-2.08c-1.522-4.157-0.806-10.138-0.806-10.138c0-5.38,14.57-3.476,14.57-3.476l3.697-7.957H61.766z"/>
	<circle fill="#EDEDED" stroke="#000000" stroke-miterlimit="10" cx="43.608" cy="19.025" r="5.94"/>
	<circle fill="#EDEDED" stroke="#000000" stroke-miterlimit="10" cx="82.949" cy="18.352" r="5.829"/>
	<circle fill="#EDEDED" stroke="#000000" stroke-miterlimit="10" cx="82.949" cy="18.351" r="4.147"/>
	<circle fill="#EDEDED" stroke="#000000" stroke-miterlimit="10" cx="43.608" cy="19.026" r="4.147"/>
	<path fill="#EDEDED" stroke="#000000" stroke-miterlimit="10" d="M91.252,13.084c0.004-0.074,0.014-0.146,0.014-0.225
		c0-5.818-12.545-10.536-28.02-10.536c-15.477,0-28.021,4.718-28.021,10.536c0,0.075,0.011,0.147,0.015,0.225H91.252z"/>
	
		<ellipse transform="matrix(0.4286 -0.9035 0.9035 0.4286 -21.6133 52.8839)" fill="#EDEDED" stroke="#000000" stroke-miterlimit="10" cx="31.002" cy="43.529" rx="4.203" ry="10.424"/>
	<g>
		
			<ellipse transform="matrix(-0.1254 -0.9921 0.9921 -0.1254 49.2552 143.8714)" fill="#EDEDED" stroke="#000000" stroke-miterlimit="10" cx="88.046" cy="50.224" rx="5.679" ry="2.151"/>
		<g>
			<path fill="#EDEDED" stroke="#000000" stroke-miterlimit="10" d="M108.695,56.724c-0.211,0.297-0.518,0.526-0.893,0.644
				c-0.908,0.282-1.871-0.227-2.152-1.134c-0.854-2.767-2.326-4.575-4.49-5.532c-5.139-2.271-12.332,1.043-12.4,1.076
				c-0.861,0.403-1.891,0.032-2.291-0.829c-0.402-0.856-0.031-1.885,0.83-2.287c0.35-0.165,8.695-4.006,15.254-1.107
				c3.086,1.365,5.232,3.942,6.387,7.662C109.104,55.749,108.996,56.301,108.695,56.724z"/>
		</g>
		<path fill="#EDEDED" stroke="#000000" stroke-miterlimit="10" d="M112.502,70.252l-2.145-3.536
			c-1.709-0.196-3.313-1.147-4.271-2.731c-1.65-2.725-0.781-6.271,1.939-7.92c2.727-1.65,6.271-0.78,7.92,1.94
			c0.832,1.374,1.021,2.958,0.656,4.401l2.254,3.718c1.912-2.927,2.113-6.805,0.18-9.993c-2.686-4.431-8.451-5.845-12.883-3.157
			c-4.43,2.686-5.844,8.453-3.16,12.884C105.033,69.218,108.846,70.837,112.502,70.252z"/>
		<circle fill="#EDEDED" stroke="#000000" stroke-miterlimit="10" cx="107.33" cy="55.33" r="3.94"/>
	</g>
	
		<ellipse transform="matrix(0.4287 0.9035 -0.9035 0.4287 90.7133 -56.4741)" fill="#EDEDED" stroke="#000000" stroke-miterlimit="10" cx="90.009" cy="43.487" rx="4.203" ry="10.426"/>
	<path fill="#EDEDED" stroke="#000000" stroke-miterlimit="10" d="M77.121,66.969c0,0.99-0.804,1.794-1.795,1.794l0,0
		c-0.99,0-1.793-0.804-1.793-1.794v-4.003c0-0.988,0.803-1.793,1.793-1.793l0,0c0.991,0,1.795,0.805,1.795,1.793V66.969z"/>
</g>
</svg>
