<?xml version="1.0" encoding="utf-8"?>
<!-- Generator: Adobe Illustrator 16.0.0, SVG Export Plug-In . SVG Version: 6.00 Build 0)  -->
<!DOCTYPE svg PUBLIC "-//W3C//DTD SVG 1.1//EN" "http://www.w3.org/Graphics/SVG/1.1/DTD/svg11.dtd">
<svg version="1.1" id="robot2_x5F_front" xmlns="http://www.w3.org/2000/svg" xmlns:xlink="http://www.w3.org/1999/xlink" x="0px"
	 y="0px" width="121px" height="99px" viewBox="0 0 121 99" enable-background="new 0 0 121 99" xml:space="preserve">
<ellipse transform="matrix(0.8769 -0.4807 0.4807 0.8769 -35.1955 28.0977)" fill="#635B41" stroke="#000000" stroke-miterlimit="10" cx="37.254" cy="82.756" rx="8.07" ry="11.932"/>
<ellipse transform="matrix(-0.8769 -0.4807 0.4807 -0.8769 122.7206 196.9599)" fill="#635B41" stroke="#000000" stroke-miterlimit="10" cx="86.583" cy="82.765" rx="8.071" ry="11.932"/>
<ellipse fill="#FFC000" stroke="#000000" stroke-miterlimit="10" cx="60.756" cy="64.968" rx="32.615" ry="31.709"/>
<path opacity="0.6" fill="#FFFFFF" d="M60.329,35.987c-9.665,0-18.242,4.528-23.609,11.52c5.025-3.881,11.379-6.206,18.295-6.206
	c16.26,0,29.443,12.816,29.443,28.625c0,6.413-2.17,12.334-5.834,17.105c6.789-5.243,11.147-13.335,11.147-22.419
	C89.771,48.803,76.59,35.987,60.329,35.987z"/>
<path fill="#635B41" stroke="#000000" stroke-miterlimit="10" d="M82.949,82.688c0,1.482-1.206,2.688-2.688,2.688H40.92
	c-1.486,0-2.69-1.204-2.69-2.688V55.788c0-1.485,1.204-2.688,2.69-2.688h39.34c1.482,0,2.688,1.203,2.688,2.688L82.949,82.688
	L82.949,82.688z"/>
<path fill="#091D29" stroke="#000000" stroke-miterlimit="10" d="M80.259,79.916c0,1.57-1.204,2.848-2.69,2.848H43.272
	c-1.485,0-2.69-1.273-2.69-2.848V59.645c0-1.572,1.205-2.849,2.69-2.849h34.296c1.484,0,2.689,1.272,2.689,2.849L80.259,79.916
	L80.259,79.916z"/>
<g>
	
		<ellipse transform="matrix(0.9921 0.1253 -0.1253 0.9921 6.5525 -3.7339)" fill="#474747" stroke="#000000" stroke-miterlimit="10" cx="32.957" cy="50.219" rx="2.151" ry="5.678"/>
	<g>
		<path fill="#B3B3B3" stroke="#000000" stroke-miterlimit="10" d="M12.306,56.725c0.21,0.297,0.518,0.525,0.893,0.644
			c0.908,0.282,1.871-0.228,2.152-1.134c0.856-2.768,2.325-4.575,4.489-5.532c5.14-2.271,12.333,1.043,12.404,1.075
			c0.861,0.404,1.887,0.033,2.29-0.828c0.402-0.856,0.032-1.885-0.829-2.287c-0.351-0.165-8.699-4.006-15.255-1.107
			c-3.086,1.365-5.235,3.942-6.386,7.662C11.898,55.749,12.004,56.301,12.306,56.725z"/>
	</g>
	<path fill="#454545" stroke="#000000" stroke-miterlimit="10" d="M8.499,70.252l2.143-3.536c1.71-0.196,3.313-1.147,4.274-2.731
		c1.65-2.725,0.782-6.271-1.941-7.92c-2.725-1.649-6.27-0.779-7.92,1.94c-0.833,1.374-1.021,2.958-0.657,4.401l-2.253,3.718
		c-1.912-2.927-2.114-6.806-0.18-9.993c2.685-4.431,8.454-5.845,12.882-3.156c4.431,2.686,5.844,8.452,3.161,12.883
		C15.968,69.218,12.156,70.837,8.499,70.252z"/>
	<circle fill="#FFC000" stroke="#000000" stroke-miterlimit="10" cx="13.669" cy="55.33" r="3.939"/>
</g>
<ellipse fill="#D14343" stroke="#000000" stroke-miterlimit="10" cx="50.501" cy="42.393" rx="2.074" ry="2.186"/>
<path fill="#635B41" stroke="#000000" stroke-miterlimit="10" d="M61.766,10.395H40.583l3.699,7.957c0,0,14.57-1.904,14.57,3.476
	c0,0,0.717,5.979-0.806,10.138c-1.939,0.438-3.229,1.204-3.229,2.08c0,1.36,3.111,2.465,6.949,2.465
	c3.838,0,6.949-1.104,6.949-2.465c0-0.876-1.291-1.644-3.229-2.08c-1.522-4.157-0.807-10.138-0.807-10.138
	c0-5.38,14.57-3.476,14.57-3.476l3.697-7.957H61.766z"/>
<circle fill="#A88628" stroke="#000000" stroke-miterlimit="10" cx="43.608" cy="19.025" r="5.94"/>
<circle fill="#A88628" stroke="#000000" stroke-miterlimit="10" cx="82.949" cy="18.352" r="5.829"/>
<circle fill="#FFBD00" stroke="#000000" stroke-miterlimit="10" cx="82.949" cy="18.351" r="4.147"/>
<circle fill="#FFBD00" stroke="#000000" stroke-miterlimit="10" cx="43.608" cy="19.026" r="4.147"/>
<path fill="#FFC000" stroke="#000000" stroke-miterlimit="10" d="M91.252,13.084c0.004-0.074,0.014-0.146,0.014-0.225
	c0-5.818-12.545-10.536-28.02-10.536c-15.477,0-28.021,4.718-28.021,10.536c0,0.075,0.011,0.147,0.015,0.225H91.252z"/>
<ellipse transform="matrix(-0.9035 -0.4286 0.4286 -0.9035 40.3566 96.1473)" fill="#FFC000" stroke="#000000" stroke-miterlimit="10" cx="31.003" cy="43.53" rx="10.424" ry="4.203"/>
<g>
	
		<ellipse transform="matrix(-0.9921 0.1253 -0.1253 -0.9921 181.6817 89.0187)" fill="#474747" stroke="#000000" stroke-miterlimit="10" cx="88.042" cy="50.223" rx="2.151" ry="5.679"/>
	<g>
		<path fill="#B3B3B3" stroke="#000000" stroke-miterlimit="10" d="M108.695,56.725c-0.211,0.297-0.519,0.525-0.894,0.644
			c-0.907,0.282-1.87-0.228-2.151-1.134c-0.854-2.768-2.326-4.575-4.49-5.532c-5.139-2.271-12.332,1.043-12.4,1.075
			c-0.861,0.404-1.891,0.033-2.291-0.828c-0.402-0.856-0.031-1.885,0.83-2.287c0.35-0.165,8.695-4.006,15.254-1.107
			c3.086,1.365,5.232,3.942,6.387,7.662C109.104,55.749,108.996,56.301,108.695,56.725z"/>
	</g>
	<path fill="#454545" stroke="#000000" stroke-miterlimit="10" d="M112.502,70.252l-2.145-3.536
		c-1.709-0.196-3.313-1.147-4.271-2.731c-1.65-2.725-0.781-6.271,1.939-7.92c2.727-1.649,6.271-0.779,7.92,1.94
		c0.832,1.374,1.021,2.958,0.656,4.401l2.254,3.718c1.912-2.927,2.112-6.806,0.18-9.993c-2.686-4.431-8.451-5.845-12.883-3.156
		c-4.43,2.686-5.844,8.452-3.16,12.883C105.033,69.218,108.846,70.837,112.502,70.252z"/>
	<circle fill="#FFC000" stroke="#000000" stroke-miterlimit="10" cx="107.33" cy="55.33" r="3.939"/>
</g>
<ellipse transform="matrix(0.9035 -0.4287 0.4287 0.9035 -9.9542 42.7828)" fill="#FFC000" stroke="#000000" stroke-miterlimit="10" cx="90.01" cy="43.492" rx="10.426" ry="4.203"/>
<ellipse opacity="0.6" fill="#FFFFFF" cx="109.017" cy="54.01" rx="1.201" ry="1.313"/>
<ellipse opacity="0.6" fill="#FFFFFF" cx="15.668" cy="54.01" rx="1.201" ry="1.313"/>
<path opacity="0.3" fill="#FFFFFF" d="M77.913,68.562c0,0.438-0.355,0.793-0.793,0.793l0,0c-0.438,0-0.793-0.355-0.793-0.793v-7.188
	c0-0.438,0.355-0.793,0.793-0.793l0,0c0.438,0,0.793,0.355,0.793,0.793V68.562z"/>
<path opacity="0.5" fill="#0D0D0D" d="M45.194,77.89c0,0.98-0.355,1.778-0.793,1.778l0,0c-0.438,0-0.793-0.798-0.793-1.778V61.768
	c0-0.983,0.355-1.778,0.793-1.778l0,0c0.438,0,0.793,0.795,0.793,1.778V77.89z"/>
<g>
	<defs>
		<path id="SVGID_1_" d="M12.319,54.398c1.299-3.527,3.51-5.903,6.563-7.056c6.484-2.444,14.368,1.715,14.7,1.893
			c0.813,0.436,1.12,1.448,0.688,2.254c-0.433,0.811-1.443,1.115-2.255,0.68c-0.067-0.037-6.861-3.627-11.947-1.709
			c-2.142,0.809-3.653,2.479-4.622,5.104c-0.316,0.863-1.274,1.301-2.139,0.98c-0.357-0.131-0.643-0.371-0.832-0.67
			C12.207,55.449,12.133,54.91,12.319,54.398z"/>
	</defs>
	<clipPath id="SVGID_2_">
		<use xlink:href="#SVGID_1_"  overflow="visible"/>
	</clipPath>
	
		<line clip-path="url(#SVGID_2_)" fill="none" stroke="#4F4F4F" stroke-miterlimit="10" x1="27.396" y1="53.041" x2="27.845" y2="44.216"/>
	
		<line clip-path="url(#SVGID_2_)" fill="none" stroke="#4F4F4F" stroke-miterlimit="10" x1="24.44" y1="52.939" x2="23.775" y2="44.047"/>
	
		<line clip-path="url(#SVGID_2_)" fill="none" stroke="#4F4F4F" stroke-miterlimit="10" x1="21.629" y1="52.641" x2="18.304" y2="45.306"/>
</g>
<g>
	<defs>
		<path id="SVGID_3_" d="M108.526,55.875c-0.189,0.299-0.475,0.539-0.832,0.67c-0.863,0.32-1.822-0.117-2.139-0.98
			c-0.969-2.625-2.479-4.295-4.621-5.104c-5.086-1.918-11.88,1.672-11.947,1.709c-0.813,0.436-1.822,0.131-2.256-0.68
			c-0.432-0.807-0.124-1.818,0.688-2.254c0.333-0.178,8.216-4.337,14.7-1.893c3.053,1.153,5.264,3.528,6.563,7.056
			C108.869,54.91,108.796,55.449,108.526,55.875z"/>
	</defs>
	<clipPath id="SVGID_4_">
		<use xlink:href="#SVGID_3_"  overflow="visible"/>
	</clipPath>
	
		<line clip-path="url(#SVGID_4_)" fill="none" stroke="#4F4F4F" stroke-miterlimit="10" x1="93.606" y1="53.041" x2="93.157" y2="44.216"/>
	
		<line clip-path="url(#SVGID_4_)" fill="none" stroke="#4F4F4F" stroke-miterlimit="10" x1="96.563" y1="52.939" x2="97.228" y2="44.047"/>
	
		<line clip-path="url(#SVGID_4_)" fill="none" stroke="#4F4F4F" stroke-miterlimit="10" x1="99.374" y1="52.641" x2="102.698" y2="45.306"/>
</g>
<circle fill="#FFFFFF" cx="82.947" cy="18.351" r="2.053"/>
<circle fill="#FFFFFF" cx="43.608" cy="19.026" r="2.053"/>
<circle opacity="0.3" fill="#FFF8E6" cx="82.947" cy="18.351" r="4.148"/>
<circle opacity="0.3" fill="#FFF8E6" cx="43.608" cy="19.026" r="4.148"/>
<ellipse fill="#EDEDED" stroke="#000000" stroke-width="0.5" stroke-miterlimit="10" cx="51.249" cy="41.948" rx="0.748" ry="0.776"/>
<path opacity="0.6" fill="#FFFFFF" d="M67.42,4.319c-10.577,0-19.353,2.891-21.057,6.686c3.394-2.747,10.792-4.652,19.379-4.652
	c10.091,0,18.543,2.633,20.776,6.17h2.253c0.003-0.057,0.011-0.112,0.011-0.171C88.782,7.916,79.218,4.319,67.42,4.319z"/>
<path opacity="0.6" fill="#FFFFFF" d="M97.812,39.806c-0.806-1.699-4.874-1.455-9.087,0.544c-1.646,0.781-3.066,1.715-4.144,2.664
	c0.459-0.264,0.939-0.518,1.443-0.756c4.213-1.999,8.281-2.243,9.087-0.544c0.491,1.035-0.347,2.551-2.025,4.03
	C96.463,43.803,98.521,41.301,97.812,39.806z"/>
<path opacity="0.6" fill="#FFFFFF" d="M38.919,45.94c0.537-1.802-2.651-4.341-7.12-5.673c-1.747-0.521-3.427-0.776-4.862-0.791
	c0.518,0.111,1.044,0.244,1.579,0.403c4.469,1.332,7.656,3.872,7.119,5.673c-0.327,1.098-1.964,1.665-4.202,1.641
	C35.243,48.009,38.446,47.527,38.919,45.94z"/>
<polygon opacity="0.5" fill="#423C2B" points="46.363,13.085 48.883,16.298 77.12,16.298 79.667,13.085 "/>
</svg>
