<?xml version="1.0" encoding="utf-8"?>
<!-- Generator: Adobe Illustrator 16.0.0, SVG Export Plug-In . SVG Version: 6.00 Build 0)  -->
<!DOCTYPE svg PUBLIC "-//W3C//DTD SVG 1.1//EN" "http://www.w3.org/Graphics/SVG/1.1/DTD/svg11.dtd">
<svg version="1.1" id="robot4_x5F_back" xmlns="http://www.w3.org/2000/svg" xmlns:xlink="http://www.w3.org/1999/xlink" x="0px"
	 y="0px" width="112px" height="98px" viewBox="0 0 112 98" enable-background="new 0 0 112 98" xml:space="preserve">
<g>
	<g>
		<path fill="#EDEDED" stroke="#000000" stroke-miterlimit="10" d="M81.624,36.489c-0.559,2.998-0.092,5.596,1.047,5.807
			c1.135,0.214,2.506-2.044,3.061-5.039c0.561-2.996,0.09-5.597-1.045-5.809S82.181,33.493,81.624,36.489z"/>
		<g>
			<path fill="#EDEDED" stroke="#000000" stroke-miterlimit="10" d="M100.876,49.008c-0.281,0.215-0.639,0.336-1.02,0.33
				c-0.922-0.008-1.662-0.763-1.654-1.688c0.025-2.813-0.797-4.921-2.518-6.445c-4.082-3.624-11.719-2.686-11.793-2.677
				c-0.918,0.119-1.756-0.526-1.873-1.442c-0.119-0.913,0.527-1.754,1.443-1.871c0.373-0.049,9.23-1.132,14.439,3.489
				c2.451,2.176,3.676,5.196,3.643,8.979C101.542,48.226,101.28,48.704,100.876,49.008z"/>
		</g>
		<path fill="#EDEDED" stroke="#000000" stroke-miterlimit="10" d="M100.396,62.65l-0.936-3.906
			c-1.523-0.688-2.73-2.043-3.146-3.793c-0.721-3.008,1.131-6.031,4.139-6.754c3.014-0.722,6.033,1.135,6.756,4.141
			c0.361,1.521,0.066,3.041-0.695,4.27l0.984,4.107c2.637-2.145,3.971-5.672,3.121-9.193c-1.172-4.895-6.092-7.907-10.98-6.735
			c-4.896,1.174-7.91,6.095-6.736,10.985C93.792,59.484,96.839,62.109,100.396,62.65z"/>
		<circle fill="#EDEDED" stroke="#000000" stroke-miterlimit="10" cx="100.026" cy="47.313" r="3.828"/>
	</g>
	<path fill="#EDEDED" stroke="#000000" stroke-miterlimit="10" d="M80.671,33.462c0,1.522,1.232,2.761,2.76,2.761h4.941
		c1.521,0,2.76-1.235,2.76-2.761v-0.229c0-1.522-1.236-2.759-2.76-2.759h-4.941c-1.523,0-2.76,1.233-2.76,2.759V33.462z"/>
	<g>
		<path fill="#EDEDED" stroke="#000000" stroke-miterlimit="10" d="M30.375,36.489c0.557,2.998,0.088,5.596-1.051,5.807
			c-1.133,0.214-2.504-2.044-3.063-5.039c-0.557-2.996-0.088-5.597,1.047-5.809C28.447,31.236,29.818,33.493,30.375,36.489z"/>
		<g>
			<path fill="#EDEDED" stroke="#000000" stroke-miterlimit="10" d="M11.121,49.008c0.283,0.215,0.639,0.336,1.02,0.33
				c0.924-0.008,1.664-0.763,1.656-1.688c-0.025-2.813,0.797-4.921,2.518-6.445c4.082-3.624,11.719-2.686,11.793-2.677
				c0.918,0.119,1.756-0.526,1.873-1.442c0.119-0.913-0.525-1.754-1.441-1.871c-0.375-0.049-9.234-1.132-14.441,3.489
				c-2.451,2.176-3.676,5.196-3.645,8.979C10.455,48.226,10.719,48.704,11.121,49.008z"/>
		</g>
		<path fill="#EDEDED" stroke="#000000" stroke-miterlimit="10" d="M11.604,62.65l0.938-3.906c1.521-0.688,2.727-2.043,3.145-3.793
			c0.723-3.008-1.131-6.031-4.139-6.754c-3.012-0.722-6.031,1.135-6.752,4.141c-0.363,1.521-0.07,3.041,0.691,4.27l-0.98,4.107
			c-2.639-2.145-3.973-5.672-3.125-9.193c1.174-4.895,6.094-7.907,10.98-6.735c4.896,1.174,7.91,6.095,6.736,10.985
			C18.205,59.484,15.16,62.109,11.604,62.65z"/>
		<circle fill="#EDEDED" stroke="#000000" stroke-miterlimit="10" cx="11.971" cy="47.313" r="3.828"/>
	</g>
	<path fill="#EDEDED" stroke="#000000" stroke-miterlimit="10" d="M31.326,33.462c0,1.522-1.232,2.761-2.758,2.761h-4.939
		c-1.523,0-2.762-1.235-2.762-2.761v-0.229c0-1.522,1.234-2.759,2.762-2.759h4.939c1.523,0,2.758,1.233,2.758,2.759V33.462z"/>
	<path fill="#EDEDED" stroke="#000000" stroke-miterlimit="10" d="M71.257,1.666H40.705c-4.135,0-7.48,3.352-7.48,7.481v6.988
		c0,3.858,10.188,6.987,22.758,6.987c12.569,0,22.757-3.129,22.757-6.987V9.147C78.739,5.016,75.39,1.666,71.257,1.666z"/>
	<polygon fill="#EDEDED" stroke="#000000" stroke-miterlimit="10" points="54.895,90.574 54.895,96.334 60.065,96.334 
		60.065,89.209 56.217,89.209 60.065,69.209 49.723,69.209 	"/>
	<ellipse fill="#EDEDED" stroke="#000000" stroke-miterlimit="10" cx="60.065" cy="74.942" rx="5.061" ry="6.563"/>
	<path fill="#EDEDED" stroke="#000000" stroke-miterlimit="10" d="M85.81,56.311c0,7.619-6.176,13.795-13.793,13.795H39.947
		c-7.617,0-13.793-6.176-13.793-13.795V30.124c0-7.615,6.176-13.793,13.793-13.793h32.069c7.617,0,13.793,6.178,13.793,13.793
		V56.311z"/>
	<path fill="#EDEDED" stroke="#000000" stroke-miterlimit="10" d="M78.339,51.623c0,1.523-1.236,2.76-2.76,2.76H38.223
		c-1.523,0-2.758-1.234-2.758-2.76V31.737c0-1.521,1.232-2.759,2.758-2.759h37.356c1.521,0,2.76,1.233,2.76,2.759V51.623z"/>
	<path fill="#EDEDED" stroke="#000000" stroke-miterlimit="10" d="M75.351,49.555c0,1.521-1.236,2.758-2.76,2.758H41.441
		c-1.52,0-2.758-1.232-2.758-2.758v-15.52c0-1.521,1.234-2.76,2.758-2.76h31.149c1.521,0,2.76,1.233,2.76,2.76V49.555z"/>
	<path fill="#EDEDED" stroke="#000000" stroke-miterlimit="10" d="M73.05,37.657c0,0.479-0.385,0.862-0.861,0.862l0,0
		c-0.477,0-0.863-0.386-0.863-0.862V34.21c0-0.477,0.391-0.86,0.863-0.86l0,0c0.479,0,0.861,0.387,0.861,0.86V37.657z"/>
</g>
</svg>
