<?xml version="1.0" encoding="utf-8"?>
<!-- Generator: Adobe Illustrator 16.0.0, SVG Export Plug-In . SVG Version: 6.00 Build 0)  -->
<!DOCTYPE svg PUBLIC "-//W3C//DTD SVG 1.1//EN" "http://www.w3.org/Graphics/SVG/1.1/DTD/svg11.dtd">
<svg version="1.1" id="robot3_x5F_side" xmlns="http://www.w3.org/2000/svg" xmlns:xlink="http://www.w3.org/1999/xlink" x="0px"
	 y="0px" width="90px" height="105px" viewBox="0 0 90 105" enable-background="new 0 0 90 105" xml:space="preserve">
<g>
	<g>
		<path fill="#DE6B00" stroke="#000000" stroke-miterlimit="10" d="M69.248,79.551c0,13.395-10.855,24.246-24.248,24.246l0,0
			c-13.392,0-24.248-10.854-24.248-24.246V25.45C20.752,12.056,31.607,1.203,45,1.203l0,0c13.391,0,24.248,10.854,24.248,24.247
			V79.551z"/>
		<path opacity="0.3" fill="#FFFFFF" d="M46.106,4.727c-1.352,0-2.673,0.126-3.958,0.353c10.583,1.872,18.624,11.107,18.624,22.229
			v50.384c0,11.123-8.04,20.355-18.623,22.229c1.286,0.228,2.606,0.353,3.958,0.353c12.473,0,22.582-10.106,22.582-22.581V27.309
			C68.688,14.835,58.579,4.727,46.106,4.727z"/>
		<path opacity="0.3" fill="none" stroke="#FFFFFF" stroke-width="0.75" stroke-miterlimit="10" d="M22.172,31.059
			c0,0,30.461-6.459,48.495,1.339"/>
		<path opacity="0.3" fill="none" stroke="#FFFFFF" stroke-width="0.75" stroke-miterlimit="10" d="M22.172,45.53
			c0,0,30.461-6.459,48.495,1.341"/>
		<path fill="#635B41" stroke="#000000" stroke-miterlimit="10" d="M22.5,79.674c0,1.613-0.125,2.924-0.278,2.924h-2.94
			c-0.153,0-0.278-1.311-0.278-2.924V55.426c0-1.615,0.125-2.926,0.278-2.926h2.94c0.153,0,0.278,1.311,0.278,2.926V79.674z"/>
		<path fill="#635B41" stroke="#000000" stroke-miterlimit="10" d="M70.996,79.674c0,1.613-0.125,2.924-0.277,2.924h-2.941
			c-0.151,0-0.276-1.311-0.276-2.924V55.426c0-1.615,0.125-2.926,0.276-2.926h2.941c0.152,0,0.277,1.311,0.277,2.926V79.674z"/>
		<path fill="none" stroke="#000000" stroke-miterlimit="10" d="M20.753,30.325c0,0,30.462-6.459,48.495,1.339"/>
		<path fill="none" stroke="#000000" stroke-miterlimit="10" d="M20.753,44.796c0,0,30.462-6.459,48.495,1.341"/>
		
			<ellipse transform="matrix(-0.9603 0.2791 -0.2791 -0.9603 98.3885 76.8522)" fill="#474747" stroke="#000000" stroke-miterlimit="10" cx="43.723" cy="45.431" rx="8.042" ry="7.981"/>
		<g>
			<g>
				<path fill="#B3B3B3" stroke="#000000" stroke-miterlimit="10" d="M39.884,70.043c0.297-0.072,0.573-0.242,0.778-0.504
					c0.5-0.625,0.401-1.535-0.226-2.039c-1.905-1.523-2.874-3.229-2.962-5.223c-0.204-4.732,4.609-9.355,4.66-9.403
					c0.581-0.551,0.606-1.47,0.054-2.051c-0.549-0.579-1.468-0.605-2.049-0.053c-0.238,0.224-5.817,5.595-5.56,11.628
					c0.122,2.84,1.481,5.319,4.048,7.365C38.995,70.063,39.458,70.148,39.884,70.043z"/>
			</g>
			<path fill="#474747" stroke="#000000" stroke-miterlimit="10" d="M49.326,77.188l-2.115-2.766
				c0.367-1.402,0.117-2.955-0.834-4.195c-1.627-2.129-4.674-2.541-6.806-0.91c-2.132,1.634-2.54,4.681-0.912,6.812
				c0.822,1.076,2.006,1.709,3.251,1.869l2.225,2.907c-2.885,0.603-5.989-0.432-7.897-2.932c-2.651-3.467-1.986-8.428,1.482-11.078
				c3.47-2.649,8.43-1.985,11.083,1.482C50.811,71.012,50.91,74.502,49.326,77.188z"/>
			<circle fill="#DE6B00" stroke="#000000" stroke-miterlimit="10" cx="39.209" cy="68.545" r="3.318"/>
		</g>
	</g>
	<path fill="#333333" stroke="#000000" stroke-miterlimit="10" d="M69.248,25.45c0-3.733-0.846-7.268-2.352-10.427h-4.099
		c-4.844,0-8.771,3.93-8.771,8.773v8.771h15.22L69.248,25.45L69.248,25.45z"/>
	<circle fill="#EDEDED" stroke="#000000" stroke-miterlimit="10" cx="62.313" cy="26.23" r="4.143"/>
</g>
<g>
	<circle fill="#E2FF21" stroke="#000000" stroke-miterlimit="10" cx="62.313" cy="26.23" r="4.143"/>
	<circle fill="#FFFFFF" cx="63.875" cy="26.23" r="1.925"/>
</g>
<g>
	<defs>
		<path id="SVGID_1_" d="M38.96,70.958c-2.955-2.322-4.534-5.158-4.689-8.419c-0.327-6.922,6.058-13.14,6.33-13.402
			c0.664-0.638,1.721-0.618,2.356,0.041c0.637,0.662,0.616,1.717-0.05,2.355c-0.056,0.053-5.564,5.409-5.306,10.837
			c0.11,2.289,1.232,4.24,3.432,5.972c0.724,0.566,0.846,1.612,0.273,2.337c-0.235,0.298-0.552,0.496-0.893,0.584
			C39.927,71.387,39.39,71.292,38.96,70.958z"/>
	</defs>
	<clipPath id="SVGID_2_">
		<use xlink:href="#SVGID_1_"  overflow="visible"/>
	</clipPath>
	
		<line clip-path="url(#SVGID_2_)" fill="none" stroke="#4F4F4F" stroke-miterlimit="10" x1="42.315" y1="56.194" x2="34.058" y2="53.05"/>
	
		<line clip-path="url(#SVGID_2_)" fill="none" stroke="#4F4F4F" stroke-miterlimit="10" x1="41.307" y1="58.976" x2="32.643" y2="56.87"/>
	
		<line clip-path="url(#SVGID_2_)" fill="none" stroke="#4F4F4F" stroke-miterlimit="10" x1="40.156" y1="61.558" x2="32.155" y2="62.462"/>
</g>
<circle opacity="0.3" fill="#FFFFFF" cx="62.313" cy="26.23" r="4.077"/>
<ellipse opacity="0.6" fill="#FFFFFF" cx="40.436" cy="67.549" rx="1.201" ry="1.313"/>
</svg>
