<?xml version="1.0" encoding="utf-8"?>
<!-- Generator: Adobe Illustrator 16.0.0, SVG Export Plug-In . SVG Version: 6.00 Build 0)  -->
<!DOCTYPE svg PUBLIC "-//W3C//DTD SVG 1.1//EN" "http://www.w3.org/Graphics/SVG/1.1/DTD/svg11.dtd">
<svg version="1.1" id="robot4_x5F_side" xmlns="http://www.w3.org/2000/svg" xmlns:xlink="http://www.w3.org/1999/xlink" x="0px"
	 y="0px" width="112px" height="98px" viewBox="0 0 112 98" enable-background="new 0 0 112 98" xml:space="preserve">
<g>
	<path fill="#728C00" stroke="#000000" stroke-miterlimit="10" d="M71.339,1.446H40.786c-4.135,0-7.48,3.352-7.48,7.481v6.988
		c0,3.858,10.188,6.987,22.758,6.987s22.758-3.129,22.758-6.987V8.928C78.82,4.796,75.473,1.446,71.339,1.446z"/>
	<path opacity="0.3" fill="#FFFFFF" enable-background="new    " d="M71.874,3.275H46.02c-2.196,0-4.129,1.118-5.264,2.814
		c0.752-0.314,1.576-0.49,2.443-0.49h25.854c3.497,0,6.332,2.835,6.333,6.331v5.913c0,0.29-0.071,0.574-0.203,0.854
		c1.911-0.918,3.023-2.008,3.023-3.178V9.606C78.206,6.11,75.371,3.275,71.874,3.275z"/>
	<polygon fill="#B3B3B3" stroke="#000000" stroke-miterlimit="10" points="54.976,90.354 54.976,96.113 60.146,96.113 
		60.146,88.988 56.298,88.988 60.146,68.988 49.804,68.988 	"/>
	<ellipse fill="#728C00" stroke="#000000" stroke-miterlimit="10" cx="55.315" cy="75.388" rx="5.574" ry="7.229"/>
	<path opacity="0.3" fill="#FFFFFF" enable-background="new    " d="M59.5,76.221c0.729-3.033-0.207-5.866-2.092-6.325
		c-0.518-0.126-1.053-0.056-1.57,0.169c1.744,0.611,2.588,3.337,1.886,6.257c-0.53,2.202-1.792,3.898-3.164,4.491
		c0.067,0.024,0.135,0.052,0.205,0.068C56.65,81.342,58.77,79.256,59.5,76.221z"/>
	<path fill="#728C00" stroke="#000000" stroke-miterlimit="10" d="M85.893,56.091c0,7.619-6.177,13.796-13.793,13.796H40.029
		c-7.617,0-13.793-6.177-13.793-13.796V29.904c0-7.615,6.176-13.793,13.793-13.793H72.1c7.616,0,13.793,6.178,13.793,13.793V56.091z
		"/>
	<path opacity="0.3" fill="#FFFFFF" enable-background="new    " d="M72.271,17.927H42.947c-3.458,0-6.588,1.394-8.867,3.648
		c1.549-0.68,3.258-1.063,5.057-1.063h29.324c6.966,0,12.611,5.649,12.611,12.612v23.944c0,3.508-1.433,6.68-3.744,8.965
		c4.446-1.95,7.555-6.385,7.555-11.551V30.538C84.883,23.575,79.236,17.927,72.271,17.927z"/>
	<path fill="#635B41" stroke="#000000" stroke-miterlimit="10" d="M27.469,51.402c0,1.523-0.079,2.761-0.175,2.761h-2.371
		c-0.097,0-0.175-1.233-0.175-2.761V31.518c0-1.521,0.078-2.759,0.175-2.759h2.371c0.097,0,0.175,1.233,0.175,2.759V51.402z"/>
	<path fill="#635B41" stroke="#000000" stroke-miterlimit="10" d="M87.253,51.402c0,1.523-0.079,2.761-0.176,2.761h-2.371
		c-0.097,0-0.177-1.233-0.177-2.761V31.518c0-1.521,0.078-2.759,0.177-2.759h2.371c0.097,0,0.176,1.233,0.176,2.759V51.402z"/>
	<rect x="54.976" y="88.354" fill="#728C00" stroke="#000000" stroke-miterlimit="10" width="5.172" height="8.201"/>
	<g>
		<path fill="#474747" stroke="#000000" stroke-miterlimit="10" d="M60.385,38.508c-0.33,2.654-2.201,4.001-4.19,3.009
			c-1.98-0.985-3.321-3.938-2.998-6.591c0.329-2.652,2.201-4.003,4.184-3.015C59.37,32.904,60.712,35.854,60.385,38.508z"/>
		<g>
			<path fill="#B3B3B3" stroke="#000000" stroke-miterlimit="10" d="M45.257,53.415c0.342,0.101,0.717,0.084,1.07-0.058
				c0.859-0.34,1.279-1.311,0.94-2.17c-1.034-2.616-1.023-4.879,0.035-6.919c2.508-4.849,9.974-6.715,10.046-6.733
				c0.898-0.219,1.449-1.121,1.229-2.019c-0.217-0.895-1.119-1.448-2.018-1.229c-0.368,0.089-9.024,2.26-12.225,8.442
				c-1.506,2.91-1.565,6.169-0.177,9.69C44.355,52.925,44.773,53.275,45.257,53.415z"/>
		</g>
		<path fill="#474747" stroke="#000000" stroke-miterlimit="10" d="M50.606,65.975l-0.527-3.98c1.173-1.188,1.811-2.887,1.573-4.67
			c-0.405-3.066-3.221-5.223-6.288-4.816c-3.07,0.408-5.222,3.225-4.815,6.289c0.207,1.549,1.026,2.863,2.178,3.736l0.56,4.186
			c-3.232-1.055-5.745-3.867-6.218-7.459c-0.662-4.988,2.848-9.566,7.83-10.229c4.991-0.663,9.571,2.848,10.231,7.834
			C55.63,60.648,53.731,64.193,50.606,65.975z"/>
		<circle fill="#728C00" stroke="#000000" stroke-miterlimit="10" cx="45.442" cy="51.528" r="3.827"/>
	</g>
	<path fill="#728C00" stroke="#000000" stroke-miterlimit="10" d="M62.07,33.242c0,1.522-1.231,2.761-2.758,2.761h-4.939
		c-1.523,0-2.762-1.235-2.762-2.761v-0.229c0-1.522,1.234-2.759,2.762-2.759h4.939c1.523,0,2.758,1.233,2.758,2.759V33.242z"/>
</g>
<g>
	<g>
		<defs>
			<path id="SVGID_1_" d="M43.127,51.586c-1.019-3.616-0.623-6.839,1.173-9.564c3.813-5.784,12.64-7.045,13.012-7.097
				c0.912-0.124,1.754,0.514,1.881,1.421c0.123,0.91-0.516,1.751-1.43,1.875c-0.076,0.01-7.681,1.091-10.674,5.628
				c-1.258,1.914-1.501,4.152-0.747,6.848c0.253,0.883-0.265,1.801-1.153,2.047c-0.368,0.104-0.739,0.076-1.069-0.053
				C43.653,52.506,43.275,52.111,43.127,51.586z"/>
		</defs>
		<clipPath id="SVGID_2_">
			<use xlink:href="#SVGID_1_"  overflow="visible"/>
		</clipPath>
		
			<line clip-path="url(#SVGID_2_)" fill="none" stroke="#4F4F4F" stroke-miterlimit="10" x1="49.718" y1="34.23" x2="54.535" y2="41.639"/>
	</g>
	<g>
		<defs>
			<path id="SVGID_3_" d="M43.127,51.586c-1.019-3.616-0.623-6.839,1.173-9.564c3.813-5.784,12.64-7.045,13.012-7.097
				c0.912-0.124,1.754,0.514,1.881,1.421c0.123,0.91-0.516,1.751-1.43,1.875c-0.076,0.01-7.681,1.091-10.674,5.628
				c-1.258,1.914-1.501,4.152-0.747,6.848c0.253,0.883-0.265,1.801-1.153,2.047c-0.368,0.104-0.739,0.076-1.069-0.053
				C43.653,52.506,43.275,52.111,43.127,51.586z"/>
		</defs>
		<clipPath id="SVGID_4_">
			<use xlink:href="#SVGID_3_"  overflow="visible"/>
		</clipPath>
		
			<line clip-path="url(#SVGID_4_)" fill="none" stroke="#4F4F4F" stroke-miterlimit="10" x1="46.324" y1="36.484" x2="52.082" y2="43.292"/>
	</g>
	<g>
		<defs>
			<path id="SVGID_5_" d="M43.127,51.586c-1.019-3.616-0.623-6.839,1.173-9.564c3.813-5.784,12.64-7.045,13.012-7.097
				c0.912-0.124,1.754,0.514,1.881,1.421c0.123,0.91-0.516,1.751-1.43,1.875c-0.076,0.01-7.681,1.091-10.674,5.628
				c-1.258,1.914-1.501,4.152-0.747,6.848c0.253,0.883-0.265,1.801-1.153,2.047c-0.368,0.104-0.739,0.076-1.069-0.053
				C43.653,52.506,43.275,52.111,43.127,51.586z"/>
		</defs>
		<clipPath id="SVGID_6_">
			<use xlink:href="#SVGID_5_"  overflow="visible"/>
		</clipPath>
		
			<line clip-path="url(#SVGID_6_)" fill="none" stroke="#4F4F4F" stroke-miterlimit="10" x1="42.635" y1="40.714" x2="49.633" y2="44.7"/>
	</g>
</g>
<path opacity="0.6" fill="#FFFFFF" enable-background="new    " d="M58.792,30.598H54.79c-1.232,0-2.232,0.998-2.232,2.232v0.186
	c0,0.243,0.048,0.472,0.12,0.692c0.293-0.893,1.123-1.542,2.112-1.542h4.002c0.99,0,1.819,0.65,2.112,1.542
	c0.071-0.219,0.12-0.449,0.12-0.692v-0.186C61.024,31.599,60.024,30.598,58.792,30.598z"/>
<ellipse opacity="0.6" fill="#FFFFFF" enable-background="new    " cx="46.644" cy="50.312" rx="1.201" ry="1.313"/>
<rect x="56.619" y="89.225" opacity="0.3" fill="#FFFFFF" enable-background="new    " width="2.594" height="1.417"/>
</svg>
