<?xml version="1.0" encoding="utf-8"?>
<!-- Generator: Adobe Illustrator 16.0.0, SVG Export Plug-In . SVG Version: 6.00 Build 0)  -->
<!DOCTYPE svg PUBLIC "-//W3C//DTD SVG 1.1//EN" "http://www.w3.org/Graphics/SVG/1.1/DTD/svg11.dtd">
<svg version="1.1" id="robot4_x5F_front" xmlns="http://www.w3.org/2000/svg" xmlns:xlink="http://www.w3.org/1999/xlink" x="0px"
	 y="0px" width="112px" height="98px" viewBox="0 0 112 98" enable-background="new 0 0 112 98" xml:space="preserve">
<g>
	<polygon fill="#B3B3B3" stroke="#000000" stroke-miterlimit="10" points="59.027,69.209 48.683,69.209 52.533,89.209 
		48.683,89.209 48.683,96.334 53.855,96.334 53.855,90.574 	"/>
	<ellipse fill="#728C00" stroke="#000000" stroke-miterlimit="10" cx="48.683" cy="74.943" rx="5.058" ry="6.564"/>
	<path opacity="0.3" fill="#FFFFFF" enable-background="new    " d="M52.561,75.775c0.729-3.033-0.207-5.866-2.092-6.325
		c-0.518-0.126-1.053-0.056-1.57,0.169c1.744,0.611,2.588,3.337,1.886,6.257c-0.531,2.202-1.792,3.898-3.164,4.491
		c0.068,0.024,0.135,0.052,0.205,0.068C49.711,80.896,51.83,78.811,52.561,75.775z"/>
	<path fill="#728C00" stroke="#000000" stroke-miterlimit="10" d="M85.809,56.311c0,7.619-6.174,13.795-13.793,13.795h-32.07
		c-7.617,0-13.793-6.176-13.793-13.795V30.124c0-7.615,6.176-13.793,13.793-13.793h32.07c7.618,0,13.793,6.178,13.793,13.793V56.311
		L85.809,56.311z"/>
	<path opacity="0.3" fill="#FFFFFF" enable-background="new    " d="M71.055,18.493H41.73c-3.458,0-6.588,1.394-8.867,3.648
		c1.549-0.68,3.258-1.063,5.057-1.063h29.324c6.966,0,12.611,5.649,12.611,12.612v23.944c0,3.508-1.433,6.68-3.744,8.965
		c4.446-1.95,7.555-6.385,7.555-11.551V31.104C83.666,24.142,78.02,18.493,71.055,18.493z"/>
	<path fill="#635B41" stroke="#000000" stroke-miterlimit="10" d="M78.338,51.623c0,1.523-1.234,2.76-2.758,2.76H38.223
		c-1.523,0-2.759-1.234-2.759-2.76V31.737c0-1.521,1.232-2.759,2.759-2.759H75.58c1.52,0,2.758,1.233,2.758,2.759V51.623
		L78.338,51.623z"/>
	<path fill="#091D29" stroke="#000000" stroke-miterlimit="10" d="M75.35,49.555c0,1.521-1.233,2.758-2.758,2.758h-31.15
		c-1.521,0-2.759-1.231-2.759-2.758v-15.52c0-1.521,1.235-2.76,2.759-2.76h31.15c1.52,0,2.758,1.235,2.758,2.76V49.555z"/>
	<path fill="#728C00" stroke="#000000" stroke-miterlimit="10" d="M71.258,1.666H40.705c-4.135,0-7.481,3.352-7.481,7.481v6.988
		c0,3.858,10.188,6.987,22.758,6.987c12.569,0,22.759-3.129,22.759-6.987V9.147C78.74,5.016,75.391,1.666,71.258,1.666z"/>
	<path opacity="0.3" fill="#FFFFFF" enable-background="new    " d="M70.657,3.841H44.803c-2.197,0-4.129,1.118-5.264,2.814
		c0.752-0.314,1.577-0.49,2.444-0.49h25.854c3.497,0,6.332,2.835,6.333,6.331v5.913c0,0.29-0.071,0.574-0.203,0.854
		c1.911-0.918,3.023-2.008,3.023-3.178v-5.913C76.989,6.677,74.154,3.841,70.657,3.841z"/>
	<path fill="#333333" stroke="#000000" stroke-miterlimit="10" d="M75.018,11.902c0,2.238-1.646,4.054-3.676,4.054H41.36
		c-2.028,0-3.676-1.813-3.676-4.054l0,0c0-2.237,1.646-4.053,3.676-4.053h29.981C73.371,7.85,75.018,9.664,75.018,11.902
		L75.018,11.902z"/>
	<circle fill="#69FF54" stroke="#000000" stroke-miterlimit="10" cx="47.512" cy="10.551" r="2.702"/>
	<circle fill="#69FF54" stroke="#000000" stroke-miterlimit="10" cx="66.441" cy="10.551" r="2.702"/>
	<g>
		<path fill="#474747" stroke="#000000" stroke-miterlimit="10" d="M30.374,36.489c0.557,2.998,0.088,5.596-1.05,5.807
			c-1.134,0.214-2.505-2.044-3.063-5.038c-0.557-2.997-0.088-5.598,1.046-5.81C28.446,31.236,29.817,33.493,30.374,36.489z"/>
		<g>
			<path fill="#B3B3B3" stroke="#000000" stroke-miterlimit="10" d="M11.121,49.007c0.282,0.215,0.639,0.337,1.02,0.331
				c0.924-0.009,1.664-0.763,1.655-1.688c-0.025-2.813,0.798-4.921,2.518-6.445c4.082-3.624,11.72-2.686,11.793-2.677
				c0.918,0.119,1.756-0.526,1.873-1.442c0.119-0.913-0.524-1.754-1.44-1.869c-0.375-0.051-9.234-1.134-14.442,3.487
				c-2.45,2.176-3.676,5.196-3.644,8.979C10.455,48.226,10.718,48.704,11.121,49.007z"/>
		</g>
		<path fill="#474747" stroke="#000000" stroke-miterlimit="10" d="M11.603,62.65l0.938-3.906c1.521-0.688,2.727-2.043,3.145-3.793
			c0.723-3.008-1.131-6.031-4.139-6.754c-3.012-0.722-6.031,1.134-6.753,4.141c-0.363,1.521-0.069,3.041,0.692,4.27l-0.981,4.107
			c-2.638-2.145-3.973-5.672-3.124-9.193c1.173-4.895,6.093-7.906,10.98-6.734c4.896,1.174,7.909,6.095,6.736,10.984
			C18.205,59.484,15.159,62.109,11.603,62.65z"/>
		<circle fill="#728C00" stroke="#000000" stroke-miterlimit="10" cx="11.971" cy="47.313" r="3.828"/>
	</g>
	<path fill="#728C00" stroke="#000000" stroke-miterlimit="10" d="M31.326,33.462c0,1.522-1.232,2.761-2.759,2.761h-4.939
		c-1.523,0-2.762-1.235-2.762-2.761v-0.229c0-1.522,1.235-2.759,2.762-2.759h4.939c1.523,0,2.759,1.233,2.759,2.759V33.462z"/>
	<g>
		<path fill="#474747" stroke="#000000" stroke-miterlimit="10" d="M81.623,36.489c-0.559,2.998-0.09,5.596,1.047,5.807
			c1.135,0.214,2.506-2.044,3.063-5.038c0.562-2.997,0.088-5.598-1.045-5.81C83.551,31.236,82.18,33.493,81.623,36.489z"/>
		<g>
			<path fill="#B3B3B3" stroke="#000000" stroke-miterlimit="10" d="M100.877,49.007c-0.283,0.215-0.639,0.337-1.02,0.331
				c-0.924-0.009-1.664-0.763-1.656-1.688c0.027-2.813-0.797-4.921-2.516-6.445c-4.084-3.624-11.722-2.686-11.795-2.677
				c-0.916,0.119-1.757-0.526-1.873-1.442c-0.119-0.913,0.526-1.754,1.442-1.869c0.375-0.051,9.231-1.134,14.438,3.487
				c2.451,2.176,3.679,5.196,3.646,8.979C101.543,48.226,101.281,48.704,100.877,49.007z"/>
		</g>
		<path fill="#474747" stroke="#000000" stroke-miterlimit="10" d="M100.396,62.65l-0.938-3.906
			c-1.522-0.688-2.729-2.043-3.146-3.793c-0.722-3.008,1.133-6.031,4.141-6.754c3.012-0.722,6.031,1.134,6.756,4.141
			c0.359,1.521,0.066,3.041-0.695,4.27l0.984,4.107c2.635-2.145,3.969-5.672,3.121-9.193c-1.174-4.895-6.092-7.906-10.98-6.734
			c-4.896,1.174-7.91,6.095-6.736,10.984C93.791,59.484,96.84,62.109,100.396,62.65z"/>
		<circle fill="#728C00" stroke="#000000" stroke-miterlimit="10" cx="100.027" cy="47.313" r="3.828"/>
	</g>
	<path fill="#728C00" stroke="#000000" stroke-miterlimit="10" d="M80.672,33.462c0,1.522,1.232,2.761,2.758,2.761h4.943
		c1.52,0,2.758-1.235,2.758-2.761v-0.229c0-1.522-1.234-2.759-2.758-2.759H83.43c-1.522,0-2.758,1.233-2.758,2.759V33.462z"/>
	<path opacity="0.6" fill="#FFFFFF" enable-background="new    " d="M88.323,30.962h-4.002c-1.232,0-2.232,0.998-2.232,2.232v0.186
		c0,0.243,0.048,0.472,0.12,0.692c0.293-0.893,1.123-1.542,2.112-1.542h4.002c0.99,0,1.819,0.65,2.112,1.542
		c0.071-0.219,0.12-0.449,0.12-0.692v-0.186C90.556,31.963,89.556,30.962,88.323,30.962z"/>
	<path opacity="0.6" fill="#FFFFFF" enable-background="new    " d="M28.027,30.962h-4.002c-1.232,0-2.232,0.998-2.232,2.232v0.186
		c0,0.243,0.048,0.472,0.12,0.692c0.293-0.893,1.123-1.542,2.112-1.542h4.002c0.99,0,1.819,0.65,2.112,1.542
		c0.071-0.219,0.12-0.449,0.12-0.692v-0.186C30.26,31.963,29.26,30.962,28.027,30.962z"/>
	<path fill="#00E6FF" stroke="#000000" stroke-miterlimit="10" d="M59.266,19.085c0,0.479-0.387,0.865-0.865,0.865h-2.554
		c-0.479,0-0.865-0.389-0.865-0.865l0,0c0-0.479,0.388-0.863,0.865-0.863H58.4C58.879,18.22,59.266,18.607,59.266,19.085
		L59.266,19.085z"/>
</g>
<path opacity="0.3" fill="#FFFFFF" enable-background="new    " d="M72.92,41.754c0,0.438-0.355,0.793-0.793,0.793l0,0
	c-0.438,0-0.793-0.355-0.793-0.793v-7.188c0-0.438,0.355-0.793,0.793-0.793l0,0c0.438,0,0.793,0.354,0.793,0.793V41.754z"/>
<g>
	<g>
		<defs>
			<path id="SVGID_1_" d="M101.731,48.993c-0.284,0.211-0.636,0.334-1.018,0.331c-0.922-0.006-1.661-0.756-1.648-1.675
				c0.023-2.799-0.797-4.896-2.512-6.414c-4.075-3.597-11.699-2.651-11.775-2.641c-0.914,0.119-1.75-0.526-1.869-1.437
				c-0.115-0.908,0.53-1.744,1.443-1.863c0.373-0.047,9.222-1.138,14.415,3.447c2.445,2.161,3.671,5.167,3.633,8.925
				C102.395,48.213,102.134,48.692,101.731,48.993z"/>
		</defs>
		<clipPath id="SVGID_2_">
			<use xlink:href="#SVGID_1_"  overflow="visible"/>
		</clipPath>
		
			<line clip-path="url(#SVGID_2_)" fill="none" stroke="#4F4F4F" stroke-miterlimit="10" x1="88.788" y1="41.049" x2="91.5" y2="32.639"/>
	</g>
	<g>
		<defs>
			<path id="SVGID_3_" d="M101.731,48.993c-0.284,0.211-0.636,0.334-1.018,0.331c-0.922-0.006-1.661-0.756-1.648-1.675
				c0.023-2.799-0.797-4.896-2.512-6.414c-4.075-3.597-11.699-2.651-11.775-2.641c-0.914,0.119-1.75-0.526-1.869-1.437
				c-0.115-0.908,0.53-1.744,1.443-1.863c0.373-0.047,9.222-1.138,14.415,3.447c2.445,2.161,3.671,5.167,3.633,8.925
				C102.395,48.213,102.134,48.692,101.731,48.993z"/>
		</defs>
		<clipPath id="SVGID_4_">
			<use xlink:href="#SVGID_3_"  overflow="visible"/>
		</clipPath>
		
			<line clip-path="url(#SVGID_4_)" fill="none" stroke="#4F4F4F" stroke-miterlimit="10" x1="91.588" y1="42.003" x2="95.365" y2="33.926"/>
	</g>
	<g>
		<defs>
			<path id="SVGID_5_" d="M101.731,48.993c-0.284,0.211-0.636,0.334-1.018,0.331c-0.922-0.006-1.661-0.756-1.648-1.675
				c0.023-2.799-0.797-4.896-2.512-6.414c-4.075-3.597-11.699-2.651-11.775-2.641c-0.914,0.119-1.75-0.526-1.869-1.437
				c-0.115-0.908,0.53-1.744,1.443-1.863c0.373-0.047,9.222-1.138,14.415,3.447c2.445,2.161,3.671,5.167,3.633,8.925
				C102.395,48.213,102.134,48.692,101.731,48.993z"/>
		</defs>
		<clipPath id="SVGID_6_">
			<use xlink:href="#SVGID_5_"  overflow="visible"/>
		</clipPath>
		
			<line clip-path="url(#SVGID_6_)" fill="none" stroke="#4F4F4F" stroke-miterlimit="10" x1="94.32" y1="42.721" x2="100.032" y2="37.044"/>
	</g>
</g>
<g>
	<g>
		<defs>
			<path id="SVGID_7_" d="M9.599,47.667c-0.038-3.757,1.188-6.764,3.633-8.925c5.193-4.585,14.042-3.495,14.415-3.447
				c0.913,0.119,1.559,0.955,1.443,1.863c-0.119,0.911-0.955,1.555-1.869,1.437c-0.076-0.011-7.7-0.956-11.775,2.641
				c-1.715,1.519-2.535,3.615-2.512,6.414c0.013,0.919-0.727,1.669-1.648,1.675c-0.382,0.003-0.733-0.12-1.018-0.331
				C9.865,48.692,9.604,48.213,9.599,47.667z"/>
		</defs>
		<clipPath id="SVGID_8_">
			<use xlink:href="#SVGID_7_"  overflow="visible"/>
		</clipPath>
		
			<line clip-path="url(#SVGID_8_)" fill="none" stroke="#4F4F4F" stroke-miterlimit="10" x1="20.499" y1="32.639" x2="23.211" y2="41.049"/>
	</g>
	<g>
		<defs>
			<path id="SVGID_9_" d="M9.599,47.667c-0.038-3.757,1.188-6.764,3.633-8.925c5.193-4.585,14.042-3.495,14.415-3.447
				c0.913,0.119,1.559,0.955,1.443,1.863c-0.119,0.911-0.955,1.555-1.869,1.437c-0.076-0.011-7.7-0.956-11.775,2.641
				c-1.715,1.519-2.535,3.615-2.512,6.414c0.013,0.919-0.727,1.669-1.648,1.675c-0.382,0.003-0.733-0.12-1.018-0.331
				C9.865,48.692,9.604,48.213,9.599,47.667z"/>
		</defs>
		<clipPath id="SVGID_10_">
			<use xlink:href="#SVGID_9_"  overflow="visible"/>
		</clipPath>
		
			<line clip-path="url(#SVGID_10_)" fill="none" stroke="#4F4F4F" stroke-miterlimit="10" x1="16.634" y1="33.926" x2="20.411" y2="42.003"/>
	</g>
	<g>
		<defs>
			<path id="SVGID_11_" d="M9.599,47.667c-0.038-3.757,1.188-6.764,3.633-8.925c5.193-4.585,14.042-3.495,14.415-3.447
				c0.913,0.119,1.559,0.955,1.443,1.863c-0.119,0.911-0.955,1.555-1.869,1.437c-0.076-0.011-7.7-0.956-11.775,2.641
				c-1.715,1.519-2.535,3.615-2.512,6.414c0.013,0.919-0.727,1.669-1.648,1.675c-0.382,0.003-0.733-0.12-1.018-0.331
				C9.865,48.692,9.604,48.213,9.599,47.667z"/>
		</defs>
		<clipPath id="SVGID_12_">
			<use xlink:href="#SVGID_11_"  overflow="visible"/>
		</clipPath>
		
			<line clip-path="url(#SVGID_12_)" fill="none" stroke="#4F4F4F" stroke-miterlimit="10" x1="11.967" y1="37.044" x2="17.679" y2="42.721"/>
	</g>
</g>
<ellipse opacity="0.6" fill="#FFFFFF" enable-background="new    " cx="101.229" cy="45.619" rx="1.201" ry="1.313"/>
<ellipse opacity="0.6" fill="#FFFFFF" enable-background="new    " cx="13.625" cy="46.312" rx="1.201" ry="1.313"/>
<rect x="48.683" y="89.209" fill="#728C00" stroke="#000000" stroke-miterlimit="10" width="5.172" height="7.125"/>
<path opacity="0.5" fill="#0D0D0D" enable-background="new    " d="M42.753,48.226c0,0.98-0.355,1.778-0.793,1.778l0,0
	c-0.438,0-0.793-0.797-0.793-1.778V35.361c0-0.982,0.355-1.777,0.793-1.777l0,0c0.438,0,0.793,0.795,0.793,1.777V48.226z"/>
<rect x="50.214" y="90.5" opacity="0.3" fill="#FFFFFF" enable-background="new    " width="2.594" height="1.417"/>
<circle fill="#FFFFFF" cx="66.44" cy="10.551" r="1.352"/>
<circle fill="#FFFFFF" cx="47.512" cy="10.551" r="1.352"/>
<circle opacity="0.3" fill="#FFFFFF" cx="66.44" cy="10.551" r="2.604"/>
<circle opacity="0.3" fill="#FFFFFF" cx="47.512" cy="10.551" r="2.569"/>
</svg>
