<?xml version="1.0" encoding="utf-8"?>
<!-- Generator: Adobe Illustrator 16.0.0, SVG Export Plug-In . SVG Version: 6.00 Build 0)  -->
<!DOCTYPE svg PUBLIC "-//W3C//DTD SVG 1.1//EN" "http://www.w3.org/Graphics/SVG/1.1/DTD/svg11.dtd">
<svg version="1.1" id="robot1_x5F_front" xmlns="http://www.w3.org/2000/svg" xmlns:xlink="http://www.w3.org/1999/xlink" x="0px"
	 y="0px" width="109px" height="95px" viewBox="0 0 109 95" enable-background="new 0 0 109 95" xml:space="preserve">
<g>
	<path fill="#B3B3B3" stroke="#000000" stroke-miterlimit="10" d="M54.229,87.27l4.112-27.59h-8.237l3.252,27.496
		c-1.803,0.047-3.252,1.51-3.252,3.314c0,1.838,1.495,3.326,3.339,3.326c1.843,0,3.338-1.488,3.338-3.326
		C56.782,88.928,55.691,87.625,54.229,87.27z"/>
	<g>
		<path fill="#005AB3" stroke="#000000" stroke-miterlimit="10" d="M54.556,48.075c-16.287,0-29.538-3.423-30.026-7.691
			c-0.009,0.207-0.023,0.416-0.023,0.626c0,11.303,13.455,20.465,30.049,20.465s30.049-9.162,30.049-20.465
			c0-0.21-0.014-0.419-0.022-0.626C84.096,44.652,70.843,48.075,54.556,48.075z"/>
		<path fill="#EDEDED" stroke="#000000" stroke-miterlimit="10" d="M84.605,40.139c0-0.187-0.031-0.369-0.082-0.553
			c0.027,0.265,0.047,0.528,0.059,0.797C84.593,40.302,84.605,40.221,84.605,40.139z"/>
		<path fill="#EDEDED" stroke="#000000" stroke-miterlimit="10" d="M24.506,40.139c0,0.082,0.014,0.163,0.023,0.244
			c0.011-0.269,0.03-0.532,0.057-0.797C24.539,39.77,24.506,39.953,24.506,40.139z"/>
		<path fill="#474747" stroke="#000000" stroke-miterlimit="10" d="M54.556,48.075c16.29,0,29.54-3.423,30.027-7.691
			c-0.013-0.269-0.028-0.532-0.058-0.797c-1.072-4.124-14.075-7.385-29.969-7.385c-15.893,0-28.895,3.261-29.969,7.385
			c-0.027,0.265-0.046,0.528-0.057,0.797C25.017,44.652,38.269,48.075,54.556,48.075z"/>
	</g>
	<g>
		<path fill="#005AB3" stroke="#000000" stroke-miterlimit="10" d="M80.766,33.053c5.031-3.372,8.07-7.729,8.07-12.488
			c0-10.702-15.348-19.381-34.28-19.381c-18.931,0-34.279,8.679-34.279,19.381c0,4.762,3.039,9.116,8.072,12.488
			c6.288-4.215,15.693-6.895,26.208-6.895C65.072,26.159,74.477,28.84,80.766,33.053z"/>
	</g>
	<g>
		<g>
			<path fill="#333333" stroke="#000000" stroke-miterlimit="10" d="M73.75,35.11v8.97c0,1.136-1.077,2.055-2.402,2.055h-34.25
				c-1.328,0-2.404-0.92-2.404-2.055v-8.882v-5.023c-0.748,0.258-1.473,0.528-2.173,0.815v4.53v9.39
				c0,0.269,0.064,0.521,0.165,0.763c5.934,0.949,13.552,1.522,21.872,1.522c7.992,0,15.337-0.528,21.164-1.412
				c0.131-0.271,0.205-0.563,0.205-0.873v-9.49v-4.693c-0.705-0.271-1.428-0.53-2.174-0.777L73.75,35.11L73.75,35.11z"/>
		</g>
		<path fill="#091D29" stroke="#000000" stroke-miterlimit="10" d="M37.097,46.134h34.25c1.327,0,2.403-0.92,2.403-2.055V29.945
			c-5.478-1.806-12.08-2.861-19.195-2.861c-7.408,0-14.259,1.148-19.863,3.09v13.905C34.693,45.215,35.769,46.134,37.097,46.134z"/>
	</g>
	<path fill="#005AB3" stroke="#000000" stroke-miterlimit="10" d="M51.387,61.727c2.291,4.267,1.995,8.867-0.661,10.283
		c-2.656,1.414-6.666-0.896-8.957-5.158c-2.29-4.266-1.995-8.867,0.662-10.281C45.086,55.154,49.096,57.463,51.387,61.727z"/>
	<path opacity="0.3" fill="#FFFFFF" d="M50.163,62.731c-1.813-3.375-4.988-5.203-7.09-4.082c-0.577,0.308-1.008,0.81-1.3,1.439
		c2.097-0.867,5.1,0.939,6.845,4.188c1.316,2.451,1.548,5.036,0.776,6.701c0.082-0.034,0.166-0.063,0.245-0.105
		C51.742,69.751,51.977,66.108,50.163,62.731z"/>
	<line fill="none" stroke="#000000" stroke-miterlimit="10" x1="20.276" y1="21.766" x2="88.622" y2="21.766"/>
	
		<line opacity="0.2" fill="none" stroke="#FFFFFF" stroke-width="0.75" stroke-miterlimit="10" x1="20.276" y1="22.583" x2="88.622" y2="22.583"/>
	<ellipse fill="#8A8A8A" stroke="#000000" stroke-miterlimit="10" cx="33.855" cy="21.765" rx="5.342" ry="5.319"/>
	<ellipse fill="#8A8A8A" stroke="#000000" stroke-miterlimit="10" cx="75.925" cy="21.765" rx="5.343" ry="5.319"/>
	<ellipse fill="#00C4FF" stroke="#000000" stroke-miterlimit="10" cx="75.925" cy="21.326" rx="4.513" ry="4.495"/>
	<ellipse fill="#00C4FF" stroke="#000000" stroke-miterlimit="10" cx="33.855" cy="21.326" rx="4.512" ry="4.495"/>
	<g>
		<path fill="#474747" stroke="#000000" stroke-miterlimit="10" d="M83.788,23.949c-1.34,2.723-1.588,5.336-0.554,5.842
			c1.033,0.505,2.959-1.289,4.3-4.011c1.341-2.724,1.588-5.336,0.554-5.841C87.055,19.433,85.128,21.229,83.788,23.949z"/>
		<g>
			<path fill="#B3B3B3" stroke="#000000" stroke-miterlimit="10" d="M98.945,41.09c-0.33,0.128-0.702,0.151-1.067,0.046
				c-0.886-0.256-1.396-1.177-1.14-2.059c0.779-2.688,0.555-4.928-0.688-6.851c-2.954-4.563-10.552-5.707-10.627-5.718
				c-0.912-0.132-1.545-0.977-1.412-1.886c0.132-0.905,0.979-1.537,1.892-1.405c0.373,0.054,9.187,1.388,12.953,7.204
				c1.772,2.74,2.142,5.964,1.092,9.575C99.794,40.518,99.414,40.907,98.945,41.09z"/>
		</g>
		<path fill="#454545" stroke="#000000" stroke-miterlimit="10" d="M94.816,54.029l0.148-3.992
			c-1.279-1.066-2.072-2.688-2.006-4.478c0.114-3.071,2.708-5.475,5.794-5.358c3.089,0.112,5.497,2.695,5.384,5.771
			c-0.058,1.552-0.75,2.93-1.813,3.899l-0.155,4.197c3.107-1.351,5.341-4.369,5.475-7.973c0.186-5-3.735-9.204-8.756-9.391
			c-5.022-0.187-9.244,3.723-9.431,8.723C89.316,49.229,91.543,52.559,94.816,54.029z"/>
		<path fill="#005AB3" stroke="#000000" stroke-miterlimit="10" d="M102.079,40.773c-0.851,1.925-3.104,2.797-5.037,1.948
			c-1.933-0.848-2.81-3.095-1.958-5.018c0.852-1.925,3.105-2.797,5.037-1.952C102.055,36.602,102.932,38.849,102.079,40.773z"/>
	</g>
	<g>
		<path fill="#474747" stroke="#000000" stroke-miterlimit="10" d="M25.213,24.717c1.34,2.723,1.588,5.336,0.553,5.842
			c-1.034,0.507-2.959-1.289-4.299-4.012c-1.341-2.722-1.588-5.336-0.554-5.841C21.949,20.201,23.873,21.996,25.213,24.717z"/>
		<g>
			<path fill="#B3B3B3" stroke="#000000" stroke-miterlimit="10" d="M10.056,41.855c0.329,0.13,0.702,0.152,1.067,0.048
				c0.886-0.257,1.396-1.178,1.14-2.061c-0.78-2.687-0.555-4.928,0.688-6.849c2.955-4.563,10.551-5.707,10.626-5.718
				c0.913-0.133,1.546-0.978,1.413-1.887c-0.131-0.904-0.979-1.538-1.892-1.403c-0.373,0.053-9.186,1.385-12.953,7.204
				c-1.773,2.738-2.141,5.962-1.091,9.573C9.207,41.285,9.587,41.675,10.056,41.855z"/>
		</g>
		<path fill="#454545" stroke="#000000" stroke-miterlimit="10" d="M14.183,54.797l-0.148-3.99c1.28-1.065,2.073-2.688,2.006-4.478
			c-0.114-3.073-2.708-5.477-5.795-5.36c-3.087,0.117-5.497,2.698-5.383,5.771c0.058,1.551,0.749,2.93,1.815,3.9l0.155,4.194
			c-3.109-1.349-5.34-4.369-5.474-7.972c-0.185-4.999,3.736-9.204,8.757-9.39c5.022-0.187,9.243,3.723,9.429,8.722
			C19.684,49.996,17.458,53.326,14.183,54.797z"/>
		<path fill="#005AB3" stroke="#000000" stroke-miterlimit="10" d="M6.922,41.54c0.85,1.925,3.105,2.797,5.037,1.949
			c1.933-0.848,2.81-3.095,1.958-5.019c-0.851-1.924-3.106-2.797-5.037-1.951C6.947,37.368,6.071,39.615,6.922,41.54z"/>
	</g>
	<polygon fill="#212121" stroke="#000000" stroke-miterlimit="10" points="75.925,34.2 80.438,33.374 76.373,30.973 	"/>
	<polygon fill="#212121" stroke="#000000" stroke-miterlimit="10" points="32.644,34.2 28.132,33.374 32.195,30.973 	"/>
	<path fill="#091D29" d="M35.267,40.139l1.89,5.583c0,0,21.846,2.543,34.538-0.068l-1.031-5.271L35.267,40.139z"/>
	<circle fill="#005AB3" stroke="#000000" stroke-miterlimit="10" cx="53.93" cy="90.334" r="3.904"/>
</g>
<g opacity="0.3">
	<path fill="#FFFFFF" d="M48.05,49.358c0.351-0.018,0.698-0.038,1.045-0.059c-12.834-0.284-19.517-2.467-23.167-5.697
		c0,0-0.209-0.46-0.209-0.281c0,1.374,0.7,2.591,1.142,3.873C31.481,48.842,39.016,49.807,48.05,49.358z"/>
</g>
<path opacity="0.3" fill="#FFFFFF" d="M77.614,45.664c-2.4,7.426-11.651,13.334-23.101,14.183c0.564,0.025,1.133,0.043,1.707,0.043
	c13.348,0,24.299-6.977,25.431-15.868C80.524,44.681,78.625,45.338,77.614,45.664z"/>
<ellipse opacity="0.3" fill="#FFFFFF" cx="55.424" cy="89.688" rx="1.201" ry="1.313"/>
<ellipse opacity="0.3" fill="#FFFFFF" cx="100.53" cy="38.01" rx="1.201" ry="1.313"/>
<ellipse opacity="0.3" fill="#FFFFFF" cx="11.653" cy="38.572" rx="1.201" ry="1.313"/>
<g>
	<path opacity="0.3" fill="#FFFFFF" d="M87.032,19.494c-1.16-9.58-15.265-17.152-32.506-17.152
		c-14.702,0-27.126,5.506-31.187,13.068c5.764-5.194,15.977-8.651,27.622-8.651c17.039,0,31.015,7.396,32.459,16.816
		C84.341,21.763,85.72,19.982,87.032,19.494z"/>
	<path opacity="0.3" fill="#FFFFFF" d="M82.501,29.783c-0.117,0.256-0.224,0.515-0.359,0.766c0.195-0.176,0.369-0.359,0.554-0.539
		C82.628,29.948,82.564,29.872,82.501,29.783z"/>
</g>
<ellipse fill="#5FE8ED" stroke="#000000" stroke-miterlimit="10" cx="69.915" cy="11.55" rx="1.78" ry="1.774"/>
<ellipse fill="#EDEDED" stroke="#000000" stroke-width="0.5" stroke-miterlimit="10" cx="70.664" cy="11.239" rx="0.748" ry="0.776"/>
<circle fill="#FFFFFF" cx="75.925" cy="21.326" r="1.874"/>
<circle fill="#FFFFFF" cx="33.855" cy="21.326" r="1.874"/>
<circle opacity="0.4" fill="#E8EDED" cx="75.925" cy="21.326" r="4.568"/>
<circle opacity="0.4" fill="#E8EDED" cx="33.855" cy="21.326" r="4.568"/>
<path opacity="0.5" fill="#0D0D0D" d="M31.981,34.2h44.331l3.875-1.232c0,0-12.261-7.276-25.63-6.81c0,0-14.156-0.236-26.044,6.99
	L31.981,34.2z"/>
<path opacity="0.3" fill="#FFFFFF" d="M72.25,43.589c0,0.438-0.355,0.793-0.793,0.793l0,0c-0.438,0-0.793-0.355-0.793-0.793v-7.188
	c0-0.438,0.355-0.793,0.793-0.793l0,0c0.438,0,0.793,0.355,0.793,0.793V43.589z"/>
<path opacity="0.5" fill="#0D0D0D" d="M38.199,43.589c0,0.438-0.355,0.793-0.793,0.793l0,0c-0.438,0-0.793-0.355-0.793-0.793v-7.188
	c0-0.438,0.355-0.793,0.793-0.793l0,0c0.438,0,0.793,0.355,0.793,0.793V43.589z"/>
<g>
	<defs>
		<path id="SVGID_1_" d="M98.945,41.09c-0.33,0.128-0.702,0.151-1.067,0.046c-0.886-0.256-1.396-1.177-1.14-2.059
			c0.779-2.688,0.555-4.928-0.688-6.851c-2.954-4.563-10.552-5.707-10.627-5.718c-0.912-0.132-1.545-0.977-1.412-1.886
			c0.132-0.905,0.979-1.537,1.892-1.405c0.373,0.054,9.187,1.388,12.953,7.204c1.772,2.74,2.142,5.964,1.092,9.575
			C99.794,40.518,99.414,40.907,98.945,41.09z"/>
	</defs>
	<clipPath id="SVGID_2_">
		<use xlink:href="#SVGID_1_"  overflow="visible"/>
	</clipPath>
	
		<line clip-path="url(#SVGID_2_)" fill="none" stroke="#4F4F4F" stroke-miterlimit="10" x1="88.622" y1="29.95" x2="93.5" y2="22.583"/>
	
		<line clip-path="url(#SVGID_2_)" fill="none" stroke="#4F4F4F" stroke-miterlimit="10" x1="91.061" y1="31.625" x2="96.875" y2="24.865"/>
	
		<line clip-path="url(#SVGID_2_)" fill="none" stroke="#4F4F4F" stroke-miterlimit="10" x1="93.5" y1="33.053" x2="100.53" y2="29.125"/>
</g>
<g>
	<defs>
		<path id="SVGID_3_" d="M9.764,39.996c-1.05-3.611-0.681-6.835,1.092-9.575c3.767-5.816,12.58-7.15,12.953-7.204
			c0.912-0.132,1.76,0.5,1.892,1.405c0.133,0.909-0.5,1.754-1.412,1.886c-0.075,0.011-7.673,1.155-10.627,5.718
			c-1.243,1.923-1.468,4.163-0.688,6.851c0.256,0.882-0.254,1.803-1.14,2.059c-0.365,0.105-0.737,0.082-1.067-0.046
			C10.297,40.907,9.917,40.518,9.764,39.996z"/>
	</defs>
	<clipPath id="SVGID_4_">
		<use xlink:href="#SVGID_3_"  overflow="visible"/>
	</clipPath>
	
		<line clip-path="url(#SVGID_4_)" fill="none" stroke="#4F4F4F" stroke-miterlimit="10" x1="21.089" y1="29.95" x2="16.211" y2="22.583"/>
	
		<line clip-path="url(#SVGID_4_)" fill="none" stroke="#4F4F4F" stroke-miterlimit="10" x1="18.65" y1="31.625" x2="12.836" y2="24.865"/>
	
		<line clip-path="url(#SVGID_4_)" fill="none" stroke="#4F4F4F" stroke-miterlimit="10" x1="16.211" y1="33.053" x2="9.181" y2="29.125"/>
</g>
</svg>
