<?xml version="1.0" encoding="utf-8"?>
<!-- Generator: Adobe Illustrator 16.0.0, SVG Export Plug-In . SVG Version: 6.00 Build 0)  -->
<!DOCTYPE svg PUBLIC "-//W3C//DTD SVG 1.1//EN" "http://www.w3.org/Graphics/SVG/1.1/DTD/svg11.dtd">
<svg version="1.1" id="robot1_x5F_side" xmlns="http://www.w3.org/2000/svg" xmlns:xlink="http://www.w3.org/1999/xlink" x="0px"
	 y="0px" width="109px" height="95px" viewBox="0 0 109 95" enable-background="new 0 0 109 95" xml:space="preserve">
<g>
	<g>
		<path fill="#B3B3B3" stroke="#000000" stroke-miterlimit="10" d="M54.159,87.27l4.11-27.59h-8.235l3.252,27.496
			c-1.803,0.047-3.252,1.51-3.252,3.316c0,1.836,1.495,3.324,3.339,3.324c1.843,0,3.338-1.488,3.338-3.324
			C56.712,88.928,55.621,87.625,54.159,87.27z"/>
		<g>
			<path fill="#005AB3" stroke="#000000" stroke-miterlimit="10" d="M54.486,46.152c-16.287,0-29.539-1.5-30.026-5.769
				c-0.009,0.207-0.023,0.416-0.023,0.626c0,11.304,13.455,20.468,30.049,20.468c16.596,0,30.049-9.164,30.049-20.468
				c0-0.21-0.014-0.419-0.021-0.626C84.025,44.652,70.773,46.152,54.486,46.152z"/>
			<path fill="#EDEDED" stroke="#231F20" stroke-miterlimit="10" d="M84.535,40.139c0-0.187-0.031-0.369-0.08-0.553
				c0.027,0.265,0.045,0.528,0.057,0.797C84.521,40.302,84.535,40.221,84.535,40.139z"/>
			<path fill="#EDEDED" stroke="#231F20" stroke-miterlimit="10" d="M24.436,40.139c0,0.082,0.014,0.163,0.023,0.244
				c0.011-0.269,0.03-0.532,0.057-0.797C24.469,39.77,24.436,39.953,24.436,40.139z"/>
			<path fill="#474747" stroke="#000000" stroke-miterlimit="10" d="M54.486,46.152c16.288,0,29.54-1.5,30.026-5.769
				c-0.012-0.269-0.029-0.532-0.058-0.797c-1.072-4.124-14.075-7.385-29.969-7.385c-15.893,0-28.895,3.261-29.969,7.385
				c-0.027,0.265-0.046,0.528-0.057,0.797C24.947,44.652,38.199,46.152,54.486,46.152z"/>
			<g opacity="0.3">
				<path fill="#FFFFFF" d="M48.826,48.334c0.349-0.042,0.694-0.088,1.038-0.131c-12.823,0.604-19.641-1.112-23.505-4.082
					c0,0-0.241-0.444-0.229-0.266c0.095,1.371,0.878,2.537,1.407,3.785C32.26,48.964,39.844,49.405,48.826,48.334z"/>
			</g>
		</g>
		<path opacity="0.3" fill="#FFFFFF" d="M78.209,45.008c-2.4,7.426-11.651,13.334-23.101,14.184
			c0.564,0.025,1.133,0.043,1.707,0.043c13.348,0,24.299-6.977,25.431-15.869C81.119,44.025,79.22,44.682,78.209,45.008z"/>
		<ellipse fill="#EDEDED" cx="69.846" cy="11.55" rx="1.78" ry="1.774"/>
		<g>
			<g>
				<path fill="#333333" stroke="#000000" stroke-miterlimit="10" d="M66.671,31.783v11.439c0,1.448-0.69,2.62-1.542,2.62H43.172
					c-0.851,0-1.541-1.173-1.541-2.62V31.896V25.49c-0.479,0.328-0.944,0.673-1.393,1.039v5.778v11.975
					c0,0.343,0.041,0.664,0.106,0.973c3.804,1.211,8.809,0.898,14.142,0.898c5.124,0,9.711,0.369,13.448-0.758
					c0.082-0.345,0.129-0.719,0.129-1.113V32.178v-5.985c-0.449-0.346-0.914-0.676-1.393-0.991L66.671,31.783L66.671,31.783z"/>
			</g>
			<path fill="#5C5C5C" stroke="#231F20" stroke-miterlimit="10" d="M43.173,45.842H65.13c0.851,0,1.541-1.173,1.541-2.62V25.196
				c-3.512-2.303-7.744-3.649-12.305-3.649c-4.749,0-9.141,1.465-12.734,3.94v17.734C41.632,44.67,42.322,45.842,43.173,45.842z"/>
		</g>
		<polygon fill="#EDEDED" points="75.854,34.2 80.365,33.374 76.303,30.973 		"/>
		<polygon fill="#EDEDED" points="32.574,34.2 28.062,33.374 32.125,30.973 		"/>
		<path fill="#005AB3" stroke="#000000" stroke-miterlimit="10" d="M57.471,56.57c2.764,1.412,3.07,6.018,0.688,10.281
			s-6.553,6.571-9.315,5.155c-2.763-1.416-3.071-6.021-0.688-10.28C50.537,57.463,54.708,55.154,57.471,56.57z"/>
		<path fill="#005AB3" stroke="#000000" stroke-miterlimit="10" d="M54.486,1.184c-18.931,0-34.279,8.679-34.279,19.381
			c0,4.762,3.039,9.116,8.072,12.488c3.936-2.638,9.094-4.675,14.98-5.829c1.376,4.296,5.399,7.407,10.152,7.407
			c4.883,0,8.989-3.286,10.253-7.765c6.738,1.059,12.645,3.248,17.029,6.187c5.033-3.372,8.072-7.729,8.072-12.488
			C88.766,9.862,73.418,1.184,54.486,1.184z"/>
		<path opacity="0.3" fill="#FFFFFF" d="M87.03,19.859c-1.16-9.58-15.265-17.152-32.506-17.152
			c-14.702,0-27.126,5.506-31.187,13.068c5.764-5.194,15.977-8.651,27.621-8.651c17.039,0,31.016,7.396,32.46,16.816
			C84.339,22.128,85.718,20.348,87.03,19.859z"/>
		<g>
			<ellipse fill="#474747" stroke="#000000" stroke-miterlimit="10" cx="53.237" cy="25.772" rx="5.035" ry="4.577"/>
			<g>
				<path fill="#B3B3B3" stroke="#000000" stroke-miterlimit="10" d="M40.487,41.857c0.329,0.129,0.702,0.151,1.067,0.047
					c0.886-0.256,1.396-1.178,1.14-2.061c-0.78-2.687-0.555-4.928,0.688-6.849c2.955-4.563,10.551-5.707,10.626-5.718
					c0.913-0.133,1.547-0.978,1.413-1.887c-0.131-0.904-0.979-1.538-1.892-1.403c-0.373,0.053-9.186,1.385-12.953,7.202
					c-1.773,2.74-2.141,5.963-1.091,9.575C39.638,41.285,40.018,41.675,40.487,41.857z"/>
			</g>
			<path fill="#454545" stroke="#000000" stroke-miterlimit="10" d="M44.614,54.797l-0.148-3.99c1.28-1.065,2.073-2.688,2.006-4.478
				c-0.114-3.073-2.708-5.477-5.795-5.36c-3.087,0.117-5.497,2.698-5.383,5.771c0.058,1.551,0.749,2.93,1.815,3.9l0.155,4.194
				c-3.109-1.346-5.34-4.367-5.474-7.972c-0.185-4.999,3.736-9.204,8.757-9.39c5.022-0.187,9.243,3.723,9.429,8.722
				C50.115,49.998,47.889,53.328,44.614,54.797z"/>
			<path fill="#005AB3" stroke="#000000" stroke-miterlimit="10" d="M37.353,41.54c0.85,1.925,3.105,2.797,5.037,1.949
				c1.933-0.848,2.81-3.095,1.958-5.019c-0.851-1.924-3.106-2.797-5.037-1.951C37.378,37.368,36.502,39.615,37.353,41.54z"/>
		</g>
		<path opacity="0.3" fill="#FFFFFF" d="M56.424,66.575c2.148-3.172,2.296-6.832,0.327-8.175c-0.539-0.368-1.185-0.519-1.878-0.483
			c1.74,1.454,1.533,4.953-0.535,8.006c-1.561,2.304-3.742,3.707-5.576,3.797c0.069,0.057,0.134,0.117,0.207,0.168
			C50.938,71.23,54.273,69.748,56.424,66.575z"/>
	</g>
	<line fill="none" stroke="#000000" stroke-miterlimit="10" x1="57.5" y1="23.349" x2="78.109" y2="23.349"/>
	<line fill="none" stroke="#000000" stroke-miterlimit="10" x1="48.465" y1="41.537" x2="66.073" y2="41.537"/>
	<line fill="none" stroke="#000000" stroke-miterlimit="10" x1="66.671" y1="37.185" x2="43.698" y2="37.185"/>
	<line fill="none" stroke="#000000" stroke-miterlimit="10" x1="66.671" y1="33.162" x2="58.794" y2="33.162"/>
	<line fill="none" stroke="#000000" stroke-miterlimit="10" x1="47.17" y1="33.162" x2="43.382" y2="33.162"/>
	<path fill="none" stroke="#000000" stroke-miterlimit="10" d="M49.073,23.201"/>
	<ellipse fill="#FFFFFF" stroke="#231F20" stroke-miterlimit="10" cx="83.452" cy="22.34" rx="5.342" ry="5.319"/>
	<ellipse fill="#EDEDED" stroke="#000000" stroke-miterlimit="10" cx="83.452" cy="21.901" rx="4.512" ry="4.495"/>
</g>
<line opacity="0.2" fill="none" stroke="#FFFFFF" stroke-width="0.75" stroke-miterlimit="10" x1="58.396" y1="24.229" x2="78.082" y2="24.229"/>
<ellipse fill="#8A8A8A" stroke="#000000" stroke-miterlimit="10" cx="83.425" cy="22.34" rx="5.342" ry="5.319"/>
<ellipse fill="#00C4FF" stroke="#000000" stroke-miterlimit="10" cx="83.425" cy="21.901" rx="4.512" ry="4.495"/>
<circle fill="#005AB3" stroke="#000000" stroke-miterlimit="10" cx="53.156" cy="89.912" r="3.904"/>
<ellipse opacity="0.3" fill="#FFFFFF" cx="54.651" cy="89.266" rx="1.201" ry="1.313"/>
<circle fill="#FFFFFF" cx="85.549" cy="21.901" r="1.874"/>
<circle opacity="0.4" fill="#E8EDED" cx="83.425" cy="21.901" r="4.568"/>
<g>
	<defs>
		<path id="SVGID_1_" d="M39.485,40.626c-1.05-3.611-0.681-6.835,1.092-9.575c3.767-5.816,12.58-7.15,12.953-7.204
			c0.912-0.132,1.759,0.5,1.892,1.405c0.133,0.909-0.5,1.754-1.413,1.886c-0.075,0.011-7.673,1.155-10.627,5.718
			c-1.243,1.923-1.468,4.163-0.688,6.851c0.256,0.882-0.254,1.803-1.14,2.059c-0.365,0.105-0.737,0.082-1.067-0.046
			C40.018,41.537,39.638,41.148,39.485,40.626z"/>
	</defs>
	<clipPath id="SVGID_2_">
		<use xlink:href="#SVGID_1_"  overflow="visible"/>
	</clipPath>
	
		<line clip-path="url(#SVGID_2_)" fill="none" stroke="#4F4F4F" stroke-miterlimit="10" x1="50.81" y1="30.58" x2="45.932" y2="23.213"/>
	
		<line clip-path="url(#SVGID_2_)" fill="none" stroke="#4F4F4F" stroke-miterlimit="10" x1="48.372" y1="32.255" x2="42.557" y2="25.495"/>
	
		<line clip-path="url(#SVGID_2_)" fill="none" stroke="#4F4F4F" stroke-miterlimit="10" x1="45.932" y1="33.683" x2="38.902" y2="29.755"/>
</g>
</svg>
